<svg xmlns="http://www.w3.org/2000/svg" fill="none" viewBox="0 0 48 48"><path fill="currentColor" d="M13.7334 17.4702C13.8548 18.6391 14.6027 19.6113 15.6705 20.102C17.4457 20.9179 20.2949 22.125 22.5 22.5737V11.4045C22.0238 11.2755 21.4968 11.1013 20.9527 10.9036C19.8214 10.4926 18.5389 9.9516 17.3452 9.4205C16.1475 8.88761 15.0196 8.35589 14.1924 7.95807C14.0016 7.86631 13.8265 7.78156 13.6701 7.70543C13.5767 8.81573 13.5 10.3165 13.5 12.25C13.5 14.6083 13.6141 16.3228 13.7334 17.4702Z"></path><path fill="currentColor" d="M25.5 11.4045V22.5737C27.7051 22.125 30.5543 20.9179 32.3295 20.102C33.3973 19.6113 34.1452 18.6391 34.2666 17.4702C34.3859 16.3228 34.5 14.6083 34.5 12.25C34.5 10.3165 34.4233 8.81573 34.3299 7.70543C34.1735 7.78156 33.9984 7.86631 33.8076 7.95807C32.9804 8.35589 31.8525 8.88761 30.6548 9.4205C29.4611 9.9516 28.1786 10.4926 27.0473 10.9036C26.5032 11.1013 25.9762 11.2755 25.5 11.4045Z"></path><path fill="currentColor" d="M32.3295 4.39797C32.6373 4.53942 32.9185 4.72086 33.1658 4.93549C32.9786 5.02687 32.7569 5.13448 32.5074 5.25448C31.6971 5.64416 30.5975 6.16244 29.4353 6.67955C28.269 7.19845 27.059 7.70748 26.0228 8.08394C25.5041 8.2724 25.0482 8.42058 24.6745 8.5199C24.2748 8.62615 24.0647 8.65002 24 8.65002C23.9353 8.65002 23.7252 8.62615 23.3255 8.5199C22.9518 8.42058 22.4959 8.2724 21.9772 8.08394C20.941 7.70748 19.731 7.19845 18.5647 6.67955C17.4025 6.16244 16.3029 5.64416 15.4926 5.25448C15.2431 5.13448 15.0214 5.02687 14.8342 4.93549C15.0815 4.72086 15.3627 4.53942 15.6705 4.39797C17.8874 3.37913 21.7795 1.75 24 1.75C26.2205 1.75 30.1126 3.37913 32.3295 4.39797Z"></path><path fill="currentColor" d="M1.73335 38.7202C1.85478 39.8891 2.60272 40.8613 3.6705 41.352C5.44569 42.1679 8.29494 43.375 10.5 43.8237V32.6545C10.0238 32.5255 9.49683 32.3513 8.95273 32.1536C7.8214 31.7426 6.5389 31.2016 5.34521 30.6705C4.14748 30.1376 3.01958 29.6059 2.19238 29.2081C2.00157 29.1163 1.82653 29.0316 1.67007 28.9554C1.57673 30.0657 1.5 31.5665 1.5 33.5C1.5 35.8583 1.61414 37.5728 1.73335 38.7202Z"></path><path fill="currentColor" d="M13.5 32.6545V43.8237C15.7051 43.375 18.5543 42.1679 20.3295 41.352C21.3973 40.8613 22.1452 39.8891 22.2666 38.7202C22.3859 37.5728 22.5 35.8583 22.5 33.5C22.5 31.5665 22.4233 30.0657 22.3299 28.9554C22.1735 29.0316 21.9984 29.1163 21.8076 29.2081C20.9804 29.6059 19.8525 30.1376 18.6548 30.6705C17.4611 31.2016 16.1786 31.7426 15.0473 32.1536C14.5032 32.3513 13.9762 32.5255 13.5 32.6545Z"></path><path fill="currentColor" d="M20.3295 25.648C20.6373 25.7894 20.9185 25.9709 21.1658 26.1855C20.9786 26.2769 20.7569 26.3845 20.5074 26.5045C19.6971 26.8942 18.5975 27.4124 17.4353 27.9295C16.269 28.4485 15.059 28.9575 14.0228 29.3339C13.5041 29.5224 13.0482 29.6706 12.6745 29.7699C12.2748 29.8762 12.0647 29.9 12 29.9C11.9353 29.9 11.7252 29.8762 11.3255 29.7699C10.9518 29.6706 10.4959 29.5224 9.97717 29.3339C8.941 28.9575 7.731 28.4485 6.56471 27.9295C5.40245 27.4124 4.30287 26.8942 3.49259 26.5045C3.24308 26.3845 3.02141 26.2769 2.83425 26.1855C3.08153 25.9709 3.36273 25.7894 3.67051 25.648C5.88744 24.6291 9.77948 23 12 23C14.2205 23 18.1126 24.6291 20.3295 25.648Z"></path><path fill="currentColor" d="M25.7334 38.7202C25.8548 39.8891 26.6027 40.8613 27.6705 41.352C29.4457 42.1679 32.2949 43.375 34.5 43.8237V32.6545C34.0238 32.5255 33.4968 32.3513 32.9527 32.1536C31.8214 31.7426 30.5389 31.2016 29.3452 30.6705C28.1475 30.1376 27.0196 29.6059 26.1924 29.2081C26.0016 29.1163 25.8265 29.0316 25.6701 28.9554C25.5767 30.0657 25.5 31.5665 25.5 33.5C25.5 35.8583 25.6141 37.5728 25.7334 38.7202Z"></path><path fill="currentColor" d="M37.5 32.6545V43.8237C39.7051 43.375 42.5543 42.1679 44.3295 41.352C45.3973 40.8613 46.1452 39.8891 46.2666 38.7202C46.3859 37.5728 46.5 35.8583 46.5 33.5C46.5 31.5665 46.4233 30.0657 46.3299 28.9554C46.1735 29.0316 45.9984 29.1163 45.8076 29.2081C44.9804 29.6059 43.8525 30.1376 42.6548 30.6705C41.4611 31.2016 40.1786 31.7426 39.0473 32.1536C38.5032 32.3513 37.9762 32.5255 37.5 32.6545Z"></path><path fill="currentColor" d="M44.3295 25.648C44.6373 25.7894 44.9185 25.9709 45.1658 26.1855C44.9786 26.2769 44.7569 26.3845 44.5074 26.5045C43.6971 26.8942 42.5975 27.4124 41.4353 27.9295C40.269 28.4485 39.059 28.9575 38.0228 29.3339C37.5041 29.5224 37.0482 29.6706 36.6745 29.7699C36.2748 29.8762 36.0647 29.9 36 29.9C35.9353 29.9 35.7252 29.8762 35.3255 29.7699C34.9518 29.6706 34.4959 29.5224 33.9772 29.3339C32.941 28.9575 31.731 28.4485 30.5647 27.9295C29.4025 27.4124 28.3029 26.8942 27.4926 26.5045C27.2431 26.3845 27.0214 26.2769 26.8342 26.1855C27.0815 25.9709 27.3627 25.7894 27.6705 25.648C29.8874 24.6291 33.7795 23 36 23C38.2205 23 42.1126 24.6291 44.3295 25.648Z"></path></svg>