<svg xmlns="http://www.w3.org/2000/svg" fill="none" viewBox="0 0 48 48"><path fill="currentColor" fill-rule="evenodd" d="M24 1.5C31.4014 1.5 36.5927 1.77808 39.8643 2.04389C43.1521 2.31103 45.689 4.84785 45.9561 8.13571C46.2219 11.4073 46.5 16.5986 46.5 24C46.5 31.4014 46.2219 36.5927 45.9561 39.8643C45.689 43.1522 43.1521 45.689 39.8643 45.9561C36.5927 46.2219 31.4014 46.5 24 46.5C16.5986 46.5 11.4073 46.2219 8.1357 45.9561C4.84785 45.689 2.31102 43.1522 2.04389 39.8643C1.77807 36.5927 1.5 31.4014 1.5 24C1.5 16.5986 1.77808 11.4073 2.04389 8.13569C2.31103 4.84784 4.84785 2.31102 8.1357 2.04389C11.4073 1.77808 16.5986 1.5 24 1.5ZM22.937 32.1663C21.1881 32.1663 19.7703 33.584 19.7703 35.333C19.7703 37.0819 21.1881 38.4997 22.937 38.4997C24.6859 38.4997 26.1037 37.0819 26.1037 35.333C26.1037 33.584 24.6859 32.1663 22.937 32.1663ZM16.8779 15.0312C17.2019 13.738 18.2434 12.3553 19.9156 11.2724C21.569 10.2017 23.7324 9.5 26.0894 9.5C28.9583 9.5 30.8617 10.5105 32.0674 11.8998C33.3031 13.3238 33.9229 15.284 33.9229 17.3334C33.9229 19.44 33.1611 20.9063 31.8386 22.1904C30.4384 23.5499 28.442 24.6767 25.9545 26.0119C25.4676 26.2732 25.1639 26.781 25.1639 27.3336V28.1663C25.1639 28.7186 24.7162 29.1663 24.1639 29.1663H21.0253C20.4725 29.1663 20.0245 28.7177 20.0253 28.1649L20.0306 24.3558C20.0306 23.475 20.6984 22.4868 22.1897 21.3747C23.324 20.5289 24.6397 19.8211 25.8535 19.1682C26.1835 18.9907 26.5063 18.8171 26.8156 18.646C27.5311 18.2501 27.7977 17.354 27.415 16.6314C27.0322 15.9087 26.1412 15.6258 25.4117 15.9953C23.8618 16.7803 21.8968 17.9299 20.828 18.5665C20.3637 18.843 20.0249 18.9713 19.7469 18.9933C18.6036 19.0841 17.7976 18.6493 17.316 18.004C16.8163 17.3347 16.5622 16.2915 16.8779 15.0312Z" clip-rule="evenodd"></path></svg>