<svg xmlns="http://www.w3.org/2000/svg" fill="none" viewBox="0 0 48 48"><path fill="currentColor" d="M15.5569 41.3628C17.9565 41.4491 20.7491 41.5 24 41.5C27.2491 41.5 30.0404 41.4492 32.4392 41.3629C30.8587 44.4146 27.6719 46.5 23.9981 46.5C20.3242 46.5 17.1374 44.4145 15.5569 41.3628Z"></path><path fill="currentColor" d="M39.1956 17.4489C38.5194 9.55958 31.9182 3.5 24 3.5C16.0818 3.5 9.4806 9.55958 8.80437 17.4489L8.32528 23.0383C8.11141 25.5334 7.3148 27.9436 5.99957 30.0748L4.52844 32.4585C3.05119 34.8522 3.85697 37.3249 6.64524 37.6958C9.83343 38.1199 15.1574 38.5 24 38.5C32.8426 38.5 38.1665 38.1199 41.3547 37.6958C44.143 37.3249 44.9488 34.8522 43.4715 32.4585L42.0004 30.0748C40.6852 27.9436 39.8886 25.5334 39.6747 23.0383L39.1956 17.4489Z"></path><path fill="currentColor" fill-rule="evenodd" d="M36.3026 1.52318C37.1182 0.585693 38.5394 0.48692 39.4769 1.30256C43.8179 5.07942 46.7293 10.5736 47.2425 16.8157C47.3443 18.0542 46.4228 19.1407 45.1844 19.2425C43.9459 19.3443 42.8594 18.4228 42.7576 17.1844C42.3416 12.1238 39.9876 7.71162 36.5232 4.6975C35.5857 3.88186 35.4869 2.46067 36.3026 1.52318Z" clip-rule="evenodd"></path><path fill="currentColor" fill-rule="evenodd" d="M11.6974 1.52318C10.8818 0.585693 9.4606 0.48692 8.52311 1.30256C4.18206 5.07942 1.27067 10.5736 0.757531 16.8157C0.655721 18.0542 1.57716 19.1407 2.81562 19.2425C4.05408 19.3443 5.14059 18.4228 5.2424 17.1844C5.65842 12.1238 8.01245 7.71162 11.4768 4.6975C12.4143 3.88186 12.5131 2.46067 11.6974 1.52318Z" clip-rule="evenodd"></path></svg>