<svg xmlns="http://www.w3.org/2000/svg" fill="none" viewBox="0 0 48 48"><path fill="currentColor" fill-rule="evenodd" d="M2.0439 8.13569C1.77808 11.4073 1.5 16.5986 1.5 24C1.5 31.4014 1.77807 36.5927 2.04389 39.8643C2.31102 43.1521 4.84784 45.689 8.13569 45.9561C11.4073 46.2219 16.5986 46.5 24 46.5C31.4014 46.5 36.5927 46.2219 39.8643 45.9561C43.1521 45.689 45.689 43.1521 45.9561 39.8643C46.2219 36.5927 46.5 31.4014 46.5 24C46.5 16.5986 46.2219 11.4073 45.9561 8.13571C45.689 4.84786 43.1522 2.31103 39.8643 2.0439C36.5927 1.77808 31.4015 1.5 24 1.5C16.5986 1.5 11.4073 1.77807 8.13571 2.04389C4.84786 2.31102 2.31103 4.84784 2.0439 8.13569ZM13.0644 18.1358C11.4608 18.189 10.1909 19.2839 10.0887 20.8851C10.0368 21.6994 10 22.737 10 24.0425C10 25.3004 10.0342 26.3095 10.0831 27.1098C10.1838 28.7559 11.5092 29.8734 13.158 29.9098C15.1999 29.9549 18.5933 30 24.0001 30C29.4065 30 32.7997 29.9549 34.8418 29.9098C36.4908 29.8734 37.8164 28.7556 37.917 27.1092C37.9659 26.309 38 25.3001 38 24.0425C38 22.7373 37.9632 21.6999 37.9114 20.8857C37.8093 19.2842 36.5392 18.1889 34.9353 18.1358C32.904 18.0684 29.49 18 24.0001 18C18.5098 18 15.0956 18.0684 13.0644 18.1358Z" clip-rule="evenodd"></path></svg>