<svg xmlns="http://www.w3.org/2000/svg" fill="none" viewBox="0 0 48 48"><path fill="currentColor" fill-rule="evenodd" d="M2.0439 8.13569C1.77808 11.4073 1.5 16.5986 1.5 24C1.5 31.4014 1.77807 36.5927 2.04389 39.8643C2.31102 43.1521 4.84784 45.689 8.13569 45.9561C11.4073 46.2219 16.5986 46.5 24 46.5C31.4014 46.5 36.5927 46.2219 39.8643 45.9561C43.1521 45.689 45.689 43.1521 45.9561 39.8643C46.2219 36.5927 46.5 31.4014 46.5 24C46.5 16.5986 46.2219 11.4073 45.9561 8.13571C45.689 4.84786 43.1522 2.31103 39.8643 2.0439C36.5927 1.77808 31.4015 1.5 24 1.5C16.5986 1.5 11.4073 1.77807 8.13571 2.04389C4.84786 2.31102 2.31103 4.84784 2.0439 8.13569ZM37.8642 34.9356C37.811 36.5392 36.7161 37.8091 35.1149 37.9113C34.3006 37.9632 33.263 38 31.9575 38C30.6996 38 29.6905 37.9658 28.8902 37.9169C27.2441 37.8162 26.1266 36.4908 26.0902 34.842C26.0451 32.8001 26 29.4067 26 23.9999C26 18.5935 26.0451 15.2003 26.0902 13.1582C26.1266 11.5092 27.2444 10.1836 28.8908 10.083C29.691 10.0341 30.6999 10 31.9575 10C33.2627 10 34.3001 10.0368 35.1143 10.0886C36.7158 10.1907 37.8111 11.4608 37.8642 13.0647C37.9316 15.096 38 18.51 38 23.9999C38 29.4902 37.9316 32.9044 37.8642 34.9356Z" clip-rule="evenodd"></path></svg>