<svg xmlns="http://www.w3.org/2000/svg" fill="none" viewBox="0 0 48 48"><path fill="currentColor" fill-rule="evenodd" d="M2.0439 8.13569C1.77808 11.4073 1.5 16.5986 1.5 24C1.5 31.4014 1.77807 36.5927 2.04389 39.8643C2.31102 43.1521 4.84784 45.689 8.13569 45.9561C11.4073 46.2219 16.5986 46.5 24 46.5C31.4014 46.5 36.5927 46.2219 39.8643 45.9561C43.1521 45.689 45.689 43.1521 45.9561 39.8643C46.2219 36.5927 46.5 31.4014 46.5 24C46.5 16.5986 46.2219 11.4073 45.9561 8.13571C45.689 4.84786 43.1522 2.31103 39.8643 2.0439C36.5927 1.77808 31.4015 1.5 24 1.5C16.5986 1.5 11.4073 1.77807 8.13571 2.04389C4.84786 2.31102 2.31103 4.84784 2.0439 8.13569ZM10.1358 34.9356C10.189 36.5392 11.2839 37.8091 12.8851 37.9113C13.6994 37.9632 14.737 38 16.0425 38C17.3004 38 18.3095 37.9658 19.1098 37.9169C20.7559 37.8162 21.8734 36.4908 21.9098 34.842C21.9549 32.8001 22 29.4067 22 23.9999C22 18.5935 21.9549 15.2003 21.9098 13.1582C21.8734 11.5092 20.7556 10.1836 19.1092 10.083C18.309 10.0341 17.3001 10 16.0425 10C14.7373 10 13.6999 10.0368 12.8857 10.0886C11.2842 10.1907 10.1889 11.4608 10.1358 13.0647C10.0684 15.096 10 18.51 10 23.9999C10 29.4902 10.0684 32.9044 10.1358 34.9356Z" clip-rule="evenodd"></path></svg>