<svg xmlns="http://www.w3.org/2000/svg" fill="none" viewBox="0 0 48 48"><path fill="currentColor" fill-rule="evenodd" d="M2.0439 8.13569C1.77808 11.4073 1.5 16.5986 1.5 24C1.5 31.4014 1.77807 36.5927 2.04389 39.8643C2.31102 43.1521 4.84784 45.689 8.13569 45.9561C11.4073 46.2219 16.5986 46.5 24 46.5C31.4014 46.5 36.5927 46.2219 39.8643 45.9561C43.1521 45.689 45.689 43.1521 45.9561 39.8643C46.2219 36.5927 46.5 31.4014 46.5 24C46.5 16.5986 46.2219 11.4073 45.9561 8.13571C45.689 4.84786 43.1522 2.31103 39.8643 2.0439C36.5927 1.77808 31.4015 1.5 24 1.5C16.5986 1.5 11.4073 1.77807 8.13571 2.04389C4.84786 2.31102 2.31103 4.84784 2.0439 8.13569ZM13.0644 10.1358C11.4608 10.189 10.1909 11.2839 10.0887 12.8851C10.0368 13.6994 10 14.737 10 16.0425C10 17.3004 10.0342 18.3095 10.0831 19.1098C10.1838 20.7559 11.5092 21.8734 13.158 21.9098C15.1999 21.9549 18.5933 22 24.0001 22C29.4065 22 32.7997 21.9549 34.8418 21.9098C36.4908 21.8734 37.8164 20.7556 37.917 19.1092C37.9659 18.309 38 17.3001 38 16.0425C38 14.7373 37.9632 13.6999 37.9114 12.8857C37.8093 11.2842 36.5392 10.1889 34.9353 10.1358C32.904 10.0684 29.49 10 24.0001 10C18.5098 10 15.0956 10.0684 13.0644 10.1358Z" clip-rule="evenodd"></path></svg>