<svg xmlns="http://www.w3.org/2000/svg" fill="none" viewBox="0 0 48 48"><path fill="currentColor" fill-rule="evenodd" d="M2.0439 8.13569C1.77808 11.4073 1.5 16.5986 1.5 24C1.5 31.4014 1.77807 36.5927 2.04389 39.8643C2.31102 43.1521 4.84784 45.689 8.13569 45.9561C11.4073 46.2219 16.5986 46.5 24 46.5C31.4014 46.5 36.5927 46.2219 39.8643 45.9561C43.1521 45.689 45.689 43.1521 45.9561 39.8643C46.2219 36.5927 46.5 31.4014 46.5 24C46.5 16.5986 46.2219 11.4073 45.9561 8.13571C45.689 4.84786 43.1522 2.31103 39.8643 2.0439C36.5927 1.77808 31.4015 1.5 24 1.5C16.5986 1.5 11.4073 1.77807 8.13571 2.04389C4.84786 2.31102 2.31103 4.84784 2.0439 8.13569ZM13.0644 37.8642C11.4608 37.811 10.1909 36.7161 10.0887 35.1149C10.0368 34.3006 10 33.263 10 31.9575C10 30.6996 10.0342 29.6905 10.0831 28.8902C10.1838 27.2441 11.5092 26.1266 13.158 26.0902C15.1999 26.0451 18.5933 26 24.0001 26C29.4065 26 32.7997 26.0451 34.8418 26.0902C36.4908 26.1266 37.8164 27.2444 37.917 28.8908C37.9659 29.691 38 30.6999 38 31.9575C38 33.2627 37.9632 34.3001 37.9114 35.1143C37.8093 36.7158 36.5392 37.8111 34.9353 37.8642C32.904 37.9316 29.49 38 24.0001 38C18.5098 38 15.0956 37.9316 13.0644 37.8642Z" clip-rule="evenodd"></path></svg>