<svg xmlns="http://www.w3.org/2000/svg" fill="none" viewBox="0 0 48 48"><path fill="currentColor" fill-rule="evenodd" d="M25.5.5a2 2 0 0 0-2 2v3a2 2 0 1 0 4 0v-3a2 2 0 0 0-2-2Zm-17 21a2 2 0 1 1 0-4h3a2 2 0 1 1 0 4h-3Zm34 0a2 2 0 1 0 0-4h-3a2 2 0 1 0 0 4h3ZM12.064 8.895a2 2 0 0 1 2.829-2.828l2.121 2.12a2 2 0 1 1-2.828 2.83l-2.122-2.122Zm26.87-2.828a2 2 0 0 1 0 2.828l-2.122 2.121a2 2 0 1 1-2.828-2.828l2.121-2.121a2 2 0 0 1 2.829 0ZM25.049 10.04a1.5 1.5 0 0 1 2.119.095l.003.003.003.004.01.01.03.034.1.117c.086.1.209.248.368.447.319.4.785 1.008 1.398 1.874 1.225 1.73 3.042 4.491 5.446 8.656 2.405 4.164 3.887 7.117 4.773 9.045a41 41 0 0 1 .924 2.147 18.384 18.384 0 0 1 .254.687l.014.043.005.014.002.007v.002a1.5 1.5 0 0 1-2.85.935c-1.245.418-2.51.83-3.782 1.233a71.974 71.974 0 0 0-1.257-2.881 97.611 97.611 0 0 0-4.047-7.789 97.572 97.572 0 0 0-4.72-7.399 71.738 71.738 0 0 0-1.865-2.526c.985-.9 1.974-1.79 2.959-2.659a1.5 1.5 0 0 1 .113-2.099Zm5.81 25.93c.045.106.09.212.133.318-2.04.625-4.07 1.224-6.032 1.786l.277 1.032a6.59 6.59 0 1 1-12.733 3.412l-.266-.992c-.98.25-1.82.463-2.49.63-1.649.412-3.445-.144-4.503-1.582-.38-.518-.805-1.13-1.147-1.724a19.407 19.407 0 0 1-.92-1.855c-.716-1.635-.3-3.469.882-4.691 2.61-2.7 8.892-9.116 15.704-15.464l.207.27c.335.442.822 1.098 1.419 1.944a94.626 94.626 0 0 1 4.574 7.17 94.638 94.638 0 0 1 3.922 7.546c.435.94.76 1.69.974 2.2Zm-14.75 4.546.259.966a2.59 2.59 0 1 0 5.005-1.34l-.263-.982c-1.787.495-3.472.95-5.001 1.356Z" clip-rule="evenodd"/></svg>