<svg xmlns="http://www.w3.org/2000/svg" fill="none" viewBox="0 0 48 48"><path fill="currentColor" fill-rule="evenodd" d="M39.8643 2.0439C36.5927 1.77808 31.4014 1.5 24 1.5C16.5986 1.5 11.4073 1.77807 8.13571 2.04388C4.84786 2.31102 2.31103 4.84784 2.0439 8.13569C1.77808 11.4073 1.5 16.5986 1.5 24C1.5 31.4014 1.77808 36.5927 2.04389 39.8643C2.31102 43.1522 4.84784 45.689 8.13569 45.9561C11.4073 46.2219 16.5985 46.5 24 46.5C31.4014 46.5 36.5927 46.2219 39.8643 45.9561C43.1521 45.689 45.689 43.1522 45.9561 39.8643C46.2219 36.5927 46.5 31.4015 46.5 24C46.5 16.5986 46.2219 11.4073 45.9561 8.13571C45.689 4.84786 43.1521 2.31103 39.8643 2.0439ZM31.9868 32.5589C30.5061 33.8752 28.6322 33.0636 28.5338 31.0849C28.4888 30.1813 28.4496 29.085 28.4233 27.7608C27.1327 27.8134 25.6562 27.8476 23.9986 27.8476C22.3434 27.8476 20.8688 27.8135 19.5796 27.7611C19.5533 29.0827 19.5142 30.1772 19.4693 31.0797C19.3709 33.0588 17.4963 33.8705 16.0154 32.5539C15.2601 31.8825 14.3566 31.0418 13.2943 29.996C11.2839 28.0169 10.1262 26.5272 9.46954 25.5273C8.84516 24.5765 8.84524 23.4156 9.46967 22.4648C10.1263 21.4649 11.284 19.9754 13.2943 17.996C14.357 16.9497 15.2608 16.1086 16.0162 15.4371C17.4969 14.1207 19.3708 14.9323 19.4692 16.9111C19.514 17.8118 19.5532 18.904 19.5795 20.2224C20.842 20.1766 22.309 20.1476 23.9986 20.1476C25.6908 20.1476 27.1597 20.1767 28.4236 20.2226C28.4499 18.9065 28.489 17.8159 28.5337 16.9163C28.6321 14.9371 30.5067 14.1254 31.9876 15.442C32.7429 16.1134 33.6464 16.9542 34.7087 17.9999C36.7191 19.9791 37.8768 21.4687 38.5335 22.4686C39.1578 23.4194 39.1578 24.5804 38.5333 25.5311C37.8767 26.531 36.719 28.0205 34.7087 29.9999C33.646 31.0463 32.7422 31.8873 31.9868 32.5589Z" clip-rule="evenodd"></path></svg>