<svg xmlns="http://www.w3.org/2000/svg" fill="none" viewBox="0 0 48 48"><path fill="currentColor" fill-rule="evenodd" d="M39.8643 2.0439C36.5927 1.77808 31.4014 1.5 24 1.5C16.5986 1.5 11.4073 1.77807 8.13571 2.04388C4.84786 2.31102 2.31103 4.84784 2.0439 8.13569C1.77808 11.4073 1.5 16.5986 1.5 24C1.5 31.4014 1.77808 36.5927 2.04389 39.8643C2.31102 43.1522 4.84784 45.689 8.13569 45.9561C11.4073 46.2219 16.5985 46.5 24 46.5C31.4014 46.5 36.5927 46.2219 39.8643 45.9561C43.1521 45.689 45.689 43.1522 45.9561 39.8643C46.2219 36.5927 46.5 31.4015 46.5 24C46.5 16.5986 46.2219 11.4073 45.9561 8.13571C45.689 4.84786 43.1521 2.31103 39.8643 2.0439ZM15.4406 31.9871C14.1243 30.5064 14.9359 28.6324 16.9146 28.534C17.8182 28.4891 18.9146 28.4498 20.2387 28.4236C20.1861 27.133 20.1519 25.6565 20.1519 23.9988C20.1519 22.3436 20.186 20.8691 20.2385 19.5799C18.9168 19.5536 17.8223 19.5144 16.9199 19.4696C14.9407 19.3712 14.129 17.4966 15.4456 16.0156C16.117 15.2604 16.9577 14.3568 18.0035 13.2946C19.9827 11.2842 21.4723 10.1264 22.4722 9.46979C23.423 8.84542 24.584 8.8455 25.5347 9.46993C26.5346 10.1266 28.0241 11.2843 30.0035 13.2946C31.0498 14.3572 31.8909 15.2611 32.5625 16.0165C33.8788 17.4971 33.0672 19.3711 31.0885 19.4695C30.1877 19.5143 29.0956 19.5534 27.7771 19.5797C27.8229 20.8423 27.8519 22.3093 27.8519 23.9988C27.8519 25.691 27.8228 27.16 27.7769 28.4239C29.093 28.4502 30.1836 28.4892 31.0832 28.534C33.0624 28.6323 33.8741 30.5069 32.5575 31.9879C31.8861 32.7431 31.0454 33.6467 29.9996 34.709C28.0204 36.7194 26.5308 37.8771 25.5309 38.5337C24.5801 39.1581 23.4191 39.158 22.4684 38.5336C21.4685 37.8769 19.979 36.7192 17.9996 34.709C16.9532 33.6463 16.1122 32.7425 15.4406 31.9871Z" clip-rule="evenodd"></path></svg>