<svg xmlns="http://www.w3.org/2000/svg" fill="none" viewBox="0 0 48 48"><path fill="currentColor" fill-rule="evenodd" d="M39.8643 2.0439C36.5927 1.77808 31.4014 1.5 24 1.5C16.5986 1.5 11.4073 1.77807 8.13572 2.04388C4.84787 2.31102 2.31104 4.84784 2.0439 8.13569C1.77809 11.4073 1.50001 16.5986 1.50001 24C1.5 31.4014 1.77808 36.5927 2.04389 39.8643C2.31102 43.1522 4.84785 45.689 8.1357 45.9561C11.4073 46.2219 16.5986 46.5 24 46.5C31.4014 46.5 36.5927 46.2219 39.8643 45.9561C43.1521 45.689 45.689 43.1522 45.9561 39.8643C46.2219 36.5927 46.5 31.4015 46.5 24C46.5 16.5986 46.2219 11.4073 45.9561 8.13571C45.689 4.84786 43.1522 2.31103 39.8643 2.0439ZM23.2342 15.5018C23.3626 13.6554 25.1146 12.8414 26.611 13.9307C27.7416 14.7538 29.2169 15.8951 31.0706 17.4544C33.6005 19.5825 35.073 21.1915 35.9178 22.2817C36.7275 23.3266 36.7276 24.6731 35.918 25.7181C35.0732 26.8084 33.6007 28.4175 31.0706 30.5453C29.2172 32.104 27.7422 33.2451 26.6117 34.0681C25.115 35.1577 23.3625 34.3437 23.2341 32.4969C23.1598 31.4289 23.0927 30.0621 23.0495 28.3262C18.7282 28.1217 15.7399 27.9297 13.8873 27.7946C12.4159 27.6873 11.1759 26.7235 11.0553 25.2532C11.0214 24.8401 11 24.371 11 23.845C11 23.3028 11.0227 22.8354 11.0584 22.4353C11.175 21.1298 12.2755 20.3256 13.5826 20.2281C15.4049 20.0922 18.4828 19.89 23.0495 19.6738C23.0927 17.9372 23.1599 16.57 23.2342 15.5018Z" clip-rule="evenodd"></path></svg>