<svg xmlns="http://www.w3.org/2000/svg" fill="none" viewBox="0 0 48 48"><path fill="currentColor" d="M8.45963 10.5H4C2.61929 10.5 1.5 9.38071 1.5 8C1.5 6.61929 2.61929 5.5 4 5.5H8.45963C9.46605 2.86863 12.0148 1 15 1C17.9852 1 20.5339 2.86863 21.5404 5.5H35C40.799 5.5 45.5 10.201 45.5 16C45.5 21.2604 41.6317 25.6172 36.5846 26.3812C35.6102 29.075 33.0299 31 30 31C27.0148 31 24.4661 29.1314 23.4596 26.5H13C9.96243 26.5 7.5 28.9624 7.5 32C7.5 34.5314 9.21017 36.6634 11.5382 37.3036C12.5941 34.7761 15.0896 33 18 33C20.9852 33 23.5339 34.8686 24.5404 37.5H35.5986C35.7037 36.7445 35.8574 36.0078 36.0595 35.3071C36.2745 34.5619 36.8231 33.9587 37.5446 33.6742C38.2661 33.3898 39.0788 33.4563 39.7445 33.8543L39.76 33.8636L39.797 33.8859L39.8493 33.9175L39.9312 33.9674C40.0458 34.0374 40.2094 34.138 40.4102 34.2637C40.8111 34.5146 41.3646 34.868 41.9764 35.2788C43.1512 36.0678 44.7142 37.1826 45.7645 38.2289C46.2353 38.698 46.5 39.3354 46.5 40.0001C46.5 40.6648 46.2353 41.3021 45.7644 41.7712C44.714 42.8175 43.1511 43.9323 41.9762 44.7213C41.3645 45.1321 40.811 45.4855 40.4102 45.7363C40.2094 45.862 40.0458 45.9626 39.9312 46.0326C39.8738 46.0676 39.8286 46.095 39.797 46.1141L39.76 46.1364L39.7452 46.1453C39.0796 46.5433 38.2661 46.6102 37.5446 46.3258C36.8231 46.0413 36.2745 45.4381 36.0595 44.6929C35.8574 43.9922 35.7037 43.2555 35.5986 42.5H24.5404C23.5339 45.1314 20.9852 47 18 47C14.9701 47 12.3898 45.075 11.4154 42.3812C6.36829 41.6172 2.5 37.2604 2.5 32C2.5 26.201 7.20101 21.5 13 21.5H23.4596C24.4661 18.8686 27.0148 17 30 17C32.9104 17 35.4059 18.7761 36.4618 21.3036C38.7898 20.6634 40.5 18.5314 40.5 16C40.5 12.9624 38.0376 10.5 35 10.5H21.5404C20.5339 13.1314 17.9852 15 15 15C12.0148 15 9.46605 13.1314 8.45963 10.5Z"></path></svg>