<svg xmlns="http://www.w3.org/2000/svg" fill="none" viewBox="0 0 48 48"><path fill="currentColor" d="M24 2.5C15.528 2.5 10.4587 3.13233 7.59323 3.70907C4.97474 4.2361 3.33282 6.41594 3.10928 8.89842C2.83288 11.968 2.5 17.4409 2.5 26C2.5 33.8654 2.66275 38.6788 2.85654 41.6285C2.96866 43.3351 3.72376 44.8121 5.1686 45.5271C6.57099 46.221 8.20567 45.9862 9.65984 45.2227L21.9082 38.7923C23.218 38.1047 24.782 38.1047 26.0918 38.7923L38.3402 45.2227C39.7943 45.9862 41.429 46.221 42.8314 45.5271C44.2762 44.8121 45.0313 43.3351 45.1435 41.6285C45.3373 38.6788 45.5 33.8654 45.5 26C45.5 17.4409 45.1671 11.968 44.8907 8.89842C44.6672 6.41594 43.0253 4.2361 40.4068 3.70907C37.5413 3.13233 32.472 2.5 24 2.5Z"></path></svg>