<svg xmlns="http://www.w3.org/2000/svg" fill="none" viewBox="0 0 48 48"><path fill="currentColor" fill-rule="evenodd" d="M12.996 3.866a2 2 0 0 1-1.862 2.13c-.779.052-1.48.106-2.107.159-1.574.133-2.755 1.32-2.882 2.905-.05.617-.1 1.305-.15 2.069a2 2 0 0 1-3.99-.258c.05-.784.102-1.493.153-2.13.283-3.525 2.997-6.272 6.531-6.572.65-.055 1.375-.11 2.177-.164a2 2 0 0 1 2.13 1.861Zm22.008.005a2 2 0 0 1 2.125-1.867c.784.05 1.493.103 2.13.154 3.525.283 6.272 2.997 6.572 6.531.055.65.11 1.375.165 2.177a2 2 0 0 1-3.991.268c-.053-.779-.107-1.48-.16-2.107-.133-1.574-1.32-2.755-2.905-2.882-.616-.05-1.305-.1-2.069-.15a2 2 0 0 1-1.867-2.124ZM19 2.001a2 2 0 1 0 0 4h3v5a2 2 0 0 0 4 0V6h3a2 2 0 0 0 0-4H19ZM4 17a2 2 0 0 1 2 2v3h5a2 2 0 0 1 0 4H6v3a2 2 0 0 1-4 0V19a2 2 0 0 1 2-2Zm42 2a2 2 0 0 0-4 0v3h-5a2 2 0 1 0 0 4h5v3a2 2 0 0 0 4 0V19ZM3.866 35.004a2 2 0 0 1 2.13 1.86c.052.78.106 1.482.159 2.108.133 1.574 1.32 2.755 2.905 2.882.617.05 1.305.1 2.069.15a2 2 0 0 1-.258 3.99 135.23 135.23 0 0 1-2.13-.153c-3.525-.283-6.272-2.997-6.572-6.53-.055-.65-.11-1.376-.164-2.178a2 2 0 0 1 1.861-2.13Zm42.13 2.124a2 2 0 1 0-3.992-.258c-.049.764-.1 1.453-.149 2.069-.127 1.585-1.308 2.772-2.882 2.905-.626.053-1.328.107-2.107.16a2 2 0 0 0 .268 3.99c.802-.053 1.527-.109 2.177-.164 3.534-.3 6.248-3.047 6.531-6.571.052-.638.103-1.347.154-2.131ZM17 44a2 2 0 0 1 2-2h3v-5a2 2 0 1 1 4 0v5h3a2 2 0 0 1 0 4H19a2 2 0 0 1-2-2Zm9-25a2 2 0 1 0-4 0v3h-3a2 2 0 1 0 0 4h3v3a2 2 0 1 0 4 0v-3h3a2 2 0 1 0 0-4h-3v-3Z" clip-rule="evenodd"/></svg>