<svg xmlns="http://www.w3.org/2000/svg" fill="none" viewBox="0 0 48 48"><path fill="currentColor" d="M39.8643 2.04389C36.5927 1.77808 31.4014 1.5 24 1.5C16.5986 1.5 11.4073 1.77808 8.1357 2.04389C4.84785 2.31102 2.31103 4.84784 2.04389 8.13569C1.77808 11.4073 1.5 16.5986 1.5 24C1.5 31.4014 1.77807 36.5927 2.04389 39.8643C2.31102 43.1522 4.84785 45.689 8.1357 45.9561C10.485 46.147 13.8242 46.3442 18.2609 46.4402C18.2608 46.432 18.2608 46.4237 18.2608 46.4155V38.4435C18.2608 36.8536 17.2881 35.4557 15.9711 34.565C12.1568 31.9853 9.64941 27.6195 9.64941 22.6681C9.64941 17.5255 12.3541 13.0147 16.4186 10.4805C17.6075 9.73921 19.0057 10.7057 19.0041 12.1067C19.0006 15.1314 19.0435 18.1771 19.1787 20.555C19.2013 20.9536 19.3459 21.3347 19.6175 21.6273C20.2499 22.3087 21.5928 23.5856 23.377 24.3443C23.7753 24.5137 24.2258 24.5137 24.624 24.3443C26.3617 23.6054 27.6807 22.375 28.3326 21.6819C28.6375 21.3577 28.7846 20.9247 28.7846 20.4795V11.9602C28.7846 10.58 30.1551 9.62501 31.3407 10.3318C35.5404 12.8357 38.3536 17.4234 38.3536 22.6681C38.3536 27.6194 35.8463 31.9851 32.0321 34.5648C30.7152 35.4555 29.7425 36.8534 29.7425 38.4433V46.4155C29.7425 46.4237 29.7424 46.4319 29.7424 46.4401C34.1774 46.3441 37.5155 46.1469 39.8643 45.9561C43.1521 45.689 45.689 43.1522 45.9561 39.8643C46.2219 36.5927 46.5 31.4014 46.5 24C46.5 16.5986 46.2219 11.4073 45.9561 8.13571C45.689 4.84785 43.1521 2.31103 39.8643 2.04389Z"></path></svg>