<svg xmlns="http://www.w3.org/2000/svg" fill="none" viewBox="0 0 48 48"><path fill="currentColor" d="M38.4518 5.57172C38.4712 6.05487 38.4871 6.60401 38.4948 7.20977C39.0975 7.27706 39.648 7.345 40.1469 7.4115C43.0086 7.79296 45.2154 9.96553 45.6259 12.8296C45.8361 14.2969 46.0565 16.1919 46.2234 18.5H1.77664C1.94351 16.1919 2.16388 14.2969 2.37415 12.8296C2.78459 9.96553 4.99137 7.79296 7.85312 7.4115C8.35202 7.345 8.90245 7.27707 9.50516 7.20977C9.51292 6.60401 9.52878 6.05487 9.54822 5.57172C9.62911 3.56157 11.0063 1.70262 13.2965 1.56456C13.7791 1.53547 14.3428 1.51758 15 1.51758C15.6572 1.51758 16.2209 1.53547 16.7035 1.56456C18.9937 1.70262 20.3709 3.56157 20.4518 5.57172C20.4637 5.86881 20.4743 6.19086 20.4825 6.53567C21.5952 6.51265 22.7674 6.5 24 6.5C25.2326 6.5 26.4048 6.51265 27.5175 6.53567C27.5257 6.19086 27.5363 5.86881 27.5482 5.57172C27.6291 3.56157 29.0063 1.70262 31.2965 1.56456C31.7791 1.53547 32.3428 1.51758 33 1.51758C33.6572 1.51758 34.2209 1.53547 34.7035 1.56456C36.9937 1.70262 38.3709 3.56157 38.4518 5.57172Z"></path><path fill="currentColor" d="M1.60472 21.5C1.53904 23.0308 1.5 24.6984 1.5 26.5C1.5 32.6636 1.95694 37.2592 2.37415 40.1704C2.78459 43.0345 4.99137 45.207 7.85311 45.5885C11.0517 46.0149 16.3682 46.5 24 46.5C31.6318 46.5 36.9483 46.0149 40.1469 45.5885C43.0086 45.207 45.2154 43.0345 45.6259 40.1704C46.0431 37.2592 46.5 32.6636 46.5 26.5C46.5 24.6984 46.461 23.0308 46.3953 21.5H1.60472Z"></path></svg>