<svg xmlns="http://www.w3.org/2000/svg" fill="none" viewBox="0 0 48 48"><path fill="currentColor" fill-rule="evenodd" d="M24 1.5c-7.403 0-12.592.239-15.857.466-3.265.228-5.862 2.693-6.152 5.993C1.742 10.794 1.5 15.074 1.5 21s.242 10.206.491 13.041c.29 3.3 2.887 5.765 6.152 5.993 1.416.099 3.194.2 5.357.282v4.51c0 2.136 2.505 3.288 4.127 1.898l7.263-6.225c6.93-.018 11.834-.247 14.967-.465 3.265-.228 5.861-2.693 6.152-5.993.249-2.835.491-7.115.491-13.041s-.242-10.206-.491-13.041c-.29-3.3-2.887-5.765-6.152-5.993C36.592 1.74 31.403 1.5 24 1.5Zm-.764 25.833a2.583 2.583 0 1 0 0 5.167 2.583 2.583 0 0 0 0-5.167Zm-5.12-15.135c.269-1.073 1.143-2.248 2.578-3.177 1.417-.918 3.274-1.521 5.3-1.521 2.462 0 4.073.865 5.09 2.035 1.045 1.206 1.577 2.874 1.577 4.632 0 1.786-.641 3.022-1.767 4.115-1.203 1.168-2.926 2.143-5.106 3.313a1.5 1.5 0 0 0-.791 1.322v.416a1 1 0 0 1-1 1h-2.121a1 1 0 0 1-1-1.001l.004-3.02c0-.676.517-1.491 1.814-2.459.98-.73 2.115-1.341 3.176-1.912.29-.156.576-.31.85-.462a1.5 1.5 0 0 0-1.403-2.65c-1.316.666-2.968 1.629-3.92 2.195-.477.283-.796.4-1.046.414-.906.049-1.528-.307-1.9-.82-.388-.534-.596-1.379-.335-2.42Z" clip-rule="evenodd"/></svg>