<svg xmlns="http://www.w3.org/2000/svg" fill="none" viewBox="0 0 48 48"><path fill="currentColor" fill-rule="evenodd" d="M24 1.5c-7.403 0-12.592.239-15.857.466-3.265.228-5.862 2.693-6.152 5.993C1.742 10.794 1.5 15.074 1.5 21s.242 10.206.491 13.041c.29 3.3 2.887 5.765 6.152 5.993 1.416.099 3.194.2 5.357.282v4.51c0 2.136 2.505 3.288 4.127 1.898l7.263-6.225c6.93-.018 11.834-.247 14.967-.465 3.265-.228 5.861-2.693 6.152-5.993.249-2.835.491-7.115.491-13.041s-.242-10.206-.491-13.041c-.29-3.3-2.887-5.765-6.152-5.993C36.592 1.74 31.403 1.5 24 1.5Zm2.882 25.452c2.218-1.238 3.36-2.588 3.538-4.88a96.114 96.114 0 0 1-2.028-.027c-1.33-.034-2.326-1.032-2.361-2.362a98.962 98.962 0 0 1-.031-2.61c0-1.16.015-2.069.035-2.77.036-1.252.939-2.202 2.191-2.254C28.921 12.021 29.828 12 31 12s2.079.02 2.774.05c1.252.05 2.155 1.001 2.191 2.254.02.695.035 1.594.035 2.74v5.03h-.023c-.296 4.235-3.425 6.759-6.97 7.85-.499.153-1.05.08-1.427-.282-.438-.418-.813-.936-1.088-1.367-.295-.464-.09-1.055.39-1.323Zm-10.462-4.88c-.178 2.292-1.32 3.642-3.538 4.88-.48.268-.685.86-.39 1.323.275.431.65.949 1.088 1.367.377.361.928.435 1.427.281 3.545-1.09 6.674-3.614 6.97-7.85H22v-5.029c0-1.146-.015-2.045-.035-2.74-.036-1.253-.939-2.204-2.191-2.255A68.124 68.124 0 0 0 17 12c-1.172 0-2.079.02-2.774.05-1.252.05-2.155 1.001-2.191 2.254-.02.7-.035 1.608-.035 2.769 0 1.074.013 1.932.03 2.61.036 1.33 1.031 2.328 2.362 2.362.546.013 1.215.024 2.028.027Z" clip-rule="evenodd"/></svg>