<svg xmlns="http://www.w3.org/2000/svg" fill="none" viewBox="0 0 48 48"><path fill="currentColor" fill-rule="evenodd" d="m23.294 27.084-.308 4.415L24 31.5c8.57 0 14.298-.227 17.6-.418 2.746-.158 5.064-2.137 5.394-4.98.26-2.23.506-5.549.506-10.102s-.246-7.871-.506-10.102c-.33-2.843-2.648-4.822-5.395-4.98C38.3.727 32.57.5 24 .5c-2.305 0-4.404.016-6.306.044A9.492 9.492 0 0 1 22 8.5c0 1.85-.529 3.578-1.445 5.039 2.77.05 5.525.153 8.185.305 1.588.091 3.962 1.071 4.545 3.736.249 1.137.328 2.625-.012 4.48-.453 2.475-2.495 4.007-4.567 4.288l-5.412.736ZM12.5 15a6.5 6.5 0 1 1 0-13 6.5 6.5 0 0 1 0 13Zm16.068 1.84c-7.188-.413-15.087-.45-22.063-.11-1.977.095-3.644 1.508-3.983 3.476-.406 2.361-.898 5.929-1.002 9.823-.03 1.098.705 2.083 1.843 2.237.447.061 1.004.122 1.687.174.27.02.475.236.484.491l.377 10.151c.06 1.635 1.255 3.035 2.92 3.21.297.031.612.061.943.088.85.07 1.561-.592 1.593-1.425l.346-8.974a.5.5 0 0 1 .5-.481h.575a.5.5 0 0 1 .5.48l.345 8.99a1.48 1.48 0 0 0 1.584 1.426c.362-.028.704-.059 1.022-.09 1.627-.166 2.811-1.507 2.922-3.099l1.281-18.36a.5.5 0 0 1 .431-.461l7.428-1.01c.972-.133 1.834-.833 2.02-1.855.273-1.49.192-2.575.033-3.3-.197-.902-1.02-1.338-1.786-1.382Z" clip-rule="evenodd"/></svg>