<svg xmlns="http://www.w3.org/2000/svg" fill="none" viewBox="0 0 48 48"><g id="collaborations-idea--collaborations-idea-work"><path id="Union" fill="currentColor" fill-rule="evenodd" d="M39.5 2a1.5 1.5 0 0 0-3 0v2a1.5 1.5 0 0 0 3 0V2ZM38 7.5a9 9 0 0 0-5.148 16.383l.146 1.14c.22 1.727 1.512 3.325 3.526 3.438.422.024.911.039 1.476.039s1.054-.015 1.476-.039c2.014-.113 3.305-1.711 3.526-3.438l.146-1.14A9 9 0 0 0 38 7.5ZM21.784 33.158A9.988 9.988 0 0 0 26 25c0-5.523-4.477-10-10-10S6 19.477 6 25a9.988 9.988 0 0 0 4.216 8.158c-3.954 1.669-6.925 4.995-7.885 9.024-.418 1.753.652 3.189 2.443 3.389C6.778 45.795 10.198 46 16 46c5.802 0 9.222-.205 11.226-.429 1.79-.2 2.861-1.636 2.443-3.389-.96-4.029-3.93-7.355-7.885-9.024ZM47.387 3.516a1.5 1.5 0 0 1-.148 2.116l-1.51 1.312a1.5 1.5 0 1 1-1.968-2.265l1.51-1.311a1.5 1.5 0 0 1 2.116.148ZM28.732 5.561a1.5 1.5 0 0 1 2.122-2.122l1.414 1.415a1.5 1.5 0 1 1-2.122 2.12l-1.414-1.413Z" clip-rule="evenodd"></path></g></svg>