<svg xmlns="http://www.w3.org/2000/svg" fill="none" viewBox="0 0 48 48"><path fill="currentColor" fill-rule="evenodd" d="M13 24.5C10.0265 24.5 7.79277 24.4063 6.21711 24.3003C3.76274 24.1351 1.86488 22.2373 1.69974 19.7829C1.59372 18.2072 1.5 15.9735 1.5 13C1.5 10.0265 1.59373 7.79277 1.69974 6.21711C1.86489 3.76274 3.76274 1.86489 6.21711 1.69974C7.79278 1.59373 10.0265 1.5 13 1.5C15.9735 1.5 18.2072 1.59373 19.7829 1.69974C22.2373 1.86489 24.1351 3.76274 24.3003 6.21711C24.381 7.41746 24.4547 8.99973 24.4851 11H27.5216C27.5377 10.2843 27.5616 9.65297 27.5893 9.10206C27.714 6.62597 29.626 4.71401 32.1021 4.58933C33.119 4.53812 34.41 4.5 36 4.5C37.59 4.5 38.881 4.53812 39.8979 4.58933C42.374 4.71401 44.286 6.62597 44.4107 9.10206C44.4619 10.119 44.5 11.41 44.5 13C44.5 14.59 44.4619 15.881 44.4107 16.8979C44.286 19.374 42.374 21.286 39.8979 21.4107C39.347 21.4384 38.7157 21.4623 38 21.4784V25.5166C39.5545 25.5431 40.8216 25.5986 41.8228 25.6612C44.2834 25.815 46.185 27.7166 46.3388 30.1772C46.4264 31.578 46.5 33.4991 46.5 36C46.5 38.5009 46.4264 40.422 46.3388 41.8228C46.185 44.2834 44.2834 46.185 41.8228 46.3388C40.422 46.4264 38.5009 46.5 36 46.5C33.4991 46.5 31.578 46.4264 30.1772 46.3388C27.7166 46.185 25.815 44.2834 25.6612 41.8228C25.5986 40.8216 25.5431 39.5545 25.5166 38H20.4745C20.4656 38.3329 20.4548 38.6431 20.4426 38.9314C20.3375 41.4177 18.4177 43.3375 15.9314 43.4426C15.1291 43.4765 14.1563 43.5 13 43.5C11.8437 43.5 10.8709 43.4765 10.0686 43.4426C7.58234 43.3375 5.66252 41.4177 5.55738 38.9314C5.52345 38.1291 5.5 37.1563 5.5 36C5.5 34.8437 5.52346 33.8709 5.55738 33.0686C5.66252 30.5823 7.58234 28.6625 10.0686 28.5574C10.8709 28.5235 11.8437 28.5 13 28.5C14.1563 28.5 15.1291 28.5235 15.9314 28.5574C18.4177 28.6625 20.3375 30.5823 20.4426 33.0686C20.4548 33.3569 20.4656 33.6671 20.4745 34H25.5166C25.5431 32.4455 25.5986 31.1784 25.6612 30.1772C25.815 27.7166 27.7166 25.815 30.1772 25.6612C31.1784 25.5986 32.4455 25.5431 34 25.5166V21.4784C33.2843 21.4623 32.653 21.4384 32.1021 21.4107C29.626 21.286 27.714 19.374 27.5893 16.8979C27.5616 16.347 27.5377 15.7157 27.5216 15H24.4851C24.4547 17.0003 24.381 18.5826 24.3003 19.7829C24.1351 22.2373 22.2373 24.1351 19.7829 24.3003C18.2072 24.4063 15.9735 24.5 13 24.5ZM15 15.5C14.1716 15.5 13.5 16.1716 13.5 17C13.5 17.8284 14.1716 18.5 15 18.5H17C17.8284 18.5 18.5 17.8284 18.5 17C18.5 16.1716 17.8284 15.5 17 15.5H15Z" clip-rule="evenodd"></path></svg>