<svg xmlns="http://www.w3.org/2000/svg" fill="none" viewBox="0 0 48 48"><path fill="currentColor" fill-rule="evenodd" d="M17.4571 2.95871C18.7566 1.97271 20.3396 1.49745 21.949 1.50001C22.9912 1.50167 23.8508 1.50978 23.9927 1.51118L23.994 1.51119L24.0292 1.51136L24.0304 1.51136C29.9465 1.51168 34.4211 1.63763 37.4814 1.76911C40.6309 1.90443 43.0914 4.3727 43.2198 7.522C43.3602 10.9674 43.5 16.3258 43.5 24.0055C43.5 31.7528 43.3577 37.1376 43.2161 40.5794C43.0882 43.6862 40.683 46.1217 37.5713 46.2551C34.6133 46.3819 30.1994 46.4997 24.0082 46.4997C17.8169 46.4997 13.403 46.3819 10.4451 46.2551C7.33333 46.1217 4.92813 43.6862 4.80026 40.5794C4.6586 37.1376 4.51634 31.7528 4.51634 24.0055C4.51634 22.8656 4.51156 21.9152 4.50717 21.0418C4.50363 20.3392 4.50035 19.6865 4.5 19.0249C4.49915 17.3698 4.99774 15.7362 6.00189 14.3986C10.1481 8.8759 14.8906 4.90597 17.4571 2.95871ZM36.5 9C36.5 8.17157 35.8284 7.5 35 7.5C34.1716 7.5 33.5 8.17157 33.5 9V14C33.5 14.8284 34.1716 15.5 35 15.5C35.8284 15.5 36.5 14.8284 36.5 14V9ZM29 7.5C29.8284 7.5 30.5 8.17157 30.5 9V14C30.5 14.8284 29.8284 15.5 29 15.5C28.1716 15.5 27.5 14.8284 27.5 14V9C27.5 8.17157 28.1716 7.5 29 7.5ZM24.5 9C24.5 8.17157 23.8284 7.5 23 7.5C22.1716 7.5 21.5 8.17157 21.5 9V14C21.5 14.8284 22.1716 15.5 23 15.5C23.8284 15.5 24.5 14.8284 24.5 14V9Z" clip-rule="evenodd"></path></svg>