<svg xmlns="http://www.w3.org/2000/svg" fill="none" viewBox="0 0 48 48"><path fill="currentColor" d="M8.02613 5.93489C6.73996 7.24982 6.73996 8.75018 8.02611 10.0651C8.78306 10.839 9.95191 11.6047 11.5138 12.2801C14.6327 13.6288 19.0461 14.5001 23.9998 14.5001C28.9536 14.5001 33.367 13.6288 36.4859 12.2801C38.0478 11.6047 39.2166 10.839 39.9736 10.0651C41.2597 8.7502 41.2597 7.24983 39.9736 5.93487C39.2167 5.16097 38.0478 4.39534 36.486 3.71992C33.3672 2.37122 28.9538 1.5 24.0001 1.5C19.0463 1.5 14.6328 2.37122 11.5139 3.71992C9.95198 4.39534 8.7831 5.16098 8.02613 5.93489Z"></path><path fill="currentColor" fill-rule="evenodd" d="M3.9973 8.00125L4.00016 7.95444L3.99995 8C3.99995 9.60703 4.75944 11.0157 5.88142 12.1628C6.99676 13.3031 8.53715 14.2614 10.3231 15.0337C13.8999 16.5804 18.7364 17.5 23.9998 17.5001C29.2633 17.5001 34.0998 16.5804 37.6766 15.0337C39.4625 14.2614 41.0029 13.3032 42.1182 12.1628C43.2402 11.0157 44 9.56726 44 7.96023C44 7.96023 44.0654 9.09874 44.0759 9.29481C44.1231 10.1748 44.1859 11.4308 44.2486 12.9376C44.3556 15.5036 44.4627 18.8033 44.4921 22.2153C44.364 23.9786 42.6634 26.0111 38.9356 27.7055C35.1905 29.4078 29.9114 30.5 24 30.5C18.0885 30.5 12.8094 29.4078 9.06431 27.7055C5.33657 26.0111 3.63593 23.9786 3.50781 22.2154C3.5372 18.8033 3.64441 15.5035 3.75137 12.9376C3.81418 11.4308 3.87701 10.1748 3.92417 9.29477C3.94775 8.85474 3.96743 8.50862 3.98124 8.27204C3.98814 8.15374 3.99358 8.06283 3.9973 8.00125ZM8.5 22C8.5 20.8954 9.39543 20 10.5 20C11.6046 20 12.5 20.8954 12.5 22C12.5 23.1046 11.6046 24 10.5 24C9.39543 24 8.5 23.1046 8.5 22ZM17 25.75C18.1046 25.75 19 24.8546 19 23.75C19 22.6454 18.1046 21.75 17 21.75C15.8954 21.75 15 22.6454 15 23.75C15 24.8546 15.8954 25.75 17 25.75Z" clip-rule="evenodd"></path><path fill="currentColor" fill-rule="evenodd" d="M3.75226 33.5833C3.66817 32.0696 3.58425 30.1114 3.53753 27.7826C4.73774 28.8176 6.21509 29.7058 7.8229 30.4366C12.0402 32.3536 17.7611 33.5 24 33.5C30.2388 33.5 35.9597 32.3536 40.177 30.4366C41.7848 29.7058 43.2622 28.8176 44.4624 27.7826C44.4156 30.1114 44.3317 32.0696 44.2476 33.5833C44.1845 34.7205 44.1212 35.6072 44.0734 36.2119C44.0496 36.5142 44.0296 36.7461 44.0154 36.9037L44.0106 36.9569L43.9994 37.0785C43.9751 38.6529 43.2222 40.0345 42.1185 41.1629C41.0031 42.3032 39.4627 43.2614 37.6768 44.0337C34.1 45.5804 29.2634 46.5001 24 46.5001C18.7365 46.5 13.8999 45.5804 10.3231 44.0337C8.53718 43.2614 6.99678 42.3032 5.88144 41.1629C4.77774 40.0345 4.02481 38.6529 4.00056 37.0785C3.99668 37.0376 3.99125 36.9792 3.98447 36.9037C3.97033 36.7461 3.95035 36.5142 3.92648 36.2119C3.87874 35.6072 3.81544 34.7205 3.75226 33.5833ZM10.5 39.5C11.6046 39.5 12.5 38.6046 12.5 37.5C12.5 36.3954 11.6046 35.5 10.5 35.5C9.39543 35.5 8.5 36.3954 8.5 37.5C8.5 38.6046 9.39543 39.5 10.5 39.5ZM17 41.25C18.1046 41.25 19 40.3546 19 39.25C19 38.1454 18.1046 37.25 17 37.25C15.8954 37.25 15 38.1454 15 39.25C15 40.3546 15.8954 41.25 17 41.25Z" clip-rule="evenodd"></path></svg>