<svg xmlns="http://www.w3.org/2000/svg" fill="none" viewBox="0 0 48 48"><path fill="currentColor" fill-rule="evenodd" d="M35.5409 12.6321C36.2964 11.8263 37.5621 11.7855 38.3679 12.5409C42.1527 16.0892 44.6491 19.634 45.8696 21.5564C46.821 23.0549 46.821 24.9451 45.8696 26.4436C44.6491 28.366 42.1527 31.9108 38.3679 35.4591C37.5621 36.2145 36.2964 36.1737 35.5409 35.3679C34.7855 34.5621 34.8263 33.2964 35.6321 32.5409C39.1014 29.2885 41.3924 26.0327 42.4927 24.2996C42.6133 24.1097 42.6133 23.8903 42.4927 23.7004C41.3924 21.9673 39.1014 18.7115 35.6321 15.4591C34.8263 14.7036 34.7855 13.4379 35.5409 12.6321Z" clip-rule="evenodd"></path><path fill="currentColor" fill-rule="evenodd" d="M12.4591 12.6321C11.7036 11.8263 10.4379 11.7855 9.63211 12.5409C5.84731 16.0892 3.35093 19.634 2.13041 21.5564C1.17901 23.0549 1.17901 24.9451 2.13041 26.4436C3.35093 28.366 5.84731 31.9108 9.63211 35.4591C10.4379 36.2145 11.7036 36.1737 12.4591 35.3679C13.2145 34.5621 13.1737 33.2964 12.3679 32.5409C8.89863 29.2885 6.60758 26.0327 5.5073 24.2996C5.38671 24.1097 5.38671 23.8903 5.5073 23.7004C6.60759 21.9673 8.89863 18.7115 12.3679 15.4591C13.1737 14.7036 13.2145 13.4379 12.4591 12.6321Z" clip-rule="evenodd"></path><path fill="currentColor" d="M17.5 24C17.5 25.933 15.933 27.5 14 27.5C12.067 27.5 10.5 25.933 10.5 24C10.5 22.067 12.067 20.5 14 20.5C15.933 20.5 17.5 22.067 17.5 24Z"></path><path fill="currentColor" d="M37.5 24C37.5 25.933 35.933 27.5 34 27.5C32.067 27.5 30.5 25.933 30.5 24C30.5 22.067 32.067 20.5 34 20.5C35.933 20.5 37.5 22.067 37.5 24Z"></path><path fill="currentColor" d="M27.5 24C27.5 25.933 25.933 27.5 24 27.5C22.067 27.5 20.5 25.933 20.5 24C20.5 22.067 22.067 20.5 24 20.5C25.933 20.5 27.5 22.067 27.5 24Z"></path></svg>