<svg xmlns="http://www.w3.org/2000/svg" fill="none" viewBox="0 0 48 48"><path fill="currentColor" fill-rule="evenodd" d="M24 44.5C15.8723 44.5 10.5671 44.3587 7.37045 44.2254C4.31241 44.0979 1.80632 41.7606 1.61612 38.6469C1.54924 37.5519 1.5 36.3038 1.5 35C1.5 33.6962 1.54924 32.4481 1.61612 31.3531C1.80632 28.2394 4.31241 25.9021 7.37045 25.7746C10.5671 25.6413 15.8723 25.5 24 25.5C32.1277 25.5 37.4329 25.6413 40.6296 25.7746C43.6876 25.9021 46.1937 28.2394 46.3839 31.3531C46.4508 32.4481 46.5 33.6962 46.5 35C46.5 36.3038 46.4508 37.5519 46.3839 38.6468C46.1937 41.7606 43.6876 44.0979 40.6295 44.2254C37.4329 44.3587 32.1277 44.5 24 44.5ZM16.5 35C16.5 34.1716 17.1716 33.5 18 33.5H38C38.8284 33.5 39.5 34.1716 39.5 35C39.5 35.8284 38.8284 36.5 38 36.5H18C17.1716 36.5 16.5 35.8284 16.5 35ZM10 33.5C9.17157 33.5 8.5 34.1716 8.5 35C8.5 35.8284 9.17157 36.5 10 36.5H11C11.8284 36.5 12.5 35.8284 12.5 35C12.5 34.1716 11.8284 33.5 11 33.5H10Z" clip-rule="evenodd"></path><path fill="currentColor" fill-rule="evenodd" d="M24 22.5C15.8723 22.5 10.5671 22.3587 7.37045 22.2254C4.31241 22.0979 1.80632 19.7606 1.61612 16.6469C1.54924 15.5519 1.5 14.3038 1.5 13C1.5 11.6962 1.54924 10.4481 1.61612 9.35314C1.80632 6.23939 4.31241 3.90206 7.37045 3.77456C10.5671 3.6413 15.8723 3.5 24 3.5C32.1277 3.5 37.4329 3.64129 40.6296 3.77456C43.6876 3.90206 46.1937 6.23938 46.3839 9.35313C46.4508 10.4481 46.5 11.6962 46.5 13C46.5 14.3038 46.4508 15.5519 46.3839 16.6468C46.1937 19.7606 43.6876 22.0979 40.6295 22.2254C37.4329 22.3587 32.1277 22.5 24 22.5ZM16.5 13C16.5 12.1716 17.1716 11.5 18 11.5H38C38.8284 11.5 39.5 12.1716 39.5 13C39.5 13.8284 38.8284 14.5 38 14.5H18C17.1716 14.5 16.5 13.8284 16.5 13ZM10 11.5C9.17157 11.5 8.5 12.1716 8.5 13C8.5 13.8284 9.17157 14.5 10 14.5H11C11.8284 14.5 12.5 13.8284 12.5 13C12.5 12.1716 11.8284 11.5 11 11.5H10Z" clip-rule="evenodd"></path></svg>