<svg xmlns="http://www.w3.org/2000/svg" fill="none" viewBox="0 0 48 48"><path fill="currentColor" d="M18.9391 39.4629C20.498 39.4851 22.1838 39.4978 24.001 39.4978C25.8182 39.4978 27.5043 39.4851 29.0632 39.4629L29.2783 41.1838C29.3721 41.9345 30.0102 42.4978 30.7667 42.4978H33.6162C34.6585 42.4978 35.5839 43.1647 35.9135 44.1535C36.2979 45.3068 35.4395 46.4978 34.2238 46.4978H13.7785C12.5628 46.4978 11.7044 45.3068 12.0889 44.1535C12.4185 43.1647 13.3438 42.4978 14.3861 42.4978H17.2356C17.9921 42.4978 18.6302 41.9345 18.724 41.1838L18.9391 39.4629Z"></path><path fill="currentColor" fill-rule="evenodd" d="M24 36.4981C16.5773 36.498 11.3836 36.2847 8.12465 36.0821C4.88872 35.8809 2.25729 33.48 1.95077 30.1813C1.71608 27.6556 1.5 23.9781 1.5 18.998C1.5 14.018 1.71608 10.3404 1.95077 7.81481C2.25729 4.51609 4.88872 2.11522 8.12465 1.91402C11.3836 1.71139 16.5773 1.49804 24 1.49805C31.4227 1.49805 36.6164 1.71139 39.8754 1.91402C43.1113 2.11522 45.7427 4.51609 46.0492 7.81481C46.2839 10.3404 46.5 14.018 46.5 18.998C46.5 23.9781 46.2839 27.6557 46.0492 30.1813C45.7427 33.48 43.1113 35.8809 39.8753 36.0821C36.6164 36.2847 31.4227 36.4981 24 36.4981ZM23.5245 10.2824C23.4588 9.79731 23.5741 9.31534 23.9232 8.95549C24.2752 8.59254 24.7771 8.45318 25.2656 8.52179C25.6438 8.57489 26.9364 8.79965 28.6347 9.59282C30.5742 10.4987 33.0252 12.1416 35.189 15.0848C35.648 15.6804 35.5763 16.5548 35.0519 17.0694C34.5243 17.5895 33.6408 17.6424 33.0532 17.1638C30.9863 15.5621 29.053 14.7724 27.658 14.3818C27.4166 14.3142 27.1912 14.2585 26.984 14.2127C27.2908 17.4532 27.4983 20.7085 27.4999 23.9645L27.5 23.9998C27.5 27.0374 25.0376 29.4998 22 29.4998C18.9624 29.4998 16.5 27.0374 16.5 23.9998C16.5 20.9623 18.9624 18.4998 22 18.4998C22.839 18.4998 23.6342 18.6877 24.3457 19.0237C24.2533 17.4197 24.1302 15.9038 24.0065 14.5926C23.7902 12.2992 23.5738 10.6486 23.5245 10.2824Z" clip-rule="evenodd"></path></svg>