<svg xmlns="http://www.w3.org/2000/svg" fill="none" viewBox="0 0 48 48"><path fill="currentColor" d="M16.3662 13.8024C16.4196 14.5712 16.4724 15.4732 16.5186 16.5147C15.4771 16.4685 14.5751 16.4157 13.8063 16.3623C12.8097 16.2931 12.0039 15.4609 12.0039 14.3155C12.0039 13.0367 13.0406 12 14.3194 12C15.4648 12 16.297 12.8058 16.3662 13.8024Z"></path><path fill="currentColor" d="M20.6706 24C20.6706 22.7981 20.6606 21.6787 20.6431 20.6392C21.6826 20.6567 22.802 20.6667 24.0039 20.6667C25.2058 20.6667 26.3252 20.6567 27.3647 20.6392C27.3472 21.6787 27.3372 22.7981 27.3372 24C27.3372 25.2019 27.3472 26.3213 27.3647 27.3608C26.3252 27.3433 25.2058 27.3333 24.0039 27.3333C22.802 27.3333 21.6826 27.3433 20.6431 27.3608C20.6606 26.3213 20.6706 25.2019 20.6706 24Z"></path><path fill="currentColor" d="M13.8063 31.6377C14.5751 31.5843 15.4772 31.5315 16.5186 31.4853C16.4724 32.5268 16.4196 33.4288 16.3662 34.1976C16.297 35.1942 15.4648 36 14.3194 36C13.0406 36 12.0039 34.9633 12.0039 33.6845C12.0039 32.5391 12.8097 31.7069 13.8063 31.6377Z"></path><path fill="currentColor" d="M31.6416 34.1976C31.5882 33.4288 31.5354 32.5268 31.4892 31.4853C32.5307 31.5315 33.4327 31.5843 34.2015 31.6377C35.1981 31.7069 36.0039 32.5391 36.0039 33.6845C36.0039 34.9633 34.9672 36 33.6884 36C32.543 36 31.7108 35.1942 31.6416 34.1976Z"></path><path fill="currentColor" d="M34.2015 16.3623C33.4327 16.4157 32.5307 16.4685 31.4892 16.5147C31.5354 15.4732 31.5882 14.5712 31.6416 13.8024C31.7108 12.8058 32.543 12 33.6884 12C34.9672 12 36.0039 13.0367 36.0039 14.3155C36.0039 15.4609 35.1981 16.2931 34.2015 16.3623Z"></path><path fill="currentColor" fill-rule="evenodd" d="M8.13961 45.9561C11.4112 46.2219 16.6025 46.5 24.0039 46.5C31.4053 46.5 36.5966 46.2219 39.8682 45.9561C43.156 45.689 45.6929 43.1522 45.96 39.8643C46.2258 36.5927 46.5039 31.4014 46.5039 24C46.5039 16.5986 46.2258 11.4073 45.96 8.1357C45.6929 4.84785 43.1561 2.31102 39.8682 2.04389C36.5966 1.77808 31.4053 1.5 24.0039 1.5C16.6025 1.5 11.4112 1.77807 8.13961 2.04389C4.85176 2.31102 2.31493 4.84784 2.0478 8.1357C1.78198 11.4073 1.50391 16.5986 1.50391 24C1.50391 31.4014 1.78198 36.5927 2.0478 39.8643C2.31493 43.1521 4.85175 45.689 8.13961 45.9561ZM14.3194 8C10.8314 8 8.00391 10.8275 8.00391 14.3155C8.00391 17.4145 10.2916 20.1278 13.5292 20.3527C14.4056 20.4136 15.4401 20.4731 16.6405 20.5237C16.6596 21.5913 16.6706 22.749 16.6706 24C16.6706 25.251 16.6596 26.4087 16.6405 27.4763C15.4401 27.5269 14.4056 27.5864 13.5292 27.6473C10.2916 27.8722 8.00391 30.5855 8.00391 33.6845C8.00391 37.1725 10.8314 40 14.3194 40C17.4184 40 20.1317 37.7123 20.3566 34.4747C20.4175 33.5983 20.477 32.5638 20.5276 31.3634C21.5952 31.3443 22.7529 31.3333 24.0039 31.3333C25.2549 31.3333 26.4126 31.3443 27.4802 31.3634C27.5308 32.5638 27.5903 33.5983 27.6512 34.4747C27.8761 37.7123 30.5894 40 33.6884 40C37.1764 40 40.0039 37.1725 40.0039 33.6845C40.0039 30.5855 37.7163 27.8722 34.4786 27.6473C33.6022 27.5864 32.5678 27.5269 31.3673 27.4763C31.3482 26.4087 31.3372 25.251 31.3372 24C31.3372 22.749 31.3482 21.5913 31.3673 20.5237C32.5678 20.4731 33.6022 20.4136 34.4786 20.3527C37.7163 20.1278 40.0039 17.4145 40.0039 14.3155C40.0039 10.8275 37.1764 8 33.6884 8C30.5894 8 27.8761 10.2877 27.6512 13.5253C27.5903 14.4017 27.5308 15.4362 27.4802 16.6366C26.4126 16.6557 25.2549 16.6667 24.0039 16.6667C22.7529 16.6667 21.5952 16.6557 20.5276 16.6366C20.477 15.4362 20.4175 14.4017 20.3566 13.5253C20.1317 10.2876 17.4184 8 14.3194 8Z" clip-rule="evenodd"></path></svg>