<svg xmlns="http://www.w3.org/2000/svg" fill="none" viewBox="0 0 48 48"><path fill="currentColor" d="M18.9391 39.4629C20.498 39.4851 22.1838 39.4978 24.001 39.4978C25.8182 39.4978 27.5043 39.4851 29.0632 39.4629L29.2783 41.1838C29.3721 41.9345 30.0102 42.4978 30.7667 42.4978H33.6162C34.6585 42.4978 35.5839 43.1647 35.9135 44.1535C36.2979 45.3068 35.4395 46.4978 34.2238 46.4978H13.7785C12.5628 46.4978 11.7044 45.3068 12.0889 44.1535C12.4185 43.1647 13.3438 42.4978 14.3861 42.4978H17.2356C17.9921 42.4978 18.6302 41.9345 18.724 41.1838L18.9391 39.4629Z"></path><path fill="currentColor" d="M23 12C19.6863 12 17 14.6863 17 18C17 21.3137 19.6863 24 23 24C26.3137 24 29 21.3137 29 18C29 14.6863 26.3137 12 23 12Z"></path><path fill="currentColor" fill-rule="evenodd" d="M8.12465 36.0821C11.3836 36.2847 16.5773 36.498 24 36.4981C31.4227 36.4981 36.6164 36.2847 39.8753 36.0821C43.1113 35.8809 45.7427 33.48 46.0492 30.1813C46.2839 27.6557 46.5 23.9781 46.5 18.998C46.5 14.018 46.2839 10.3404 46.0492 7.81481C45.7427 4.51609 43.1113 2.11522 39.8754 1.91402C36.6164 1.71139 31.4227 1.49805 24 1.49805C16.5773 1.49804 11.3836 1.71139 8.12465 1.91402C4.88872 2.11522 2.25729 4.51609 1.95077 7.81481C1.71608 10.3404 1.5 14.018 1.5 18.998C1.5 23.9781 1.71608 27.6556 1.95077 30.1813C2.25729 33.48 4.88872 35.8809 8.12465 36.0821ZM13 18C13 12.4772 17.4772 8 23 8C28.5228 8 33 12.4772 33 18C33 20.0382 32.3902 21.9339 31.3432 23.5148L34.4142 26.5858C35.1953 27.3668 35.1953 28.6332 34.4142 29.4142C33.6332 30.1953 32.3668 30.1953 31.5858 29.4142L28.5148 26.3432C26.9339 27.3902 25.0382 28 23 28C17.4772 28 13 23.5228 13 18Z" clip-rule="evenodd"></path></svg>