<svg xmlns="http://www.w3.org/2000/svg" fill="none" viewBox="0 0 48 48"><path fill="currentColor" d="M18.9391 39.4629C20.498 39.4851 22.1838 39.4978 24.001 39.4978C25.8182 39.4978 27.5043 39.4851 29.0632 39.4629L29.2783 41.1838C29.3721 41.9345 30.0102 42.4978 30.7667 42.4978H33.6162C34.6585 42.4978 35.5839 43.1647 35.9135 44.1535C36.2979 45.3068 35.4395 46.4978 34.2238 46.4978H13.7785C12.5628 46.4978 11.7044 45.3068 12.0889 44.1535C12.4185 43.1647 13.3438 42.4978 14.3861 42.4978H17.2356C17.9921 42.4978 18.6302 41.9345 18.724 41.1838L18.9391 39.4629Z"></path><path fill="currentColor" fill-rule="evenodd" d="M39.8753 36.0821C36.6164 36.2847 31.4227 36.498 24 36.4981C16.5773 36.4981 11.3836 36.2847 8.12465 36.0821C4.88872 35.8809 2.25729 33.48 1.95077 30.1813C1.71608 27.6557 1.5 23.9781 1.5 18.998C1.5 14.018 1.71608 10.3404 1.95076 7.81481C2.25729 4.51609 4.88871 2.11522 8.12464 1.91402C11.3836 1.71139 16.5773 1.49805 24 1.49805C31.4227 1.49804 36.6164 1.71139 39.8753 1.91402C43.1113 2.11522 45.7427 4.51609 46.0492 7.81481C46.2839 10.3404 46.5 14.018 46.5 18.998C46.5 23.9781 46.2839 27.6556 46.0492 30.1813C45.7427 33.48 43.1113 35.8809 39.8753 36.0821ZM26.1943 13.1385C26.6949 12.0871 27.9406 11.7492 28.9501 12.2361C29.0055 12.2629 29.085 12.3016 29.1854 12.3511C29.386 12.4501 29.6703 12.5922 30.0107 12.7678C30.6884 13.1174 31.6016 13.6063 32.5229 14.1548C33.4298 14.6946 34.41 15.3304 35.1866 15.9775C35.5716 16.2983 35.9701 16.6739 36.2887 17.0912C36.572 17.4621 37 18.1316 37 18.9984C37 19.8651 36.572 20.5346 36.2887 20.9055C35.9701 21.3228 35.5716 21.6984 35.1866 22.0192C34.41 22.6663 33.4298 23.3022 32.5229 23.8419C31.6016 24.3904 30.6884 24.8793 30.0107 25.2289C29.6703 25.4045 29.386 25.5466 29.1854 25.6456C29.085 25.6951 29.0055 25.7338 28.9501 25.7606C27.943 26.2463 26.695 25.9097 26.1943 24.8582C25.6989 23.818 26.2044 22.644 27.2071 22.1604C27.2543 22.1375 27.3251 22.1031 27.4161 22.0582C27.5983 21.9683 27.8609 21.837 28.1768 21.674C28.8115 21.3466 29.6484 20.898 30.477 20.4048C31.2876 19.9223 32.0303 19.4323 32.5627 18.9984C32.0303 18.5644 31.2876 18.0744 30.477 17.5919C29.6484 17.0987 28.8115 16.6501 28.1768 16.3227C27.8609 16.1597 27.5983 16.0284 27.4161 15.9385C27.3251 15.8936 27.2543 15.8592 27.2071 15.8363C26.2045 15.3528 25.699 14.1785 26.1943 13.1385ZM19.0499 12.2361C20.0594 11.7492 21.3051 12.0871 21.8057 13.1385C22.301 14.1785 21.7955 15.3528 20.7929 15.8363C20.7457 15.8592 20.6749 15.8936 20.5839 15.9385C20.4017 16.0284 20.1391 16.1597 19.8232 16.3227C19.1884 16.6501 18.3516 17.0987 17.523 17.5919C16.7124 18.0744 15.9697 18.5644 15.4373 18.9984C15.9697 19.4323 16.7124 19.9223 17.523 20.4048C18.3516 20.898 19.1884 21.3466 19.8232 21.674C20.1391 21.837 20.4017 21.9683 20.5839 22.0582C20.6749 22.1031 20.7457 22.1375 20.7929 22.1604C21.7956 22.644 22.3011 23.818 21.8057 24.8582C21.305 25.9097 20.057 26.2463 19.0499 25.7606C18.9945 25.7338 18.9149 25.6951 18.8146 25.6456C18.614 25.5466 18.3297 25.4045 17.9893 25.2289C17.3116 24.8793 16.3984 24.3904 15.477 23.8419C14.5702 23.3022 13.59 22.6663 12.8134 22.0192C12.4284 21.6984 12.0299 21.3228 11.7113 20.9055C11.428 20.5346 11 19.8651 11 18.9984C11 18.1316 11.428 17.4621 11.7113 17.0912C12.0299 16.6739 12.4284 16.2983 12.8134 15.9775C13.59 15.3304 14.5702 14.6946 15.477 14.1548C16.3984 13.6063 17.3116 13.1174 17.9893 12.7678C18.3297 12.5922 18.614 12.4501 18.8146 12.3511C18.9149 12.3016 18.9945 12.2629 19.0499 12.2361Z" clip-rule="evenodd"></path></svg>