<svg xmlns="http://www.w3.org/2000/svg" fill="none" viewBox="0 0 48 48"><path fill="currentColor" d="M10.0055 19.5278C9.85789 19.5107 9.70777 19.502 9.55567 19.502H8.47179C6.2302 19.502 4.44466 21.3689 4.50131 23.5887C4.74958 33.317 10.7844 40.4633 19.7883 42.1312C19.8445 42.6824 19.9098 43.2334 19.9853 43.7801C20.1718 45.1321 21.2161 46.3565 22.7798 46.4632C23.123 46.4867 23.528 46.502 24.0004 46.502C24.4728 46.502 24.8777 46.4866 25.2209 46.4632C26.7849 46.3565 27.8277 45.1322 28.0167 43.7833C28.0952 43.2226 28.1628 42.6617 28.2205 42.1C37.1354 40.3754 43.0962 33.2555 43.3429 23.5887C43.3995 21.3689 41.614 19.502 39.3724 19.502H38.2887C38.1898 19.502 38.0917 19.5057 37.9946 19.5129C37.9842 20.9189 37.9597 22.1885 37.9248 23.3338C37.8091 27.1242 36.4275 30.5834 33.8829 33.1108C31.3294 35.647 27.8472 37.002 24 37.002C20.1528 37.002 16.6706 35.647 14.1171 33.1108C11.5725 30.5834 10.1909 27.1242 10.0752 23.3338C10.0404 22.1925 10.0159 20.9278 10.0055 19.5278Z"></path><path fill="currentColor" d="M24 1.50195C20.7515 1.50195 17.9222 2.63732 15.8788 4.66689C13.8388 6.69313 12.6725 9.52007 12.5741 12.7463C12.5279 14.2609 12.5 16.0028 12.5 18.002C12.5 20.0011 12.5279 21.743 12.5741 23.2576C12.6725 26.4838 13.8388 29.3108 15.8788 31.337C17.9222 33.3666 20.7515 34.502 24 34.502C27.2485 34.502 30.0778 33.3666 32.1212 31.337C34.1612 29.3108 35.3275 26.4838 35.4259 23.2576C35.4722 21.743 35.5 20.0011 35.5 18.002C35.5 16.0028 35.4722 14.2609 35.4259 12.7463C35.3275 9.52007 34.1612 6.69313 32.1212 4.66689C30.0778 2.63732 27.2485 1.50195 24 1.50195Z"></path></svg>