<svg xmlns="http://www.w3.org/2000/svg" fill="none" viewBox="0 0 48 48"><path fill="currentColor" d="M18.9391 39.4629C20.498 39.4851 22.1838 39.4978 24.001 39.4978C25.8182 39.4978 27.5043 39.4851 29.0632 39.4629L29.2783 41.1838C29.3721 41.9345 30.0102 42.4978 30.7667 42.4978H33.6162C34.6585 42.4978 35.5839 43.1647 35.9135 44.1535C36.2979 45.3068 35.4395 46.4978 34.2238 46.4978H13.7785C12.5628 46.4978 11.7044 45.3068 12.0889 44.1535C12.4185 43.1647 13.3438 42.4978 14.3861 42.4978H17.2356C17.9921 42.4978 18.6302 41.9345 18.724 41.1838L18.9391 39.4629Z"></path><path fill="currentColor" fill-rule="evenodd" d="M24 36.4981C16.5773 36.498 11.3836 36.2847 8.12465 36.0821C4.88872 35.8809 2.25729 33.48 1.95077 30.1813C1.71608 27.6556 1.5 23.9781 1.5 18.998C1.5 14.018 1.71608 10.3404 1.95077 7.81481C2.25729 4.51609 4.88872 2.11522 8.12465 1.91402C11.3836 1.71139 16.5773 1.49804 24 1.49805C31.4227 1.49805 36.6164 1.71139 39.8754 1.91402C43.1113 2.11522 45.7427 4.51609 46.0492 7.81481C46.2839 10.3404 46.5 14.018 46.5 18.998C46.5 23.9781 46.2839 27.6557 46.0492 30.1813C45.7427 33.48 43.1113 35.8809 39.8753 36.0821C36.6164 36.2847 31.4227 36.4981 24 36.4981ZM26 14C26 12.8954 25.1046 12 24 12C22.8954 12 22 12.8954 22 14V24C22 25.1046 22.8954 26 24 26C25.1046 26 26 25.1046 26 24V14ZM31 8C32.1046 8 33 8.89543 33 10V28C33 29.1046 32.1046 30 31 30C29.8954 30 29 29.1046 29 28V10C29 8.89543 29.8954 8 31 8ZM15 10C15 8.89543 15.8954 8 17 8C18.1046 8 19 8.89543 19 10V28C19 29.1046 18.1046 30 17 30C15.8954 30 15 29.1046 15 28L15 10ZM38 14C39.1046 14 40 14.8954 40 16V22C40 23.1046 39.1046 24 38 24C36.8954 24 36 23.1046 36 22V16C36 14.8954 36.8954 14 38 14ZM8 16C8 14.8954 8.89543 14 10 14C11.1046 14 12 14.8954 12 16V22C12 23.1046 11.1046 24 10 24C8.89543 24 8 23.1046 8 22L8 16Z" clip-rule="evenodd"></path></svg>