<svg xmlns="http://www.w3.org/2000/svg" fill="none" viewBox="0 0 48 48"><path fill="currentColor" fill-rule="evenodd" d="M8.13961 45.9561C11.4112 46.2219 16.6025 46.5 24.0039 46.5C31.4053 46.5 36.5966 46.2219 39.8682 45.9561C43.156 45.689 45.6929 43.1522 45.96 39.8643C46.2258 36.5927 46.5039 31.4014 46.5039 24C46.5039 16.5986 46.2258 11.4073 45.96 8.1357C45.6929 4.84785 43.1561 2.31102 39.8682 2.04389C36.5966 1.77808 31.4053 1.5 24.0039 1.5C16.6025 1.5 11.4112 1.77807 8.13961 2.04389C4.85176 2.31102 2.31493 4.84784 2.0478 8.1357C1.78198 11.4073 1.50391 16.5986 1.50391 24C1.50391 31.4014 1.78198 36.5927 2.0478 39.8643C2.31493 43.1521 4.85175 45.689 8.13961 45.9561ZM25.8963 16.7179C24.4822 16.6692 23.2567 15.7963 23.1997 14.3825C23.1935 14.23 23.1901 14.069 23.1901 13.8994C23.1901 13.7298 23.1935 13.5688 23.1997 13.4163C23.2567 12.0024 24.4828 11.1324 25.8968 11.0805C28.1844 10.9965 30.0388 10.9919 32.0052 11.0064C35.3208 11.0308 38.0079 13.7376 38.0051 17.0533L37.996 27.8638C37.9932 31.1752 35.3086 33.8643 31.9982 33.9435C27.1256 34.0601 21.7256 34.2708 18.2938 34.4156C18.2655 35.3919 18.2262 36.1815 18.1833 36.8163C18.0991 38.0648 16.911 38.6096 15.9115 37.8567C15.1681 37.2966 14.2036 36.5252 12.9968 35.4778C11.2844 33.9915 10.304 32.8757 9.75123 32.1305C9.24173 31.4435 9.24179 30.5696 9.75134 29.8827C10.3041 29.1375 11.2846 28.0218 12.9968 26.5353C14.2039 25.4875 15.1685 24.7159 15.912 24.1558C16.9113 23.4031 18.099 23.9478 18.1833 25.1961C18.2244 25.8048 18.2622 26.5561 18.2903 27.4778C22.4186 27.5517 27.211 27.7292 31.2696 27.884C31.8364 27.9056 32.3078 27.4519 32.3078 26.8847V17.7506C32.3078 17.1983 31.8596 16.7505 31.3073 16.7521C30.8441 16.7535 30.4262 16.7557 30.0385 16.7576C28.4968 16.7655 27.4335 16.7709 25.8963 16.7179Z" clip-rule="evenodd"></path></svg>