<svg xmlns="http://www.w3.org/2000/svg" fill="none" viewBox="0 0 48 48"><path fill="currentColor" fill-rule="evenodd" d="M24 46.5C16.5986 46.5 11.4073 46.2219 8.1357 45.9561C4.84785 45.689 2.31102 43.1521 2.04389 39.8643C1.77808 36.5927 1.5 31.4014 1.5 24C1.5 16.5986 1.77808 11.4073 2.04389 8.1357C2.31102 4.84784 4.84785 2.31102 8.13571 2.04389C11.4073 1.77807 16.5986 1.5 24 1.5C31.4014 1.5 36.5927 1.77808 39.8643 2.04389C43.1521 2.31102 45.689 4.84785 45.9561 8.1357C46.2219 11.4073 46.5 16.5986 46.5 24C46.5 31.4014 46.2219 36.5927 45.9561 39.8643C45.689 43.1522 43.1521 45.689 39.8643 45.9561C36.5927 46.2219 31.4014 46.5 24 46.5ZM28.7459 31.1685C28.6472 32.2663 27.855 33.0946 26.7585 33.2067C25.3473 33.3509 22.9363 33.5 19 33.5C17.0541 33.5 15.4809 33.4635 14.217 33.4093C11.2804 33.2831 9.18557 31.1283 9.07305 28.1911C9.02916 27.0453 9 25.6596 9 24C9 20.4965 9.12998 18.2133 9.25412 16.8316C9.35276 15.7338 10.1449 14.9054 11.2414 14.7934C12.6526 14.6492 15.0637 14.5 19 14.5C20.946 14.5 22.5193 14.5365 23.7832 14.5908C26.7197 14.7169 28.8144 16.8717 28.9269 19.8087C28.9708 20.9546 29 22.3404 29 24C29 27.5035 28.87 29.7867 28.7459 31.1685ZM32.056 19.8127C31.5306 20.2931 31.1887 20.9377 31.1134 21.6456C31.0535 22.2089 31 22.9937 31 24C31 25.0063 31.0535 25.7911 31.1134 26.3544C31.1887 27.0623 31.5306 27.7069 32.056 28.1873C33.6475 29.6421 35.2854 30.6068 36.5048 31.2019C37.5333 31.7038 38.6327 31.0576 38.7473 29.9189C38.8771 28.6293 39 26.6963 39 24C39 21.3037 38.8771 19.3707 38.7473 18.0811C38.6327 16.9424 37.5333 16.2962 36.5048 16.7981C35.2854 17.3932 33.6475 18.3579 32.056 19.8127Z" clip-rule="evenodd"></path></svg>