<svg xmlns="http://www.w3.org/2000/svg" fill="none" viewBox="0 0 48 48"><path fill="currentColor" d="M11.7613 24.25L13 20.534L14.2387 24.25H11.7613Z"></path><path fill="currentColor" fill-rule="evenodd" d="M8.13179 45.9561C11.4034 46.2219 16.5947 46.5 23.9961 46.5C31.3975 46.5 36.5888 46.2219 39.8604 45.9561C43.1482 45.689 45.6851 43.1522 45.9522 39.8643C46.218 36.5927 46.4961 31.4014 46.4961 24C46.4961 16.5986 46.218 11.4073 45.9522 8.1357C45.6851 4.84785 43.1482 2.31102 39.8604 2.04389C36.5888 1.77808 31.3975 1.5 23.9961 1.5C16.5947 1.5 11.4034 1.77807 8.1318 2.04389C4.84395 2.31102 2.30712 4.84784 2.03999 8.1357C1.77417 11.4073 1.49609 16.5986 1.49609 24C1.49609 31.4014 1.77417 36.5927 2.03998 39.8643C2.30711 43.1521 4.84394 45.689 8.13179 45.9561ZM41 19.75C41.9665 19.75 42.75 18.9665 42.75 18C42.75 17.0335 41.9665 16.25 41 16.25H33C32.0335 16.25 31.25 17.0335 31.25 18C31.25 18.9665 32.0335 19.75 33 19.75H35.25V30C35.25 30.9665 36.0335 31.75 37 31.75C37.9665 31.75 38.75 30.9665 38.75 30V19.75H41ZM24 16.25C24.9665 16.25 25.75 17.0335 25.75 18V28.25H31C31.9665 28.25 32.75 29.0335 32.75 30C32.75 30.9665 31.9665 31.75 31 31.75H24C23.0335 31.75 22.25 30.9665 22.25 30V18C22.25 17.0335 23.0335 16.25 24 16.25ZM15.9764 18.3953L18.3139 25.4078C18.3231 25.4333 18.3316 25.459 18.3396 25.4849L19.6602 29.4466C19.9658 30.3635 19.4703 31.3546 18.5534 31.6602C17.6365 31.9658 16.6454 31.4703 16.3398 30.5534L15.4053 27.75H10.5947L9.6602 30.5534C9.35456 31.4703 8.3635 31.9658 7.4466 31.6602C6.5297 31.3546 6.03417 30.3635 6.3398 29.4466L7.66038 25.4849C7.66835 25.4589 7.67692 25.4333 7.68606 25.4078L10.0236 18.3953C10.4506 17.1141 11.6496 16.25 13 16.25C14.3504 16.25 15.5494 17.1141 15.9764 18.3953Z" clip-rule="evenodd"></path></svg>