<svg xmlns="http://www.w3.org/2000/svg" fill="none" viewBox="0 0 48 48"><path fill="currentColor" d="M24.0005 46.5C14.2395 46.5 7.87383 46.3959 4.90349 46.3326C3.96421 46.3126 3.07306 45.9129 2.47123 45.2175C1.84947 44.499 1.57022 43.4916 1.87744 42.4533C2.40775 40.6609 3.43348 38.7697 4.45311 37.2085C5.52301 35.5703 7.32044 34.6811 9.18302 34.6321C11.4929 34.5713 15.9222 34.5 24.0005 34.5C32.0788 34.5 36.5081 34.5713 38.818 34.6321C40.6806 34.6811 42.4781 35.5703 43.5479 37.2085C44.5676 38.7697 45.5933 40.6609 46.1236 42.4533C46.4308 43.4916 46.1516 44.499 45.5298 45.2175C44.928 45.9129 44.0368 46.3126 43.0976 46.3326C40.1272 46.396 33.7616 46.5 24.0005 46.5Z"></path><path fill="currentColor" d="M10.972 30.1951C13.7895 30.3492 18.0639 30.5 24 30.5C29.9361 30.5 34.2105 30.3492 37.028 30.1952C39.8602 30.0403 42.2473 28.189 42.9785 25.5H5.02153C5.75272 28.189 8.13977 30.0403 10.972 30.1951Z"></path><path fill="currentColor" d="M4.68254 22.5C4.57544 20.7419 4.5 18.5858 4.5 16C4.5 12.431 4.64372 9.68047 4.81605 7.66531C5.09892 4.35739 7.74682 1.98116 10.972 1.80485C13.7895 1.65083 18.0639 1.5 24 1.5C29.9361 1.5 34.2105 1.65083 37.028 1.80486C40.2532 1.98117 42.9011 4.35739 43.1839 7.66531C43.3563 9.68047 43.5 12.431 43.5 16C43.5 18.5858 43.4246 20.7419 43.3175 22.5H4.68254Z"></path></svg>