<svg xmlns="http://www.w3.org/2000/svg" fill="none" viewBox="0 0 48 48"><path fill="currentColor" fill-rule="evenodd" d="M22 33.4978C14.2567 33.4805 9.34339 33.3644 6.51985 33.2657C3.99133 33.1773 1.8145 31.3019 1.60828 28.6629C1.54543 27.8587 1.5 26.9498 1.5 26C1.5 25.0502 1.54543 24.1413 1.60828 23.3371C1.8145 20.6981 3.99133 18.8227 6.51985 18.7343C9.57924 18.6274 15.0921 18.5 24 18.5C32.9079 18.5 38.4208 18.6274 41.4802 18.7343C44.0087 18.8227 46.1855 20.6981 46.3917 23.3371C46.4546 24.1413 46.5 25.0502 46.5 26C46.5 26.9498 46.4546 27.8587 46.3917 28.6629C46.1855 31.3019 44.0087 33.1773 41.4801 33.2657C38.6566 33.3644 33.7433 33.4805 26 33.4978V35.8749C27.4288 36.4329 28.5671 37.5712 29.1251 39H35C36.1046 39 37 39.8954 37 41C37 42.1046 36.1046 43 35 43H29.1251C28.325 45.0487 26.332 46.5 24 46.5C21.668 46.5 19.675 45.0487 18.8749 43H13C11.8954 43 11 42.1046 11 41C11 39.8954 11.8954 39 13 39H18.8749C19.4329 37.5712 20.5712 36.4329 22 35.8749V33.4978ZM16.5 26C16.5 25.1716 17.1716 24.5 18 24.5H39C39.8284 24.5 40.5 25.1716 40.5 26C40.5 26.8284 39.8284 27.5 39 27.5H18C17.1716 27.5 16.5 26.8284 16.5 26ZM10 24.5C9.17157 24.5 8.5 25.1716 8.5 26C8.5 26.8284 9.17157 27.5 10 27.5H11C11.8284 27.5 12.5 26.8284 12.5 26C12.5 25.1716 11.8284 24.5 11 24.5H10Z" clip-rule="evenodd"></path><path fill="currentColor" fill-rule="evenodd" d="M6.51985 16.2657C9.57924 16.3726 15.0921 16.5 24 16.5C32.9079 16.5 38.4208 16.3726 41.4801 16.2657C44.0087 16.1773 46.1855 14.3019 46.3917 11.6629C46.4546 10.8587 46.5 9.94976 46.5 9C46.5 8.05024 46.4546 7.1413 46.3917 6.33706C46.1855 3.69805 44.0087 1.82271 41.4802 1.73432C38.4208 1.62736 32.9079 1.5 24 1.5C15.0921 1.5 9.57924 1.62736 6.51985 1.73432C3.99133 1.82271 1.8145 3.69806 1.60828 6.33708C1.54543 7.14131 1.5 8.05024 1.5 9C1.5 9.94976 1.54543 10.8587 1.60828 11.6629C1.8145 14.3019 3.99133 16.1773 6.51985 16.2657ZM16.5 9C16.5 8.17157 17.1716 7.5 18 7.5H39C39.8284 7.5 40.5 8.17157 40.5 9C40.5 9.82843 39.8284 10.5 39 10.5H18C17.1716 10.5 16.5 9.82843 16.5 9ZM10 7.5C9.17157 7.5 8.5 8.17157 8.5 9C8.5 9.82843 9.17157 10.5 10 10.5H11C11.8284 10.5 12.5 9.82843 12.5 9C12.5 8.17157 11.8284 7.5 11 7.5H10Z" clip-rule="evenodd"></path></svg>