<svg xmlns="http://www.w3.org/2000/svg" fill="none" viewBox="0 0 48 48"><path fill="currentColor" d="M18.9391 39.4629C20.498 39.4851 22.1838 39.4978 24.001 39.4978C25.8182 39.4978 27.5043 39.4851 29.0632 39.4629L29.2783 41.1838C29.3721 41.9345 30.0102 42.4978 30.7667 42.4978H33.6162C34.6585 42.4978 35.5839 43.1647 35.9135 44.1535C36.2979 45.3068 35.4395 46.4978 34.2238 46.4978H13.7785C12.5628 46.4978 11.7044 45.3068 12.0889 44.1535C12.4185 43.1647 13.3438 42.4978 14.3861 42.4978H17.2356C17.9921 42.4978 18.6302 41.9345 18.724 41.1838L18.9391 39.4629Z"></path><path fill="currentColor" fill-rule="evenodd" d="M8.12465 36.0821C11.3836 36.2847 16.5773 36.498 24 36.4981C31.4227 36.4981 36.6164 36.2847 39.8753 36.0821C43.1113 35.8809 45.7427 33.48 46.0492 30.1813C46.2839 27.6557 46.5 23.9781 46.5 18.998C46.5 14.018 46.2839 10.3404 46.0492 7.81481C45.7427 4.51609 43.1113 2.11522 39.8754 1.91402C36.6164 1.71139 31.4227 1.49805 24 1.49805C16.5773 1.49804 11.3836 1.71139 8.12465 1.91402C4.88872 2.11522 2.25729 4.51609 1.95077 7.81481C1.71608 10.3404 1.5 14.018 1.5 18.998C1.5 23.9781 1.71608 27.6556 1.95077 30.1813C2.25729 33.48 4.88872 35.8809 8.12465 36.0821ZM31.2678 11.7322C32.2441 12.7085 32.2441 14.2915 31.2678 15.2678L27.5355 19L31.2678 22.7322C32.2441 23.7085 32.2441 25.2915 31.2678 26.2678C30.2915 27.2441 28.7085 27.2441 27.7322 26.2678L24 22.5355L20.2678 26.2678C19.2915 27.2441 17.7085 27.2441 16.7322 26.2678C15.7559 25.2915 15.7559 23.7085 16.7322 22.7322L20.4645 19L16.7322 15.2678C15.7559 14.2915 15.7559 12.7085 16.7322 11.7322C17.7085 10.7559 19.2915 10.7559 20.2678 11.7322L24 15.4645L27.7322 11.7322C28.7085 10.7559 30.2915 10.7559 31.2678 11.7322Z" clip-rule="evenodd"></path></svg>