<svg xmlns="http://www.w3.org/2000/svg" fill="none" viewBox="0 0 48 48"><path fill="currentColor" fill-rule="evenodd" d="M1.9287 13.7335C1.70246 16.0984 1.5 19.478 1.5 24C1.5 28.522 1.70246 31.9016 1.9287 34.2665C2.2439 37.5613 4.89166 39.9209 8.10562 40.1087C11.361 40.299 16.5602 40.5 24 40.5C31.4398 40.5 36.639 40.299 39.8944 40.1087C43.1083 39.9209 45.7561 37.5613 46.0713 34.2665C46.2975 31.9016 46.5 28.522 46.5 24C46.5 19.478 46.2975 16.0984 46.0713 13.7335C45.7561 10.4387 43.1083 8.07912 39.8944 7.89126C36.639 7.70098 31.4398 7.5 24 7.5C16.5602 7.5 11.361 7.70098 8.10563 7.89126C4.89166 8.07912 2.2439 10.4387 1.9287 13.7335ZM18.0078 30.5C17.1794 30.5 16.5078 31.1716 16.5078 32C16.5078 32.8284 17.1794 33.5 18.0078 33.5H30.0078C30.8362 33.5 31.5078 32.8284 31.5078 32C31.5078 31.1716 30.8362 30.5 30.0078 30.5H18.0078ZM9.50781 17.5C9.50781 16.6716 10.1794 16 11.0078 16H13.0078C13.8362 16 14.5078 16.6716 14.5078 17.5C14.5078 18.3284 13.8362 19 13.0078 19H11.0078C10.1794 19 9.50781 18.3284 9.50781 17.5ZM11.0078 23C10.1794 23 9.50781 23.6716 9.50781 24.5C9.50781 25.3284 10.1794 26 11.0078 26H13.0078C13.8362 26 14.5078 25.3284 14.5078 24.5C14.5078 23.6716 13.8362 23 13.0078 23H11.0078ZM17.5078 17.5C17.5078 16.6716 18.1794 16 19.0078 16H21.0078C21.8362 16 22.5078 16.6716 22.5078 17.5C22.5078 18.3284 21.8362 19 21.0078 19H19.0078C18.1794 19 17.5078 18.3284 17.5078 17.5ZM19.0078 23C18.1794 23 17.5078 23.6716 17.5078 24.5C17.5078 25.3284 18.1794 26 19.0078 26H21.0078C21.8362 26 22.5078 25.3284 22.5078 24.5C22.5078 23.6716 21.8362 23 21.0078 23H19.0078ZM25.5078 17.5C25.5078 16.6716 26.1794 16 27.0078 16H29.0078C29.8362 16 30.5078 16.6716 30.5078 17.5C30.5078 18.3284 29.8362 19 29.0078 19H27.0078C26.1794 19 25.5078 18.3284 25.5078 17.5ZM27.0078 23C26.1794 23 25.5078 23.6716 25.5078 24.5C25.5078 25.3284 26.1794 26 27.0078 26H29.0078C29.8362 26 30.5078 25.3284 30.5078 24.5C30.5078 23.6716 29.8362 23 29.0078 23H27.0078ZM33.5078 17.5C33.5078 16.6716 34.1794 16 35.0078 16H37.0078C37.8362 16 38.5078 16.6716 38.5078 17.5C38.5078 18.3284 37.8362 19 37.0078 19H35.0078C34.1794 19 33.5078 18.3284 33.5078 17.5ZM35.0078 23C34.1794 23 33.5078 23.6716 33.5078 24.5C33.5078 25.3284 34.1794 26 35.0078 26H37.0078C37.8362 26 38.5078 25.3284 38.5078 24.5C38.5078 23.6716 37.8362 23 37.0078 23H35.0078Z" clip-rule="evenodd"></path></svg>