<svg xmlns="http://www.w3.org/2000/svg" fill="none" viewBox="0 0 48 48"><path fill="currentColor" d="M18.9391 39.4629C20.498 39.4851 22.1838 39.4978 24.001 39.4978C25.8182 39.4978 27.5043 39.4851 29.0632 39.4629L29.2783 41.1838C29.3721 41.9345 30.0102 42.4978 30.7667 42.4978H33.6162C34.6585 42.4978 35.5839 43.1647 35.9135 44.1535C36.2979 45.3068 35.4395 46.4978 34.2238 46.4978H13.7785C12.5628 46.4978 11.7044 45.3068 12.0889 44.1535C12.4185 43.1647 13.3438 42.4978 14.3861 42.4978H17.2356C17.9921 42.4978 18.6302 41.9345 18.724 41.1838L18.9391 39.4629Z"></path><path fill="currentColor" d="M24 15.5C22.067 15.5 20.5 17.067 20.5 19C20.5 20.933 22.067 22.5 24 22.5C25.933 22.5 27.5 20.933 27.5 19C27.5 17.067 25.933 15.5 24 15.5Z"></path><path fill="currentColor" fill-rule="evenodd" d="M24 36.4981C16.5773 36.498 11.3836 36.2847 8.12465 36.0821C4.88872 35.8809 2.25729 33.48 1.95077 30.1813C1.71608 27.6556 1.5 23.9781 1.5 18.998C1.5 14.018 1.71608 10.3404 1.95077 7.81481C2.25729 4.51609 4.88872 2.11522 8.12465 1.91402C11.3836 1.71139 16.5773 1.49804 24 1.49805C31.4227 1.49805 36.6164 1.71139 39.8754 1.91402C43.1113 2.11522 45.7427 4.51609 46.0492 7.81481C46.2839 10.3404 46.5 14.018 46.5 18.998C46.5 23.9781 46.2839 27.6557 46.0492 30.1813C45.7427 33.48 43.1113 35.8809 39.8753 36.0821C36.6164 36.2847 31.4227 36.4981 24 36.4981ZM23.9994 8.5C22.6044 8.5 21.8547 8.73363 21.4717 8.92705C21.1708 9.07904 21.0213 9.35013 20.9505 9.57154C20.8514 9.88154 20.6624 10.4882 20.4397 11.2791C20.0027 11.481 19.5857 11.7187 19.1927 11.9887C18.2366 11.7393 17.4863 11.5699 17.1252 11.4914C16.8981 11.4419 16.5886 11.4359 16.3065 11.6205C15.9475 11.8554 15.3703 12.3879 14.6728 13.596C13.9754 14.8041 13.8028 15.5702 13.7789 15.9985C13.76 16.3351 13.92 16.6002 14.0764 16.7721C14.3234 17.0438 14.8403 17.6035 15.5277 18.3008C15.5089 18.5314 15.4994 18.7647 15.4994 19C15.4994 19.0963 15.501 19.1923 15.5042 19.2879C14.7039 20.0905 14.0998 20.7442 13.8264 21.0449C13.67 21.2168 13.51 21.4819 13.5289 21.8185C13.5528 22.2468 13.7254 23.0129 14.4228 24.221C15.1203 25.4291 15.6975 25.9616 16.0565 26.1965C16.3386 26.3811 16.6481 26.3751 16.8753 26.3256C17.2357 26.2472 17.9842 26.0782 18.9381 25.8295C19.2058 26.0282 19.4856 26.2116 19.7763 26.3782C20.0677 27.4574 20.328 28.2951 20.4505 28.6785C20.5213 28.8999 20.6708 29.171 20.9717 29.3229C21.3547 29.5164 22.1044 29.75 23.4994 29.75C24.8943 29.75 25.6441 29.5164 26.027 29.3229C26.3279 29.171 26.4775 28.8999 26.5482 28.6785C26.6491 28.3629 26.8431 27.7399 27.0711 26.9279C27.5301 26.7499 27.9696 26.5333 28.3859 26.2821C29.3038 26.5201 30.0225 26.6822 30.3735 26.7586C30.6006 26.808 30.9101 26.8141 31.1922 26.6295C31.5512 26.3946 32.1284 25.8621 32.8259 24.654C33.5234 23.4459 33.6959 22.6798 33.7199 22.2515C33.7387 21.9149 33.5787 21.6498 33.4223 21.4779C33.2282 21.2643 32.8675 20.873 32.3883 20.3769C32.4614 19.9285 32.4994 19.4685 32.4994 19C32.4994 18.8209 32.4938 18.643 32.4829 18.4665C33.0396 17.8945 33.4577 17.4412 33.6723 17.2052C33.8287 17.0332 33.9887 16.7682 33.9699 16.4316C33.9459 16.0032 33.7734 15.2371 33.0759 14.029C32.3784 12.8209 31.8012 12.2885 31.4422 12.0535C31.1601 11.8689 30.8506 11.875 30.6235 11.9244C30.3455 11.9849 29.8372 12.0992 29.1819 12.2622C28.6822 11.8773 28.1383 11.5466 27.559 11.2791C27.3363 10.4882 27.1473 9.88154 27.0482 9.57154C26.9775 9.35013 26.8279 9.07904 26.527 8.92705C26.1441 8.73363 25.3943 8.5 23.9994 8.5Z" clip-rule="evenodd"></path></svg>