<svg xmlns="http://www.w3.org/2000/svg" fill="none" viewBox="0 0 48 48"><path fill="currentColor" fill-rule="evenodd" d="M23.9961 46.5C16.5947 46.5 11.4034 46.2219 8.13179 45.9561C4.84394 45.689 2.30711 43.1521 2.03998 39.8643C1.77417 36.5927 1.49609 31.4014 1.49609 24C1.49609 16.5986 1.77417 11.4073 2.03999 8.1357C2.30712 4.84784 4.84395 2.31102 8.1318 2.04389C11.4034 1.77807 16.5947 1.5 23.9961 1.5C31.3975 1.5 36.5888 1.77808 39.8604 2.04389C43.1482 2.31102 45.6851 4.84785 45.9522 8.1357C46.218 11.4073 46.4961 16.5986 46.4961 24C46.4961 31.4014 46.218 36.5927 45.9522 39.8643C45.6851 43.1522 43.1482 45.689 39.8604 45.9561C36.5888 46.2219 31.3975 46.5 23.9961 46.5ZM40 23.7071C40 32.7054 32.7054 40 23.7071 40C16.9433 40 11.1421 35.8784 8.67808 30.0097C8.17485 28.8111 8.43089 27.3346 9.58682 26.7399C10.8344 26.098 12.1196 26.1822 13.0588 26.4069C14.0073 26.6339 14.6221 27.4529 15.0822 28.3128C16.7287 31.3897 19.9735 33.4829 23.7071 33.4829C29.1061 33.4829 33.4829 29.1061 33.4829 23.7071C33.4829 19.9735 31.3897 16.7287 28.3129 15.0822C27.453 14.6221 26.6339 14.0073 26.407 13.0587C26.1823 12.1195 26.0981 10.8344 26.7399 9.58682C27.3346 8.43088 28.8111 8.17485 30.0097 8.67808C35.8784 11.1421 40 16.9433 40 23.7071ZM20.8048 10.7572C21.6391 9.7128 21.0358 8.33119 19.7048 8.20713C16.5162 7.90989 12.8476 8.01039 10.0077 8.18145C9.02305 8.24076 8.2409 9.02286 8.18156 10.0075C8.00953 12.862 7.90885 16.5535 8.21167 19.7535C8.33621 21.0695 9.69023 21.667 10.7242 20.8434C11.5063 20.2203 12.514 19.3621 13.7657 18.1948C16.9587 21.3158 19.826 24.0469 21.4094 25.5459C22.2333 26.3259 23.391 26.7543 24.3839 26.2053C24.7229 26.0179 25.0771 25.769 25.4092 25.439C25.7492 25.101 26.0053 24.7362 26.1979 24.3866C26.7465 23.3907 26.33 22.2271 25.5541 21.396C24.0647 19.8005 21.3462 16.9198 18.209 13.7432C19.3412 12.5242 20.185 11.5331 20.8048 10.7572Z" clip-rule="evenodd"></path></svg>