<svg xmlns="http://www.w3.org/2000/svg" fill="none" viewBox="0 0 48 48"><path fill="currentColor" d="M15.7349 2.0407C17.672 1.7671 20.4679 1.5 24.001 1.5C27.534 1.5 30.3299 1.7671 32.2671 2.0407C34.7803 2.39567 36.6555 4.35934 36.9469 6.85751C36.9649 7.01184 36.983 7.17208 37.001 7.33827C37.0068 7.39199 37.0097 7.44597 37.0097 7.5V8.16275C33.8791 8.07233 29.619 8 24 8C18.4777 8 14.1963 8.06986 10.9922 8.15798V7.5C10.9922 7.44598 10.9951 7.39199 11.0009 7.33828C11.019 7.17207 11.037 7.01183 11.055 6.85751C11.3464 4.35934 13.2216 2.39567 15.7349 2.0407Z"></path><path fill="currentColor" fill-rule="evenodd" d="M24 10.5C31.876 10.5 37.2042 10.6426 40.4655 10.7761C43.5942 10.904 46.1126 13.3208 46.2926 16.4765C46.4035 18.4226 46.5 20.9823 46.5 24C46.5 27.0182 46.4035 29.5775 46.2925 31.5228C46.1126 34.6767 43.5966 37.0926 40.4695 37.2216C39.9829 37.2417 39.4503 37.262 38.87 37.2819C38.9177 35.2657 38.9576 32.8621 38.9798 30.0279C38.9808 29.8953 38.9786 29.7631 38.9731 29.6316C38.94 28.8333 38.5898 28.0813 38.0002 27.5421C37.4106 27.0029 36.6302 26.7213 35.8322 26.7595C32.959 26.8971 29.1045 26.9997 24.0007 26.9997C18.8947 26.9997 15.0391 26.897 12.1655 26.7593C11.3674 26.7211 10.5871 27.0027 9.99745 27.5419C9.40781 28.0811 9.05761 28.8332 9.02448 29.6315C9.01902 29.7631 9.01678 29.8954 9.01783 30.0281C9.04019 32.8621 9.08036 35.2656 9.12848 37.2819C8.54881 37.2619 8.01669 37.2417 7.53054 37.2216C4.40338 37.0926 1.8874 34.6767 1.70749 31.5228C1.59652 29.5775 1.5 27.0182 1.5 24C1.5 20.6688 1.73268 17.888 1.9826 15.8615C2.3404 12.9602 4.73368 10.9123 7.56818 10.7872C10.662 10.6506 15.9076 10.5 24 10.5ZM35 18.5C34.1716 18.5 33.5 19.1716 33.5 20C33.5 20.8284 34.1716 21.5 35 21.5H36C36.8284 21.5 37.5 20.8284 37.5 20C37.5 19.1716 36.8284 18.5 36 18.5H35Z" clip-rule="evenodd"></path><path fill="currentColor" fill-rule="evenodd" d="M12.0219 29.7559C14.9513 29.8962 18.8555 29.9997 24.0007 29.9997C29.1436 29.9997 33.0468 29.8963 35.9757 29.756C35.9791 29.8383 35.9805 29.9211 35.9799 30.0044C35.9343 35.8308 35.8137 39.813 35.7049 42.3344C35.6128 44.4693 34.1002 46.227 31.9811 46.5019C30.0049 46.7583 27.2759 46.9992 23.9987 46.9992C20.7209 46.9992 17.9922 46.7582 16.0169 46.5017C13.8994 46.2269 12.3878 44.4709 12.295 42.3377C12.1853 39.8166 12.0637 35.8334 12.0177 30.0044C12.0171 29.9211 12.0185 29.8382 12.0219 29.7559ZM16.5 35C16.5 34.1716 17.1716 33.5 18 33.5H30C30.8284 33.5 31.5 34.1716 31.5 35C31.5 35.8284 30.8284 36.5 30 36.5H18C17.1716 36.5 16.5 35.8284 16.5 35ZM18 39.5C17.1716 39.5 16.5 40.1716 16.5 41C16.5 41.8284 17.1716 42.5 18 42.5H30C30.8284 42.5 31.5 41.8284 31.5 41C31.5 40.1716 30.8284 39.5 30 39.5H18Z" clip-rule="evenodd"></path></svg>