<svg xmlns="http://www.w3.org/2000/svg" fill="none" viewBox="0 0 48 48"><path fill="currentColor" d="M18.9391 39.4629C20.498 39.4851 22.1838 39.4978 24.001 39.4978C25.8182 39.4978 27.5043 39.4851 29.0632 39.4629L29.2783 41.1838C29.3721 41.9345 30.0102 42.4978 30.7667 42.4978H33.6162C34.6585 42.4978 35.5839 43.1647 35.9135 44.1535C36.2979 45.3068 35.4395 46.4978 34.2238 46.4978H13.7785C12.5628 46.4978 11.7044 45.3068 12.0889 44.1535C12.4185 43.1647 13.3438 42.4978 14.3861 42.4978H17.2356C17.9921 42.4978 18.6302 41.9345 18.724 41.1838L18.9391 39.4629Z"></path><path fill="currentColor" fill-rule="evenodd" d="M24 36.4981C16.5773 36.498 11.3836 36.2847 8.12465 36.0821C4.88872 35.8809 2.25729 33.48 1.95077 30.1813C1.71608 27.6556 1.5 23.9781 1.5 18.998C1.5 14.018 1.71608 10.3404 1.95077 7.81481C2.25729 4.51609 4.88872 2.11522 8.12465 1.91402C11.3836 1.71139 16.5773 1.49804 24 1.49805C31.4227 1.49805 36.6164 1.71139 39.8754 1.91402C43.1113 2.11522 45.7427 4.51609 46.0492 7.81481C46.2839 10.3404 46.5 14.018 46.5 18.998C46.5 23.9781 46.2839 27.6557 46.0492 30.1813C45.7427 33.48 43.1113 35.8809 39.8753 36.0821C36.6164 36.2847 31.4227 36.4981 24 36.4981ZM32.9449 15.5708C33.8124 14.4967 33.645 12.9227 32.5708 12.0551C31.4967 11.1876 29.9227 11.355 29.0551 12.4292L22.7051 20.2911L18.7475 16.4227C17.7601 15.4576 16.1773 15.4757 15.2122 16.463C14.2471 17.4504 14.2651 19.0332 15.2525 19.9983L21.1756 25.7878C21.6791 26.28 22.3668 26.537 23.0697 26.4957C23.7726 26.4544 24.4255 26.1186 24.8679 25.5708L32.9449 15.5708Z" clip-rule="evenodd"></path></svg>