<svg xmlns="http://www.w3.org/2000/svg" fill="none" viewBox="0 0 48 48"><path fill="currentColor" fill-rule="evenodd" d="M8.13961 45.9561C11.4112 46.2219 16.6025 46.5 24.0039 46.5C31.4053 46.5 36.5966 46.2219 39.8682 45.9561C43.156 45.689 45.6929 43.1522 45.96 39.8643C46.2258 36.5927 46.5039 31.4014 46.5039 24C46.5039 16.5986 46.2258 11.4073 45.96 8.1357C45.6929 4.84785 43.1561 2.31102 39.8682 2.04389C36.5966 1.77808 31.4053 1.5 24.0039 1.5C16.6025 1.5 11.4112 1.77807 8.13961 2.04389C4.85176 2.31102 2.31493 4.84784 2.0478 8.1357C1.78198 11.4073 1.50391 16.5986 1.50391 24C1.50391 31.4014 1.78198 36.5927 2.0478 39.8643C2.31493 43.1521 4.85175 45.689 8.13961 45.9561ZM12.7594 27.2469C10.2625 27.0815 9.1781 24.7076 10.6869 22.7113C11.775 21.2717 13.2617 19.4171 15.2659 17.1085C18.1378 13.8003 20.3013 11.8905 21.7566 10.8045C23.1275 9.78142 24.8723 9.78129 26.2432 10.8043C27.6987 11.8903 29.8623 13.8001 32.7338 17.1085C34.7372 19.4166 36.2236 21.2708 37.3116 22.7104C38.8207 24.707 37.7362 27.0816 35.2389 27.247C34.0947 27.3228 32.6984 27.3925 31.0034 27.4452V28.9993C31.0034 31.4854 30.9462 33.3829 30.8792 34.7527C30.7963 36.4456 29.5533 37.7736 27.862 37.8845C26.8661 37.9498 25.5886 37.9993 24.0034 37.9993C22.4182 37.9993 21.1407 37.9498 20.1448 37.8845C18.4536 37.7736 17.2105 36.4456 17.1277 34.7527C17.0606 33.3829 17.0034 31.4854 17.0034 28.9993V27.4454C15.3045 27.3927 13.9055 27.3228 12.7594 27.2469Z" clip-rule="evenodd"></path></svg>