<svg xmlns="http://www.w3.org/2000/svg" fill="none" viewBox="0 0 48 48"><path fill="currentColor" fill-rule="evenodd" d="M22.5 9.52041C17.7686 7.16753 13.2365 5.81017 6.51784 5.54729C4.32019 5.4613 2.41892 7.04488 2.1511 9.25134C1.85745 11.6707 1.5 15.7887 1.5 21.4999C1.5 27.2111 1.85745 31.3291 2.1511 33.7485C2.42234 35.9832 4.32399 37.4637 6.40055 37.545C13.203 37.8112 17.4865 39.2486 22.3341 41.8067C22.3889 41.8356 22.4442 41.863 22.5 41.8888V9.52041ZM18.1481 19.1331C18.7953 18.1916 18.4896 16.9071 17.5556 16.3004C17.518 16.276 17.4688 16.2447 17.4079 16.2075C17.2864 16.1332 17.1184 16.0353 16.9056 15.922C16.4801 15.6955 15.8736 15.4068 15.0976 15.1222C13.5442 14.5527 11.311 14 8.49999 14C7.39542 14 6.49999 14.8954 6.49999 16C6.49999 17.1046 7.39542 18 8.49999 18C10.7799 18 12.5467 18.4473 13.7206 18.8778C14.3082 19.0932 14.7471 19.3045 15.0262 19.453C16.0739 20.0107 17.3173 20.3415 18.1481 19.1331ZM18.1481 30.1331C18.7953 29.1917 18.4897 27.9072 17.5556 27.3004C17.5181 27.276 17.4688 27.2447 17.408 27.2075C17.2864 27.1332 17.1185 27.0353 16.9056 26.922C16.4801 26.6955 15.8736 26.4068 15.0976 26.1222C13.5442 25.5527 11.311 25 8.50001 25C7.39544 25 6.50001 25.8954 6.50001 27C6.50001 28.1046 7.39544 29 8.50001 29C10.7799 29 12.5468 29.4473 13.7206 29.8778C14.3082 30.0932 14.7471 30.3045 15.0262 30.453C16.074 31.0107 17.3173 31.3415 18.1481 30.1331Z" clip-rule="evenodd"></path><path fill="currentColor" fill-rule="evenodd" d="M25.5 41.8888C25.5558 41.863 25.6111 41.8356 25.6659 41.8067C30.5135 39.2486 34.797 37.8112 41.5994 37.545C43.676 37.4637 45.5777 35.9832 45.8489 33.7485C46.1425 31.3291 46.5 27.2111 46.5 21.4999C46.5 15.7887 46.1425 11.6707 45.8489 9.25134C45.5811 7.04488 43.6798 5.4613 41.4822 5.54728C34.7635 5.81017 30.2314 7.16752 25.5 9.52041V41.8888ZM30.4444 16.3004C29.5104 16.9071 29.2047 18.1916 29.8519 19.1331C30.6827 20.3415 31.9261 20.0107 32.9738 19.453C33.2529 19.3045 33.6918 19.0932 34.2794 18.8778C35.4533 18.4473 37.2201 18 39.5 18C40.6046 18 41.5 17.1046 41.5 16C41.5 14.8954 40.6046 14 39.5 14C36.689 14 34.4558 14.5527 32.9024 15.1222C32.1264 15.4068 31.5199 15.6955 31.0944 15.922C30.8816 16.0353 30.7136 16.1332 30.5921 16.2075C30.5312 16.2447 30.482 16.276 30.4444 16.3004ZM30.4444 27.3004C29.5103 27.9072 29.2047 29.1917 29.8519 30.1331C30.6827 31.3415 31.926 31.0107 32.9738 30.453C33.2529 30.3045 33.6918 30.0932 34.2794 29.8778C35.4532 29.4473 37.2201 29 39.5 29C40.6046 29 41.5 28.1046 41.5 27C41.5 25.8954 40.6046 25 39.5 25C36.689 25 34.4558 25.5527 32.9024 26.1222C32.1264 26.4068 31.5198 26.6955 31.0944 26.922C30.8815 27.0353 30.7136 27.1332 30.592 27.2075C30.5312 27.2447 30.4819 27.276 30.4444 27.3004Z" clip-rule="evenodd"></path></svg>