<svg xmlns="http://www.w3.org/2000/svg" fill="none" viewBox="0 0 48 48"><path fill="currentColor" fill-rule="evenodd" d="M1.5 19c0-4.926.161-8.571.338-11.083.231-3.303 2.776-5.848 6.079-6.08C10.429 1.662 14.074 1.5 19 1.5s8.571.161 11.083.338c3.303.231 5.848 2.776 6.08 6.079.054.78.107 1.668.155 2.67a14.77 14.77 0 0 0-12.08 4.247l-1.88 1.88a5.474 5.474 0 0 0-1.606 4.037 5.475 5.475 0 0 0-4.037 1.606l-1.88 1.88a14.77 14.77 0 0 0-4.247 12.08c-1.003-.047-1.891-.1-2.671-.155-3.303-.231-5.848-2.776-6.08-6.079C1.662 27.571 1.5 23.926 1.5 19Zm41.545-2.044c-4.608-4.608-12.078-4.608-16.685 0l-1.88 1.88a2.49 2.49 0 0 0 0 3.52l.313.314a2.933 2.933 0 0 0 4.097.05l1.616-1.617a5.924 5.924 0 0 1 5.065-1.674 5.933 5.933 0 0 1 3.326 10.064L37.33 31.06a2.933 2.933 0 0 0 0 4.148l.314.313a2.49 2.49 0 0 0 3.52 0l1.88-1.88c4.608-4.608 4.608-12.078 0-16.685ZM24.82 31.03l6.169-6.169a5.93 5.93 0 0 0 .071-.07l1.568-1.568a2.928 2.928 0 0 1 4.146 0 2.933 2.933 0 0 1 0 4.148l-9.403 9.403a2.933 2.933 0 1 1-4.148-4.147l1.568-1.568.029-.029Zm-2.13-2.113a2.933 2.933 0 0 0-.02-4.126l-.314-.314a2.49 2.49 0 0 0-3.52 0l-1.881 1.88c-4.608 4.608-4.608 12.078 0 16.686 4.607 4.607 12.077 4.607 16.685 0l1.88-1.88a2.49 2.49 0 0 0 0-3.521l-.313-.314a2.933 2.933 0 0 0-4.148 0l-1.567 1.567a5.933 5.933 0 1 1-8.39-8.39l1.588-1.588Z" clip-rule="evenodd"/></svg>