<svg xmlns="http://www.w3.org/2000/svg" fill="none" viewBox="0 0 48 48"><path fill="currentColor" fill-rule="evenodd" d="M19 .5C13.59.5 9.634.683 6.96.878 3.662 1.118 1.119 3.66.879 6.96.683 9.634.5 13.589.5 19c0 5.41.183 9.366.378 12.04.24 3.299 2.783 5.842 6.083 6.082.223.017.455.033.696.049A198.3 198.3 0 0 1 7.5 29c0-5.478.186-9.506.386-12.257.347-4.785 4.072-8.51 8.857-8.857 2.75-.2 6.779-.386 12.257-.386 3.21 0 5.922.064 8.17.157-.015-.241-.032-.473-.048-.696-.24-3.3-2.783-5.843-6.083-6.083C28.366.683 24.411.5 19 .5Zm10 10c-5.41 0-9.366.183-12.04.378-3.299.24-5.842 2.783-6.082 6.083-.195 2.673-.378 6.628-.378 12.039 0 5.41.183 9.366.378 12.04.24 3.299 2.783 5.842 6.083 6.082 2.673.195 6.628.378 12.039.378 5.41 0 9.366-.183 12.04-.378 3.299-.24 5.842-2.783 6.082-6.083.195-2.673.378-6.628.378-12.039 0-5.41-.183-9.366-.378-12.04-.24-3.299-2.783-5.842-6.083-6.082-2.673-.195-6.628-.378-12.039-.378Zm-.315 12.34c-3.118-2.734-8.103-1.065-9.006 2.997a6.836 6.836 0 0 0 .85 5.158c1.441 2.308 3.66 4.134 5.85 5.742a4.438 4.438 0 0 0 5.241 0c2.19-1.608 4.41-3.434 5.852-5.742a6.836 6.836 0 0 0 .849-5.158c-.903-4.062-5.887-5.73-9.006-2.998a5.622 5.622 0 0 0-.315.3 5.622 5.622 0 0 0-.315-.3Z" clip-rule="evenodd"/></svg>