<svg xmlns="http://www.w3.org/2000/svg" fill="none" viewBox="0 0 48 48"><path fill="currentColor" d="M12.186 17.771c1.487.39 2.698 1.56 2.965 3.284.194 1.251.349 3.012.349 5.445 0 2.433-.155 4.194-.349 5.445-.36 2.328-2.442 3.646-4.599 3.397-1.853-.215-3.698-.613-5.137-.974-2.393-.602-3.915-2.776-3.915-5.135v-5.466c0-2.19 1.311-4.22 3.413-4.981C6.76 9.5 14.586 2.5 24 2.5s17.24 7 19.087 16.286c2.102.761 3.413 2.792 3.413 4.98v5.467c0 1.688-.779 3.28-2.098 4.27-.37 4.426-1.815 7.703-4.875 9.85C36.08 45.773 30.893 46.5 24 46.5c-.945 0-1.719-.014-2.35-.037-1.09-.039-2.127-.416-2.91-1.16-.792-.754-1.222-1.792-1.238-2.945A27.38 27.38 0 0 1 17.5 42v-.067c.003-1.226.442-2.337 1.274-3.15.823-.804 1.93-1.218 3.111-1.254A69.454 69.454 0 0 1 24 37.5c.945 0 1.719.014 2.35.037 1.09.039 2.127.416 2.91 1.16.792.754 1.222 1.792 1.238 2.945a27.38 27.38 0 0 1 0 .716 4.54 4.54 0 0 1-.088.836c3.326-.378 5.714-1.118 7.394-2.297 1.804-1.266 2.958-3.173 3.44-6.212a37.838 37.838 0 0 1-3.796.657c-2.157.249-4.24-1.07-4.6-3.397-.193-1.251-.348-3.012-.348-5.445 0-2.433.155-4.194.349-5.445.267-1.724 1.478-2.894 2.965-3.284C34.119 12.96 29.474 9.5 24 9.5s-10.12 3.46-11.814 8.271Z"/></svg>