<svg xmlns="http://www.w3.org/2000/svg" fill="none" viewBox="0 0 48 48"><path fill="currentColor" d="M30.5 12C30.5 9.09699 30.3279 6.98769 30.1332 5.52979C29.8285 3.2481 27.9492 1.76566 25.8012 1.66778C23.9469 1.58328 20.8822 1.5 16 1.5C11.1178 1.5 8.0531 1.58328 6.1988 1.66778C4.05079 1.76566 2.17152 3.24809 1.86678 5.52979C1.67207 6.98769 1.5 9.09699 1.5 12C1.5 14.903 1.67207 17.0123 1.86678 18.4702C2.17152 20.7519 4.05079 22.2343 6.1988 22.3322C8.0531 22.4167 11.1178 22.5 16 22.5C20.8822 22.5 23.9469 22.4167 25.8012 22.3322C27.9492 22.2343 29.8285 20.7519 30.1332 18.4702C30.3279 17.0123 30.5 14.903 30.5 12Z"></path><path fill="currentColor" d="M8 46.5C9.32887 46.5 10.3584 46.4163 11.1513 46.2978C13.2633 45.9824 14.2898 44.1534 14.3647 42.4574C14.4296 40.9907 14.5 38.7622 14.5 36C14.5 33.2378 14.4296 31.0093 14.3647 29.5426C14.2898 27.8466 13.2633 26.0176 11.1513 25.7022C10.3584 25.5837 9.32887 25.5 8 25.5C6.67113 25.5 5.64163 25.5837 4.84869 25.7022C2.7367 26.0176 1.71024 27.8466 1.63526 29.5426C1.57042 31.0093 1.5 33.2378 1.5 36C1.5 38.7622 1.57042 40.9907 1.63526 42.4574C1.71024 44.1534 2.7367 45.9824 4.8487 46.2978C5.64163 46.4163 6.67113 46.5 8 46.5Z"></path><path fill="currentColor" d="M46.5 36C46.5 33.097 46.3279 30.9877 46.1332 29.5298C45.8285 27.2481 43.9492 25.7657 41.8012 25.6678C39.9469 25.5833 36.8822 25.5 32 25.5C27.1178 25.5 24.0531 25.5833 22.1988 25.6678C20.0508 25.7657 18.1715 27.2481 17.8668 29.5298C17.6721 30.9877 17.5 33.097 17.5 36C17.5 38.903 17.6721 41.0123 17.8668 42.4702C18.1715 44.7519 20.0508 46.2343 22.1988 46.3322C24.0531 46.4167 27.1178 46.5 32 46.5C36.8822 46.5 39.9469 46.4167 41.8012 46.3322C43.9492 46.2343 45.8285 44.7519 46.1332 42.4702C46.3279 41.0123 46.5 38.903 46.5 36Z"></path><path fill="currentColor" d="M40 22.5C41.3289 22.5 42.3584 22.4163 43.1513 22.2978C45.2633 21.9824 46.2898 20.1534 46.3647 18.4574C46.4296 16.9907 46.5 14.7622 46.5 12C46.5 9.23781 46.4296 7.0093 46.3647 5.54261C46.2898 3.84662 45.2633 2.0176 43.1513 1.70216C42.3584 1.58373 41.3289 1.5 40 1.5C38.6711 1.5 37.6416 1.58373 36.8487 1.70216C34.7367 2.0176 33.7102 3.84662 33.6353 5.54261C33.5704 7.0093 33.5 9.23781 33.5 12C33.5 14.7622 33.5704 16.9907 33.6353 18.4574C33.7102 20.1534 34.7367 21.9824 36.8487 22.2978C37.6416 22.4163 38.6711 22.5 40 22.5Z"></path></svg>