<svg xmlns="http://www.w3.org/2000/svg" fill="none" viewBox="0 0 48 48"><path fill="currentColor" d="M12 30.5C9.85125 30.5 8.13747 30.4057 6.80094 30.2778C3.71851 29.9828 1.71874 27.4737 1.61876 24.564C1.5538 22.6736 1.5 19.924 1.5 16C1.5 12.076 1.5538 9.32639 1.61876 7.43602C1.71873 4.52626 3.71851 2.01719 6.80094 1.72218C8.13747 1.59427 9.85125 1.5 12 1.5C14.1488 1.5 15.8625 1.59427 17.1991 1.72218C20.2815 2.01719 22.2813 4.52626 22.3812 7.43601C22.4462 9.32639 22.5 12.076 22.5 16C22.5 19.924 22.4462 22.6736 22.3812 24.564C22.2813 27.4737 20.2815 29.9828 17.1991 30.2778C15.8625 30.4057 14.1488 30.5 12 30.5Z"></path><path fill="currentColor" d="M46.5 8C46.5 8.80884 46.469 9.50636 46.4181 10.1068C46.1814 12.8999 43.8062 14.3194 41.4889 14.4037C40.079 14.4549 38.2105 14.5 36 14.5C33.7895 14.5 31.9209 14.4549 30.5111 14.4037C28.1938 14.3194 25.8186 12.8999 25.5819 10.1068C25.531 9.50637 25.5 8.80884 25.5 8C25.5 7.19116 25.531 6.49364 25.5819 5.89318C25.8186 3.10008 28.1938 1.68056 30.5111 1.59634C31.9209 1.5451 33.7895 1.5 36 1.5C38.2105 1.5 40.079 1.5451 41.4889 1.59633C43.8062 1.68055 46.1814 3.10008 46.4181 5.89318C46.469 6.49364 46.5 7.19116 46.5 8Z"></path><path fill="currentColor" d="M36 46.5C33.8512 46.5 32.1375 46.4057 30.8009 46.2778C27.7185 45.9828 25.7187 43.4737 25.6188 40.564C25.5538 38.6736 25.5 35.924 25.5 32C25.5 28.076 25.5538 25.3264 25.6188 23.436C25.7187 20.5263 27.7185 18.0172 30.8009 17.7222C32.1375 17.5943 33.8512 17.5 36 17.5C38.1488 17.5 39.8625 17.5943 41.1991 17.7222C44.2815 18.0172 46.2813 20.5263 46.3812 23.436C46.4462 25.3264 46.5 28.076 46.5 32C46.5 35.924 46.4462 38.6736 46.3812 40.564C46.2813 43.4737 44.2815 45.9828 41.1991 46.2778C39.8625 46.4057 38.1488 46.5 36 46.5Z"></path><path fill="currentColor" d="M22.5 40C22.5 40.8088 22.469 41.5064 22.4181 42.1068C22.1814 44.8999 19.8062 46.3194 17.4889 46.4037C16.079 46.4549 14.2105 46.5 12 46.5C9.78954 46.5 7.92095 46.4549 6.51115 46.4037C4.19377 46.3194 1.81861 44.8999 1.58191 42.1068C1.53102 41.5064 1.5 40.8088 1.5 40C1.5 39.1912 1.53102 38.4936 1.58191 37.8932C1.81861 35.1001 4.19377 33.6806 6.51115 33.5963C7.92095 33.5451 9.78954 33.5 12 33.5C14.2105 33.5 16.079 33.5451 17.4889 33.5963C19.8062 33.6806 22.1814 35.1001 22.4181 37.8932C22.469 38.4936 22.5 39.1912 22.5 40Z"></path></svg>