<svg xmlns="http://www.w3.org/2000/svg" fill="none" viewBox="0 0 48 48"><path fill="currentColor" d="M12 1.5C9.56316 1.5 7.69602 1.63167 6.30491 1.79975C3.58051 2.12893 1.76146 4.30235 1.61847 6.92286C1.55072 8.16438 1.5 9.82103 1.5 12C1.5 14.179 1.55072 15.8356 1.61847 17.0771C1.76146 19.6976 3.58051 21.8711 6.30491 22.2002C7.69602 22.3683 9.56316 22.5 12 22.5C14.4368 22.5 16.304 22.3683 17.6951 22.2002C20.4195 21.8711 22.2385 19.6977 22.3815 17.0771C22.4493 15.8356 22.5 14.179 22.5 12C22.5 9.82103 22.4493 8.16438 22.3815 6.92286C22.2385 4.30235 20.4195 2.12893 17.6951 1.79975C16.304 1.63167 14.4368 1.5 12 1.5Z"></path><path fill="currentColor" d="M12 25.5C9.56316 25.5 7.69602 25.6317 6.30491 25.7998C3.58051 26.1289 1.76146 28.3024 1.61847 30.9229C1.55072 32.1644 1.5 33.821 1.5 36C1.5 38.179 1.55072 39.8356 1.61847 41.0771C1.76146 43.6976 3.58051 45.8711 6.30491 46.2002C7.69602 46.3683 9.56316 46.5 12 46.5C14.4368 46.5 16.304 46.3683 17.6951 46.2002C20.4195 45.8711 22.2385 43.6977 22.3815 41.0771C22.4493 39.8356 22.5 38.179 22.5 36C22.5 33.821 22.4493 32.1644 22.3815 30.9229C22.2385 28.3024 20.4195 26.1289 17.6951 25.7998C16.304 25.6317 14.4368 25.5 12 25.5Z"></path><path fill="currentColor" d="M36 1.5C33.5632 1.5 31.696 1.63167 30.3049 1.79975C27.5805 2.12893 25.7615 4.30235 25.6185 6.92286C25.5507 8.16438 25.5 9.82103 25.5 12C25.5 14.179 25.5507 15.8356 25.6185 17.0771C25.7615 19.6976 27.5805 21.8711 30.3049 22.2002C31.696 22.3683 33.5632 22.5 36 22.5C38.4368 22.5 40.304 22.3683 41.6951 22.2002C44.4195 21.8711 46.2385 19.6977 46.3815 17.0771C46.4493 15.8356 46.5 14.179 46.5 12C46.5 9.82103 46.4493 8.16438 46.3815 6.92286C46.2385 4.30235 44.4195 2.12893 41.6951 1.79975C40.304 1.63167 38.4368 1.5 36 1.5Z"></path><path fill="currentColor" d="M36 25.5C33.5632 25.5 31.696 25.6317 30.3049 25.7998C27.5805 26.1289 25.7615 28.3024 25.6185 30.9229C25.5507 32.1644 25.5 33.821 25.5 36C25.5 38.179 25.5507 39.8356 25.6185 41.0771C25.7615 43.6976 27.5805 45.8711 30.3049 46.2002C31.696 46.3683 33.5632 46.5 36 46.5C38.4368 46.5 40.304 46.3683 41.6951 46.2002C44.4195 45.8711 46.2385 43.6977 46.3815 41.0771C46.4493 39.8356 46.5 38.179 46.5 36C46.5 33.821 46.4493 32.1644 46.3815 30.9229C46.2385 28.3024 44.4195 26.1289 41.6951 25.7998C40.304 25.6317 38.4368 25.5 36 25.5Z"></path></svg>