<svg xmlns="http://www.w3.org/2000/svg" fill="none" viewBox="0 0 48 48"><path fill="currentColor" fill-rule="evenodd" d="M8.125 36.082c3.259.203 8.452.416 15.875.416s12.616-.213 15.875-.416c3.236-.201 5.868-2.602 6.174-5.9.235-2.526.451-6.204.451-11.184 0-4.98-.216-8.658-.45-11.183-.307-3.299-2.939-5.7-6.175-5.901-3.259-.203-8.452-.416-15.875-.416s-12.616.213-15.875.416c-3.236.201-5.868 2.602-6.174 5.9-.235 2.526-.451 6.204-.451 11.184 0 4.98.216 8.658.45 11.183.307 3.299 2.939 5.7 6.175 5.901Zm19.804-6.713a53.674 53.674 0 0 1-3.928.131c-1.615 0-2.915-.057-3.929-.131-1.945-.144-3.34-1.698-3.43-3.61A141.696 141.696 0 0 1 16.501 19c0-2.983.066-5.207.14-6.758.092-1.913 1.486-3.467 3.431-3.61a53.67 53.67 0 0 1 3.929-.132c1.614 0 2.915.057 3.928.131 1.946.144 3.34 1.698 3.431 3.61.074 1.552.14 3.776.14 6.759 0 2.983-.066 5.207-.14 6.758-.09 1.913-1.485 3.467-3.43 3.61Zm-16.257-15.71a1.5 1.5 0 0 0-1.571.141c-1.954 1.465-3.244 2.934-3.878 3.735a2.353 2.353 0 0 0 0 2.93c.634.801 1.924 2.27 3.878 3.735a1.5 1.5 0 0 0 2.4-1.2v-8a1.5 1.5 0 0 0-.83-1.342ZM37.9 13.8a1.5 1.5 0 0 0-2.4 1.2v8a1.5 1.5 0 0 0 2.4 1.2c1.953-1.465 3.244-2.934 3.878-3.735a2.353 2.353 0 0 0 0-2.93c-.634-.801-1.925-2.27-3.878-3.735ZM24 39.498c-1.817 0-3.503-.013-5.062-.035l-.215 1.72a1.5 1.5 0 0 1-1.488 1.315h-2.85a2.421 2.421 0 0 0-2.297 1.656 1.781 1.781 0 0 0 1.69 2.344h20.445a1.781 1.781 0 0 0 1.69-2.344 2.422 2.422 0 0 0-2.298-1.656h-2.85a1.5 1.5 0 0 1-1.488-1.314l-.215-1.721c-1.559.022-3.245.035-5.062.035Z" clip-rule="evenodd"/></svg>