<svg xmlns="http://www.w3.org/2000/svg" viewBox="0 0 24 24"><g><path d="M9.5,12a2,2,0,0,0-.59-1.42l-1.5-1.5A2,2,0,0,0,6,8.5H1.5A1.5,1.5,0,0,0,0,10v4a1.5,1.5,0,0,0,1.5,1.5H6a2,2,0,0,0,1.41-.59l1.5-1.5A2,2,0,0,0,9.5,12Z" fill="currentColor"></path><path d="M22.5,8.5H18a2,2,0,0,0-1.41.58l-1.5,1.5a2,2,0,0,0,0,2.83l1.5,1.5A2,2,0,0,0,18,15.5h4.5A1.5,1.5,0,0,0,24,14V10A1.5,1.5,0,0,0,22.5,8.5Z" fill="currentColor"></path><path d="M13.41,15.08a2,2,0,0,0-2.82,0l-1.5,1.5A2,2,0,0,0,8.5,18v4.5A1.5,1.5,0,0,0,10,24h4a1.5,1.5,0,0,0,1.5-1.5V18a2,2,0,0,0-.59-1.42Z" fill="currentColor"></path><path d="M10.59,8.91a2,2,0,0,0,2.82,0l1.51-1.5A2,2,0,0,0,15.5,6V1.5A1.5,1.5,0,0,0,14,0H10A1.5,1.5,0,0,0,8.5,1.5V6a2,2,0,0,0,.59,1.41Z" fill="currentColor"></path></g></svg>