<svg xmlns="http://www.w3.org/2000/svg" fill="none" viewBox="0 0 48 48"><path fill="currentColor" d="M30.9232 23.1914C32.5893 23.4665 34.1013 24.4586 34.8162 26.1253C35.6352 28.0348 35.0899 30.0876 33.7844 31.5417C33.1828 32.2117 32.4603 32.9842 31.5955 33.8656C29.7682 35.7279 28.3073 36.9041 27.2085 37.6473C25.2478 38.9736 22.751 38.9734 20.7905 37.6471C19.692 36.9039 18.2312 35.7279 16.4038 33.8658C15.5384 32.984 14.8156 32.2111 14.2138 31.5409C12.9083 30.087 12.3629 28.0344 13.1821 26.1249C13.8973 24.4576 15.4102 23.4657 17.0767 23.1911L17.2272 17.5811C13.5211 17.6745 10.7076 17.8348 8.70098 17.9876C5.70359 18.216 3.22681 20.3882 2.89529 23.4896C2.6821 25.484 2.5 28.277 2.5 31.9998C2.5 35.7227 2.6821 38.5157 2.89529 40.5101C3.22681 43.6115 5.70359 45.7837 8.70097 46.012C11.7876 46.2472 16.7833 46.4998 24 46.4998C31.2167 46.4998 36.2124 46.2472 39.299 46.012C42.2964 45.7837 44.7732 43.6115 45.1047 40.5101C45.3179 38.5157 45.5 35.7227 45.5 31.9998C45.5 28.277 45.3179 25.484 45.1047 23.4896C44.7732 20.3882 42.2964 18.216 39.299 17.9876C37.2923 17.8348 34.4788 17.6745 30.7726 17.5811L30.9232 23.1914Z"></path><path fill="currentColor" d="M27.9987 26.0444L27.5577 9.61742C27.5231 8.32593 26.659 7.19759 25.3734 7.06929C24.9561 7.02764 24.4934 7 24.0002 7C23.5069 7 23.044 7.02765 22.6265 7.06932C21.3408 7.19764 20.4766 8.32612 20.4419 9.61779L20.0012 26.0443C19.208 26.0637 18.5132 26.0882 17.9058 26.1158C15.9294 26.2054 15.1242 28.0646 16.4459 29.5367C17.016 30.1716 17.7083 30.9121 18.545 31.7647C20.2568 33.509 21.5656 34.5496 22.4715 35.1625C23.4167 35.8019 24.5824 35.802 25.5276 35.1626C26.4337 34.5497 27.7425 33.5091 29.4541 31.7647C30.2903 30.9125 30.9822 30.1722 31.5521 29.5375C32.8741 28.0652 32.0688 26.2053 30.092 26.1157C29.4852 26.0882 28.791 26.0637 27.9987 26.0444Z"></path></svg>