<svg xmlns="http://www.w3.org/2000/svg" fill="none" viewBox="0 0 48 48"><path fill="currentColor" d="M8.34387 32.062C9.32792 33.3423 10.5085 34.7056 11.9233 36.1204C13.321 37.518 14.6669 38.6857 15.9316 39.6602C14.8283 40.4261 13.7594 41.1576 12.7449 41.8353C10.4707 43.3544 8.40691 44.6461 6.79445 45.467C5.9981 45.8724 5.23478 46.2033 4.57105 46.372C4.24059 46.4559 3.85602 46.5206 3.46309 46.4949C3.06521 46.4689 2.53133 46.3387 2.09617 45.9035C1.661 45.4683 1.53078 44.9345 1.50475 44.5366C1.47904 44.1437 1.54377 43.7591 1.62773 43.4286C1.79635 42.7649 2.12731 42.0016 2.53272 41.2052C3.3536 39.5928 4.64532 37.529 6.16445 35.2548C6.84335 34.2385 7.57636 33.1675 8.34387 32.062Z"></path><path fill="currentColor" fill-rule="evenodd" d="M23.9291 2.74968C24.8588 1.90294 26.1185 1.37987 27.4833 1.49346C29.9115 1.69556 34.4572 2.90608 39.7976 8.24655C45.1556 13.6045 46.337 18.1431 46.5187 20.558C46.6199 21.9021 46.0992 23.1352 45.2726 24.0472C41.2632 28.471 34.6607 29.8434 31.3796 30.2816C30.9832 30.3346 30.5719 30.7541 30.5504 31.2558C30.4694 33.1394 30.0775 35.9539 28.6431 38.682C27.5752 40.713 25.1763 41.4917 23.1191 40.5658C20.9875 39.6065 17.7444 37.6994 14.0446 33.9996C10.3439 30.2988 8.423 27.0413 7.45227 24.9002C6.5172 22.8378 7.29016 20.4199 9.33766 19.3472C12.0596 17.9211 14.8653 17.5308 16.7447 17.45C17.2463 17.4285 17.6658 17.0172 17.7188 16.6209C18.1563 13.345 19.5248 6.761 23.9291 2.74968ZM37.0239 21.818C37.988 22.357 39.2065 22.0123 39.7455 21.0481C40.2845 20.084 39.9398 18.8655 38.9756 18.3265C37.454 17.4759 35.6744 16.1883 33.7239 14.2378C31.8422 12.3561 30.5814 10.6375 29.7362 9.15843C29.1882 8.1994 27.9665 7.86622 27.0074 8.41426C26.0484 8.96229 25.7152 10.184 26.2633 11.143C27.2984 12.9545 28.7825 14.9533 30.8954 17.0662C33.086 19.2567 35.1567 20.7743 37.0239 21.818Z" clip-rule="evenodd"></path></svg>