<svg xmlns="http://www.w3.org/2000/svg" fill="none" viewBox="0 0 48 48"><path fill="currentColor" fill-rule="evenodd" d="M1.5 24C1.5 11.5732 11.5762 1.5 24.0051 1.5C35.4458 1.5 44.7141 10.3305 46.2695 20.9737C46.9936 25.9282 43.2251 30.0276 38.3066 30.0287C37.4774 30.0289 36.6455 30.0114 35.8528 29.9947L35.6295 29.99C34.7621 29.972 33.9489 29.9571 33.2001 29.9669C31.6096 29.9876 30.6288 30.1268 30.1554 30.3634C29.1595 30.8613 28.2463 32.4383 29.0459 34.3871C29.5502 35.6161 29.9683 36.5772 30.3106 37.3638L30.3482 37.4503C30.6909 38.2379 30.9747 38.8917 31.176 39.4483C31.3818 40.0176 31.5309 40.5627 31.5715 41.1459C31.6127 41.7386 31.5359 42.2825 31.3984 42.845C31.0149 44.4132 29.8364 45.3422 28.5151 45.8461C27.2297 46.3364 25.6465 46.5 24.0051 46.5C11.5762 46.5 1.5 36.4268 1.5 24ZM28 19C30.7614 19 33 16.7614 33 14C33 11.2386 30.7614 9 28 9C25.2386 9 23 11.2386 23 14C23 16.7614 25.2386 19 28 19ZM19 21.5C19 23.9853 16.9853 26 14.5 26C12.0147 26 10 23.9853 10 21.5C10 19.0147 12.0147 17 14.5 17C16.9853 17 19 19.0147 19 21.5ZM18.5 38C20.433 38 22 36.433 22 34.5C22 32.567 20.433 31 18.5 31C16.567 31 15 32.567 15 34.5C15 36.433 16.567 38 18.5 38Z" clip-rule="evenodd"></path></svg>