<svg xmlns="http://www.w3.org/2000/svg" fill="none" viewBox="0 0 48 48"><path fill="currentColor" d="M35.6249 1.53179C42.0248 -0.0931924 48.1063 6.08191 46.4631 12.4432C46.3189 13.0015 46.0642 13.4677 45.8366 13.8292L38.7884 25.023C37.9848 22.2509 36.2973 18.6906 32.8033 15.1967C29.3699 11.7632 25.8724 10.0742 23.1218 9.25413L34.1921 2.18246C34.5647 1.94444 35.0469 1.67855 35.6249 1.53179Z"></path><path fill="currentColor" d="M19.6476 11.5808C20.2624 11.653 21.0362 11.7869 21.9245 12.0315C24.2899 12.6829 27.4882 14.1242 30.682 17.318C33.8758 20.5118 35.3171 23.7101 35.9685 26.0755C36.2372 27.0516 36.3723 27.8893 36.4388 28.5299C35.7325 29.2998 34.857 29.9208 33.8454 30.3113C32.754 30.7327 31.252 31.2727 29.6911 31.7094C29.5673 31.744 29.4425 31.7781 29.3168 31.8117C29.2497 31.4347 29.1588 31.0204 29.0364 30.5759C28.4772 28.5449 27.2636 25.9026 24.6805 23.3195C22.0975 20.7364 19.4551 19.5228 17.4241 18.9636C16.9928 18.8448 16.5899 18.7558 16.222 18.6892C16.2652 18.5361 16.3094 18.3843 16.3543 18.2342C16.8238 16.6626 17.402 15.1625 17.8451 14.0912C18.2521 13.1072 18.8803 12.2609 19.6476 11.5808Z"></path><path fill="currentColor" d="M26.1441 31.3723C26.266 31.815 26.3468 32.2144 26.4 32.5583C26.1728 35.3058 25.7376 37.4246 25.3291 38.9212C24.7349 41.0976 22.9786 42.5557 21.0014 43.1327C16.342 44.4924 12.5775 45.3171 9.96876 45.8029C8.66436 46.0457 7.64872 46.2039 6.95443 46.3018C6.30695 46.3931 5.5815 46.5518 4.92828 46.4792C4.61186 46.444 4.26716 46.3609 3.91353 46.2078L14.9663 35.155C14.986 35.2488 14.9943 35.3225 14.9977 35.3697C14.9995 35.395 14.9999 35.4122 15 35.4201C14.9564 36.2298 15.5665 36.931 16.3795 36.9953C17.2054 37.0607 17.9278 36.4442 17.9932 35.6183C17.9932 35.6183 17.9931 35.619 17.9933 35.6168L17.9937 35.6119L17.9942 35.6049L17.9952 35.5893C17.9959 35.5782 17.9966 35.5656 17.9973 35.5516C17.9985 35.5235 17.9995 35.4897 17.9999 35.4506C18.0006 35.3724 17.9985 35.2724 17.9899 35.1537C17.9728 34.9167 17.9296 34.6022 17.8291 34.2372C17.6259 33.4993 17.1932 32.5748 16.3092 31.6908C15.4252 30.8068 14.5007 30.3741 13.7628 30.1709C13.3978 30.0704 13.0833 30.0272 12.8463 30.0101C12.7276 30.0015 12.6276 29.9994 12.5494 30.0001C12.5103 30.0005 12.4765 30.0015 12.4484 30.0027C12.4344 30.0034 12.4218 30.0041 12.4107 30.0048L12.3951 30.0058L12.3881 30.0063L12.3832 30.0067C12.381 30.0069 12.3817 30.0068 12.3817 30.0068C11.5558 30.0722 10.9393 30.7946 11.0047 31.6205C11.069 32.4335 11.7702 33.0436 12.5799 33C12.5878 33.0001 12.605 33.0005 12.6303 33.0023C12.6775 33.0057 12.7512 33.014 12.845 33.0337L1.7922 44.0865C1.63916 43.7329 1.55598 43.3882 1.52083 43.0718C1.44827 42.4186 1.60698 41.6931 1.69828 41.0456C1.79619 40.3513 1.95433 39.3357 2.1972 38.0313C2.68291 35.4226 3.50763 31.6581 4.86739 26.9986C5.44437 25.0215 6.9024 23.2651 9.07886 22.671C10.5754 22.2624 12.6943 21.8273 15.4418 21.6C15.7857 21.6533 16.1851 21.7341 16.6277 21.8559C18.2173 22.2936 20.3849 23.2664 22.5592 25.4408C24.7336 27.6152 25.7064 29.7828 26.1441 31.3723Z"></path><path fill="currentColor" d="M12.6149 32.9977C12.6032 32.9986 12.5915 32.9994 12.5799 33L12.5753 33L12.5834 32.9997L12.5974 32.9989L12.607 32.9983L12.6124 32.9979L12.6149 32.9977Z"></path></svg>