<svg xmlns="http://www.w3.org/2000/svg" fill="none" viewBox="0 0 48 48"><path fill="currentColor" d="M17.5062 18.0029C15.8012 18.0237 14.5361 19.3282 14.5078 21.0331C14.5028 21.33 14.5 21.652 14.5 22C14.5 22.348 14.5028 22.67 14.5078 22.9669C14.5361 24.6718 15.8012 25.9763 17.5062 25.9971C17.6637 25.999 17.8282 26 18 26C18.1718 26 18.3363 25.999 18.4938 25.9971C20.1988 25.9763 21.4639 24.6718 21.4922 22.9669C21.4972 22.67 21.5 22.348 21.5 22C21.5 21.652 21.4972 21.33 21.4922 21.0331C21.4639 19.3282 20.1988 18.0237 18.4938 18.0029C18.3363 18.001 18.1718 18 18 18C17.8282 18 17.6637 18.001 17.5062 18.0029Z"></path><path fill="currentColor" d="M26.5078 21.0331C26.5361 19.3282 27.8012 18.0237 29.5062 18.0029C29.6637 18.001 29.8282 18 30 18C30.1718 18 30.3363 18.001 30.4938 18.0029C32.1988 18.0237 33.4639 19.3282 33.4922 21.0331C33.4972 21.33 33.5 21.652 33.5 22C33.5 22.348 33.4972 22.67 33.4922 22.9669C33.4639 24.6718 32.1988 25.9763 30.4938 25.9971C30.3363 25.999 30.1718 26 30 26C29.8282 26 29.6637 25.999 29.5062 25.9971C27.8012 25.9763 26.5361 24.6718 26.5078 22.9669C26.5028 22.67 26.5 22.348 26.5 22C26.5 21.652 26.5028 21.33 26.5078 21.0331Z"></path><path fill="currentColor" fill-rule="evenodd" d="M8.1357 2.04389C11.4073 1.77808 16.5986 1.5 24 1.5C31.4014 1.5 36.5927 1.77808 39.8643 2.04389C43.1521 2.31102 45.689 4.84784 45.9561 8.13569C46.2219 11.4073 46.5 16.5986 46.5 24C46.5 31.4014 46.2219 36.5927 45.9561 39.8643C45.689 43.1522 43.1521 45.689 39.8643 45.9561C36.5927 46.2219 31.4014 46.5 24 46.5C16.5986 46.5 11.4073 46.2219 8.13571 45.9561C4.84785 45.689 2.31102 43.1522 2.04389 39.8643C1.77808 36.5927 1.5 31.4014 1.5 24C1.5 16.5986 1.77808 11.4073 2.04389 8.13571C2.31102 4.84786 4.84784 2.31103 8.1357 2.04389ZM8.5 22.5C8.5 14.7198 15.4904 8.5 24 8.5C32.5096 8.5 39.5 14.7198 39.5 22.5C39.5 27.0267 37.1241 31.0356 33.4672 33.5867C33.447 34.3215 33.4189 34.9501 33.3867 35.4858C33.2679 37.4654 31.9209 38.9957 29.9196 39.2232C29.6387 39.2552 29.3327 39.2859 29 39.3145V35C29 34.1716 28.3284 33.5 27.5 33.5C26.6716 33.5 26 34.1716 26 35V39.4747C25.3861 39.4909 24.7207 39.5 24 39.5C23.2793 39.5 22.6139 39.4909 22 39.4747V35C22 34.1716 21.3284 33.5 20.5 33.5C19.6716 33.5 19 34.1716 19 35V39.3145C18.6673 39.2859 18.3613 39.2552 18.0804 39.2232C16.0791 38.9957 14.7321 37.4654 14.6133 35.4858C14.5811 34.9501 14.553 34.3215 14.5328 33.5867C10.8759 31.0356 8.5 27.0267 8.5 22.5Z" clip-rule="evenodd"></path></svg>