<svg xmlns="http://www.w3.org/2000/svg" fill="none" viewBox="0 0 48 48"><path fill="currentColor" d="M44.5734 4.8701C44.5734 2.94249 43.0103 1.36615 41.0502 1.49794C36.1248 1.82911 25.886 3.02124 16.0861 7.32645C14.1683 8.16897 13.0171 10.0973 13.0171 12.1599V27.9537C12.3308 27.7953 11.6164 27.7117 10.8829 27.7117C5.66042 27.7117 1.42676 31.9454 1.42676 37.1679C1.42676 42.3904 5.66042 46.624 10.8829 46.624C15.8765 46.624 19.9658 42.7536 20.3149 37.8487C20.3306 37.8002 20.3391 37.7484 20.3391 37.6947V18.6517C27.0131 16.3165 32.9724 15.1813 37.2514 14.6299V22.6853C36.5651 22.527 35.8507 22.4434 35.1172 22.4434C29.8947 22.4434 25.6611 26.6771 25.6611 31.8996C25.6611 37.1221 29.8947 41.3557 35.1172 41.3557C40.1109 41.3557 44.2002 37.4852 44.5492 32.5802C44.5649 32.5317 44.5734 32.48 44.5734 32.4263L44.5734 4.8701Z"></path></svg>