<svg xmlns="http://www.w3.org/2000/svg" fill="none" viewBox="0 0 48 48"><path fill="currentColor" d="M35.3265 7.1433C35.3541 6.70339 35.3799 6.22546 35.4028 5.70847C32.4286 5.58901 28.6518 5.5 24 5.5C19.3482 5.5 15.5714 5.58901 12.5972 5.70847C12.6201 6.22546 12.6459 6.70339 12.6735 7.1433C12.7839 8.90551 14.1307 10.2225 15.9467 10.3161C17.8833 10.416 20.5408 10.5 24 10.5C27.4592 10.5 30.1167 10.416 32.0533 10.3161C33.8693 10.2225 35.2161 8.90551 35.3265 7.1433Z"></path><path fill="currentColor" d="M16.1404 20.5C14.608 20.5 13.601 21.4465 13.5372 22.6056C13.514 23.0275 13.5 23.4923 13.5 24C13.5 24.5077 13.514 24.9725 13.5372 25.3944C13.601 26.5536 14.608 27.5 16.1404 27.5H17.4789C18.1256 26.4901 18.5 25.2906 18.5 24.0007C18.5 22.7106 18.1254 21.5108 17.4784 20.5007L17.4775 20.5L16.1404 20.5Z"></path><path fill="currentColor" d="M21.5 24.0007C21.5 22.7653 21.2636 21.5838 20.8338 20.5L27.1309 20.5C26.723 21.5859 26.5 22.7677 26.5 24.0007C26.5 25.2332 26.7229 26.4145 27.1303 27.5L20.8343 27.5C21.2638 26.4166 21.5 25.2356 21.5 24.0007Z"></path><path fill="currentColor" d="M30.4438 20.5007L30.4448 20.5H31.8596C33.392 20.5 34.399 21.4464 34.4628 22.6056C34.486 23.0275 34.5 23.4923 34.5 24C34.5 24.5077 34.486 24.9725 34.4628 25.3944C34.399 26.5536 33.392 27.5 31.8596 27.5H30.4434C29.8487 26.4946 29.5 25.296 29.5 24.0007C29.5 22.7051 29.8489 21.5063 30.4438 20.5007Z"></path><path fill="currentColor" fill-rule="evenodd" d="M39.8631 5.94098C39.4123 5.91125 38.9246 5.88132 38.3994 5.85181C38.3758 6.38279 38.3492 6.87548 38.3206 7.33087C38.1116 10.6672 35.4934 13.1428 32.2077 13.3122C30.2168 13.4148 27.5077 13.5 24 13.5C20.4923 13.5 17.7832 13.4148 15.7923 13.3122C12.5066 13.1428 9.88837 10.6672 9.67936 7.33087C9.65083 6.87547 9.62418 6.38279 9.60061 5.85181C9.07537 5.88132 8.58773 5.91125 8.13691 5.94097C4.88421 6.15543 2.2699 8.5902 1.97171 11.8908C1.72935 14.5733 1.5 18.5513 1.5 24C1.5 29.4487 1.72935 33.4267 1.9717 36.1091C2.2699 39.4098 4.88421 41.8446 8.13691 42.059C11.3991 42.2741 16.5892 42.5 24 42.5C31.4108 42.5 36.6009 42.2741 39.8631 42.059C43.1158 41.8446 45.7301 39.4098 46.0283 36.1092C46.2706 33.4267 46.5 29.4487 46.5 24C46.5 18.5513 46.2706 14.5734 46.0283 11.8909C45.7301 8.59021 43.1158 6.15543 39.8631 5.94098ZM10.5417 22.4407C10.7128 19.3335 13.4 17.5 16.1404 17.5L31.8596 17.5C34.6 17.5 37.2872 19.3335 37.4583 22.4407C37.4845 22.9174 37.5 23.4372 37.5 24C37.5 24.5628 37.4845 25.0826 37.4583 25.5593C37.2872 28.6665 34.6 30.5 31.8596 30.5L16.1404 30.5C13.4 30.5 10.7128 28.6665 10.5417 25.5593C10.5155 25.0826 10.5 24.5628 10.5 24C10.5 23.4372 10.5155 22.9174 10.5417 22.4407Z" clip-rule="evenodd"></path></svg>