<svg xmlns="http://www.w3.org/2000/svg" fill="none" viewBox="0 0 48 48"><path fill="currentColor" d="M24 1.5C28.9841 1.5 32.966 1.6261 36.0343 1.78963L28.0016 12.5H15.15L23.3995 1.50061C23.598 1.50021 23.7982 1.5 24 1.5Z"></path><path fill="currentColor" d="M8.1357 2.04389C10.7199 1.83393 14.5017 1.61632 19.6244 1.53414L11.4 12.5H1.76201C1.84819 10.78 1.94686 9.32997 2.04389 8.13571C2.31102 4.84786 4.84784 2.31103 8.1357 2.04389Z"></path><path fill="currentColor" fill-rule="evenodd" d="M1.5 24C1.5 20.7483 1.55367 17.9232 1.6364 15.5H46.3636C46.4463 17.9232 46.5 20.7483 46.5 24C46.5 31.4014 46.2219 36.5927 45.9561 39.8643C45.689 43.1522 43.1521 45.689 39.8643 45.9561C36.5927 46.2219 31.4014 46.5 24 46.5C16.5986 46.5 11.4073 46.2219 8.13571 45.9561C4.84785 45.689 2.31102 43.1522 2.04389 39.8643C1.77808 36.5927 1.5 31.4014 1.5 24ZM20.7582 22.7905C19.128 22.1598 17.6025 23.144 17.3526 24.874C17.1626 26.1893 17 27.9219 17 30C17 32.0781 17.1626 33.8107 17.3526 35.126C17.6025 36.856 19.128 37.8401 20.7582 37.2095C21.9021 36.767 23.4439 36.0767 25.4706 35C27.4085 33.9705 28.903 33.0588 30.0303 32.3052C31.7886 31.1298 31.7886 28.8702 30.0303 27.6948C28.903 26.9412 27.4085 26.0295 25.4706 25C23.4439 23.9233 21.9021 23.233 20.7582 22.7905Z" clip-rule="evenodd"></path><path fill="currentColor" d="M46.238 12.5C46.1518 10.78 46.0531 9.32996 45.9561 8.13569C45.689 4.84784 43.1521 2.31102 39.8643 2.04389L39.609 2.02343L31.7516 12.5H46.238Z"></path></svg>