<svg xmlns="http://www.w3.org/2000/svg" fill="none" viewBox="0 0 48 48"><path fill="currentColor" fill-rule="evenodd" d="M8.1357 2.04389C11.4073 1.77808 16.5986 1.5 24 1.5C31.4014 1.5 36.5927 1.77808 39.8643 2.04389C43.1521 2.31102 45.689 4.84784 45.9561 8.13569C46.2219 11.4073 46.5 16.5986 46.5 24C46.5 31.4014 46.2219 36.5927 45.9561 39.8643C45.689 43.1522 43.1521 45.689 39.8643 45.9561C36.5927 46.2219 31.4014 46.5 24 46.5C16.5986 46.5 11.4073 46.2219 8.13571 45.9561C4.84785 45.689 2.31102 43.1522 2.04389 39.8643C1.77808 36.5927 1.5 31.4014 1.5 24C1.5 16.5986 1.77808 11.4073 2.04389 8.13571C2.31102 4.84786 4.84784 2.31103 8.1357 2.04389ZM23.1011 9.07934C21.3889 8.89657 20.0712 10.424 20.2345 12.1381L21.4645 25.0512C20.7789 24.8323 20.0483 24.7141 19.29 24.7141C15.3458 24.7141 12.1484 27.9115 12.1484 31.8557C12.1484 35.7999 15.3458 38.9973 19.29 38.9973C23.1145 38.9973 26.2368 35.9911 26.4229 32.2128H26.4317L26.4271 32.1141C26.4301 32.0284 26.4317 31.9422 26.4317 31.8557C26.4317 31.5411 26.4113 31.2312 26.3719 30.9274L25.777 18.1388C25.7468 17.4886 26.3352 16.9839 26.9587 17.171C28.8702 17.7447 31.1328 18.8377 33.3605 20.6789C35.0368 22.0644 37.656 20.9096 36.6925 18.9599C34.4686 14.4595 30.4223 9.86085 23.1011 9.07934Z" clip-rule="evenodd"></path></svg>