<svg xmlns="http://www.w3.org/2000/svg" fill="none" viewBox="0 0 48 48"><path fill="currentColor" fill-rule="evenodd" d="M7.33205 5.96074C10.353 5.73471 15.5275 5.5 24 5.5C32.4725 5.5 37.6471 5.73471 40.668 5.96074C43.6014 6.18023 45.8927 8.32548 46.1699 11.3073C46.2926 12.6275 46.4116 14.3522 46.4974 16.5745C46.5625 18.261 45.4215 19.4905 44.3511 20.1111C42.9982 20.8954 42.0992 22.3463 42.0992 24C42.0992 25.6537 42.9982 27.1046 44.3511 27.8889C45.4215 28.5095 46.5625 29.739 46.4974 31.4255C46.4116 33.6478 46.2926 35.3725 46.1699 36.6927C45.8928 39.6745 43.6014 41.8198 40.668 42.0393C37.6471 42.2653 32.4725 42.5 24 42.5C15.5275 42.5 10.353 42.2653 7.33204 42.0393C4.3986 41.8198 2.10729 39.6745 1.83015 36.6927C1.70746 35.3725 1.58842 33.6477 1.50266 31.4254C1.43758 29.7389 2.57841 28.5094 3.64879 27.8888C5.00163 27.1045 5.90051 25.6536 5.90051 24C5.90051 22.3464 5.00163 20.8955 3.64879 20.1112C2.57841 19.4906 1.43758 18.2611 1.50266 16.5746C1.58842 14.3523 1.70746 12.6275 1.83015 11.3073C2.10729 8.32548 4.3986 6.18023 7.33205 5.96074ZM25.3315 15.5672C24.7718 14.4881 23.2282 14.4881 22.6685 15.5672L20.7244 19.3153L16.5919 20.129C15.4495 20.3539 14.9878 21.7379 15.7662 22.6036L18.7 25.8664L18.162 30.2259C18.0155 31.4134 19.25 32.2861 20.3206 31.7517L24 29.9153L27.6794 31.7517C28.75 32.2861 29.9845 31.4134 29.838 30.2259L29.3 25.8664L32.2338 22.6036C33.0122 21.7379 32.5505 20.3539 31.4081 20.129L27.2756 19.3153L25.3315 15.5672Z" clip-rule="evenodd"></path></svg>