<svg xmlns="http://www.w3.org/2000/svg" fill="none" viewBox="0 0 48 48"><path fill="currentColor" fill-rule="evenodd" d="M46.5 24C46.5 31.4014 46.2219 36.5927 45.9561 39.8643C45.689 43.1521 43.1522 45.689 39.8643 45.9561C36.5927 46.2219 31.4014 46.5 24 46.5C16.5986 46.5 11.4073 46.2219 8.13569 45.9561C4.84784 45.689 2.31101 43.1521 2.04389 39.8643C1.77807 36.5926 1.5 31.4014 1.5 24C1.5 16.5985 1.77808 11.4073 2.0439 8.13569C2.31103 4.84784 4.84786 2.31101 8.13571 2.04388C11.4073 1.77807 16.5986 1.5 24 1.5C31.4015 1.5 36.5927 1.77808 39.8643 2.0439C43.1522 2.31103 45.689 4.84786 45.9561 8.13571C46.2219 11.4073 46.5 16.5986 46.5 24ZM13 18.5C12.7034 18.5 12.4244 18.5125 12.1643 18.5337C11.3586 18.5994 10.5994 19.3673 10.5698 20.7268C10.534 22.3703 10.5 24.5706 10.5 27C10.5 29.4295 10.534 31.6297 10.5698 33.2732C10.5994 34.6327 11.3586 35.4006 12.1643 35.4663C12.4244 35.4875 12.7034 35.5 13 35.5C13.2966 35.5 13.5756 35.4875 13.8357 35.4663C14.6414 35.4006 15.4006 34.6327 15.4302 33.2732C15.466 31.6297 15.5 29.4295 15.5 27C15.5 24.5706 15.466 22.3703 15.4302 20.7268C15.4006 19.3673 14.6414 18.5994 13.8357 18.5337C13.5756 18.5125 13.2966 18.5 13 18.5ZM19.4851 35.0612C19.0256 35.0202 18.5877 34.9792 18.175 34.9392C18.3332 34.413 18.4179 33.869 18.4295 33.3386C18.4657 31.6791 18.5 29.4563 18.5 27C18.5 24.5437 18.4657 22.3209 18.4295 20.6614C18.4182 20.1425 18.3368 19.6105 18.1851 19.0949C18.1989 19.0517 18.2107 19.0076 18.2207 18.9627C18.7272 16.668 19.6773 13.9077 20.4065 11.949C20.7422 11.0472 21.5715 10.5061 22.4516 10.5581C22.9288 10.5864 23.4335 10.6274 23.9325 10.6862C25.5284 10.8743 26.6513 12.2751 26.6701 14.3646C26.6797 15.4213 26.6429 16.4378 26.5919 17.3042C26.5664 17.7386 26.7308 18.1628 27.0425 18.4665C27.3542 18.7703 27.7824 18.9237 28.2161 18.8869C30.0389 18.7323 31.829 18.6009 33.4771 18.503C35.7019 18.3707 37.4821 20.0075 37.4973 22.1418C37.5179 25.0142 37.3249 28.587 36.5328 31.7825C35.9562 34.1087 33.6689 35.6353 30.9198 35.6318C26.8377 35.6265 22.656 35.3441 19.4851 35.0612Z" clip-rule="evenodd"></path></svg>