<svg xmlns="http://www.w3.org/2000/svg" fill="none" viewBox="0 0 48 48"><path fill="currentColor" fill-rule="evenodd" d="M45.9561 39.8643C46.2219 36.5927 46.5 31.4014 46.5 24C46.5 16.5986 46.2219 11.4073 45.9561 8.13571C45.689 4.84786 43.1522 2.31103 39.8643 2.0439C36.5927 1.77808 31.4015 1.5 24 1.5C16.5986 1.5 11.4073 1.77807 8.13571 2.04388C4.84786 2.31101 2.31103 4.84784 2.0439 8.13569C1.77808 11.4073 1.5 16.5985 1.5 24C1.5 31.4014 1.77807 36.5926 2.04389 39.8643C2.31101 43.1521 4.84784 45.689 8.13569 45.9561C11.4073 46.2219 16.5986 46.5 24 46.5C31.4014 46.5 36.5927 46.2219 39.8643 45.9561C43.1522 45.689 45.689 43.1521 45.9561 39.8643ZM25.7754 12.4229C25.0291 10.9841 22.9709 10.9841 22.2246 12.4229L19.4142 17.8414L13.4558 19.0146C11.9327 19.3145 11.317 21.1598 12.355 22.3141L16.58 27.013L15.804 33.3012C15.6086 34.8845 17.2547 36.0481 18.6821 35.3356L24 32.6814L29.3179 35.3356C30.7453 36.0481 32.3914 34.8845 32.196 33.3012L31.42 27.013L35.645 22.3141C36.683 21.1598 36.0673 19.3145 34.5442 19.0146L28.5858 17.8414L25.7754 12.4229Z" clip-rule="evenodd"></path></svg>