<svg xmlns="http://www.w3.org/2000/svg" fill="none" viewBox="0 0 48 48"><path fill="currentColor" fill-rule="evenodd" d="M45.9561 39.8643C46.2219 36.5927 46.5 31.4014 46.5 24C46.5 16.5986 46.2219 11.4073 45.9561 8.13571C45.689 4.84786 43.1522 2.31103 39.8643 2.0439C36.5927 1.77808 31.4015 1.5 24 1.5C16.5986 1.5 11.4073 1.77807 8.13571 2.04388C4.84786 2.31101 2.31103 4.84784 2.0439 8.13569C1.77808 11.4073 1.5 16.5985 1.5 24C1.5 31.4014 1.77807 36.5926 2.04389 39.8643C2.31101 43.1521 4.84784 45.689 8.13569 45.9561C11.4073 46.2219 16.5986 46.5 24 46.5C31.4014 46.5 36.5927 46.2219 39.8643 45.9561C43.1522 45.689 45.689 43.1521 45.9561 39.8643ZM35.778 20.4293C36.2898 22.6628 35.907 25.0651 34.7304 27.004C32.7269 30.3107 29.5296 32.9053 26.3751 35.2522C24.9682 36.2988 23.0318 36.2988 21.6249 35.2522C18.4704 32.9053 15.2731 30.3107 13.2697 27.004C12.093 25.0651 11.7102 22.6628 12.222 20.4293C13.3154 15.3414 19.3702 13.2624 23.1418 16.672C23.3536 16.8622 23.5488 17.0731 23.7493 17.2896C23.8315 17.3784 23.9146 17.4681 24 17.5578C24.0855 17.4681 24.1685 17.3784 24.2507 17.2896C24.4512 17.0731 24.6464 16.8622 24.8582 16.672C28.6298 13.2624 34.6846 15.3414 35.778 20.4293Z" clip-rule="evenodd"></path></svg>