<svg xmlns="http://www.w3.org/2000/svg" fill="none" viewBox="0 0 48 48"><path fill="currentColor" d="M10.1877 37.5546C8.48612 40.5101 7.50104 42.9289 6.98736 44.3824C6.61006 45.4499 7.53207 46.4183 8.58665 46.2425L12.238 45.6339C12.6424 45.5665 13.0567 45.6676 13.3846 45.9135L15.5901 47.5676C16.4071 48.1804 17.5835 47.8217 17.9346 46.8717C18.3069 45.8645 18.9215 44.2575 19.8377 42.0212C19.401 41.8033 18.9776 41.5491 18.5718 41.2585C15.2787 41.5819 12.1116 40.1323 10.1877 37.5546Z"></path><path fill="currentColor" d="M28.1623 42.0212C28.599 41.8033 29.0224 41.5491 29.4282 41.2585C32.7213 41.5819 35.8884 40.1323 37.8123 37.5546C39.5139 40.5101 40.499 42.9289 41.0126 44.3824C41.3899 45.4499 40.4679 46.4183 39.4133 46.2425L35.762 45.6339C35.3576 45.5665 34.9433 45.6676 34.6154 45.9135L32.4099 47.5676C31.5929 48.1804 30.4165 47.8217 30.0654 46.8717C29.6931 45.8645 29.0785 44.2575 28.1623 42.0212Z"></path><path fill="currentColor" fill-rule="evenodd" d="M19.6904 3.03153C22.2006 0.989492 25.7994 0.989492 28.3096 3.03153L28.7243 3.36883L29.252 3.28404C32.4469 2.7707 35.5636 4.57008 36.7165 7.59366L36.9069 8.09309L37.4063 8.28352C40.4299 9.43643 42.2293 12.5531 41.716 15.748L41.6312 16.2757L41.9685 16.6904C44.0105 19.2006 44.0105 22.7994 41.9685 25.3096L41.6312 25.7243L41.716 26.252C42.2293 29.4469 40.4299 32.5636 37.4063 33.7165L36.9069 33.9069L36.7165 34.4063C35.5636 37.4299 32.4469 39.2293 29.252 38.716L28.7243 38.6312L28.3096 38.9685C25.7994 41.0105 22.2006 41.0105 19.6904 38.9685L19.2757 38.6312L18.748 38.716C15.5531 39.2293 12.4364 37.4299 11.2835 34.4063L11.0931 33.9069L10.5937 33.7165C7.57008 32.5636 5.7707 29.4469 6.28404 26.252L6.36883 25.7243L6.03153 25.3096C3.98949 22.7994 3.98949 19.2006 6.03153 16.6904L6.36883 16.2757L6.28404 15.748C5.7707 12.5531 7.57008 9.43644 10.5937 8.28352L11.0931 8.09309L11.2835 7.59365C12.4364 4.57008 15.5531 2.7707 18.748 3.28404L19.2757 3.36883L19.6904 3.03153ZM25.7754 12.4229C25.0291 10.984 22.9709 10.984 22.2246 12.4229L20.3969 15.9468L16.4558 16.7228C14.9327 17.0227 14.317 18.868 15.355 20.0223L18.17 23.153L17.6581 27.3012C17.4627 28.8845 19.1088 30.0481 20.5362 29.3356L24 27.6068L27.4638 29.3356C28.8912 30.0481 30.5373 28.8845 30.3419 27.3012L29.83 23.153L32.645 20.0223C33.683 18.868 33.0673 17.0227 31.5442 16.7228L27.6031 15.9468L25.7754 12.4229Z" clip-rule="evenodd"></path></svg>