<svg xmlns="http://www.w3.org/2000/svg" fill="none" viewBox="0 0 48 48"><path fill="currentColor" fill-rule="evenodd" d="M44.4316 18.2978C44.4748 20.0141 44.4998 21.9103 44.4998 24.0001C44.4998 32.1096 44.1229 37.3068 43.7735 40.3837C43.4442 43.2828 41.2416 45.4721 38.3535 45.809C35.4747 46.1449 30.8185 46.5001 23.9999 46.5001C17.1813 46.5001 12.5251 46.1449 9.64634 45.809C6.7582 45.4721 4.55559 43.2828 4.22635 40.3837C3.87691 37.3068 3.5 32.1096 3.5 24.0001C3.5 15.8905 3.87691 10.6933 4.22635 7.61641C4.55559 4.71735 6.75821 2.52802 9.64634 2.19108C12.5251 1.85523 17.1813 1.5 23.9999 1.5C25.3091 1.5 26.5385 1.5131 27.6909 1.53663C27.6883 2.27795 27.6885 3.22804 27.6971 4.26667C27.7166 6.62972 27.7801 9.51661 27.9636 11.431C28.2977 14.9144 30.9923 17.6771 34.4573 18.0096C36.3698 18.1931 39.2792 18.2615 41.6654 18.2858C42.7178 18.2965 43.681 18.2987 44.4316 18.2978ZM20 35C20 36.1046 20.8954 37 22 37H33C34.1046 37 35 36.1046 35 35C35 33.8954 34.1046 33 33 33H22C20.8954 33 20 33.8954 20 35ZM22 28C20.8954 28 20 27.1046 20 26C20 24.8954 20.8954 24 22 24H29C30.1046 24 31 24.8954 31 26C31 27.1046 30.1046 28 29 28H22ZM13 35C13 36.1046 13.8954 37 15 37H16C17.1046 37 18 36.1046 18 35C18 33.8954 17.1046 33 16 33H15C13.8954 33 13 33.8954 13 35ZM15 28C13.8954 28 13 27.1046 13 26C13 24.8954 13.8954 24 15 24H16C17.1046 24 18 24.8954 18 26C18 27.1046 17.1046 28 16 28H15Z" clip-rule="evenodd"></path><path fill="currentColor" d="M30.9499 11.1446C30.7804 9.37676 30.7165 6.61097 30.697 4.24189C30.69 3.40624 30.6887 2.6281 30.6898 1.97224C32.1967 2.60712 34.8741 4.09313 38.3519 7.48475C42.1015 11.1415 43.5847 13.8959 44.1512 15.298C43.4558 15.298 42.6096 15.2952 41.696 15.2859C39.3028 15.2616 36.5125 15.193 34.7438 15.0233C32.7497 14.832 31.1507 13.2385 30.9499 11.1446Z"></path></svg>