<svg xmlns="http://www.w3.org/2000/svg" fill="none" viewBox="0 0 48 48"><path fill="currentColor" d="M9.64634 2.19108C10.9106 2.04359 12.5176 1.89236 14.5 1.76912V6.5H13C12.1716 6.5 11.5 7.17157 11.5 8C11.5 8.82843 12.1716 9.5 13 9.5H14.5V14.5H13C12.1716 14.5 11.5 15.1716 11.5 16C11.5 16.8284 12.1716 17.5 13 17.5H14.5V22.5H13C12.1716 22.5 11.5 23.1716 11.5 24C11.5 24.8284 12.1716 25.5 13 25.5H14.5V30.5H13C12.1716 30.5 11.5 31.1716 11.5 32C11.5 32.8284 12.1716 33.5 13 33.5H14.5V38.5H13C12.1716 38.5 11.5 39.1716 11.5 40C11.5 40.8284 12.1716 41.5 13 41.5H14.5V46.231C12.5176 46.1077 10.9106 45.9565 9.64634 45.809C6.7582 45.4721 4.55559 43.2828 4.22635 40.3837C3.87691 37.3068 3.5 32.1096 3.5 24.0001C3.5 15.8905 3.87691 10.6933 4.22635 7.61641C4.55559 4.71735 6.75821 2.52802 9.64634 2.19108Z"></path><path fill="currentColor" d="M17.5 41.5V46.3811C19.4021 46.4547 21.5629 46.5001 23.9999 46.5001C30.8185 46.5001 35.4747 46.1449 38.3535 45.809C41.2416 45.4721 43.4442 43.2828 43.7735 40.3837C44.1229 37.3068 44.4998 32.1096 44.4998 24.0001C44.4998 21.9103 44.4748 20.0141 44.4316 18.2978C43.681 18.2987 42.7178 18.2965 41.6654 18.2858C39.2792 18.2615 36.3698 18.1931 34.4573 18.0096C30.9923 17.6771 28.2977 14.9144 27.9636 11.431C27.7801 9.51661 27.7166 6.62972 27.6971 4.26667C27.6885 3.22804 27.6883 2.27795 27.6909 1.53663C26.5385 1.5131 25.3091 1.5 23.9999 1.5C21.5629 1.5 19.4021 1.54538 17.5 1.61903V6.5H19C19.8284 6.5 20.5 7.17157 20.5 8C20.5 8.82843 19.8284 9.5 19 9.5H17.5V14.5H19C19.8284 14.5 20.5 15.1716 20.5 16C20.5 16.8284 19.8284 17.5 19 17.5H17.5V22.5H19C19.8284 22.5 20.5 23.1716 20.5 24C20.5 24.8284 19.8284 25.5 19 25.5H17.5V30.5H19C19.8284 30.5 20.5 31.1716 20.5 32C20.5 32.8284 19.8284 33.5 19 33.5H17.5V38.5H19C19.8284 38.5 20.5 39.1716 20.5 40C20.5 40.8284 19.8284 41.5 19 41.5H17.5Z"></path><path fill="currentColor" d="M30.9499 11.1446C30.7804 9.37676 30.7165 6.61097 30.697 4.24189C30.69 3.40624 30.6887 2.6281 30.6898 1.97224C32.1967 2.60712 34.8741 4.09313 38.3519 7.48475C42.1015 11.1415 43.5847 13.8959 44.1512 15.298C43.4558 15.298 42.6096 15.2952 41.696 15.2859C39.3028 15.2616 36.5125 15.193 34.7438 15.0233C32.7497 14.832 31.1507 13.2385 30.9499 11.1446Z"></path></svg>