<svg xmlns="http://www.w3.org/2000/svg" fill="none" viewBox="0 0 48 48"><path fill="currentColor" fill-rule="evenodd" d="M23.8698 2.28767C24.5867 1.64654 25.6139 1.31006 26.7081 1.61431C27.5515 1.84885 28.3722 2.19436 29.1506 2.64944C32.3082 4.49569 36.615 7.47279 40.1467 11.6027C43.6871 15.7428 46.502 21.1088 46.502 27.677C46.502 34.1032 43.9493 38.8915 39.7478 42.0269C35.6063 45.1175 30.0033 46.5021 24.0001 46.5021C17.9968 46.5021 12.3939 45.1175 8.25237 42.0269C4.05089 38.8915 1.49817 34.1032 1.49817 27.677C1.49817 18.0789 7.49294 11.0674 13.041 6.62589C15.1142 4.96613 17.8266 6.26632 18.5734 8.36188C19.0859 9.79988 19.6962 10.9454 20.3635 11.6058C20.4159 11.6577 20.4753 11.6819 20.5723 11.6686C20.6851 11.6532 20.8271 11.5826 20.9325 11.4393C22.0755 9.8853 22.578 7.33393 22.7125 4.75451C22.7619 3.80852 23.1768 2.90731 23.8698 2.28767ZM24.7268 23.3319C24.2659 23.1054 23.7341 23.1054 23.2732 23.3319C21.3017 24.3006 16 27.39 16 32.6C16 37.0183 19.5817 39 24 39C28.4183 39 32 37.0183 32 32.6C32 27.39 26.6983 24.3006 24.7268 23.3319Z" clip-rule="evenodd"></path></svg>