<svg xmlns="http://www.w3.org/2000/svg" fill="none" viewBox="0 0 48 48"><path fill="currentColor" fill-rule="evenodd" d="M24 46.5C11.5736 46.5 1.5 36.4264 1.5 24C1.5 11.5736 11.5736 1.5 24 1.5C36.4264 1.5 46.5 11.5736 46.5 24C46.5 36.4264 36.4264 46.5 24 46.5ZM28.4075 10.1418C29.8618 10.2205 30.8874 11.5557 30.6317 12.9895C30.1718 15.5695 29.6687 18.2123 29.1053 20.5319C30.5538 20.5052 31.834 20.5038 32.9396 20.5169C35.2194 20.5438 36.4112 23.0085 35.0641 24.8479C32.369 28.5278 28.1074 34.0978 23.5165 39.135C22.2693 40.5034 20.09 39.5015 20.2489 37.6569C20.585 33.7575 20.9223 30.2042 21.2368 27.9043C18.4997 27.9613 16.1058 27.8627 14.4413 27.7552C13.0824 27.6675 12.1157 26.4704 12.3311 25.1258C12.7824 22.3094 13.7709 17.3606 15.7418 12.0102C16.1249 10.9703 17.0769 10.2499 18.1822 10.1703C22.0284 9.89329 25.917 10.007 28.4075 10.1418Z" clip-rule="evenodd"></path></svg>