<svg xmlns="http://www.w3.org/2000/svg" fill="none" viewBox="0 0 48 48"><path fill="currentColor" d="M9.30641 39.3079C9.10286 39.2808 8.81749 39.2693 8.4591 39.2859C8.35709 39.2906 8.22301 39.2991 8.06356 39.3091C7.24418 39.3608 5.75509 39.4547 4.50781 39.3011C4.69209 43.0393 8.29161 45.1834 11.4604 45.2999C14.2852 45.4038 18.5141 45.4997 24.5004 45.4997C30.4867 45.4997 34.7156 45.4038 37.5405 45.2999C40.7602 45.1815 44.4247 42.9698 44.4993 39.1195C44.1307 39.2097 43.791 39.2642 43.5031 39.2999C42.2539 39.4552 40.7592 39.3609 39.9377 39.3091C39.7783 39.2991 39.6442 39.2906 39.5422 39.2859C39.1838 39.2693 38.8984 39.2808 38.6949 39.3079C38.6234 39.3174 38.5761 39.327 38.5496 39.3332C34.186 41.5678 29.4931 41.5551 25.1332 39.2952C24.2659 38.8456 23.7354 38.8456 22.8681 39.2952C18.5082 41.5551 13.8153 41.5678 9.45165 39.3332C9.42518 39.327 9.37791 39.3174 9.30641 39.3079Z"></path><path fill="currentColor" d="M5.49584 32.8125C7.91861 32.8883 13.297 32.9999 24 32.9999C34.3146 32.9999 39.6838 32.8963 42.2278 32.8209C43.1338 32.7941 44.3811 32.6409 45.5875 32.0693C45.6554 32.1161 45.7253 32.1692 45.7919 32.2281C46.0957 32.4971 46.594 33.1059 46.4865 34.0193C46.3748 34.967 45.8803 35.6886 45.1823 36.1526C44.5508 36.5724 43.817 36.7419 43.195 36.8193C42.212 36.9414 41.0539 36.8712 40.1995 36.8193C40.0005 36.8073 39.8179 36.7962 39.6579 36.7888C38.6836 36.7437 37.9124 36.8482 37.4731 37.0758C33.81 38.9746 29.9469 38.9746 26.2838 37.0758C24.6952 36.2524 23.3065 36.2524 21.7178 37.0758C18.0547 38.9746 14.1916 38.9746 10.5285 37.0758C10.0893 36.8482 9.31798 36.7437 8.34367 36.7888C8.18365 36.7962 8.00108 36.8073 7.80204 36.8194C6.94768 36.8712 5.78963 36.9414 4.8067 36.8193C4.18467 36.742 3.45089 36.5724 2.81937 36.1526C2.1214 35.6887 1.62683 34.9671 1.51517 34.0194C1.39141 32.9688 2.0571 32.3361 2.34007 32.1212C2.34285 32.1191 2.34563 32.117 2.34843 32.1149C2.36505 32.1227 2.38165 32.1304 2.39822 32.138C3.53964 32.6614 4.69749 32.7875 5.49584 32.8125Z"></path><path fill="currentColor" d="M39.4988 26.3846C36.7175 26.6895 32.0398 27.0004 24.5 27.0004C16.9602 27.0004 12.2825 26.6895 9.50121 26.3846C7.16428 26.1284 5.02672 24.9235 3.66963 23.0381C3.59257 23.0679 3.51603 23.1001 3.44026 23.1348C2.68736 23.4801 1.93778 24.1212 1.66012 25.1863C1.55755 25.5797 1.5 26.017 1.5 26.5004C1.5 26.9839 1.55755 27.4212 1.66012 27.8146C1.93777 28.8796 2.68735 29.5208 3.44026 29.866C4.1554 30.194 4.93937 30.2944 5.57407 30.3142C7.96139 30.389 13.3116 30.5004 24 30.5004C34.3003 30.5004 39.6429 30.3969 42.1537 30.3225C42.8911 30.3007 43.7807 30.1727 44.5707 29.7848C45.402 29.3765 46.1992 28.6292 46.4182 27.4305C46.4711 27.1408 46.5 26.8308 46.5 26.5004C46.5 26.17 46.4711 25.8601 46.4182 25.5704C46.2376 24.5819 45.6639 23.9004 45.0021 23.4628C43.6417 25.1041 41.6551 26.1482 39.4988 26.3846Z"></path><path fill="currentColor" fill-rule="evenodd" d="M17.6179 2.61292C19.5984 2.54338 21.8828 2.5 24.5 2.5C27.1173 2.5 29.4016 2.54338 31.3821 2.61292C38.6408 2.86781 44.5 8.50641 44.5 15.875C44.5 17.6017 44.3065 19.093 44.0942 20.2106C43.7264 22.1472 42.1831 23.5209 40.286 23.7716C37.8463 24.094 33.0757 24.5 24.5 24.5C15.9243 24.5 11.1537 24.094 8.71399 23.7716C6.81691 23.5209 5.27357 22.1472 4.90579 20.2106C4.69354 19.093 4.5 17.6018 4.5 15.875C4.5 8.50641 10.3592 2.86781 17.6179 2.61292ZM37 13.5C36.1716 13.5 35.5 14.1716 35.5 15C35.5 15.8284 36.1716 16.5 37 16.5H37.5C38.3284 16.5 39 15.8284 39 15C39 14.1716 38.3284 13.5 37.5 13.5H37ZM29.5 11C29.5 10.1716 30.1716 9.5 31 9.5H31.5C32.3284 9.5 33 10.1716 33 11C33 11.8284 32.3284 12.5 31.5 12.5H31C30.1716 12.5 29.5 11.8284 29.5 11ZM30.5 16.5C31.3284 16.5 32 17.1716 32 18C32 18.8284 31.3284 19.5 30.5 19.5H30C29.1716 19.5 28.5 18.8284 28.5 18C28.5 17.1716 29.1716 16.5 30 16.5H30.5Z" clip-rule="evenodd"></path></svg>