<svg xmlns="http://www.w3.org/2000/svg" fill="none" viewBox="0 0 48 48"><path fill="currentColor" fill-rule="evenodd" d="M12.8196 46.2707C14.743 46.4085 17.1084 46.5 20 46.5C22.8916 46.5 25.257 46.4085 27.1804 46.2707C31.9013 45.9323 35.2206 42.7874 36.1581 38.5H37.6321C41.4368 38.5 45.1284 35.8478 45.4142 31.5779C45.4669 30.7905 45.5 29.9269 45.5 29C45.5 28.0731 45.4669 27.2095 45.4142 26.4221C45.1284 22.1522 41.4368 19.5 37.6321 19.5H35.9944C35.6089 17.7703 34.2552 16.4404 32.4167 16.168C30.2918 15.8532 26.4701 15.5 20 15.5C13.5299 15.5 9.70818 15.8532 7.58328 16.168C5.55976 16.4678 4.12349 18.0487 3.91911 20.0337C3.71788 21.9883 3.5 25.396 3.5 31C3.5 33.0913 3.53034 34.8629 3.57882 36.359C3.75213 41.708 7.34264 45.8781 12.8196 46.2707ZM36.3809 24.5C36.4523 26.2366 36.5 28.3779 36.5 31C36.5 31.8901 36.4945 32.7223 36.4845 33.5H37.6321C39.2929 33.5 40.3461 32.4275 40.4253 31.244C40.4711 30.56 40.5 29.808 40.5 29C40.5 28.192 40.4711 27.44 40.4253 26.756C40.3461 25.5725 39.2929 24.5 37.6321 24.5H36.3809Z" clip-rule="evenodd"></path><path fill="currentColor" fill-rule="evenodd" d="M25 1C23.8954 1 23 1.89543 23 3V10C23 11.1046 23.8954 12 25 12C26.1046 12 27 11.1046 27 10V3C27 1.89543 26.1046 1 25 1Z" clip-rule="evenodd"></path><path fill="currentColor" fill-rule="evenodd" d="M17 3C15.8954 3 15 3.89543 15 5V12C15 13.1046 15.8954 14 17 14C18.1046 14 19 13.1046 19 12V5C19 3.89543 18.1046 3 17 3Z" clip-rule="evenodd"></path></svg>