<svg xmlns="http://www.w3.org/2000/svg" fill="none" viewBox="0 0 48 48"><path fill="currentColor" fill-rule="evenodd" d="M16.8889 1.5C16.1218 1.5 15.5 2.12183 15.5 2.88889C15.5 6.92773 18.6459 10.2318 22.621 10.4845C22.5405 11.0885 22.5 11.7063 22.5 12.3324V12.4034C20.6042 11.8141 18.7099 11.5 16.9993 11.5C13.3762 11.5 9.73253 12.659 6.98286 15.264C4.21323 17.888 2.5 21.8377 2.5 27.1176C2.5 32.3729 4.19213 37.1609 6.81361 40.6635C9.41812 44.1434 13.0678 46.5 16.9993 46.5C19.5222 46.5 21.876 45.972 24 45.0405C26.124 45.972 28.4778 46.5 31.0007 46.5C34.9322 46.5 38.5819 44.1434 41.1864 40.6635C43.8079 37.1609 45.5 32.3729 45.5 27.1176C45.5 21.8377 43.7868 17.888 41.0171 15.264C38.2675 12.659 34.6238 11.5 31.0007 11.5C29.2901 11.5 27.3958 11.8141 25.5 12.4034V12.3324C25.5 10.0393 26.1792 8.05939 27.3049 6.68304C28.4091 5.33286 29.9873 4.5 32 4.5C32.8284 4.5 33.5 3.82843 33.5 3C33.5 2.17157 32.8284 1.5 32 1.5C29.0626 1.5 26.6409 2.75627 24.9826 4.78376C24.599 5.25278 24.2589 5.75942 23.9629 6.29712C22.8439 3.48654 20.0984 1.5 16.8889 1.5ZM31 16.5C30.1716 16.5 29.5 17.1716 29.5 18C29.5 18.8284 30.1716 19.5 31 19.5C32.5692 19.5 34.0529 20.0005 35.1979 21.0253C36.3334 22.0414 37.25 23.6756 37.5081 26.1553C37.5938 26.9793 38.3313 27.5777 39.1553 27.4919C39.9793 27.4062 40.5777 26.6687 40.4919 25.8447C40.1693 22.7445 38.974 20.3787 37.1986 18.7898C35.4329 17.2096 33.207 16.5 31 16.5Z" clip-rule="evenodd"></path></svg>