<svg xmlns="http://www.w3.org/2000/svg" fill="none" viewBox="0 0 48 48"><path fill="currentColor" fill-rule="evenodd" d="M45.2914 6.39754C45.8532 9.2809 46.5 14.6293 46.5 24C46.5 32.3599 46.213 37.4853 45.9333 40.498C45.6565 43.4798 43.3912 45.6886 40.4373 45.9629C37.5854 46.2276 32.9608 46.5 26 46.5C19.0392 46.5 14.4146 46.2276 11.5627 45.9629C8.60884 45.6886 6.34351 43.4798 6.06667 40.498C6.01242 39.9136 5.95789 39.2497 5.90523 38.4982C4.94624 38.4921 4.22276 38.4714 3.68033 38.4457C2.51929 38.3907 1.60599 37.5915 1.53585 36.3839C1.51413 36.0099 1.5 35.5539 1.5 35C1.5 34.4461 1.51413 33.9901 1.53585 33.6161C1.60599 32.4085 2.51929 31.6093 3.68033 31.5543C4.16153 31.5315 4.7852 31.5127 5.58937 31.5044C5.5577 30.2794 5.53311 28.9456 5.51782 27.4948C4.74808 27.4862 4.14716 27.4678 3.68033 27.4457C2.51929 27.3907 1.60599 26.5915 1.53585 25.3839C1.51413 25.0099 1.5 24.5539 1.5 24C1.5 23.4461 1.51413 22.9901 1.53585 22.6161C1.60599 21.4085 2.51929 20.6093 3.68033 20.5543C4.14716 20.5322 4.74808 20.5138 5.51782 20.5052C5.53311 19.0544 5.5577 17.7206 5.58937 16.4956C4.7852 16.4873 4.16153 16.4685 3.68033 16.4457C2.51929 16.3907 1.60599 15.5915 1.53585 14.3839C1.51413 14.0099 1.5 13.5539 1.5 13C1.5 12.4461 1.51413 11.9901 1.53585 11.6161C1.60599 10.4085 2.51929 9.60925 3.68033 9.55428C4.22276 9.52859 4.94624 9.50794 5.90523 9.50184C5.95789 8.75028 6.01242 8.0864 6.06667 7.50202C6.34351 4.52021 8.60884 2.3114 11.5628 2.03715C14.4146 1.77237 19.0392 1.5 26 1.5C33.4282 1.5 37.9416 1.81016 40.5113 2.09194C42.869 2.35046 44.8178 3.96699 45.2914 6.39754ZM22.7355 16.5599C23.3361 14.781 25.018 13.5 27 13.5C28.982 13.5 30.6639 14.781 31.2645 16.5599C31.5041 16.5205 31.7498 16.5 32 16.5C34.4853 16.5 36.5 18.5147 36.5 21C36.5 23.2326 34.8745 25.085 32.7421 25.439C32.3787 27.7533 32.0536 29.4665 31.8251 30.5785C31.5908 31.7188 30.5857 32.5 29.4398 32.5H24.5602C23.4143 32.5 22.4092 31.7188 22.1749 30.5785C21.9464 29.4665 21.6213 27.7533 21.2579 25.439C19.1255 25.085 17.5 23.2326 17.5 21C17.5 18.5147 19.5147 16.5 22 16.5C22.2502 16.5 22.4959 16.5205 22.7355 16.5599Z" clip-rule="evenodd"></path></svg>