<svg xmlns="http://www.w3.org/2000/svg" fill="none" viewBox="0 0 48 48"><path fill="currentColor" d="M32.5066 1.88878C31.8241 1.3821 31.0438 1.39479 30.4441 1.78717C29.8647 2.16627 29.5 2.86551 29.5 3.65731V43.0745C29.5 45.7249 32.2067 47.3185 34.6269 46.6527C35.9195 46.297 36.8459 45.5142 37.3919 44.4794C37.9325 43.4548 38.0854 42.2139 37.9037 40.9422L36.3359 29.9674C38.1085 29.5603 39.4863 29.036 40.469 28.5797C41.823 27.951 42.5187 26.5529 42.4553 25.1257C41.91 12.8568 36.4863 4.84358 32.5066 1.88878Z"></path><path fill="currentColor" d="M8.90406 1.65137C7.26788 1.65137 5.83752 2.78886 5.56048 4.4271C5.09825 7.16052 4.45088 11.9404 4.50295 17.0519C4.53189 19.8919 6.4329 22.4446 9.41669 23.1134C9.85147 23.2108 10.3088 23.301 10.7836 23.3786L8.94161 40.9233C8.66575 43.551 10.3021 46.1918 13.0258 46.5708C13.3776 46.6198 13.714 46.6517 14.0004 46.6517C14.2869 46.6517 14.6233 46.6198 14.9751 46.5708C17.6988 46.1918 19.3351 43.5509 19.0593 40.9233L17.2173 23.3787C17.6922 23.3011 18.1496 23.2109 18.5845 23.1134C21.5681 22.4446 23.469 19.892 23.4979 17.0522C23.55 11.94 22.9016 7.1595 22.4387 4.42615C22.1613 2.78835 20.7312 1.65137 19.0954 1.65137H18.8041C18.6676 1.65137 18.537 1.70721 18.4426 1.80593C18.3483 1.90466 18.2985 2.03766 18.3047 2.17407L18.7487 11.9432C18.7801 12.6329 18.2464 13.2174 17.5568 13.2487C16.8671 13.2801 16.2826 12.7464 16.2513 12.0568L15.8 2.12866C15.7879 1.86163 15.5678 1.65137 15.3005 1.65137H12.6995C12.4322 1.65137 12.2121 1.86163 12.2 2.12866L11.7487 12.0568C11.7174 12.7464 11.1329 13.2801 10.4432 13.2487C9.7536 13.2174 9.21994 12.6329 9.25129 11.9432L9.69534 2.17407C9.70154 2.03766 9.65169 1.90466 9.55735 1.80593C9.46301 1.70721 9.33241 1.65137 9.19586 1.65137H8.90406Z"></path></svg>