<svg xmlns="http://www.w3.org/2000/svg" fill="none" viewBox="0 0 48 48"><path fill="currentColor" fill-rule="evenodd" d="M24 38.5C16.504 38.5 11.2849 38.3231 8.03911 38.1572C4.88484 37.996 2.21286 35.7342 1.88016 32.4591C1.6738 30.4276 1.5 27.637 1.5 24C1.5 20.363 1.6738 17.5724 1.88016 15.5409C2.21286 12.2658 4.88484 10.004 8.03911 9.84277C11.2849 9.67691 16.504 9.5 24 9.5C31.496 9.5 36.7151 9.67692 39.9609 9.84277C43.1152 10.004 45.7871 12.2658 46.1198 15.5409C46.3262 17.5724 46.5 20.363 46.5 24C46.5 27.637 46.3262 30.4276 46.1198 32.4591C45.7871 35.7343 43.1152 37.9961 39.9609 38.1572C36.7151 38.3231 31.496 38.5 24 38.5ZM30.5 29C30.5 29.8284 29.8284 30.5 29 30.5H23C22.1716 30.5 21.5 29.8284 21.5 29C21.5 28.1716 22.1716 27.5 23 27.5H29C29.8284 27.5 30.5 28.1716 30.5 29ZM18 20.5C18.8284 20.5 19.5 19.8284 19.5 19C19.5 18.1716 18.8284 17.5 18 17.5H10C9.17157 17.5 8.5 18.1716 8.5 19C8.5 19.8284 9.17157 20.5 10 20.5H12.5V29C12.5 29.8284 13.1716 30.5 14 30.5C14.8284 30.5 15.5 29.8284 15.5 29L15.5 20.5H18Z" clip-rule="evenodd"></path></svg>