<svg xmlns="http://www.w3.org/2000/svg" fill="none" viewBox="0 0 48 48"><path fill="currentColor" fill-rule="evenodd" d="M24 38.5C16.504 38.5 11.2849 38.3231 8.03911 38.1572C4.88484 37.996 2.21286 35.7342 1.88016 32.4591C1.6738 30.4276 1.5 27.637 1.5 24C1.5 20.363 1.6738 17.5724 1.88016 15.5409C2.21286 12.2658 4.88484 10.004 8.03911 9.84277C11.2849 9.67691 16.504 9.5 24 9.5C31.496 9.5 36.7151 9.67692 39.9609 9.84277C43.1152 10.004 45.7871 12.2658 46.1198 15.5409C46.3262 17.5724 46.5 20.363 46.5 24C46.5 27.637 46.3262 30.4276 46.1198 32.4591C45.7871 35.7343 43.1152 37.9961 39.9609 38.1572C36.7151 38.3231 31.496 38.5 24 38.5ZM23.5 14.5V33.4995C17.2842 33.4926 12.8731 33.3587 10.0406 33.229C8.24513 33.1467 6.92728 31.9359 6.771 30.307C6.6207 28.7404 6.5 26.6556 6.5 23.9997C6.5 21.3438 6.6207 19.259 6.771 17.6925C6.92728 16.0636 8.24513 14.8527 10.0406 14.7705C12.8731 14.6407 17.2842 14.5069 23.5 14.5ZM29.9812 20.5L38.0194 20.5C39.6396 20.5 40.6288 22.3636 39.5975 23.6998C39.0441 24.4169 38.1608 25.5197 37.2681 26.455C36.8249 26.9192 36.3444 27.3794 35.8756 27.7346C35.641 27.9123 35.3777 28.0881 35.0974 28.2248C34.8328 28.3538 34.4487 28.5 34.0003 28.5C33.5518 28.5 33.1677 28.3538 32.9031 28.2248C32.6228 28.0881 32.3595 27.9123 32.1249 27.7346C31.6561 27.3794 31.1756 26.9192 30.7324 26.455C29.8398 25.5197 28.9564 24.4169 28.403 23.6998C27.3718 22.3636 28.361 20.5 29.9812 20.5Z" clip-rule="evenodd"></path></svg>