<svg xmlns="http://www.w3.org/2000/svg" fill="none" viewBox="0 0 48 48"><path fill="currentColor" fill-rule="evenodd" d="M22 32.5C14.9937 32.5 10.0759 32.3427 6.97289 32.1921C3.83232 32.0397 1.15665 29.7997 0.832394 26.5252C0.648962 24.6729 0.5 22.1874 0.5 19C0.5 15.8126 0.648963 13.3271 0.832396 11.4748C1.15665 8.20029 3.83232 5.96026 6.97289 5.80786C10.0759 5.65728 14.9937 5.5 22 5.5C29.0063 5.5 33.9241 5.65728 37.0271 5.80786C40.1677 5.96026 42.8433 8.20029 43.1676 11.4748C43.3111 12.9234 43.4334 14.7592 43.4799 17.0151C41.1656 15.1308 38.218 14 35 14C27.5194 14 21.5 20.1105 21.5 27.5926C21.5 29.3056 21.8821 30.957 22.4832 32.4998C22.3232 32.4999 22.1622 32.5 22 32.5ZM9 13.5C9.82843 13.5 10.5 14.1716 10.5 15V23C10.5 23.8284 9.82843 24.5 9 24.5C8.17157 24.5 7.5 23.8284 7.5 23L7.5 15C7.5 14.1716 8.17157 13.5 9 13.5Z" clip-rule="evenodd"></path><path fill="currentColor" fill-rule="evenodd" d="M36.1454 42.0931C38.8678 39.8377 45.5 33.7152 45.5 27.5926C45.5 21.7425 40.799 17 35 17C29.201 17 24.5 21.7425 24.5 27.5926C24.5 33.7152 31.1322 39.8377 33.8546 42.0931C34.5272 42.6502 35.4728 42.6502 36.1454 42.0931ZM35 31.5C37.2091 31.5 39 29.7091 39 27.5C39 25.2909 37.2091 23.5 35 23.5C32.7909 23.5 31 25.2909 31 27.5C31 29.7091 32.7909 31.5 35 31.5Z" clip-rule="evenodd"></path></svg>