<svg xmlns="http://www.w3.org/2000/svg" fill="none" viewBox="0 0 48 48"><path fill="currentColor" fill-rule="evenodd" d="M24 38.5C16.504 38.5 11.2849 38.3231 8.03911 38.1572C4.88484 37.996 2.21286 35.7342 1.88016 32.4591C1.6738 30.4276 1.5 27.637 1.5 24C1.5 20.363 1.6738 17.5724 1.88016 15.5409C2.21286 12.2658 4.88484 10.004 8.03911 9.84277C11.2849 9.67691 16.504 9.5 24 9.5C31.496 9.5 36.7151 9.67692 39.9609 9.84277C43.1152 10.004 45.7871 12.2658 46.1198 15.5409C46.3262 17.5724 46.5 20.363 46.5 24C46.5 27.637 46.3262 30.4276 46.1198 32.4591C45.7871 35.7343 43.1152 37.9961 39.9609 38.1572C36.7151 38.3231 31.496 38.5 24 38.5ZM19.4743 16.577C20.2603 16.8389 20.685 17.6884 20.423 18.4743L16.423 30.4743C16.1611 31.2603 15.3116 31.685 14.5257 31.423C13.7397 31.1611 13.315 30.3116 13.577 29.5257L17.577 17.5257C17.8389 16.7397 18.6884 16.315 19.4743 16.577ZM33.423 18.4743C33.685 17.6884 33.2603 16.8389 32.4743 16.577C31.6884 16.315 30.8389 16.7397 30.577 17.5257L26.577 29.5257C26.315 30.3116 26.7397 31.1611 27.5257 31.423C28.3116 31.685 29.1611 31.2603 29.423 30.4743L33.423 18.4743Z" clip-rule="evenodd"></path></svg>