<svg xmlns="http://www.w3.org/2000/svg" fill="none" viewBox="0 0 48 48"><path fill="currentColor" fill-rule="evenodd" d="M19.5 1.5c-5.166 0-8.966.172-11.56.357-3.3.236-5.847 2.782-6.083 6.084C1.672 10.534 1.5 14.334 1.5 19.5c0 5.166.172 8.966.357 11.56.23 3.214 2.65 5.713 5.825 6.06A188.37 188.37 0 0 1 7.5 28.5c0-5.233.174-9.104.365-11.773.342-4.79 4.072-8.52 8.862-8.862 2.669-.19 6.54-.365 11.773-.365 3.45 0 6.307.076 8.62.182-.347-3.175-2.846-5.595-6.06-5.825-2.594-.185-6.394-.357-11.56-.357Zm9 9c-5.166 0-8.966.172-11.56.357-3.3.236-5.847 2.782-6.083 6.084-.185 2.593-.357 6.393-.357 11.559 0 5.166.172 8.966.357 11.56.236 3.3 2.782 5.847 6.084 6.083 2.593.185 6.393.357 11.559.357 5.166 0 8.966-.172 11.56-.357 3.3-.236 5.847-2.782 6.083-6.084.185-2.593.357-6.393.357-11.559 0-5.166-.172-8.966-.357-11.56-.236-3.3-2.782-5.847-6.084-6.083-2.593-.185-6.393-.357-11.559-.357Zm4 10a4 4 0 1 1 8 0 4 4 0 0 1-8 0Zm10.917 13.89a85.278 85.278 0 0 0-3.263-2.832c-1.493-1.222-3.497-1.415-5.136-.322-1.064.71-2.492 1.765-4.329 3.321-2.791-2.657-4.74-4.354-6.04-5.418-1.494-1.221-3.498-1.415-5.137-.322-1.358.906-3.313 2.377-5.952 4.736.066 2.612.176 4.696.29 6.293.13 1.813 1.492 3.175 3.305 3.304 2.517.18 6.245.35 11.345.35 5.1 0 8.828-.17 11.346-.35 1.813-.13 3.175-1.491 3.304-3.304.102-1.423.2-3.232.267-5.456Z" clip-rule="evenodd"/></svg>