<svg xmlns="http://www.w3.org/2000/svg" fill="none" viewBox="0 0 48 48"><path fill="currentColor" fill-rule="evenodd" d="M46.5 20c0 3.961-.072 6.988-.161 9.213-.148 3.686-3.08 6.482-6.721 6.591-3.316.1-8.403.196-15.618.196s-12.302-.097-15.618-.196c-3.64-.109-6.573-2.905-6.72-6.591A232.433 232.433 0 0 1 1.5 20c0-3.961.072-6.988.161-9.213.148-3.686 3.08-6.482 6.721-6.591C11.698 4.096 16.785 4 24 4s12.302.097 15.618.196c3.64.109 6.573 2.905 6.72 6.591.09 2.225.162 5.252.162 9.213Zm-41 22A2.5 2.5 0 0 1 8 39.5h2a2.5 2.5 0 0 1 0 5H8A2.5 2.5 0 0 1 5.5 42Zm10 0a2.5 2.5 0 0 1 2.5-2.5h2a2.5 2.5 0 0 1 0 5h-2a2.5 2.5 0 0 1-2.5-2.5Zm10 0a2.5 2.5 0 0 1 2.5-2.5h2a2.5 2.5 0 0 1 0 5h-2a2.5 2.5 0 0 1-2.5-2.5Zm10 0a2.5 2.5 0 0 1 2.5-2.5h2a2.5 2.5 0 0 1 0 5h-2a2.5 2.5 0 0 1-2.5-2.5Z" clip-rule="evenodd"/></svg>