<svg xmlns="http://www.w3.org/2000/svg" fill="none" viewBox="0 0 48 48"><path fill="currentColor" d="M16.5 24C16.5 25.9 16.5847 27.7416 16.7434 29.5H31.2566C31.4153 27.7416 31.5 25.9 31.5 24C31.5 22.1001 31.4149 20.2584 31.2555 18.5H16.7445C16.5851 20.2584 16.5 22.1001 16.5 24Z"></path><path fill="currentColor" d="M13.7328 18.5C13.5802 20.2733 13.5 22.1143 13.5 24C13.5 25.8856 13.5798 27.7266 13.7318 29.5H2.17706C1.73485 27.7398 1.5 25.8973 1.5 24C1.5 22.1027 1.73485 20.2602 2.17706 18.5H13.7328Z"></path><path fill="currentColor" d="M17.0988 15.5H30.9012C30.4568 12.4726 29.7846 9.77365 28.952 7.55685C28.1733 5.48352 27.283 3.90941 26.3717 2.88065C25.4582 1.84935 24.6528 1.5 24 1.5C23.3472 1.5 22.5418 1.84935 21.6283 2.88065C20.717 3.90941 19.8267 5.48352 19.048 7.55685C18.2154 9.77365 17.5432 12.4726 17.0988 15.5Z"></path><path fill="currentColor" d="M34.2672 18.5C34.4198 20.2733 34.5 22.1143 34.5 24C34.5 25.8856 34.4202 27.7266 34.2682 29.5H45.8229C46.2652 27.7398 46.5 25.8973 46.5 24C46.5 22.1027 46.2652 20.2602 45.8229 18.5H34.2672Z"></path><path fill="currentColor" d="M44.8391 15.5H33.9316C33.4619 12.112 32.7177 9.05049 31.7605 6.50202C31.1499 4.87646 30.4379 3.41974 29.6274 2.20946C36.5467 3.99118 42.1776 8.98168 44.8391 15.5Z"></path><path fill="currentColor" d="M14.0684 15.5H3.16093C5.8224 8.98168 11.4533 3.99118 18.3726 2.20946C17.5621 3.41974 16.8501 4.87646 16.2395 6.50202C15.2823 9.05049 14.5381 12.112 14.0684 15.5Z"></path><path fill="currentColor" d="M14.0661 32.5H3.16093C5.82098 39.0149 11.4473 44.0035 18.3616 45.7877C17.5515 44.5776 16.8407 43.1216 16.2315 41.4972C15.2759 38.9488 14.534 35.8876 14.0661 32.5Z"></path><path fill="currentColor" d="M28.9595 40.4439C29.7908 38.227 30.4609 35.5279 30.9037 32.5H17.0963C17.5391 35.5279 18.2092 38.227 19.0405 40.4439C19.818 42.517 20.7075 44.0906 21.6192 45.1189C22.5324 46.1489 23.3404 46.5 24 46.5C24.6596 46.5 25.4676 46.1489 26.3808 45.1189C27.2925 44.0906 28.182 42.517 28.9595 40.4439Z"></path><path fill="currentColor" d="M31.7685 41.4972C32.7241 38.9488 33.466 35.8876 33.9339 32.5H44.8391C42.179 39.0149 36.5527 44.0035 29.6384 45.7877C30.4485 44.5776 31.1593 43.1216 31.7685 41.4972Z"></path></svg>