<svg xmlns="http://www.w3.org/2000/svg" fill="none" viewBox="0 0 48 48"><path fill="currentColor" fill-rule="evenodd" d="M34.376 2.155a33.15 33.15 0 0 1 7.795-.63 2.4 2.4 0 0 1 2.305 2.305c.06 1.416.067 4.399-.63 7.795-.41 2.003-2.819 2.546-4.147 1.217l-1.917-1.916a116.04 116.04 0 0 0-2.213 2.055c-1.891 1.801-4.263 4.182-6.264 6.559-1.702 2.022-4.967 2.008-6.565-.23a93.722 93.722 0 0 0-3.148-4.17c-2.234 1.529-6.872 5.048-12.086 11.01-.324.37-.649.75-.976 1.138a2 2 0 0 1-3.06-2.577c.344-.407.685-.805 1.024-1.193 5.59-6.392 10.587-10.152 12.993-11.784 1.683-1.141 3.891-.748 5.126.78a96.885 96.885 0 0 1 3.381 4.471.065.065 0 0 0 .026.023.178.178 0 0 0 .073.016.185.185 0 0 0 .152-.06c2.136-2.537 4.626-5.032 6.564-6.879.833-.793 1.57-1.473 2.141-1.99l-1.79-1.794c-1.329-1.328-.786-3.736 1.217-4.147Zm-.612 40.57c-.132-1.81-.264-5.039-.264-10.725s.132-8.914.264-10.726c.146-2.01 1.614-3.578 3.702-3.706.664-.04 1.497-.068 2.534-.068 1.037 0 1.87.028 2.534.068 2.088.128 3.556 1.696 3.702 3.706.132 1.812.264 5.04.264 10.726 0 5.686-.132 8.914-.264 10.726-.146 2.01-1.614 3.578-3.702 3.706-.664.04-1.497.068-2.534.068a41.39 41.39 0 0 1-2.534-.069c-2.088-.127-3.556-1.695-3.702-3.705Zm-32.095.545C1.573 42.326 1.5 40.966 1.5 39c0-1.966.073-3.326.169-4.27.201-1.99 1.798-3.131 3.547-3.19A84 84 0 0 1 8 31.5c1.187 0 2.097.017 2.784.04 1.749.059 3.346 1.2 3.547 3.19.096.944.169 2.304.169 4.27 0 1.966-.073 3.326-.168 4.27-.202 1.99-1.8 3.131-3.548 3.19-.687.023-1.597.04-2.784.04a84 84 0 0 1-2.784-.04c-1.749-.059-3.346-1.2-3.547-3.19ZM17.5 36c0 3.411.099 5.564.212 6.917.173 2.048 1.74 3.447 3.721 3.534.664.029 1.506.049 2.567.049 1.06 0 1.903-.02 2.567-.05 1.98-.086 3.548-1.485 3.72-3.533.114-1.353.213-3.506.213-6.917s-.099-5.564-.212-6.917c-.173-2.048-1.74-3.447-3.721-3.534A59.284 59.284 0 0 0 24 25.5c-1.06 0-1.903.02-2.567.05-1.98.086-3.548 1.485-3.72 3.533-.114 1.353-.213 3.506-.213 6.917Z" clip-rule="evenodd"/></svg>