<svg xmlns="http://www.w3.org/2000/svg" fill="none" viewBox="0 0 48 48"><path fill="currentColor" d="M22 23.4736C20.0204 23.419 18.5175 23.2863 17.3907 23.1326C14.9005 22.793 13.3051 20.8112 13.1546 18.451C13.0688 17.1044 13 15.1878 13 12.5C13 9.81217 13.0688 7.89564 13.1546 6.549C13.3051 4.18883 14.9005 2.20697 17.3907 1.86737C18.8699 1.66564 20.9971 1.5 24 1.5C27.0029 1.5 29.1301 1.66564 30.6093 1.86737C33.0995 2.20697 34.6949 4.18883 34.8454 6.549C34.9312 7.89564 35 9.81217 35 12.5C35 15.1878 34.9312 17.1044 34.8454 18.451C34.6949 20.8112 33.0995 22.793 30.6093 23.1326C29.4825 23.2863 27.9796 23.419 26 23.4736V27H35.3471C38.4504 27 41.0416 29.3663 41.3225 32.4568L41.5138 34.5609C41.9554 34.5903 42.3341 34.6284 42.6579 34.6707C44.3014 34.8851 45.3387 36.2063 45.4299 37.7077C45.4696 38.3602 45.5 39.263 45.5 40.5C45.5 41.737 45.4696 42.6398 45.4299 43.2923C45.3388 44.7937 44.3014 46.1149 42.6579 46.3293C41.9209 46.4255 40.8998 46.5 39.5 46.5C38.1002 46.5 37.0791 46.4255 36.3421 46.3293C34.6986 46.1149 33.6612 44.7937 33.5701 43.2923C33.5304 42.6398 33.5 41.737 33.5 40.5C33.5 39.263 33.5304 38.3602 33.5701 37.7077C33.6612 36.2063 34.6986 34.8851 36.3421 34.6707C36.6686 34.628 37.0509 34.5897 37.4972 34.5602L37.3389 32.8189C37.2453 31.7888 36.3816 31 35.3471 31H26V34.56C26.4475 34.5895 26.8307 34.6279 27.1579 34.6707C28.8014 34.8851 29.8388 36.2063 29.9299 37.7077C29.9696 38.3602 30 39.263 30 40.5C30 41.737 29.9696 42.6398 29.9299 43.2923C29.8388 44.7937 28.8014 46.1149 27.1579 46.3293C26.4209 46.4255 25.3998 46.5 24 46.5C22.6002 46.5 21.5791 46.4255 20.8421 46.3293C19.1986 46.1149 18.1612 44.7937 18.0701 43.2923C18.0304 42.6398 18 41.737 18 40.5C18 39.263 18.0304 38.3602 18.0701 37.7077C18.1612 36.2063 19.1986 34.8851 20.8421 34.6707C21.1693 34.6279 21.5525 34.5895 22 34.56V31H12.6529C11.6185 31 10.7547 31.7888 10.6611 32.8189L10.5028 34.5602C10.9491 34.5897 11.3314 34.628 11.6579 34.6707C13.3014 34.8851 14.3387 36.2063 14.4299 37.7077C14.4696 38.3602 14.5 39.263 14.5 40.5C14.5 41.737 14.4696 42.6398 14.4299 43.2923C14.3388 44.7937 13.3014 46.1149 11.6579 46.3293C10.9209 46.4255 9.89978 46.5 8.5 46.5C7.10022 46.5 6.07912 46.4255 5.34206 46.3293C3.69865 46.1149 2.66125 44.7937 2.57005 43.2923C2.53042 42.6398 2.5 41.737 2.5 40.5C2.5 39.263 2.53042 38.3602 2.57005 37.7077C2.66125 36.2063 3.69865 34.8851 5.34206 34.6707C5.66593 34.6284 6.04464 34.5903 6.48622 34.5609L6.67751 32.4568C6.95846 29.3663 9.54964 27 12.6529 27H22V23.4736Z"></path></svg>