<svg xmlns="http://www.w3.org/2000/svg" fill="none" viewBox="0 0 48 48"><path fill="currentColor" fill-rule="evenodd" d="M21.2969 2.21186C22.9991 1.28398 24.9943 1.28384 26.6966 2.21161C28.8232 3.3706 32.4146 5.76337 37.4736 10.5942C41.2609 14.2108 43.7757 16.9047 45.4011 18.7814C46.398 19.9325 46.6816 21.4153 46.1416 22.7109C45.6032 24.0029 44.355 24.8477 42.8445 24.9656C42.4332 24.9978 41.9859 25.03 41.5001 25.0617V31.9999C41.5001 36.4733 41.2991 39.6572 41.0996 41.7161C40.8626 44.1614 38.9209 45.9653 36.5203 46.1339C34.0601 46.3068 29.9743 46.4999 24.0001 46.4999C18.0258 46.4999 13.9401 46.3068 11.4799 46.1339C9.07927 45.9653 7.13758 44.1614 6.90059 41.7161C6.70104 39.6571 6.50009 36.4733 6.50009 31.9999L6.50009 25.0621C6.01112 25.0302 5.56117 24.9978 5.14764 24.9655C3.63746 24.8476 2.38934 24.0031 1.85088 22.7113C1.31091 21.4158 1.59438 19.9332 2.59113 18.7822C4.21635 16.9055 6.73146 14.2112 10.52 10.5941C15.5796 5.76364 19.1706 3.3709 21.2969 2.21186ZM28.743 42.0924C29.824 42.0703 30.6821 41.1836 30.6747 40.1024C30.6606 38.0277 30.6307 35.5433 30.6047 33.5964C30.5792 31.6864 29.2013 30.0641 27.2991 29.8898C26.3001 29.7983 25.1576 29.7283 24 29.7283C22.8424 29.7283 21.6999 29.7983 20.7009 29.8898C18.7987 30.0641 17.4208 31.6864 17.3953 33.5964C17.3693 35.5433 17.3394 38.0277 17.3252 40.1024C17.3179 41.1836 18.176 42.0703 19.257 42.0924C20.671 42.1214 22.2495 42.1388 24 42.1388C25.7505 42.1388 27.329 42.1214 28.743 42.0924Z" clip-rule="evenodd"></path></svg>