<svg xmlns="http://www.w3.org/2000/svg" fill="none" viewBox="0 0 48 48"><path fill="currentColor" d="M13.924 1.50118C15.3041 1.4592 16.4569 2.54394 16.4989 3.92401C16.5408 5.30408 15.4561 6.45689 14.076 6.49887L7.76528 6.69083C7.18366 6.73745 6.73775 7.18338 6.6911 7.76481L6.49886 14.0761C6.45683 15.4562 5.30398 16.5409 3.92391 16.4989C2.54384 16.4568 1.45914 15.304 1.50118 13.9239L1.69481 7.56711C1.69554 7.54322 1.6966 7.51934 1.69802 7.49548C1.88344 4.3634 4.36449 1.88286 7.49639 1.69773C7.52021 1.69632 7.54405 1.69525 7.5679 1.69453L13.924 1.50118Z"></path><path fill="currentColor" d="M41.5012 33.9239C41.5432 32.5438 42.6961 31.4591 44.0761 31.5012C45.4562 31.5432 46.5409 32.6961 46.4989 34.0761L46.3052 40.4329C46.3045 40.4568 46.3034 40.4807 46.302 40.5046C46.1166 43.6366 43.6356 46.1172 40.5037 46.3023C40.4798 46.3037 40.456 46.3048 40.4321 46.3055L34.076 46.4989C32.696 46.5408 31.5432 45.4561 31.5012 44.076C31.4592 42.696 32.5439 41.5432 33.924 41.5012L40.2348 41.3092C40.8164 41.2626 41.2623 40.8167 41.3089 40.2353L41.5012 33.9239Z"></path><path fill="currentColor" d="M34.0761 1.50118C32.696 1.4592 31.5432 2.54394 31.5012 3.92401C31.4592 5.30408 32.544 6.45689 33.9241 6.49887L40.2348 6.69083C40.8164 6.73745 41.2623 7.18338 41.309 7.76481L41.5012 14.0761C41.5433 15.4562 42.6961 16.5409 44.0762 16.4989C45.4563 16.4568 46.5409 15.304 46.4989 13.9239L46.3053 7.56711C46.3046 7.54322 46.3035 7.51934 46.3021 7.49548C46.1166 4.3634 43.6356 1.88286 40.5037 1.69773C40.4799 1.69632 40.456 1.69525 40.4322 1.69453L34.0761 1.50118Z"></path><path fill="currentColor" d="M6.49891 33.9239C6.45687 32.5438 5.30402 31.4591 3.92395 31.5012C2.54388 31.5432 1.45919 32.6961 1.50123 34.0761L1.69485 40.4329C1.69558 40.4568 1.69665 40.4807 1.69806 40.5046C1.88349 43.6366 4.36453 46.1172 7.49644 46.3023C7.52026 46.3037 7.5441 46.3048 7.56795 46.3055L13.9241 46.4989C15.3041 46.5408 16.4569 45.4561 16.4989 44.076C16.5409 42.696 15.4562 41.5432 14.0761 41.5012L7.76532 41.3092C7.18372 41.2626 6.73782 40.8167 6.69115 40.2353L6.49891 33.9239Z"></path><path fill="currentColor" d="M24.0001 9.5C18.9658 9.5 14.8847 13.5811 14.8847 18.6154C14.8847 21.3564 16.0949 23.8147 18.0086 25.4851C14.7954 27.1654 12.3753 30.1553 11.457 33.7479C10.9135 35.8743 12.5117 37.7147 14.5704 37.9734C16.6649 38.2366 19.8078 38.5 23.9989 38.5C28.1901 38.5 31.333 38.2366 33.4275 37.9734C35.4862 37.7147 37.0844 35.8743 36.5409 33.7479C35.6227 30.1558 33.2032 27.1663 29.9908 25.4859C31.9049 23.8155 33.1155 21.3568 33.1155 18.6154C33.1155 13.5811 29.0344 9.5 24.0001 9.5Z"></path></svg>