<svg xmlns="http://www.w3.org/2000/svg" fill="none" viewBox="0 0 48 48"><path fill="currentColor" d="M24 16.5C19.8579 16.5 16.5 19.8579 16.5 24C16.5 28.1421 19.8579 31.5 24 31.5C28.1421 31.5 31.5 28.1421 31.5 24C31.5 19.8579 28.1421 16.5 24 16.5Z"></path><path fill="currentColor" fill-rule="evenodd" d="M16.4989 6.92401C16.5408 8.30408 15.4561 9.45689 14.076 9.49887L7.76527 9.69083C7.18367 9.73744 6.73778 10.1834 6.69111 10.7648L6.49886 17.0761C6.45683 18.4562 5.30398 19.5409 3.92391 19.4989C2.54384 19.4568 1.45915 18.304 1.50118 16.9239L1.69481 10.5671C1.69554 10.5432 1.69661 10.5193 1.69802 10.4955C1.88344 7.3634 4.36448 4.88286 7.49639 4.69773C7.52021 4.69632 7.54405 4.69525 7.5679 4.69453L13.924 4.50118C15.3041 4.4592 16.4569 5.54394 16.4989 6.92401Z" clip-rule="evenodd"></path><path fill="currentColor" fill-rule="evenodd" d="M31.5011 6.92401C31.4592 8.30408 32.5439 9.45689 33.924 9.49887L40.2347 9.69083C40.8163 9.73744 41.2622 10.1834 41.3089 10.7648L41.5011 17.0761C41.5432 18.4562 42.696 19.5409 44.0761 19.4989C45.4562 19.4568 46.5409 18.304 46.4988 16.9239L46.3052 10.5671C46.3045 10.5432 46.3034 10.5193 46.302 10.4955C46.1166 7.3634 43.6355 4.88286 40.5036 4.69773C40.4798 4.69632 40.4559 4.69525 40.4321 4.69453L34.076 4.50118C32.6959 4.4592 31.5431 5.54394 31.5011 6.92401Z" clip-rule="evenodd"></path><path fill="currentColor" fill-rule="evenodd" d="M44.0761 28.5012C45.4562 28.5432 46.5409 29.6961 46.4989 31.0761L46.3052 37.4329C46.3045 37.4568 46.3034 37.4807 46.302 37.5046C46.1166 40.6366 43.6356 43.1172 40.5037 43.3023C40.4798 43.3037 40.456 43.3048 40.4321 43.3055L34.076 43.4989C32.696 43.5408 31.5432 42.4561 31.5012 41.076C31.4592 39.696 32.5439 38.5432 33.924 38.5012L40.2348 38.3092C40.8164 38.2626 41.2623 37.8167 41.3089 37.2353L41.5012 30.9239C41.5432 29.5438 42.6961 28.4591 44.0761 28.5012Z" clip-rule="evenodd"></path><path fill="currentColor" fill-rule="evenodd" d="M3.92386 28.5012C2.54379 28.5432 1.4591 29.6961 1.50113 31.0761L1.69476 37.4329C1.69549 37.4568 1.69656 37.4807 1.69797 37.5046C1.88339 40.6366 4.36444 43.1172 7.49634 43.3023C7.52017 43.3037 7.54401 43.3048 7.56786 43.3055L13.924 43.4989C15.304 43.5408 16.4568 42.4561 16.4988 41.076C16.5408 39.696 15.4561 38.5432 14.076 38.5012L7.76523 38.3092C7.18363 38.2626 6.73773 37.8167 6.69106 37.2353L6.49882 30.9239C6.45678 29.5438 5.30393 28.4591 3.92386 28.5012Z" clip-rule="evenodd"></path></svg>