<svg xmlns="http://www.w3.org/2000/svg" fill="none" viewBox="0 0 48 48"><path fill="currentColor" fill-rule="evenodd" d="M21.681 7.62188C19.5696 8.61981 17.7473 9.69923 16.2141 10.7407C15.5288 11.2062 14.5959 11.028 14.1304 10.3427C13.6649 9.6574 13.8431 8.72452 14.5284 8.25903C16.2032 7.12142 18.1945 5.94446 20.5023 4.86091C20.5753 2.99239 22.1132 1.5 23.9996 1.5C25.8862 1.5 27.4242 2.99278 27.4969 4.86164C29.8041 5.945 31.7948 7.12168 33.4692 8.25903C34.1545 8.72452 34.3327 9.6574 33.8672 10.3427C33.4017 11.028 32.4688 11.2062 31.7836 10.7407C30.2506 9.69939 28.4286 8.62015 26.3177 7.62235C25.7003 8.1685 24.8887 8.5 23.9996 8.5C23.1102 8.5 22.2984 8.1683 21.681 7.62188Z" clip-rule="evenodd"></path><path fill="currentColor" fill-rule="evenodd" d="M7.43159 12.0434C10.4306 11.7765 15.5696 11.5 24 11.5C32.4304 11.5 37.5694 11.7765 40.5684 12.0434C43.4865 12.3031 45.7121 14.4795 46.0111 17.4041C46.2605 19.8444 46.5 23.5944 46.5 28.9999C46.5 34.4054 46.2605 38.1555 46.0111 40.5959C45.7121 43.5205 43.4865 45.6969 40.5684 45.9566C37.5694 46.2235 32.4304 46.5 24 46.5C15.5696 46.5 10.4306 46.2235 7.43163 45.9566C4.51352 45.6969 2.28787 43.5205 1.98894 40.5959C1.73951 38.1555 1.5 34.4054 1.5 28.9999C1.5 23.5944 1.7395 19.8444 1.98894 17.4041C2.28787 14.4795 4.51351 12.3031 7.43159 12.0434ZM36.0005 17.5C33.5153 17.5 31.5005 19.5147 31.5005 22C31.5005 24.4853 33.5153 26.5 36.0005 26.5C38.4858 26.5 40.5005 24.4853 40.5005 22C40.5005 19.5147 38.4858 17.5 36.0005 17.5ZM39.0882 32.6067C40.0917 33.4184 41.4769 34.5977 43.3271 36.2861C43.242 37.9137 43.1348 39.2378 43.0271 40.2908C42.8754 41.7751 41.7992 42.8353 40.303 42.9684C37.4169 43.2252 32.3707 43.5 24.0005 43.5C15.6304 43.5 10.5842 43.2252 7.69808 42.9684C6.20185 42.8353 5.12564 41.7751 4.97393 40.2908C4.85523 39.1296 4.73704 37.6387 4.64844 35.7748C8.52321 32.2493 11.2493 30.2414 12.9963 29.118C14.6441 28.0583 16.6388 28.2538 18.135 29.4641C19.8552 30.8555 22.6976 33.3275 27.0823 37.5939C30.1815 34.8753 32.4337 33.2353 33.9494 32.2605C35.5973 31.2009 37.5919 31.3964 39.0882 32.6067Z" clip-rule="evenodd"></path></svg>