<svg xmlns="http://www.w3.org/2000/svg" fill="none" viewBox="0 0 48 48"><path fill="currentColor" d="M9.19336 39.2499C9.94235 40.167 10.9543 40.8894 12.1656 41.3067C14.5465 42.1271 18.026 43.2265 22.7838 44.5013C27.5416 45.7762 31.1046 46.5638 33.5767 47.0438C36.8273 47.675 39.9435 45.8758 41.0222 42.7452C41.0837 42.5668 41.1467 42.3822 41.2113 42.1913L29.9658 39.1781C27.3965 39.3503 23.7839 39.5006 18.9992 39.5006C14.8955 39.5006 11.6539 39.39 9.19336 39.2499Z"></path><path fill="currentColor" d="M35.1315 37.4564L42.1387 39.334C42.7538 37.3638 43.4539 34.9743 44.2168 32.127C45.4916 27.3692 46.2793 23.8061 46.7593 21.334C47.3905 18.0835 45.5913 14.9672 42.4606 13.8885C41.5924 13.5894 40.578 13.2531 39.4089 12.8848C39.4643 14.6607 39.4992 16.6945 39.4992 19.0006C39.4992 23.9916 39.3357 27.7073 39.1543 30.2937C38.9447 33.283 37.4154 35.8589 35.1315 37.4564Z"></path><path fill="currentColor" d="M7.91677 36.1624C10.4289 36.3386 14.0743 36.5 19 36.5C23.9256 36.5 27.5711 36.3386 30.0832 36.1624C33.3864 35.9308 35.9308 33.3864 36.1624 30.0832C36.1756 29.8952 36.1887 29.7008 36.2017 29.5H1.7983C1.81126 29.7008 1.82436 29.8952 1.83755 30.0832C2.06919 33.3864 4.61362 35.9308 7.91677 36.1624Z"></path><path fill="currentColor" d="M1.64201 26.5C1.55781 24.4376 1.5 21.9481 1.5 19C1.5 14.0744 1.66139 10.4289 1.83755 7.91677C2.06919 4.61362 4.61362 2.06919 7.91677 1.83755C10.4289 1.66139 14.0744 1.5 19 1.5C23.9256 1.5 27.5711 1.66139 30.0832 1.83755C33.3864 2.06919 35.9308 4.61362 36.1624 7.91677C36.3386 10.4289 36.5 14.0744 36.5 19C36.5 21.9481 36.4422 24.4376 36.358 26.5H1.64201Z"></path></svg>