<svg xmlns="http://www.w3.org/2000/svg" fill="none" viewBox="0 0 48 48"><path fill="currentColor" fill-rule="evenodd" d="M6 1.5a4.5 4.5 0 1 0 0 9 4.5 4.5 0 0 0 0-9Zm13.028 19.796c2.345.102 5.942.204 10.972.204 5.03 0 8.627-.102 10.972-.204 2.703-.119 5.061-2.037 5.324-4.906a53.69 53.69 0 0 0 .204-4.89c0-2.004-.087-3.623-.204-4.89-.263-2.87-2.62-4.788-5.324-4.906C38.627 1.602 35.03 1.5 30 1.5c-5.03 0-8.627.102-10.972.204-2.703.118-5.061 2.037-5.324 4.906a53.691 53.691 0 0 0-.204 4.89c0 2.004.087 3.623.204 4.89.263 2.87 2.62 4.787 5.324 4.906Zm0 25c2.345.102 5.942.204 10.972.204 5.03 0 8.627-.102 10.972-.204 2.703-.118 5.061-2.037 5.324-4.906a53.69 53.69 0 0 0 .204-4.89 53.69 53.69 0 0 0-.204-4.89c-.263-2.87-2.62-4.787-5.324-4.906C38.627 26.602 35.03 26.5 30 26.5c-5.03 0-8.627.102-10.972.204-2.703.119-5.061 2.037-5.324 4.906a53.69 53.69 0 0 0-.204 4.89c0 2.004.087 3.623.204 4.89.263 2.87 2.62 4.788 5.324 4.906ZM1.5 31a4.5 4.5 0 1 1 9 0 4.5 4.5 0 0 1-9 0Z" clip-rule="evenodd"/></svg>