<svg xmlns="http://www.w3.org/2000/svg" fill="none" viewBox="0 0 48 48"><path fill="currentColor" fill-rule="evenodd" d="M5.55 2.503C8.479 2.259 13.95 2 24 2c10.05 0 15.522.26 18.45.503 2.423.201 4.224 1.958 4.397 4.413C46.934 8.156 47 9.814 47 12c0 2.187-.066 3.845-.153 5.084-.173 2.455-1.974 4.212-4.398 4.413-2.927.244-8.4.503-18.449.503-10.05 0-15.522-.26-18.45-.503-2.423-.201-4.224-1.958-4.397-4.413C1.066 15.844 1 14.187 1 12c0-2.186.066-3.845.153-5.084.173-2.455 1.974-4.212 4.398-4.413ZM24 27c-14.188 0-19.214.144-20.827.214-.651.029-1.554.339-1.886 1.292C1.123 28.977 1 29.624 1 30.5c0 .876.123 1.523.287 1.994.332.953 1.235 1.263 1.886 1.292C4.786 33.856 9.812 34 24 34c14.188 0 19.214-.144 20.827-.214.651-.029 1.554-.339 1.886-1.292.164-.471.287-1.118.287-1.994 0-.876-.123-1.523-.287-1.994-.332-.953-1.235-1.263-1.886-1.292C43.214 27.144 38.188 27 24 27Zm-8.5 12c-7.63 0-10.955.11-12.34.186-.897.049-1.872.608-2.053 1.75-.063.397-.107.909-.107 1.564s.044 1.167.107 1.564c.18 1.142 1.156 1.701 2.052 1.75C4.545 45.89 7.87 46 15.5 46c7.63 0 10.955-.11 12.34-.186.898-.049 1.872-.608 2.053-1.75.063-.397.107-.909.107-1.564s-.044-1.167-.107-1.564c-.18-1.142-1.155-1.701-2.052-1.75C26.455 39.11 23.13 39 15.5 39Z" clip-rule="evenodd"/></svg>