<svg xmlns="http://www.w3.org/2000/svg" fill="none" viewBox="0 0 48 48"><path fill="currentColor" fill-rule="evenodd" d="M11 2c2.491 0 4.402.073 5.792.16a4.28 4.28 0 0 1 4.048 4.048c.087 1.39.16 3.3.16 5.792a93.48 93.48 0 0 1-.16 5.792 4.28 4.28 0 0 1-4.048 4.048c-1.39.087-3.3.16-5.792.16-2.491 0-4.402-.073-5.792-.16a4.28 4.28 0 0 1-4.048-4.048C1.073 16.402 1 14.492 1 12c0-2.491.073-4.402.16-5.792A4.28 4.28 0 0 1 5.208 2.16C6.598 2.073 8.508 2 11 2Zm0 24c2.491 0 4.402.073 5.792.16a4.28 4.28 0 0 1 4.048 4.048c.087 1.39.16 3.3.16 5.792 0 2.491-.073 4.402-.16 5.792a4.28 4.28 0 0 1-4.048 4.048c-1.39.087-3.3.16-5.792.16-2.491 0-4.402-.073-5.792-.16a4.28 4.28 0 0 1-4.048-4.048C1.073 40.402 1 38.492 1 36c0-2.491.073-4.402.16-5.792a4.28 4.28 0 0 1 4.048-4.048c1.39-.087 3.3-.16 5.792-.16ZM36 3c-5.126 0-7.639.09-8.84.165-1.016.062-1.976.755-2.097 1.939-.037.363-.063.822-.063 1.396s.026 1.032.063 1.396c.121 1.184 1.081 1.877 2.097 1.94 1.201.073 3.714.164 8.84.164 5.126 0 7.639-.09 8.84-.165 1.016-.062 1.976-.755 2.097-1.939.038-.363.063-.822.063-1.396s-.026-1.033-.063-1.396c-.121-1.184-1.081-1.877-2.097-1.94C43.639 3.092 41.126 3 36 3Zm-8.867 11.138C28.096 14.07 29.849 14 33 14s4.904.07 5.867.138c1.11.078 2.017.887 2.095 2.07.023.34.038.765.038 1.292s-.015.951-.038 1.292c-.078 1.183-.985 1.992-2.095 2.07-.963.068-2.715.138-5.867.138-3.151 0-4.904-.07-5.867-.138-1.11-.078-2.017-.887-2.095-2.07-.023-.34-.038-.765-.038-1.292s.015-.951.038-1.292c.078-1.183.985-1.992 2.095-2.07ZM36 27c-5.126 0-7.639.09-8.84.165-1.016.062-1.976.755-2.097 1.939-.037.364-.063.822-.063 1.396s.026 1.032.063 1.396c.121 1.184 1.081 1.877 2.097 1.94 1.201.073 3.714.164 8.84.164 5.126 0 7.639-.09 8.84-.165 1.016-.062 1.976-.755 2.097-1.939.038-.364.063-.822.063-1.396s-.026-1.032-.063-1.396c-.121-1.184-1.081-1.877-2.097-1.94C43.639 27.092 41.126 27 36 27Zm-3 11c-3.151 0-4.904.07-5.867.138-1.11.078-2.017.887-2.095 2.07-.023.34-.038.765-.038 1.292s.015.952.038 1.292c.078 1.183.985 1.992 2.095 2.07.963.068 2.716.138 5.867.138s4.904-.07 5.867-.138c1.11-.078 2.017-.887 2.095-2.07.023-.34.038-.765.038-1.292s-.015-.952-.038-1.292c-.078-1.183-.985-1.992-2.095-2.07C37.904 38.07 36.153 38 33 38Z" clip-rule="evenodd"/></svg>