<svg xmlns="http://www.w3.org/2000/svg" fill="none" viewBox="0 0 48 48"><path fill="currentColor" d="M31.7476 10.6137C31.5866 8.93515 31.5258 6.30646 31.5071 4.05212C31.5021 3.44186 31.5002 2.86383 31.5 2.34593C33.0725 3.13048 35.4297 4.63489 38.3519 7.48475C41.4855 10.5408 43.0362 12.9666 43.7918 14.4995C43.2275 14.4985 42.5855 14.4953 41.9043 14.4884C39.6263 14.4652 36.9734 14.4 35.2934 14.2388C33.4306 14.0601 31.9354 12.572 31.7476 10.6137Z"></path><path fill="currentColor" d="M44.4099 17.4998C44.4502 18.8718 44.4788 20.3653 44.4918 21.9879C44.4951 22.3878 44.3384 22.7725 44.0568 23.0564C43.7752 23.3403 43.3918 23.5 42.9919 23.5H5.00793C4.60802 23.5 4.22466 23.3403 3.94301 23.0564C3.66137 22.7725 3.50476 22.3878 3.50798 21.9879C3.56411 15.0196 3.9067 10.4311 4.22636 7.61641C4.5556 4.71735 6.75821 2.52802 9.64635 2.19108C12.5251 1.85523 17.1813 1.5 23.9999 1.5C25.6208 1.5 27.1195 1.52007 28.5011 1.55519C28.499 2.24906 28.4994 3.12381 28.5072 4.07692C28.5258 6.32521 28.5862 9.07504 28.7613 10.9001C29.0825 14.2486 31.6739 16.9054 35.007 17.2251C36.8307 17.4 39.6027 17.4651 41.8737 17.4882C42.8307 17.498 43.7102 17.5003 44.4099 17.4998Z"></path><path fill="currentColor" d="M4.14267 32.9668C4.42585 32.6687 4.81895 32.5 5.23006 32.5H42.7698C43.1809 32.5 43.574 32.6687 43.8572 32.9668C44.1403 33.2648 44.2888 33.666 44.2678 34.0766C44.1299 36.7748 43.9483 38.8442 43.7735 40.3837C43.4442 43.2828 41.2416 45.4721 38.3535 45.809C35.4747 46.1449 30.8185 46.5001 23.9999 46.5001C17.1813 46.5001 12.5251 46.1449 9.64634 45.809C6.75821 45.4721 4.5556 43.2828 4.22636 40.3837C4.05152 38.8442 3.86991 36.7749 3.73201 34.0766C3.71103 33.666 3.85948 33.2648 4.14267 32.9668Z"></path><path fill="currentColor" fill-rule="evenodd" d="M20.5 28C20.5 29.1046 21.3954 30 22.5 30H25.5C26.6046 30 27.5 29.1046 27.5 28C27.5 26.8954 26.6046 26 25.5 26L22.5 26C21.3954 26 20.5 26.8954 20.5 28Z" clip-rule="evenodd"></path><path fill="currentColor" fill-rule="evenodd" d="M10.5 28C10.5 29.1046 11.3954 30 12.5 30H15.5C16.6046 30 17.5 29.1046 17.5 28C17.5 26.8954 16.6046 26 15.5 26L12.5 26C11.3954 26 10.5 26.8954 10.5 28Z" clip-rule="evenodd"></path><path fill="currentColor" fill-rule="evenodd" d="M30.5 28C30.5 29.1046 31.3954 30 32.5 30H35.5C36.6046 30 37.5 29.1046 37.5 28C37.5 26.8954 36.6046 26 35.5 26L32.5 26C31.3954 26 30.5 26.8954 30.5 28Z" clip-rule="evenodd"></path><path fill="currentColor" fill-rule="evenodd" d="M40.5 28C40.5 29.1046 41.3954 30 42.5 30H45.5C46.6046 30 47.5 29.1046 47.5 28C47.5 26.8954 46.6046 26 45.5 26L42.5 26C41.3954 26 40.5 26.8954 40.5 28Z" clip-rule="evenodd"></path><path fill="currentColor" fill-rule="evenodd" d="M0.5 28C0.5 29.1046 1.39543 30 2.5 30H5.5C6.60457 30 7.5 29.1046 7.5 28C7.5 26.8954 6.60457 26 5.5 26L2.5 26C1.39543 26 0.5 26.8954 0.5 28Z" clip-rule="evenodd"></path></svg>