<svg xmlns="http://www.w3.org/2000/svg" fill="none" viewBox="0 0 48 48"><path fill="currentColor" d="M10.8363 28.5132C12.7721 32.2016 15.7985 35.228 19.4869 37.1638C17.1264 38.8354 14.8216 40.4484 12.7451 41.8355C10.4709 43.3546 8.40703 44.6463 6.79457 45.4672C5.99822 45.8726 5.2349 46.2035 4.57116 46.3722C4.24071 46.4561 3.85614 46.5208 3.46321 46.4951C3.06533 46.4691 2.53145 46.3389 2.09628 45.9037C1.66112 45.4685 1.5309 44.9347 1.50487 44.5368C1.47916 44.1439 1.54389 43.7593 1.62784 43.4288C1.79647 42.7651 2.12743 42.0018 2.53284 41.2054C3.35372 39.593 4.64544 37.5292 6.16457 35.255C7.55169 33.1784 9.16468 30.8737 10.8363 28.5132Z"></path><path fill="currentColor" fill-rule="evenodd" d="M11.5 19C11.5 9.33502 19.335 1.5 29 1.5C38.665 1.5 46.5 9.33502 46.5 19C46.5 28.665 38.665 36.5 29 36.5C19.335 36.5 11.5 28.665 11.5 19ZM20.5135 10.5145C19.7325 11.2955 19.7325 12.5619 20.5135 13.3429C21.2946 14.124 22.5609 14.124 23.3419 13.3429C26.4661 10.2187 31.5315 10.2187 34.6557 13.3429C35.4367 14.124 36.703 14.124 37.4841 13.3429C38.2651 12.5619 38.2651 11.2955 37.4841 10.5145C32.7978 5.82821 25.1998 5.82821 20.5135 10.5145Z" clip-rule="evenodd"></path></svg>