<svg xmlns="http://www.w3.org/2000/svg" fill="none" viewBox="0 0 48 48"><path fill="currentColor" d="M14.5 5.57513C12.0276 5.61739 10.0083 5.67282 8.40159 5.72896C4.73652 5.85702 1.83183 8.70733 1.69087 12.3911C1.65151 13.4197 1.61405 14.6186 1.58291 16H14.5V5.57513Z"></path><path fill="currentColor" d="M1.5 24C1.5 22.165 1.51131 20.5016 1.53048 19H14.5V29H1.53048C1.51131 27.4984 1.5 25.835 1.5 24Z"></path><path fill="currentColor" d="M1.58291 32C1.61405 33.3814 1.65151 34.5803 1.69087 35.6089C1.83183 39.2927 4.73652 42.143 8.40158 42.271C10.0083 42.3272 12.0276 42.3826 14.5 42.4249V32H1.58291Z"></path><path fill="currentColor" d="M17.5 32V42.4665C19.4406 42.4875 21.6029 42.5 24 42.5C26.3971 42.5 28.5594 42.4875 30.5 42.4665V32H17.5Z"></path><path fill="currentColor" d="M33.5 32V42.4249C35.9724 42.3826 37.9917 42.3272 39.5984 42.271C43.2635 42.143 46.1682 39.2927 46.3091 35.6089C46.3485 34.5803 46.3859 33.3814 46.4171 32H33.5Z"></path><path fill="currentColor" d="M46.4695 29H33.5V19H46.4695C46.4887 20.5016 46.5 22.165 46.5 24C46.5 25.835 46.4887 27.4984 46.4695 29Z"></path><path fill="currentColor" d="M30.5 29H17.5V19H30.5V29Z"></path><path fill="currentColor" d="M33.5 16H46.4171C46.3859 14.6186 46.3485 13.4197 46.3091 12.3911C46.1682 8.70734 43.2635 5.85702 39.5984 5.72896C37.9917 5.67282 35.9724 5.61739 33.5 5.57513V16Z"></path><path fill="currentColor" d="M17.5 16H30.5V5.53353C28.5594 5.51253 26.3971 5.5 24 5.5C21.6029 5.5 19.4406 5.51253 17.5 5.53353V16Z"></path></svg>