<svg xmlns="http://www.w3.org/2000/svg" fill="none" viewBox="0 0 48 48"><path fill="currentColor" d="M46.752 14.0196C46.5457 16.5856 44.0903 17.5278 42.1902 15.7909C41.5134 15.1723 40.7309 14.4394 39.8301 13.5724C33.9892 19.3393 28.6817 24.5242 26.1325 27.0095C25.1409 27.9763 23.6811 28.3808 22.5609 27.5665C21.759 26.9835 20.9981 26.2207 20.4184 25.418C19.6159 24.307 20.0092 22.863 20.9585 21.8744C23.4167 19.3144 28.5814 13.9651 34.3855 8.12627C33.5374 7.24431 32.8185 6.4766 32.2102 5.81111C30.4729 3.9107 31.4156 1.45459 33.9821 1.24825C35.0151 1.16519 36.2333 1.09075 37.6585 1.0365C40.9196 0.912364 43.0505 1.12542 44.3602 1.36636C45.5457 1.58443 46.4156 2.45446 46.6336 3.63995C46.8745 4.94967 47.0875 7.08047 46.9636 10.3416C46.9095 11.7675 46.8351 12.9862 46.752 14.0196Z"></path><path fill="currentColor" d="M21.5 6.5C15.3515 6.5 10.9317 6.71768 8.02632 6.93908C4.73149 7.19017 2.19017 9.73149 1.93909 13.0263C1.71768 15.9317 1.5 20.3515 1.5 26.5C1.5 32.6485 1.71768 37.0683 1.93908 39.9737C2.19017 43.2685 4.73149 45.8098 8.02631 46.0609C10.9317 46.2823 15.3515 46.5 21.5 46.5C27.6485 46.5 32.0683 46.2823 34.9737 46.0609C38.2685 45.8098 40.8098 43.2685 41.0609 39.9737C41.2823 37.0683 41.5 32.6485 41.5 26.5C41.5 24.7527 41.4824 23.1451 41.4522 21.6721C41.4399 21.0744 41.0739 20.541 40.5205 20.3146C39.9672 20.0882 39.3323 20.212 38.9046 20.6297C37.4458 22.054 36.1336 23.3301 34.9541 24.4726C34.6606 24.7569 34.4958 25.1486 34.4978 25.5572C34.4992 25.8653 34.5 26.1796 34.5 26.5C34.5 30.6455 34.3721 33.7579 34.228 35.9487C34.1091 37.7561 32.7561 39.1091 30.9487 39.228C28.7579 39.3721 25.6455 39.5 21.5 39.5C17.3545 39.5 14.2421 39.3721 12.0513 39.228C10.2439 39.1091 8.89093 37.7561 8.77204 35.9487C8.62793 33.7579 8.5 30.6455 8.5 26.5C8.5 22.3545 8.62793 19.2421 8.77205 17.0513C8.89093 15.2439 10.2439 13.8909 12.0513 13.772C14.2421 13.6279 17.3545 13.5 21.5 13.5C21.7375 13.5 21.9716 13.5004 22.2024 13.5012C22.6117 13.5027 23.0038 13.3368 23.2878 13.0421C24.4248 11.8623 25.6987 10.5499 27.1251 9.09146C27.5435 8.66367 27.6677 8.02813 27.441 7.47435C27.2143 6.92057 26.6801 6.55451 26.0818 6.54292C24.6764 6.51569 23.1505 6.5 21.5 6.5Z"></path></svg>