<svg xmlns="http://www.w3.org/2000/svg" fill="none" viewBox="0 0 48 48"><path fill="currentColor" d="M17.0231 12.5569C14.6192 13.9368 13 16.5293 13 19.5C13 23.9183 16.5817 27.5 21 27.5C25.4183 27.5 29 23.9183 29 19.5C29 16.5293 27.3808 13.9368 24.9769 12.5569C24.991 11.6771 25 10.6607 25 9.5C25 6.94859 24.9564 5.09464 24.9109 3.85475C24.8669 2.65547 24.0558 1.66803 22.8597 1.57038C22.3494 1.52871 21.7321 1.5 21 1.5C20.2679 1.5 19.6506 1.52871 19.1403 1.57038C17.9442 1.66803 17.1331 2.65547 17.0891 3.85475C17.0436 5.09464 17 6.94859 17 9.5C17 10.6607 17.009 11.6771 17.0231 12.5569Z"></path><path fill="currentColor" d="M28 9.4999C28 10.0326 27.9981 10.5359 27.9947 11.0103C30.4371 13.0251 32 16.0787 32 19.4999C32 24.3373 28.8774 28.4454 24.538 29.9186C27.0314 31.5169 30.0784 32.4999 33 32.4999C33.8284 32.4999 34.5 33.1715 34.5 33.9999C34.5 34.8283 33.8284 35.4999 33 35.4999C28.3985 35.4999 23.6451 33.5172 20.3773 30.4826C14.5919 30.1597 10 25.3661 10 19.4999C10 16.0787 11.5629 13.0251 14.0053 11.0103C14.0019 10.5359 14 10.0326 14 9.49989C14 6.91443 14.0442 5.02374 14.0911 3.74469C14.1008 3.48106 14.1295 3.21775 14.1767 2.95739C7.31967 5.80291 2.5 12.5084 2.5 20.3331C2.5 26.407 5.40559 31.8079 9.91173 35.2503V42.6081C9.91173 44.1147 10.8939 45.477 12.4311 45.7631C14.2831 46.1078 17.3159 46.4998 21.5293 46.4998C25.7427 46.4998 28.7756 46.1078 30.6275 45.7631C32.1647 45.477 33.1469 44.1147 33.1469 42.6081V39.6906L35.6662 40.0022C37.6378 40.2461 39.4168 38.802 39.5835 36.8224L40.1587 29.9924C41.8315 29.5502 43.0771 28.9437 43.9297 28.4223C45.0548 27.7343 45.128 26.3203 44.4349 25.354L40.5546 19.9442C40.389 11.8562 35.0737 5.02474 27.7263 2.52124C27.8321 2.9216 27.8938 3.33276 27.9089 3.74469C27.9558 5.02374 28 6.91444 28 9.4999Z"></path></svg>