<svg xmlns="http://www.w3.org/2000/svg" fill="none" viewBox="0 0 48 48"><path fill="currentColor" fill-rule="evenodd" d="M39.8643 2.04389C36.5927 1.77808 31.4014 1.5 24 1.5C16.5986 1.5 11.4073 1.77808 8.1357 2.04389C4.84785 2.31102 2.31103 4.84784 2.04389 8.13569C1.77808 11.4073 1.5 16.5986 1.5 24C1.5 31.4014 1.77807 36.5927 2.04389 39.8643C2.31102 43.1522 4.84785 45.689 8.1357 45.9561C11.4073 46.2219 16.5986 46.5 24 46.5C31.4014 46.5 36.5927 46.2219 39.8643 45.9561C43.1521 45.689 45.689 43.1522 45.9561 39.8643C46.2219 36.5927 46.5 31.4014 46.5 24C46.5 16.5986 46.2219 11.4073 45.9561 8.13571C45.689 4.84785 43.1521 2.31103 39.8643 2.04389ZM20.1562 33.8197C20.2011 34.8412 20.8271 35.7101 21.8388 35.8579C22.3945 35.939 23.1086 36 24 36C24.8914 36 25.6055 35.939 26.1612 35.8579C27.1729 35.7101 27.7989 34.8412 27.8438 33.8197C27.8946 32.666 27.952 30.8115 27.981 27.981C30.8115 27.952 32.666 27.8946 33.8197 27.8438C34.8412 27.7989 35.7101 27.1729 35.8579 26.1612C35.939 25.6055 36 24.8914 36 24C36 23.1086 35.939 22.3945 35.8579 21.8388C35.7101 20.8271 34.8412 20.2011 33.8197 20.1562C32.666 20.1054 30.8115 20.048 27.981 20.019C27.952 17.1885 27.8946 15.334 27.8438 14.1803C27.7989 13.1588 27.1729 12.2899 26.1612 12.1421C25.6055 12.061 24.8914 12 24 12C23.1086 12 22.3945 12.061 21.8388 12.1421C20.8271 12.2899 20.2011 13.1588 20.1562 14.1803C20.1054 15.334 20.048 17.1885 20.019 20.019C17.1885 20.048 15.334 20.1054 14.1803 20.1562C13.1588 20.2011 12.2899 20.8271 12.1421 21.8388C12.061 22.3945 12 23.1086 12 24C12 24.8914 12.061 25.6055 12.1421 26.1612C12.2899 27.1729 13.1588 27.7989 14.1803 27.8438C15.334 27.8946 17.1885 27.952 20.019 27.981C20.048 30.8115 20.1054 32.666 20.1562 33.8197Z" clip-rule="evenodd"></path></svg>