<svg xmlns="http://www.w3.org/2000/svg" fill="none" viewBox="0 0 48 48"><path fill="currentColor" fill-rule="evenodd" d="M8.13571 2.04389C11.4073 1.77807 16.5986 1.5 24 1.5C31.4014 1.5 36.5927 1.77808 39.8643 2.0439C43.1522 2.31103 45.689 4.84786 45.9561 8.13571C46.2219 11.4073 46.5 16.5986 46.5 24C46.5 31.4014 46.2219 36.5927 45.9561 39.8643C45.689 43.1521 43.1521 45.689 39.8643 45.9561C36.5927 46.2219 31.4014 46.5 24 46.5C16.5986 46.5 11.4073 46.2219 8.13569 45.9561C4.84784 45.689 2.31102 43.1521 2.04389 39.8643C1.77807 36.5927 1.5 31.4014 1.5 24C1.5 16.5986 1.77808 11.4073 2.0439 8.13569C2.31103 4.84784 4.84786 2.31102 8.13571 2.04389ZM24 39C32.2843 39 39 32.2843 39 24C39 15.7157 32.2843 9 24 9C15.7157 9 9 15.7157 9 24C9 32.2843 15.7157 39 24 39Z" clip-rule="evenodd"></path><path fill="currentColor" fill-rule="evenodd" d="M24 12.5C25.3807 12.5 26.5 13.6193 26.5 15V22.9645L31.7678 28.2322C32.7441 29.2085 32.7441 30.7915 31.7678 31.7678C30.7915 32.7441 29.2085 32.7441 28.2322 31.7678L22.2322 25.7678C21.7634 25.2989 21.5 24.663 21.5 24V15C21.5 13.6193 22.6193 12.5 24 12.5Z" clip-rule="evenodd"></path></svg>