<svg xmlns="http://www.w3.org/2000/svg" fill="none" viewBox="0 0 48 48"><path fill="currentColor" d="M28 4C38.2705 4 42.3355 4.12616 43.8426 4.20049C44.6274 4.2392 45.5872 4.68189 45.8316 5.75665C45.9295 6.18725 46 6.75522 46 7.5C46 8.24478 45.9295 8.81275 45.8316 9.24335C45.5872 10.3181 44.6274 10.7608 43.8426 10.7995C42.3355 10.8738 38.2705 11 28 11C17.7295 11 13.6645 10.8738 12.1574 10.7995C11.3726 10.7608 10.4128 10.3181 10.1684 9.24335C10.0705 8.81275 10 8.24478 10 7.5C10 6.75522 10.0705 6.18725 10.1684 5.75665C10.4128 4.68189 11.3726 4.2392 12.1574 4.20049C13.6645 4.12616 17.7295 4 28 4Z"></path><path fill="currentColor" d="M2 24C2 22.3173 2.04024 21.0083 2.09804 19.9954C2.16363 18.8461 2.7414 17.8861 3.67742 17.4116C4.60862 16.9395 5.72327 17.0343 6.69348 17.6323C7.41989 18.0801 8.29532 18.6463 9.33085 19.3575C10.4865 20.1513 11.3524 20.8322 12.0006 21.4012C12.7932 22.0969 13.2414 23.0215 13.2414 24C13.2414 24.9785 12.793 25.9031 12.0005 26.5987C11.3523 27.1676 10.4865 27.8486 9.33092 28.6424C8.29509 29.354 7.41946 29.9204 6.69291 30.3682C5.72282 30.9662 4.60831 31.061 3.67722 30.5889C2.74133 30.1144 2.16369 29.1545 2.09809 28.0054C2.04026 26.9924 2 25.6832 2 24Z"></path><path fill="currentColor" d="M32 33C39.2579 33 42.4722 32.8923 43.8378 32.8168C44.7492 32.7663 45.7283 32.1895 45.9004 31.0385C45.9591 30.6461 46 30.1426 46 29.5C46 28.8574 45.9591 28.3539 45.9004 27.9615C45.7283 26.8105 44.7492 26.2337 43.8378 26.1832C42.4722 26.1077 39.2579 26 32 26C24.7421 26 21.5278 26.1077 20.1622 26.1832C19.2508 26.2337 18.2717 26.8105 18.0996 27.9615C18.0409 28.3539 18 28.8574 18 29.5C18 30.1426 18.0409 30.6461 18.0996 31.0385C18.2717 32.1895 19.2508 32.7663 20.1622 32.8168C21.5278 32.8923 24.7421 33 32 33Z"></path><path fill="currentColor" d="M28 37C38.2705 37 42.3355 37.1262 43.8426 37.2005C44.6274 37.2392 45.5872 37.6819 45.8316 38.7566C45.9295 39.1873 46 39.7552 46 40.5C46 41.2448 45.9295 41.8127 45.8316 42.2433C45.5872 43.3181 44.6274 43.7608 43.8426 43.7995C42.3355 43.8738 38.2705 44 28 44C17.7295 44 13.6645 43.8738 12.1574 43.7995C11.3726 43.7608 10.4128 43.3181 10.1684 42.2433C10.0705 41.8127 10 41.2448 10 40.5C10 39.7552 10.0705 39.1873 10.1684 38.7567C10.4128 37.6819 11.3726 37.2392 12.1574 37.2005C13.6645 37.1262 17.7295 37 28 37Z"></path><path fill="currentColor" d="M32 22C39.2579 22 42.4722 21.8923 43.8378 21.8168C44.7492 21.7663 45.7283 21.1895 45.9004 20.0385C45.9591 19.6461 46 19.1426 46 18.5C46 17.8574 45.9591 17.3539 45.9004 16.9615C45.7283 15.8105 44.7492 15.2337 43.8378 15.1832C42.4722 15.1077 39.2579 15 32 15C24.7421 15 21.5278 15.1077 20.1622 15.1832C19.2508 15.2337 18.2717 15.8105 18.0996 16.9615C18.0409 17.3539 18 17.8574 18 18.5C18 19.1426 18.0409 19.6461 18.0996 20.0385C18.2717 21.1895 19.2508 21.7663 20.1622 21.8168C21.5278 21.8923 24.7421 22 32 22Z"></path></svg>