<svg xmlns="http://www.w3.org/2000/svg" fill="none" viewBox="0 0 48 48"><path fill="currentColor" d="M23.9998 1.5C38.0665 1.5 43.239 1.59657 44.2988 1.62032C44.597 1.627 45.1963 1.69366 45.6933 2.1814C46.1193 2.59948 46.4998 3.28196 46.4998 4.25C46.4998 5.21804 46.1193 5.90052 45.6933 6.3186C45.1963 6.80634 44.597 6.873 44.2988 6.87968C43.239 6.90343 38.0665 7 23.9998 7C9.93298 7 4.76054 6.90343 3.70073 6.87968C3.4025 6.873 2.80323 6.80634 2.30622 6.3186C1.8802 5.90052 1.49976 5.21804 1.49976 4.25C1.49976 3.28196 1.8802 2.59948 2.30622 2.1814C2.80323 1.69366 3.4025 1.627 3.70073 1.62032C4.76054 1.59657 9.93298 1.5 23.9998 1.5Z"></path><path fill="currentColor" d="M23.9998 46.5C38.0665 46.5 43.239 46.4034 44.2988 46.3797C44.597 46.373 45.1963 46.3063 45.6933 45.8186C46.1193 45.4005 46.4998 44.718 46.4998 43.75C46.4998 42.782 46.1193 42.0995 45.6933 41.6814C45.1963 41.1937 44.597 41.127 44.2988 41.1203C43.239 41.0966 38.0665 41 23.9998 41C9.93298 41 4.76054 41.0966 3.70073 41.1203C3.4025 41.127 2.80323 41.1937 2.30622 41.6814C1.8802 42.0995 1.49976 42.782 1.49976 43.75C1.49976 44.718 1.8802 45.4005 2.30622 45.8186C2.80323 46.3063 3.4025 46.373 3.70073 46.3797C4.76054 46.4034 9.93298 46.5 23.9998 46.5Z"></path><path fill="currentColor" d="M23.9998 15.5C18.5972 15.5 15.1748 15.6429 13.0811 15.79C10.6294 15.9623 8.79197 17.8724 8.62919 20.2861C8.55772 21.3459 8.49975 22.6275 8.49975 24C8.49975 25.3725 8.55772 26.6541 8.62919 27.7139C8.79197 30.1276 10.6294 32.0377 13.0811 32.21C15.1748 32.3571 18.5972 32.5 23.9998 32.5C29.4024 32.5 32.8247 32.3571 34.9184 32.21C37.3701 32.0377 39.2075 30.1276 39.3703 27.7139C39.4418 26.6541 39.4998 25.3725 39.4998 24C39.4998 22.6275 39.4418 21.3459 39.3703 20.2861C39.2075 17.8724 37.3701 15.9623 34.9184 15.79C32.8247 15.6429 29.4024 15.5 23.9998 15.5Z"></path></svg>