<svg xmlns="http://www.w3.org/2000/svg" fill="none" viewBox="0 0 48 48"><path fill="currentColor" fill-rule="evenodd" d="M41 10.4998V13.0465L43.2572 12.1436C44.2828 11.7334 45.4467 12.2322 45.8569 13.2578C46.2672 14.2833 45.7683 15.4473 44.7428 15.8575L42.2103 16.8705L44.0781 19.2719C44.7563 20.1438 44.5992 21.4004 43.7273 22.0785C42.8554 22.7567 41.5989 22.5996 40.9207 21.7277L38.9994 19.2575L37.0781 21.7277C36.4 22.5996 35.1434 22.7567 34.2715 22.0785C33.3996 21.4004 33.2426 20.1438 33.9207 19.2719L35.7888 16.8701L33.2572 15.8575C32.2316 15.4473 31.7328 14.2833 32.143 13.2578C32.5533 12.2322 33.7172 11.7334 34.7428 12.1436L37 13.0465V10.4998C37 9.39526 37.8954 8.49982 39 8.49982C40.1046 8.49982 41 9.39526 41 10.4998Z" clip-rule="evenodd"></path><path fill="currentColor" d="M27.926 9C28.4412 9 28.8699 9.38986 28.9019 9.9041C28.9813 11.1819 29.0803 13.6678 28.8921 16.4064C28.8619 16.8459 28.5393 17.2075 28.1019 17.2596C27.4863 17.3329 26.5667 17.3926 25.6763 17.2616C25.3165 17.2087 25.0423 16.9276 24.9515 16.5754L24.5454 15H18.7692V34.4792L20.5993 34.4931C21.1113 34.497 21.5361 34.8868 21.5631 35.398C21.6006 36.1088 21.6285 37.1443 21.5577 38.1399C21.5224 38.6354 21.0987 39 20.602 39H9.38398C8.89349 39 8.47373 38.644 8.43906 38.1548C8.37139 37.1998 8.40152 36.1365 8.43945 35.4042C8.46608 34.8902 8.89255 34.497 9.40724 34.4931L11.2308 34.4792V15H5.45457L5.0487 16.5753C4.95795 16.9276 4.68372 17.2087 4.32385 17.2617C3.43342 17.3926 2.51381 17.3329 1.8982 17.2596C1.46076 17.2075 1.13818 16.8459 1.10796 16.4064C0.919647 13.6678 1.01867 11.1819 1.09813 9.90406C1.13011 9.38984 1.55882 9 2.07404 9H27.926Z"></path></svg>