<svg xmlns="http://www.w3.org/2000/svg" fill="none" viewBox="0 0 48 48"><path fill="currentColor" d="M16.3007 44.9999C17.6618 44.9999 18.8357 44.9064 19.7454 44.7964C20.9903 44.646 21.8925 43.623 22.031 42.3767L23.9393 25.2001C23.9393 25.2001 24.2463 20.8001 24.5504 19.7001C24.8545 18.6001 28.4004 15.8501 28.4004 15.8501C21.085 15.8501 14.5297 15.8501 9.68253 16.1659C8.0325 16.2734 6.67532 17.4538 6.34808 19.0746C5.83315 21.625 5.15497 25.7088 5.02316 30.0341C4.99658 30.9065 5.56976 31.6693 6.42873 31.8236C7.22152 31.9661 8.33275 32.1178 9.73321 32.1923L10.6151 42.3187C10.7261 43.594 11.6382 44.6518 12.9094 44.8028C13.8114 44.91 14.9661 44.9999 16.3007 44.9999Z"></path><path fill="currentColor" d="M25.5032 38.2931L25.9655 42.3816C26.1062 43.6255 27.0076 44.6455 28.2504 44.796C29.1606 44.9061 30.3362 45 31.6994 45C33.034 45 34.1887 44.91 35.0907 44.8029C36.3619 44.6519 37.274 43.594 37.385 42.3187L38.2669 32.1924C39.6674 32.1178 40.7787 31.9661 41.5715 31.8236C42.4304 31.6693 43.0036 30.9065 42.977 30.0342C42.8474 25.7813 42.1896 21.7619 41.6781 19.2041C41.3411 17.5193 39.8943 16.3205 38.1797 16.2113C36.4112 16.0986 34.798 16.0064 33.1754 15.9434L30.2389 18.2207C28.6196 19.4766 28.002 20.3121 27.6609 21.0956C27.274 21.9841 27.0911 23.1301 26.9321 25.4089L26.9278 25.4702L25.5032 38.2931Z"></path><circle cx="32" cy="8" r="6" fill="currentColor"></circle><circle r="6" fill="currentColor" transform="matrix(-1 0 0 1 16 8)"></circle></svg>