<svg xmlns="http://www.w3.org/2000/svg" fill="none" viewBox="0 0 48 48"><path fill="currentColor" fill-rule="evenodd" d="M10.4245 9.01144C7.02051 8.91234 8.12975 15.0081 8.90134 17.7515C9.09786 18.4502 9.12288 19.2212 8.63973 19.7629C8.02853 20.448 6.87862 21.2394 4.86198 21.1394C3.87599 21.0905 3.07301 20.3677 2.80283 19.4182C1.00121 13.0866 1.68342 2.74466 10.619 3.00482C17.7756 3.21318 22.061 10.8962 23.6804 16.5575C25.1634 16.5344 26.6507 16.7211 28.0947 17.1775C31.1375 18.1392 32.8365 20.2159 33.7709 22.3708C34.9435 21.5832 36.4008 21.0296 38.1843 21.0296C42.0061 21.0296 44.7943 23.4723 46.3217 26.4294C46.8087 27.3722 46.5873 28.5211 45.7098 29.1178C44.9015 29.6674 43.7537 30.2142 42.3823 30.2185C41.4163 30.2215 40.7197 29.431 40.2202 28.6042C39.4783 27.3764 38.6462 27.0391 38.1843 27.0391C36.8146 27.0391 35.8965 28.7893 35.3705 30.2603C35.0604 31.1276 34.4554 31.8916 33.5457 32.0362C32.6709 32.1752 31.4663 32.2048 30.1636 31.7599C29.1899 31.4275 28.6866 30.4214 28.6633 29.3928C28.6314 27.9909 28.5276 26.6387 28.192 25.4572C27.7011 23.7293 26.62 22.8089 24.7927 22.6119C24.8936 23.72 24.9463 24.8652 24.9463 26.0448C24.9463 34.9385 21.8944 40.577 17.4472 43.2824C13.2469 45.8376 7.80054 45.5296 4.96535 42.4405C-0.41381 36.5794 3.10026 28.6213 8.09044 23.7456C10.7026 21.1935 13.9858 19.045 17.4599 17.7759C16.6358 15.0617 14.2713 9.12344 10.4245 9.01144ZM18.5374 23.8751C16.4194 24.8342 14.3528 26.2563 12.639 27.9307C10.0798 30.4312 6.71476 35.1921 9.74667 38.4956C10.0295 38.8037 11.7937 39.5816 14.0245 38.2245C16.0084 37.0176 18.6082 33.7457 18.6082 26.0448C18.6082 25.2982 18.5838 24.5749 18.5374 23.8751Z" clip-rule="evenodd"></path><path fill="currentColor" fill-rule="evenodd" d="M25.5 38C25.5 37.1716 26.1716 36.5 27 36.5H45C45.8284 36.5 46.5 37.1716 46.5 38C46.5 38.8284 45.8284 39.5 45 39.5H27C26.1716 39.5 25.5 38.8284 25.5 38Z" clip-rule="evenodd"></path></svg>