<svg xmlns="http://www.w3.org/2000/svg" fill="none" viewBox="0 0 48 48"><path fill="currentColor" d="M8 17.5C4.41015 17.5 1.5 20.4101 1.5 24C1.5 27.5899 4.41015 30.5 8 30.5C11.5899 30.5 14.5 27.5899 14.5 24C14.5 20.4101 11.5899 17.5 8 17.5Z"></path><path fill="currentColor" d="M40 17.5C36.4101 17.5 33.5 20.4101 33.5 24C33.5 27.5899 36.4101 30.5 40 30.5C43.5899 30.5 46.5 27.5899 46.5 24C46.5 20.4101 43.5899 17.5 40 17.5Z"></path><path fill="currentColor" d="M24 17.5C20.4101 17.5 17.5 20.4101 17.5 24C17.5 27.5899 20.4101 30.5 24 30.5C27.5899 30.5 30.5 27.5899 30.5 24C30.5 20.4101 27.5899 17.5 24 17.5Z"></path></svg>