<svg xmlns="http://www.w3.org/2000/svg" fill="none" viewBox="0 0 48 48"><path fill="currentColor" d="M19 22.5C12.3999 22.5 8.33671 22.3493 5.99912 22.2114C3.70842 22.0762 1.82271 20.3964 1.65132 17.9996C1.56631 16.8109 1.5 15.1842 1.5 13C1.5 10.8158 1.56631 9.18914 1.65132 8.00042C1.82271 5.60358 3.70842 3.92381 5.99912 3.78865C8.33671 3.65072 12.3999 3.5 19 3.5C25.6001 3.5 29.6633 3.65072 32.0009 3.78865C34.2916 3.92381 36.1773 5.60358 36.3487 8.00042C36.4337 9.18914 36.5 10.8158 36.5 13C36.5 15.1842 36.4337 16.8109 36.3487 17.9996C36.1773 20.3964 34.2916 22.0762 32.0009 22.2114C29.6633 22.3493 25.6001 22.5 19 22.5Z"></path><path fill="currentColor" d="M29 44.5C22.3999 44.5 18.3367 44.3493 15.9991 44.2113C13.7084 44.0762 11.8227 42.3964 11.6513 39.9996C11.5663 38.8109 11.5 37.1842 11.5 35C11.5 32.8158 11.5663 31.1891 11.6513 30.0004C11.8227 27.6036 13.7084 25.9238 15.9991 25.7886C18.3367 25.6507 22.3999 25.5 29 25.5C35.6001 25.5 39.6633 25.6507 42.0009 25.7886C44.2916 25.9238 46.1773 27.6036 46.3487 30.0004C46.4337 31.1891 46.5 32.8158 46.5 35C46.5 37.1842 46.4337 38.8109 46.3487 39.9996C46.1773 42.3964 44.2916 44.0762 42.0009 44.2113C39.6633 44.3493 35.6001 44.5 29 44.5Z"></path></svg>