<svg xmlns="http://www.w3.org/2000/svg" fill="none" viewBox="0 0 48 48"><path fill="currentColor" d="M8 9.5C4.41015 9.5 1.5 12.4101 1.5 16C1.5 19.5899 4.41015 22.5 8 22.5C11.5899 22.5 14.5 19.5899 14.5 16C14.5 12.4101 11.5899 9.5 8 9.5Z"></path><path fill="currentColor" d="M40 9.5C36.4101 9.5 33.5 12.4101 33.5 16C33.5 19.5899 36.4101 22.5 40 22.5C43.5899 22.5 46.5 19.5899 46.5 16C46.5 12.4101 43.5899 9.5 40 9.5Z"></path><path fill="currentColor" d="M24 9.5C20.4101 9.5 17.5 12.4101 17.5 16C17.5 19.5899 20.4101 22.5 24 22.5C27.5899 22.5 30.5 19.5899 30.5 16C30.5 12.4101 27.5899 9.5 24 9.5Z"></path><path fill="currentColor" d="M8 25.5C4.41015 25.5 1.5 28.4101 1.5 32C1.5 35.5899 4.41015 38.5 8 38.5C11.5899 38.5 14.5 35.5899 14.5 32C14.5 28.4101 11.5899 25.5 8 25.5Z"></path><path fill="currentColor" d="M40 25.5C36.4101 25.5 33.5 28.4101 33.5 32C33.5 35.5899 36.4101 38.5 40 38.5C43.5899 38.5 46.5 35.5899 46.5 32C46.5 28.4101 43.5899 25.5 40 25.5Z"></path><path fill="currentColor" d="M24 25.5C20.4101 25.5 17.5 28.4101 17.5 32C17.5 35.5899 20.4101 38.5 24 38.5C27.5899 38.5 30.5 35.5899 30.5 32C30.5 28.4101 27.5899 25.5 24 25.5Z"></path></svg>