<svg xmlns="http://www.w3.org/2000/svg" fill="none" viewBox="0 0 48 48"><path fill="currentColor" d="M31 1C29.8954 1 29 1.89543 29 3V45C29 46.1046 29.8954 47 31 47C32.1046 47 33 46.1046 33 45V3C33 1.89543 32.1046 1 31 1Z"></path><path fill="currentColor" d="M45.5 24C45.5 22.3251 45.4599 21.0257 45.4028 20.0239C45.3459 19.0277 44.8527 18.2409 44.0965 17.8575C43.3427 17.4754 42.4134 17.5375 41.5689 18.058C40.85 18.5011 39.9815 19.0628 38.9522 19.7697C37.8103 20.554 36.9604 21.223 36.3293 21.777C35.6328 22.3883 35.2586 23.1806 35.2586 24C35.2586 24.8193 35.6329 25.6116 36.3294 26.2229C36.9605 26.7769 37.8103 27.4459 38.9522 28.2303C39.9817 28.9375 40.8504 29.4994 41.5694 29.9426C42.4138 30.463 43.343 30.5251 44.0967 30.143C44.8527 29.7596 45.3459 28.9729 45.4027 27.9769C45.4599 26.975 45.5 25.6754 45.5 24Z"></path><path fill="currentColor" d="M14.5 2C20.6771 2 23.5479 2.09963 24.8382 2.17478C25.8021 2.23091 26.774 2.86405 26.9202 4.03427C26.9674 4.4122 27 4.89259 27 5.5C27 6.10741 26.9674 6.5878 26.9202 6.96573C26.774 8.13595 25.8021 8.76909 24.8382 8.82522C23.5479 8.90037 20.6771 9 14.5 9C8.32286 9 5.45211 8.90037 4.16176 8.82522C3.1979 8.76909 2.22599 8.13595 2.07981 6.96573C2.03259 6.5878 2 6.10741 2 5.5C2 4.89259 2.03259 4.4122 2.07981 4.03427C2.22599 2.86405 3.1979 2.23091 4.16176 2.17478C5.45211 2.09963 8.32286 2 14.5 2Z"></path><path fill="currentColor" d="M19 39C22.1515 39 23.904 39.0698 24.8675 39.1379C25.9768 39.2163 26.8838 40.0251 26.9622 41.2081C26.9847 41.5485 27 41.9732 27 42.5C27 43.0268 26.9847 43.4515 26.9622 43.7919C26.8838 44.9749 25.9768 45.7837 24.8675 45.8621C23.904 45.9302 22.1515 46 19 46C15.8485 46 14.096 45.9302 13.1325 45.8621C12.0232 45.7837 11.1162 44.9749 11.0378 43.7919C11.0153 43.4515 11 43.0268 11 42.5C11 41.9732 11.0153 41.5485 11.0378 41.2081C11.1162 40.0251 12.0232 39.2163 13.1325 39.1379C14.096 39.0698 15.8485 39 19 39Z"></path><path fill="currentColor" d="M15.5 34C20.9731 34 23.607 33.9062 24.8393 33.8317C25.8388 33.7713 26.8023 33.0981 26.9318 31.9186C26.9723 31.5503 27 31.0849 27 30.5C27 29.9151 26.9723 29.4497 26.9318 29.0814C26.8023 27.9019 25.8388 27.2287 24.8393 27.1683C23.607 27.0938 20.9731 27 15.5 27C10.0269 27 7.39301 27.0938 6.16066 27.1683C5.16117 27.2287 4.19771 27.9019 4.06819 29.0814C4.02774 29.4497 4 29.9151 4 30.5C4 31.0849 4.02774 31.5503 4.06819 31.9186C4.19771 33.0981 5.16117 33.7713 6.16066 33.8317C7.39301 33.9062 10.0269 34 15.5 34Z"></path><path fill="currentColor" d="M17.5 21C21.6128 21 23.753 20.9193 24.8465 20.8475C25.9112 20.7777 26.8519 20.027 26.951 18.8366C26.9802 18.4858 27 18.0466 27 17.5C27 16.9534 26.9802 16.5142 26.951 16.1634C26.8519 14.973 25.9112 14.2223 24.8465 14.1525C23.753 14.0807 21.6128 14 17.5 14C13.3872 14 11.247 14.0807 10.1535 14.1525C9.08884 14.2223 8.14805 14.973 8.04901 16.1634C8.01982 16.5142 8 16.9534 8 17.5C8 18.0466 8.01982 18.4858 8.04901 18.8366C8.14805 20.027 9.08884 20.7777 10.1535 20.8475C11.247 20.9193 13.3872 21 17.5 21Z"></path></svg>