<svg xmlns="http://www.w3.org/2000/svg" fill="none" viewBox="0 0 48 48"><path fill="currentColor" fill-rule="evenodd" d="M12.5 1.5C9.60722 1.5 7.18355 2.60868 5.46827 4.49453C3.77114 6.36041 2.84429 8.89817 2.72528 11.6679C2.59653 14.6644 2.5 18.6834 2.5 24C2.5 29.3166 2.59652 33.3356 2.72528 36.3321C2.84429 39.1018 3.77114 41.6396 5.46826 43.5055C7.18355 45.3913 9.60722 46.5 12.5 46.5C15.3928 46.5 17.8164 45.3913 19.5317 43.5055C21.2289 41.6396 22.1557 39.1018 22.2747 36.3321C22.4035 33.3356 22.5 29.3166 22.5 24C22.5 18.6834 22.4035 14.6644 22.2747 11.6679C22.1557 8.89818 21.2289 6.36041 19.5317 4.49453C17.8164 2.60869 15.3928 1.5 12.5 1.5ZM18 10.5C18 7.46243 15.5376 5 12.5 5C9.46243 5 7 7.46243 7 10.5C7 13.5376 9.46243 16 12.5 16C15.5376 16 18 13.5376 18 10.5Z" clip-rule="evenodd"></path><path fill="currentColor" fill-rule="evenodd" d="M35.5 1.5C32.6072 1.5 30.1835 2.60868 28.4683 4.49453C26.7711 6.36041 25.8443 8.89818 25.7253 11.6679C25.5965 14.6644 25.5 18.6834 25.5 24C25.5 29.3166 25.5965 33.3356 25.7253 36.3321C25.8443 39.1018 26.7711 41.6396 28.4683 43.5055C30.1835 45.3913 32.6072 46.5 35.5 46.5C38.3928 46.5 40.8164 45.3913 42.5317 43.5055C44.2289 41.6396 45.1557 39.1018 45.2747 36.3321C45.4035 33.3356 45.5 29.3166 45.5 24C45.5 18.6834 45.4035 14.6644 45.2747 11.6679C45.1557 8.89817 44.2289 6.36041 42.5317 4.49453C40.8164 2.60868 38.3928 1.5 35.5 1.5ZM35.5 43C32.4624 43 30 40.5376 30 37.5C30 34.4624 32.4624 32 35.5 32C38.5376 32 41 34.4624 41 37.5C41 40.5376 38.5376 43 35.5 43Z" clip-rule="evenodd"></path></svg>