<svg xmlns="http://www.w3.org/2000/svg" fill="none" viewBox="0 0 48 48"><path fill="currentColor" d="M17 1C18.1046 1 19 1.89543 19 3V45C19 46.1046 18.1046 47 17 47C15.8954 47 15 46.1046 15 45V3C15 1.89543 15.8954 1 17 1Z"></path><path fill="currentColor" d="M2.5 24C2.5 22.3251 2.54006 21.0257 2.59723 20.0239C2.65408 19.0277 3.14731 18.2409 3.9035 17.8575C4.65729 17.4754 5.58663 17.5375 6.43113 18.058C7.15003 18.5011 8.01854 19.0628 9.04778 19.7697C10.1897 20.554 11.0396 21.223 11.6707 21.777C12.3672 22.3883 12.7414 23.1806 12.7414 24C12.7414 24.8193 12.3671 25.6116 11.6706 26.2229C11.0395 26.7769 10.1897 27.4459 9.04781 28.2303C8.01829 28.9375 7.14958 29.4994 6.43056 29.9426C5.58618 30.463 4.65699 30.5251 3.90332 30.143C3.14726 29.7596 2.65413 28.9729 2.59728 27.9769C2.54008 26.975 2.5 25.6754 2.5 24Z"></path><path fill="currentColor" d="M33.5 2C27.3229 2 24.4521 2.09963 23.1618 2.17478C22.1979 2.23091 21.226 2.86405 21.0798 4.03427C21.0326 4.4122 21 4.89259 21 5.5C21 6.10741 21.0326 6.5878 21.0798 6.96573C21.226 8.13595 22.1979 8.76909 23.1618 8.82522C24.4521 8.90037 27.3229 9 33.5 9C39.6771 9 42.5479 8.90037 43.8382 8.82522C44.8021 8.76909 45.774 8.13595 45.9202 6.96573C45.9674 6.5878 46 6.10741 46 5.5C46 4.89259 45.9674 4.4122 45.9202 4.03427C45.774 2.86405 44.8021 2.23091 43.8382 2.17478C42.5479 2.09963 39.6771 2 33.5 2Z"></path><path fill="currentColor" d="M29 39C25.8485 39 24.096 39.0698 23.1325 39.1379C22.0232 39.2163 21.1162 40.0251 21.0378 41.2081C21.0153 41.5485 21 41.9732 21 42.5C21 43.0268 21.0153 43.4515 21.0378 43.7919C21.1162 44.9749 22.0232 45.7837 23.1325 45.8621C24.096 45.9302 25.8485 46 29 46C32.1515 46 33.904 45.9302 34.8675 45.8621C35.9768 45.7837 36.8838 44.9749 36.9622 43.7919C36.9847 43.4515 37 43.0268 37 42.5C37 41.9732 36.9847 41.5485 36.9622 41.2081C36.8838 40.0251 35.9768 39.2163 34.8675 39.1379C33.904 39.0698 32.1515 39 29 39Z"></path><path fill="currentColor" d="M32.5 34C27.0269 34 24.393 33.9062 23.1607 33.8317C22.1612 33.7713 21.1977 33.0981 21.0682 31.9186C21.0277 31.5503 21 31.0849 21 30.5C21 29.9151 21.0277 29.4497 21.0682 29.0814C21.1977 27.9019 22.1612 27.2287 23.1607 27.1683C24.393 27.0938 27.0269 27 32.5 27C37.9731 27 40.607 27.0938 41.8393 27.1683C42.8388 27.2287 43.8023 27.9019 43.9318 29.0814C43.9723 29.4497 44 29.9151 44 30.5C44 31.0849 43.9723 31.5503 43.9318 31.9186C43.8023 33.0981 42.8388 33.7713 41.8393 33.8317C40.607 33.9062 37.9731 34 32.5 34Z"></path><path fill="currentColor" d="M30.5 21C26.3872 21 24.247 20.9193 23.1535 20.8475C22.0888 20.7777 21.1481 20.027 21.049 18.8366C21.0198 18.4858 21 18.0466 21 17.5C21 16.9534 21.0198 16.5142 21.049 16.1634C21.1481 14.973 22.0888 14.2223 23.1535 14.1525C24.247 14.0807 26.3872 14 30.5 14C34.6128 14 36.753 14.0807 37.8465 14.1525C38.9112 14.2223 39.8519 14.973 39.951 16.1634C39.9802 16.5142 40 16.9534 40 17.5C40 18.0466 39.9802 18.4858 39.951 18.8366C39.8519 20.027 38.9112 20.7777 37.8465 20.8475C36.753 20.9193 34.6128 21 30.5 21Z"></path></svg>