<svg xmlns="http://www.w3.org/2000/svg" fill="none" viewBox="0 0 48 48"><path fill="currentColor" d="M19 13C20.6569 13 22 14.3431 22 16C22 17.6569 20.6569 19 19 19C17.3431 19 16 17.6569 16 16C16 14.3431 17.3431 13 19 13Z"></path><path fill="currentColor" d="M32 32C32 30.3431 30.6569 29 29 29C27.3431 29 26 30.3431 26 32C26 33.6569 27.3431 35 29 35C30.6569 35 32 33.6569 32 32Z"></path><path fill="currentColor" fill-rule="evenodd" d="M1.5 24C1.5 16.5986 1.77808 11.4073 2.0439 8.13569C2.31103 4.84784 4.84786 2.31102 8.13571 2.04389C11.4073 1.77807 16.5986 1.5 24 1.5C31.4015 1.5 36.5927 1.77808 39.8643 2.0439C43.1522 2.31103 45.689 4.84786 45.9561 8.13571C46.2219 11.4073 46.5 16.5986 46.5 24C46.5 31.4014 46.2219 36.5927 45.9561 39.8643C45.689 43.1521 43.1521 45.689 39.8643 45.9561C36.5927 46.2219 31.4014 46.5 24 46.5C16.5986 46.5 11.4073 46.2219 8.13569 45.9561C4.84784 45.689 2.31102 43.1521 2.04389 39.8643C1.77807 36.5927 1.5 31.4014 1.5 24ZM10 14H12.2899C13.1504 11.1085 15.829 9 19 9C22.171 9 24.8496 11.1085 25.7101 14H38C39.1046 14 40 14.8954 40 16C40 17.1046 39.1046 18 38 18H25.7101C24.8496 20.8915 22.171 23 19 23C15.829 23 13.1504 20.8915 12.2899 18H10C8.89543 18 8 17.1046 8 16C8 14.8954 8.89543 14 10 14ZM22.2899 30C23.1504 27.1085 25.829 25 29 25C32.171 25 34.8496 27.1085 35.7101 30H38C39.1046 30 40 30.8954 40 32C40 33.1046 39.1046 34 38 34H35.7101C34.8496 36.8915 32.171 39 29 39C25.829 39 23.1504 36.8915 22.2899 34H10C8.89543 34 8 33.1046 8 32C8 30.8954 8.89543 30 10 30L22.2899 30Z" clip-rule="evenodd"></path></svg>