<svg xmlns="http://www.w3.org/2000/svg" fill="none" viewBox="0 0 48 48"><path fill="currentColor" d="M39.8643 2.04389C36.5927 1.77808 31.4015 1.5 24 1.5C16.5986 1.5 11.4074 1.77808 8.13574 2.04389C4.84789 2.31102 2.31106 4.84784 2.04393 8.13569C1.79644 11.1817 1.53833 15.8916 1.50391 22.5H46.4962C46.4617 15.8916 46.2036 11.1817 45.9561 8.13571C45.689 4.84785 43.1522 2.31103 39.8643 2.04389Z"></path><path fill="currentColor" d="M46.4962 25.5H1.50391C1.53833 32.1084 1.79644 36.8183 2.04392 39.8643C2.31105 43.1522 4.84788 45.689 8.13573 45.9561C11.4074 46.2219 16.5986 46.5 24 46.5C31.4015 46.5 36.5927 46.2219 39.8643 45.9561C43.1522 45.689 45.689 43.1522 45.9561 39.8643C46.2036 36.8183 46.4617 32.1084 46.4962 25.5Z"></path></svg>