<svg xmlns="http://www.w3.org/2000/svg" fill="none" viewBox="0 0 48 48"><path fill="currentColor" d="M46.5 20.5C46.5 24.4611 46.4276 27.488 46.3387 29.7128C46.1913 33.3988 43.2589 36.1952 39.6177 36.304C36.3017 36.4031 31.2155 36.5 24 36.5C16.7846 36.5 11.6983 36.4031 8.38229 36.304C4.74111 36.1952 1.80869 33.3988 1.66131 29.7128C1.57235 27.488 1.5 24.4611 1.5 20.5C1.5 16.5389 1.57235 13.512 1.66131 11.2872C1.80869 7.60121 4.74111 4.80482 8.3823 4.69598C11.6983 4.59686 16.7846 4.5 24 4.5C31.2154 4.5 36.3017 4.59686 39.6177 4.69598C43.2589 4.80482 46.1913 7.60122 46.3387 11.2872C46.4276 13.512 46.5 16.5389 46.5 20.5Z"></path><path fill="currentColor" d="M5.5 42C5.5 40.6193 6.61929 39.5 8 39.5H10C11.3807 39.5 12.5 40.6193 12.5 42C12.5 43.3807 11.3807 44.5 10 44.5H8C6.61929 44.5 5.5 43.3807 5.5 42Z"></path><path fill="currentColor" d="M18 39.5C16.6193 39.5 15.5 40.6193 15.5 42C15.5 43.3807 16.6193 44.5 18 44.5H20C21.3807 44.5 22.5 43.3807 22.5 42C22.5 40.6193 21.3807 39.5 20 39.5H18Z"></path><path fill="currentColor" d="M25.5 42C25.5 40.6193 26.6193 39.5 28 39.5H30C31.3807 39.5 32.5 40.6193 32.5 42C32.5 43.3807 31.3807 44.5 30 44.5H28C26.6193 44.5 25.5 43.3807 25.5 42Z"></path><path fill="currentColor" d="M38 39.5C36.6193 39.5 35.5 40.6193 35.5 42C35.5 43.3807 36.6193 44.5 38 44.5H40C41.3807 44.5 42.5 43.3807 42.5 42C42.5 40.6193 41.3807 39.5 40 39.5H38Z"></path></svg>