<svg xmlns="http://www.w3.org/2000/svg" fill="none" viewBox="0 0 48 48"><path fill="currentColor" d="M19 29L29 29V19L19 19V29Z"></path><path fill="currentColor" fill-rule="evenodd" d="M24 1.5C16.5986 1.5 11.4073 1.77808 8.1357 2.04389C4.84785 2.31102 2.31102 4.84785 2.04389 8.1357C1.77808 11.4073 1.5 16.5986 1.5 24C1.5 31.4014 1.77808 36.5927 2.04389 39.8643C2.31102 43.1522 4.84785 45.689 8.1357 45.9561C11.4073 46.2219 16.5986 46.5 24 46.5C31.4014 46.5 36.5927 46.2219 39.8643 45.9561C43.1521 45.689 45.689 43.1522 45.9561 39.8643C46.2219 36.5927 46.5 31.4014 46.5 24C46.5 16.5986 46.2219 11.4073 45.9561 8.1357C45.689 4.84785 43.1521 2.31102 39.8643 2.04389C36.5927 1.77808 31.4014 1.5 24 1.5ZM17 6C18.1046 6 19 6.89543 19 8V15L29 15V8C29 6.89543 29.8954 6 31 6C32.1046 6 33 6.89543 33 8V15H40C41.1046 15 42 15.8954 42 17C42 18.1046 41.1046 19 40 19H33V29H40C41.1046 29 42 29.8954 42 31C42 32.1046 41.1046 33 40 33H33V40C33 41.1046 32.1046 42 31 42C29.8954 42 29 41.1046 29 40V33L19 33V40C19 41.1046 18.1046 42 17 42C15.8954 42 15 41.1046 15 40V33H8C6.89543 33 6 32.1046 6 31C6 29.8954 6.89543 29 8 29H15V19H8C6.89543 19 6 18.1046 6 17C6 15.8954 6.89543 15 8 15H15V8C15 6.89543 15.8954 6 17 6Z" clip-rule="evenodd"></path></svg>