<svg xmlns="http://www.w3.org/2000/svg" fill="none" viewBox="0 0 48 48"><path fill="currentColor" fill-rule="evenodd" d="M39.8643 2.0439C36.5927 1.77808 31.4014 1.5 24 1.5C16.5986 1.5 11.4073 1.77807 8.13571 2.04388C4.84786 2.31102 2.31103 4.84784 2.0439 8.13569C1.77808 11.4073 1.5 16.5986 1.5 24C1.5 31.4014 1.77808 36.5927 2.04389 39.8643C2.31102 43.1522 4.84784 45.689 8.13569 45.9561C11.4073 46.2219 16.5985 46.5 24 46.5C31.4014 46.5 36.5927 46.2219 39.8643 45.9561C43.1521 45.689 45.689 43.1522 45.9561 39.8643C46.2219 36.5927 46.5 31.4015 46.5 24C46.5 16.5986 46.2219 11.4073 45.9561 8.13571C45.689 4.84786 43.1521 2.31103 39.8643 2.0439ZM16.4146 14.9839C15.1712 13.4109 16.0781 11.3307 18.0734 11.1339C23.0345 10.6444 28.7637 10.7694 33.328 11.0254C35.2978 11.1358 36.864 12.702 36.9745 14.6717C37.232 19.2588 37.3569 25.0222 36.8589 30.0001C36.6616 31.9731 34.6236 32.8715 33.066 31.6444C31.8017 30.6483 30.1466 29.2504 28.0669 27.3167C22.8156 31.9587 19.2186 35.0433 17.2259 36.7315C16.082 37.7006 14.4935 37.8908 13.347 36.9246C12.9971 36.6298 12.6103 36.2782 12.1936 35.8615C11.7731 35.4411 11.4163 35.0484 11.1156 34.6918C10.1308 33.524 10.3171 31.8967 11.3037 30.7304C12.9994 28.7259 16.0719 25.1352 20.6721 19.9089C18.7892 17.8763 17.4093 16.2423 16.4146 14.9839Z" clip-rule="evenodd"></path></svg>