<svg xmlns="http://www.w3.org/2000/svg" fill="none" viewBox="0 0 48 48"><path fill="currentColor" d="M46.2352 7.57968C44.8698 1.84002 37.5671 -0.356622 33 3.2848C28.4329 -0.356613 21.1302 1.84001 19.7648 7.57962C18.8167 11.3595 20.469 14.5177 22.6711 16.9513C24.778 19.2798 27.5891 21.1741 29.7004 22.5969L29.9325 22.7534C31.7842 24.0023 34.2158 24.0023 36.0675 22.7534L36.2996 22.5969C38.4109 21.1741 41.222 19.2798 43.3289 16.9513C45.531 14.5177 47.1833 11.3596 46.2352 7.57968Z"></path><path fill="currentColor" d="M1.36438 28.2604C1.4751 27.1433 2.23135 26.206 3.30321 25.8725C5.62469 25.1501 9.80968 24 12.9259 24C17.6032 24 22.8155 25.1515 25.6251 25.8738C26.9856 26.2236 28.2247 26.9874 28.819 28.2602C29.1036 28.8699 29.389 29.6331 29.6035 30.5499C30.0028 32.2568 28.4664 33.6558 26.7192 33.5133L19.0037 32.8844C18.1771 32.817 17.4691 33.4696 17.4691 34.2989C17.4691 34.9873 17.9618 35.5754 18.6423 35.6791C20.0672 35.8964 22.5012 36.2222 24.284 36.2222C28.0645 36.2222 38.1368 34.5296 41.412 33.9613C42.1118 33.8399 42.8255 33.7558 43.5051 33.9626C44.5004 34.2656 45.9424 35.0652 46.6205 37.1755C47.127 38.7516 45.9805 40.2799 44.4223 40.839C39.6362 42.5561 29.3998 46 24.284 46C17.5263 46 7.962 44.5956 3.72819 43.9158C2.43745 43.7086 1.45212 42.6762 1.32905 41.3747C1.17376 39.7325 1 37.3662 1 35C1 32.4522 1.20145 29.9044 1.36438 28.2604Z"></path></svg>