<svg xmlns="http://www.w3.org/2000/svg" fill="none" viewBox="0 0 48 48"><path fill="currentColor" d="M24 3.5C14.5633 3.5 9.04454 3.67913 6.11941 3.82443C3.79217 3.94002 1.82011 5.62666 1.64669 8.0946C1.56375 9.27497 1.5 10.8734 1.5 13C1.5 15.1266 1.56375 16.725 1.64669 17.9054C1.82011 20.3733 3.79217 22.06 6.11941 22.1756C9.04454 22.3209 14.5633 22.5 24 22.5C33.4367 22.5 38.9555 22.3209 41.8806 22.1756C44.2078 22.06 46.1799 20.3733 46.3533 17.9054C46.4363 16.725 46.5 15.1266 46.5 13C46.5 10.8734 46.4363 9.27497 46.3533 8.0946C46.1799 5.62666 44.2078 3.94002 41.8806 3.82443C38.9555 3.67913 33.4367 3.5 24 3.5Z"></path><path fill="currentColor" d="M24 25.5C14.5633 25.5 9.04454 25.6791 6.11941 25.8244C3.79217 25.94 1.82011 27.6267 1.64669 30.0946C1.56375 31.275 1.5 32.8734 1.5 35C1.5 37.1266 1.56375 38.725 1.64669 39.9054C1.82011 42.3733 3.79217 44.06 6.11941 44.1756C9.04454 44.3209 14.5633 44.5 24 44.5C33.4367 44.5 38.9555 44.3209 41.8806 44.1756C44.2078 44.06 46.1799 42.3733 46.3533 39.9054C46.4363 38.725 46.5 37.1266 46.5 35C46.5 32.8734 46.4363 31.275 46.3533 30.0946C46.1799 27.6267 44.2078 25.94 41.8806 25.8244C38.9555 25.6791 33.4367 25.5 24 25.5Z"></path></svg>