<svg xmlns="http://www.w3.org/2000/svg" fill="none" viewBox="0 0 48 48"><path fill="currentColor" d="M43.1934 5.74119C43.3644 6.86753 43.5 8.3576 43.5 10.25C43.5 12.1424 43.3644 13.6325 43.1934 14.7588C42.8392 17.0928 40.8327 18.4509 38.7497 18.5282C36.1234 18.6257 31.3365 18.75 24 18.75C16.6635 18.75 11.8766 18.6257 9.25028 18.5282C7.16733 18.4509 5.16077 17.0927 4.80656 14.7588C4.63561 13.6325 4.5 12.1424 4.5 10.25C4.5 8.3576 4.63561 6.86753 4.80656 5.74119C5.16078 3.40724 7.16734 2.04912 9.25028 1.97179C11.8766 1.8743 16.6635 1.75 24 1.75C31.3365 1.75 36.1234 1.8743 38.7497 1.9718C40.8327 2.04912 42.8392 3.40724 43.1934 5.74119Z"></path><path fill="currentColor" d="M43.1934 25.7412C43.3644 26.8675 43.5 28.3576 43.5 30.25C43.5 32.1424 43.3644 33.6325 43.1934 34.7588C42.8392 37.0928 40.8327 38.4509 38.7497 38.5282C37.318 38.5813 35.2443 38.6425 32.4654 38.6871C32.3342 38.5455 32.1987 38.3997 32.059 38.25C32.697 37.5666 33.2484 36.9642 33.6971 36.4682C35.5301 34.4422 35.3937 31.3819 33.5102 29.4984L32.7515 28.7397C30.868 26.8561 27.8077 26.7197 25.7817 28.5528C25.2857 29.0015 24.6833 29.5529 23.9998 30.1909C23.3163 29.5529 22.7139 29.0015 22.218 28.5528C20.1919 26.7197 17.1317 26.8561 15.2482 28.7397L14.4894 29.4984C12.6059 31.3819 12.4695 34.4422 14.3026 36.4682C14.7513 36.9642 15.3027 37.5666 15.9406 38.25C15.801 38.3997 15.6654 38.5455 15.5342 38.6871C12.7556 38.6425 10.6819 38.5813 9.25028 38.5282C7.16733 38.4509 5.16077 37.0927 4.80656 34.7588C4.63561 33.6325 4.5 32.1424 4.5 30.25C4.5 28.3576 4.63561 26.8675 4.80656 25.7412C5.16078 23.4072 7.16733 22.0491 9.25028 21.9718C11.8766 21.8743 16.6635 21.75 24 21.75C31.3365 21.75 36.1234 21.8743 38.7497 21.9718C40.8327 22.0491 42.8392 23.4072 43.1934 25.7412Z"></path><path fill="currentColor" d="M31.4726 42.0445C32.2102 42.8598 32.1665 44.1029 31.3891 44.8803L30.6303 45.6391C29.8529 46.4165 28.6098 46.4603 27.7945 45.7226C26.8597 44.8768 25.5351 43.6551 24 42.1724C22.4649 43.6551 21.1403 44.8768 20.2055 45.7226C19.3902 46.4602 18.1471 46.4165 17.3697 45.6391L16.6109 44.8803C15.8335 44.1029 15.7897 42.8598 16.5274 42.0445C17.3732 41.1097 18.5949 39.7851 20.0776 38.25C18.5949 36.7149 17.3732 35.3903 16.5274 34.4555C15.7898 33.6402 15.8335 32.3971 16.6109 31.6197L17.3697 30.8609C18.1471 30.0835 19.3902 30.0397 20.2055 30.7774C21.1403 31.6232 22.4649 32.8449 24 34.3276C25.5351 32.8449 26.8597 31.6232 27.7945 30.7774C28.6098 30.0397 29.8529 30.0835 30.6303 30.8609L31.3891 31.6197C32.1665 32.3971 32.2102 33.6402 31.4726 34.4555C30.6268 35.3903 29.4051 36.7149 27.9224 38.25C29.4051 39.7851 30.6268 41.1097 31.4726 42.0445Z"></path></svg>