<svg xmlns="http://www.w3.org/2000/svg" fill="none" viewBox="0 0 48 48"><path fill="currentColor" d="M28 26C28 26.9375 25 31 24 31C23 31 20 26.9375 20 26C20 25.0625 23 21 24 21C25 21 28 25.0625 28 26Z"></path><path fill="currentColor" fill-rule="evenodd" d="M2.0439 8.13569C1.77808 11.4073 1.5 16.5986 1.5 24C1.5 31.4014 1.77807 36.5927 2.04389 39.8643C2.31102 43.1521 4.84784 45.689 8.13569 45.9561C11.4073 46.2219 16.5986 46.5 24 46.5C31.4014 46.5 36.5927 46.2219 39.8643 45.9561C43.1521 45.689 45.689 43.1521 45.9561 39.8643C46.2219 36.5927 46.5 31.4014 46.5 24C46.5 16.5986 46.2219 11.4073 45.9561 8.13571C45.689 4.84786 43.1522 2.31103 39.8643 2.0439C36.5927 1.77808 31.4015 1.5 24 1.5C16.5986 1.5 11.4073 1.77807 8.13571 2.04389C4.84786 2.31102 2.31103 4.84784 2.0439 8.13569ZM17.4748 18.2592C17.9655 18.5992 18.638 18.4262 18.911 17.8953L22.222 11.4571C22.9662 10.0101 25.0337 10.0101 25.7779 11.4571L29.089 17.8953C29.362 18.4262 30.0345 18.5992 30.5251 18.2592C31.7796 17.3898 33.1335 16.3947 34.3398 15.4872C35.7396 14.4341 37.7404 15.5212 37.5569 17.2633C37.1467 21.1592 36.4682 26.8123 35.5906 31.303C35.2542 33.0245 34.0897 34.4534 32.4001 34.9249C30.5235 35.4486 27.6753 36 24 36C20.418 36 17.6216 35.4763 15.7447 34.9649C13.9689 34.481 12.7765 32.9496 12.4531 31.1377C11.5908 26.3055 10.9167 21.0037 10.4951 17.3246C10.2946 15.5744 12.3053 14.4687 13.7135 15.5272C14.9063 16.4239 16.2388 17.4026 17.4748 18.2592Z" clip-rule="evenodd"></path></svg>