<svg xmlns="http://www.w3.org/2000/svg" fill="none" viewBox="0 0 48 48"><path fill="currentColor" d="M8.5 11.4453L7.11752 9.88999C6.31372 8.98571 6.03395 7.73044 6.37766 6.57041L7.3497 3.28978C7.66423 2.22823 8.63953 1.5 9.7467 1.5H12.2533C13.3605 1.5 14.3358 2.22823 14.6503 3.28978L15.6224 6.57041C15.9661 7.73044 15.6863 8.98572 14.8825 9.88999L13.5 11.4453V23.5326C13.8952 23.5437 14.2561 23.5572 14.5847 23.5721C16.9836 23.681 18.8264 25.4847 19.0922 27.8221C19.2945 29.6012 19.5 32.1164 19.5 35C19.5 37.8836 19.2945 40.3988 19.0922 42.1779C18.8264 44.5153 16.9836 46.319 14.5846 46.4279C13.6606 46.4699 12.4815 46.5 11 46.5C9.51853 46.5 8.33945 46.4699 7.41542 46.4279C5.01641 46.319 3.17356 44.5153 2.90776 42.1779C2.70545 40.3988 2.5 37.8836 2.5 35C2.5 32.1164 2.70546 29.6012 2.90777 27.8221C3.17357 25.4847 5.01637 23.681 7.41535 23.5721C7.74394 23.5572 8.10478 23.5437 8.5 23.5326V11.4453Z"></path><path fill="currentColor" d="M26.0462 1.88094C27.8125 1.01165 29.5281 2.46719 29.5114 4.12088C29.4842 6.81664 29.5011 9.72316 29.6325 11.8662C30.1017 12.2979 30.9786 12.997 32.0873 13.418C33.1626 13.0097 34.0204 12.3395 34.5004 11.9044V4.09684C34.5004 2.44504 36.2193 1.02485 37.9663 1.88674C42.4268 4.0873 45.5004 8.68329 45.5004 13.9999C45.5004 19.1346 42.6334 23.5973 38.4195 25.8788C38.3234 30.1621 38.1123 36.3088 37.648 42.6363C37.5184 44.4037 36.2826 46.1175 34.2554 46.3659C33.6211 46.4436 32.8636 46.4999 32 46.4999C31.1364 46.4999 30.379 46.4436 29.7446 46.3659C27.7174 46.1175 26.4817 44.4037 26.352 42.6363C25.8877 36.3086 25.6766 30.1617 25.5805 25.8784C21.367 23.5968 18.5004 19.1343 18.5004 13.9999C18.5004 8.67862 21.5794 4.07923 26.0462 1.88094Z"></path></svg>