<svg xmlns="http://www.w3.org/2000/svg" fill="none" viewBox="0 0 48 48"><path fill="currentColor" fill-rule="evenodd" d="M8.1357 2.04389C11.4073 1.77808 16.5986 1.5 24 1.5C31.4014 1.5 36.5927 1.77808 39.8643 2.04389C43.1521 2.31102 45.689 4.84785 45.9561 8.1357C46.2219 11.4073 46.5 16.5986 46.5 24C46.5 31.4014 46.2219 36.5927 45.9561 39.8643C45.689 43.1522 43.1521 45.689 39.8643 45.9561C36.5927 46.2219 31.4014 46.5 24 46.5C16.5986 46.5 11.4073 46.2219 8.1357 45.9561C4.84785 45.689 2.31102 43.1522 2.04389 39.8643C1.77808 36.5927 1.5 31.4014 1.5 24C1.5 16.5986 1.77808 11.4073 2.04389 8.1357C2.31102 4.84785 4.84785 2.31102 8.1357 2.04389ZM11.6871 36.6543C11.3995 36.9418 11.5591 37.4215 11.9631 37.4678C13.6333 37.6591 17.5391 37.9998 24.1708 37.9998C29.5727 37.9998 33.166 37.7738 35.2156 37.5865C36.4921 37.4699 37.4702 36.4919 37.5868 35.2153C37.774 33.1657 38.0001 29.5725 38.0001 24.1706C38.0001 17.5389 37.6593 13.633 37.4681 11.9629C37.4218 11.5588 36.9421 11.3993 36.6545 11.6869L11.6871 36.6543Z" clip-rule="evenodd"></path></svg>