<svg xmlns="http://www.w3.org/2000/svg" fill="none" viewBox="0 0 48 48"><path fill="currentColor" fill-rule="evenodd" d="M1.5 24C1.5 36.4264 11.5736 46.5 24 46.5C36.4264 46.5 46.5 36.4264 46.5 24C46.5 11.5736 36.4264 1.5 24 1.5C11.5736 1.5 1.5 11.5736 1.5 24ZM20.1391 15.1371C20.0474 13.8408 20.6287 12.5657 21.8891 12.2489C22.4623 12.1048 23.1659 12 24 12C24.8341 12 25.5377 12.1048 26.1109 12.2489C27.3713 12.5657 27.9526 13.8408 27.8609 15.1371C27.6701 17.833 27.306 22.5157 26.9123 25.1404C26.7826 26.0051 26.262 26.749 25.3998 26.8944C25.0311 26.9565 24.5696 27 24 27C23.4304 27 22.9689 26.9565 22.6002 26.8944C21.738 26.749 21.2174 26.0051 21.0877 25.1404C20.694 22.5157 20.3299 17.833 20.1391 15.1371ZM24 37C25.933 37 27.5 35.433 27.5 33.5C27.5 31.567 25.933 30 24 30C22.067 30 20.5 31.567 20.5 33.5C20.5 35.433 22.067 37 24 37Z" clip-rule="evenodd"></path></svg>