<svg xmlns="http://www.w3.org/2000/svg" fill="none" viewBox="0 0 48 48"><path fill="currentColor" d="M28 4C38.2705 4 42.3355 4.12616 43.8425 4.20049C44.6273 4.2392 45.5871 4.68189 45.8316 5.75665C45.9295 6.18725 46 6.75522 46 7.5C46 8.24478 45.9295 8.81275 45.8316 9.24335C45.5871 10.3181 44.6273 10.7608 43.8425 10.7995C42.3355 10.8738 38.2705 11 28 11C17.7294 11 13.6644 10.8738 12.1574 10.7995C11.3726 10.7608 10.4128 10.3181 10.1684 9.24335C10.0704 8.81275 9.99995 8.24478 9.99995 7.5C9.99995 6.75522 10.0704 6.18725 10.1684 5.75665C10.4128 4.68189 11.3726 4.2392 12.1574 4.20049C13.6644 4.12616 17.7294 4 28 4Z"></path><path fill="currentColor" d="M13.9999 24C13.9999 25.6827 13.9597 26.9917 13.9019 28.0046C13.8363 29.1539 13.2586 30.1139 12.3225 30.5884C11.3913 31.0605 10.2767 30.9657 9.30647 30.3677C8.58005 29.9199 7.70463 29.3537 6.6691 28.6425C5.51342 27.8487 4.64756 27.1678 3.99938 26.5988C3.20678 25.9031 2.7585 24.9785 2.75854 24C2.75859 23.0215 3.20694 22.0969 3.9995 21.4013C4.64765 20.8324 5.51345 20.1514 6.66902 19.3576C7.70486 18.646 8.58049 18.0796 9.30704 17.6318C10.2771 17.0338 11.3916 16.939 12.3227 17.4111C13.2586 17.8856 13.8363 18.8455 13.9019 19.9946C13.9597 21.0076 13.9999 22.3168 13.9999 24Z"></path><path fill="currentColor" d="M32 33C39.2579 33 42.4721 32.8923 43.8377 32.8168C44.7491 32.7663 45.7283 32.1895 45.9004 31.0385C45.959 30.6461 46 30.1426 46 29.5C46 28.8574 45.959 28.3539 45.9004 27.9615C45.7283 26.8105 44.7491 26.2337 43.8377 26.1832C42.4721 26.1077 39.2579 26 32 26C24.742 26 21.5278 26.1077 20.1622 26.1832C19.2508 26.2337 18.2716 26.8105 18.0995 27.9615C18.0409 28.3539 18 28.8574 18 29.5C18 30.1426 18.0409 30.6461 18.0995 31.0385C18.2716 32.1895 19.2508 32.7663 20.1622 32.8168C21.5278 32.8923 24.742 33 32 33Z"></path><path fill="currentColor" d="M28 37C38.2705 37 42.3355 37.1262 43.8425 37.2005C44.6273 37.2392 45.5871 37.6819 45.8316 38.7566C45.9295 39.1873 46 39.7552 46 40.5C46 41.2448 45.9295 41.8127 45.8316 42.2433C45.5871 43.3181 44.6273 43.7608 43.8425 43.7995C42.3355 43.8738 38.2705 44 28 44C17.7294 44 13.6644 43.8738 12.1574 43.7995C11.3726 43.7608 10.4128 43.3181 10.1684 42.2433C10.0704 41.8127 9.99995 41.2448 9.99995 40.5C9.99995 39.7552 10.0704 39.1873 10.1684 38.7567C10.4128 37.6819 11.3726 37.2392 12.1574 37.2005C13.6644 37.1262 17.7294 37 28 37Z"></path><path fill="currentColor" d="M32 22C39.2579 22 42.4721 21.8923 43.8377 21.8168C44.7491 21.7663 45.7283 21.1895 45.9004 20.0385C45.959 19.6461 46 19.1426 46 18.5C46 17.8574 45.959 17.3539 45.9004 16.9615C45.7283 15.8105 44.7491 15.2337 43.8377 15.1832C42.4721 15.1077 39.2579 15 32 15C24.742 15 21.5278 15.1077 20.1622 15.1832C19.2508 15.2337 18.2716 15.8105 18.0995 16.9615C18.0409 17.3539 18 17.8574 18 18.5C18 19.1426 18.0409 19.6461 18.0995 20.0385C18.2716 21.1895 19.2508 21.7663 20.1622 21.8168C21.5278 21.8923 24.742 22 32 22Z"></path></svg>