<svg xmlns="http://www.w3.org/2000/svg" fill="none" viewBox="0 0 48 48"><path fill="currentColor" fill-rule="evenodd" d="M28.3022 3.073C25.8004 0.906983 22.1994 0.906983 19.6976 3.073C17.7071 4.79632 14.8502 7.40333 11.1268 11.1268C7.40333 14.8502 4.79632 17.7071 3.073 19.6976C0.906983 22.1994 0.906982 25.8004 3.073 28.3022C4.79632 30.2927 7.40333 33.1496 11.1268 36.8731C14.8502 40.5965 17.7071 43.2035 19.6976 44.9268C22.1994 47.0928 25.8004 47.0928 28.3022 44.9268C30.2927 43.2035 33.1496 40.5965 36.8731 36.8731C40.5965 33.1496 43.2035 30.2927 44.9268 28.3022C47.0928 25.8004 47.0928 22.1994 44.9268 19.6976C43.2035 17.7071 40.5965 14.8502 36.8731 11.1268C33.1496 7.40333 30.2927 4.79632 28.3022 3.073ZM20.1391 15.1371C20.0474 13.8408 20.6287 12.5657 21.8891 12.2489C22.4623 12.1048 23.1659 12 24 12C24.8341 12 25.5377 12.1048 26.1109 12.2489C27.3713 12.5657 27.9526 13.8408 27.8609 15.1371C27.6701 17.833 27.306 22.5157 26.9123 25.1404C26.7826 26.0051 26.262 26.749 25.3998 26.8944C25.0311 26.9565 24.5696 27 24 27C23.4304 27 22.9689 26.9565 22.6002 26.8944C21.738 26.749 21.2174 26.0051 21.0877 25.1404C20.694 22.5157 20.3299 17.833 20.1391 15.1371ZM24 37C25.933 37 27.5 35.433 27.5 33.5C27.5 31.567 25.933 30 24 30C22.067 30 20.5 31.567 20.5 33.5C20.5 35.433 22.067 37 24 37Z" clip-rule="evenodd"></path></svg>