<svg xmlns="http://www.w3.org/2000/svg" fill="none" viewBox="0 0 48 48"><path fill="currentColor" d="M1.5 24C1.5 37.298 1.5863 42.6472 1.61579 44.0872C1.62322 44.45 1.69304 45.4304 2.58104 46.024C3.01026 46.3109 3.56915 46.5 4.25 46.5C4.93086 46.5 5.48974 46.3109 5.91896 46.024C6.80696 45.4304 6.87678 44.45 6.88421 44.0872C6.9137 42.6472 7 37.298 7 24C7 10.702 6.9137 5.35284 6.88421 3.91277C6.87678 3.55004 6.80696 2.56955 5.91896 1.97597C5.48974 1.68906 4.93085 1.5 4.25 1.5C3.56914 1.5 3.01026 1.68906 2.58104 1.97597C1.69304 2.56955 1.62322 3.55005 1.61579 3.91277C1.5863 5.35285 1.5 10.702 1.5 24Z"></path><path fill="currentColor" d="M46.5 24C46.5 37.298 46.4137 42.6472 46.3842 44.0872C46.3768 44.45 46.307 45.4304 45.419 46.024C44.9897 46.3109 44.4309 46.5 43.75 46.5C43.0691 46.5 42.5103 46.3109 42.081 46.024C41.193 45.4304 41.1232 44.45 41.1158 44.0872C41.0863 42.6472 41 37.298 41 24C41 10.702 41.0863 5.35284 41.1158 3.91277C41.1232 3.55004 41.193 2.56955 42.081 1.97597C42.5103 1.68906 43.0691 1.5 43.75 1.5C44.4309 1.5 44.9897 1.68906 45.419 1.97597C46.307 2.56955 46.3768 3.55005 46.3842 3.91277C46.4137 5.35285 46.5 10.702 46.5 24Z"></path><path fill="currentColor" d="M32.5 24C32.5 18.5974 32.3571 15.1751 32.21 13.0813C32.0377 10.6297 30.1276 8.79222 27.7139 8.62944C26.6541 8.55797 25.3725 8.5 24 8.5C22.6275 8.5 21.3459 8.55797 20.2861 8.62943C17.8724 8.79222 15.9623 10.6297 15.79 13.0813C15.6429 15.1751 15.5 18.5974 15.5 24C15.5 29.4026 15.6429 32.8249 15.79 34.9187C15.9623 37.3703 17.8724 39.2078 20.2861 39.3706C21.3459 39.442 22.6275 39.5 24 39.5C25.3725 39.5 26.6541 39.442 27.7139 39.3706C30.1276 39.2078 32.0377 37.3703 32.21 34.9187C32.3571 32.8249 32.5 29.4026 32.5 24Z"></path></svg>