<svg xmlns="http://www.w3.org/2000/svg" fill="none" viewBox="0 0 48 48"><path fill="currentColor" d="M20.1898 3.37426C21.1435 2.36458 22.4138 1.5 24 1.5C24.919 1.5 25.7434 1.79437 26.4549 2.24043C27.1568 2.68047 27.369 3.60619 26.929 4.30809C26.6144 4.80981 26.0517 5.06135 25.5 5.0033V38.9877C25.6595 39.0799 25.8222 39.1764 25.9865 39.2753C26.6963 39.7026 26.9252 40.6243 26.498 41.3341C26.0707 42.0438 25.149 42.2728 24.4392 41.8455C24.2717 41.7446 24.1152 41.6521 23.9697 41.5683L14.9949 46.0198C11.5739 47.7166 7.9226 44.7606 8.37343 41.1303L9.6698 30.6914L2.74264 23.0356C0.307913 20.3448 1.62335 15.832 5.2733 15.1178L15.0881 13.1973C15.3092 12.702 15.5597 12.0862 15.8521 11.3673L16.0145 10.9684C16.5091 9.75502 17.0925 8.35104 17.766 7.02558C18.4331 5.71262 19.232 4.38827 20.1898 3.37426Z"></path><path fill="currentColor" d="M30.1948 6.94855C29.8172 6.21115 28.9134 5.91941 28.176 6.29694C27.4386 6.67447 27.1469 7.5783 27.5244 8.31571C27.7753 8.80587 28.0161 9.31596 28.2477 9.83279C28.578 10.57 28.971 11.2604 29.422 11.8988C29.9001 12.5753 30.8361 12.7363 31.5127 12.2582C32.1892 11.7802 32.3502 10.8442 31.8721 10.1676C31.5358 9.69153 31.2383 9.17053 30.9855 8.60613C30.7383 8.05459 30.475 7.49587 30.1948 6.94855Z"></path><path fill="currentColor" d="M36.0701 13.3046C35.2863 13.0361 34.4334 13.4538 34.1649 14.2375C33.8964 15.0213 34.3141 15.8742 35.0978 16.1427C35.8359 16.3956 36.607 16.5793 37.4043 16.6916C37.9597 16.7699 38.509 16.8597 39.0398 16.9662C39.8521 17.1291 40.6426 16.6026 40.8055 15.7904C40.9683 14.9781 40.4419 14.1876 39.6296 14.0247C39.0286 13.9042 38.4203 13.8051 37.8227 13.721C37.2087 13.6345 36.6234 13.4942 36.0701 13.3046Z"></path><path fill="currentColor" d="M45.1482 16.4983C44.5696 15.9054 43.6199 15.8938 43.027 16.4724C42.4341 17.051 42.4225 18.0006 43.0011 18.5935C43.2468 18.8453 43.3877 19.1017 43.4518 19.3832C43.5112 19.644 43.4991 19.9611 43.3639 20.368C43.1027 21.1542 43.5283 22.0032 44.3144 22.2645C45.1006 22.5257 45.9497 22.1001 46.2109 21.3139C46.4793 20.5061 46.5831 19.6227 46.377 18.7173C46.1753 17.8316 45.7304 17.0949 45.1482 16.4983Z"></path><path fill="currentColor" d="M42.5673 26.2514C43.1703 25.6834 43.1987 24.7341 42.6307 24.131C42.0626 23.528 41.1133 23.4997 40.5103 24.0677C40.0904 24.4633 39.6508 24.8547 39.2052 25.24C38.6144 25.7509 38.0891 26.3098 37.6339 26.9097C37.1331 27.5697 37.2622 28.5106 37.9222 29.0114C38.5821 29.5121 39.523 29.3831 40.0238 28.7231C40.3492 28.2942 40.7303 27.8874 41.1675 27.5092C41.6339 27.1059 42.1071 26.6849 42.5673 26.2514Z"></path><path fill="currentColor" d="M38.5714 33.324C38.5412 32.4961 37.8456 31.8495 37.0177 31.8797C36.1899 31.9099 35.5432 32.6055 35.5734 33.4334C35.6009 34.1854 35.7086 34.9439 35.8966 35.7008C36.0467 36.3051 36.1881 36.9132 36.3094 37.5133C36.4734 38.3253 37.2647 38.8506 38.0767 38.6865C38.8887 38.5225 39.414 37.7312 39.2499 36.9192C39.1173 36.2628 38.9651 35.6095 38.8082 34.9776C38.6686 34.4159 38.5911 33.863 38.5714 33.324Z"></path><path fill="currentColor" d="M29.5288 41.4308C28.8107 41.0176 27.8937 41.2648 27.4806 41.9829C27.0675 42.701 27.3147 43.618 28.0327 44.0311C28.4473 44.2696 28.873 44.5058 29.3045 44.7316C29.7546 44.9672 30.2136 45.1928 30.6754 45.3989C31.4319 45.7364 32.3188 45.3967 32.6564 44.6402C32.9939 43.8837 32.6543 42.9967 31.8977 42.6592C31.5036 42.4834 31.1016 42.2861 30.6955 42.0736C30.3066 41.8701 29.9166 41.6539 29.5288 41.4308Z"></path><path fill="currentColor" d="M39.2906 43.4329C39.5699 42.653 39.1641 41.7943 38.3842 41.515C37.6043 41.2357 36.7456 41.6416 36.4663 42.4215C36.3233 42.8207 36.1321 43.0616 35.906 43.2174C35.733 43.3365 35.5175 43.4212 35.2321 43.4588C34.4108 43.5672 33.8329 44.3209 33.9413 45.1422C34.0496 45.9635 34.8033 46.5414 35.6246 46.4331C36.3124 46.3423 36.9918 46.1123 37.608 45.6878C38.4491 45.1083 38.9793 44.3023 39.2906 43.4329Z"></path></svg>