<svg xmlns="http://www.w3.org/2000/svg" fill="none" viewBox="0 0 48 48"><path fill="currentColor" d="M38.5 8C38.5 4.41015 35.5899 1.5 32 1.5C28.4102 1.5 25.5 4.41015 25.5 8C25.5 11.5899 28.4102 14.5 32 14.5C35.5899 14.5 38.5 11.5899 38.5 8Z"></path><path fill="currentColor" d="M38.5 40C38.5 36.4101 35.5899 33.5 32 33.5C28.4102 33.5 25.5 36.4101 25.5 40C25.5 43.5899 28.4102 46.5 32 46.5C35.5899 46.5 38.5 43.5899 38.5 40Z"></path><path fill="currentColor" d="M38.5 24C38.5 20.4102 35.5899 17.5 32 17.5C28.4102 17.5 25.5 20.4101 25.5 24C25.5 27.5899 28.4102 30.5 32 30.5C35.5899 30.5 38.5 27.5899 38.5 24Z"></path><path fill="currentColor" d="M22.5 8C22.5 4.41015 19.5899 1.5 16 1.5C12.4102 1.5 9.5 4.41015 9.5 8C9.5 11.5899 12.4101 14.5 16 14.5C19.5899 14.5 22.5 11.5899 22.5 8Z"></path><path fill="currentColor" d="M22.5 40C22.5 36.4101 19.5899 33.5 16 33.5C12.4102 33.5 9.5 36.4101 9.5 40C9.5 43.5899 12.4102 46.5 16 46.5C19.5899 46.5 22.5 43.5899 22.5 40Z"></path><path fill="currentColor" d="M22.5 24C22.5 20.4101 19.5899 17.5 16 17.5C12.4102 17.5 9.5 20.4101 9.5 24C9.5 27.5899 12.4102 30.5 16 30.5C19.5899 30.5 22.5 27.5899 22.5 24Z"></path></svg>