<svg xmlns="http://www.w3.org/2000/svg" fill="none" viewBox="0 0 48 48"><path fill="currentColor" d="M24 4.5C35.0138 4.5 40.2778 4.65206 42.7111 4.77041C44.4582 4.85538 46.213 5.98461 46.4171 8.09738C46.4677 8.62184 46.5 9.24997 46.5 10C46.5 10.75 46.4677 11.3782 46.4171 11.9026C46.213 14.0154 44.4582 15.1446 42.7111 15.2296C40.2778 15.3479 35.0138 15.5 24 15.5C12.9862 15.5 7.72221 15.3479 5.28886 15.2296C3.54184 15.1446 1.78697 14.0154 1.58293 11.9026C1.53228 11.3782 1.5 10.75 1.5 10C1.5 9.24997 1.53228 8.62184 1.58293 8.09738C1.78697 5.98461 3.54184 4.85538 5.28886 4.77041C7.72221 4.65206 12.9862 4.5 24 4.5Z"></path><path fill="currentColor" d="M24 18.5C35.0138 18.5 40.2778 18.6521 42.7111 18.7704C44.4582 18.8554 46.213 19.9846 46.4171 22.0974C46.4677 22.6218 46.5 23.25 46.5 24C46.5 24.75 46.4677 25.3782 46.4171 25.9026C46.213 28.0154 44.4582 29.1446 42.7111 29.2296C40.2778 29.3479 35.0138 29.5 24 29.5C12.9862 29.5 7.72221 29.3479 5.28886 29.2296C3.54184 29.1446 1.78697 28.0154 1.58293 25.9026C1.53228 25.3782 1.5 24.75 1.5 24C1.5 23.25 1.53228 22.6218 1.58293 22.0974C1.78697 19.9846 3.54184 18.8554 5.28886 18.7704C7.72221 18.6521 12.9862 18.5 24 18.5Z"></path><path fill="currentColor" d="M24 32.5C35.0138 32.5 40.2778 32.6521 42.7111 32.7704C44.4582 32.8554 46.213 33.9846 46.4171 36.0974C46.4677 36.6218 46.5 37.25 46.5 38C46.5 38.75 46.4677 39.3782 46.4171 39.9026C46.213 42.0154 44.4582 43.1446 42.7111 43.2296C40.2778 43.3479 35.0138 43.5 24 43.5C12.9862 43.5 7.72221 43.3479 5.28886 43.2296C3.54184 43.1446 1.78697 42.0154 1.58293 39.9026C1.53228 39.3782 1.5 38.75 1.5 38C1.5 37.25 1.53228 36.6218 1.58293 36.0974C1.78697 33.9846 3.54184 32.8554 5.28886 32.7704C7.72221 32.6521 12.9862 32.5 24 32.5Z"></path></svg>