<svg xmlns="http://www.w3.org/2000/svg" fill="none" viewBox="0 0 48 48"><path fill="currentColor" d="M7.30721 16.936C6.20877 16.0506 4.80903 15.7797 3.58079 16.3419C2.35604 16.9024 1.64371 18.1347 1.58314 19.5379C1.53385 20.6796 1.5 22.1402 1.5 23.9999C1.5 25.8601 1.53388 27.3211 1.58319 28.463C1.64377 29.8659 2.35591 31.0981 3.58051 31.6586C4.80864 32.2208 6.20821 31.9499 7.30647 31.0646C7.8521 30.6247 8.47331 30.1053 9.17427 29.4939C10.5204 28.3196 11.4433 27.3519 12.0752 26.5892C13.3498 25.0507 13.35 22.9491 12.0754 21.4105C11.4434 20.6477 10.5205 19.68 9.17417 18.5058C8.47356 17.8948 7.85263 17.3757 7.30721 16.936Z"></path><path fill="currentColor" d="M35.7476 32.6138C35.5866 30.9353 35.5258 28.3066 35.5071 26.0523C35.5061 25.9267 35.5052 25.8026 35.5044 25.68C36.1419 25.9736 38.2386 27.1023 41.5829 30.4836C44.7167 33.652 45.8904 35.7156 46.2627 36.4919C46.1446 36.4909 46.0251 36.4898 45.9043 36.4885C43.6263 36.4654 40.9734 36.4001 39.2934 36.239C37.4306 36.0603 35.9354 34.5722 35.7476 32.6138Z"></path><path fill="currentColor" d="M46.5 39.4938V45C46.5 45.8284 45.8284 46.5 45 46.5H15C14.1716 46.5 13.5 45.8284 13.5 45V36C13.5 33.3898 13.6326 31.4003 13.7877 29.9655C14.0517 27.5253 16.0508 25.8671 18.365 25.7486C20.6724 25.6304 24.4714 25.5 30 25.5C30.8777 25.5 31.7119 25.5033 32.5033 25.5093C32.5044 25.6948 32.5056 25.8843 32.5072 26.0771C32.5258 28.3254 32.5862 31.0752 32.7613 32.9003C33.0825 36.2488 35.6739 38.9056 39.007 39.2253C40.8307 39.4002 43.6027 39.4653 45.8737 39.4884C46.0867 39.4906 46.2958 39.4924 46.5 39.4938Z"></path><path fill="currentColor" d="M46.5 12C46.5 14.6102 46.3675 16.5997 46.2123 18.0345C45.9483 20.4747 43.9492 22.1329 41.635 22.2514C39.3275 22.3696 35.5286 22.5 30 22.5C24.4714 22.5 20.6725 22.3696 18.365 22.2514C16.0508 22.1329 14.0516 20.4747 13.7877 18.0345C13.6326 16.5997 13.5 14.6102 13.5 12V3C13.5 2.17157 14.1716 1.5 15 1.5H45C45.3978 1.5 45.7794 1.65804 46.0607 1.93934C46.342 2.22064 46.5 2.60217 46.5 3V12Z"></path></svg>