<svg xmlns="http://www.w3.org/2000/svg" fill="none" viewBox="0 0 48 48"><path fill="currentColor" fill-rule="evenodd" d="M39.8643 2.0439C36.5927 1.77808 31.4014 1.5 24 1.5C16.5986 1.5 11.4073 1.77807 8.13571 2.04388C4.84786 2.31102 2.31103 4.84784 2.0439 8.13569C1.77808 11.4073 1.5 16.5986 1.5 24C1.5 31.4014 1.77808 36.5927 2.04389 39.8643C2.31102 43.1522 4.84784 45.689 8.13569 45.9561C11.4073 46.2219 16.5985 46.5 24 46.5C31.4014 46.5 36.5927 46.2219 39.8643 45.9561C43.1521 45.689 45.689 43.1522 45.9561 39.8643C46.2219 36.5927 46.5 31.4015 46.5 24C46.5 16.5986 46.2219 11.4073 45.9561 8.13571C45.689 4.84786 43.1521 2.31103 39.8643 2.0439ZM24.7658 15.5018C24.6374 13.6554 22.8854 12.8414 21.389 13.9307C20.2584 14.7538 18.7831 15.8951 16.9294 17.4544C14.3995 19.5825 12.927 21.1915 12.0822 22.2817C11.2725 23.3266 11.2724 24.6731 12.082 25.7181C12.9268 26.8084 14.3993 28.4175 16.9294 30.5453C18.7828 32.104 20.2578 33.2451 21.3883 34.0681C22.885 35.1577 24.6375 34.3437 24.7659 32.4969C24.8402 31.4289 24.9073 30.0621 24.9505 28.3262C29.2718 28.1217 32.2601 27.9297 34.1127 27.7946C35.5841 27.6873 36.8241 26.7235 36.9447 25.2532C36.9786 24.8401 37 24.371 37 23.845C37 23.3028 36.9773 22.8354 36.9416 22.4353C36.825 21.1298 35.7245 20.3256 34.4174 20.2281C32.5951 20.0922 29.5172 19.89 24.9505 19.6738C24.9073 17.9372 24.8401 16.57 24.7658 15.5018Z" clip-rule="evenodd"></path></svg>