<svg xmlns="http://www.w3.org/2000/svg" fill="none" viewBox="0 0 48 48"><path fill="currentColor" fill-rule="evenodd" d="M28.789 6.44531C26.2879 3.1849 21.7121 3.1849 19.2109 6.44531C16.7458 9.65869 13.196 14.852 8.93071 22.7052C4.98465 29.9706 2.88904 34.9781 1.77477 38.2656C1.15424 40.0964 1.45164 41.9122 2.45984 43.3137C3.4558 44.6982 5.07073 45.5801 6.92403 45.7543C10.7522 46.1142 16.5853 46.5 24 46.5C31.4147 46.5 37.2477 46.1142 41.0759 45.7543C42.9292 45.5801 44.5441 44.6982 45.5401 43.3137C46.5483 41.9122 46.8457 40.0964 46.2252 38.2656C45.1109 34.9781 43.0153 29.9706 39.0692 22.7052C34.8039 14.852 31.2541 9.65869 28.789 6.44531ZM20.1568 19.1601C20.0535 17.811 20.683 16.4956 22.0048 16.2061C22.5561 16.0853 23.2212 16 24 16C24.7788 16 25.4439 16.0853 25.9952 16.2061C27.317 16.4956 27.9465 17.811 27.8432 19.1601C27.6514 21.6631 27.3059 25.7491 26.9314 28.1439C26.7927 29.0304 26.2406 29.7753 25.3533 29.9086C24.9925 29.9627 24.5459 30 24 30C23.4541 30 23.0075 29.9627 22.6467 29.9086C21.7594 29.7753 21.2073 29.0304 21.0686 28.1439C20.6941 25.7491 20.3486 21.6631 20.1568 19.1601ZM24 40C25.933 40 27.5 38.433 27.5 36.5C27.5 34.567 25.933 33 24 33C22.067 33 20.5 34.567 20.5 36.5C20.5 38.433 22.067 40 24 40Z" clip-rule="evenodd"></path></svg>