<svg xmlns="http://www.w3.org/2000/svg" fill="none" viewBox="0 0 48 48"><path fill="currentColor" fill-rule="evenodd" d="M11.5 46.5C12.1087 46.5 12.6049 46.4398 12.9975 46.3581C13.9449 46.161 14.3851 45.287 14.3952 44.4818C14.4077 43.4944 14.4265 41.8171 14.4447 39.4802C17.1836 39.492 20.3747 39.5 24 39.5C27.6253 39.5 30.8164 39.492 33.5553 39.4802C33.5735 41.8171 33.5923 43.4944 33.6048 44.4818C33.6149 45.287 34.0551 46.161 35.0025 46.3581C35.3951 46.4398 35.8913 46.5 36.5 46.5C37.1087 46.5 37.6049 46.4398 37.9975 46.3581C38.9449 46.161 39.3851 45.287 39.3952 44.4818C39.4077 43.4895 39.4267 41.8003 39.445 39.445C41.8003 39.4267 43.4895 39.4077 44.4818 39.3952C45.287 39.3851 46.161 38.9449 46.3581 37.9975C46.4398 37.6049 46.5 37.1087 46.5 36.5C46.5 35.8913 46.4398 35.3951 46.3581 35.0025C46.161 34.0551 45.287 33.6149 44.4818 33.6048C43.4944 33.5923 41.8171 33.5735 39.4802 33.5553C39.492 30.8164 39.5 27.6253 39.5 24C39.5 20.3747 39.492 17.1836 39.4802 14.4447C41.8171 14.4265 43.4944 14.4077 44.4818 14.3952C45.287 14.3851 46.161 13.9449 46.3581 12.9975C46.4398 12.6049 46.5 12.1087 46.5 11.5C46.5 10.8913 46.4398 10.3951 46.3581 10.0025C46.161 9.05507 45.287 8.6149 44.4818 8.60476C43.4895 8.59227 41.8003 8.57334 39.445 8.55498C39.4267 6.19974 39.4077 4.51053 39.3952 3.51821C39.3851 2.71299 38.9449 1.83901 37.9975 1.64191C37.6049 1.56022 37.1087 1.5 36.5 1.5C35.8913 1.5 35.3951 1.56022 35.0025 1.64191C34.0551 1.83901 33.6149 2.71298 33.6048 3.51821C33.5923 4.50557 33.5735 6.18291 33.5553 8.51981C30.8164 8.50798 27.6253 8.5 24 8.5C20.3747 8.5 17.1836 8.50798 14.4447 8.51981C14.4265 6.18291 14.4077 4.50558 14.3952 3.51821C14.3851 2.71299 13.9449 1.839 12.9975 1.64191C12.6049 1.56022 12.1087 1.5 11.5 1.5C10.8913 1.5 10.3951 1.56022 10.0025 1.64191C9.05507 1.839 8.6149 2.71298 8.60477 3.51821C8.59227 4.51052 8.57334 6.19973 8.55498 8.55498C6.19973 8.57334 4.51052 8.59227 3.51821 8.60476C2.71298 8.6149 1.83901 9.05507 1.64191 10.0025C1.56022 10.3951 1.5 10.8913 1.5 11.5C1.5 12.1087 1.56022 12.6049 1.64191 12.9975C1.83901 13.9449 2.71299 14.3851 3.51821 14.3952C4.50558 14.4077 6.18291 14.4265 8.51981 14.4447C8.50798 17.1836 8.5 20.3747 8.5 24C8.5 27.6253 8.50798 30.8164 8.51981 33.5553C6.18291 33.5735 4.50558 33.5923 3.51821 33.6048C2.71299 33.6149 1.83901 34.0551 1.64191 35.0025C1.56022 35.3951 1.5 35.8913 1.5 36.5C1.5 37.1087 1.56022 37.6049 1.64191 37.9975C1.83901 38.9449 2.71298 39.3851 3.51821 39.3952C4.51052 39.4077 6.19973 39.4267 8.55498 39.445C8.57334 41.8003 8.59227 43.4895 8.60477 44.4818C8.6149 45.287 9.05507 46.161 10.0025 46.3581C10.3951 46.4398 10.8913 46.5 11.5 46.5ZM33.5197 33.5197C33.5079 30.7888 33.5 27.6096 33.5 24C33.5 20.3904 33.5079 17.2112 33.5197 14.4803C30.7888 14.4921 27.6096 14.5 24 14.5C20.3904 14.5 17.2112 14.4921 14.4803 14.4803C14.4921 17.2112 14.5 20.3904 14.5 24C14.5 27.6096 14.4921 30.7888 14.4803 33.5197C17.2112 33.5079 20.3904 33.5 24 33.5C27.6096 33.5 30.7888 33.5079 33.5197 33.5197Z" clip-rule="evenodd"></path></svg>