<svg xmlns="http://www.w3.org/2000/svg" fill="none" viewBox="0 0 48 48"><path fill="currentColor" d="M29 4.5C20.4385 4.5 16.1973 4.64011 14.1444 4.75683C12.4974 4.85048 10.8356 5.91195 10.6066 7.91075C10.5422 8.47256 10.5 9.16057 10.5 10C10.5 10.8394 10.5422 11.5274 10.6066 12.0893C10.8356 14.088 12.4974 15.1495 14.1444 15.2432C16.1973 15.3599 20.4385 15.5 29 15.5C37.5615 15.5 41.8027 15.3599 43.8556 15.2432C45.5026 15.1495 47.1644 14.088 47.3934 12.0893C47.4578 11.5274 47.5 10.8394 47.5 10C47.5 9.16057 47.4578 8.47256 47.3934 7.91075C47.1644 5.91195 45.5026 4.85048 43.8556 4.75683C41.8027 4.64011 37.5615 4.5 29 4.5Z"></path><path fill="currentColor" d="M24 18.5C32.5615 18.5 36.8027 18.6401 38.8556 18.7568C40.5026 18.8505 42.1644 19.912 42.3934 21.9107C42.4578 22.4726 42.5 23.1606 42.5 24C42.5 24.8394 42.4578 25.5274 42.3934 26.0893C42.1644 28.088 40.5026 29.1495 38.8556 29.2432C36.8027 29.3599 32.5615 29.5 24 29.5C15.4385 29.5 11.1973 29.3599 9.14441 29.2432C7.49737 29.1495 5.83558 28.088 5.6066 26.0893C5.54224 25.5274 5.5 24.8394 5.5 24C5.5 23.1606 5.54224 22.4726 5.6066 21.9107C5.83558 19.912 7.49737 18.8505 9.1444 18.7568C11.1973 18.6401 15.4385 18.5 24 18.5Z"></path><path fill="currentColor" d="M19 32.5C27.5615 32.5 31.8027 32.6401 33.8556 32.7568C35.5026 32.8505 37.1644 33.912 37.3934 35.9107C37.4578 36.4726 37.5 37.1606 37.5 38C37.5 38.8394 37.4578 39.5274 37.3934 40.0893C37.1644 42.088 35.5026 43.1495 33.8556 43.2432C31.8027 43.3599 27.5615 43.5 19 43.5C10.4385 43.5 6.19732 43.3599 4.14441 43.2432C2.49737 43.1495 0.835579 42.088 0.606602 40.0893C0.542244 39.5274 0.5 38.8394 0.5 38C0.5 37.1606 0.542244 36.4726 0.606602 35.9107C0.835579 33.912 2.49737 32.8505 4.1444 32.7568C6.19732 32.6401 10.4385 32.5 19 32.5Z"></path></svg>