<svg xmlns="http://www.w3.org/2000/svg" fill="none" viewBox="0 0 48 48"><path fill="currentColor" d="M5.49119 4.80656C6.61753 4.63561 8.1076 4.5 10 4.5C11.8924 4.5 13.3825 4.63561 14.5088 4.80656C16.8428 5.16077 18.2009 7.16733 18.2782 9.25028C18.3757 11.8766 18.5 16.6635 18.5 24C18.5 31.3365 18.3757 36.1234 18.2782 38.7497C18.2009 40.8327 16.8427 42.8392 14.5088 43.1934C13.3825 43.3644 11.8924 43.5 10 43.5C8.1076 43.5 6.61753 43.3644 5.49119 43.1934C3.15724 42.8392 1.79912 40.8327 1.7218 38.7497C1.6243 36.1234 1.5 31.3365 1.5 24C1.5 16.6635 1.6243 11.8766 1.7218 9.25028C1.79912 7.16734 3.15724 5.16077 5.49119 4.80656Z"></path><path fill="currentColor" d="M25.4912 4.80656C26.6175 4.63561 28.1076 4.5 30 4.5C31.8924 4.5 33.3825 4.63561 34.5088 4.80656C36.8428 5.16077 38.2009 7.16733 38.2782 9.25028C38.3313 10.682 38.3925 12.7557 38.4371 15.5346C38.2955 15.6658 38.1497 15.8013 38 15.941C37.3166 15.303 36.7142 14.7516 36.2182 14.3029C34.1922 12.4699 31.1319 12.6063 29.2484 14.4898L28.4897 15.2485C26.6061 17.132 26.4697 20.1923 28.3028 22.2183C28.7515 22.7143 29.3029 23.3167 29.9409 24.0002C29.3029 24.6837 28.7515 25.2861 28.3028 25.782C26.4697 27.8081 26.6061 30.8683 28.4897 32.7518L29.2484 33.5106C31.1319 35.3941 34.1922 35.5305 36.2182 33.6974C36.7142 33.2487 37.3166 32.6973 38 32.0594C38.1497 32.199 38.2955 32.3346 38.4371 32.4658C38.3925 35.2444 38.3313 37.3181 38.2782 38.7497C38.2009 40.8327 36.8428 42.8392 34.5088 43.1934C33.3825 43.3644 31.8924 43.5 30 43.5C28.1076 43.5 26.6175 43.3644 25.4912 43.1934C23.1572 42.8392 21.7991 40.8327 21.7218 38.7497C21.6243 36.1234 21.5 31.3365 21.5 24C21.5 16.6635 21.6243 11.8766 21.7218 9.25028C21.7991 7.16734 23.1572 5.16077 25.4912 4.80656Z"></path><path fill="currentColor" d="M41.7945 16.5274C42.6098 15.7898 43.8529 15.8335 44.6303 16.6109L45.3891 17.3697C46.1665 18.1471 46.2103 19.3902 45.4726 20.2055C44.6268 21.1403 43.4051 22.4649 41.9224 24C43.4051 25.5351 44.6268 26.8597 45.4726 27.7945C46.2102 28.6098 46.1665 29.8529 45.3891 30.6303L44.6303 31.3891C43.8529 32.1665 42.6098 32.2102 41.7945 31.4726C40.8597 30.6268 39.5351 29.4051 38 27.9224C36.4649 29.4051 35.1403 30.6268 34.2055 31.4726C33.3902 32.2102 32.1471 32.1665 31.3697 31.3891L30.6109 30.6303C29.8335 29.8529 29.7898 28.6098 30.5274 27.7945C31.3732 26.8597 32.5949 25.5351 34.0776 24C32.5949 22.4649 31.3732 21.1403 30.5274 20.2055C29.7898 19.3902 29.8335 18.1471 30.6109 17.3697L31.3697 16.6109C32.1471 15.8335 33.3902 15.7898 34.2055 16.5274C35.1403 17.3732 36.4649 18.5949 38 20.0776C39.5351 18.5949 40.8597 17.3732 41.7945 16.5274Z"></path></svg>