<svg xmlns="http://www.w3.org/2000/svg" fill="none" viewBox="0 0 48 48"><path fill="currentColor" d="M14.5 5.57513C12.0276 5.61739 10.0083 5.67282 8.40159 5.72896C4.73652 5.85702 1.83183 8.70733 1.69087 12.3911C1.58908 15.0512 1.5 18.8502 1.5 24C1.5 29.1498 1.58909 32.9488 1.69087 35.6089C1.83183 39.2927 4.73652 42.143 8.40158 42.271C10.0083 42.3272 12.0276 42.3826 14.5 42.4249V5.57513Z"></path><path fill="currentColor" d="M17.5 42.4665C19.4406 42.4875 21.6029 42.5 24 42.5C26.3971 42.5 28.5594 42.4875 30.5 42.4665V5.53353C28.5594 5.51253 26.3971 5.5 24 5.5C21.6029 5.5 19.4406 5.51253 17.5 5.53353V42.4665Z"></path><path fill="currentColor" d="M39.5984 5.72896C37.9917 5.67282 35.9724 5.61739 33.5 5.57513V42.4249C35.9724 42.3826 37.9917 42.3272 39.5984 42.271C43.2635 42.143 46.1682 39.2927 46.3091 35.6089C46.4109 32.9488 46.5 29.1498 46.5 24C46.5 18.8502 46.4109 15.0512 46.3091 12.3911C46.1682 8.70734 43.2635 5.85702 39.5984 5.72896Z"></path></svg>