<svg xmlns="http://www.w3.org/2000/svg" fill="none" viewBox="0 0 48 48"><path fill="currentColor" d="M39.8643 2.04389C36.5927 1.77808 31.4014 1.5 24 1.5C16.5986 1.5 11.4073 1.77808 8.1357 2.04389C4.84785 2.31102 2.31103 4.84784 2.04389 8.13569C1.94686 9.32996 1.8482 10.78 1.76202 12.5H46.238C46.1518 10.78 46.0531 9.32997 45.9561 8.13571C45.689 4.84785 43.1521 2.31103 39.8643 2.04389Z"></path><path fill="currentColor" d="M46.3636 15.5H25.5V27.5H46.4784C46.4923 26.3932 46.5 25.227 46.5 24C46.5 20.7483 46.4463 17.9232 46.3636 15.5Z"></path><path fill="currentColor" d="M46.4225 30.5H25.5V46.4961C32.1084 46.4617 36.8183 46.2036 39.8643 45.9561C43.1521 45.689 45.689 43.1522 45.9561 39.8643C46.1359 37.6512 46.3213 34.5598 46.4225 30.5Z"></path><path fill="currentColor" d="M22.5 46.4961L22.5 30.5H1.5775C1.67866 34.5598 1.86408 37.6512 2.04389 39.8643C2.31102 43.1522 4.84785 45.689 8.1357 45.9561C11.1817 46.2036 15.8916 46.4617 22.5 46.4961Z"></path><path fill="currentColor" d="M1.5216 27.5H22.5V15.5H1.6364C1.55367 17.9232 1.5 20.7483 1.5 24C1.5 25.227 1.50764 26.3932 1.5216 27.5Z"></path></svg>