<svg xmlns="http://www.w3.org/2000/svg" fill="none" viewBox="0 0 48 48"><path fill="currentColor" d="M32 10C32 12.5302 30.8254 14.786 28.9918 16.252C33.7184 17.2228 37 21.1843 37 26.2824C37 28.5158 36.8771 30.1203 36.7407 31.2129C36.5875 32.4413 35.6838 33.3377 34.4567 33.5009C33.756 33.5941 32.8308 33.6916 31.6289 33.7756C31.3476 36.6002 30.8789 40.2116 30.1333 43.269C29.7932 44.6635 28.631 45.678 27.2033 45.827C26.2966 45.9217 25.1875 46 24 46C22.8125 46 21.7034 45.9217 20.7967 45.827C19.369 45.678 18.2068 44.6635 17.8667 43.269C17.1211 40.2116 16.6524 36.6002 16.3711 33.7756C15.1692 33.6916 14.244 33.5941 13.5433 33.5009C12.3162 33.3377 11.4125 32.4413 11.2593 31.2129C11.1229 30.1203 11 28.5158 11 26.2824C11 21.1843 14.2816 17.2228 19.0082 16.252C17.1746 14.786 16 12.5302 16 10C16 5.58172 19.5817 2 24 2C28.4183 2 32 5.58172 32 10Z"></path></svg>