<svg xmlns="http://www.w3.org/2000/svg" fill="none" viewBox="0 0 48 48"><path fill="currentColor" fill-rule="evenodd" d="M14.0365 2.05009C16.3115 1.78359 19.7343 1.5 23.9998 1.5C28.2652 1.5 31.6882 1.78359 33.9633 2.0501C35.8183 2.26739 36.6316 4.35354 35.5604 5.82224L33.3939 8.79279C33.0444 9.2721 32.8224 9.8324 32.7488 10.4211L31.9507 16.8057C31.8936 17.2628 32.0545 17.7287 32.383 18.0608C39.3203 25.0761 43.0932 30.0835 44.9389 32.8356C46.0421 34.4807 46.5174 36.4233 46.4107 38.3818C46.399 38.5968 46.3858 38.819 46.3708 39.0466C46.1087 43.029 42.9091 45.7779 39.0006 46.0484C35.5881 46.2845 30.6518 46.5 23.9998 46.5C17.3477 46.5 12.4113 46.2845 8.99891 46.0484C5.09053 45.7779 1.89105 43.0292 1.6288 39.0469C1.6138 38.8192 1.60055 38.597 1.58885 38.382C1.48219 36.4234 1.9574 34.4807 3.06075 32.8355C4.90647 30.0834 8.67936 25.076 15.6168 18.0608C15.9453 17.7287 16.1062 17.2628 16.0491 16.8057L15.251 10.4211C15.1774 9.8324 14.9554 9.2721 14.6059 8.79279L12.4394 5.82222C11.3682 4.35353 12.1815 2.26739 14.0365 2.05009ZM19.449 24.5243C20.8745 24.5087 22.3909 24.5 24.0006 24.5C25.6102 24.5 27.1266 24.5087 28.5522 24.5243C29.7543 24.5375 30.8897 25.0384 31.6848 25.9105C35.1832 29.747 37.3949 32.6914 38.5895 34.4072C40.1778 36.6885 39.5155 40.2984 36.2947 40.5429C33.4337 40.76 29.1145 41 24.0005 41C18.8865 41 14.5674 40.76 11.7064 40.5429C8.48564 40.2984 7.82329 36.6884 9.41159 34.4072C10.6062 32.6914 12.8179 29.7469 16.3164 25.9104C17.1115 25.0384 18.2469 24.5375 19.449 24.5243Z" clip-rule="evenodd"></path></svg>