<svg xmlns="http://www.w3.org/2000/svg" fill="none" viewBox="0 0 48 48"><path fill="currentColor" fill-rule="evenodd" d="M22.087 31.212c2.127.15 5.223.288 9.413.288s7.286-.138 9.413-.288c2.876-.204 5.095-2.423 5.299-5.3.15-2.126.288-5.222.288-9.412s-.138-7.286-.288-9.413c-.204-2.876-2.423-5.095-5.3-5.298-2.126-.15-5.222-.289-9.412-.289s-7.286.138-9.413.289c-2.876.203-5.095 2.422-5.299 5.298-.15 2.127-.288 5.223-.288 9.413s.138 7.286.288 9.413c.204 2.876 2.423 5.095 5.3 5.299Zm-.176 2.493c2.19.155 5.344.295 9.589.295 2.876 0 5.251-.064 7.165-.154-.384 2.663-2.523 4.673-5.252 4.865-2.127.15-5.223.289-9.413.289s-7.286-.138-9.413-.289c-2.876-.203-5.095-2.422-5.298-5.298C9.139 31.286 9 28.19 9 24s.138-7.286.289-9.413c.192-2.73 2.202-4.868 4.865-5.252-.09 1.914-.154 4.289-.154 7.165 0 4.245.14 7.4.295 9.589a8.16 8.16 0 0 0 7.616 7.616Zm-7.5 7.5c2.19.155 5.344.295 9.589.295 2.876 0 5.251-.064 7.165-.154-.384 2.663-2.523 4.673-5.252 4.865-2.127.15-5.223.289-9.413.289s-7.286-.138-9.413-.289c-2.876-.203-5.095-2.422-5.298-5.298-.15-2.127-.289-5.223-.289-9.413s.138-7.286.289-9.413c.192-2.73 2.202-4.868 4.865-5.252C6.564 18.749 6.5 21.124 6.5 24c0 4.245.14 7.4.295 9.589a8.16 8.16 0 0 0 7.616 7.616Z" clip-rule="evenodd"/></svg>