<svg xmlns="http://www.w3.org/2000/svg" fill="none" viewBox="0 0 48 48"><path fill="currentColor" d="M29.5 1.55474C27.8229 1.52013 25.9915 1.5 24 1.5C16.5986 1.5 11.4073 1.77808 8.1357 2.04389C4.84785 2.31102 2.31103 4.84784 2.04389 8.13569C1.77808 11.4073 1.5 16.5986 1.5 24C1.5 31.4014 1.77807 36.5927 2.04389 39.8643C2.31102 43.1522 4.84785 45.689 8.1357 45.9561C11.4073 46.2219 16.5986 46.5 24 46.5C25.9914 46.5 27.8229 46.4799 29.5 46.4453L29.5 1.55474Z"></path><path fill="currentColor" d="M32.5 46.3636C35.5923 46.258 38.03 46.1051 39.8643 45.9561C43.1521 45.689 45.689 43.1522 45.9561 39.8643C46.2219 36.5927 46.5 31.4014 46.5 24C46.5 16.5986 46.2219 11.4073 45.9561 8.13571C45.689 4.84785 43.1521 2.31103 39.8643 2.04389C38.03 1.89486 35.5923 1.74197 32.5 1.6364L32.5 46.3636Z"></path></svg>