<svg xmlns="http://www.w3.org/2000/svg" fill="none" viewBox="0 0 48 48"><path fill="currentColor" d="M22.5 5.50146C16.0898 5.51584 11.4855 5.62101 8.40159 5.72876C4.73652 5.85681 1.83183 8.70713 1.69087 12.3909C1.58908 15.051 1.5 18.85 1.5 23.9998C1.5 29.1496 1.58909 32.9486 1.69087 35.6087C1.83183 39.2925 4.73652 42.1428 8.40158 42.2708C11.4855 42.3786 16.0898 42.4838 22.5 42.4981L22.5 5.50146Z"></path><path fill="currentColor" d="M25.5 42.4981C31.9102 42.4838 36.5145 42.3786 39.5984 42.2708C43.2635 42.1428 46.1682 39.2925 46.3091 35.6087C46.4109 32.9486 46.5 29.1496 46.5 23.9998C46.5 18.85 46.4109 15.051 46.3091 12.3909C46.1682 8.70714 43.2635 5.85682 39.5984 5.72876C36.5145 5.62101 31.9102 5.51584 25.5 5.50146L25.5 42.4981Z"></path></svg>