<svg xmlns="http://www.w3.org/2000/svg" fill="none" viewBox="0 0 48 48"><path fill="currentColor" fill-rule="evenodd" d="M8.1357 2.04389C11.4073 1.77808 16.5986 1.5 24 1.5C31.4014 1.5 36.5927 1.77808 39.8643 2.04389C43.1521 2.31102 45.689 4.84785 45.9561 8.1357C46.2219 11.4073 46.5 16.5986 46.5 24C46.5 31.4014 46.2219 36.5927 45.9561 39.8643C45.689 43.1522 43.1521 45.689 39.8643 45.9561C36.5927 46.2219 31.4014 46.5 24 46.5C16.5986 46.5 11.4073 46.2219 8.1357 45.9561C4.84785 45.689 2.31102 43.1522 2.04389 39.8643C1.77808 36.5927 1.5 31.4014 1.5 24C1.5 16.5986 1.77808 11.4073 2.04389 8.1357C2.31102 4.84785 4.84785 2.31102 8.1357 2.04389ZM10.5 13C10.5 11.6193 11.6193 10.5 13 10.5C14.3807 10.5 15.5 11.6193 15.5 13C15.5 14.3807 14.3807 15.5 13 15.5C11.6193 15.5 10.5 14.3807 10.5 13ZM21.5 13C21.5 11.6193 22.6193 10.5 24 10.5C25.3807 10.5 26.5 11.6193 26.5 13C26.5 14.3807 25.3807 15.5 24 15.5C22.6193 15.5 21.5 14.3807 21.5 13ZM32.5 13C32.5 11.6193 33.6193 10.5 35 10.5C36.3807 10.5 37.5 11.6193 37.5 13C37.5 14.3807 36.3807 15.5 35 15.5C33.6193 15.5 32.5 14.3807 32.5 13ZM10.5 24C10.5 22.6193 11.6193 21.5 13 21.5C14.3807 21.5 15.5 22.6193 15.5 24C15.5 25.3807 14.3807 26.5 13 26.5C11.6193 26.5 10.5 25.3807 10.5 24ZM21.5 24C21.5 22.6193 22.6193 21.5 24 21.5C25.3807 21.5 26.5 22.6193 26.5 24C26.5 25.3807 25.3807 26.5 24 26.5C22.6193 26.5 21.5 25.3807 21.5 24ZM32.5 24C32.5 22.6193 33.6193 21.5 35 21.5C36.3807 21.5 37.5 22.6193 37.5 24C37.5 25.3807 36.3807 26.5 35 26.5C33.6193 26.5 32.5 25.3807 32.5 24ZM10.5 35C10.5 33.6193 11.6193 32.5 13 32.5C14.3807 32.5 15.5 33.6193 15.5 35C15.5 36.3807 14.3807 37.5 13 37.5C11.6193 37.5 10.5 36.3807 10.5 35ZM21.5 35C21.5 33.6193 22.6193 32.5 24 32.5C25.3807 32.5 26.5 33.6193 26.5 35C26.5 36.3807 25.3807 37.5 24 37.5C22.6193 37.5 21.5 36.3807 21.5 35ZM32.5 35C32.5 33.6193 33.6193 32.5 35 32.5C36.3807 32.5 37.5 33.6193 37.5 35C37.5 36.3807 36.3807 37.5 35 37.5C33.6193 37.5 32.5 36.3807 32.5 35Z" clip-rule="evenodd"></path></svg>