<svg xmlns="http://www.w3.org/2000/svg" fill="none" viewBox="0 0 48 48"><path fill="currentColor" d="M22.5001 5.50146C16.09 5.51584 11.4856 5.62101 8.40169 5.72876C4.73663 5.85681 1.83194 8.70713 1.69098 12.3909C1.59933 14.7858 1.51799 18.1039 1.50269 22.4998H22.5001V5.50146Z"></path><path fill="currentColor" d="M22.5001 25.4998H1.50269C1.51799 29.8957 1.59934 33.2138 1.69098 35.6087C1.83194 39.2925 4.73662 42.1428 8.40169 42.2708C11.4856 42.3786 16.09 42.4838 22.5001 42.4981V25.4998Z"></path><path fill="currentColor" d="M25.5001 42.4981V25.4998H46.4975C46.4822 29.8957 46.4009 33.2138 46.3092 35.6087C46.1683 39.2925 43.2636 42.1428 39.5985 42.2708C36.5146 42.3786 31.9103 42.4838 25.5001 42.4981Z"></path><path fill="currentColor" d="M25.5001 22.4998V5.50146C31.9103 5.51584 36.5146 5.62101 39.5985 5.72876C43.2636 5.85682 46.1683 8.70714 46.3092 12.3909C46.4009 14.7858 46.4822 18.1039 46.4975 22.4998H25.5001Z"></path></svg>