<svg xmlns="http://www.w3.org/2000/svg" fill="none" viewBox="0 0 48 48"><path fill="currentColor" d="M30.5 1.5775C28.5582 1.52911 26.3948 1.5 24 1.5C21.6052 1.5 19.4418 1.52911 17.5 1.5775L17.5 46.4225C19.4418 46.4709 21.6052 46.5 24 46.5C26.3948 46.5 28.5582 46.4709 30.5 46.4225L30.5 1.5775Z"></path><path fill="currentColor" d="M33.5 46.327C36.123 46.2243 38.2324 46.0887 39.8643 45.9561C43.1521 45.689 45.689 43.1522 45.9561 39.8643C46.2219 36.5927 46.5 31.4014 46.5 24C46.5 16.5986 46.2219 11.4073 45.9561 8.13571C45.689 4.84785 43.1521 2.31103 39.8643 2.04389C38.2325 1.91131 36.123 1.77567 33.5 1.67302L33.5 46.327Z"></path><path fill="currentColor" d="M8.1357 2.04389C9.76754 1.9113 11.877 1.77567 14.5 1.67301L14.5 46.327C11.877 46.2243 9.76754 46.0887 8.1357 45.9561C4.84785 45.689 2.31102 43.1522 2.04389 39.8643C1.77807 36.5927 1.5 31.4014 1.5 24C1.5 16.5986 1.77808 11.4073 2.04389 8.13569C2.31103 4.84784 4.84785 2.31102 8.1357 2.04389Z"></path></svg>