<svg xmlns="http://www.w3.org/2000/svg" fill="none" viewBox="0 0 48 48"><path fill="currentColor" d="M46.4975 25.5H1.50269C1.51799 29.8959 1.59934 33.214 1.69098 35.6089C1.83194 39.2927 4.73662 42.143 8.40169 42.271C11.7211 42.387 16.8019 42.5 24.0001 42.5C31.1983 42.5 36.2791 42.387 39.5985 42.271C43.2636 42.143 46.1683 39.2927 46.3092 35.6089C46.4009 33.214 46.4822 29.8959 46.4975 25.5Z"></path><path fill="currentColor" d="M46.4975 22.5H1.50269C1.51799 18.1041 1.59933 14.786 1.69098 12.3911C1.83194 8.70733 4.73663 5.85702 8.40169 5.72896C11.7211 5.61298 16.8019 5.5 24.0001 5.5C31.1983 5.5 36.2791 5.61298 39.5985 5.72896C43.2636 5.85702 46.1683 8.70734 46.3092 12.3911C46.4009 14.786 46.4822 18.1041 46.4975 22.5Z"></path></svg>