<svg xmlns="http://www.w3.org/2000/svg" fill="none" viewBox="0 0 48 48"><path fill="currentColor" d="M30 1.5C24.2425 1.5 20.527 1.62329 18.3067 1.73906C16.0145 1.85858 14.0577 3.50485 13.7941 5.90668C13.6362 7.34576 13.5 9.35395 13.5 12C13.5 14.6102 13.6326 16.5997 13.7877 18.0345C14.0516 20.4747 16.0508 22.1329 18.365 22.2514C20.6725 22.3696 24.4714 22.5 30 22.5C35.5286 22.5 39.3275 22.3696 41.635 22.2514C43.9492 22.1329 45.9484 20.4747 46.2123 18.0345C46.3675 16.5997 46.5 14.6102 46.5 12C46.5 9.35395 46.3638 7.34575 46.2059 5.90668C45.9423 3.50485 43.9855 1.85858 41.6933 1.73906C39.473 1.62329 35.7575 1.5 30 1.5Z"></path><path fill="currentColor" d="M6.42541 16.4813C5.56101 15.7254 4.39414 15.4559 3.33914 15.9104C2.28999 16.3624 1.68227 17.3877 1.62065 18.5236C1.553 19.7704 1.5 21.5334 1.5 24C1.5 26.4672 1.55302 28.2304 1.62069 29.4773C1.68232 30.6129 2.28986 31.6381 3.33887 32.0902C4.3938 32.5447 5.56055 32.2753 6.42486 31.5195C7.03586 30.9851 7.77819 30.3019 8.66239 29.4342C9.93568 28.1847 10.784 27.1685 11.348 26.3843C12.3906 24.9347 12.3908 23.0655 11.3482 21.6157C10.7841 20.8313 9.93573 19.8151 8.6623 18.5657C7.77839 17.6984 7.03628 17.0154 6.42541 16.4813Z"></path><path fill="currentColor" d="M30 25.5C24.4714 25.5 20.6725 25.6304 18.365 25.7486C16.0508 25.8671 14.0517 27.5253 13.7877 29.9655C13.6326 31.4003 13.5 33.3898 13.5 36C13.5 38.6102 13.6326 40.5997 13.7877 42.0345C14.0517 44.4747 16.0508 46.1329 18.365 46.2514C20.6725 46.3696 24.4714 46.5 30 46.5C35.5286 46.5 39.3275 46.3696 41.635 46.2514C43.9492 46.1329 45.9484 44.4747 46.2123 42.0345C46.3675 40.5997 46.5 38.6102 46.5 36C46.5 33.3898 46.3675 31.4003 46.2123 29.9655C45.9484 27.5253 43.9492 25.8671 41.635 25.7486C39.3275 25.6304 35.5286 25.5 30 25.5Z"></path></svg>