<svg xmlns="http://www.w3.org/2000/svg" fill="none" viewBox="0 0 48 48"><path fill="currentColor" d="M21.5 1.51095C15.4137 1.56476 11.0258 1.80914 8.1357 2.04395C4.84785 2.31108 2.31103 4.84791 2.04389 8.13576C1.77808 11.4074 1.5 16.5986 1.5 24.0001C1.5 31.4015 1.77807 36.5927 2.04389 39.8644C2.31102 43.1522 4.84785 45.689 8.1357 45.9562C11.0257 46.191 15.4137 46.4354 21.5 46.4892V24.0018L21.5 24.0001L21.5 23.9983L21.5 1.51095Z"></path><path fill="currentColor" d="M24.5 46.4996C31.6358 46.4875 36.6668 46.216 39.8643 45.9562C43.1521 45.689 45.689 43.1522 45.9561 39.8644C46.2036 36.8184 46.4617 32.1085 46.4961 25.5001L24.5 25.5001L24.5 46.4996Z"></path><path fill="currentColor" d="M46.4961 22.5001L24.5 22.5001V1.50049C31.6358 1.51267 36.6668 1.78417 39.8643 2.04396C43.1521 2.31109 45.689 4.84792 45.9561 8.13577C46.2036 11.1817 46.4617 15.8917 46.4961 22.5001Z"></path></svg>