<svg xmlns="http://www.w3.org/2000/svg" fill="none" viewBox="0 0 48 48"><path fill="currentColor" d="M46.2392 29.2892C46.26 28.1849 45.3816 27.2727 44.2773 27.2518C43.1729 27.231 42.2607 28.1093 42.2399 29.2137C42.209 30.8492 42.1636 32.3329 42.1094 33.6705C42.0647 34.7741 42.9231 35.7051 44.0268 35.7498C45.1304 35.7946 46.0614 34.9361 46.1061 33.8325C46.1615 32.4655 46.2077 30.9529 46.2392 29.2892Z"></path><path fill="currentColor" d="M45.7019 40.2593C45.8578 39.1657 45.0977 38.1529 44.0042 37.997C42.9106 37.8411 41.8978 38.6012 41.7419 39.6948C41.5438 41.0845 40.4535 42.1316 38.9823 42.2502C38.8562 42.2604 38.727 42.2706 38.5947 42.2808C37.4934 42.3657 36.6694 43.3273 36.7543 44.4286C36.8393 45.5299 37.8009 46.3539 38.9022 46.2689C39.0392 46.2584 39.1731 46.2478 39.3039 46.2373C42.6179 45.97 45.237 43.5206 45.7019 40.2593Z"></path><path fill="currentColor" d="M32.3185 46.6259C33.4224 46.5872 34.2859 45.6609 34.2472 44.557C34.2085 43.4531 33.2822 42.5896 32.1783 42.6283C30.6103 42.6833 28.8598 42.726 26.9191 42.7487C25.8146 42.7616 24.9297 43.6675 24.9427 44.7719C24.9556 45.8764 25.8614 46.7613 26.9659 46.7484C28.9371 46.7254 30.7187 46.682 32.3185 46.6259Z"></path><path fill="currentColor" d="M20.5308 46.7484C21.6353 46.7613 22.5411 45.8764 22.5541 44.7719C22.567 43.6675 21.6821 42.7616 20.5776 42.7487C18.6369 42.726 16.8864 42.6833 15.3185 42.6283C14.2146 42.5896 13.2883 43.4531 13.2496 44.557C13.2109 45.6609 14.0743 46.5872 15.1782 46.6259C16.778 46.682 18.5597 46.7254 20.5308 46.7484Z"></path><path fill="currentColor" d="M8.59459 46.2689C9.69589 46.3539 10.6575 45.5299 10.7424 44.4286C10.8274 43.3273 10.0034 42.3657 8.90212 42.2808C8.76979 42.2706 8.6406 42.2604 8.51453 42.2502C7.04335 42.1316 5.95305 41.0845 5.75493 39.6948C5.59905 38.6012 4.58621 37.8411 3.49269 37.997C2.39918 38.1529 1.63908 39.1657 1.79496 40.2593C2.25987 43.5206 4.87893 45.97 8.19299 46.2373C8.32375 46.2478 8.45761 46.2584 8.59459 46.2689Z"></path><path fill="currentColor" d="M1.39071 33.8325C1.43544 34.9361 2.3664 35.7946 3.47006 35.7498C4.57373 35.7051 5.43216 34.7741 5.38743 33.6705C5.33321 32.3329 5.28786 30.8492 5.25698 29.2137C5.23612 28.1093 4.32395 27.231 3.21958 27.2518C2.1152 27.2727 1.23684 28.1849 1.25769 29.2892C1.28911 30.9529 1.3353 32.4655 1.39071 33.8325Z"></path><path fill="currentColor" d="M46.2195 20.2188C46.2563 22.7274 44.2232 24.7515 41.7362 24.7515H5.76048C3.27352 24.7515 1.24039 22.7274 1.27723 20.2188C1.35502 14.9216 1.57763 11.0287 1.79225 8.38716C2.05939 5.09931 4.59622 2.56248 7.88407 2.29535C11.1557 2.02954 16.3469 1.75146 23.7484 1.75146C31.1498 1.75147 36.341 2.02955 39.6127 2.29536C42.9005 2.56249 45.4373 5.09932 45.7045 8.38717C45.9191 11.0287 46.1417 14.9216 46.2195 20.2188Z"></path></svg>