<svg xmlns="http://www.w3.org/2000/svg" fill="none" viewBox="0 0 48 48"><path fill="currentColor" d="M22.5 1.50391C15.8916 1.53833 11.1817 1.79644 8.1357 2.04392C4.84785 2.31105 2.31103 4.84788 2.04389 8.13573C1.77808 11.4074 1.5 16.5986 1.5 24C1.5 31.4015 1.77807 36.5927 2.04389 39.8643C2.31102 43.1522 4.84785 45.689 8.1357 45.9561C11.1817 46.2036 15.8916 46.4617 22.5 46.4962L22.5 1.50391Z"></path><path fill="currentColor" d="M25.5 46.4962C32.1084 46.4617 36.8183 46.2036 39.8643 45.9562C43.1521 45.689 45.689 43.1522 45.9561 39.8643C46.2219 36.5927 46.5 31.4015 46.5 24C46.5 16.5986 46.2219 11.4074 45.9561 8.13574C45.689 4.84789 43.1521 2.31106 39.8643 2.04393C36.8183 1.79645 32.1084 1.53833 25.5 1.50391L25.5 46.4962Z"></path></svg>