<svg xmlns="http://www.w3.org/2000/svg" fill="none" viewBox="0 0 48 48"><path fill="currentColor" d="M13.5 1.71477C11.3349 1.81099 9.55475 1.92859 8.1357 2.04389C4.84785 2.31102 2.31103 4.84784 2.04389 8.13569C1.77808 11.4073 1.5 16.5986 1.5 24C1.5 31.4014 1.77807 36.5927 2.04389 39.8643C2.31102 43.1522 4.84785 45.689 8.1357 45.9561C9.55475 46.0714 11.3349 46.189 13.5 46.2852V1.71477Z"></path><path fill="currentColor" d="M16.5 46.3954C18.6911 46.4598 21.1858 46.5 24 46.5C31.4014 46.5 36.5927 46.2219 39.8643 45.9561C43.1521 45.689 45.689 43.1522 45.9561 39.8643C46.2036 36.8183 46.4617 32.1084 46.4961 25.5L16.5 25.5V46.3954Z"></path><path fill="currentColor" d="M46.4961 22.5L16.5 22.5V1.60464C18.6911 1.5402 21.1858 1.5 24 1.5C31.4014 1.5 36.5927 1.77808 39.8643 2.04389C43.1521 2.31103 45.689 4.84785 45.9561 8.13571C46.2036 11.1817 46.4617 15.8916 46.4961 22.5Z"></path></svg>