<svg xmlns="http://www.w3.org/2000/svg" fill="none" viewBox="0 0 48 48"><path fill="currentColor" d="M24 1.5C22.3088 1.5 20.9487 1.52492 19.8593 1.56235C18.4096 1.61216 17.1234 2.34269 16.5737 3.62714C16.0202 4.92039 16.3918 6.3574 17.3879 7.4302C17.7365 7.80562 18.1276 8.2159 18.5658 8.66239C19.8153 9.93567 20.8315 10.784 21.6157 11.348C23.0653 12.3906 24.9345 12.3908 26.3843 11.3482C27.1687 10.7841 28.1849 9.93573 29.4343 8.6623C29.8721 8.21616 30.2628 7.80619 30.6111 7.43103C31.6074 6.35802 31.9789 4.9208 31.4254 3.62746C30.8757 2.34285 29.5894 1.6121 28.1394 1.5623C27.0502 1.5249 25.6905 1.5 24 1.5Z"></path><path fill="currentColor" d="M12 13.5C9.38981 13.5 7.4003 13.6326 5.9655 13.7877C3.52534 14.0516 1.86713 16.0508 1.74861 18.365C1.63043 20.6725 1.5 24.4714 1.5 30C1.5 35.5286 1.63043 39.3275 1.74861 41.635C1.86713 43.9492 3.52534 45.9484 5.9655 46.2123C7.4003 46.3675 9.38981 46.5 12 46.5C14.6102 46.5 16.5997 46.3675 18.0345 46.2123C20.4747 45.9484 22.1329 43.9492 22.2514 41.635C22.3696 39.3275 22.5 35.5286 22.5 30C22.5 24.4714 22.3696 20.6725 22.2514 18.365C22.1329 16.0508 20.4747 14.0517 18.0345 13.7877C16.5997 13.6326 14.6102 13.5 12 13.5Z"></path><path fill="currentColor" d="M36 13.5C33.3898 13.5 31.4003 13.6326 29.9655 13.7877C27.5253 14.0516 25.8671 16.0508 25.7486 18.365C25.6304 20.6725 25.5 24.4714 25.5 30C25.5 35.5286 25.6304 39.3275 25.7486 41.635C25.8671 43.9492 27.5253 45.9484 29.9655 46.2123C31.4003 46.3675 33.3898 46.5 36 46.5C38.646 46.5 40.6542 46.3638 42.0933 46.2059C44.4952 45.9423 46.1414 43.9855 46.2609 41.6933C46.3767 39.473 46.5 35.7575 46.5 30C46.5 24.2425 46.3767 20.527 46.2609 18.3067C46.1414 16.0145 44.4952 14.0577 42.0933 13.7941C40.6542 13.6362 38.646 13.5 36 13.5Z"></path></svg>