<svg xmlns="http://www.w3.org/2000/svg" fill="none" viewBox="0 0 48 48"><path fill="currentColor" d="M29.0378 1.50915C27.9334 1.4883 27.0212 2.36667 27.0004 3.47104C26.9795 4.57541 27.8579 5.48759 28.9622 5.50844C30.5977 5.53932 32.0814 5.58468 33.419 5.63889C34.5227 5.68362 35.4536 4.82519 35.4984 3.72153C35.5431 2.61787 34.6847 1.68691 33.581 1.64217C32.214 1.58677 30.7015 1.54057 29.0378 1.50915Z"></path><path fill="currentColor" d="M40.0078 2.04643C38.9143 1.89054 37.9014 2.65064 37.7456 3.74416C37.5897 4.83767 38.3498 5.85051 39.4433 6.00639C40.8331 6.20451 41.8801 7.29481 41.9987 8.76599C42.0089 8.89208 42.0191 9.0213 42.0293 9.15365C42.1142 10.255 43.0759 11.0789 44.1772 10.994C45.2785 10.909 46.1024 9.94742 46.0175 8.84612C46.0069 8.70912 45.9963 8.57523 45.9858 8.44445C45.7185 5.1304 43.2691 2.51134 40.0078 2.04643Z"></path><path fill="currentColor" d="M46.3744 15.4298C46.3357 14.3259 45.4094 13.4624 44.3055 13.5011C43.2016 13.5398 42.3382 14.4661 42.3769 15.57C42.4319 17.138 42.4745 18.8885 42.4972 20.8292C42.5101 21.9337 43.416 22.8186 44.5205 22.8056C45.625 22.7927 46.5099 21.8869 46.497 20.7824C46.4739 18.8112 46.4305 17.0296 46.3744 15.4298Z"></path><path fill="currentColor" d="M46.497 27.2175C46.5099 26.113 45.625 25.2072 44.5205 25.1943C43.416 25.1813 42.5101 26.0662 42.4972 27.1707C42.4745 29.1114 42.4319 30.8619 42.3769 32.4298C42.3382 33.5337 43.2016 34.46 44.3055 34.4987C45.4094 34.5375 46.3357 33.674 46.3744 32.5701C46.4305 30.9703 46.4739 29.1886 46.497 27.2175Z"></path><path fill="currentColor" d="M46.0175 39.1537C46.1024 38.0524 45.2785 37.0908 44.1772 37.0059C43.0759 36.921 42.1142 37.7449 42.0293 38.8462C42.0191 38.9785 42.0089 39.1077 41.9987 39.2338C41.8801 40.705 40.8331 41.7953 39.4433 41.9934C38.3498 42.1493 37.5897 43.1621 37.7456 44.2556C37.9014 45.3491 38.9143 46.1092 40.0078 45.9533C43.2691 45.4884 45.7185 42.8694 45.9858 39.5553C45.9963 39.4246 46.0069 39.2907 46.0175 39.1537Z"></path><path fill="currentColor" d="M33.581 46.3576C34.6847 46.3129 35.5431 45.3819 35.4984 44.2782C35.4536 43.1746 34.5227 42.3162 33.419 42.3609C32.0814 42.4151 30.5977 42.4604 28.9622 42.4913C27.8579 42.5122 26.9795 43.4244 27.0004 44.5287C27.0212 45.6331 27.9334 46.5115 29.0378 46.4906C30.7015 46.4592 32.214 46.413 33.581 46.3576Z"></path><path fill="currentColor" d="M19.9673 1.52881C22.4759 1.49197 24.5 3.5251 24.5 6.01206V41.9878C24.5 44.4748 22.4759 46.5079 19.9673 46.4711C14.6701 46.3933 10.7772 46.1707 8.1357 45.9561C4.84784 45.6889 2.31102 43.1521 2.04389 39.8642C1.77808 36.5926 1.5 31.4014 1.5 23.9999C1.5 16.5985 1.77808 11.4073 2.04389 8.13564C2.31103 4.84778 4.84786 2.31096 8.13571 2.04383C10.7772 1.82921 14.6701 1.6066 19.9673 1.52881Z"></path></svg>