<svg xmlns="http://www.w3.org/2000/svg" fill="none" viewBox="0 0 48 48"><path fill="currentColor" d="M39.8643 2.04389C36.5927 1.77808 31.4014 1.5 24 1.5C16.5986 1.5 11.4073 1.77808 8.1357 2.04389C4.84785 2.31102 2.31103 4.84784 2.04389 8.13569C1.94686 9.32996 1.8482 10.78 1.76202 12.5H46.238C46.1518 10.78 46.0531 9.32997 45.9561 8.13571C45.689 4.84785 43.1521 2.31103 39.8643 2.04389Z"></path><path fill="currentColor" d="M46.3636 15.5H17.5L17.5 46.4225C19.4418 46.4709 21.6052 46.5 24 46.5C31.4014 46.5 36.5927 46.2219 39.8643 45.9561C43.1521 45.689 45.689 43.1522 45.9561 39.8643C46.2219 36.5927 46.5 31.4014 46.5 24C46.5 20.7483 46.4463 17.9232 46.3636 15.5Z"></path><path fill="currentColor" d="M14.5 46.327L14.5 15.5H1.6364C1.55367 17.9232 1.5 20.7483 1.5 24C1.5 31.4014 1.77807 36.5927 2.04389 39.8643C2.31102 43.1522 4.84785 45.689 8.1357 45.9561C9.76754 46.0887 11.877 46.2243 14.5 46.327Z"></path></svg>