<svg xmlns="http://www.w3.org/2000/svg" fill="none" viewBox="0 0 48 48"><path fill="currentColor" d="M15.5 1.6364C12.4077 1.74197 9.96998 1.89486 8.1357 2.04389C4.84785 2.31102 2.31103 4.84784 2.04389 8.13569C1.77808 11.4073 1.5 16.5986 1.5 24C1.5 31.4014 1.77807 36.5927 2.04389 39.8643C2.31102 43.1522 4.84785 45.689 8.1357 45.9561C9.96998 46.1051 12.4077 46.258 15.5 46.3636L15.5 1.6364Z"></path><path fill="currentColor" d="M18.5 46.4453C20.1771 46.4799 22.0085 46.5 24 46.5C31.4014 46.5 36.5927 46.2219 39.8643 45.9561C43.1521 45.689 45.689 43.1522 45.9561 39.8643C46.2219 36.5927 46.5 31.4014 46.5 24C46.5 16.5986 46.2219 11.4073 45.9561 8.13571C45.689 4.84785 43.1521 2.31103 39.8643 2.04389C36.5927 1.77808 31.4014 1.5 24 1.5C22.0085 1.5 20.1771 1.52013 18.5 1.55474L18.5 46.4453Z"></path></svg>