<svg xmlns="http://www.w3.org/2000/svg" fill="none" viewBox="0 0 48 48"><path fill="currentColor" d="M24 42.5C20.8841 42.5 18.4423 42.3787 16.6097 42.2278C13.2973 41.955 10.9364 39.2998 10.7696 36.0816C10.6316 33.4192 10.5 29.4512 10.5 24C10.5 18.5488 10.6316 14.5808 10.7696 11.9184C10.9364 8.70024 13.2973 6.04504 16.6097 5.77221C18.4423 5.62127 20.8841 5.5 24 5.5C27.1159 5.5 29.5577 5.62127 31.3903 5.77221C34.7027 6.04504 37.0636 8.70024 37.2304 11.9184C37.3684 14.5808 37.5 18.5488 37.5 24C37.5 29.4512 37.3684 33.4192 37.2304 36.0816C37.0636 39.2998 34.7027 41.955 31.3903 42.2278C29.5577 42.3787 27.1159 42.5 24 42.5Z"></path><path fill="currentColor" d="M46.5 11C46.5 10.5823 46.3258 10.1834 46.0193 9.89956C45.7128 9.61568 45.3019 9.47246 44.8853 9.5044L44.7353 9.5159L44.7328 9.51609C41.8349 9.74302 39.8136 12.0828 39.6845 14.8582C39.5885 16.9196 39.5 19.9257 39.5 24C39.5 28.0743 39.5885 31.0804 39.6845 33.1418C39.8136 35.9172 41.8349 38.257 44.7328 38.4839L44.8853 38.4956C45.3019 38.5275 45.7128 38.3843 46.0193 38.1005C46.3258 37.8166 46.5 37.4178 46.5 37V11Z"></path><path fill="currentColor" d="M1.5 11C1.5 10.5823 1.67421 10.1834 1.98068 9.89956C2.28716 9.61568 2.69813 9.47246 3.11466 9.5044L3.26474 9.5159L3.26719 9.51609C6.16505 9.74302 8.1864 12.0828 8.31554 14.8582C8.41146 16.9196 8.5 19.9257 8.5 24C8.5 28.0743 8.41146 31.0804 8.31554 33.1418C8.18639 35.9172 6.16505 38.257 3.26719 38.4839L3.11465 38.4956C2.69813 38.5275 2.28715 38.3843 1.98068 38.1005C1.67421 37.8166 1.5 37.4178 1.5 37V11Z"></path></svg>