<svg xmlns="http://www.w3.org/2000/svg" fill="none" viewBox="0 0 48 48"><path fill="currentColor" d="M31.5 1.60465C29.3089 1.5402 26.8142 1.5 24 1.5C16.5986 1.5 11.4074 1.77808 8.13574 2.04389C4.84789 2.31102 2.31106 4.84784 2.04393 8.13569C1.79644 11.1817 1.53833 15.8916 1.50391 22.5L31.5 22.5V1.60465Z"></path><path fill="currentColor" d="M1.50391 25.5C1.53833 32.1084 1.79644 36.8183 2.04392 39.8643C2.31105 43.1522 4.84788 45.689 8.13573 45.9561C11.4074 46.2219 16.5986 46.5 24 46.5C26.8142 46.5 29.3089 46.4598 31.5 46.3954V25.5L1.50391 25.5Z"></path><path fill="currentColor" d="M34.5 46.2852C36.6651 46.189 38.4453 46.0714 39.8643 45.9561C43.1522 45.689 45.689 43.1522 45.9561 39.8643C46.2219 36.5927 46.5 31.4014 46.5 24C46.5 16.5986 46.2219 11.4073 45.9561 8.13571C45.689 4.84785 43.1522 2.31103 39.8643 2.04389C38.4453 1.9286 36.6651 1.811 34.5 1.71478V46.2852Z"></path></svg>