<svg xmlns="http://www.w3.org/2000/svg" fill="none" viewBox="0 0 48 48"><path fill="currentColor" d="M18.4593 1.50915C19.5637 1.4883 20.4759 2.36667 20.4967 3.47104C20.5176 4.57541 19.6392 5.48759 18.5348 5.50844C16.8994 5.53932 15.4157 5.58468 14.0781 5.63889C12.9744 5.68362 12.0435 4.82519 11.9987 3.72153C11.954 2.61787 12.8124 1.68691 13.9161 1.64217C15.2831 1.58677 16.7956 1.54057 18.4593 1.50915Z"></path><path fill="currentColor" d="M7.48929 2.04643C8.58281 1.89054 9.59564 2.65064 9.75153 3.74416C9.90742 4.83767 9.14732 5.85051 8.0538 6.00639C6.66402 6.20451 5.617 7.29481 5.49836 8.76599C5.48819 8.89208 5.47799 9.0213 5.46779 9.15365C5.38286 10.255 4.42124 11.0789 3.31994 10.994C2.21864 10.909 1.39471 9.94742 1.47963 8.84612C1.49019 8.70912 1.50075 8.57523 1.5113 8.44445C1.77857 5.1304 4.22797 2.51134 7.48929 2.04643Z"></path><path fill="currentColor" d="M1.12268 15.4298C1.1614 14.3259 2.08767 13.4624 3.19156 13.5011C4.29545 13.5398 5.15894 14.4661 5.12021 15.57C5.06522 17.138 5.02257 18.8885 4.99987 20.8292C4.98694 21.9337 4.0811 22.8186 2.97661 22.8056C1.87211 22.7927 0.987219 21.8869 1.00014 20.7824C1.0232 18.8112 1.06656 17.0296 1.12268 15.4298Z"></path><path fill="currentColor" d="M1.00014 27.2175C0.987219 26.113 1.87211 25.2072 2.97661 25.1943C4.0811 25.1813 4.98694 26.0662 4.99987 27.1707C5.02257 29.1114 5.06522 30.8619 5.12021 32.4298C5.15894 33.5337 4.29545 34.46 3.19156 34.4987C2.08767 34.5375 1.1614 33.674 1.12268 32.5701C1.06656 30.9703 1.0232 29.1886 1.00014 27.2175Z"></path><path fill="currentColor" d="M1.47963 39.1537C1.39471 38.0524 2.21864 37.0908 3.31994 37.0059C4.42124 36.921 5.38286 37.7449 5.46779 38.8462C5.47799 38.9785 5.48818 39.1077 5.49835 39.2338C5.617 40.705 6.66402 41.7953 8.0538 41.9934C9.14731 42.1493 9.90742 43.1621 9.75153 44.2556C9.59565 45.3491 8.58281 46.1092 7.48929 45.9533C4.22797 45.4884 1.77856 42.8694 1.5113 39.5553C1.50075 39.4246 1.49019 39.2907 1.47963 39.1537Z"></path><path fill="currentColor" d="M13.9161 46.3576C12.8124 46.3129 11.954 45.3819 11.9987 44.2782C12.0435 43.1746 12.9744 42.3161 14.0781 42.3609C15.4157 42.4151 16.8994 42.4604 18.5348 42.4913C19.6392 42.5122 20.5176 43.4244 20.4967 44.5287C20.4759 45.6331 19.5637 46.5115 18.4593 46.4906C16.7956 46.4592 15.2831 46.413 13.9161 46.3576Z"></path><path fill="currentColor" d="M27.5298 1.52881C25.0212 1.49197 22.9971 3.5251 22.9971 6.01206V41.9878C22.9971 44.4748 25.0212 46.5079 27.5298 46.4711C32.827 46.3933 36.7199 46.1707 39.3614 45.9561C42.6492 45.6889 45.1861 43.1521 45.4532 39.8642C45.719 36.5926 45.9971 31.4014 45.9971 23.9999C45.9971 16.5985 45.719 11.4073 45.4532 8.13564C45.1861 4.84778 42.6492 2.31096 39.3614 2.04383C36.7198 1.82921 32.827 1.6066 27.5298 1.52881Z"></path></svg>