<svg xmlns="http://www.w3.org/2000/svg" fill="none" viewBox="0 0 48 48"><path fill="currentColor" d="M46.2394 18.7108C46.2603 19.8152 45.3819 20.7273 44.2775 20.7482C43.1731 20.769 42.261 19.8907 42.2401 18.7863C42.2092 17.1509 42.1639 15.6671 42.1097 14.3295C42.0649 13.2259 42.9234 12.2949 44.027 12.2502C45.1307 12.2055 46.0616 13.0639 46.1064 14.1676C46.1618 15.5345 46.208 17.0471 46.2394 18.7108Z"></path><path fill="currentColor" d="M45.7021 7.74076C45.858 8.83427 45.0979 9.84711 44.0044 10.003C42.9109 10.1589 41.898 9.39878 41.7422 8.30527C41.544 6.91549 40.4537 5.86847 38.9826 5.74982C38.8565 5.73965 38.7273 5.72946 38.5949 5.71925C37.4936 5.63433 36.6697 4.6727 36.7546 3.57141C36.8395 2.47011 37.8011 1.64617 38.9024 1.73109C39.0394 1.74165 39.1733 1.75222 39.3041 1.76277C42.6182 2.03003 45.2372 4.47944 45.7021 7.74076Z"></path><path fill="currentColor" d="M32.3188 1.37414C33.4227 1.41286 34.2862 2.33913 34.2474 3.44302C34.2087 4.54691 33.2824 5.4104 32.1786 5.37168C30.6106 5.31668 28.8601 5.27403 26.9194 5.25133C25.8149 5.23841 24.93 4.33256 24.9429 3.22807C24.9558 2.12358 25.8617 1.23868 26.9662 1.2516C28.9373 1.27466 30.719 1.31802 32.3188 1.37414Z"></path><path fill="currentColor" d="M20.531 1.2516C21.6355 1.23868 22.5414 2.12358 22.5543 3.22807C22.5672 4.33256 21.6823 5.23841 20.5778 5.25133C18.6372 5.27404 16.8867 5.31668 15.3187 5.37168C14.2148 5.4104 13.2885 4.54691 13.2498 3.44302C13.2111 2.33913 14.0746 1.41286 15.1785 1.37414C16.7783 1.31802 18.5599 1.27466 20.531 1.2516Z"></path><path fill="currentColor" d="M8.59483 1.73109C9.69613 1.64617 10.6578 2.47011 10.7427 3.57141C10.8276 4.67271 10.0037 5.63433 8.90236 5.71925C8.77003 5.72945 8.64084 5.73965 8.51477 5.74982C7.0436 5.86846 5.95329 6.91548 5.75517 8.30527C5.59929 9.39878 4.58645 10.1589 3.49294 10.003C2.39942 9.84711 1.63932 8.83427 1.7952 7.74076C2.26012 4.47944 4.87918 2.03003 8.19323 1.76276C8.32399 1.75222 8.45785 1.74165 8.59483 1.73109Z"></path><path fill="currentColor" d="M1.39095 14.1676C1.43569 13.0639 2.36665 12.2055 3.47031 12.2502C4.57397 12.2949 5.4324 13.2259 5.38767 14.3295C5.33346 15.6671 5.2881 17.1509 5.25722 18.7863C5.23637 19.8907 4.32419 20.769 3.21982 20.7482C2.11545 20.7273 1.23708 19.8152 1.25793 18.7108C1.28935 17.0471 1.33554 15.5345 1.39095 14.1676Z"></path><path fill="currentColor" d="M46.2197 27.7813C46.2566 25.2726 44.2235 23.2486 41.7365 23.2486L5.76072 23.2486C3.27376 23.2486 1.24064 25.2726 1.27748 27.7813C1.35527 33.0784 1.57788 36.9713 1.7925 39.6129C2.05963 42.9007 4.59646 45.4375 7.88431 45.7047C11.1559 45.9705 16.3472 46.2486 23.7486 46.2486C31.1501 46.2486 36.3413 45.9705 39.6129 45.7047C42.9008 45.4375 45.4376 42.9007 45.7047 39.6129C45.9193 36.9713 46.142 33.0784 46.2197 27.7813Z"></path></svg>