<svg xmlns="http://www.w3.org/2000/svg" fill="none" viewBox="0 0 48 48"><path fill="currentColor" d="M39.8643 2.04389C36.5927 1.77808 31.4014 1.5 24 1.5C16.5986 1.5 11.4073 1.77808 8.1357 2.04389C4.84785 2.31102 2.31103 4.84784 2.04389 8.13569C1.94686 9.32996 1.8482 10.78 1.76202 12.5H46.238C46.1518 10.78 46.0531 9.32997 45.9561 8.13571C45.689 4.84785 43.1521 2.31103 39.8643 2.04389Z"></path><path fill="currentColor" d="M46.3636 15.5H33.5V46.327C36.123 46.2243 38.2324 46.0887 39.8643 45.9561C43.1521 45.689 45.689 43.1522 45.9561 39.8643C46.2219 36.5927 46.5 31.4014 46.5 24C46.5 20.7483 46.4463 17.9232 46.3636 15.5Z"></path><path fill="currentColor" d="M30.5 46.4225L30.5 15.5H1.6364C1.55367 17.9232 1.5 20.7483 1.5 24C1.5 31.4014 1.77807 36.5927 2.04389 39.8643C2.31102 43.1522 4.84785 45.689 8.1357 45.9561C11.4073 46.2219 16.5986 46.5 24 46.5C26.3948 46.5 28.5582 46.4709 30.5 46.4225Z"></path></svg>