<svg xmlns="http://www.w3.org/2000/svg" fill="none" viewBox="0 0 48 48"><path fill="currentColor" fill-rule="evenodd" d="M26.5 3a2.5 2.5 0 0 0-5 0v3a2.5 2.5 0 0 0 5 0V3ZM.5 24A2.5 2.5 0 0 1 3 21.5h3a2.5 2.5 0 0 1 0 5H3A2.5 2.5 0 0 1 .5 24Zm39 0a2.5 2.5 0 0 1 2.5-2.5h3a2.5 2.5 0 0 1 0 5h-3a2.5 2.5 0 0 1-2.5-2.5ZM7.383 7.383a2.5 2.5 0 0 1 3.535 0l2.122 2.121a2.5 2.5 0 1 1-3.536 3.536l-2.121-2.121a2.5 2.5 0 0 1 0-3.536Zm29.699 0a2.5 2.5 0 0 1 3.535 3.535l-2.12 2.122a2.5 2.5 0 0 1-3.536-3.536l2.12-2.121ZM37.5 25c0-7.456-6.044-13.5-13.5-13.5S10.5 17.544 10.5 25c0 3.705 1.492 7.06 3.908 9.5h19.184A13.457 13.457 0 0 0 37.5 25ZM24 20.5a4.5 4.5 0 0 1 4.5 4.5 1.5 1.5 0 0 0 3 0 7.5 7.5 0 0 0-7.5-7.5 1.5 1.5 0 0 0 0 3Zm9.11 17H14.89a3.757 3.757 0 0 0-.009.262c0 .4.067.788.203 1.154a1.31 1.31 0 0 1 .013.23 2.078 2.078 0 0 1-.063.449 4.622 4.622 0 0 0-.153 1.215c0 .447.055.852.153 1.215.25.917.896 1.473 1.534 1.769.601.279 1.247.36 1.758.371.156.004.328.008.519.011.396 1.061 1.32 1.943 2.57 2.13.662.1 1.56.194 2.585.194 1.024 0 1.923-.095 2.584-.194 1.25-.187 2.175-1.069 2.571-2.13l.519-.01c.511-.013 1.157-.093 1.758-.372.639-.296 1.285-.852 1.534-1.77.099-.362.153-.767.153-1.215 0-.447-.054-.852-.153-1.214a2.06 2.06 0 0 1-.063-.45 1.327 1.327 0 0 1 .007-.192l.002-.012.002-.017.002-.008a3.29 3.29 0 0 0 .193-1.416Z" clip-rule="evenodd"/></svg>