<svg xmlns="http://www.w3.org/2000/svg" fill="none" viewBox="0 0 48 48"><path fill="currentColor" fill-rule="evenodd" d="M18.2557 6.34602C24.717 -0.115343 35.193 -0.115341 41.6543 6.34603C48.1157 12.8074 48.1157 23.2833 41.6543 29.7447L39.2352 32.1638C37.8684 33.5307 35.6523 33.5307 34.2855 32.1638L32.8499 30.7282C31.483 29.3614 31.483 27.1453 32.8499 25.7785L35.2797 23.3487C38.2121 20.4163 38.1945 15.6568 35.269 12.7314C33.8304 11.2927 31.9482 10.5573 30.058 10.5301C28.1039 10.5016 26.141 11.2299 24.6503 12.7207L22.1608 15.2101C20.7898 16.517 18.6188 16.4972 17.2721 15.1505L15.8365 13.7149C14.4697 12.3481 14.4697 10.132 15.8365 8.76516L18.2557 6.34602ZM24.2603 17.3533L17.3235 24.2901C17.3062 24.3078 17.2888 24.3253 17.2713 24.3428L14.8415 26.7727C13.0876 28.5265 13.0914 31.3865 14.8522 33.1473C15.8168 34.1119 17.1112 34.5492 18.373 34.4591C19.4143 34.3847 20.4333 33.951 21.2262 33.158L33.1569 21.2273C34.9108 19.4734 34.9071 16.6135 33.1463 14.8527C32.2815 13.9879 31.1516 13.5469 30.0179 13.5298C28.8436 13.5125 27.6652 13.9498 26.773 14.842L24.3432 17.2718C24.3157 17.2993 24.2881 17.3264 24.2603 17.3533ZM15.15 17.2718C16.504 18.6257 16.5167 20.813 15.1883 22.1827L12.7196 24.6514C9.78716 27.5838 9.8048 32.3432 12.7303 35.2687C14.3173 36.8558 16.4442 37.587 18.5263 37.4557C20.2823 37.3452 22.0065 36.621 23.3482 35.2793L25.778 32.8495C27.1448 31.4827 29.3609 31.4827 30.7278 32.8495L32.1633 34.2851C33.5302 35.6519 33.5302 37.868 32.1633 39.2348L29.7442 41.654C23.2829 48.1153 12.8069 48.1153 6.34554 41.654C-0.115829 35.1926 -0.115831 24.7167 6.34554 18.2553L8.76467 15.8362C10.1315 14.4693 12.3476 14.4693 13.7144 15.8362L15.15 17.2718Z" clip-rule="evenodd"></path></svg>