<svg xmlns="http://www.w3.org/2000/svg" fill="none" viewBox="0 0 48 48"><path fill="currentColor" fill-rule="evenodd" d="M16.7178 16.0675C8.31433 16.0675 1.50195 22.8798 1.50195 31.2833C1.50195 39.6868 8.31433 46.4992 16.7178 46.4992C25.1213 46.4992 31.9337 39.6868 31.9337 31.2833C31.9337 29.8704 31.741 28.5017 31.3801 27.2024C31.3247 27.0029 31.3786 26.8011 31.5085 26.6712L34.6475 23.5322C34.9288 23.2509 35.0868 22.8694 35.0868 22.4716V19.6694C35.0868 19.3933 35.3107 19.1694 35.5868 19.1694H37.7913C38.6198 19.1694 39.2913 18.4979 39.2913 17.6694V15.4649C39.2913 15.1887 39.5152 14.9649 39.7913 14.9649H42.5934C42.9913 14.9649 43.3728 14.8069 43.6541 14.5255L44.9244 13.2553C45.0704 13.1093 45.2331 12.9274 45.3547 12.6967C45.7814 11.8869 46.7454 9.39824 46.4418 3.81911C46.3755 2.60031 45.4011 1.62591 44.1823 1.55958C38.6032 1.25598 36.1145 2.22001 35.3047 2.64672C35.0739 2.76833 34.8921 2.93101 34.7461 3.07704L21.3303 16.4927C21.2004 16.6227 20.9986 16.6766 20.7991 16.6211C19.4997 16.2602 18.1309 16.0675 16.7178 16.0675ZM12.2138 39.0456C10.4722 39.0456 9.06039 37.6337 9.06039 35.8922C9.06039 34.1506 10.4722 32.7388 12.2138 32.7388C13.9554 32.7388 15.3672 34.1506 15.3672 35.8922C15.3672 37.6337 13.9554 39.0456 12.2138 39.0456Z" clip-rule="evenodd"></path></svg>