<svg xmlns="http://www.w3.org/2000/svg" fill="none" viewBox="0 0 48 48"><path fill="currentColor" fill-rule="evenodd" d="M24 1.5C16.5967 1.5 11.4083 1.73864 8.1434 1.96626C4.87765 2.19393 2.28148 4.65866 1.9914 7.9589C1.74218 10.7943 1.5 15.0741 1.5 21C1.5 26.9259 1.74218 31.2057 1.9914 34.0411C2.28148 37.3413 4.87765 39.8061 8.1434 40.0337C9.55932 40.1325 11.3369 40.2332 13.5 40.3157V44.8258C13.5 46.9617 16.0053 48.1139 17.627 46.7239L24.8896 40.4988C31.8208 40.4807 36.724 40.2521 39.8566 40.0337C43.1223 39.8061 45.7185 37.3413 46.0086 34.0411C46.2578 31.2057 46.5 26.9259 46.5 21C46.5 15.0741 46.2578 10.7943 46.0086 7.9589C45.7185 4.65866 43.1223 2.19393 39.8566 1.96626C36.5917 1.73864 31.4033 1.5 24 1.5ZM26.882 26.9518C29.1 25.7144 30.242 24.3644 30.4198 22.0723C29.607 22.0689 28.9384 22.0585 28.3916 22.0446C27.0614 22.0108 26.0659 21.0128 26.0306 19.6826C26.0126 19.0052 26 18.1469 26 17.0725C26 15.9124 26.0147 15.0043 26.035 14.3038C26.0713 13.051 26.974 12.1006 28.2263 12.0491C28.9214 12.0205 29.8283 12 31 12C32.1717 12 33.0786 12.0205 33.7736 12.0491C35.026 12.1005 35.9288 13.0511 35.965 14.304C35.9851 14.9988 35.9998 15.8979 36 17.0445V22.0735H35.9771C35.6809 26.3091 32.5524 28.8327 29.0072 29.9234C28.5082 30.0769 27.9575 30.0032 27.5801 29.6425C27.1422 29.224 26.7669 28.7063 26.4921 28.2749C26.1966 27.8111 26.4017 27.2197 26.882 26.9518ZM16.4198 22.0723C16.242 24.3644 15.1 25.7144 12.882 26.9518C12.4017 27.2197 12.1966 27.8111 12.4921 28.2749C12.7669 28.7063 13.1422 29.224 13.5801 29.6425C13.9575 30.0032 14.5082 30.0769 15.0072 29.9234C18.5524 28.8327 21.6809 26.3091 21.9771 22.0735H22V17.0445C21.9998 15.8979 21.9851 14.9988 21.965 14.304C21.9288 13.0511 21.026 12.1005 19.7736 12.0491C19.0786 12.0205 18.1717 12 17 12C15.8283 12 14.9214 12.0205 14.2263 12.0491C12.974 12.1006 12.0713 13.051 12.035 14.3038C12.0147 15.0043 12 15.9124 12 17.0725C12 18.1469 12.0126 19.0052 12.0306 19.6826C12.0659 21.0128 13.0614 22.0108 14.3916 22.0446C14.9384 22.0585 15.607 22.0689 16.4198 22.0723Z" clip-rule="evenodd"></path></svg>