<svg xmlns="http://www.w3.org/2000/svg" fill="none" viewBox="0 0 48 48"><path fill="currentColor" d="M24 1.5C16.5967 1.5 11.4083 1.73864 8.1434 1.96626C4.87765 2.19393 2.28148 4.65866 1.9914 7.9589C1.74218 10.7943 1.5 15.0741 1.5 21C1.5 26.9259 1.74218 31.2057 1.9914 34.0411C2.28148 37.3413 4.87765 39.8061 8.1434 40.0337C9.55932 40.1325 11.3369 40.2332 13.5 40.3157V44.8258C13.5 46.9617 16.0053 48.1139 17.627 46.7239L24.8896 40.4988C31.8208 40.4807 36.724 40.2521 39.8566 40.0337C43.1223 39.8061 45.7185 37.3413 46.0086 34.0411C46.2578 31.2057 46.5 26.9259 46.5 21C46.5 15.0741 46.2578 10.7943 46.0086 7.9589C45.7185 4.65866 43.1223 2.19393 39.8566 1.96626C36.5917 1.73864 31.4033 1.5 24 1.5Z"></path></svg>