<svg xmlns="http://www.w3.org/2000/svg" fill="none" viewBox="0 0 48 48"><path fill="currentColor" fill-rule="evenodd" d="M25.0327 1.5C12.2546 1.5 1.5 11.425 1.5 24.6592C1.5 36.4509 10.1998 46.5 22.1143 46.5C24.817 46.5 26.7154 46.1484 27.8672 45.3698C28.8465 44.7401 29.349 43.8547 29.4847 42.8951C29.6181 41.9512 29.3945 40.9638 28.9852 40.09C28.7085 39.4993 28.0774 39.2365 27.4971 39.3178C25.8654 39.5462 24.2792 39.7381 22.6531 39.7381C14.0903 39.7381 8.26191 32.2412 8.26191 24.6592C8.26191 16.0199 15.8921 8.21701 25.0327 8.21701C29.6321 8.21701 33.3058 9.67771 35.8249 12.0217C38.3431 14.3649 39.7381 17.6181 39.7381 21.2691C39.7381 23.858 38.9529 26.1237 37.7371 27.4683C37.1336 28.1358 36.435 28.5657 35.6794 28.7198C35.0135 28.8555 34.2677 28.7845 33.4551 28.4252L34.7745 19.8471C35.1128 18.0533 34.3025 16.3021 32.8693 15.2615L32.8654 15.2588C30.574 13.6282 27.8634 12.9532 25.1224 12.9532C18.237 12.9532 13.2633 18.1804 13.2633 24.9888C13.2633 27.8089 14.2378 30.2579 15.9496 32.0038C17.6625 33.7508 20.0847 34.7643 22.9224 34.7643C24.8184 34.7643 26.8128 34.4014 28.526 33.4366C30.3091 34.5158 32.4201 34.9997 34.4612 34.9997C38.4678 34.9997 41.4995 33.4381 43.5185 30.9097C45.526 28.3956 46.5 24.968 46.5 21.2691C46.5 9.26309 36.0414 1.5 25.0327 1.5ZM22.8211 21.3905C23.4562 20.5857 24.2007 20.2154 25.0776 20.2154C25.6291 20.2154 26.1808 20.2758 26.615 20.4675L25.9927 27.254C25.4965 27.5728 24.9128 27.7376 24.2245 27.7376C23.3785 27.7376 22.8103 27.4296 22.4415 26.965C22.0598 26.4841 21.851 25.782 21.851 24.9417C21.851 23.3072 22.1987 22.1521 22.8157 21.3972L22.8211 21.3905Z" clip-rule="evenodd"></path></svg>