<svg xmlns="http://www.w3.org/2000/svg" fill="none" viewBox="0 0 48 48"><path fill="currentColor" fill-rule="evenodd" d="M1.54555 27.5C2.53262 18.4342 3.94544 11.2399 4.87898 7.07234C5.55973 4.03337 8.13562 1.85693 11.2576 1.72226C13.9048 1.60806 17.9956 1.5 24 1.5C30.0043 1.5 34.0949 1.60806 36.742 1.72226C39.8638 1.85693 42.4395 4.03316 43.1204 7.0719C44.0541 11.2394 45.4673 18.4339 46.4544 27.5H34.1619C32.225 27.5 30.5054 28.7394 29.8929 30.577L29.2604 32.4743C29.0562 33.0869 28.483 33.5 27.8374 33.5H20.1619C19.5163 33.5 18.9431 33.0869 18.7389 32.4743L18.1065 30.577C17.4939 28.7394 15.7743 27.5 13.8374 27.5H1.54555ZM15 11C15 9.89543 15.8954 9 17 9H31C32.1046 9 33 9.89543 33 11C33 12.1046 32.1046 13 31 13H17C15.8954 13 15 12.1046 15 11ZM15 18C13.8954 18 13 18.8954 13 20C13 21.1046 13.8954 22 15 22H33C34.1046 22 35 21.1046 35 20C35 18.8954 34.1046 18 33 18H15Z" clip-rule="evenodd"></path><path fill="currentColor" d="M7.74758 46.0017C10.8184 46.2496 15.9184 46.5 24 46.5C32.0813 46.5 37.1811 46.2497 40.2518 46.0017C43.3645 45.7504 45.7668 43.3838 46.0428 40.2649C46.3437 36.8638 46.4471 32.9701 46.4822 30.5H34.1619C33.5163 30.5 32.9431 30.9131 32.7389 31.5257L32.1065 33.423C31.4939 35.2606 29.7743 36.5 27.8374 36.5H20.1619C18.225 36.5 16.5054 35.2606 15.8929 33.423L15.2604 31.5257C15.0562 30.9131 14.483 30.5 13.8374 30.5H1.51758C1.55255 32.9701 1.65566 36.8637 1.95651 40.2648C2.23241 43.3838 4.63487 45.7504 7.74758 46.0017Z"></path></svg>