<svg xmlns="http://www.w3.org/2000/svg" fill="none" viewBox="0 0 48 48"><path fill="currentColor" d="M20.2617 41.3219L23.0574 38.9922C27.9616 38.9556 31.6157 38.7919 34.1563 38.6222C38.6491 38.3221 42.2494 34.8794 42.6108 30.3087C42.8154 27.7218 43.0001 24.0011 43.0001 18.9997C43.0001 18.0392 42.9933 17.1259 42.9808 16.2588C44.812 17.095 46.098 18.8589 46.2508 21.0099C46.3842 22.8882 46.5001 25.5212 46.5001 28.9997C46.5001 32.4783 46.3842 35.1113 46.2508 36.9896C46.0456 39.8784 43.7963 42.0691 40.9277 42.2519C40.4928 42.2796 40.0173 42.3068 39.5001 42.3324V44.9191C39.5001 47.0154 37.0753 48.1808 35.4383 46.8713L29.9603 42.4889C27.0209 42.4569 24.7459 42.3586 23.0725 42.2519C22.0313 42.1856 21.0716 41.8547 20.2617 41.3219Z"></path><path fill="currentColor" fill-rule="evenodd" d="M21 1.5C15.0981 1.5 10.835 1.68333 8.01041 1.872C4.72978 2.09113 2.14308 4.5797 1.88149 7.88812C1.68247 10.4053 1.5 14.0601 1.5 19C1.5 23.9399 1.68247 27.5947 1.88149 30.1119C2.14308 33.4203 4.72978 35.9089 8.0104 36.128C8.74249 36.1769 9.5712 36.2254 10.5 36.2705V40.865C10.5 42.9846 12.9721 44.1424 14.6005 42.7855L22.1459 36.4977C27.4577 36.4758 31.3512 36.3042 33.9896 36.128C37.2702 35.9089 39.8569 33.4203 40.1185 30.1119C40.3175 27.5947 40.5 23.9399 40.5 19C40.5 14.0601 40.3175 10.4053 40.1185 7.88812C39.8569 4.5797 37.2702 2.09113 33.9896 1.872C31.165 1.68333 26.9019 1.5 21 1.5ZM10 14C10 12.8954 10.8954 12 12 12H30C31.1046 12 32 12.8954 32 14C32 15.1046 31.1046 16 30 16H12C10.8954 16 10 15.1046 10 14ZM12 22C10.8954 22 10 22.8954 10 24C10 25.1046 10.8954 26 12 26H22C23.1046 26 24 25.1046 24 24C24 22.8954 23.1046 22 22 22H12Z" clip-rule="evenodd"></path></svg>