<svg xmlns="http://www.w3.org/2000/svg" fill="none" viewBox="0 0 48 48"><path fill="currentColor" fill-rule="evenodd" d="M46.5004 23C46.5004 15.09 46.1987 10.2139 45.9017 7.3271C45.6004 4.39828 43.3547 2.27231 40.4715 2.0057C37.7637 1.7553 33.4275 1.5 27.0005 1.5C20.5734 1.5 16.2372 1.7553 13.5293 2.0057C10.6462 2.27231 8.40044 4.39828 8.09908 7.32713C7.91544 9.11195 7.73003 11.6572 7.61523 15.2097C8.99645 14.7483 10.4732 14.5 12.0004 14.5C19.2123 14.5 25.5004 20.143 25.5004 27.6364V29.7707C28.8294 26.6012 31.0953 24.6441 32.5541 23.4641C34.0504 22.2538 36.045 22.0583 37.6929 23.118C39.0238 23.9738 40.9224 25.3427 43.4639 27.5042C43.376 32.737 43.1416 36.1823 42.917 38.3658C42.7672 39.8208 41.6999 40.8679 40.1948 41.007C37.5918 41.2477 33.3488 41.5 27 41.5C26.1073 41.5 25.2562 41.495 24.4454 41.4858C23.978 42.5623 23.3679 43.5591 22.6414 44.4578C23.9731 44.4846 25.4239 44.5 27.0005 44.5C33.4275 44.5 37.7637 44.2447 40.4715 43.9943C43.3546 43.7277 45.6004 41.6017 45.9017 38.6729C46.1987 35.7861 46.5004 30.91 46.5004 23ZM29.4999 12.5C29.4999 9.73858 31.7385 7.5 34.4999 7.5C37.2613 7.5 39.4999 9.73858 39.4999 12.5C39.4999 15.2614 37.2613 17.5 34.4999 17.5C31.7385 17.5 29.4999 15.2614 29.4999 12.5Z" clip-rule="evenodd"></path><path fill="currentColor" fill-rule="evenodd" d="M7.03324 19.2708C8.50156 18.46 10.1997 18 12 18C17.4341 18 22 22.2277 22 27.6364V36.3636C22 41.7723 17.4341 46 12 46C6.56585 46 2 41.7723 2 36.3636V31.596C2 28.2179 4.84132 25.6364 8.14815 25.6364C11.455 25.6364 14.2963 28.2179 14.2963 31.596V36.2727C14.2963 37.3773 13.4009 38.2727 12.2963 38.2727C11.1917 38.2727 10.2963 37.3773 10.2963 36.2727V31.596C10.2963 30.6004 9.42324 29.6364 8.14815 29.6364C6.87306 29.6364 6 30.6004 6 31.596V36.3636C6 39.3899 8.59759 42 12 42C15.4024 42 18 39.3899 18 36.3636V27.6364C18 24.6101 15.4024 22 12 22C10.886 22 9.85183 22.2837 8.96676 22.7724C7.99981 23.3064 6.7831 22.9553 6.24918 21.9884C5.71525 21.0214 6.06629 19.8047 7.03324 19.2708Z" clip-rule="evenodd"></path></svg>