<svg xmlns="http://www.w3.org/2000/svg" fill="none" viewBox="0 0 48 48"><path fill="currentColor" d="M46.4992 23C46.4992 20.9817 46.4749 19.1528 46.4329 17.4999C45.7295 17.5005 44.8409 17.4982 43.8732 17.4884C41.6021 17.4653 38.8301 17.4002 37.0064 17.2253C33.6733 16.9056 31.0819 14.2488 30.7607 10.9003C30.5857 9.07519 30.5253 6.32536 30.5067 4.07707C30.4987 3.11461 30.4984 2.23204 30.5006 1.53496C29.4075 1.5125 28.2412 1.5 26.9993 1.5C20.6846 1.5 16.3253 1.82315 13.5814 2.13673C10.686 2.46764 8.48768 4.66797 8.16803 7.56809C7.96136 9.44314 7.74766 12.1054 7.61914 15.7363C8.99385 15.2582 10.4701 15 11.9994 15C18.9574 15 24.9994 20.4408 24.9994 27.6364V36.3636C24.9994 39.4807 23.8656 42.2685 22.0147 44.4273C23.5189 44.4731 25.1778 44.5 26.9993 44.5C33.3141 44.5 37.6734 44.1768 40.4173 43.8633C43.3127 43.5324 45.511 41.332 45.8307 38.4319C46.1562 35.478 46.4992 30.5706 46.4992 23Z"></path><path fill="currentColor" d="M33.5066 4.05228C33.5252 6.30661 33.586 8.9353 33.747 10.6138C33.9349 12.5722 35.43 14.0603 37.2929 14.239C38.9729 14.4001 41.6258 14.4654 43.9037 14.4885C44.7061 14.4967 45.4539 14.4996 46.0846 14.5C45.4913 13.1061 44.0517 10.556 40.6522 7.22321C37.4493 4.08301 34.9582 2.65175 33.4996 2.01321C33.4989 2.61115 33.5004 3.30772 33.5066 4.05228Z"></path><path fill="currentColor" fill-rule="evenodd" d="M6.79155 18.8331C8.33278 17.9821 10.114 17.5 12 17.5C17.6881 17.5 22.5 21.9299 22.5 27.6364V36.3636C22.5 42.0701 17.6881 46.5 12 46.5C6.31188 46.5 1.5 42.0701 1.5 36.3636V31.596C1.5 27.9201 4.58735 25.1364 8.14815 25.1364C11.7089 25.1364 14.7963 27.9201 14.7963 31.596V36.2727C14.7963 37.6534 13.677 38.7727 12.2963 38.7727C10.9156 38.7727 9.7963 37.6534 9.7963 36.2727V31.596C9.7963 30.8982 9.16927 30.1364 8.14815 30.1364C7.12703 30.1364 6.5 30.8982 6.5 31.596V36.3636C6.5 39.092 8.85156 41.5 12 41.5C15.1484 41.5 17.5 39.092 17.5 36.3636V27.6364C17.5 24.908 15.1484 22.5 12 22.5C10.9717 22.5 10.0206 22.7617 9.20845 23.2101C7.99976 23.8775 6.47888 23.4387 5.81147 22.2301C5.14406 21.0214 5.58286 19.5005 6.79155 18.8331Z" clip-rule="evenodd"></path></svg>