<svg xmlns="http://www.w3.org/2000/svg" fill="none" viewBox="0 0 48 48"><path fill="currentColor" fill-rule="evenodd" d="M8.1434 1.96626C11.4083 1.73864 16.5967 1.5 24 1.5C31.4033 1.5 36.5917 1.73864 39.8566 1.96626C43.1223 2.19393 45.7185 4.65866 46.0086 7.9589C46.2578 10.7943 46.5 15.0741 46.5 21C46.5 26.9259 46.2578 31.2057 46.0086 34.0411C45.7185 37.3413 43.1223 39.8061 39.8566 40.0337C36.724 40.2521 31.8208 40.4807 24.8896 40.4988L17.627 46.7239C16.0053 48.1139 13.5 46.9617 13.5 44.8258V40.3157C11.3369 40.2332 9.55932 40.1325 8.1434 40.0337C4.87765 39.8061 2.28148 37.3413 1.9914 34.0411C1.74218 31.2057 1.5 26.9259 1.5 21C1.5 15.0741 1.74218 10.7943 1.9914 7.9589C2.28148 4.65866 4.87765 2.19393 8.1434 1.96626ZM35.4686 14.4123C35.4876 14.7154 35.5 15.0758 35.5 15.5C35.5 15.9274 35.4874 16.2895 35.4682 16.5933C35.4025 17.6335 34.5772 18.3214 33.5975 18.3657C32.2313 18.4273 29.4635 18.5 24 18.5C18.555 18.5 15.7879 18.4306 14.4172 18.3714C13.4302 18.3289 12.5969 17.6358 12.5314 16.5877C12.5124 16.2846 12.5 15.9242 12.5 15.5C12.5 15.0758 12.5124 14.7154 12.5314 14.4123C12.5969 13.3642 13.4302 12.6711 14.4172 12.6286C15.7879 12.5694 18.5551 12.5 24 12.5C29.445 12.5 32.2121 12.5694 33.5828 12.6286C34.5698 12.6711 35.4031 13.3642 35.4686 14.4123ZM27.4819 25.4649C27.4929 25.7554 27.5 26.0985 27.5 26.5C27.5 26.9058 27.4927 27.2516 27.4815 27.5433C27.4417 28.58 26.6674 29.3397 25.6445 29.3948C24.6515 29.4483 22.934 29.5 20 29.5C17.0826 29.5 15.3684 29.4508 14.3733 29.3997C13.342 29.3467 12.5577 28.5815 12.5181 27.5351C12.5071 27.2446 12.5 26.9015 12.5 26.5C12.5 26.0985 12.5071 25.7554 12.5181 25.4649C12.5577 24.4185 13.342 23.6533 14.3733 23.6003C15.3684 23.5492 17.0826 23.5 20 23.5C22.9174 23.5 24.6316 23.5492 25.6267 23.6003C26.658 23.6533 27.4423 24.4185 27.4819 25.4649Z" clip-rule="evenodd"></path></svg>