<svg xmlns="http://www.w3.org/2000/svg" fill="none" viewBox="0 0 48 48"><path fill="currentColor" fill-rule="evenodd" d="M23.9268 3.49109C22.4594 3.45053 20.7215 3.52396 19.4987 3.59436C18.3359 3.66131 17.3368 4.41429 16.9345 5.50027C16.1919 7.50525 15.4524 9.61416 14.7272 11.7682C11.5885 11.8437 9.1397 11.9318 7.66032 11.9913C6.49133 12.0384 5.46283 12.7674 5.04781 13.868C4.43905 15.4823 4.0803 16.6665 3.87004 17.5213C3.70254 18.2022 3.86822 18.8388 4.27745 19.3043C4.67961 19.7618 5.28497 20.0198 5.94832 20.0347C7.97258 20.0801 10.0106 20.1152 12.0354 20.1415C11.2133 22.8078 10.4337 25.4304 9.7172 27.9015C7.85932 27.9283 6.35709 27.9549 5.30955 27.9751C4.08107 27.9988 2.99765 28.7743 2.59056 29.9381C2.10211 31.3344 1.77694 32.4051 1.56039 33.2131C1.15508 34.7254 2.274 35.975 3.74482 36.0374C4.96305 36.0891 6.17857 36.1339 7.38693 36.1725C6.74829 38.5047 6.2386 40.422 5.89406 41.7346C5.54225 43.075 6.38437 44.4584 7.86032 44.5049C9.30068 44.5502 11.0231 44.4813 12.2654 44.4116C13.504 44.3421 14.5452 43.4961 14.9035 42.3218L16.7224 36.3605C19.1594 36.3828 21.5101 36.3846 23.7309 36.3724L22.1248 41.6365C21.7091 42.9988 22.544 44.466 24.0732 44.5083C25.5406 44.5488 27.2785 44.4754 28.5013 44.405C29.6641 44.3381 30.6632 43.5851 31.0655 42.4991C31.8081 40.4941 32.5476 38.3853 33.2728 36.2313C36.4116 36.1558 38.8603 36.0676 40.3397 36.0081C41.5087 35.9611 42.5372 35.232 42.9522 34.1314C43.561 32.5171 43.9197 31.3329 44.13 30.4782C44.2975 29.7972 44.1318 29.1606 43.7226 28.6951C43.3204 28.2377 42.7151 27.9797 42.0517 27.9648C40.0274 27.9193 37.9894 27.8842 35.9646 27.8579C36.7868 25.1916 37.5663 22.569 38.2828 20.098C40.1407 20.0712 41.6429 20.0445 42.6905 20.0243C43.919 20.0006 45.0024 19.2251 45.4095 18.0614C45.8979 16.665 46.2231 15.5943 46.4396 14.7863C46.845 13.274 45.726 12.0245 44.2552 11.9621C43.037 11.9104 41.8215 11.8656 40.6131 11.827C41.2517 9.49475 41.7614 7.57742 42.106 6.26477C42.4578 4.92438 41.6157 3.541 40.1397 3.4945C38.6994 3.44913 36.9769 3.51812 35.7347 3.58781C34.496 3.65731 33.4548 4.50323 33.0965 5.6776L31.2776 11.639C28.8406 11.6167 26.4899 11.6149 24.2691 11.627L25.8753 6.36284C26.2909 5.00053 25.456 3.53335 23.9268 3.49109ZM19.3326 27.8057L21.6507 20.2086C24.1015 20.2121 26.4593 20.2059 28.6674 20.1937L26.3493 27.7909C23.8985 27.7874 21.5407 27.7935 19.3326 27.8057Z" clip-rule="evenodd"></path></svg>