<svg xmlns="http://www.w3.org/2000/svg" fill="none" viewBox="0 0 48 48"><path fill="currentColor" fill-rule="evenodd" d="M24 46.5C11.5736 46.5 1.5 36.4264 1.5 24C1.5 11.5736 11.5736 1.5 24 1.5C36.4264 1.5 46.5 11.5736 46.5 24C46.5 36.4264 36.4264 46.5 24 46.5ZM21.3658 10.5905C22.0669 10.5403 22.9549 10.5 24 10.5C25.0451 10.5 25.9331 10.5403 26.6342 10.5905C27.9459 10.6846 29.0002 11.5878 29.4176 12.7922L30.0417 14.5931C31.3423 14.6356 32.444 14.688 33.3473 14.7404C35.402 14.8596 37.0356 16.4313 37.213 18.4864C37.3601 20.1905 37.5 22.4744 37.5 25C37.5 27.5256 37.3601 29.8095 37.213 31.5136C37.0356 33.5687 35.402 35.1404 33.3473 35.2596C31.2766 35.3797 28.1632 35.5 24 35.5C19.8368 35.5 16.7234 35.3797 14.6527 35.2596C12.598 35.1404 10.9644 33.5687 10.787 31.5136C10.6399 29.8095 10.5 27.5256 10.5 25C10.5 22.4744 10.6399 20.1905 10.787 18.4864C10.9644 16.4313 12.598 14.8596 14.6527 14.7404C15.556 14.688 16.6577 14.6356 17.9583 14.5931L18.5824 12.7922C18.9998 11.5878 20.0541 10.6846 21.3658 10.5905Z" clip-rule="evenodd"></path><path fill="currentColor" d="M24 19C20.6863 19 18 21.6863 18 25C18 28.3137 20.6863 31 24 31C27.3137 31 30 28.3137 30 25C30 21.6863 27.3137 19 24 19Z"></path></svg>