<svg xmlns="http://www.w3.org/2000/svg" fill="none" viewBox="0 0 48 48"><path fill="currentColor" d="M6 25.5C5.44194 25.5 4.97413 25.5137 4.58119 25.5364C3.67671 25.5887 2.87357 25.9736 2.30878 26.6408C1.76037 27.2887 1.52016 28.1011 1.50783 28.899C1.50299 29.2126 1.5 29.5773 1.5 30C1.5 30.4227 1.50299 30.7874 1.50783 31.101C1.52016 31.8989 1.76037 32.7113 2.30878 33.3592C2.87357 34.0264 3.67671 34.4113 4.58119 34.4636C4.97414 34.4863 5.44194 34.5 6 34.5C6.55806 34.5 7.02586 34.4863 7.41881 34.4636C8.32329 34.4113 9.12643 34.0264 9.69122 33.3592C10.2396 32.7113 10.4798 31.8989 10.4922 31.101C10.497 30.7874 10.5 30.4227 10.5 30C10.5 29.5773 10.497 29.2126 10.4922 28.899C10.4798 28.1011 10.2396 27.2887 9.69122 26.6408C9.12643 25.9736 8.32329 25.5887 7.41881 25.5364C7.02587 25.5137 6.55806 25.5 6 25.5Z"></path><path fill="currentColor" d="M6 13.5C5.44194 13.5 4.97413 13.5137 4.58119 13.5364C3.67671 13.5887 2.87357 13.9736 2.30878 14.6408C1.76037 15.2887 1.52016 16.1011 1.50783 16.899C1.50299 17.2126 1.5 17.5773 1.5 18C1.5 18.4227 1.50299 18.7874 1.50783 19.101C1.52016 19.8989 1.76037 20.7113 2.30878 21.3592C2.87357 22.0264 3.67671 22.4113 4.58119 22.4636C4.97414 22.4863 5.44194 22.5 6 22.5C6.55806 22.5 7.02586 22.4863 7.41881 22.4636C8.32329 22.4113 9.12643 22.0264 9.69122 21.3592C10.2396 20.7113 10.4798 19.8989 10.4922 19.101C10.497 18.7874 10.5 18.4227 10.5 18C10.5 17.5773 10.497 17.2126 10.4922 16.899C10.4798 16.1011 10.2396 15.2887 9.69122 14.6408C9.12643 13.9736 8.32329 13.5887 7.41881 13.5364C7.02587 13.5137 6.55806 13.5 6 13.5Z"></path><path fill="currentColor" d="M29.5 10.5C37.0542 10.5 40.9384 10.4016 42.8908 10.3161C44.5655 10.2428 46.3222 9.16444 46.4662 7.05458C46.4876 6.7417 46.5 6.39156 46.5 6C46.5 5.60844 46.4876 5.25831 46.4662 4.94543C46.3222 2.83556 44.5655 1.75721 42.8908 1.6839C40.9384 1.59844 37.0542 1.5 29.5 1.5C21.9458 1.5 18.0616 1.59844 16.1092 1.6839C14.4345 1.75721 12.6778 2.83556 12.5338 4.94543C12.5124 5.25831 12.5 5.60844 12.5 6C12.5 6.39156 12.5124 6.74169 12.5338 7.05457C12.6778 9.16444 14.4345 10.2428 16.1092 10.3161C18.0616 10.4016 21.9458 10.5 29.5 10.5Z"></path><path fill="currentColor" d="M6 1.5C5.44194 1.5 4.97413 1.51373 4.58119 1.53645C3.67671 1.58874 2.87357 1.97362 2.30878 2.64084C1.76037 3.28873 1.52016 4.10105 1.50783 4.89903C1.50299 5.21256 1.5 5.57725 1.5 6C1.5 6.42275 1.50299 6.78744 1.50783 7.10097C1.52016 7.89895 1.76037 8.71127 2.30878 9.35916C2.87357 10.0264 3.67671 10.4113 4.58119 10.4636C4.97414 10.4863 5.44194 10.5 6 10.5C6.55806 10.5 7.02586 10.4863 7.41881 10.4636C8.32329 10.4113 9.12643 10.0264 9.69122 9.35916C10.2396 8.71127 10.4798 7.89895 10.4922 7.10097C10.497 6.78744 10.5 6.42275 10.5 6C10.5 5.57725 10.497 5.21256 10.4922 4.89903C10.4798 4.10105 10.2396 3.28873 9.69122 2.64084C9.12643 1.97362 8.32329 1.58874 7.41881 1.53645C7.02587 1.51373 6.55806 1.5 6 1.5Z"></path><path fill="currentColor" d="M32.2446 22.4953C31.3884 22.4984 30.4747 22.5 29.5 22.5C21.9458 22.5 18.0616 22.4016 16.1092 22.3161C14.4345 22.2428 12.6778 21.1644 12.5338 19.0546C12.5124 18.7417 12.5 18.3916 12.5 18C12.5 17.6084 12.5124 17.2583 12.5338 16.9454C12.6778 14.8356 14.4345 13.7572 16.1092 13.6839C18.0616 13.5984 21.9458 13.5 29.5 13.5C37.0542 13.5 40.9384 13.5984 42.8908 13.6839C44.5655 13.7572 46.3222 14.8356 46.4662 16.9454C46.4876 17.2583 46.5 17.6084 46.5 18C46.5 18.3916 46.4876 18.7417 46.4662 19.0546C46.3222 21.1644 44.5655 22.2428 42.8908 22.3161C42.4371 22.336 41.8791 22.3565 41.195 22.3764C39.8461 21.7272 38.3051 21.2558 36.5455 21.0385C34.9272 20.8387 33.3722 21.4299 32.2446 22.4953Z"></path><path fill="currentColor" d="M41.3828 31.2517L41.3815 31.251L41.3452 31.2313C41.2718 31.1917 41.1986 31.1532 41.1256 31.1158C40.4872 30.7888 39.8661 30.5468 39.278 30.3695C40.9286 30.8672 42.8392 31.8736 44.6624 33.8396C44.6622 33.8396 44.6625 33.8395 44.6624 33.8396C44.5689 33.7388 44.4748 33.6408 44.3809 33.545C43.8678 33.0214 43.3492 32.5712 42.8328 32.1846C42.3454 31.8198 41.8599 31.5116 41.3828 31.2517Z"></path><path fill="currentColor" d="M30.5929 25.5007C30.2374 25.5002 29.8732 25.5 29.5 25.5C21.9458 25.5 18.0616 25.5984 16.1092 25.6839C14.4345 25.7572 12.6778 26.8356 12.5338 28.9454C12.5124 29.2583 12.5 29.6084 12.5 30C12.5 30.3916 12.5124 30.7417 12.5338 31.0546C12.6778 33.1644 14.4345 34.2428 16.1092 34.3161C17.712 34.3863 20.6167 34.4652 25.785 34.4912C27.058 33.2754 28.6871 32.4293 30.5 32.1252V26.5018C30.5 26.1599 30.532 25.8253 30.5929 25.5007Z"></path><path fill="currentColor" d="M33.5 26.501C33.5 25.0011 34.8697 23.8537 36.1779 24.0152C43.0544 24.8642 45.8489 30.6259 46.9639 34.572C47.1986 35.4026 46.2288 35.7827 45.7185 35.1051C43.5958 32.2866 41.2511 30.9637 39.278 30.3688C38.8205 30.2309 38.3858 30.6108 38.3858 31.1151L38 41C38 44.3137 35.3137 47 32 47C28.6863 47 26 44.3137 26 41C26 37.6863 28.6863 35 32 35C32.5179 35 33.0206 35.0656 33.5 35.189V26.501Z"></path></svg>