<svg xmlns="http://www.w3.org/2000/svg" fill="none" viewBox="0 0 48 48"><path fill="currentColor" fill-rule="evenodd" d="M8.1357 45.9561C11.4073 46.2219 16.5986 46.5 24 46.5C31.4014 46.5 36.5927 46.2219 39.8643 45.9561C43.1521 45.689 45.689 43.1522 45.9561 39.8643C46.2219 36.5927 46.5 31.4014 46.5 24C46.5 16.5986 46.2219 11.4073 45.9561 8.1357C45.689 4.84785 43.1521 2.31102 39.8643 2.04389C36.5927 1.77808 31.4014 1.5 24 1.5C16.5986 1.5 11.4073 1.77807 8.1357 2.04389C4.84785 2.31102 2.31102 4.84784 2.04389 8.1357C1.77808 11.4073 1.5 16.5986 1.5 24C1.5 31.4014 1.77808 36.5927 2.04389 39.8643C2.31102 43.1521 4.84785 45.689 8.1357 45.9561ZM34.4995 8.5C31.7381 8.5 29.4995 10.7386 29.4995 13.5C29.4995 16.2614 31.7381 18.5 34.4995 18.5C37.2609 18.5 39.4995 16.2614 39.4995 13.5C39.4995 10.7386 37.2609 8.5 34.4995 8.5ZM23.9995 43.5C16.673 43.5 11.563 43.2247 8.37814 42.966C6.55539 42.8179 5.18163 41.4441 5.03353 39.6214C4.85024 37.3653 4.65866 34.1434 4.5625 29.8518C8.48224 26.2785 11.2353 24.2496 12.995 23.118C14.6428 22.0583 16.6374 22.2538 18.1337 23.4641C19.7913 24.8048 22.4908 27.1489 26.608 31.1348C29.437 28.6887 31.5195 27.1792 32.948 26.2605C34.5959 25.2008 36.5905 25.3964 38.0868 26.6067C39.2758 27.5684 41.0007 29.0462 43.4001 31.2756C43.2968 34.8642 43.1279 37.6221 42.9655 39.6214C42.8174 41.4441 41.4436 42.8179 39.6208 42.966C36.436 43.2247 31.326 43.5 23.9995 43.5Z" clip-rule="evenodd"></path></svg>