<svg xmlns="http://www.w3.org/2000/svg" fill="none" viewBox="0 0 48 48"><path fill="currentColor" fill-rule="evenodd" d="M8.1357 2.04389C11.4073 1.77808 16.5986 1.5 24 1.5C31.4014 1.5 36.5927 1.77808 39.8643 2.04389C43.1521 2.31102 45.689 4.84784 45.9561 8.13569C46.2219 11.4073 46.5 16.5986 46.5 24C46.5 31.4014 46.2219 36.5927 45.9561 39.8643C45.689 43.1522 43.1521 45.689 39.8643 45.9561C36.5927 46.2219 31.4014 46.5 24 46.5C16.5986 46.5 11.4073 46.2219 8.13571 45.9561C4.84785 45.689 2.31102 43.1522 2.04389 39.8643C1.77808 36.5927 1.5 31.4014 1.5 24C1.5 16.5986 1.77808 11.4073 2.04389 8.13571C2.31102 4.84786 4.84784 2.31103 8.1357 2.04389ZM22.3792 36.8188C21.5441 36.6135 21.1268 35.8032 21.107 34.9434C21.0646 33.1059 21 29.4133 21 24C21 18.5867 21.0646 14.8941 21.107 13.0566C21.1268 12.1968 21.5441 11.3865 22.3792 11.1812C22.8012 11.0775 23.338 11 24 11C24.662 11 25.1988 11.0775 25.6208 11.1812C26.4559 11.3865 26.8732 12.1968 26.893 13.0566C26.9354 14.894 27 18.5867 27 24C27 29.4133 26.9354 33.106 26.893 34.9435C26.8732 35.8032 26.4559 36.6135 25.6208 36.8188C25.1988 36.9225 24.662 37 24 37C23.338 37 22.8012 36.9225 22.3792 36.8188ZM32.0617 28.7714C32.0961 29.9304 32.8547 30.8977 34.012 30.9704C34.304 30.9888 34.6327 31 35 31C35.3673 31 35.696 30.9888 35.988 30.9704C37.1453 30.8977 37.9039 29.9304 37.9383 28.7714C37.9705 27.6895 38 26.1199 38 24C38 21.8801 37.9705 20.3105 37.9383 19.2286C37.9039 18.0696 37.1453 17.1023 35.988 17.0296C35.696 17.0112 35.3673 17 35 17C34.6327 17 34.304 17.0112 34.012 17.0296C32.8547 17.1023 32.0961 18.0696 32.0617 19.2287C32.0295 20.3105 32 21.8801 32 24C32 26.1199 32.0295 27.6895 32.0617 28.7714ZM13.988 30.9704C15.1453 30.8977 15.9039 29.9304 15.9383 28.7714C15.9705 27.6895 16 26.1199 16 24C16 21.8801 15.9705 20.3105 15.9383 19.2287C15.9039 18.0696 15.1453 17.1023 13.988 17.0296C13.696 17.0112 13.3673 17 13 17C12.6327 17 12.304 17.0112 12.012 17.0296C10.8547 17.1023 10.0961 18.0696 10.0617 19.2286C10.0295 20.3105 10 21.8801 10 24C10 26.1199 10.0295 27.6895 10.0617 28.7714C10.0961 29.9304 10.8547 30.8977 12.012 30.9704C12.304 30.9888 12.6327 31 13 31C13.3673 31 13.696 30.9888 13.988 30.9704Z" clip-rule="evenodd"></path></svg>