<svg xmlns="http://www.w3.org/2000/svg" fill="none" viewBox="0 0 48 48"><path fill="currentColor" d="M7.61296 34.1801C7.54428 32.5553 7.5 30.6673 7.5 28.5C7.5 24.6611 7.63891 21.6988 7.80633 19.5225C8.18124 14.6491 12.0599 11.0739 16.7645 10.7982C19.4135 10.6429 23.272 10.5 28.5 10.5C31.9937 10.5 34.8758 10.5638 37.1941 10.6525C36.8942 7.38395 34.2925 4.98244 31.06 4.79302C28.4733 4.64145 24.6735 4.5 19.5 4.5C14.3265 4.5 10.5267 4.64145 7.93998 4.79303C4.67463 4.98437 2.05287 7.43307 1.7975 10.7526C1.6363 12.8479 1.5 15.7333 1.5 19.5C1.5 23.2667 1.6363 26.1521 1.7975 28.2474C2.04428 31.4554 4.50106 33.85 7.61296 34.1801Z"></path><path fill="currentColor" fill-rule="evenodd" d="M28.5 43.5C33.6735 43.5 37.4733 43.3586 40.06 43.207C43.3254 43.0156 45.9471 40.5669 46.2025 37.2474C46.3637 35.1521 46.5 32.2667 46.5 28.5C46.5 24.7333 46.3637 21.8479 46.2025 19.7526C45.9471 16.4331 43.3254 13.9844 40.06 13.793C37.4733 13.6414 33.6735 13.5 28.5 13.5C23.3265 13.5 19.5267 13.6414 16.94 13.793C13.6746 13.9844 11.0529 16.4331 10.7975 19.7526C10.6363 21.8479 10.5 24.7333 10.5 28.5C10.5 32.2667 10.6363 35.1521 10.7975 37.2474C11.0529 40.5669 13.6746 43.0156 16.94 43.207C19.5267 43.3586 23.3265 43.5 28.5 43.5ZM36.5 18.5C34.2909 18.5 32.5 20.2909 32.5 22.5C32.5 24.7091 34.2909 26.5 36.5 26.5C38.7091 26.5 40.5 24.7091 40.5 22.5C40.5 20.2909 38.7091 18.5 36.5 18.5ZM28.4992 40.5C33.6182 40.5 37.3593 40.36 39.8837 40.2121C41.7098 40.1051 43.0747 38.7829 43.2106 37.0173C43.2742 36.1895 43.3343 35.2276 43.383 34.1252C41.8212 32.7488 40.6516 31.7873 39.8031 31.1248C38.5113 30.1162 36.7896 29.9529 35.3676 30.8429C34.273 31.528 32.7281 32.6111 30.6733 34.3042C27.6322 31.4912 25.5912 29.7852 24.2971 28.7748C23.0054 27.7662 21.2836 27.6029 19.8616 28.4929C18.5021 29.3438 16.4469 30.8093 13.582 33.2962C13.6351 34.7519 13.7087 35.9882 13.7879 37.0173C13.9237 38.783 15.2886 40.1051 17.1147 40.2121C19.6391 40.36 23.3803 40.5 28.4992 40.5Z" clip-rule="evenodd"></path></svg>