<svg xmlns="http://www.w3.org/2000/svg" fill="none" viewBox="0 0 48 48"><path fill="currentColor" fill-rule="evenodd" d="M8.1357 2.04389C11.4073 1.77808 16.5986 1.5 24 1.5C31.4014 1.5 36.5927 1.77808 39.8643 2.04389C43.1521 2.31102 45.689 4.84784 45.9561 8.13569C46.2219 11.4073 46.5 16.5986 46.5 24C46.5 31.4014 46.2219 36.5927 45.9561 39.8643C45.689 43.1522 43.1521 45.689 39.8643 45.9561C36.5927 46.2219 31.4014 46.5 24 46.5C16.5986 46.5 11.4073 46.2219 8.13571 45.9561C4.84785 45.689 2.31102 43.1522 2.04389 39.8643C1.77808 36.5927 1.5 31.4014 1.5 24C1.5 16.5986 1.77808 11.4073 2.04389 8.13571C2.31102 4.84786 4.84784 2.31103 8.1357 2.04389ZM18.9812 13.225C17.138 13.8914 15.9999 15.6942 15.9999 17.6542L16 27.0216C15.8353 27.0068 15.6685 26.9992 15.5 26.9992C12.4624 26.9992 10 29.4616 10 32.4992C10 35.5368 12.4624 37.9992 15.5 37.9992C18.5376 37.9992 21 35.5368 21 32.4992C21 32.3307 20.9924 32.1639 20.9776 31.9992H21V21.2366C25.3048 19.9242 29.1555 19.2555 32 18.9149V24.0216C31.8353 24.0068 31.6685 23.9992 31.5 23.9992C28.4624 23.9992 26 26.4616 26 29.4992C26 32.5368 28.4624 34.9992 31.5 34.9992C34.5375 34.9992 37 32.5368 37 29.4992C37 29.3306 36.9924 29.1639 36.9775 28.9992H37L36.9999 12.9992C36.9999 11.3423 35.6587 10.015 34.0066 10.1411C30.5989 10.4012 24.7537 11.138 18.9812 13.225Z" clip-rule="evenodd"></path></svg>