<svg xmlns="http://www.w3.org/2000/svg" fill="none" viewBox="0 0 48 48"><path fill="currentColor" d="M38.6622 16.976C36.544 16.7975 31.838 16.5 24 16.5C16.162 16.5 11.456 16.7975 9.33779 16.976C9.25038 16.9834 9.18908 17.0165 9.14943 17.0537C9.11096 17.0897 9.08114 17.1398 9.07147 17.2117C8.84161 18.9199 8.5 22.4006 8.5 28C8.5 33.5994 8.84161 37.0801 9.07147 38.7883C9.08114 38.8602 9.11096 38.9103 9.14943 38.9463C9.18908 38.9835 9.25038 39.0166 9.33779 39.024C11.456 39.2025 16.162 39.5 24 39.5C31.838 39.5 36.544 39.2025 38.6622 39.024C38.7496 39.0166 38.8109 38.9835 38.8506 38.9463C38.889 38.9103 38.9189 38.8602 38.9285 38.7883C39.1584 37.0801 39.5 33.5994 39.5 28C39.5 22.4006 39.1584 18.9199 38.9285 17.2117C38.9189 17.1398 38.889 17.0897 38.8506 17.0537C38.8109 17.0166 38.7496 16.9834 38.6622 16.976Z"></path><path fill="currentColor" fill-rule="evenodd" d="M40.5791 9.99029C38.6293 9.85101 35.8573 9.69924 32.1801 9.60207C32.8457 8.16832 33.5298 6.63257 34.1605 5.10525C34.6309 3.96604 34.3456 2.56016 33.1875 1.89153C32.0246 1.22015 30.6599 1.68631 29.914 2.67197C28.1368 5.02054 26.4 7.51682 25.0591 9.50172C24.7112 9.50069 24.3582 9.50017 24 9.50017C23.6418 9.50017 23.2888 9.50069 22.9409 9.50172C21.6 7.51682 19.8632 5.02054 18.086 2.67197C17.3401 1.68631 15.9754 1.22015 14.8125 1.89153C13.6544 2.56016 13.3691 3.96604 13.8395 5.10525C14.4701 6.63257 15.1543 8.16831 15.8199 9.60207C12.1427 9.69924 9.37072 9.85101 7.42085 9.99028C4.59905 10.1918 2.32496 12.3066 2.03995 15.1713C1.77432 17.8414 1.5 22.0412 1.5 28.0002C1.5 33.9591 1.77432 38.159 2.03995 40.829C2.32496 43.6938 4.59905 45.8085 7.42085 46.01C10.6168 46.2383 16.0214 46.5002 24 46.5002C31.9786 46.5002 37.3832 46.2383 40.5791 46.0101C43.4009 45.8085 45.675 43.6938 45.96 40.829C46.2257 38.159 46.5 33.9591 46.5 28.0002C46.5 22.0412 46.2257 17.8414 45.96 15.1713C45.675 12.3066 43.4009 10.1918 40.5791 9.99029ZM24 13.5C31.9133 13.5 36.7039 13.8004 38.9142 13.9866C40.4376 14.115 41.6922 15.2548 41.9017 16.8116C42.151 18.664 42.5 22.279 42.5 28C42.5 33.721 42.151 37.336 41.9017 39.1884C41.6922 40.7452 40.4376 41.885 38.9142 42.0134C36.7039 42.1996 31.9133 42.5 24 42.5C16.0867 42.5 11.2961 42.1996 9.08584 42.0134C7.56239 41.885 6.30776 40.7452 6.09826 39.1884C5.849 37.336 5.5 33.721 5.5 28C5.5 22.279 5.849 18.664 6.09827 16.8116C6.30776 15.2548 7.56239 14.115 9.08584 13.9866C11.2961 13.8004 16.0867 13.5 24 13.5Z" clip-rule="evenodd"></path></svg>