<svg xmlns="http://www.w3.org/2000/svg" fill="none" viewBox="0 0 48 48"><path fill="currentColor" fill-rule="evenodd" d="M40.5838 41.9216C37.5823 42.2057 32.439 42.5 24 42.5C15.561 42.5 10.4177 42.2057 7.41624 41.9216C4.49108 41.6447 2.29943 39.4364 2.00996 36.5261C1.75351 33.948 1.5 29.9062 1.5 24.0001C1.5 18.0939 1.75352 14.0521 2.00996 11.4739C2.29944 8.56361 4.4911 6.35529 7.41627 6.07842C10.4177 5.79433 15.561 5.5 24 5.5C32.439 5.5 37.5823 5.79433 40.5837 6.07843C43.5089 6.35529 45.7006 8.56362 45.99 11.4739C46.2465 14.0521 46.5 18.0939 46.5 24.0001C46.5 29.9062 46.2465 33.948 45.99 36.5261C45.7006 39.4364 43.5089 41.6447 40.5838 41.9216ZM17.0493 13.4992C17.8773 13.472 18.5264 12.7787 18.4992 11.9507C18.472 11.1227 17.7787 10.4736 16.9507 10.5008L10.7512 10.7047C10.7349 10.7052 10.7187 10.706 10.7025 10.707C8.55126 10.8479 6.84838 12.5504 6.70735 14.7017C6.70629 14.718 6.70549 14.7342 6.70495 14.7505L6.50083 20.9507C6.47357 21.7786 7.12268 22.4719 7.95066 22.4992C8.77864 22.5265 9.47194 21.8773 9.4992 21.0494L9.70237 14.8781C9.75328 14.2454 10.2458 13.7529 10.8786 13.7021L17.0493 13.4992ZM41.4992 27.0494C41.5265 26.2214 40.8774 25.5281 40.0494 25.5008C39.2214 25.4736 38.5281 26.1227 38.5008 26.9507L38.2977 33.1219C38.2467 33.7546 37.7542 34.2471 37.1214 34.2979L30.9507 34.5008C30.1227 34.528 29.4736 35.2213 29.5008 36.0493C29.528 36.8773 30.2213 37.5264 31.0493 37.4992L37.2489 37.2954C37.2651 37.2948 37.2813 37.294 37.2976 37.293C39.4488 37.1522 41.1517 35.4496 41.2927 33.2983L41.2937 33.2822C41.2941 33.2738 41.2945 33.2655 41.2948 33.2571C41.2949 33.2546 41.295 33.2521 41.2951 33.2496L41.4992 27.0494Z" clip-rule="evenodd"></path></svg>