<svg xmlns="http://www.w3.org/2000/svg" fill="none" viewBox="0 0 48 48"><path fill="currentColor" d="M16.7914 3.80229C16.3367 4.20481 15.7853 4.50959 15.1616 4.67671C13.7822 5.04634 12.3726 4.65585 11.3759 3.74793C10.4943 2.94493 9.01236 2.18696 7.41774 2.72236C6.70718 2.96093 6.08314 3.18237 5.53654 3.38573C2.72931 4.43013 1.37648 7.2175 1.95317 10.0336C2.51764 12.79 3.57497 17.3936 5.54435 24.7435C6.59185 28.6528 7.47435 31.7602 8.20485 34.2146C8.7913 31.3704 9.86086 26.7403 11.8071 19.4769C13.8567 11.8275 15.5808 6.85863 16.7914 3.80229Z"></path><path fill="currentColor" fill-rule="evenodd" d="M18.9494 5.71884C18.06 8.38819 16.6739 12.9037 14.7045 20.2536C12.7351 27.6034 11.6778 32.2071 11.1133 34.9635C10.5366 37.7795 11.8895 40.5669 14.6967 41.6113C15.2432 41.8146 15.8671 42.036 16.5775 42.2745C18.1722 42.81 19.6542 42.0519 20.5358 41.2488C21.5325 40.3409 22.9422 39.9503 24.3217 40.32C25.7012 40.6896 26.7267 41.7326 27.1359 43.0174C27.4978 44.1536 28.4022 45.5511 30.051 45.8848C30.7856 46.0334 31.4367 46.1536 32.0117 46.2508C34.965 46.75 37.5303 45.0125 38.4389 42.2853C39.3282 39.616 40.7144 35.1004 42.6838 27.7506C44.6531 20.4008 45.7105 15.7971 46.275 13.0407C46.8516 10.2246 45.4988 7.43726 42.6916 6.39286C42.145 6.1895 41.5209 5.96806 40.8104 5.72949C39.2158 5.19408 37.7338 5.95206 36.8523 6.75506C35.8555 7.66298 34.446 8.05347 33.0665 7.68384C31.687 7.31422 30.6616 6.27126 30.2523 4.98661C29.8904 3.85042 28.986 2.45303 27.3373 2.11939C26.6027 1.97074 25.9516 1.85051 25.3766 1.75333C22.4233 1.25419 19.858 2.99171 18.9494 5.71884ZM29.749 16.6363C30.2957 16.0379 31.2897 16.3043 31.4639 17.0958L32.326 21.0118L35.8801 22.7559C36.5769 23.0979 36.6355 24.0688 35.9848 24.492L32.5429 26.7306L31.9698 30.8263C31.8593 31.6163 30.9137 31.9652 30.3165 31.4364L27.3954 28.8498L23.5724 29.6293C22.7908 29.7887 22.1464 29.0137 22.4456 28.2743L23.9972 24.4408L22.1357 20.7811C21.7838 20.0893 22.3199 19.2777 23.0944 19.33L27.0445 19.5966L29.749 16.6363Z" clip-rule="evenodd"></path></svg>