<svg xmlns="http://www.w3.org/2000/svg" fill="none" viewBox="0 0 48 48"><path fill="currentColor" d="M35.7259 1.50877C38.9399 1.34702 41.7636 3.43749 42.4323 6.60894C42.6299 7.54611 42.8475 8.65065 43.0769 9.93176C42.3562 9.67349 41.591 9.51051 40.7983 9.45566C37.6714 9.23929 32.5148 9 25 9C17.4852 9 12.3286 9.23929 9.20171 9.45566C5.64119 9.70203 2.63381 12.1298 1.73694 15.5774C1.62056 14.0173 1.54849 12.6905 1.50517 11.5865C1.37801 8.34558 3.61064 5.63697 6.77165 5.02444C9.77984 4.44153 14.4943 3.64649 21.195 2.83288C27.8957 2.01927 32.6646 1.66284 35.7259 1.50877Z"></path><path fill="currentColor" fill-rule="evenodd" d="M9.37429 46.0503C12.4392 46.2624 17.538 46.5 25 46.5C32.462 46.5 37.5608 46.2624 40.6257 46.0503C43.4469 45.8551 45.7257 43.7439 46.0059 40.876C46.2526 38.3514 46.5 34.459 46.5 29C46.5 23.541 46.2526 19.6486 46.0059 17.124C45.7257 14.2561 43.4469 12.1449 40.6257 11.9497C37.5608 11.7376 32.462 11.5 25 11.5C17.538 11.5 12.4392 11.7376 9.37429 11.9497C6.55309 12.1449 4.27431 14.2561 3.99407 17.124C3.74737 19.6486 3.5 23.541 3.5 29C3.5 34.459 3.74737 38.3514 3.99407 40.876C4.27431 43.7439 6.55309 45.8551 9.37429 46.0503ZM9.5 20C9.5 19.1716 10.1716 18.5 11 18.5H19C19.8284 18.5 20.5 19.1716 20.5 20C20.5 20.8284 19.8284 21.5 19 21.5H11C10.1716 21.5 9.5 20.8284 9.5 20ZM9.5 32C9.5 31.1716 10.1716 30.5 11 30.5H19C19.8284 30.5 20.5 31.1716 20.5 32C20.5 32.8284 19.8284 33.5 19 33.5H11C10.1716 33.5 9.5 32.8284 9.5 32ZM11 36.5C10.1716 36.5 9.5 37.1716 9.5 38C9.5 38.8284 10.1716 39.5 11 39.5H39C39.8284 39.5 40.5 38.8284 40.5 38C40.5 37.1716 39.8284 36.5 39 36.5H11ZM9.5 26C9.5 25.1716 10.1716 24.5 11 24.5H19C19.8284 24.5 20.5 25.1716 20.5 26C20.5 26.8284 19.8284 27.5 19 27.5H11C10.1716 27.5 9.5 26.8284 9.5 26ZM27.432 33.3708C28.5131 33.4402 30.0191 33.5 32 33.5C33.9809 33.5 35.4869 33.4402 36.568 33.3708C38.0982 33.2726 39.2726 32.0982 39.3708 30.568C39.4402 29.4869 39.5 27.9809 39.5 26C39.5 24.0191 39.4402 22.5131 39.3708 21.432C39.2726 19.9018 38.0982 18.7274 36.568 18.6292C35.4869 18.5598 33.9809 18.5 32 18.5C30.0191 18.5 28.5131 18.5598 27.432 18.6292C25.9018 18.7274 24.7274 19.9018 24.6292 21.432C24.5598 22.5131 24.5 24.0191 24.5 26C24.5 27.9809 24.5598 29.4869 24.6292 30.568C24.7274 32.0982 25.9018 33.2726 27.432 33.3708Z" clip-rule="evenodd"></path></svg>