<svg xmlns="http://www.w3.org/2000/svg" fill="none" viewBox="0 0 48 48"><path fill="currentColor" fill-rule="evenodd" d="M8.1357 45.9561C11.4073 46.2219 16.5986 46.5 24 46.5C31.4014 46.5 36.5927 46.2219 39.8643 45.9561C43.1521 45.689 45.689 43.1522 45.9561 39.8643C46.2219 36.5927 46.5 31.4014 46.5 24C46.5 16.5986 46.2219 11.4073 45.9561 8.1357C45.689 4.84785 43.1521 2.31102 39.8643 2.04389C36.5927 1.77808 31.4014 1.5 24 1.5C16.5986 1.5 11.4073 1.77807 8.13571 2.04389C4.84785 2.31102 2.31102 4.84784 2.04389 8.1357C1.77808 11.4073 1.5 16.5986 1.5 24C1.5 31.4014 1.77808 36.5927 2.04389 39.8643C2.31102 43.1521 4.84785 45.689 8.1357 45.9561ZM11.1687 30.305C11.2834 32.0276 12.405 33.3655 14.1142 33.608C15.5886 33.8173 17.794 34 21 34C24.206 34 26.4114 33.8173 27.8858 33.608C29.595 33.3655 30.7166 32.0276 30.8313 30.305C30.8675 29.7608 30.9013 29.1173 30.9291 28.3599C31.9951 28.9467 33.29 29.5874 34.7073 30.1374C36.1791 30.7085 37.6751 29.8077 37.8234 28.2359C37.9232 27.1785 38 25.7848 38 24C38 22.2152 37.9232 20.8215 37.8234 19.7641C37.6751 18.1923 36.1791 17.2915 34.7073 17.8626C33.29 18.4126 31.9951 19.0533 30.9291 19.6401C30.9013 18.8827 30.8675 18.2392 30.8313 17.695C30.7166 15.9724 29.595 14.6345 27.8858 14.392C26.4114 14.1827 24.206 14 21 14C17.794 14 15.5886 14.1827 14.1142 14.392C12.405 14.6345 11.2834 15.9724 11.1687 17.695C11.0768 19.0767 11 21.0992 11 24C11 26.9008 11.0768 28.9233 11.1687 30.305Z" clip-rule="evenodd"></path></svg>