<svg xmlns="http://www.w3.org/2000/svg" fill="none" viewBox="0 0 48 48"><path fill="currentColor" d="M36.0004 1.5C37.3811 1.49992 38.5004 2.61914 38.5005 3.99986L38.5006 4.67493C39.8432 4.86361 40.9933 5.17984 41.9009 5.49739C42.7307 5.7877 43.5522 6.12177 44.3043 6.58129C44.3069 6.58285 44.3057 6.58216 44.3057 6.58216C45.4833 7.3031 45.8534 8.84213 45.1325 10.0197C44.4144 11.1925 42.8848 11.5644 41.7091 10.855C41.2488 10.5902 40.75 10.3919 40.2498 10.2169C39.2299 9.86008 37.7618 9.5 36.0004 9.5C34.6178 9.5 33.2871 9.84666 32.3829 10.3387C31.6982 10.7114 31.5353 10.9881 31.502 11.058C31.5188 11.3221 31.9965 11.4825 32.1858 11.565C33.5526 12.16 35.1154 12.3227 36.5733 12.5604C38.1941 12.8245 40.207 13.1524 41.8108 13.8507C43.9374 14.7765 45.5004 16.596 45.5004 19C45.5004 21.5207 43.6148 23.1785 42.0079 24.053C40.9662 24.6199 39.7601 25.0308 38.5006 25.2667L38.5007 25.9998C38.5007 27.3805 37.3815 28.4999 36.0008 28.5C34.6201 28.5001 33.5007 27.3809 33.5007 26.0001L33.5006 25.3251C32.1578 25.1365 31.0076 24.8202 30.0998 24.5026C29.2742 24.2138 28.4594 23.8776 27.7082 23.4259L27.7011 23.4216L27.6979 23.4196L27.6964 23.4187C27.6943 23.4174 27.695 23.4178 27.695 23.4178C26.5174 22.6969 26.1473 21.1579 26.8682 19.9803C27.5863 18.8075 29.1159 18.4356 30.2916 19.145C30.749 19.4117 31.2531 19.6089 31.7509 19.7831C32.7691 20.1393 34.234 20.4988 35.9915 20.5C35.9944 20.5 35.9974 20.5 36.0004 20.5C36.0033 20.5 36.0062 20.5 36.0091 20.5C37.3886 20.4985 38.7155 20.1523 39.6178 19.6613C40.3025 19.2886 40.4654 19.0119 40.4987 18.942C40.4831 18.697 40.0034 18.5171 39.8149 18.435C38.4482 17.84 36.8853 17.6773 35.4274 17.4396C33.8066 17.1755 31.7937 16.8476 30.1899 16.1493C28.0634 15.2235 26.5004 13.404 26.5004 11C26.5004 8.47931 28.386 6.82145 29.9929 5.94697C31.0347 5.37998 32.241 4.96915 33.5006 4.73322L33.5005 4.00015C33.5004 2.61943 34.6196 1.50008 36.0004 1.5Z"></path><path fill="currentColor" d="M1.36438 28.2604C1.4751 27.1433 2.23135 26.206 3.30321 25.8725C5.62469 25.1501 9.80968 24 12.9259 24C17.6032 24 22.8155 25.1515 25.6251 25.8738C26.9856 26.2236 28.2247 26.9874 28.819 28.2602C29.1036 28.8699 29.389 29.6331 29.6035 30.5499C30.0028 32.2568 28.4664 33.6558 26.7192 33.5133L19.0037 32.8844C18.1771 32.817 17.4691 33.4696 17.4691 34.2989C17.4691 34.9873 17.9618 35.5754 18.6423 35.6791C20.0672 35.8964 22.5012 36.2222 24.284 36.2222C28.0645 36.2222 38.1368 34.5296 41.412 33.9613C42.1118 33.8399 42.8255 33.7558 43.5051 33.9626C44.5004 34.2656 45.9424 35.0652 46.6205 37.1755C47.127 38.7516 45.9805 40.2799 44.4223 40.839C39.6362 42.5561 29.3998 46 24.284 46C17.5263 46 7.962 44.5956 3.72819 43.9158C2.43745 43.7086 1.45212 42.6762 1.32905 41.3747C1.17376 39.7325 1 37.3662 1 35C1 32.4522 1.20145 29.9044 1.36438 28.2604Z"></path></svg>