<svg xmlns="http://www.w3.org/2000/svg" fill="none" viewBox="0 0 48 48"><path fill="currentColor" d="M12.8272 19.8177C13.9135 19.0876 15.2455 19.6745 15.3595 20.9784C15.4513 22.0283 15.5408 23.4698 15.5994 25.4213L28.669 25.4213C29.2213 25.4213 29.6674 25.868 29.6674 26.4203V30.4213C29.6674 31.565 29.6434 32.4418 29.611 33.1039C29.5562 34.2252 28.7507 35.066 27.633 35.1707C26.297 35.2959 24.1017 35.4213 20.6674 35.4213L15.5994 35.4213C15.5408 37.373 15.4512 38.8145 15.3595 39.8644C15.2455 41.1682 13.9135 41.7552 12.8272 41.0251C6.78428 36.9636 3.5807 33.1183 2.31823 31.3846C1.89389 30.8019 1.89393 30.0408 2.3183 29.4581C3.58091 27.7244 6.78473 23.8793 12.8272 19.8177Z"></path><path fill="currentColor" d="M35.3402 6.81775C34.2539 6.0876 32.9219 6.67453 32.8079 7.97841C32.7161 9.0283 32.6266 10.4698 32.568 12.4213L27.5 12.4213C24.0657 12.4213 21.8704 12.5468 20.5344 12.672C19.4167 12.7767 18.6112 13.6175 18.5564 14.7388C18.524 15.4009 18.5 16.2777 18.5 17.4213V21.4224C18.5 21.9747 18.9461 22.4213 19.4984 22.4213L32.568 22.4213C32.6266 24.373 32.7162 25.8145 32.8079 26.8644C32.9219 28.1682 34.2539 28.7552 35.3402 28.0251C41.3831 23.9636 44.5867 20.1183 45.8492 18.3846C46.2735 17.8019 46.2735 17.0408 45.8491 16.4581C44.5865 14.7244 41.3827 10.8793 35.3402 6.81775Z"></path></svg>