<svg xmlns="http://www.w3.org/2000/svg" fill="none" viewBox="0 0 48 48"><path fill="currentColor" d="M15.4009 6.58594C7.31663 9.33295 1.5 16.9875 1.5 26.0006C1.5 37.3225 10.6782 46.5006 22 46.5006C31.0135 46.5006 38.6683 40.6835 41.415 32.5987C39.3019 32.8181 36.4967 32.9997 33 32.9997C28.7604 32.9997 25.5373 32.7328 23.3319 32.4551C19.2337 31.9391 16.0606 28.7661 15.5446 24.6678C15.2669 22.4624 15 19.2393 15 14.9997C15 11.5038 15.1815 8.69893 15.4009 6.58594Z"></path><path fill="currentColor" d="M24.309 1.71269C21.6199 1.36404 19.3228 3.29109 19.0016 5.89408C18.7474 7.95422 18.5 10.9896 18.5 14.9998C18.5 19.092 18.7576 22.1691 19.0172 24.2306C19.3335 26.7426 21.2572 28.6663 23.7691 28.9826C25.8307 29.2421 28.9078 29.4998 33 29.4998C37.0102 29.4998 40.0456 29.2524 42.1057 28.9982C44.7087 28.677 46.6357 26.3798 46.2871 23.6907C44.8041 12.2527 35.7471 3.19567 24.309 1.71269Z"></path></svg>