<svg xmlns="http://www.w3.org/2000/svg" fill="none" viewBox="0 0 48 48"><path fill="currentColor" fill-rule="evenodd" d="M40.6048 5.11414C37.6017 4.8126 32.4529 4.5 24 4.5C15.5471 4.5 10.3983 4.8126 7.39521 5.11414C4.46961 5.40791 2.31131 7.63471 2.03046 10.5308C1.76757 13.2418 1.5 17.5779 1.5 23.9999C1.5 30.422 1.76757 34.7581 2.03047 37.4691C2.31131 40.3653 4.46962 42.5921 7.39524 42.8859C10.3984 43.1874 15.5472 43.5 24 43.5C32.4528 43.5 37.6016 43.1874 40.6048 42.8859C43.5304 42.5921 45.6887 40.3653 45.9695 37.4691C46.2324 34.7581 46.5 30.422 46.5 23.9999C46.5 17.5779 46.2324 13.2418 45.9695 10.5308C45.6887 7.63471 43.5304 5.40791 40.6048 5.11414ZM7.5 13C7.5 12.1716 8.17157 11.5 9 11.5C9.82843 11.5 10.5 12.1716 10.5 13V35C10.5 35.8284 9.82843 36.5 9 36.5C8.17157 36.5 7.5 35.8284 7.5 35V13ZM40.5 13C40.5 12.1716 39.8284 11.5 39 11.5C38.1716 11.5 37.5 12.1716 37.5 13V35C37.5 35.8284 38.1716 36.5 39 36.5C39.8284 36.5 40.5 35.8284 40.5 35V13ZM33 11.5C33.8284 11.5 34.5 12.1716 34.5 13V29C34.5 29.8284 33.8284 30.5 33 30.5C32.1716 30.5 31.5 29.8284 31.5 29V13C31.5 12.1716 32.1716 11.5 33 11.5ZM31.5 35C31.5 35.8284 32.1716 36.5 33 36.5C33.8284 36.5 34.5 35.8284 34.5 35V34C34.5 33.1716 33.8284 32.5 33 32.5C32.1716 32.5 31.5 33.1716 31.5 34V35ZM27 11.5C27.8284 11.5 28.5 12.1716 28.5 13V29C28.5 29.8284 27.8284 30.5 27 30.5C26.1716 30.5 25.5 29.8284 25.5 29V13C25.5 12.1716 26.1716 11.5 27 11.5ZM25.5 35C25.5 35.8284 26.1716 36.5 27 36.5C27.8284 36.5 28.5 35.8284 28.5 35V34C28.5 33.1716 27.8284 32.5 27 32.5C26.1716 32.5 25.5 33.1716 25.5 34V35ZM21 11.5C21.8284 11.5 22.5 12.1716 22.5 13V29C22.5 29.8284 21.8284 30.5 21 30.5C20.1716 30.5 19.5 29.8284 19.5 29V13C19.5 12.1716 20.1716 11.5 21 11.5ZM19.5 35C19.5 35.8284 20.1716 36.5 21 36.5C21.8284 36.5 22.5 35.8284 22.5 35V34C22.5 33.1716 21.8284 32.5 21 32.5C20.1716 32.5 19.5 33.1716 19.5 34V35ZM15 11.5C15.8284 11.5 16.5 12.1716 16.5 13V29C16.5 29.8284 15.8284 30.5 15 30.5C14.1716 30.5 13.5 29.8284 13.5 29V13C13.5 12.1716 14.1716 11.5 15 11.5ZM13.5 35C13.5 35.8284 14.1716 36.5 15 36.5C15.8284 36.5 16.5 35.8284 16.5 35V34C16.5 33.1716 15.8284 32.5 15 32.5C14.1716 32.5 13.5 33.1716 13.5 34V35Z" clip-rule="evenodd"></path></svg>