<svg xmlns="http://www.w3.org/2000/svg" fill="none" viewBox="0 0 48 48"><path fill="currentColor" d="M42.5 22.6543C40.4366 22.7528 37.1772 22.871 32.5 22.9405V35.0419C37.4626 35.0956 40.6284 35.1904 42.5 35.267V22.6543Z"></path><path fill="currentColor" d="M5.5 35.2585C7.45597 35.1835 10.6526 35.0932 15.5 35.0415V22.9405C10.8229 22.871 7.56355 22.7528 5.5 22.6543V35.2585Z"></path><path fill="currentColor" d="M23.9996 22.9996C22.012 22.9996 20.1812 22.991 18.5 22.976V35.0163C20.1701 35.0058 21.9996 34.9997 24 34.9997C26.0057 34.9997 27.8348 35.0058 29.5 35.0164V22.9759C27.8186 22.991 25.9875 22.9996 23.9996 22.9996Z"></path><path fill="currentColor" fill-rule="evenodd" d="M22.4279 1.82213C23.4605 1.56189 24.5388 1.56189 25.5714 1.82213C33.2559 3.75873 41.477 8.86207 44.5446 10.8817C45.7994 11.7078 46.4996 13.0985 46.4996 14.5521V16.6622C46.4996 18.4806 45.0973 20.0147 43.2452 20.1138C40.4522 20.2631 34.3865 20.4999 23.9996 20.4999C13.6134 20.4999 7.54785 20.2631 4.7546 20.1138C2.90204 20.0147 1.49984 18.48 1.5 16.6616L1.50006 14.5533C1.49997 13.0994 2.20001 11.7077 3.45556 10.8811C6.52372 8.86113 14.7441 3.75855 22.4279 1.82213ZM24 16C26.2091 16 28 14.2091 28 12C28 9.79086 26.2091 8 24 8C21.7909 8 20 9.79086 20 12C20 14.2091 21.7909 16 24 16Z" clip-rule="evenodd"></path><path fill="currentColor" d="M4.42333 46.1812C6.51655 46.2882 12.1537 46.5 24 46.5C35.8463 46.5 41.4835 46.2882 43.5767 46.1812C44.7732 46.12 45.8868 45.3205 46.2044 44.0519C46.3405 43.5082 46.5 42.732 46.5 42C46.5 41.268 46.3405 40.4918 46.2044 39.9481C45.8868 38.6795 44.7732 37.88 43.5767 37.8188C41.4835 37.7118 35.8463 37.5 24 37.5C12.4604 37.5 6.64949 37.701 4.3437 37.8102C2.91588 37.8778 1.72227 38.9658 1.58503 40.4303C1.54056 40.9048 1.5 41.4759 1.5 42C1.5 42.732 1.65951 43.5082 1.7956 44.0519C2.11318 45.3205 3.22684 46.12 4.42333 46.1812Z"></path></svg>