<svg xmlns="http://www.w3.org/2000/svg" fill="none" viewBox="0 0 48 48"><path fill="currentColor" d="M1.5 39C1.5 40.9658 1.57286 42.3264 1.66853 43.27C1.87037 45.2609 3.46733 46.4012 5.21625 46.4599C5.9034 46.4829 6.81269 46.5 8 46.5C9.18731 46.5 10.0966 46.4829 10.7837 46.4599C12.5327 46.4012 14.1296 45.2609 14.3315 43.27C14.4271 42.3264 14.5 40.9658 14.5 39C14.5 37.0342 14.4271 35.6736 14.3315 34.73C14.1296 32.7391 12.5327 31.5988 10.7837 31.5401C10.0966 31.5171 9.18731 31.5 8 31.5C6.81269 31.5 5.9034 31.5171 5.21625 31.5401C3.46732 31.5988 1.87037 32.7391 1.66853 34.73C1.57286 35.6736 1.5 37.0342 1.5 39Z"></path><path fill="currentColor" d="M33.5 32C33.5 37.6862 33.6318 40.9142 33.7636 42.7258C33.9099 44.7356 35.3782 46.3038 37.4656 46.4316C38.1299 46.4722 38.9629 46.5 40 46.5C41.0371 46.5 41.8701 46.4722 42.5344 46.4316C44.6218 46.3038 46.0901 44.7356 46.2364 42.7258C46.3682 40.9142 46.5 37.6862 46.5 32C46.5 26.3138 46.3682 23.0858 46.2364 21.2742C46.0901 19.2644 44.6218 17.6962 42.5344 17.5684C41.8701 17.5278 41.0371 17.5 40 17.5C38.9629 17.5 38.1299 17.5278 37.4656 17.5684C35.3782 17.6962 33.9099 19.2644 33.7636 21.2742C33.6318 23.0858 33.5 26.3138 33.5 32Z"></path><path fill="currentColor" d="M17.5 36C17.5 39.4114 17.5986 41.564 17.7125 42.9175C17.8848 44.9653 19.4528 46.3637 21.4335 46.4506C22.0967 46.4797 22.9392 46.5 24 46.5C25.0608 46.5 25.9033 46.4797 26.5665 46.4506C28.5472 46.3637 30.1152 44.9653 30.2875 42.9174C30.4014 41.564 30.5 39.4114 30.5 36C30.5 32.5886 30.4014 30.436 30.2875 29.0826C30.1152 27.0347 28.5472 25.6363 26.5665 25.5494C25.9033 25.5203 25.0608 25.5 24 25.5C22.9392 25.5 22.0967 25.5203 21.4335 25.5494C19.4528 25.6363 17.8848 27.0347 17.7125 29.0826C17.5986 30.436 17.5 32.5886 17.5 36Z"></path><path fill="currentColor" d="M42.1714 1.52465C40.7553 1.46559 37.7721 1.45797 34.3762 2.15459C32.3729 2.56555 31.83 4.9737 33.1586 6.30234L34.9504 8.09414C34.3792 8.61231 33.6424 9.29161 32.8095 10.0851C30.8712 11.9317 28.3806 14.4269 26.245 16.964C26.2179 16.9961 26.1685 17.0261 26.0931 17.024C26.0581 17.023 26.0331 17.0146 26.0196 17.0078C26.0095 17.0026 26.0027 16.9973 25.9941 16.9854C25.0866 15.7154 23.885 14.0872 22.6127 12.5134C21.3782 10.9863 19.1703 10.593 17.4871 11.7341C15.0806 13.3656 10.0838 17.1259 4.49447 23.5179C4.15512 23.906 3.81358 24.3037 3.47029 24.7114C2.75875 25.5562 2.86683 26.8179 3.71169 27.5295C4.55655 28.241 5.81826 28.1329 6.5298 27.2881C6.85699 26.8996 7.18241 26.5206 7.50562 26.1509C12.7199 20.188 17.3583 16.669 19.5923 15.14C20.7643 16.5962 21.8804 18.1085 22.7396 19.3109C24.338 21.5479 27.6032 21.5619 29.3052 19.5399C31.3057 17.1632 33.678 14.7823 35.5686 12.9812C36.4469 12.1444 37.2144 11.4393 37.7823 10.926L39.6986 12.8424C41.0273 14.171 43.4354 13.6281 43.8464 11.6248C44.543 8.22887 44.5354 5.24568 44.4763 3.82956C44.424 2.57412 43.4269 1.577 42.1714 1.52465Z"></path></svg>