<svg xmlns="http://www.w3.org/2000/svg" fill="none" viewBox="0 0 48 48"><path fill="currentColor" fill-rule="evenodd" d="M18.1217 1.82869C16.7239 1.64626 14.7479 1.5 12 1.5C9.2521 1.5 7.27607 1.64626 5.87826 1.82869C3.37891 2.1549 1.78088 4.14337 1.63735 6.50637C1.56029 7.77508 1.5 9.54974 1.5 12C1.5 14.4503 1.56029 16.2249 1.63735 17.4936C1.78088 19.8566 3.37891 21.8451 5.87826 22.1713C7.27607 22.3537 9.2521 22.5 12 22.5C14.7479 22.5 16.7239 22.3537 18.1217 22.1713C20.6211 21.8451 22.2191 19.8566 22.3627 17.4936C22.4397 16.2249 22.5 14.4503 22.5 12C22.5 9.54974 22.4397 7.77508 22.3627 6.50637C22.2191 4.14337 20.6211 2.1549 18.1217 1.82869ZM17 12C17 12.8284 16.3284 13.5 15.5 13.5H13.5431L13.5983 15.4557C13.6217 16.2838 12.9693 16.974 12.1412 16.9974C11.3131 17.0208 10.6229 16.3684 10.5995 15.5403L10.5419 13.5H8.5C7.67157 13.5 7 12.8284 7 12C7 11.1716 7.67157 10.5 8.5 10.5H10.4572L10.402 8.54312C10.3786 7.71503 11.0309 7.02477 11.859 7.00139C12.6871 6.97801 13.3774 7.63037 13.4008 8.45846L13.4584 10.5H15.5C16.3284 10.5 17 11.1716 17 12Z" clip-rule="evenodd"></path><path fill="currentColor" fill-rule="evenodd" d="M5.87826 25.8287C7.27607 25.6463 9.2521 25.5 12 25.5C14.7479 25.5 16.7239 25.6463 18.1217 25.8287C20.6211 26.1549 22.2191 28.1434 22.3627 30.5064C22.4397 31.7751 22.5 33.5497 22.5 36C22.5 38.4503 22.4397 40.2249 22.3627 41.4936C22.2191 43.8566 20.6211 45.8451 18.1217 46.1713C16.7239 46.3537 14.7479 46.5 12 46.5C9.2521 46.5 7.27607 46.3537 5.87826 46.1713C3.37891 45.8451 1.78088 43.8566 1.63735 41.4936C1.56029 40.2249 1.5 38.4503 1.5 36C1.5 33.5497 1.56029 31.7751 1.63735 30.5064C1.78088 28.1434 3.37891 26.1549 5.87826 25.8287ZM16.0607 31.9396C16.6464 32.5254 16.6464 33.4751 16.0607 34.0609L14.1213 36.0002L16.0604 37.9393C16.6462 38.5251 16.6462 39.4749 16.0604 40.0607C15.4746 40.6464 14.5249 40.6464 13.9391 40.0607L12 38.1215L10.0605 40.061C9.47475 40.6468 8.525 40.6468 7.93922 40.061C7.35343 39.4752 7.35343 38.5255 7.93922 37.9397L9.87868 36.0002L7.93899 34.0605C7.3532 33.4748 7.3532 32.525 7.93899 31.9392C8.52478 31.3534 9.47452 31.3534 10.0603 31.9392L12 33.8789L13.9393 31.9396C14.5251 31.3538 15.4749 31.3538 16.0607 31.9396Z" clip-rule="evenodd"></path><path fill="currentColor" fill-rule="evenodd" d="M36 46.5C38.7479 46.5 40.7239 46.3537 42.1217 46.1713C44.6211 45.8451 46.2191 43.8566 46.3627 41.4936C46.4397 40.2249 46.5 38.4503 46.5 36C46.5 33.5497 46.4397 31.7751 46.3627 30.5064C46.2191 28.1434 44.6211 26.1549 42.1217 25.8287C40.7239 25.6463 38.7479 25.5 36 25.5C33.2521 25.5 31.2761 25.6463 29.8783 25.8287C27.3789 26.1549 25.7809 28.1434 25.6373 30.5064C25.5603 31.7751 25.5 33.5497 25.5 36C25.5 38.4503 25.5603 40.2249 25.6373 41.4936C25.7809 43.8566 27.3789 45.8451 29.8783 46.1713C31.2761 46.3537 33.2521 46.5 36 46.5ZM41 33C41 33.8284 40.3284 34.5 39.5 34.5H32.5C31.6716 34.5 31 33.8284 31 33C31 32.1716 31.6716 31.5 32.5 31.5H39.5C40.3284 31.5 41 32.1716 41 33ZM39.5 40.5C40.3284 40.5 41 39.8284 41 39C41 38.1716 40.3284 37.5 39.5 37.5H32.5C31.6716 37.5 31 38.1716 31 39C31 39.8284 31.6716 40.5 32.5 40.5H39.5Z" clip-rule="evenodd"></path><path fill="currentColor" fill-rule="evenodd" d="M29.8783 1.82869C31.2761 1.64626 33.2521 1.5 36 1.5C38.7479 1.5 40.7239 1.64626 42.1217 1.82869C44.6211 2.1549 46.2191 4.14337 46.3627 6.50637C46.4397 7.77508 46.5 9.54974 46.5 12C46.5 14.4503 46.4397 16.2249 46.3627 17.4936C46.2191 19.8566 44.6211 21.8451 42.1217 22.1713C40.7239 22.3537 38.7479 22.5 36 22.5C33.2521 22.5 31.2761 22.3537 29.8783 22.1713C27.3789 21.8451 25.7809 19.8566 25.6373 17.4936C25.5603 16.2249 25.5 14.4503 25.5 12C25.5 9.54974 25.5603 7.77508 25.6373 6.50637C25.7809 4.14337 27.3789 2.1549 29.8783 1.82869ZM39.5 13.5C40.3284 13.5 41 12.8284 41 12C41 11.1716 40.3284 10.5 39.5 10.5H32.5C31.6716 10.5 31 11.1716 31 12C31 12.8284 31.6716 13.5 32.5 13.5H39.5Z" clip-rule="evenodd"></path></svg>