<svg xmlns="http://www.w3.org/2000/svg" fill="none" viewBox="0 0 48 48"><path fill="currentColor" fill-rule="evenodd" d="M8.1357 2.04389C11.4073 1.77808 16.5986 1.5 24 1.5C31.4014 1.5 36.5927 1.77808 39.8643 2.04389C43.1521 2.31102 45.689 4.84784 45.9561 8.13569C46.2219 11.4073 46.5 16.5986 46.5 24C46.5 31.4014 46.2219 36.5927 45.9561 39.8643C45.689 43.1522 43.1521 45.689 39.8643 45.9561C36.5927 46.2219 31.4014 46.5 24 46.5C16.5986 46.5 11.4073 46.2219 8.13571 45.9561C4.84785 45.689 2.31102 43.1522 2.04389 39.8643C1.77808 36.5927 1.5 31.4014 1.5 24C1.5 16.5986 1.77808 11.4073 2.04389 8.13571C2.31102 4.84786 4.84784 2.31103 8.1357 2.04389ZM33.5884 35.8721C32.6424 35.7153 32.1206 34.843 32.0972 33.8844C32.0554 32.1723 32 28.963 32 23.9805C32 18.9979 32.0554 15.7887 32.0972 14.0765C32.1206 13.1179 32.6424 12.2456 33.5884 12.0888C33.9744 12.0248 34.4428 11.9805 35 11.9805C35.5572 11.9805 36.0256 12.0248 36.4116 12.0888C37.3576 12.2456 37.8794 13.1179 37.9028 14.0765C37.9446 15.7887 38 18.9979 38 23.9805C38 28.963 37.9446 32.1723 37.9028 33.8844C37.8794 34.843 37.3576 35.7153 36.4116 35.8721C36.0256 35.9361 35.5572 35.9805 35 35.9805C34.4428 35.9805 33.9744 35.9361 33.5884 35.8721ZM21.0755 33.7993C21.1065 34.8961 21.7865 35.8369 22.8794 35.9336C23.2034 35.9623 23.576 35.9805 24 35.9805C24.424 35.9805 24.7966 35.9623 25.1206 35.9336C26.2135 35.8369 26.8935 34.8961 26.9245 33.7993C26.9615 32.4895 27 30.421 27 27.4805C27 24.54 26.9615 22.4714 26.9245 21.1616C26.8935 20.0649 26.2135 19.124 25.1206 19.0273C24.7966 18.9987 24.424 18.9805 24 18.9805C23.576 18.9805 23.2034 18.9987 22.8794 19.0273C21.7865 19.124 21.1065 20.0649 21.0755 21.1616C21.0385 22.4714 21 24.54 21 27.4805C21 30.4209 21.0385 32.4895 21.0755 33.7993ZM12.1799 35.9661C10.9431 35.9212 10.074 34.9307 10.037 33.6937C10.0158 32.9887 10 32.0901 10 30.9805C10 29.8708 10.0158 28.9723 10.037 28.2672C10.074 27.0302 10.9432 26.0397 12.1799 25.9948C12.4284 25.9858 12.7015 25.9805 13 25.9805C13.2985 25.9805 13.5716 25.9858 13.8201 25.9948C15.0569 26.0397 15.926 27.0302 15.963 28.2672C15.9842 28.9723 16 29.8708 16 30.9805C16 32.0901 15.9842 32.9887 15.963 33.6937C15.926 34.9307 15.0568 35.9212 13.8201 35.9661C13.5716 35.9752 13.2985 35.9805 13 35.9805C12.7015 35.9805 12.4284 35.9752 12.1799 35.9661Z" clip-rule="evenodd"></path></svg>