<svg xmlns="http://www.w3.org/2000/svg" fill="none" viewBox="0 0 48 48"><path fill="currentColor" fill-rule="evenodd" d="M24.3984 1.5C19.9306 1.5 16.6142 1.88461 14.6811 2.191C13.2886 2.41171 12.3484 3.62475 12.3484 4.99558C12.3484 7.93007 13.9322 10.4937 16.2901 11.88C12.505 13.7888 9.27076 16.8916 6.93234 20.4334C4.40426 24.2624 2.89844 28.6425 2.89844 32.6429C2.89844 37.76 5.36343 41.258 9.3065 43.4471C13.2144 45.6166 18.5633 46.5 24.3984 46.5C30.2336 46.5 35.5825 45.6166 39.4904 43.4471C43.4334 41.258 45.8984 37.76 45.8984 32.6429C45.8984 28.6425 44.3926 24.2624 41.8645 20.4334C39.5261 16.8916 36.2919 13.7888 32.5067 11.8801C34.8647 10.4937 36.4484 7.93007 36.4484 4.99558C36.4484 3.62475 35.5083 2.41171 34.1157 2.191C32.1826 1.88461 28.8663 1.5 24.3984 1.5ZM21.2743 20.0136C23.1639 18.6639 25.7676 18.8016 29.0532 20.105C29.8233 20.4105 30.1999 21.2824 29.8944 22.0524C29.5889 22.8225 28.717 23.1991 27.947 22.8936C24.9318 21.6975 23.6225 22.023 23.018 22.4548C22.3169 22.9555 21.8411 24.0591 21.5298 25.9888C21.4515 26.4744 21.3879 26.9783 21.3296 27.5H27C27.8284 27.5 28.5 28.1716 28.5 29C28.5 29.8284 27.8284 30.5 27 30.5H21.0081C20.9439 31.0179 20.8697 31.5348 20.7778 32.036C20.6243 32.8727 20.4058 33.7679 20.0442 34.6039C20.3551 34.6114 20.6837 34.6185 21.0269 34.6246C23.3449 34.666 26.2988 34.6653 28.9066 34.5023C29.7334 34.4506 30.4455 35.079 30.4972 35.9058C30.5489 36.7326 29.9205 37.4448 29.0937 37.4965C26.3681 37.6668 23.322 37.6661 20.9733 37.6241C19.7955 37.6031 18.7859 37.5716 18.07 37.5452C17.712 37.5321 17.4271 37.5202 17.2312 37.5116L17.1231 37.5068L17.0058 37.5014L16.9466 37.4986L16.9258 37.4975L17.0001 35.9994C16.9252 37.4975 16.9258 37.4975 16.9258 37.4975C16.257 37.4641 15.6909 36.9914 15.5391 36.3393C15.3874 35.6871 15.6863 35.0133 16.2716 34.6881C16.9739 34.298 17.487 33.3487 17.827 31.4949C17.8858 31.1743 17.9369 30.8424 17.9832 30.5H17C16.1716 30.5 15.5 29.8284 15.5 29C15.5 28.1716 16.1716 27.5 17 27.5H18.3117C18.3828 26.8356 18.4632 26.1613 18.5681 25.5111C18.8818 23.5659 19.4812 21.2943 21.2743 20.0136Z" clip-rule="evenodd"></path></svg>