<svg xmlns="http://www.w3.org/2000/svg" fill="none" viewBox="0 0 48 48"><path fill="currentColor" fill-rule="evenodd" d="M24 42.5C16.5892 42.5 11.3991 42.2741 8.13691 42.059C4.8842 41.8446 2.26989 39.4098 1.9717 36.1091C1.72935 33.4266 1.5 29.4487 1.5 24C1.5 23.6805 1.50079 23.366 1.50232 23.0565C5.20726 23.1303 12.9274 23.25 24 23.25C35.0726 23.25 42.7927 23.1303 46.4977 23.0565C46.4992 23.366 46.5 23.6805 46.5 24C46.5 29.4487 46.2706 33.4267 46.0283 36.1092C45.7301 39.4098 43.1158 41.8446 39.8631 42.059C36.6009 42.2741 31.4108 42.5 24 42.5ZM28.5079 32.0203C28.503 32.3076 28.5 32.6331 28.5 33C28.5 33.3761 28.5031 33.7085 28.5082 34.0005C28.5314 35.3243 29.4362 36.36 30.7984 36.432C31.5367 36.4711 32.5669 36.5 34 36.5C35.4122 36.5 36.4329 36.473 37.1684 36.4363C38.5464 36.3676 39.4693 35.3221 39.4921 33.9797C39.497 33.6924 39.5 33.3669 39.5 33C39.5 32.6331 39.497 32.3076 39.4921 32.0203C39.4693 30.6779 38.5464 29.6324 37.1684 29.5637C36.4329 29.527 35.4122 29.5 34 29.5C32.5878 29.5 31.5671 29.527 30.8316 29.5637C29.4536 29.6324 28.5307 30.6779 28.5079 32.0203Z" clip-rule="evenodd"></path><path fill="currentColor" d="M1.9717 11.8909C1.8925 12.7675 1.81469 13.7825 1.74581 14.942C5.41241 14.8682 12.9989 14.75 24 14.75C35.0011 14.75 42.5876 14.8682 46.2542 14.942C46.1853 13.7825 46.1075 12.7675 46.0283 11.8909C45.7301 8.59021 43.1158 6.15543 39.8631 5.94098C36.6009 5.7259 31.4108 5.5 24 5.5C16.5892 5.5 11.3991 5.7259 8.13691 5.94097C4.88421 6.15543 2.2699 8.59021 1.9717 11.8909Z"></path></svg>