<svg xmlns="http://www.w3.org/2000/svg" fill="none" viewBox="0 0 48 48"><path fill="currentColor" fill-rule="evenodd" d="M14.6811 2.191C16.6142 1.88461 19.9306 1.5 24.3984 1.5C28.8663 1.5 32.1826 1.88461 34.1157 2.191C35.5083 2.41171 36.4484 3.62475 36.4484 4.99558C36.4484 7.93007 34.8647 10.4937 32.5067 11.8801C36.2919 13.7888 39.5261 16.8916 41.8645 20.4334C44.3926 24.2624 45.8984 28.6425 45.8984 32.6429C45.8984 37.76 43.4334 41.258 39.4904 43.4471C35.5825 45.6166 30.2336 46.5 24.3984 46.5C18.5633 46.5 13.2144 45.6166 9.3065 43.4471C5.36343 41.258 2.89844 37.76 2.89844 32.6429C2.89844 28.6425 4.40426 24.2624 6.93234 20.4334C9.27076 16.8916 12.505 13.7888 16.2901 11.88C13.9322 10.4937 12.3484 7.93007 12.3484 4.99558C12.3484 3.62475 13.2886 2.41171 14.6811 2.191ZM20.4977 33C21.6765 35.1423 23.7621 36.5 26 36.5C27.1491 36.5 28.2335 36.1559 29.1818 35.5387C29.8762 35.0869 30.8054 35.2834 31.2572 35.9778C31.7091 36.6721 31.5125 37.6013 30.8182 38.0532C29.4132 38.9675 27.7652 39.5 26 39.5C21.9387 39.5 18.6195 36.7522 17.2183 33H15C14.1716 33 13.5 32.3284 13.5 31.5C13.5 30.6716 14.1716 30 15 30H16.5432C16.5146 29.67 16.5 29.3363 16.5 29C16.5 28.6637 16.5146 28.33 16.5432 28H15C14.1716 28 13.5 27.3284 13.5 26.5C13.5 25.6716 14.1716 25 15 25H17.2183C18.6195 21.2478 21.9387 18.5 26 18.5C27.7652 18.5 29.4132 19.0325 30.8182 19.9468C31.5125 20.3987 31.7091 21.3279 31.2572 22.0222C30.8054 22.7166 29.8762 22.9131 29.1818 22.4613C28.2335 21.8441 27.1491 21.5 26 21.5C23.7621 21.5 21.6765 22.8577 20.4977 25H27C27.8284 25 28.5 25.6716 28.5 26.5C28.5 27.3284 27.8284 28 27 28H19.5562C19.5192 28.3256 19.5 28.6593 19.5 29C19.5 29.3407 19.5192 29.6744 19.5562 30H27C27.8284 30 28.5 30.6716 28.5 31.5C28.5 32.3284 27.8284 33 27 33H20.4977Z" clip-rule="evenodd"></path></svg>