<svg xmlns="http://www.w3.org/2000/svg" fill="none" viewBox="0 0 48 48"><path fill="currentColor" d="M8.2793 37.6856C11.6314 38.2324 16.1954 38.1905 22.0778 36.5447C28.6659 34.7015 32.5895 35.4911 34.3623 36.1171C35.9211 36.6676 37.701 36.6383 39.263 35.9151C40.9177 35.1489 42.3486 33.5548 42.5968 31.3123C42.8136 29.3537 42.9997 26.3718 42.9997 21.8792C42.9997 18.2823 42.8805 15.6484 42.7203 13.7285C43.2164 13.9258 43.6349 14.1252 43.978 14.3085C45.0073 14.8582 45.6589 15.8282 45.8566 16.9153C46.1324 18.4312 46.4997 21.6159 46.4997 27.8793C46.4997 32.3076 46.316 35.1939 46.112 37.0373C45.9722 38.3005 45.1786 39.1992 44.2126 39.6465C43.2813 40.0778 42.1799 40.1077 41.1947 39.7599C38.9012 38.9499 34.4496 38.1661 27.4042 40.1373C17.8707 42.8046 12.309 40.938 10.0366 39.75C9.17525 39.2998 8.57223 38.5541 8.2793 37.6856Z"></path><path fill="currentColor" fill-rule="evenodd" d="M37.9783 8.3082C35.7078 7.09537 30.1411 5.1774 20.5962 7.84794C13.5111 9.83023 9.04578 9.0555 6.75957 8.25958C5.78419 7.92001 4.69446 7.94964 3.77115 8.37941C2.81224 8.82575 2.03089 9.71895 1.89108 10.9688C1.68561 12.8058 1.5 15.7017 1.5 20.1815C1.5 26.466 1.86514 29.64 2.14123 31.1498C2.34114 32.243 3.0029 33.2093 4.03687 33.7498C6.30931 34.9377 11.8709 36.8043 21.4045 34.137C28.4499 32.1658 32.9015 32.9497 35.195 33.7596C36.1802 34.1075 37.2816 34.0775 38.2129 33.6463C39.1789 33.199 39.9725 32.3003 40.1123 31.0371C40.3163 29.1937 40.5 26.3073 40.5 21.879C40.5 15.6157 40.1327 12.431 39.8569 10.915C39.6592 9.82797 39.0075 8.85796 37.9783 8.3082ZM26 21C26 23.7614 23.7614 26 21 26C18.2386 26 16 23.7614 16 21C16 18.2386 18.2386 16 21 16C23.7614 16 26 18.2386 26 21ZM36.5645 10.955C35.7478 10.5188 34.1027 9.82962 31.5166 9.58789C31.728 12.5984 34.2068 14.95 37.2019 14.95C37.2338 14.95 37.2657 14.9498 37.2974 14.9492C37.1761 13.2005 37.0229 12.1007 36.905 11.4527C36.8599 11.2048 36.7321 11.0446 36.5645 10.955ZM4.87209 11.303C4.87959 11.236 4.89783 11.2074 4.90974 11.1918C4.92537 11.1712 4.96132 11.135 5.03673 11.0999C5.20105 11.0234 5.47892 10.9912 5.77283 11.0935C6.94601 11.5019 8.48377 11.8732 10.4095 12.0264C9.92675 14.7342 7.58723 16.7696 4.80068 16.7696C4.71359 16.7696 4.62703 16.7676 4.54102 16.7637C4.60565 14.2645 4.73718 12.5092 4.87209 11.303ZM36.1935 30.9315C35.0241 30.5185 33.4976 30.1431 31.5916 29.9828C32.0707 27.2705 34.4123 25.2306 37.2019 25.2306C37.2883 25.2306 37.3741 25.2325 37.4593 25.2364C37.3956 27.7292 37.2648 29.4907 37.1301 30.7077C37.1225 30.776 37.1037 30.8067 37.0897 30.825C37.0718 30.8484 37.0322 30.8875 36.9519 30.9246C36.7776 31.0054 36.4903 31.0363 36.1935 30.9315ZM4.80068 27.0499C4.7656 27.0499 4.73061 27.0502 4.6957 27.0508C4.81733 28.8423 4.97263 29.9585 5.0919 30.6108C5.13566 30.8501 5.25983 31.0048 5.42632 31.0918C6.2452 31.5199 7.89448 32.1945 10.4868 32.4224C10.2803 29.4069 7.79932 27.0499 4.80068 27.0499Z" clip-rule="evenodd"></path></svg>