<svg xmlns="http://www.w3.org/2000/svg" fill="none" viewBox="0 0 48 48"><path fill="currentColor" fill-rule="evenodd" d="M41.3676 1.70172C34.5617 1.27881 28.3256 1.61953 25.4844 1.83081C24.1444 1.93045 22.8685 2.41267 21.8003 3.25449C18.7653 5.64611 10.9043 12.2481 2.96883 22.2722C1.24349 24.4516 0.992741 27.4871 2.78457 29.8211C4.15026 31.6 6.36065 34.2455 9.90481 38.0259C14.0304 42.4265 16.9388 44.7729 18.8273 46.0245C20.8996 47.3979 23.3274 46.9199 25.046 45.6195C35.5912 37.6407 42.4289 29.2787 44.8152 26.1496C45.6126 25.1039 46.0668 23.868 46.1638 22.5755C46.3747 19.7629 46.7233 13.4861 46.2974 6.63147C46.1324 3.97617 44.0229 1.86671 41.3676 1.70172ZM33.5 11C33.5 9.067 35.067 7.5 37 7.5C38.933 7.5 40.5 9.067 40.5 11C40.5 12.933 38.933 14.5 37 14.5C35.067 14.5 33.5 12.933 33.5 11Z" clip-rule="evenodd"></path></svg>