<svg xmlns="http://www.w3.org/2000/svg" fill="none" viewBox="0 0 48 48"><path fill="currentColor" d="M28.199 3.01298C28.1677 3.00892 28.1361 3.00576 28.1043 3.00358C24.7621 2.74719 22.1717 2.87445 20.3968 3.07166C19.5086 3.17035 18.8251 3.2865 18.3542 3.38067C18.1054 3.43044 17.8573 3.48485 17.6122 3.55088L17.5975 3.55498L17.592 3.55651L17.5898 3.55715L17.5879 3.55769C17.3428 3.62772 17.1195 3.75907 16.9393 3.93932C14.8518 6.02681 12.6702 8.8561 11.0339 11.1217C10.2099 12.2627 9.51299 13.2764 9.02166 14.0054C8.77587 14.3702 8.58118 14.6642 8.44739 14.8679C8.38049 14.9697 8.32879 15.049 8.29352 15.1033L8.25307 15.1657L8.23817 15.1888C7.79019 15.8857 7.99195 16.8138 8.6888 17.2617C9.38562 17.7097 10.3141 17.5073 10.7621 16.8106L10.7729 16.7938L10.8094 16.7375C10.842 16.6873 10.8909 16.6123 10.9548 16.5149C11.0828 16.3201 11.2709 16.036 11.5095 15.682C11.9869 14.9736 12.665 13.9873 13.466 12.8782C14.8911 10.9049 16.6709 8.5913 18.3848 6.76018L22.2914 13.9723C21.436 14.5654 20.803 15.048 20.3459 15.4195C19.5262 16.0856 19.744 17.2888 20.6771 17.6918C23.8299 19.0535 28.0049 20.2368 31.122 20.9309C32.3382 21.2017 33.5509 20.5015 33.9245 19.3128C34.8796 16.2736 35.9395 12.0792 36.3389 8.67246C36.4586 7.65224 35.5092 6.8592 34.5183 7.24153C34.0749 7.41264 33.5147 7.64483 32.8283 7.9572C32.353 7.22622 31.7976 6.43548 31.162 5.62755C31.0799 5.52316 30.993 5.42214 30.9015 5.32535C30.2782 4.47866 29.796 3.95636 29.4133 3.62854C29.1867 3.43442 28.967 3.28415 28.7461 3.17901C28.6337 3.1255 28.5152 3.08096 28.3908 3.04962C28.3285 3.03391 28.2644 3.02148 28.199 3.01298Z"></path><path fill="currentColor" d="M39.5116 14.7555C39.1321 14.0191 38.2275 13.7298 37.4911 14.1093C36.7547 14.4888 36.4658 15.394 36.8452 16.1304L36.8543 16.1481L36.8849 16.2079C36.912 16.2612 36.9525 16.3411 37.0049 16.4451C37.1096 16.6533 37.2616 16.9583 37.4489 17.3419C37.8237 18.1096 38.3388 19.19 38.8988 20.4382C39.8951 22.659 41.0088 25.3572 41.7377 27.757L33.5387 27.5341C33.4527 26.4968 33.3513 25.7072 33.2581 25.1257C33.0911 24.0828 31.9401 23.6698 31.1246 24.2763C28.369 26.3259 25.2567 29.3499 23.0971 31.7024C22.2544 32.6203 22.2544 34.0206 23.0971 34.9384C25.2516 37.2852 28.3541 40.3003 31.1047 42.3496C31.9284 42.9633 33.0899 42.5376 33.2542 41.4883C33.3277 41.0188 33.4068 40.4175 33.4794 39.6669C34.3501 39.6208 35.3126 39.5352 36.3301 39.3887C36.4614 39.3698 36.5921 39.3451 36.7215 39.3143C37.7667 39.1978 38.4602 39.0414 38.9356 38.8738C39.217 38.7747 39.457 38.6595 39.6585 38.5208C39.761 38.4502 39.8588 38.3698 39.9481 38.2778C39.9929 38.2317 40.0357 38.1824 40.0758 38.13C40.095 38.1049 40.1135 38.0791 40.1313 38.0527C42.0244 35.2865 43.2094 32.9795 43.9261 31.3437C44.2847 30.5252 44.5259 29.8752 44.6798 29.4203C44.7567 29.1929 44.8118 29.0143 44.8489 28.8878C44.8674 28.8246 44.8814 28.7744 44.8914 28.7376L44.9034 28.6926L44.9072 28.6778L44.9086 28.6723L44.9096 28.6681C44.9715 28.4208 44.9694 28.1619 44.9034 27.9156C44.1394 25.0641 42.7799 21.7601 41.6359 19.2102C41.0599 17.9262 40.5304 16.8157 40.1447 16.0257C39.9517 15.6305 39.7945 15.3149 39.685 15.0972C39.6302 14.9883 39.5874 14.9039 39.558 14.8462L39.5242 14.7799L39.5116 14.7555Z"></path><path fill="currentColor" d="M4.37656 27.36C3.95487 28.3234 3.7436 29.0022 3.65102 29.4976C3.59621 29.7909 3.57592 30.0563 3.59533 30.3002C3.6052 30.4243 3.62586 30.5492 3.6609 30.6726C3.67848 30.7344 3.69973 30.7961 3.72509 30.857C3.73724 30.8862 3.7503 30.9151 3.76431 30.9438C5.21335 33.9663 6.61875 36.1461 7.67701 37.5846C8.20659 38.3045 8.64894 38.8383 8.96592 39.199C9.1244 39.3793 9.25153 39.5164 9.34253 39.6117C9.38803 39.6594 9.4245 39.6966 9.45135 39.7236L9.48431 39.7565L9.49524 39.7672L9.49929 39.7712L9.50239 39.7742C9.6856 39.9514 9.91095 40.0791 10.1572 40.1451C13.0088 40.9091 16.5498 41.3838 19.33 41.668C20.7301 41.8112 21.9565 41.9079 22.8335 41.9688C23.2723 41.9993 23.6242 42.0209 23.8675 42.035C23.9892 42.042 24.0837 42.0471 24.1484 42.0505L24.2227 42.0543L24.2501 42.0557C25.0776 42.0952 25.7805 41.4564 25.82 40.629C25.8595 39.8015 25.22 39.0986 24.3926 39.0591L24.3727 39.0581L24.3056 39.0546C24.2459 39.0515 24.1565 39.0466 24.0402 39.0399C23.8076 39.0265 23.4674 39.0057 23.0416 38.9761C22.1893 38.9168 20.9961 38.8227 19.6352 38.6836C17.2137 38.436 14.3201 38.0515 11.8774 37.4828L16.17 30.4936C17.1114 30.9378 17.8458 31.2447 18.396 31.4548C19.3827 31.8316 20.3159 31.0414 20.1983 30.0318C19.8012 26.6206 18.7385 22.4132 17.781 19.3667C17.4074 18.178 16.1947 17.4779 14.9784 17.7487C11.8689 18.4412 7.7064 19.6205 4.55641 20.9779C3.61308 21.3845 3.40098 22.6032 4.22751 23.2701C4.59741 23.5686 5.07861 23.9377 5.69232 24.3759C5.2969 25.153 4.88978 26.0293 4.50792 26.9837C4.45863 27.1069 4.41462 27.2325 4.37656 27.36Z"></path></svg>