<svg xmlns="http://www.w3.org/2000/svg" fill="none" viewBox="0 0 48 48"><path fill="currentColor" d="M31.3859 1.53716C25.2162 1.78946 17.4245 3.4204 11.6828 9.16212C4.94245 15.9025 3.55238 26.0447 8.30071 33.1666C6.59111 36.9398 5.50007 40.9367 5.50007 45C5.50007 45.8284 6.17165 46.5 7.00007 46.5C7.8285 46.5 8.50007 45.8284 8.50007 45C8.50007 41.9162 9.2258 38.8083 10.4517 35.7634C10.4552 35.7668 10.4587 35.7703 10.4622 35.7737C11.8127 32.4836 13.7571 29.3318 15.9648 26.4159C15.512 23.5663 15.651 20.4386 15.8928 18.0456C16.0199 16.788 16.1782 15.707 16.3051 14.9387C16.3734 14.5249 16.4455 14.1114 16.5301 13.7007C16.6974 12.8972 17.5017 12.3629 18.3077 12.5319C19.1119 12.7005 19.6294 13.4844 19.472 14.2883C19.5019 14.1416 19.4497 14.423 19.3898 14.7457C19.3376 15.0268 19.2796 15.3392 19.265 15.4274C19.1461 16.1471 18.9971 17.1644 18.8776 18.3472C18.7318 19.7903 18.634 21.4423 18.6785 23.083C19.2893 22.3816 19.9089 21.6986 20.5317 21.0355C22.0087 19.4631 23.5205 17.9854 25.0017 16.6232C25.0316 13.6824 25.4072 11.436 25.7946 9.88619C26.0102 9.02395 26.2613 8.14225 26.6529 7.33979L26.6558 7.33392L26.6571 7.33141L26.6582 7.32917C27.0287 6.5882 27.9297 6.28787 28.6707 6.65835C29.4091 7.02758 29.7099 7.92373 29.3452 8.66326L29.3412 8.6718C29.3023 8.75465 29.0082 9.40122 28.705 10.6138C28.5005 11.4318 28.2915 12.5092 28.1547 13.8466C31.6488 10.8974 34.6576 8.75886 36.1679 7.75193C36.8572 7.2924 37.7885 7.47866 38.2481 8.16796C38.7076 8.85725 38.5213 9.78855 37.8321 10.2481C36.008 11.4641 31.8393 14.4493 27.3385 18.5512C29.0036 18.693 30.5692 19.0202 31.8586 19.3634C32.9571 19.6557 33.8829 19.9672 34.5369 20.2068C34.8943 20.3377 35.251 20.473 35.5999 20.6252L35.6033 20.6266C36.3617 20.9598 36.7065 21.8447 36.3734 22.6032C36.0403 23.3615 35.1557 23.7064 34.3973 23.3736C34.1043 23.2468 33.805 23.1336 33.5052 23.0238C32.9188 22.809 32.081 22.527 31.0871 22.2625C29.0851 21.7297 26.5573 21.2974 24.2027 21.5527C23.7055 22.0537 23.2098 22.5662 22.7183 23.0895C20.9841 24.9358 19.3262 26.8901 17.8424 28.918C19.677 28.6825 21.4211 28.6471 22.8553 28.6881C23.9954 28.7207 24.9575 28.8021 25.6382 28.876C26.0073 28.916 26.3767 28.9597 26.7432 29.0199L26.7451 29.0202L26.7465 29.0204C27.5637 29.1566 28.1157 29.9295 27.9795 30.7466C27.8433 31.5636 27.0708 32.1156 26.2538 31.9797C25.9423 31.9294 25.6284 31.8925 25.3148 31.8585C24.6986 31.7917 23.8169 31.7168 22.7696 31.6869C20.6926 31.6275 18.0319 31.7471 15.5141 32.415C14.4686 34.1624 13.5816 35.9473 12.9095 37.7497C20.0274 42.4376 30.1215 41.0335 36.8378 34.3171C42.5795 28.5754 44.2105 20.7837 44.4627 14.614C44.6125 10.9514 44.4159 7.12821 43.5763 3.54166C43.4473 2.99161 43.0069 2.5523 42.4571 2.42338C38.8683 1.58857 35.0505 1.38731 31.3859 1.53716Z"></path></svg>