<svg xmlns="http://www.w3.org/2000/svg" fill="none" viewBox="0 0 48 48"><path fill="currentColor" fill-rule="evenodd" d="M18.074 1.5c-.633 0-2.197.19-3.853.515-1.654.325-3.492.801-4.645 1.406a1.987 1.987 0 0 0-1.061 2.005c.063.521.163 1.134.3 1.715.136.572.314 1.148.544 1.574.334.617 1.017.707 1.482.66l2.496-.169v6.82a54.063 54.063 0 0 0-2.833.165c-.913.08-1.724.73-1.854 1.698a10.275 10.275 0 0 0 .016 2.694c.128.96.917 1.618 1.838 1.7 1.126.099 3.078.217 6 .217 2.913 0 5.93-.118 7.06-.218.913-.08 1.725-.73 1.854-1.697.139-1.033.08-1.99-.015-2.694-.129-.96-.918-1.619-1.838-1.7a53.36 53.36 0 0 0-2.712-.161V4.607c0-.871-.27-1.647-.766-2.21a2.634 2.634 0 0 0-2.013-.897Zm-5.99 45h10.978c.802 0 1.437-.288 1.861-.808.412-.504.577-1.167.577-1.843a28.72 28.72 0 0 0-.084-1.859 3.646 3.646 0 0 0-.078-.543c-.254-.953-1.206-1.372-2.034-1.372h-.015l-3.403.104c.453-.326.96-.733 1.468-1.223 1.551-1.498 3.14-3.803 3.14-6.956 0-2.46-1.21-4.113-2.918-5.126-1.68-.997-3.834-1.374-5.802-1.374-2.444 0-4.468.477-5.654 1.61v.002l-.02.017a3.802 3.802 0 0 0-.26.276 4.262 4.262 0 0 0-.532.792c-.352.68-.61 1.664-.162 2.783.356.888.939 1.415 1.51 1.717.537.285 1.101.313 1.618.253.418-.048.847-.16 1.226-.26l.227-.058c.797-.203 1.597-.291 2.168-.167.279.06.464.163.579.288.107.118.195.3.195.615 0 .326-.134.698-.423 1.12-.287.42-.704.855-1.212 1.296-1.018.885-2.33 1.734-3.51 2.49-1.48.948-3.127 2.418-3.017 4.467.015.267.052.545.12.83.072.298.149.569.226.814.458 1.447 1.86 2.115 3.23 2.115Zm32.037-22a5.266 5.266 0 0 0-.788-.712c.175-.18.376-.414.575-.702.546-.788 1.08-1.982 1.068-3.61 0-2.228-1.234-3.745-2.925-4.679-1.672-.922-3.816-1.297-5.785-1.297-2.711 0-4.915.432-6.177 1.421l-.008.007c-.655.535-.987 1.253-.987 2.108 0 .24.016.892.061 1.53.023.32.053.645.094.918.02.136.044.267.073.382.024.094.06.215.12.322.12.248.299.476.521.669a.988.988 0 0 1 .152-.098c.788-.415 1.78-.667 2.67-.818a15.156 15.156 0 0 1 2.404-.217h2.276a1 1 0 1 1 0 2H35.19c-.503 0-1.274.053-2.069.188-.677.115-1.314.28-1.804.49a5.428 5.428 0 0 0-.188 1.429 7.176 7.176 0 0 0 .127 1.345c.634.355 1.42.59 2.173.737.49.095.932.146 1.25.173.674.057 1.36.034 2.035-.02h.003a1 1 0 0 1 .172 1.993h-.002c-.157.013-.314.021-.472.028-.636.03-1.27.045-1.905-.008a13.91 13.91 0 0 1-1.462-.203c-1.104-.214-2.588-.65-3.676-1.583a1.576 1.576 0 0 0-.105.11 1.422 1.422 0 0 0-.24.444 4.501 4.501 0 0 0-.146.52c-.085.376-.155.827-.21 1.27-.11.885-.17 1.799-.17 2.14 0 .796.363 1.487 1.005 2.062l.008.007c1.273 1.093 3.618 1.654 6.823 1.654 2.026 0 4.282-.418 6.05-1.395 1.784-.984 3.114-2.568 3.114-4.864 0-1.763-.684-2.974-1.38-3.742Z" clip-rule="evenodd"/></svg>