<svg xmlns="http://www.w3.org/2000/svg" fill="none" viewBox="0 0 48 48"><path fill="currentColor" fill-rule="evenodd" d="M22 3a2 2 0 1 0-4 0v3a2 2 0 1 0 4 0V3Zm3.657 7.343a2 2 0 0 1 0-2.829l2.122-2.12a2 2 0 1 1 2.828 2.828l-2.121 2.12a2 2 0 0 1-2.829 0Zm-13.435-4.95a2 2 0 1 0-2.828 2.829l2.121 2.121a2 2 0 0 0 2.829-2.828l-2.122-2.122Zm13.299 17.502c-.033-2.06-.315-5.528-.54-8.033-.186-2.062-1.563-3.983-3.74-4.266-.448-.059-.92-.096-1.393-.096-.53 0-1.056.047-1.55.117-2.083.297-3.42 2.103-3.538 4.11-.128 2.152-.257 5.614-.26 10.842l-2.627 2.455c-1.5 1.402-2.317 3.473-1.846 5.533.817 3.572 2.178 6.322 3.289 8.132 1.118 1.822 2.962 3.003 5.058 3.341 1.543.249 3.65.47 6.259.47 2.181 0 4.042-.154 5.525-.35a7.473 7.473 0 0 0 5.995-4.7 34.618 34.618 0 0 0 1.987-7.386c.46-3.002-1.227-5.79-3.969-7.003a72.966 72.966 0 0 0-6.261-2.412 70.265 70.265 0 0 0-2.39-.754ZM7 14a2 2 0 1 0 0 4h3a2 2 0 1 0 0-4H7Zm21 2a2 2 0 0 1 2-2h3a2 2 0 1 1 0 4h-3a2 2 0 0 1-2-2Z" clip-rule="evenodd"/></svg>