<svg xmlns="http://www.w3.org/2000/svg" fill="none" viewBox="0 0 48 48"><path fill="currentColor" fill-rule="evenodd" d="M3.415 7.836a3.345 3.345 0 0 1 2.825-.28c1.55.562 4.081 1.29 7.767 1.805A1.512 1.512 0 0 0 14 9.5v29c0 .047.002.093.006.139-3.686.515-6.217 1.243-7.767 1.804a3.343 3.343 0 0 1-2.825-.28c-.807-.476-1.485-1.343-1.552-2.48C1.708 35.026 1.5 30.3 1.5 24s.208-11.025.363-13.683c.067-1.136.745-2.004 1.552-2.48ZM41.76 40.444c-1.55-.562-4.081-1.29-7.767-1.805.004-.046.007-.092.007-.139v-29c0-.047-.003-.093-.007-.139 3.686-.515 6.217-1.243 7.767-1.804a3.343 3.343 0 0 1 2.825.28c.807.476 1.485 1.344 1.552 2.48.155 2.658.363 7.383.363 13.683s-.208 11.025-.363 13.684c-.067 1.136-.745 2.003-1.552 2.48a3.345 3.345 0 0 1-2.825.28ZM17 38.297A78.289 78.289 0 0 1 24 38c2.621 0 4.948.113 7 .297V9.703A78.308 78.308 0 0 1 24 10c-2.622 0-4.95-.113-7-.297v28.594Z" clip-rule="evenodd"/></svg>