<svg xmlns="http://www.w3.org/2000/svg" fill="none" viewBox="0 0 48 48"><path fill="currentColor" fill-rule="evenodd" d="M3.173 8.786C4.786 8.856 9.812 9 24 9c14.188 0 19.214-.144 20.827-.214.651-.029 1.554-.339 1.886-1.292.164-.471.287-1.118.287-1.994 0-.876-.123-1.523-.287-1.994-.332-.953-1.235-1.263-1.886-1.292C43.214 2.144 38.188 2 24 2c-14.188 0-19.214.144-20.827.214-.651.029-1.554.339-1.886 1.292C1.123 3.977 1 4.624 1 5.5c0 .876.123 1.523.287 1.994.332.953 1.235 1.263 1.886 1.292ZM24 21c-14.188 0-19.214-.144-20.827-.214-.651-.029-1.554-.339-1.886-1.292C1.123 19.023 1 18.376 1 17.5c0-.876.123-1.523.287-1.994.332-.953 1.235-1.263 1.886-1.292C4.786 14.144 9.812 14 24 14c14.188 0 19.214.144 20.827.214.651.029 1.554.339 1.886 1.292.164.471.287 1.118.287 1.994 0 .876-.123 1.523-.287 1.994-.332.953-1.235 1.263-1.886 1.292-1.613.07-6.639.214-20.827.214ZM3.173 27.214C4.786 27.144 9.812 27 24 27c14.188 0 19.214.144 20.827.214.651.029 1.554.339 1.886 1.292.164.471.287 1.118.287 1.994 0 .876-.123 1.523-.287 1.994-.332.953-1.235 1.263-1.886 1.292-1.613.07-6.639.214-20.827.214-14.188 0-19.214-.144-20.827-.214-.651-.029-1.554-.339-1.886-1.292C1.123 32.023 1 31.376 1 30.5c0-.876.123-1.523.287-1.994.332-.953 1.235-1.263 1.886-1.292Zm-.015 11.974C4.564 39.113 7.998 39 16 39s11.436.113 12.842.188c.88.048 1.854.59 2.043 1.722.068.403.115.922.115 1.59a9.69 9.69 0 0 1-.115 1.59c-.19 1.132-1.162 1.674-2.043 1.722-1.406.075-4.84.188-12.842.188s-11.436-.113-12.842-.188c-.88-.048-1.854-.59-2.043-1.722A9.682 9.682 0 0 1 1 42.5c0-.668.047-1.187.115-1.59.19-1.132 1.162-1.674 2.043-1.722Z" clip-rule="evenodd"/></svg>