<svg xmlns="http://www.w3.org/2000/svg" fill="none" viewBox="0 0 48 48"><path fill="currentColor" d="M46.4834 14.5561C45.9254 32.2932 31.372 46.5 13.5 46.5C6.66694 46.5 1.5 41.1652 1.5 34.4311C1.5 32.591 2.62028 30.9363 4.32874 30.253L10.494 27.7869C12.5368 26.9697 14.87 27.4486 16.4257 29.0044L19.5022 32.0809C19.6382 32.2169 19.7909 32.233 19.8841 32.2047C25.7705 30.4171 30.4171 25.7705 32.2047 19.8841C32.233 19.7909 32.2169 19.6382 32.0809 19.5022L29.0044 16.4257C27.4487 14.87 26.9697 12.5368 27.7869 10.494L30.253 4.32874C30.9363 2.62028 32.591 1.5 34.4311 1.5C41.7956 1.5 46.5975 7.36143 46.4834 14.5561Z"></path></svg>