<svg xmlns="http://www.w3.org/2000/svg" fill="none" viewBox="0 0 48 48"><path fill="currentColor" d="M33.8278 41.5411L28.7181 35.838C29.0152 33.7036 29.2873 31.5656 29.546 29.4262L44.015 33.0434C45.2773 33.359 46.5001 32.4043 46.5001 31.1031V29.0288C46.5001 27.7644 45.818 26.5982 44.716 25.9783L30.7706 18.134C30.9575 16.182 31.1395 14.1394 31.308 12.0431C31.3108 12.0081 31.3099 11.973 31.3054 11.9382C30.6221 6.70718 27.9842 3.92532 26.1083 2.58368C24.8344 1.67263 23.1656 1.67263 21.8917 2.58368C20.0158 3.92532 17.3779 6.70718 16.6947 11.9382C16.6902 11.973 16.6893 12.0081 16.6921 12.0431C16.8606 14.1394 17.0426 16.182 17.2294 18.134L3.28409 25.9783C2.18202 26.5982 1.5 27.7644 1.5 29.0288V31.1031C1.5 32.4043 2.72278 33.359 3.98507 33.0434L18.454 29.4262C18.7128 31.5656 18.9848 33.7036 19.2819 35.838L14.1722 41.5411C13.4327 42.3665 13.0238 43.4357 13.0238 44.5439V45.571C13.0238 46.6227 14.0779 47.3479 15.0601 46.9719L24 43.5495L32.94 46.9719C33.9221 47.3479 34.9762 46.6227 34.9762 45.571V44.5439C34.9762 43.4357 34.5673 42.3665 33.8278 41.5411Z"></path></svg>