<svg xmlns="http://www.w3.org/2000/svg" fill="none" viewBox="0 0 48 48"><path fill="currentColor" fill-rule="evenodd" d="M46.0082 39.8551C46.2484 36.5877 46.5 31.3996 46.5 24C46.5 16.6004 46.2484 11.4123 46.0082 8.14493C45.7673 4.86847 43.2728 2.2918 39.9758 2.00976C36.9912 1.75444 32.4092 1.5 26 1.5C19.5909 1.5 15.0088 1.75443 12.0242 2.00974C8.72719 2.29179 6.23275 4.86846 5.99184 8.14492C5.96097 8.56473 5.92991 9.01625 5.89923 9.50009C5.37703 9.50107 4.89924 9.50964 4.47389 9.52215C2.90617 9.56827 1.56712 10.6023 1.51146 12.2771C1.50412 12.498 1.5 12.7385 1.5 13C1.5 13.2615 1.50412 13.5019 1.51146 13.7229C1.56712 15.3976 2.90616 16.4317 4.47389 16.4778C4.81514 16.4879 5.19016 16.4954 5.59477 16.4985C5.56183 17.7352 5.53588 19.0688 5.51953 20.5022C5.14358 20.5056 4.79389 20.5127 4.47389 20.5221C2.90617 20.5683 1.56712 21.6023 1.51146 23.2771C1.50412 23.498 1.5 23.7385 1.5 24C1.5 24.2615 1.50412 24.5019 1.51146 24.7229C1.56712 26.3976 2.90616 27.4317 4.47389 27.4778C4.79389 27.4873 5.14358 27.4944 5.51952 27.4978C5.53588 28.9312 5.56183 30.2648 5.59477 31.5015C5.19015 31.5046 4.81514 31.5121 4.47389 31.5221C2.90617 31.5683 1.56712 32.6023 1.51146 34.2771C1.50412 34.498 1.5 34.7385 1.5 35C1.5 35.2615 1.50412 35.5019 1.51146 35.7229C1.56712 37.3976 2.90616 38.4317 4.47389 38.4778C4.89923 38.4903 5.37703 38.4989 5.89922 38.4999C5.9299 38.9837 5.96096 39.4352 5.99182 39.8551C6.23274 43.1315 8.72717 45.7082 12.0242 45.9902C15.0088 46.2455 19.5908 46.5 26 46.5C32.4091 46.5 36.9912 46.2456 39.9758 45.9902C43.2728 45.7082 45.7673 43.1315 46.0082 39.8551ZM32.0008 20C32.0008 22.1338 30.8869 24.0075 29.2088 25.0713C32.051 26.113 34.2264 28.486 34.9382 31.4125C35.2499 32.6938 34.5001 33.9111 33.225 34.2474C31.8003 34.6233 29.4935 35 25.9701 35C22.4468 35 20.1399 34.6233 18.7152 34.2474C17.4402 33.9111 16.6904 32.6938 17.0021 31.4125C17.7171 28.4726 19.9092 26.0913 22.7705 25.0571C21.1048 23.9909 20.0008 22.1244 20.0008 20C20.0008 16.6863 22.6871 14 26.0008 14C29.3145 14 32.0008 16.6863 32.0008 20Z" clip-rule="evenodd"></path></svg>