<svg xmlns="http://www.w3.org/2000/svg" fill="none" viewBox="0 0 48 48"><path fill="currentColor" fill-rule="evenodd" d="M19.5 37.5c5.166 0 8.966-.172 11.56-.357 3.3-.236 5.847-2.782 6.083-6.084.185-2.593.357-6.393.357-11.559 0-5.166-.172-8.966-.357-11.56-.236-3.3-2.782-5.847-6.084-6.083C28.466 1.672 24.666 1.5 19.5 1.5c-5.166 0-8.966.172-11.56.357-3.3.236-5.847 2.782-6.083 6.084C1.672 10.534 1.5 14.334 1.5 19.5c0 5.166.172 8.966.357 11.56.236 3.3 2.782 5.847 6.084 6.083 2.593.185 6.393.357 11.559.357Zm-6.195-22.624c.239-1.731 1.765-2.71 3.39-2.067 1.054.416 2.446 1.047 4.246 2.004a50.31 50.31 0 0 1 4.08 2.397c1.766 1.164 1.766 3.416 0 4.58a50.31 50.31 0 0 1-4.08 2.398c-1.8.956-3.192 1.587-4.245 2.004-1.626.642-3.152-.337-3.391-2.068A33.939 33.939 0 0 1 13 19.5c0-1.854.138-3.415.305-4.624ZM19.5 40.5c-3.45 0-6.307-.076-8.62-.182.348 3.175 2.846 5.595 6.06 5.825 2.594.185 6.394.357 11.56.357s8.966-.172 11.56-.357c3.3-.236 5.847-2.782 6.083-6.084.185-2.593.357-6.393.357-11.559 0-5.166-.172-8.966-.357-11.56-.23-3.214-2.65-5.712-5.825-6.06.106 2.313.182 5.17.182 8.62 0 5.233-.174 9.104-.365 11.773-.342 4.79-4.072 8.52-8.862 8.862-2.669.19-6.54.365-11.773.365Z" clip-rule="evenodd"/></svg>