<svg xmlns="http://www.w3.org/2000/svg" fill="none" viewBox="0 0 48 48"><path fill="currentColor" fill-rule="evenodd" d="M1.5 19c0 2.948.058 5.438.142 7.5h34.716c.084-2.062.142-4.552.142-7.5 0-4.926-.161-8.571-.338-11.083-.231-3.303-2.776-5.848-6.079-6.08C27.571 1.662 23.926 1.5 19 1.5s-8.571.161-11.083.338c-3.303.231-5.848 2.776-6.08 6.079C1.662 10.429 1.5 14.074 1.5 19ZM19 36.5c-4.926 0-8.571-.161-11.083-.338-3.303-.231-5.848-2.776-6.08-6.079l-.039-.583h34.404c-.013.2-.026.395-.04.583-.231 3.303-2.776 5.848-6.079 6.08-2.512.176-6.157.337-11.083.337Zm23.14 2.834-7.008-1.878c2.284-1.597 3.814-4.173 4.023-7.162.182-2.587.345-6.302.345-11.293 0-2.306-.035-4.34-.09-6.116 1.169.368 2.183.704 3.052 1.004 3.13 1.078 4.93 4.195 4.298 7.445-.48 2.472-1.267 6.035-2.542 10.793a184.609 184.609 0 0 1-2.078 7.207Zm-29.974 1.973a6.585 6.585 0 0 1-2.972-2.057c2.46.14 5.702.25 9.806.25 4.785 0 8.398-.15 10.967-.322l11.245 3.013c-.064.191-.127.376-.189.554-1.079 3.13-4.195 4.93-7.445 4.299-2.472-.48-6.036-1.268-10.793-2.543-4.758-1.274-8.238-2.374-10.619-3.194Z" clip-rule="evenodd"/></svg>