<svg xmlns="http://www.w3.org/2000/svg" fill="none" viewBox="0 0 48 48"><path fill="currentColor" d="M32.0366 38.9516C34.6555 38.8705 37.2704 38.7496 39.8776 38.5891C40.3697 40.1747 40.9142 42.0753 41.3614 44.0057C41.5845 44.9684 41.0475 46.1296 39.861 46.3684C38.873 46.5672 37.8256 46.5032 37.1332 46.4236C35.9597 46.2886 35.0504 45.5243 34.5937 44.5782C33.6563 42.6362 32.7474 40.5954 32.0366 38.9516Z"></path><path fill="currentColor" d="M20.5302 39.0528C22.843 39.0837 25.157 39.0837 27.4698 39.0528C27.4196 41.1702 27.3202 43.3627 27.2745 44.3111C27.2365 45.1006 26.7455 46.1201 25.5819 46.362C24.5663 46.5731 23.4336 46.5731 22.418 46.362C21.2545 46.1201 20.7635 45.1006 20.7255 44.3112C20.6798 43.3628 20.5803 41.1702 20.5302 39.0528Z"></path><path fill="currentColor" d="M8.12235 38.5891C10.7296 38.7497 13.3445 38.8705 15.9634 38.9516C15.2526 40.5954 14.3437 42.6362 13.4063 44.5782C12.9496 45.5243 12.0403 46.2886 10.8668 46.4236C10.1744 46.5032 9.12703 46.5672 8.139 46.3684C6.95246 46.1296 6.41553 44.9684 6.63856 44.0057C7.08577 42.0753 7.63026 40.1747 8.12235 38.5891Z"></path><path fill="currentColor" d="M8.12464 1.91647C11.3836 1.71383 16.5773 1.50049 24 1.50049C31.4227 1.50049 36.6164 1.71383 39.8753 1.91646C43.1113 2.11766 45.7427 4.51853 46.0492 7.81724C46.0969 8.33036 46.1438 8.89102 46.1883 9.50049H1.81169C1.85617 8.89102 1.90308 8.33037 1.95076 7.81726C2.25729 4.51853 4.88871 2.11767 8.12464 1.91647Z"></path><path fill="currentColor" d="M1.63684 12.5005C1.55379 14.3554 1.5 16.5158 1.5 19.0005C1.5 23.9806 1.71608 27.6581 1.95077 30.1837C2.25729 33.4825 4.88872 35.8833 8.12465 36.0845C11.3836 36.2872 16.5773 36.5005 24 36.5005C31.4227 36.5005 36.6164 36.2871 39.8754 36.0845C43.1113 35.8833 45.7427 33.4825 46.0492 30.1837C46.2839 27.6581 46.5 23.9805 46.5 19.0005C46.5 16.5158 46.4462 14.3554 46.3632 12.5005H1.63684Z"></path></svg>