<svg xmlns="http://www.w3.org/2000/svg" fill="none" viewBox="0 0 48 48"><path fill="currentColor" fill-rule="evenodd" d="M7.17993 46.9135C10.5916 47.1968 16.0905 47.5 24 47.5C31.9094 47.5 37.4083 47.1968 40.8201 46.9135C44.1054 46.6407 46.6407 44.1054 46.9135 40.8201C47.1968 37.4084 47.5 31.9095 47.5 24C47.5 16.0905 47.1968 10.5916 46.9135 7.17993C46.6407 3.89457 44.1054 1.35928 40.8201 1.08648C37.4084 0.803195 31.9095 0.5 24 0.5C16.0906 0.499998 10.5917 0.803193 7.17994 1.08648C3.89458 1.35928 1.35928 3.89457 1.08649 7.17993C0.803197 10.5916 0.5 16.0905 0.5 24C0.5 31.9094 0.803195 37.4083 1.08648 40.8201C1.35928 44.1054 3.89457 46.6407 7.17993 46.9135ZM10.5 10.5C10.5 8.84315 11.8431 7.5 13.5 7.5C28.4117 7.5 40.5 19.5883 40.5 34.5C40.5 36.1569 39.1569 37.5 37.5 37.5C35.8431 37.5 34.5 36.1569 34.5 34.5C34.5 22.902 25.098 13.5 13.5 13.5C11.8431 13.5 10.5 12.1569 10.5 10.5ZM10.5 22.5C10.5 20.8431 11.8431 19.5 13.5 19.5C21.7843 19.5 28.5 26.2157 28.5 34.5C28.5 36.1569 27.1569 37.5 25.5 37.5C23.8431 37.5 22.5 36.1569 22.5 34.5C22.5 29.5294 18.4706 25.5 13.5 25.5C11.8431 25.5 10.5 24.1569 10.5 22.5ZM9.5 34.5C9.5 32.2909 11.2909 30.5 13.5 30.5C15.7091 30.5 17.5 32.2909 17.5 34.5C17.5 36.7091 15.7091 38.5 13.5 38.5C11.2909 38.5 9.5 36.7091 9.5 34.5Z" clip-rule="evenodd"></path></svg>