<svg xmlns="http://www.w3.org/2000/svg" fill="none" viewBox="0 0 48 48"><path fill="currentColor" fill-rule="evenodd" d="M2.04389 8.1357C1.96627 9.09104 1.88761 10.2101 1.81512 11.5H46.1849C46.1124 10.2101 46.0337 9.09104 45.9561 8.1357C45.689 4.84785 43.1521 2.31102 39.8643 2.04389C36.5927 1.77808 31.4014 1.5 24 1.5C16.5986 1.5 11.4073 1.77807 8.13571 2.04389C4.84785 2.31102 2.31102 4.84784 2.04389 8.1357ZM9 5.5C8.17157 5.5 7.5 6.17157 7.5 7C7.5 7.82843 8.17157 8.5 9 8.5H11C11.8284 8.5 12.5 7.82843 12.5 7C12.5 6.17157 11.8284 5.5 11 5.5H9ZM15.5 7C15.5 6.17157 16.1716 5.5 17 5.5H19C19.8284 5.5 20.5 6.17157 20.5 7C20.5 7.82843 19.8284 8.5 19 8.5H17C16.1716 8.5 15.5 7.82843 15.5 7Z" clip-rule="evenodd"></path><path fill="currentColor" fill-rule="evenodd" d="M24 46.5C16.5986 46.5 11.4073 46.2219 8.1357 45.9561C4.84785 45.689 2.31102 43.1521 2.04389 39.8643C1.77808 36.5927 1.5 31.4014 1.5 24C1.5 20.2903 1.56986 17.1358 1.67302 14.5H46.327C46.4301 17.1358 46.5 20.2903 46.5 24C46.5 31.4014 46.2219 36.5927 45.9561 39.8643C45.689 43.1522 43.1521 45.689 39.8643 45.9561C36.5927 46.2219 31.4014 46.5 24 46.5ZM15.5 19.5C13.4826 19.5 12.0511 19.6689 11.0555 19.8742C9.53982 20.1868 8.72395 21.5036 8.64644 22.9265C8.57158 24.3009 8.5 26.5235 8.5 30C8.5 33.4765 8.57158 35.6991 8.64644 37.0735C8.72395 38.4964 9.53982 39.8132 11.0555 40.1258C12.0511 40.3311 13.4826 40.5 15.5 40.5C17.5174 40.5 18.9489 40.3311 19.9445 40.1258C21.4602 39.8132 22.2761 38.4964 22.3536 37.0735C22.4284 35.6991 22.5 33.4765 22.5 30C22.5 26.5235 22.4284 24.3009 22.3536 22.9265C22.2761 21.5036 21.4602 20.1868 19.9445 19.8742C18.9489 19.6689 17.5174 19.5 15.5 19.5ZM33.5 19.5C31.9848 19.5 30.8681 19.5469 30.0583 19.6072C28.6484 19.7121 27.5964 20.7184 27.5287 22.1593C27.511 22.5353 27.5 22.9787 27.5 23.5C27.5 24.0213 27.511 24.4647 27.5287 24.8407C27.5964 26.2816 28.6484 27.2879 30.0583 27.3928C30.8681 27.4531 31.9848 27.5 33.5 27.5C35.0152 27.5 36.1319 27.4531 36.9417 27.3928C38.3516 27.2879 39.4036 26.2816 39.4713 24.8407C39.489 24.4647 39.5 24.0213 39.5 23.5C39.5 22.9787 39.489 22.5353 39.4713 22.1593C39.4036 20.7184 38.3516 19.7121 36.9417 19.6072C36.1319 19.5469 35.0152 19.5 33.5 19.5ZM30.0583 32.6072C30.8681 32.5469 31.9848 32.5 33.5 32.5C35.0152 32.5 36.1319 32.5469 36.9417 32.6072C38.3516 32.7121 39.4036 33.7184 39.4713 35.1593C39.489 35.5353 39.5 35.9787 39.5 36.5C39.5 37.0213 39.489 37.4647 39.4713 37.8407C39.4036 39.2816 38.3516 40.2879 36.9417 40.3928C36.1319 40.4531 35.0152 40.5 33.5 40.5C31.9848 40.5 30.8681 40.4531 30.0583 40.3928C28.6484 40.2879 27.5964 39.2816 27.5287 37.8407C27.511 37.4647 27.5 37.0213 27.5 36.5C27.5 35.9787 27.511 35.5353 27.5287 35.1593C27.5964 33.7184 28.6484 32.7121 30.0583 32.6072Z" clip-rule="evenodd"></path></svg>