<svg xmlns="http://www.w3.org/2000/svg" fill="none" viewBox="0 0 48 48"><path fill="currentColor" fill-rule="evenodd" d="M2.04389 8.1357C1.96627 9.09104 1.88761 10.2101 1.81512 11.5H46.1849C46.1124 10.2101 46.0337 9.09104 45.9561 8.1357C45.689 4.84785 43.1521 2.31102 39.8643 2.04389C36.5927 1.77808 31.4014 1.5 24 1.5C16.5986 1.5 11.4073 1.77807 8.13571 2.04389C4.84785 2.31102 2.31102 4.84784 2.04389 8.1357ZM9 5.5C8.17157 5.5 7.5 6.17157 7.5 7C7.5 7.82843 8.17157 8.5 9 8.5H11C11.8284 8.5 12.5 7.82843 12.5 7C12.5 6.17157 11.8284 5.5 11 5.5H9ZM15.5 7C15.5 6.17157 16.1716 5.5 17 5.5H19C19.8284 5.5 20.5 6.17157 20.5 7C20.5 7.82843 19.8284 8.5 19 8.5H17C16.1716 8.5 15.5 7.82843 15.5 7Z" clip-rule="evenodd"></path><path fill="currentColor" fill-rule="evenodd" d="M24 46.5C16.5986 46.5 11.4073 46.2219 8.1357 45.9561C4.84785 45.689 2.31102 43.1521 2.04389 39.8643C1.77808 36.5927 1.5 31.4014 1.5 24C1.5 20.2903 1.56986 17.1358 1.67302 14.5H46.327C46.4301 17.1358 46.5 20.2903 46.5 24C46.5 31.4014 46.2219 36.5927 45.9561 39.8643C45.689 43.1522 43.1521 45.689 39.8643 45.9561C36.5927 46.2219 31.4014 46.5 24 46.5ZM11.8746 20.7908C13.065 20.6283 14.725 20.5 17 20.5C19.275 20.5 20.935 20.6283 22.1254 20.7908C24.066 21.0556 25.2716 22.616 25.3757 24.4991C25.4447 25.7463 25.5 27.5196 25.5 30C25.5 32.4804 25.4447 34.2537 25.3757 35.5009C25.2716 37.384 24.066 38.9444 22.1254 39.2092C20.935 39.3717 19.275 39.5 17 39.5C14.725 39.5 13.065 39.3717 11.8746 39.2092C9.93399 38.9444 8.72836 37.384 8.62426 35.5009C8.55531 34.2537 8.5 32.4804 8.5 30C8.5 27.5196 8.55531 25.7463 8.62426 24.4991C8.72836 22.616 9.93399 21.0556 11.8746 20.7908ZM31 22C29.8954 22 29 22.8954 29 24C29 25.1046 29.8954 26 31 26H39C40.1046 26 41 25.1046 41 24C41 22.8954 40.1046 22 39 22H31ZM29 32C29 30.8954 29.8954 30 31 30H37C38.1046 30 39 30.8954 39 32C39 33.1046 38.1046 34 37 34H31C29.8954 34 29 33.1046 29 32Z" clip-rule="evenodd"></path></svg>