<svg xmlns="http://www.w3.org/2000/svg" fill="none" viewBox="0 0 48 48"><path fill="currentColor" fill-rule="evenodd" d="M2.04389 8.1357C1.96627 9.09104 1.88761 10.2101 1.81512 11.5H46.1849C46.1124 10.2101 46.0337 9.09104 45.9561 8.1357C45.689 4.84785 43.1521 2.31102 39.8643 2.04389C36.5927 1.77808 31.4014 1.5 24 1.5C16.5986 1.5 11.4073 1.77807 8.13571 2.04389C4.84785 2.31102 2.31102 4.84784 2.04389 8.1357ZM9 5.5C8.17157 5.5 7.5 6.17157 7.5 7C7.5 7.82843 8.17157 8.5 9 8.5H11C11.8284 8.5 12.5 7.82843 12.5 7C12.5 6.17157 11.8284 5.5 11 5.5H9ZM15.5 7C15.5 6.17157 16.1716 5.5 17 5.5H19C19.8284 5.5 20.5 6.17157 20.5 7C20.5 7.82843 19.8284 8.5 19 8.5H17C16.1716 8.5 15.5 7.82843 15.5 7Z" clip-rule="evenodd"></path><path fill="currentColor" fill-rule="evenodd" d="M24 46.5C16.5986 46.5 11.4073 46.2219 8.1357 45.9561C4.84785 45.689 2.31102 43.1521 2.04389 39.8643C1.77808 36.5927 1.5 31.4014 1.5 24C1.5 20.2903 1.56986 17.1358 1.67302 14.5H46.327C46.4301 17.1358 46.5 20.2903 46.5 24C46.5 31.4014 46.2219 36.5927 45.9561 39.8643C45.689 43.1522 43.1521 45.689 39.8643 45.9561C36.5927 46.2219 31.4014 46.5 24 46.5ZM13.2804 27.7867C14.1846 27.0331 15.1303 26.3213 16.1081 25.6652C17.0145 25.0589 17.2701 23.7997 16.6641 22.8908C16.0514 21.9718 14.8097 21.7234 13.8906 22.3361C12.7926 23.0686 11.7332 23.8692 10.7196 24.7138C9.934 25.3685 9.08697 26.1381 8.41899 26.9174C7.67985 27.7797 7 28.8233 7 30.0002C7 31.1772 7.67985 32.2207 8.41899 33.083C9.08697 33.8624 9.934 34.632 10.7196 35.2867C11.7333 36.1314 12.793 36.9309 13.8906 37.6643C14.8097 38.277 16.0514 38.0287 16.6641 37.1096C17.2767 36.1907 17.0282 34.9489 16.1094 34.3361C15.1306 33.6809 14.1849 32.9675 13.2804 32.2138L13.2237 32.1666C12.4575 31.5283 11.6363 30.8442 11.0891 30.0002C11.6363 29.1562 12.4574 28.4722 13.2237 27.8339L13.2804 27.7867ZM31.8919 25.6652C32.8697 26.3213 33.8154 27.0331 34.7196 27.7867L34.7763 27.8339C35.5425 28.4722 36.3637 29.1562 36.9109 30.0002C36.3637 30.8442 35.5426 31.5282 34.7763 32.1665L34.7196 32.2138C33.8151 32.9675 32.8694 33.6809 31.8906 34.3361C30.9718 34.9489 30.7233 36.1907 31.3359 37.1096C31.9486 38.0287 33.1903 38.277 34.1094 37.6643C35.207 36.9309 36.2667 36.1314 37.2804 35.2867C38.066 34.632 38.913 33.8624 39.581 33.083C40.3202 32.2207 41 31.1772 41 30.0002C41 28.8233 40.3202 27.7797 39.581 26.9174C38.913 26.1381 38.066 25.3685 37.2804 24.7138C36.2668 23.8692 35.2074 23.0686 34.1094 22.3361C33.1903 21.7234 31.9486 21.9718 31.3359 22.8908C30.7299 23.7997 30.9855 25.0589 31.8919 25.6652ZM27.9226 23.549C28.226 22.4869 27.611 21.3799 26.549 21.0765C25.4869 20.773 24.3799 21.388 24.0765 22.4501L20.0765 36.4501C19.773 37.5122 20.388 38.6191 21.4501 38.9226C22.5122 39.226 23.6191 38.611 23.9226 37.549L27.9226 23.549Z" clip-rule="evenodd"></path></svg>