<svg xmlns="http://www.w3.org/2000/svg" fill="none" viewBox="0 0 48 48"><path fill="currentColor" fill-rule="evenodd" d="M25.0001 1.5C21.2566 1.5 18.1315 1.53644 15.716 1.58072C11.6852 1.65461 8.45058 4.97374 8.7066 9.07051C8.89788 12.1312 9.19691 15.4065 9.51661 18.9081C9.90183 23.1273 10.3171 27.6755 10.61 32.5732C11.8231 32.528 13.2717 32.5 15 32.5C19.1215 32.5 22.5505 32.7319 25.012 32.9748C28.4269 33.3117 29.9159 36.3257 30.5875 38.7468C30.8327 39.6306 31.3037 40.2798 32.3638 40.5448C33.0987 40.7285 33.5813 41.4314 33.4888 42.1833C33.3962 42.9352 32.7576 43.5 32 43.5C30.7703 43.5 29.5947 43.1359 28.765 42.5243C27.9677 41.9366 27.5 41.141 27.5 40.122C27.5 38.0469 25.9912 36.2166 23.8347 35.9936C21.6471 35.7675 18.0026 35.5 13 35.5C7.99196 35.5 5.32069 35.7678 3.91831 36.0097C2.32774 36.2841 1.5 37.6657 1.5 38.9944V40.122C1.5 42.2248 2.53225 43.8683 3.98493 44.9391C5.40524 45.9861 7.22958 46.5 9 46.5H32C32.1012 46.5 32.2 46.49 32.2955 46.4709C36.2915 46.1199 39.3637 42.6409 39.0597 38.5385C38.6242 32.6595 37.8625 23.4146 36.7743 13.9005C36.6271 11.6475 36.9842 9.86852 37.6054 8.47825C38.3085 6.9046 39.31 5.91819 40.1248 5.33325C40.7977 4.85012 41.7349 5.00402 42.2181 5.67698C42.7012 6.34994 42.5473 7.28714 41.8743 7.77027C41.4156 8.09957 40.796 8.69142 40.3444 9.70207C39.9078 10.6792 39.5907 12.1318 39.8153 14.2577C41.1013 14.1571 42.1474 14.0369 42.9719 13.921C45.125 13.6184 46.5 11.7579 46.5 9.74626V9.09756C46.5 4.25562 42.714 1.50244 39.005 1.50001L39 1.5H25.0001ZM15.5 10.5C14.6716 10.5 14 11.1716 14 12C14 12.8284 14.6716 13.5 15.5 13.5L29.5 13.5C30.3284 13.5 31 12.8284 31 12C31 11.1716 30.3284 10.5 29.5 10.5L15.5 10.5ZM14.5 19C14.5 18.1716 15.1716 17.5 16 17.5L30 17.5C30.8284 17.5 31.5 18.1716 31.5 19C31.5 19.8284 30.8284 20.5 30 20.5L16 20.5C15.1716 20.5 14.5 19.8284 14.5 19ZM16.5 24.5C15.6716 24.5 15 25.1716 15 26C15 26.8284 15.6716 27.5 16.5 27.5L30.5 27.5C31.3284 27.5 32 26.8284 32 26C32 25.1716 31.3284 24.5 30.5 24.5L16.5 24.5Z" clip-rule="evenodd"></path></svg>