<svg xmlns="http://www.w3.org/2000/svg" fill="none" viewBox="0 0 48 48"><path fill="currentColor" fill-rule="evenodd" d="M2.04389 8.1357C1.96627 9.09104 1.88761 10.2101 1.81512 11.5H46.1849C46.1124 10.2101 46.0337 9.09104 45.9561 8.1357C45.689 4.84785 43.1521 2.31102 39.8643 2.04389C36.5927 1.77808 31.4014 1.5 24 1.5C16.5986 1.5 11.4073 1.77807 8.13571 2.04389C4.84785 2.31102 2.31102 4.84784 2.04389 8.1357ZM9 5.5C8.17157 5.5 7.5 6.17157 7.5 7C7.5 7.82843 8.17157 8.5 9 8.5H11C11.8284 8.5 12.5 7.82843 12.5 7C12.5 6.17157 11.8284 5.5 11 5.5H9ZM15.5 7C15.5 6.17157 16.1716 5.5 17 5.5H19C19.8284 5.5 20.5 6.17157 20.5 7C20.5 7.82843 19.8284 8.5 19 8.5H17C16.1716 8.5 15.5 7.82843 15.5 7Z" clip-rule="evenodd"></path><path fill="currentColor" fill-rule="evenodd" d="M24 46.5C16.5986 46.5 11.4073 46.2219 8.1357 45.9561C4.84785 45.689 2.31102 43.1521 2.04389 39.8643C1.77808 36.5927 1.5 31.4014 1.5 24C1.5 20.2903 1.56986 17.1358 1.67302 14.5H46.327C46.4301 17.1358 46.5 20.2903 46.5 24C46.5 31.4014 46.2219 36.5927 45.9561 39.8643C45.689 43.1522 43.1521 45.689 39.8643 45.9561C36.5927 46.2219 31.4014 46.5 24 46.5ZM32 31C33.1046 31 34 30.1046 34 29C34 27.8954 33.1046 27 32 27H16C14.8954 27 14 27.8954 14 29C14 30.1046 14.8954 31 16 31H32Z" clip-rule="evenodd"></path></svg>