<svg xmlns="http://www.w3.org/2000/svg" fill="none" viewBox="0 0 48 48"><path fill="currentColor" d="M9.7929 23.2397L9.17213 24.0081L9.79256 24.7743C10.3522 25.4656 11.1562 26.459 12.1333 27.6675C14.0875 30.0845 16.7343 33.3618 19.505 36.8032C20.1237 37.5716 20.6076 38.6958 20.1094 39.7818C19.821 40.4105 19.3203 41.124 18.4592 41.7117C17.3701 42.4549 16.0127 42.09 15.1432 41.3244C9.85967 36.6722 4.68395 29.9537 2.17373 26.5194C1.07467 25.0158 1.07499 23.0013 2.17417 21.4978C4.68448 18.0642 9.8595 11.346 15.1421 6.67981C16.0119 5.91152 17.3722 5.54407 18.463 6.28985C19.3223 6.8774 19.822 7.5902 20.1098 8.21836C20.6072 9.30401 20.1233 10.4275 19.5052 11.1955C16.7345 14.6377 14.0877 17.9195 12.1335 20.3408C11.1565 21.5514 10.3526 22.5469 9.7929 23.2397Z"></path><path fill="currentColor" d="M38.2074 23.2397L38.8282 24.0081L38.2077 24.7743C37.648 25.4656 36.8441 26.459 35.867 27.6675C33.9128 30.0845 31.2659 33.3618 28.4953 36.8032C27.8766 37.5716 27.3927 38.6958 27.8908 39.7818C28.1793 40.4105 28.68 41.124 29.5411 41.7117C30.6302 42.4549 31.9876 42.09 32.8571 41.3244C38.1406 36.6722 43.3163 29.9537 45.8266 26.5194C46.9256 25.0158 46.9253 23.0013 45.8261 21.4978C43.3158 18.0642 38.1408 11.346 32.8582 6.67981C31.9884 5.91152 30.6281 5.54407 29.5373 6.28985C28.6779 6.8774 28.1783 7.5902 27.8905 8.21836C27.3931 9.30401 27.877 10.4275 28.4951 11.1955C31.2658 14.6377 33.9126 17.9195 35.8667 20.3408C36.8438 21.5514 37.6477 22.5469 38.2074 23.2397Z"></path></svg>