<svg xmlns="http://www.w3.org/2000/svg" fill="none" viewBox="0 0 48 48"><path fill="currentColor" fill-rule="evenodd" d="M1.81512 11.5C1.88761 10.2101 1.96627 9.09104 2.04389 8.1357C2.31102 4.84784 4.84785 2.31102 8.13571 2.04389C11.4073 1.77807 16.5986 1.5 24 1.5C31.4014 1.5 36.5927 1.77808 39.8643 2.04389C43.1521 2.31102 45.689 4.84785 45.9561 8.1357C46.0337 9.09104 46.1124 10.2101 46.1849 11.5H1.81512ZM7.5 7C7.5 6.17157 8.17157 5.5 9 5.5H11C11.8284 5.5 12.5 6.17157 12.5 7C12.5 7.82843 11.8284 8.5 11 8.5H9C8.17157 8.5 7.5 7.82843 7.5 7ZM17 5.5C16.1716 5.5 15.5 6.17157 15.5 7C15.5 7.82843 16.1716 8.5 17 8.5H19C19.8284 8.5 20.5 7.82843 20.5 7C20.5 6.17157 19.8284 5.5 19 5.5H17Z" clip-rule="evenodd"></path><path fill="currentColor" fill-rule="evenodd" d="M8.1357 45.9561C11.4073 46.2219 16.5986 46.5 24 46.5C31.4014 46.5 36.5927 46.2219 39.8643 45.9561C43.1521 45.689 45.689 43.1522 45.9561 39.8643C46.2219 36.5927 46.5 31.4014 46.5 24C46.5 20.2903 46.4301 17.1358 46.327 14.5H1.67302C1.56986 17.1358 1.5 20.2903 1.5 24C1.5 31.4014 1.77808 36.5927 2.04389 39.8643C2.31102 43.1521 4.84785 45.689 8.1357 45.9561ZM25.3317 20.9812C24.772 19.9021 23.2283 19.9021 22.6686 20.9812L20.3916 25.3712L15.6315 26.3085C14.4891 26.5334 14.0274 27.9174 14.8058 28.7832L18.176 32.5313L17.5518 37.5893C17.4053 38.7768 18.6398 39.6495 19.7104 39.1152L24.0002 36.9741L28.2899 39.1152C29.3605 39.6495 30.595 38.7768 30.4485 37.5893L29.8243 32.5313L33.1945 28.7832C33.9729 27.9174 33.5112 26.5334 32.3688 26.3085L27.6087 25.3712L25.3317 20.9812Z" clip-rule="evenodd"></path></svg>