<svg xmlns="http://www.w3.org/2000/svg" fill="none" viewBox="0 0 48 48"><path fill="currentColor" d="M8 17.5C4.41015 17.5 1.5 20.4101 1.5 24C1.5 27.5899 4.41015 30.5 8 30.5C10.892 30.5 13.3429 28.6113 14.1865 26L17.8135 26C18.6571 28.6113 21.108 30.5 24 30.5C26.892 30.5 29.3429 28.6113 30.1865 26L33.8135 26C34.6571 28.6113 37.108 30.5 40 30.5C43.5899 30.5 46.5 27.5899 46.5 24C46.5 20.4101 43.5899 17.5 40 17.5C37.108 17.5 34.6571 19.3887 33.8135 22L30.1865 22C29.3429 19.3887 26.892 17.5 24 17.5C21.108 17.5 18.6571 19.3887 17.8135 22L14.1865 22C13.3429 19.3887 10.892 17.5 8 17.5Z"></path></svg>