<svg xmlns="http://www.w3.org/2000/svg" fill="none" viewBox="0 0 48 48"><path fill="currentColor" d="M22.5 46.4078C19.885 46.1089 16.7242 45.1242 13.833 44.048C10.2998 42.7329 6.93912 41.1906 5.01302 40.2693C3.5297 39.5597 2.43996 38.1806 2.20291 36.4859C1.89899 34.3132 1.5 30.2675 1.5 24C1.5 19.0583 1.74804 15.4979 2.00195 13.1477C2.38239 13.3291 2.8191 13.5362 3.30239 13.7635C5.1042 14.6112 7.55784 15.7427 10.1601 16.8754C12.7584 18.0063 15.5241 19.1467 17.945 20.0071C19.1548 20.4371 20.2974 20.804 21.3011 21.065C21.7099 21.1713 22.1128 21.2647 22.5 21.3375L22.5 46.4078Z"></path><path fill="currentColor" d="M25.5 46.4078C28.115 46.1089 31.2758 45.1242 34.167 44.048C37.7002 42.7329 41.0609 41.1906 42.987 40.2693C44.4703 39.5597 45.56 38.1806 45.7971 36.4859C46.101 34.3132 46.5 30.2675 46.5 24C46.5 19.0585 46.252 15.4981 45.9981 13.1479C45.6178 13.3293 45.1812 13.5363 44.6982 13.7635C42.8963 14.6112 40.4427 15.7427 37.8404 16.8754C35.2421 18.0063 32.4764 19.1467 30.0556 20.0071C28.8457 20.4371 27.7032 20.804 26.6994 21.065C26.2904 21.1714 25.8873 21.2648 25.5 21.3376L25.5 46.4078Z"></path><path fill="currentColor" d="M5.01303 7.73074C3.96361 8.23274 3.11119 9.06988 2.61834 10.1168C3.1137 10.3548 3.7823 10.6739 4.57951 11.049C6.36456 11.8888 8.79017 13.0073 11.3574 14.1246C13.9285 15.2437 16.6226 16.3533 18.9497 17.1804C20.1138 17.5941 21.1672 17.9304 22.0561 18.1616C22.9706 18.3993 23.6157 18.5 24.0003 18.5C24.3848 18.5 25.03 18.3993 25.9444 18.1616C26.8334 17.9304 27.8868 17.5941 29.0509 17.1804C31.3779 16.3533 34.072 15.2437 36.6432 14.1246C39.2104 13.0073 41.636 11.8888 43.421 11.049C44.218 10.674 44.8864 10.355 45.3818 10.117C44.8889 9.06999 44.0365 8.23277 42.987 7.73074C41.0609 6.80938 37.7002 5.26714 34.167 3.95202C30.6963 2.66012 26.8371 1.5 24 1.5C21.1629 1.5 17.3037 2.66012 13.833 3.95201C10.2998 5.26714 6.93912 6.80937 5.01303 7.73074Z"></path></svg>