<svg xmlns="http://www.w3.org/2000/svg" fill="none" viewBox="0 0 48 48"><path fill="currentColor" fill-rule="evenodd" d="M2.04389 8.1357C1.96627 9.09104 1.88761 10.2101 1.81512 11.5H46.1849C46.1124 10.2101 46.0337 9.09104 45.9561 8.1357C45.689 4.84785 43.1521 2.31102 39.8643 2.04389C36.5927 1.77808 31.4014 1.5 24 1.5C16.5986 1.5 11.4073 1.77807 8.13571 2.04389C4.84785 2.31102 2.31102 4.84784 2.04389 8.1357ZM9 5.5C8.17157 5.5 7.5 6.17157 7.5 7C7.5 7.82843 8.17157 8.5 9 8.5H11C11.8284 8.5 12.5 7.82843 12.5 7C12.5 6.17157 11.8284 5.5 11 5.5H9ZM15.5 7C15.5 6.17157 16.1716 5.5 17 5.5H19C19.8284 5.5 20.5 6.17157 20.5 7C20.5 7.82843 19.8284 8.5 19 8.5H17C16.1716 8.5 15.5 7.82843 15.5 7Z" clip-rule="evenodd"></path><path fill="currentColor" d="M35 29.5C35 30.3284 34.3284 31 33.5 31H31.5C30.6716 31 30 30.3284 30 29.5C30 28.6716 30.6716 28 31.5 28H33.5C34.3284 28 35 28.6716 35 29.5Z"></path><path fill="currentColor" fill-rule="evenodd" d="M24 46.5C16.5986 46.5 11.4073 46.2219 8.1357 45.9561C4.84785 45.689 2.31102 43.1521 2.04389 39.8643C1.77808 36.5927 1.5 31.4014 1.5 24C1.5 20.2903 1.56986 17.1358 1.67302 14.5H46.327C46.4301 17.1358 46.5 20.2903 46.5 24C46.5 31.4014 46.2219 36.5927 45.9561 39.8643C45.689 43.1522 43.1521 45.689 39.8643 45.9561C36.5927 46.2219 31.4014 46.5 24 46.5ZM32.5 36C36.0899 36 39 33.0899 39 29.5C39 25.9101 36.0899 23 32.5 23C29.608 23 27.1571 24.8887 26.3135 27.5L11 27.5C9.89543 27.5 9 28.3954 9 29.5V35.5C9 36.6046 9.89543 37.5 11 37.5C12.1046 37.5 13 36.6046 13 35.5V31.5H16.25V35.5C16.25 36.6046 17.1454 37.5 18.25 37.5C19.3546 37.5 20.25 36.6046 20.25 35.5V31.5H26.3135C27.1571 34.1113 29.608 36 32.5 36Z" clip-rule="evenodd"></path></svg>