<svg xmlns="http://www.w3.org/2000/svg" fill="none" viewBox="0 0 48 48"><path fill="currentColor" fill-rule="evenodd" d="M24 1.5c-7.423 0-12.616.213-15.875.416-3.236.201-5.868 2.602-6.174 5.9A85.337 85.337 0 0 0 1.81 9.5h44.377a85.32 85.32 0 0 0-.139-1.683c-.306-3.299-2.938-5.7-6.174-5.901C36.616 1.713 31.423 1.5 24 1.5ZM1.5 19c0-2.485.054-4.645.137-6.5h44.726c.083 1.855.137 4.015.137 6.5 0 4.98-.216 8.658-.45 11.183-.307 3.299-2.939 5.7-6.175 5.901-3.259.203-8.452.416-15.875.416s-12.616-.213-15.875-.416c-3.236-.201-5.868-2.602-6.174-5.9C1.716 27.657 1.5 23.98 1.5 19Zm30.537 19.951a257.52 257.52 0 0 0 7.84-.362 78.09 78.09 0 0 1 1.484 5.416c.224.963-.313 2.124-1.5 2.363-.988.199-2.035.135-2.728.055-1.173-.135-2.083-.899-2.54-1.845a153.194 153.194 0 0 1-2.556-5.627Zm-11.507.102c2.313.03 4.627.03 6.94 0-.05 2.117-.15 4.31-.195 5.258-.038.79-.53 1.809-1.693 2.05a7.979 7.979 0 0 1-3.164 0c-1.163-.241-1.654-1.26-1.692-2.05-.046-.948-.146-3.141-.196-5.258Zm-4.567-.102a257.531 257.531 0 0 1-7.84-.362 78.1 78.1 0 0 0-1.484 5.416c-.223.963.313 2.124 1.5 2.363.988.199 2.035.135 2.728.055 1.173-.135 2.083-.899 2.54-1.845a153.194 153.194 0 0 0 2.556-5.627Z" clip-rule="evenodd"/></svg>