<svg xmlns="http://www.w3.org/2000/svg" fill="none" viewBox="0 0 48 48"><path fill="currentColor" fill-rule="evenodd" d="M24.0191 1.5C19.322 1.5 15.5116 5.30408 15.5116 10C15.5116 10.6153 15.5773 11.2162 15.7021 11.7956C13.1433 11.9644 10.2974 12.1898 9.09874 12.4183C6.68762 12.878 5.11767 14.8224 4.90397 17.1484C4.70267 19.3394 4.5 23.0261 4.5 29C4.5 34.9739 4.70267 38.6606 4.90397 40.8516C5.11767 43.1776 6.68763 45.122 9.09875 45.5817C11.4846 46.0365 17.5237 46.5 24.0191 46.5C30.5144 46.5 36.5535 46.0365 38.9394 45.5817C41.3505 45.122 42.9204 43.1776 43.1341 40.8516C43.2364 39.739 43.3388 38.2424 43.4149 36.2588C43.4647 34.9616 42.63 34.0602 41.8311 33.6117C41.0345 33.1647 39.9847 32.9794 39.0107 33.2792C38.5455 33.4224 38.0499 33.5 37.5333 33.5C34.7666 33.5 32.5265 31.2599 32.5265 28.5C32.5265 25.7401 34.7666 23.5 37.5333 23.5C38.0402 23.5 38.527 23.5748 38.9844 23.7128C39.9605 24.0073 41.01 23.8161 41.8043 23.3641C42.6011 22.9107 43.4317 22.0026 43.3708 20.7033C43.3014 19.2244 43.2177 18.0582 43.1341 17.1484C42.9204 14.8224 41.3505 12.878 38.9394 12.4183C37.7407 12.1898 34.8948 11.9644 32.336 11.7956C32.4608 11.2162 32.5265 10.6153 32.5265 10C32.5265 5.30408 28.7161 1.5 24.0191 1.5Z" clip-rule="evenodd"></path></svg>