<svg xmlns="http://www.w3.org/2000/svg" fill="none" viewBox="0 0 48 48"><path fill="currentColor" d="M22.5 1.50391C15.8916 1.53833 11.1817 1.79644 8.13574 2.04392C4.84789 2.31105 2.31106 4.84788 2.04392 8.13573C1.79645 11.1817 1.53833 15.8916 1.50391 22.5H6.50376C7.82223 22.5 8.61622 23.4874 8.96098 24.1995C9.3212 24.9436 9.49752 25.9547 9.1855 26.8716C9.06567 27.2237 9.00003 27.6027 9.00003 28C9.00003 29.933 10.567 31.5 12.5 31.5C14.433 31.5 16 29.933 16 28C16 27.6027 15.9344 27.2237 15.8146 26.8716C15.5025 25.9547 15.6789 24.9436 16.0391 24.1995C16.3838 23.4874 17.1778 22.5 18.4963 22.5H22.5V18.7443L22.4932 18.741C22.4067 18.6991 22.3033 18.6695 22.2078 18.6592C22.1372 18.6516 22.0986 18.6572 22.09 18.6584L22.0881 18.6587C21.4308 18.8815 20.7279 19.0018 20 19.0018C16.4102 19.0018 13.5 16.0916 13.5 12.5018C13.5 8.9119 16.4102 6.00175 20 6.00175C20.7279 6.00175 21.4308 6.12198 22.0881 6.34485L22.0899 6.34508C22.0986 6.34633 22.1372 6.35194 22.2078 6.34433C22.3033 6.33403 22.4067 6.30443 22.4932 6.26251L22.5 6.25919V1.50391Z"></path><path fill="currentColor" d="M1.50391 25.5C1.53833 32.1084 1.79644 36.8184 2.04392 39.8643C2.31105 43.1522 4.84788 45.689 8.13573 45.9561C11.1817 46.2036 15.8916 46.4617 22.5 46.4962V41.4946C22.5 40.1761 23.4874 39.3821 24.1995 39.0374C24.9436 38.6772 25.9547 38.5008 26.8716 38.8129C27.2237 38.9327 27.6026 38.9983 28 38.9983C29.933 38.9983 31.5 37.4313 31.5 35.4983C31.5 33.5653 29.933 31.9983 28 31.9983C27.6027 31.9983 27.2237 32.064 26.8716 32.1838C25.9547 32.4958 24.9436 32.3195 24.1995 31.9593C23.4874 31.6145 22.5 30.8205 22.5 29.502V25.5H18.7426L18.7393 25.5068C18.6974 25.5934 18.6677 25.6968 18.6574 25.7923C18.6498 25.8629 18.6554 25.9015 18.6567 25.9101L18.6569 25.9119C18.8798 26.5692 19 27.2721 19 28C19 31.5899 16.0899 34.5 12.5 34.5C8.91018 34.5 6.00003 31.5899 6.00003 28C6.00003 27.2721 6.12026 26.5692 6.34313 25.9119L6.34336 25.9101C6.34461 25.9015 6.35022 25.8629 6.34261 25.7923C6.33231 25.6968 6.30271 25.5934 6.26079 25.5068L6.25747 25.5H1.50391Z"></path><path fill="currentColor" d="M25.5 46.4962C32.1084 46.4617 36.8183 46.2036 39.8643 45.9561C43.1522 45.689 45.689 43.1522 45.9561 39.8643C46.2036 36.8184 46.4617 32.1084 46.4962 25.5H41.4963C40.1778 25.5 39.3838 24.5126 39.0391 23.8005C38.6789 23.0565 38.5025 22.0453 38.8146 21.1285C38.9344 20.7764 39 20.3974 39 20C39 18.067 37.433 16.5 35.5 16.5C33.567 16.5 32 18.067 32 20C32 20.3974 32.0657 20.7764 32.1855 21.1285C32.4975 22.0453 32.3212 23.0565 31.961 23.8005C31.6162 24.5126 30.8222 25.5 29.5038 25.5H25.5V29.2558L25.5068 29.2591C25.5934 29.301 25.6968 29.3306 25.7923 29.3409C25.8629 29.3485 25.9015 29.3429 25.9101 29.3416L25.9119 29.3414C26.5692 29.1185 27.2721 28.9983 28 28.9983C31.5899 28.9983 34.5 31.9085 34.5 35.4983C34.5 39.0882 31.5899 41.9983 28 41.9983C27.2721 41.9983 26.5692 41.8781 25.9119 41.6552L25.9101 41.655C25.9015 41.6537 25.8629 41.6481 25.7923 41.6557C25.6968 41.666 25.5934 41.6956 25.5068 41.7376L25.5 41.7409V46.4962Z"></path><path fill="currentColor" d="M46.4962 22.5H41.7426L41.7393 22.4933C41.6974 22.4067 41.6678 22.3033 41.6575 22.2078C41.6498 22.1372 41.6555 22.0986 41.6567 22.0899L41.6569 22.0881C41.8798 21.4308 42 20.7279 42 20C42 16.4102 39.0899 13.5 35.5 13.5C31.9102 13.5 29 16.4102 29 20C29 20.7279 29.1203 21.4309 29.3431 22.0882L29.3434 22.0899C29.3446 22.0986 29.3502 22.1372 29.3426 22.2078C29.3323 22.3033 29.3027 22.4067 29.2608 22.4933L29.2575 22.5H25.5V18.498C25.5 17.1796 24.5126 16.3856 23.8005 16.0408C23.0565 15.6806 22.0453 15.5043 21.1285 15.8163C20.7764 15.9361 20.3974 16.0018 20 16.0018C18.067 16.0018 16.5 14.4347 16.5 12.5018C16.5 10.5688 18.067 9.00175 20 9.00175C20.3974 9.00175 20.7764 9.06739 21.1285 9.18722C22.0453 9.49924 23.0565 9.32292 23.8005 8.9627C24.5126 8.61794 25.5 7.82395 25.5 6.50548V1.50391C32.1084 1.53833 36.8184 1.79644 39.8643 2.04393C43.1522 2.31105 45.689 4.84788 45.9561 8.13573C46.2036 11.1817 46.4617 15.8916 46.4962 22.5Z"></path></svg>