<svg xmlns="http://www.w3.org/2000/svg" fill="none" viewBox="0 0 48 48"><path fill="currentColor" fill-rule="evenodd" d="M19.4107 4.01284C21.1594 0.66239 25.8412 0.662386 27.59 4.01284L32.3806 13.1911L42.227 15.1178C45.877 15.832 47.1924 20.3448 44.7577 23.0356L37.8305 30.6914L39.1269 41.1303C39.5777 44.7606 35.9265 47.7166 32.5055 46.0198L23.5003 41.5533L14.4952 46.0198C11.0742 47.7166 7.4229 44.7606 7.87374 41.1303L9.1701 30.6914L2.24295 23.0356C-0.191782 20.3448 1.12366 15.832 4.77361 15.1178L14.6201 13.1911L19.4107 4.01284ZM27.75 21.75H21.6491L21.2306 24.2612C21.8063 24.1433 22.3943 24.0833 22.9858 24.0833H24.8333C27.7328 24.0833 30.0833 26.4338 30.0833 29.3333V30.5C30.0833 33.3995 27.7328 35.75 24.8333 35.75H22.5C20.2114 35.75 18.2691 34.2866 17.5492 32.2498C17.2271 31.3386 17.7047 30.3388 18.616 30.0167C19.5272 29.6946 20.527 30.1722 20.8491 31.0835C21.0902 31.7655 21.7408 32.25 22.5 32.25H24.8333C25.7998 32.25 26.5833 31.4665 26.5833 30.5V29.3333C26.5833 28.3668 25.7998 27.5833 24.8333 27.5833H22.9858C22.1708 27.5833 21.3669 27.7731 20.6379 28.1376L19.7826 28.5652C19.1939 28.8596 18.4898 28.7987 17.9603 28.4077C17.4309 28.0166 17.1656 27.3616 17.2738 26.7123L18.4405 19.7123C18.5811 18.8685 19.3112 18.25 20.1667 18.25H27.75C28.7165 18.25 29.5 19.0335 29.5 20C29.5 20.9665 28.7165 21.75 27.75 21.75Z" clip-rule="evenodd"></path></svg>