<svg xmlns="http://www.w3.org/2000/svg" fill="none" viewBox="0 0 48 48"><path fill="currentColor" fill-rule="evenodd" d="M19.4107 4.01284C21.1594 0.66239 25.8412 0.662386 27.59 4.01284L32.3806 13.1911L42.227 15.1178C45.877 15.832 47.1924 20.3448 44.7577 23.0356L37.8305 30.6914L39.1269 41.1303C39.5777 44.7606 35.9265 47.7166 32.5055 46.0198L23.5003 41.5533L14.4952 46.0198C11.0742 47.7166 7.4229 44.7606 7.87374 41.1303L9.1701 30.6914L2.24295 23.0356C-0.191782 20.3448 1.12366 15.832 4.77361 15.1178L14.6201 13.1911L19.4107 4.01284ZM25.4167 18C25.4167 17.0335 24.6332 16.25 23.6667 16.25C22.7002 16.25 21.9167 17.0335 21.9167 18C21.9167 18.9665 21.1332 19.75 20.1667 19.75H19C18.0335 19.75 17.25 20.5335 17.25 21.5C17.25 22.4665 18.0335 23.25 19 23.25H20.1667C20.7803 23.25 21.3693 23.1447 21.9167 22.9513V30.25H19C18.0335 30.25 17.25 31.0335 17.25 32C17.25 32.9665 18.0335 33.75 19 33.75H28.3333C29.2998 33.75 30.0833 32.9665 30.0833 32C30.0833 31.0335 29.2998 30.25 28.3333 30.25H25.4167V18Z" clip-rule="evenodd"></path></svg>