<svg xmlns="http://www.w3.org/2000/svg" fill="none" viewBox="0 0 48 48"><path fill="currentColor" d="M24.5834 21.3242V26.75H19.8358L24.5834 21.3242Z"></path><path fill="currentColor" fill-rule="evenodd" d="M19.4107 4.01284C21.1594 0.66239 25.8412 0.662386 27.59 4.01284L32.3806 13.1911L42.227 15.1178C45.877 15.832 47.1924 20.3448 44.7577 23.0356L37.8305 30.6914L39.1269 41.1303C39.5777 44.7606 35.9265 47.7166 32.5055 46.0198L23.5003 41.5533L14.4952 46.0198C11.0742 47.7166 7.4229 44.7606 7.87374 41.1303L9.1701 30.6914L2.24295 23.0356C-0.191782 20.3448 1.12366 15.832 4.77361 15.1178L14.6201 13.1911L19.4107 4.01284ZM25.5308 16.25C24.7948 16.25 24.0946 16.5678 23.6099 17.1217L15.8928 25.9412C15.4784 26.4148 15.25 27.0227 15.25 27.652C15.25 29.0869 16.4132 30.25 17.848 30.25H24.5834V32C24.5834 32.9665 25.3669 33.75 26.3334 33.75C27.2999 33.75 28.0834 32.9665 28.0834 32V30.25H28.6667C29.6332 30.25 30.4167 29.4665 30.4167 28.5C30.4167 27.5336 29.6332 26.75 28.6667 26.75H28.0834V18.8025C28.0834 17.3928 26.9406 16.25 25.5308 16.25Z" clip-rule="evenodd"></path></svg>