<svg xmlns="http://www.w3.org/2000/svg" fill="none" viewBox="0 0 48 48"><path fill="currentColor" fill-rule="evenodd" d="M19.4107 4.01284C21.1594 0.66239 25.8412 0.662386 27.59 4.01284L32.3806 13.1911L42.227 15.1178C45.877 15.832 47.1924 20.3448 44.7577 23.0356L37.8305 30.6914L39.1269 41.1303C39.5777 44.7606 35.9265 47.7166 32.5055 46.0198L23.5003 41.5533L14.4952 46.0198C11.0742 47.7166 7.4229 44.7606 7.87374 41.1303L9.1701 30.6914L2.24295 23.0356C-0.191782 20.3448 1.12366 15.832 4.77361 15.1178L14.6201 13.1911L19.4107 4.01284ZM24.459 17.25L22.6708 17.25C20.3923 17.25 18.4408 18.7507 17.8348 20.8474C17.5664 21.7759 18.1016 22.7462 19.0301 23.0145C19.9586 23.2829 20.9288 22.7477 21.1972 21.8192C21.3696 21.2227 21.9482 20.75 22.6709 20.75L24.459 20.75C25.3388 20.75 25.9873 21.4383 25.9873 22.2083C25.9873 22.9783 25.3388 23.6667 24.459 23.6667H23.5649C22.5984 23.6667 21.8149 24.4502 21.8149 25.4167C21.8149 26.3832 22.5984 27.1667 23.5649 27.1667L24.757 27.1667C25.8014 27.1667 26.5833 27.9856 26.5833 28.9167V29.5C26.5833 30.4311 25.8014 31.25 24.757 31.25L22.3728 31.25C21.5567 31.25 20.8877 30.7417 20.646 30.0722C20.3177 29.1632 19.3146 28.6924 18.4056 29.0207C17.4965 29.349 17.0258 30.352 17.354 31.2611C18.0941 33.3104 20.0746 34.75 22.3728 34.75L24.757 34.75C27.6629 34.75 30.0833 32.4349 30.0833 29.5V28.9167C30.0833 27.4397 29.4704 26.1198 28.4911 25.1728C29.1151 24.3504 29.4873 23.3273 29.4873 22.2083C29.4873 19.4345 27.2003 17.25 24.459 17.25Z" clip-rule="evenodd"></path></svg>