<svg xmlns="http://www.w3.org/2000/svg" fill="none" viewBox="0 0 48 48"><path fill="currentColor" fill-rule="evenodd" d="M19.4107 4.01284C21.1594 0.66239 25.8412 0.662386 27.59 4.01284L32.3806 13.1911L42.227 15.1178C45.877 15.832 47.1924 20.3448 44.7577 23.0356L37.8305 30.6914L39.1269 41.1303C39.5777 44.7606 35.9265 47.7166 32.5055 46.0198L23.5003 41.5533L14.4952 46.0198C11.0742 47.7166 7.4229 44.7606 7.87374 41.1303L9.1701 30.6914L2.24295 23.0356C-0.191782 20.3448 1.12366 15.832 4.77361 15.1178L14.6201 13.1911L19.4107 4.01284ZM22.5 17.25C20.2114 17.25 18.2691 18.7134 17.5492 20.7502C17.2271 21.6614 17.7047 22.6612 18.616 22.9833C19.5272 23.3054 20.527 22.8278 20.8491 21.9165C21.0902 21.2345 21.7408 20.75 22.5 20.75H24.9241C25.8405 20.75 26.5833 21.4929 26.5833 22.4092C26.5833 23.0684 26.1931 23.6651 25.5892 23.9293L20.3957 26.2014C18.4848 27.0375 17.25 28.9254 17.25 31.0113V33C17.25 33.9665 18.0335 34.75 19 34.75H28.3333C29.2998 34.75 30.0833 33.9665 30.0833 33C30.0833 32.0335 29.2998 31.25 28.3333 31.25H20.75V31.0113C20.75 30.316 21.1616 29.6867 21.7986 29.408L26.992 27.1358C28.8699 26.3143 30.0833 24.4589 30.0833 22.4092C30.0833 19.5599 27.7735 17.25 24.9241 17.25H22.5Z" clip-rule="evenodd"></path></svg>