<svg xmlns="http://www.w3.org/2000/svg" fill="none" viewBox="0 0 48 48"><path fill="currentColor" fill-rule="evenodd" d="M22.5 5.501c-6.41.015-11.014.12-14.098.228-3.665.128-6.57 2.978-6.71 6.662a293.43 293.43 0 0 0-.19 10.109H22.5v-17Zm0 19.999H1.503c.015 4.396.097 7.714.188 10.109.141 3.683 3.046 6.534 6.71 6.662 3.085.108 7.69.213 14.1.227V25.5Zm3 0v16.998c6.41-.014 11.015-.12 14.099-.227 3.665-.128 6.57-2.979 6.71-6.662.092-2.395.174-5.713.189-10.11H25.5Zm0-19.999V22.5h20.997a293.245 293.245 0 0 0-.188-10.11c-.14-3.683-3.045-6.533-6.71-6.661C36.514 5.62 31.91 5.516 25.5 5.5Z" clip-rule="evenodd"/></svg>