<svg xmlns="http://www.w3.org/2000/svg" fill="none" viewBox="0 0 48 48"><path fill="currentColor" fill-rule="evenodd" d="M8.402 5.729C11.486 5.62 16.09 5.516 22.5 5.5v36.997c-6.41-.014-11.014-.12-14.098-.227-3.665-.128-6.57-2.979-6.711-6.662-.102-2.66-.191-6.46-.191-11.61 0-5.149.09-8.948.19-11.608.142-3.684 3.047-6.534 6.712-6.662ZM39.598 42.27c-3.084.108-7.688.213-14.098.227V5.5c6.41.015 11.014.12 14.098.228 3.666.128 6.57 2.978 6.711 6.662.102 2.66.191 6.459.191 11.609s-.09 8.949-.19 11.609c-.142 3.683-3.047 6.534-6.712 6.662Z" clip-rule="evenodd"/></svg>