<svg xmlns="http://www.w3.org/2000/svg" fill="none" viewBox="0 0 48 48"><path fill="currentColor" fill-rule="evenodd" d="M46.135 5.27c-.13-2.2-2.193-3.628-4.206-3.32C39.114 2.38 33.42 3 24 3S8.886 2.38 6.071 1.95c-2.013-.308-4.076 1.12-4.206 3.32C1.71 7.918 1.5 12.662 1.5 19c0 3.216.054 6.021.128 8.351 13.203-2.468 31.541-2.468 44.744 0 .074-2.33.128-5.135.128-8.35 0-6.338-.21-11.082-.365-13.732ZM1.864 32.73c-.038-.656-.08-1.442-.121-2.348 13.007-2.51 31.505-2.51 44.512 0a178.88 178.88 0 0 1-.121 2.348c-.13 2.2-2.193 3.628-4.206 3.32C39.114 35.62 33.42 35 24 35s-15.114.62-17.929 1.05c-2.013.308-4.076-1.12-4.206-3.32ZM24 38c-1.339 0-2.6.013-3.785.036l-.047.424c-.133 1.197-1.116 2.19-2.352 2.476-2.034.47-4.31 1.18-5.197 1.464-.1.032-.205.055-.34.085l-.004.001a4.153 4.153 0 0 0-.44.116 1.86 1.86 0 0 0-.913.662c-.278.38-.442.901-.42 1.593.033 1.057 1.074 1.567 1.923 1.422 6.884-1.172 17.044-1.172 23.927 0 .85.145 1.891-.365 1.924-1.422.022-.692-.142-1.213-.42-1.593a1.86 1.86 0 0 0-.912-.662 4.16 4.16 0 0 0-.44-.116l-.006-.001a3.831 3.831 0 0 1-.339-.085c-.886-.284-3.163-.995-5.197-1.464-1.236-.285-2.219-1.279-2.352-2.475l-.046-.408A192.03 192.03 0 0 0 24 38Z" clip-rule="evenodd"/></svg>