<svg xmlns="http://www.w3.org/2000/svg" fill="none" viewBox="0 0 48 48"><path fill="currentColor" d="M29 22C29 25.866 25.866 29 22 29C18.134 29 15 25.866 15 22C15 18.134 18.134 15 22 15C25.866 15 29 18.134 29 22Z"></path><path fill="currentColor" fill-rule="evenodd" d="M39.8643 2.04389C36.5927 1.77808 31.4014 1.5 24 1.5C16.5986 1.5 11.4073 1.77808 8.1357 2.04389C4.84785 2.31102 2.31103 4.84784 2.04389 8.13569C1.77808 11.4073 1.5 16.5986 1.5 24C1.5 31.4014 1.77807 36.5927 2.04389 39.8643C2.31102 43.1522 4.84785 45.689 8.1357 45.9561C11.4073 46.2219 16.5986 46.5 24 46.5C31.4014 46.5 36.5927 46.2219 39.8643 45.9561C43.1521 45.689 45.689 43.1522 45.9561 39.8643C46.2219 36.5927 46.5 31.4014 46.5 24C46.5 16.5986 46.2219 11.4073 45.9561 8.13571C45.689 4.84785 43.1521 2.31103 39.8643 2.04389ZM32.3207 28.1261C33.3874 26.3328 34 24.238 34 22C34 15.3726 28.6274 10 22 10C15.3726 10 10 15.3726 10 22C10 28.6274 15.3726 34 22 34C24.2713 34 26.3951 33.369 28.2059 32.2728L28.472 32.5937C29.4716 33.7996 30.4559 34.9872 31.5501 36.1586C32.6314 37.3163 34.2679 37.4599 35.4128 36.3649C35.5732 36.2115 35.7445 36.0442 35.927 35.8616C36.1095 35.6791 36.2769 35.5079 36.4303 35.3475C37.5252 34.2026 37.3816 32.5661 36.2239 31.4847C35.0525 30.3905 33.865 29.4062 32.659 28.4066L32.3207 28.1261Z" clip-rule="evenodd"></path></svg>