<svg xmlns="http://www.w3.org/2000/svg" fill="none" viewBox="0 0 48 48"><path fill="currentColor" fill-rule="evenodd" d="M13.0841 11.9705C13.328 6.11861 18.143 1.5 24 1.5C29.857 1.5 34.672 6.11861 34.9159 11.9705L35.2652 20.3535C37.8903 23.1303 39.5 26.8772 39.5 31C39.5 39.5604 32.5604 46.5 24 46.5C15.4396 46.5 8.5 39.5604 8.5 31C8.5 26.8772 10.1097 23.1303 12.7348 20.3535L13.0841 11.9705ZM27.7227 12.0216L27.944 16.0063C26.6847 15.6759 25.3629 15.5 24 15.5C22.6371 15.5 21.3153 15.6759 20.056 16.0063L20.2774 12.0216C20.3871 10.0458 22.0212 8.5 24 8.5C25.9788 8.5 27.6129 10.0458 27.7227 12.0216ZM28 29C28 30.2715 27.4068 31.4044 26.482 32.137L27.1191 34.8676C27.3395 35.8119 26.8324 36.7496 25.8716 36.8805C25.3656 36.9495 24.7418 37 24 37C23.2582 37 22.6344 36.9495 22.1284 36.8805C21.1676 36.7496 20.6605 35.8119 20.8809 34.8676L21.518 32.137C20.5932 31.4044 20 30.2715 20 29C20 26.7909 21.7909 25 24 25C26.2091 25 28 26.7909 28 29Z" clip-rule="evenodd"></path></svg>