<svg xmlns="http://www.w3.org/2000/svg" fill="none" viewBox="0 0 48 48"><path fill="currentColor" fill-rule="evenodd" d="M13.085 11.9705C13.3289 6.11861 18.1439 1.5 24.0009 1.5C29.8579 1.5 34.673 6.11861 34.9168 11.9705C34.9314 12.3203 34.6479 12.6113 34.2963 12.6037C32.4904 12.5648 30.4754 12.534 28.2425 12.5163C27.9678 12.5142 27.739 12.2993 27.7236 12.0216C27.6138 10.0458 25.9797 8.5 24.0009 8.5C22.0221 8.5 20.388 10.0458 20.2783 12.0216L20.0569 16.006C21.3159 15.6758 22.6374 15.5 24 15.5C32.5604 15.5 39.5 22.4396 39.5 31C39.5 39.5604 32.5604 46.5 24 46.5C15.4396 46.5 8.5 39.5604 8.5 31C8.5 26.8767 10.1101 23.1294 12.7358 20.3525L13.085 11.9705ZM28 29C28 30.2715 27.4068 31.4044 26.482 32.137L27.1191 34.8676C27.3395 35.8119 26.8324 36.7496 25.8716 36.8805C25.3656 36.9495 24.7418 37 24 37C23.2582 37 22.6344 36.9495 22.1284 36.8805C21.1676 36.7496 20.6605 35.8119 20.8809 34.8676L21.518 32.137C20.5932 31.4044 20 30.2715 20 29C20 26.7909 21.7909 25 24 25C26.2091 25 28 26.7909 28 29Z" clip-rule="evenodd"></path></svg>