<svg xmlns="http://www.w3.org/2000/svg" fill="none" viewBox="0 0 48 48"><path fill="currentColor" fill-rule="evenodd" d="M24.001 1.5C21.3387 1.5 19.7859 2.0355 18.9792 2.45816C18.3671 2.77888 18.0092 3.28832 17.8053 3.71406C17.5155 4.31922 16.8797 5.68343 16.3249 7.16264C15.244 7.6562 14.2189 8.2508 13.2617 8.93434C11.7017 8.67473 10.2002 8.54309 9.53057 8.49144C9.05993 8.45515 8.4398 8.51036 7.85599 8.88012C7.0866 9.36741 5.84646 10.4444 4.51532 12.75C3.18418 15.0556 2.87156 16.6681 2.83424 17.578C2.80593 18.2685 3.06817 18.8332 3.33493 19.2226C3.71447 19.7767 4.5793 21.0113 5.58417 22.2326C5.52904 22.8143 5.50084 23.4038 5.50084 24C5.50084 24.5961 5.52903 25.1856 5.58416 25.7673C4.57924 26.9886 3.71438 28.2233 3.33482 28.7774C3.06807 29.1668 2.80582 29.7315 2.83414 30.422C2.87145 31.3319 3.18407 32.9444 4.51521 35.25C5.84635 37.5556 7.0865 38.6326 7.85588 39.1199C8.43969 39.4896 9.05982 39.5449 9.53045 39.5086C10.2001 39.4569 11.7016 39.3253 13.2617 39.0656C14.2189 39.7492 15.244 40.3438 16.3249 40.8374C16.8797 42.3166 17.5155 43.6808 17.8054 44.286C18.0092 44.7117 18.3671 45.2211 18.9793 45.5418C19.7859 45.9645 21.3387 46.5 24.001 46.5C26.6633 46.5 28.216 45.9645 29.0227 45.5418C29.6349 45.2211 29.9928 44.7117 30.1966 44.2859C30.4865 43.6808 31.1223 42.3165 31.6772 40.8372C32.7579 40.3437 33.7829 39.7491 34.74 39.0656C36.3 39.3253 37.8016 39.4569 38.4712 39.5086C38.9418 39.5449 39.562 39.4896 40.1458 39.1199C40.9152 38.6326 42.1553 37.5556 43.4865 35.25C44.8176 32.9444 45.1302 31.3319 45.1675 30.422C45.1959 29.7315 44.9336 29.1668 44.6669 28.7774C44.2873 28.2233 43.4224 26.9886 42.4175 25.7673C42.4726 25.1856 42.5008 24.5961 42.5008 24C42.5008 23.4038 42.4726 22.8143 42.4175 22.2326C43.4224 21.0113 44.2872 19.7767 44.6667 19.2226C44.9335 18.8332 45.1957 18.2685 45.1674 17.578C45.1301 16.6681 44.8175 15.0556 43.4864 12.75C42.1552 10.4444 40.9151 9.36741 40.1457 8.88012C39.5619 8.51036 38.9417 8.45515 38.4711 8.49144C37.8015 8.54309 36.3 8.67473 34.74 8.93434C33.7829 8.25088 32.7579 7.65634 31.6772 7.16281C31.1223 5.68353 30.4865 4.31925 30.1966 3.71406C29.9928 3.28832 29.6349 2.77888 29.0227 2.45816C28.216 2.0355 26.6633 1.5 24.001 1.5ZM24 34C29.5228 34 34 29.5228 34 24C34 18.4772 29.5228 14 24 14C18.4772 14 14 18.4772 14 24C14 29.5228 18.4772 34 24 34Z" clip-rule="evenodd"></path></svg>