<svg xmlns="http://www.w3.org/2000/svg" fill="none" viewBox="0 0 48 48"><path fill="currentColor" d="M35 19C35 20.6569 33.6569 22 32 22C30.3431 22 29 20.6569 29 19C29 17.3431 30.3431 16 32 16C33.6569 16 35 17.3431 35 19Z"></path><path fill="currentColor" d="M16 26C14.3431 26 13 27.3431 13 29C13 30.6569 14.3431 32 16 32C17.6569 32 19 30.6569 19 29C19 27.3431 17.6569 26 16 26Z"></path><path fill="currentColor" fill-rule="evenodd" d="M1.5 24C1.5 16.5986 1.77808 11.4073 2.0439 8.13569C2.31103 4.84784 4.84786 2.31102 8.13571 2.04389C11.4073 1.77807 16.5986 1.5 24 1.5C31.4015 1.5 36.5927 1.77808 39.8643 2.0439C43.1522 2.31103 45.689 4.84786 45.9561 8.13571C46.2219 11.4073 46.5 16.5986 46.5 24C46.5 31.4014 46.2219 36.5927 45.9561 39.8643C45.689 43.1521 43.1521 45.689 39.8643 45.9561C36.5927 46.2219 31.4014 46.5 24 46.5C16.5986 46.5 11.4073 46.2219 8.13569 45.9561C4.84784 45.689 2.31102 43.1521 2.04389 39.8643C1.77807 36.5927 1.5 31.4014 1.5 24ZM34 10V12.2899C36.8915 13.1504 39 15.829 39 19C39 22.171 36.8915 24.8496 34 25.7101V38C34 39.1046 33.1046 40 32 40C30.8954 40 30 39.1046 30 38V25.7101C27.1085 24.8496 25 22.171 25 19C25 15.829 27.1085 13.1504 30 12.2899V10C30 8.89543 30.8954 8 32 8C33.1046 8 34 8.89543 34 10ZM14 10L14 22.2899C11.1085 23.1504 9 25.829 9 29C9 32.171 11.1085 34.8496 14 35.7101L14 38C14 39.1046 14.8954 40 16 40C17.1046 40 18 39.1046 18 38V35.7101C20.8915 34.8496 23 32.171 23 29C23 25.829 20.8915 23.1504 18 22.2899L18 10C18 8.89543 17.1046 8 16 8C14.8954 8 14 8.89543 14 10Z" clip-rule="evenodd"></path></svg>