<svg xmlns="http://www.w3.org/2000/svg" fill="none" viewBox="0 0 48 48"><path fill="currentColor" fill-rule="evenodd" d="M33 3.285C37.567-.357 44.87 1.84 46.235 7.58c.948 3.78-.704 6.938-2.906 9.371-2.107 2.329-4.918 4.223-7.03 5.646l-.231.156a5.491 5.491 0 0 1-6.135 0l-.232-.156c-2.112-1.423-4.923-3.317-7.03-5.646-2.202-2.433-3.854-5.591-2.906-9.371C21.13 1.84 28.433-.357 33 3.285ZM3.303 25.872a2.776 2.776 0 0 0-1.939 2.388C1.201 29.904 1 32.452 1 35c0 2.366.174 4.733.33 6.375a2.844 2.844 0 0 0 2.398 2.54C7.962 44.596 17.526 46 24.284 46c5.116 0 15.352-3.444 20.138-5.161 1.559-.56 2.705-2.087 2.199-3.663-.679-2.11-2.12-2.91-3.116-3.213-.68-.207-1.393-.123-2.093-.002-3.275.569-13.348 2.261-17.128 2.261-1.783 0-4.217-.326-5.642-.543a1.387 1.387 0 0 1-1.173-1.38c0-.83.708-1.482 1.535-1.415l7.715.63c1.747.142 3.284-1.257 2.884-2.964-.214-.917-.5-1.68-.784-2.29-.594-1.273-1.833-2.036-3.194-2.386-2.81-.723-8.022-1.874-12.7-1.874-3.115 0-7.3 1.15-9.622 1.872Z" clip-rule="evenodd"/></svg>