<svg xmlns="http://www.w3.org/2000/svg" fill="none" viewBox="0 0 48 48"><path fill="currentColor" d="M41.8484 28.2984C41.9438 26.1656 42 23.7445 42 20.9999C42 18.2554 41.9438 15.8343 41.8484 13.7014C43.0049 14.1654 43.9342 14.5804 44.4681 14.8258C45.0654 15.1003 45.7326 15.6303 46.0069 16.519C46.2517 17.3116 46.5 18.6797 46.5 20.9999C46.5 23.3201 46.2517 24.6882 46.0069 25.4809C45.7326 26.3695 45.0654 26.8996 44.4681 27.174C43.9342 27.4194 43.0049 27.8344 41.8484 28.2984Z"></path><path fill="currentColor" d="M11.8797 34.6047C15.6065 35.4409 20.0627 36.7113 24.2157 38.5841L23.1438 42.9715C22.5316 45.4772 19.999 47.033 17.4908 46.333L12.8645 45.0419C10.059 44.259 8.71308 41.0852 9.97855 38.4954L11.8797 34.6047Z"></path><path fill="currentColor" d="M1.97416 27.3487C1.72179 25.9515 1.5 23.8995 1.5 20.9998C1.5 18.1002 1.72179 16.0482 1.97416 14.6509C2.3607 12.5108 4.11751 11.2901 5.91096 11.0345C6.62856 10.9322 7.50327 10.7965 8.5 10.6209V31.3787C7.50327 31.2032 6.62856 31.0674 5.91096 30.9652C4.11751 30.7096 2.3607 29.4888 1.97416 27.3487Z"></path><path fill="currentColor" d="M11.5 31.962C17.2378 33.183 25.0698 35.4616 31.0599 39.5003C32.4645 40.4473 34.1614 40.767 35.6659 40.2635C37.2318 39.7394 38.3621 38.3947 38.6288 36.5277C39.092 33.2845 39.5 28.3453 39.5 20.9998C39.5 13.6543 39.092 8.71519 38.6288 5.4719C38.3621 3.60498 37.2318 2.26021 35.6659 1.73617C34.1614 1.2327 32.4645 1.55232 31.0599 2.49931C25.0698 6.53803 17.2378 8.81668 11.5 10.0376V31.962Z"></path></svg>