<svg xmlns="http://www.w3.org/2000/svg" fill="none" viewBox="0 0 48 48"><path fill="currentColor" fill-rule="evenodd" d="M20.1818 6.5C25.349 6.5 29.2697 6.64415 31.7947 6.77783C34.369 6.91412 36.7125 8.44142 37.7174 10.9062C38.7318 13.3944 39.664 16.1843 40.3391 18.3373C40.6777 19.4171 40.9537 20.3433 41.1452 21.0003C41.184 21.1333 41.2193 21.2553 41.251 21.3654C42.4548 21.9164 43.3965 22.4455 44.0161 22.8211C44.7842 23.2868 45.4572 24.0188 45.7571 25.0031C46.0978 26.1215 46.5 28.1035 46.5 31.2258C46.5 33.1336 46.3499 34.7565 46.1615 36.0418C45.8448 38.2032 44.4053 39.834 42.4999 40.5331C42.5 40.5221 42.5 40.511 42.5 40.5C42.5 36.0817 38.9183 32.5 34.5 32.5C30.0817 32.5 26.5 36.0817 26.5 40.5C26.5 40.8354 26.5206 41.1659 26.5607 41.4905C25.7429 41.4967 24.8897 41.5 24 41.5C23.1102 41.5 22.2571 41.4967 21.4393 41.4905C21.4794 41.1659 21.5 40.8354 21.5 40.5C21.5 36.0817 17.9183 32.5 13.5 32.5C9.14069 32.5 5.59576 35.9868 5.50191 40.3235C3.56751 39.3666 2.2661 37.4465 2.05075 35.1905C1.78342 32.3899 1.5 28.2716 1.5 23.3946C1.5 19.1639 1.70369 15.6369 1.92467 13.0551C2.22794 9.51173 5.11285 6.88913 8.60336 6.74101C11.4732 6.61923 15.4825 6.5 20.1818 6.5ZM33.4727 12.3557C33.1177 11.7561 32.502 11.378 31.8129 11.2736C28.7108 10.8033 26.0834 11.0377 24.6628 11.2496C23.9559 11.355 23.3954 11.8813 23.2649 12.5839C22.8014 15.0795 23.0403 17.7396 23.2715 19.3278C23.3973 20.1921 24.1208 20.8198 24.9928 20.8701C28.9655 21.0994 32.5558 20.9766 34.4928 20.8705C35.325 20.825 35.9401 20.0909 35.8113 19.2675C35.2733 15.8256 34.1631 13.5217 33.4727 12.3557Z" clip-rule="evenodd"></path><circle cx="13.5" cy="40.5" r="5.5" fill="currentColor"></circle><circle cx="34.5" cy="40.5" r="5.5" fill="currentColor"></circle></svg>