<svg xmlns="http://www.w3.org/2000/svg" fill="none" viewBox="0 0 48 48"><path fill="currentColor" d="M2.772 24.519c-.132-1.528.233-3.026 1.045-4.151.82-1.137 2.09-1.88 3.694-1.868.504.004 1.046.032 1.626.093 2.598.273 4.395 2.497 4.677 4.995.21 1.86.36 3.607.464 5.207 2.4-.153 5.713-.295 9.723-.295 4.01 0 7.322.142 9.723.295.104-1.6.253-3.346.463-5.207.282-2.498 2.08-4.722 4.677-4.995.58-.06 1.123-.09 1.626-.093 1.605-.011 2.874.73 3.694 1.868.813 1.125 1.177 2.623 1.046 4.15-.225 2.599-.634 6.31-1.382 11.209-.334 2.18-2.219 3.773-4.418 3.773h-2.124l.674 4.717a2 2 0 1 1-3.96.566l-.755-5.283h-18.53l-.755 5.283a2 2 0 0 1-3.96-.566l.674-4.717H8.571c-2.198 0-4.084-1.593-4.417-3.773-.748-4.898-1.158-8.61-1.382-11.208Z"></path><path fill="currentColor" fill-rule="evenodd" d="M6.619 15.546c.297-.032.602-.048.914-.046.601.005 1.24.038 1.918.11 4.28.449 6.939 4.047 7.345 7.642.092.82.173 1.619.244 2.393 1.989-.085 4.329-.145 6.961-.145 2.633 0 4.972.06 6.961.145.07-.774.152-1.573.244-2.393.406-3.595 3.066-7.193 7.345-7.643a19.743 19.743 0 0 1 1.918-.109c.31-.002.615.014.912.046.135-2.303.163-4.714.043-7.193-.137-2.823-1.933-5.267-4.771-5.83C34.007 1.995 29.937 1.5 24 1.5s-10.007.496-12.653 1.022c-2.838.564-4.634 3.008-4.771 5.83a67.53 67.53 0 0 0 .043 7.194ZM18 12.5a1.5 1.5 0 0 1 1.5 1.5v1a1.5 1.5 0 0 1-3 0v-1a1.5 1.5 0 0 1 1.5-1.5ZM31.5 14a1.5 1.5 0 0 0-3 0v1a1.5 1.5 0 0 0 3 0v-1Z" clip-rule="evenodd"></path></svg>