<svg xmlns="http://www.w3.org/2000/svg" fill="none" viewBox="0 0 48 48"><path fill="currentColor" fill-rule="evenodd" d="M38.5308 1.50002L43.189 1.5C44.8891 1.49999 46.4145 2.74207 46.4855 4.51531C46.4945 4.73974 46.4997 4.96947 46.4997 5.19999C46.4997 5.43051 46.4945 5.66025 46.4855 5.88468C46.4145 7.65792 44.8891 8.89999 43.189 8.89999H40.0915C39.2807 11.7559 38.5563 14.4797 37.8416 17.167C36.7023 21.4508 35.5876 25.6425 34.1864 30.1294C33.5494 32.169 31.8911 33.7338 29.7218 33.9987C27.6373 34.2533 24.4262 34.5 19.8093 34.5C15.064 34.5 11.9102 34.2393 9.93718 33.977C7.9995 33.7193 6.49233 32.3668 5.86043 30.5557C4.36809 26.2785 3.04268 21.043 2.17635 16.1464C1.70105 13.4599 3.81921 11.1 6.51012 11.1H31.4892L33.2807 5.36108C33.9977 3.06418 36.1246 1.50002 38.5308 1.50002ZM13.7172 17.0201C14.8106 16.8639 15.8237 17.6237 15.9799 18.7172L16.9799 25.7172C17.1361 26.8106 16.3763 27.8237 15.2828 27.9799C14.1894 28.1361 13.1763 27.3763 13.0201 26.2828L12.0201 19.2828C11.8639 18.1894 12.6237 17.1763 13.7172 17.0201ZM24.0201 18.7172C24.1763 17.6237 25.1894 16.8639 26.2828 17.0201C27.3763 17.1763 28.1361 18.1894 27.9799 19.2828L26.9799 26.2828C26.8237 27.3763 25.8106 28.1361 24.7172 27.9799C23.6237 27.8237 22.8639 26.8106 23.0201 25.7172L24.0201 18.7172Z" clip-rule="evenodd"></path><path fill="currentColor" d="M5.5 41.5C5.5 38.7386 7.73858 36.5 10.5 36.5C13.2614 36.5 15.5 38.7386 15.5 41.5C15.5 44.2614 13.2614 46.5 10.5 46.5C7.73858 46.5 5.5 44.2614 5.5 41.5Z"></path><path fill="currentColor" d="M29.5 36.5C26.7386 36.5 24.5 38.7386 24.5 41.5C24.5 44.2614 26.7386 46.5 29.5 46.5C32.2614 46.5 34.5 44.2614 34.5 41.5C34.5 38.7386 32.2614 36.5 29.5 36.5Z"></path></svg>