<svg xmlns="http://www.w3.org/2000/svg" fill="none" viewBox="0 0 48 48"><path fill="currentColor" d="M23.9993 1.5C21.514 1.5 19.4993 3.51472 19.4993 6C19.4993 6.10136 19.5026 6.20193 19.5092 6.30162C16.5893 9.22774 14.3704 12.4399 12.8383 15.0146C12.4905 15.5991 12.1766 16.1532 11.8965 16.6667C13.2731 16.6247 14.8312 16.5871 16.5786 16.5582C17.8492 14.4827 19.5428 12.0803 21.6507 9.83928C22.3344 10.2584 23.1386 10.5 23.9993 10.5C24.8604 10.5 25.6651 10.2581 26.349 9.83855C28.4573 12.0798 30.1511 14.4825 31.4218 16.5582C33.1693 16.5871 34.7274 16.6248 36.104 16.6668C35.8239 16.1532 35.51 15.5991 35.1622 15.0146C33.6297 12.4394 31.4103 9.22644 28.4894 6.29984C28.496 6.20074 28.4993 6.10076 28.4993 6C28.4993 3.51472 26.4846 1.5 23.9993 1.5Z"></path><path fill="currentColor" fill-rule="evenodd" d="M24 19.5C16.4614 19.5 11.227 19.6652 7.98758 19.819C4.87423 19.9668 2.19526 22.1671 1.85374 25.4257C1.65889 27.285 1.5 29.7863 1.5 33C1.5 36.2137 1.65889 38.715 1.85375 40.5743C2.19527 43.8329 4.87423 46.0332 7.98759 46.181C11.227 46.3348 16.4614 46.5 24 46.5C31.5386 46.5 36.773 46.3348 40.0124 46.181C43.1258 46.0332 45.8047 43.8329 46.1463 40.5743C46.3411 38.715 46.5 36.2137 46.5 33C46.5 29.7863 46.3411 27.285 46.1463 25.4257C45.8047 22.1671 43.1258 19.9668 40.0124 19.819C36.773 19.6652 31.5386 19.5 24 19.5ZM10 29C10 27.8954 10.8954 27 12 27H36C37.1046 27 38 27.8954 38 29C38 30.1046 37.1046 31 36 31H12C10.8954 31 10 30.1046 10 29ZM18 36C16.8954 36 16 36.8954 16 38C16 39.1046 16.8954 40 18 40H30C31.1046 40 32 39.1046 32 38C32 36.8954 31.1046 36 30 36H18Z" clip-rule="evenodd"></path></svg>