<svg xmlns="http://www.w3.org/2000/svg" fill="none" viewBox="0 0 48 48"><path fill="currentColor" d="M30 31.4858C30 30.4403 30.2637 29.8796 30.5601 29.5519C30.8883 29.2058 31.3078 29 32 29C32.672 29 33.0879 29.203 33.423 29.5604C33.7301 29.8879 34 30.4431 34 31.4858C34 32.5559 33.7256 33.1168 33.423 33.4396C33.0879 33.797 32.672 34 32 34C31.3079 34 30.8883 33.7942 30.5602 33.4481C30.2679 33.1249 30 32.5582 30 31.4858Z"></path><path fill="currentColor" d="M14.5601 14.5519C14.2637 14.8796 14 15.4403 14 16.4858C14 17.5582 14.2679 18.1249 14.5602 18.4481C14.8883 18.7942 15.3079 19 16 19C16.672 19 17.0879 18.797 17.423 18.4396C17.7256 18.1168 18 17.5559 18 16.4858C18 15.4431 17.7301 14.8879 17.423 14.5604C17.0879 14.203 16.672 14 16 14C15.3078 14 14.8883 14.2058 14.5601 14.5519Z"></path><path fill="currentColor" fill-rule="evenodd" d="M8.1357 2.04389C11.4073 1.77808 16.5986 1.5 24 1.5C31.4014 1.5 36.5927 1.77808 39.8643 2.04389C43.1521 2.31102 45.689 4.84784 45.9561 8.13569C46.2219 11.4073 46.5 16.5986 46.5 24C46.5 31.4014 46.2219 36.5927 45.9561 39.8643C45.689 43.1522 43.1521 45.689 39.8643 45.9561C36.5927 46.2219 31.4014 46.5 24 46.5C16.5986 46.5 11.4073 46.2219 8.13571 45.9561C4.84785 45.689 2.31102 43.1522 2.04389 39.8643C1.77808 36.5927 1.5 31.4014 1.5 24C1.5 16.5986 1.77808 11.4073 2.04389 8.13571C2.31102 4.84786 4.84784 2.31103 8.1357 2.04389ZM32 25C30.3127 25 28.7955 25.5858 27.6342 26.8245L27.6189 26.8409C26.4607 28.1043 26 29.7386 26 31.4858C26 33.2436 26.4564 34.891 27.6189 36.1591L27.6342 36.1755C28.7955 37.4142 30.3127 38 32 38C33.6799 38 35.1854 37.408 36.341 36.1755C37.529 34.9084 38 33.2549 38 31.4858C38 29.7273 37.5246 28.0869 36.341 26.8245C35.1854 25.592 33.6799 25 32 25ZM11.6342 11.8245C12.7955 10.5858 14.3127 10 16 10C17.6799 10 19.1854 10.592 20.341 11.8245C21.5246 13.0869 22 14.7273 22 16.4858C22 18.2549 21.529 19.9084 20.341 21.1755C19.1854 22.408 17.6799 23 16 23C14.3127 23 12.7955 22.4142 11.6342 21.1755L11.6189 21.1591C10.4564 19.891 10 18.2436 10 16.4858C10 14.7386 10.4607 13.1043 11.6189 11.8409L11.6342 11.8245ZM35.4142 15.4142C36.1953 14.6332 36.1953 13.3668 35.4142 12.5858C34.6332 11.8047 33.3668 11.8047 32.5858 12.5858L12.5858 32.5858C11.8047 33.3668 11.8047 34.6332 12.5858 35.4142C13.3668 36.1953 14.6332 36.1953 15.4142 35.4142L35.4142 15.4142Z" clip-rule="evenodd"></path></svg>