<svg xmlns="http://www.w3.org/2000/svg" fill="none" viewBox="0 0 48 48"><path fill="currentColor" d="M15.501 3a1.5 1.5 0 0 1 1.5-1.5h2a1.5 1.5 0 0 1 1.5 1.5 5.23 5.23 0 0 0 1.121 3.188c.692.865 1.545 1.312 2.379 1.312.834 0 1.687-.447 2.379-1.312A5.23 5.23 0 0 0 27.5 3 1.5 1.5 0 0 1 29 1.5h2A1.5 1.5 0 0 1 32.5 3c0 .925.328 2.02.888 3.154a15.837 15.837 0 0 0 1.938 2.97c.648.785 1.267 1.961 1.066 3.332-.377 2.566-1.68 4.875-2.787 6.702-.333.55-.641 1.043-.919 1.502-2.462 1.296-5.541 1.976-8.687 1.976-3.145 0-6.223-.68-8.684-1.975-.278-.46-.586-.953-.92-1.503-1.107-1.827-2.41-4.136-2.787-6.702-.201-1.371.418-2.547 1.066-3.333a15.837 15.837 0 0 0 1.938-2.97c.56-1.133.888-2.228.888-3.153Zm-1.057 20.581c-2.067 1.788-3.565 4.082-4.832 6.336-.507.903-1.02 1.88-1.513 2.824-.353.672-.696 1.328-1.022 1.925-.825 1.516-1.642 2.869-2.562 3.985-1.591 1.932-1.142 5.25 1.514 5.946C9.396 45.479 15.194 46.5 24 46.5c8.807 0 14.605-1.02 17.972-1.903 2.656-.696 3.105-4.014 1.514-5.946-.92-1.116-1.737-2.47-2.562-3.985-.326-.597-.67-1.253-1.022-1.925-.494-.943-1.006-1.92-1.513-2.824-1.267-2.254-2.765-4.548-4.832-6.336-2.871 1.388-6.244 2.055-9.558 2.055s-6.686-.667-9.556-2.055Z"></path></svg>