<svg xmlns="http://www.w3.org/2000/svg" fill="none" viewBox="0 0 48 48"><path fill="currentColor" fill-rule="evenodd" d="M1.57617 17.6972C1.58293 20.4237 3.66636 22.4997 6.07616 22.4997C8.48987 22.4997 10.5762 20.417 10.5762 17.6839C10.5762 16.8554 11.2477 16.1839 12.0762 16.1839C12.9046 16.1839 13.5762 16.8554 13.5762 17.6839C13.5762 20.417 15.6624 22.4997 18.0762 22.4997C20.4899 22.4997 22.5762 20.417 22.5762 17.6839C22.5762 16.8554 23.2477 16.1839 24.0762 16.1839C24.9046 16.1839 25.5762 16.8554 25.5762 17.6839C25.5762 20.417 27.6624 22.4997 30.0762 22.4997C32.4899 22.4997 34.5762 20.417 34.5762 17.6839C34.5762 16.8554 35.2477 16.1839 36.0762 16.1839C36.9046 16.1839 37.5762 16.8554 37.5762 17.6839C37.5762 20.417 39.6624 22.4997 42.0762 22.4997C44.4859 22.4997 46.5694 20.4238 46.5761 17.6972C46.5758 17.6882 46.5749 17.6676 46.5728 17.6345C46.5682 17.5641 46.5577 17.4379 46.5345 17.2487C46.4881 16.87 46.3908 16.2423 46.1881 15.309C45.7822 13.4408 44.9572 10.3648 43.2836 5.63253C42.5954 3.68646 40.9914 2.34503 39.0532 2.13723C29.2091 1.08186 18.9432 1.08186 9.09914 2.13723C7.16088 2.34503 5.55695 3.68646 4.86872 5.63253C3.19516 10.3648 2.37015 13.4408 1.96426 15.309C1.76148 16.2423 1.66424 16.87 1.61779 17.2487C1.59458 17.4379 1.58416 17.5641 1.57954 17.6345C1.57737 17.6676 1.57649 17.6882 1.57617 17.6972Z" clip-rule="evenodd"></path><path fill="currentColor" d="M3.5 25.03V30.0001C3.5 32.0689 3.53838 33.8981 3.5996 35.5L28 35.5V25.1994C26.4025 24.7229 25.0373 23.7103 24.0762 22.373C22.7199 24.2601 20.559 25.5006 18.0762 25.5006C15.5933 25.5006 13.4325 24.2601 12.0762 22.373C10.7199 24.2601 8.55902 25.5006 6.07617 25.5006C5.16629 25.5006 4.29965 25.334 3.5 25.03Z"></path><path fill="currentColor" d="M28 38.5L3.75418 38.5C3.79496 39.1176 3.83849 39.6853 3.8831 40.2045C4.16732 43.5124 6.79254 45.937 10.0428 46.136C13.014 46.318 17.5894 46.5001 24 46.5001C25.4229 46.5001 26.7554 46.4911 28 46.4752V38.5Z"></path><path fill="currentColor" d="M37.9572 46.136C36.2091 46.2431 33.9057 46.3502 31 46.4202V25.4425C33.0917 25.1771 34.8911 24.0219 36.0762 22.373C37.4325 24.2601 39.5933 25.5006 42.0762 25.5006C42.9286 25.5006 43.743 25.3544 44.5 25.086V30.0001C44.5 34.4869 44.3195 37.8467 44.1169 40.2045C43.8327 43.5124 41.2075 45.937 37.9572 46.136Z"></path></svg>