<svg xmlns="http://www.w3.org/2000/svg" fill="none" viewBox="0 0 48 48"><path fill="currentColor" d="M11.0852 5.5H17.1566L14.2932 18.5H1.3418C1.43648 18.0799 1.59281 17.6684 1.81262 17.2787L7.16576 7.78906C7.96355 6.37478 9.46139 5.5 11.0852 5.5Z"></path><path fill="currentColor" d="M1.70563 21.5C1.91784 21.9252 2.20013 22.3217 2.55004 22.6716L20.7539 40.8755L14.4115 21.5H1.70563Z"></path><path fill="currentColor" d="M17.5681 21.5L23.9988 41.1452L30.4295 21.5H17.5681Z"></path><path fill="currentColor" d="M33.5861 21.5L27.2428 40.8782L45.4494 22.6716C45.7993 22.3217 46.0816 21.9252 46.2938 21.5H33.5861Z"></path><path fill="currentColor" d="M46.6577 18.5H33.7044L30.841 5.5H36.9143C38.5381 5.5 40.0359 6.37478 40.8337 7.78905L46.1868 17.2787C46.4067 17.6684 46.563 18.0799 46.6577 18.5Z"></path><path fill="currentColor" d="M30.6325 18.5H17.3651L20.2285 5.5H27.7691L30.6325 18.5Z"></path></svg>