<svg xmlns="http://www.w3.org/2000/svg" fill="none" viewBox="0 0 48 48"><path fill="currentColor" fill-rule="evenodd" d="M30.092 1.5c-3.707 0-6.43.072-8.386.161-3.298.15-5.81 2.646-5.977 5.945-.021.43-.043.897-.063 1.405A262.97 262.97 0 0 1 18.092 9c3.573 0 6.254.066 8.229.152 4.794.207 8.377 3.976 8.531 8.669.08 2.443.148 6.028.148 11.18 0 2.98-.023 5.437-.057 7.452 1.265-.027 2.348-.062 3.27-.102 3.456-.15 6.028-2.834 6.14-6.254.08-2.41.147-5.967.147-11.097s-.067-8.687-.147-11.097c-.112-3.42-2.684-6.104-6.14-6.254-1.934-.083-4.579-.149-8.121-.149ZM9.706 11.661c1.955-.09 4.68-.161 8.386-.161 3.542 0 6.187.066 8.121.15 3.456.15 6.028 2.833 6.14 6.253.08 2.41.147 5.967.147 11.097s-.067 8.687-.146 11.097c-.113 3.42-2.685 6.104-6.142 6.254-1.933.083-4.578.149-8.12.149-3.706 0-6.43-.072-8.385-.161-3.298-.15-5.81-2.646-5.978-5.945C3.607 37.97 3.5 34.333 3.5 29s.107-8.971.23-11.394c.167-3.299 2.678-5.794 5.976-5.945Z" clip-rule="evenodd"/></svg>