<svg xmlns="http://www.w3.org/2000/svg" fill="none" viewBox="0 0 48 48"><path fill="currentColor" fill-rule="evenodd" d="M24 32.5c7.463 0 12.67-.189 15.921-.367 3.188-.174 5.85-2.49 6.174-5.776.217-2.2.405-5.284.405-9.357 0-4.073-.188-7.157-.405-9.357-.324-3.287-2.986-5.602-6.174-5.776C36.671 1.689 31.463 1.5 24 1.5c-7.463 0-12.67.189-15.921.367-3.188.174-5.85 2.49-6.174 5.776C1.688 9.843 1.5 12.927 1.5 17c0 4.073.188 7.157.405 9.357.324 3.287 2.986 5.602 6.174 5.776 3.25.178 8.458.367 15.921.367Zm15.186-3.374c-2.536.157-7.447.374-15.186.374s-12.65-.217-15.186-.374c-1.898-.117-3.533-1.48-3.81-3.466C4.762 23.913 4.5 21.083 4.5 17s.262-6.913.504-8.66c.277-1.987 1.912-3.349 3.81-3.466C11.35 4.717 16.26 4.5 24 4.5s12.65.217 15.186.374c1.898.117 3.533 1.48 3.81 3.466.242 1.747.504 4.577.504 8.66s-.262 6.913-.504 8.66c-.277 1.987-1.912 3.349-3.81 3.466ZM24 26.5c7.683 0 12.532-.215 15.001-.368.579-.036.958-.414 1.023-.885.223-1.6.476-4.292.476-8.247s-.253-6.646-.476-8.247c-.065-.471-.444-.85-1.023-.885C36.531 7.716 31.683 7.5 24 7.5s-12.532.216-15.001.368c-.579.036-.958.414-1.023.885-.223 1.6-.476 4.292-.476 8.247s.253 6.646.476 8.247c.065.471.444.85 1.023.885 2.47.152 7.318.368 15.001.368Zm-8-14a1.5 1.5 0 0 0 0 3h16a1.5 1.5 0 0 0 0-3H16Zm.5 7.5a1.5 1.5 0 0 1 1.5-1.5h12a1.5 1.5 0 0 1 0 3H18a1.5 1.5 0 0 1-1.5-1.5ZM24 35.5c-1.412 0-2.745-.007-4-.02v8.02h-3a1.5 1.5 0 0 0 0 3h14a1.5 1.5 0 0 0 0-3h-3v-8.02c-1.255.013-2.588.02-4 .02Z" clip-rule="evenodd"/></svg>