<svg xmlns="http://www.w3.org/2000/svg" fill="none" viewBox="0 0 48 48"><path fill="currentColor" fill-rule="evenodd" d="M10.5.77V3.5H10a1.5 1.5 0 1 0 0 3h4a1.5 1.5 0 0 0 0-3h-.5V.655a320.45 320.45 0 0 1 9-.151V3.5H22a1.5 1.5 0 0 0 0 3h4a1.5 1.5 0 0 0 0-3h-.5V.504c3.532.013 6.52.072 9 .15v2.847H34a1.5 1.5 0 0 0 0 3h4a1.5 1.5 0 0 0 0-3h-.5V.77c.892.04 1.689.082 2.394.123 3.214.188 5.862 2.548 6.177 5.843.227 2.365.429 5.744.429 10.266s-.203 7.902-.429 10.267c-.315 3.294-2.963 5.654-6.177 5.842-3.255.19-8.454.391-15.894.391-7.44 0-12.639-.2-15.894-.391-3.214-.188-5.862-2.548-6.177-5.842C1.702 24.903 1.5 21.523 1.5 17c0-4.522.202-7.902.429-10.266C2.244 3.44 4.892 1.08 8.106.892 8.81.852 9.608.81 10.5.77ZM24 17.5a1.5 1.5 0 0 0 0 3h14a1.5 1.5 0 1 0 0-3H24Zm4.5 7.5a1.5 1.5 0 0 1 1.5-1.5h8a1.5 1.5 0 0 1 0 3h-8a1.5 1.5 0 0 1-1.5-1.5Zm10 11.186c-1.64.082-3.632.159-6 .216v9.596a.5.5 0 0 0 .5.5h5a.5.5 0 0 0 .5-.5v-9.812Zm-23 .216c-2.368-.057-4.36-.134-6-.215v9.811a.5.5 0 0 0 .5.5h5a.5.5 0 0 0 .5-.5v-9.596Z" clip-rule="evenodd"/></svg>