<?xml version="1.0" encoding="UTF-8"?>
<svg width="45px" height="45px" viewBox="0 0 45 45" version="1.1" xmlns="http://www.w3.org/2000/svg" xmlns:xlink="http://www.w3.org/1999/xlink">
    <title>linkedin</title>
    <g id="Page-1" stroke="none" stroke-width="1" fill="none" fill-rule="evenodd">
        <g id="Artboard" transform="translate(-53.000000, -76.000000)">
            <g id="linkedin" transform="translate(53.000000, 76.000000)">
                <path d="M6.6357,44.4561 C9.9073,44.7219 15.0986,45 22.5,45 C29.9014,45 35.0927,44.7219 38.3643,44.4561 C41.6521,44.189 44.189,41.6522 44.4561,38.3643 C44.7219,35.0927 45,29.9014 45,22.5 C45,15.0986 44.7219,9.9073 44.4561,6.6357 C44.189,3.34785 41.6521,0.81102 38.3643,0.54389 C35.0927,0.27808 29.9014,0 22.5,0 C15.0986,0 9.9073,0.27807 6.63571,0.54389 C3.34785,0.81102 0.81102,3.34784 0.54389,6.6357 C0.27808,9.9073 0,15.0986 0,22.5 C0,29.9014 0.27808,35.0927 0.54389,38.3643 C0.81102,41.6521 3.34785,44.189 6.6357,44.4561 Z" id="shape" fill="#000000"></path>
                <path d="M14,17 L8,17 L8,37 L14,37 L14,17 Z M29.6916023,17 C26.7297297,17 24.7398649,18.6157006 23.9237452,20.1492469 L23.8412162,20.1492469 L23.8412162,17.4837974 L18,17.4837974 L18,37 L24.0888031,37 L24.0888031,27.3423094 L24.0894698,27.1815915 L24.0915522,27.0212254 C24.134493,24.592349 24.7083977,22.3308991 27.7475869,22.3308991 C30.3881392,22.3308991 30.8251934,24.4196293 30.8971234,26.4343298 L30.9017128,26.5798116 C30.9043828,26.6766732 30.9063076,26.7732417 30.907693,26.8692753 L30.9093923,27.012894 C30.910963,27.1799104 30.9111969,27.3449175 30.9111969,27.506618 L30.9111969,37 L37,37 L37,26.3016887 L36.9985936,25.9876958 C36.9521442,20.8836805 35.7305212,17 29.6916023,17 Z M11.5,8 C9.56363636,8 8,9.57272727 8,11.5 C8,13.4272727 9.56363636,15 11.5,15 C13.4363636,15 15,13.4363636 15,11.5 C15,9.57272727 13.4272727,8 11.5,8 Z" id="logo" fill="#FFFFFF"></path>
            </g>
        </g>
    </g>
</svg>