<?xml version="1.0" encoding="UTF-8"?>
<svg width="45px" height="45px" viewBox="0 0 45 45" version="1.1" xmlns="http://www.w3.org/2000/svg" xmlns:xlink="http://www.w3.org/1999/xlink">
    <title>github</title>
    <g id="Page-1" stroke="none" stroke-width="1" fill="none" fill-rule="evenodd">
        <g id="Artboard" transform="translate(-224.000000, -76.000000)">
            <g id="github" transform="translate(224.000000, 76.000000)">
                <path d="M6.6357,44.4561 C9.9073,44.7219 15.0986,45 22.5,45 C29.9014,45 35.0927,44.7219 38.3643,44.4561 C41.6521,44.189 44.189,41.6522 44.4561,38.3643 C44.7219,35.0927 45,29.9014 45,22.5 C45,15.0986 44.7219,9.9073 44.4561,6.6357 C44.189,3.34785 41.6521,0.81102 38.3643,0.54389 C35.0927,0.27808 29.9014,0 22.5,0 C15.0986,0 9.9073,0.27807 6.63571,0.54389 C3.34785,0.81102 0.81102,3.34784 0.54389,6.6357 C0.27808,9.9073 0,15.0986 0,22.5 C0,29.9014 0.27808,35.0927 0.54389,38.3643 C0.81102,41.6521 3.34785,44.189 6.6357,44.4561 Z" id="shape" fill="#000000"></path>
                <path d="M17.7032258,31.9611547 C17.7032258,32.0893578 17.5548387,32.1919203 17.3677419,32.1919203 C17.1548387,32.2111508 17.0064516,32.1085883 17.0064516,31.9611547 C17.0064516,31.8329515 17.1548387,31.730389 17.3419355,31.730389 C17.5354839,31.7111585 17.7032258,31.813721 17.7032258,31.9611547 Z M15.6967742,31.6726976 C15.6516129,31.8009007 15.7806452,31.9483344 15.9741935,31.9867953 C16.1419355,32.0508969 16.3354839,31.9867953 16.3741935,31.8585921 C16.4129032,31.730389 16.2903226,31.5829554 16.0967742,31.5252639 C15.9290323,31.4803928 15.7419355,31.5444944 15.6967742,31.6726976 Z M18.5483871,31.5637249 C18.3612903,31.608596 18.2322581,31.730389 18.2516129,31.8778226 C18.2709677,32.0060258 18.4387097,32.0893578 18.6322581,32.0444867 C18.8193548,31.9996156 18.9483871,31.8778226 18.9290323,31.7496195 C18.9096774,31.6278265 18.7354839,31.5444944 18.5483871,31.5637249 Z M22.7935484,7 C13.8451613,7 7,13.7498962 7,22.6407852 C7,29.7496502 11.5032258,35.83289 17.9354839,37.9738827 C18.7612903,38.1213164 19.0516129,37.6149139 19.0516129,37.1982536 C19.0516129,36.8008238 19.0322581,34.6085499 19.0322581,33.2624167 C19.0322581,33.2624167 14.516129,34.2239404 13.5677419,31.3521897 C13.5677419,31.3521897 12.8322581,29.4868337 11.7741935,29.0060719 C11.7741935,29.0060719 10.2967742,27.9996771 11.8774194,28.0189076 C11.8774194,28.0189076 13.483871,28.1471107 14.3677419,29.6727283 C15.7806452,32.1470492 18.1483871,31.4355217 19.0709677,31.0124513 C19.2193548,29.986826 19.6387097,29.2752985 20.1032258,28.8522281 C16.4967742,28.4547983 12.8580645,27.9355755 12.8580645,21.7690037 C12.8580645,20.0062103 13.3483871,19.1216085 14.3806452,17.9934207 C14.2129032,17.5767605 13.6645161,15.8588381 14.5483871,13.6409235 C15.8967742,13.2242633 19,15.3716662 19,15.3716662 C20.2903226,15.0126973 21.6774194,14.8268027 23.0516129,14.8268027 C24.4258065,14.8268027 25.8129032,15.0126973 27.1032258,15.3716662 C27.1032258,15.3716662 30.2064516,13.2178531 31.5548387,13.6409235 C32.4387097,15.8652483 31.8903226,17.5767605 31.7225806,17.9934207 C32.7548387,19.1280187 33.3870968,20.0126204 33.3870968,21.7690037 C33.3870968,27.954806 29.5870968,28.4483882 25.9806452,28.8522281 C26.5741935,29.3586306 27.0774194,30.3201543 27.0774194,31.8265414 C27.0774194,33.9867645 27.0580645,36.6598004 27.0580645,37.1854333 C27.0580645,37.6020936 27.3548387,38.108496 28.1741935,37.9610624 C34.6258065,35.83289 39,29.7496502 39,22.6407852 C39,13.7498962 31.7419355,7 22.7935484,7 Z M13.2709677,29.1086344 C13.1870968,29.172736 13.2064516,29.3201696 13.316129,29.4419626 C13.4193548,29.5445252 13.5677419,29.5893963 13.6516129,29.5060642 C13.7354839,29.4419626 13.716129,29.294529 13.6064516,29.172736 C13.5032258,29.0701735 13.3548387,29.0253024 13.2709677,29.1086344 Z M12.5741935,28.5894116 C12.5290323,28.6727437 12.5935484,28.7753062 12.7225806,28.8394078 C12.8258065,28.9035094 12.9548387,28.8842789 13,28.7945367 C13.0451613,28.7112046 12.9806452,28.6086421 12.8516129,28.5445405 C12.7225806,28.5060796 12.6193548,28.5253101 12.5741935,28.5894116 Z M14.6645161,30.8714278 C14.5612903,30.9547599 14.6,31.1470646 14.7483871,31.2688576 C14.8967742,31.4162912 15.083871,31.4355217 15.1677419,31.3329592 C15.2516129,31.2496271 15.2129032,31.0573224 15.083871,30.9355294 C14.9419355,30.7880958 14.7483871,30.7688653 14.6645161,30.8714278 Z M13.9290323,29.9291346 C13.8258065,29.9932362 13.8258065,30.1599003 13.9290323,30.3073339 C14.0322581,30.4547676 14.2064516,30.5188692 14.2903226,30.4547676 C14.3935484,30.3714355 14.3935484,30.2047714 14.2903226,30.0573378 C14.2,29.9099042 14.0322581,29.8458026 13.9290323,29.9291346 Z" id="logo" fill="#FFFFFF" fill-rule="nonzero"></path>
            </g>
        </g>
    </g>
</svg>