<svg xmlns="http://www.w3.org/2000/svg" fill="none" viewBox="0 0 48 48"><path fill="currentColor" d="M24 16C19.5817 16 16 19.5817 16 24C16 28.4183 19.5817 32 24 32C28.4183 32 32 28.4183 32 24C32 19.5817 28.4183 16 24 16Z"></path><path fill="currentColor" fill-rule="evenodd" d="M24 46.5C19.2778 46.5 15.4553 46.3868 12.4571 46.2358C6.567 45.9392 2.06077 41.433 1.76417 35.5429C1.61319 32.5447 1.5 28.7222 1.5 24C1.5 19.2778 1.6132 15.4553 1.76417 12.4571C2.06077 6.56699 6.567 2.06077 12.4571 1.76417C15.4553 1.61319 19.2778 1.5 24 1.5C28.7222 1.5 32.5447 1.61319 35.5429 1.76417C41.433 2.06077 45.9392 6.567 46.2358 12.4571C46.3868 15.4553 46.5 19.2778 46.5 24C46.5 28.7222 46.3868 32.5447 46.2358 35.543C45.9392 41.433 41.433 45.9392 35.5429 46.2358C32.5447 46.3868 28.7222 46.5 24 46.5ZM12 24C12 17.3726 17.3726 12 24 12C30.6274 12 36 17.3726 36 24C36 30.6274 30.6274 36 24 36C17.3726 36 12 30.6274 12 24ZM37 8C35.8954 8 35 8.89543 35 10C35 11.1046 35.8954 12 37 12H38C39.1046 12 40 11.1046 40 10C40 8.89543 39.1046 8 38 8H37Z" clip-rule="evenodd"></path></svg>