<?xml version="1.0" encoding="UTF-8"?>
<svg width="45px" height="45px" viewBox="0 0 45 45" version="1.1" xmlns="http://www.w3.org/2000/svg" xmlns:xlink="http://www.w3.org/1999/xlink">
    <title>pinterest</title>
    <g id="Page-1" stroke="none" stroke-width="1" fill="none" fill-rule="evenodd">
        <g id="Artboard" transform="translate(-166.000000, -76.000000)">
            <g id="pinterest" transform="translate(166.000000, 76.000000)">
                <path d="M6.6357,44.4561 C9.9073,44.7219 15.0986,45 22.5,45 C29.9014,45 35.0927,44.7219 38.3643,44.4561 C41.6521,44.189 44.189,41.6522 44.4561,38.3643 C44.7219,35.0927 45,29.9014 45,22.5 C45,15.0986 44.7219,9.9073 44.4561,6.6357 C44.189,3.34785 41.6521,0.81102 38.3643,0.54389 C35.0927,0.27808 29.9014,0 22.5,0 C15.0986,0 9.9073,0.27807 6.63571,0.54389 C3.34785,0.81102 0.81102,3.34784 0.54389,6.6357 C0.27808,9.9073 0,15.0986 0,22.5 C0,29.9014 0.27808,35.0927 0.54389,38.3643 C0.81102,41.6521 3.34785,44.189 6.6357,44.4561 Z" id="shape" fill="#000000"></path>
                <path d="M23.4880704,7 C16.7043644,7 10,11.5224707 10,18.8417324 C10,23.496439 12.6182725,26.1411587 14.2051043,26.1411587 C14.8596724,26.1411587 15.236545,24.3163021 15.236545,23.8005818 C15.236545,23.1856845 13.6695486,21.8765482 13.6695486,19.3177819 C13.6695486,14.0018954 17.7159697,10.2331698 22.9525147,10.2331698 C27.4551499,10.2331698 30.7874967,12.7919361 30.7874967,17.4929254 C30.7874967,21.0037907 29.3791835,27.5891427 24.817042,27.5891427 C23.170704,27.5891427 21.7623908,26.3990189 21.7623908,24.6931747 C21.7623908,22.1939146 23.5079058,19.7739961 23.5079058,17.1953944 C23.5079058,12.8183833 17.2994263,13.6117992 17.2994263,18.9012386 C17.2994263,20.0120209 17.4382741,21.2418155 17.9341591,22.2534208 C17.0217308,26.1808295 15.1572034,32.0322718 15.1572034,36.0786929 C15.1572034,37.328323 15.335722,38.5581176 15.4547344,39.8077477 C15.6795355,40.0589961 15.5671349,40.0325489 15.9109485,39.9069247 C19.2432953,35.3447832 19.1242829,34.4521903 20.6317731,28.4817356 C21.4450244,30.0288967 23.5475766,30.8619834 25.21375,30.8619834 C32.2354808,30.8619834 35.389309,24.0187712 35.389309,17.8499625 C35.389309,11.2844459 29.7163853,7 23.4880704,7 Z" id="logo" fill="#FFFFFF" fill-rule="nonzero"></path>
            </g>
        </g>
    </g>
</svg>