<svg xmlns="http://www.w3.org/2000/svg" fill="none" viewBox="0 0 48 48"><path fill="currentColor" fill-rule="evenodd" d="M8.1357 45.9561C11.4073 46.2219 16.5986 46.5 24 46.5C31.4014 46.5 36.5927 46.2219 39.8643 45.9561C43.1521 45.689 45.689 43.1522 45.9561 39.8643C46.2219 36.5927 46.5 31.4014 46.5 24C46.5 16.5986 46.2219 11.4073 45.9561 8.1357C45.689 4.84785 43.1521 2.31102 39.8643 2.04389C36.5927 1.77808 31.4014 1.5 24 1.5C16.5986 1.5 11.4073 1.77807 8.13571 2.04389C4.84785 2.31102 2.31102 4.84784 2.04389 8.1357C1.77808 11.4073 1.5 16.5986 1.5 24C1.5 31.4014 1.77808 36.5927 2.04389 39.8643C2.31102 43.1521 4.84785 45.689 8.1357 45.9561ZM23.6707 19.0108C23.4524 17.8688 22.8777 14.4682 26.4065 12.0885C29.6065 9.93051 33.3338 11.3733 34.7326 13.0336L38.2484 12.866C38.8434 12.8377 39.2108 13.508 38.8683 13.9969L36.4746 17.4143C37.2106 31.6982 22.7555 40.7723 10.8768 35.4701C10.1852 35.1614 10.4962 34.0327 11.2476 33.9411C13.1967 33.7036 15.7228 33.0042 17.711 31.1112C14.5699 31.1957 9.76119 27.4705 9.01448 24.0849C8.91676 23.6419 9.32955 23.2979 9.77432 23.3801C10.9213 23.5923 12.9251 23.934 13.9285 23.934C13.9285 23.934 8.25283 18.8719 9.9193 13.3168C10.0739 12.8014 10.747 12.7131 11.117 13.1029C12.7776 14.8524 17.0834 18.6188 23.6707 19.0108Z" clip-rule="evenodd"></path></svg>