<svg xmlns="http://www.w3.org/2000/svg" fill="none" viewBox="0 0 48 48"><path fill="currentColor" fill-rule="evenodd" d="M8.1357 45.9561C11.4073 46.2219 16.5986 46.5 24 46.5C31.4014 46.5 36.5927 46.2219 39.8643 45.9561C43.1521 45.689 45.689 43.1522 45.9561 39.8643C46.2219 36.5927 46.5 31.4014 46.5 24C46.5 16.5986 46.2219 11.4073 45.9561 8.1357C45.689 4.84785 43.1521 2.31102 39.8643 2.04389C36.5927 1.77808 31.4014 1.5 24 1.5C16.5986 1.5 11.4073 1.77807 8.13571 2.04389C4.84785 2.31102 2.31102 4.84784 2.04389 8.1357C1.77808 11.4073 1.5 16.5986 1.5 24C1.5 31.4014 1.77808 36.5927 2.04389 39.8643C2.31102 43.1521 4.84785 45.689 8.1357 45.9561ZM13.5793 10.1581C12.0657 9.62881 10.7017 11.0476 11.2786 12.5438C12.5039 15.7217 13.8013 18.5863 14.5954 20.2746C15.0726 21.2892 15.971 22.0325 17.049 22.3405L22.8571 24L17.049 25.6595C15.971 25.9675 15.0726 26.7109 14.5954 27.7255C13.8013 29.4137 12.5039 32.2783 11.2786 35.4562C10.7017 36.9524 12.0657 38.3712 13.5793 37.8419C18.5411 36.107 27.9065 32.3726 36.8044 26.3026C38.4409 25.1862 38.4409 22.8138 36.8044 21.6974C27.9065 15.6274 18.5411 11.893 13.5793 10.1581Z" clip-rule="evenodd"></path></svg>