<svg xmlns="http://www.w3.org/2000/svg" fill="none" viewBox="0 0 48 48"><path fill="currentColor" d="M29.5054 46.4452C29.5124 46.3788 29.516 46.3113 29.516 46.2431V30.0396H35.0549C35.943 30.0396 36.7424 29.4548 36.8722 28.5763C37.0869 27.123 36.9957 25.8015 36.8568 24.8618C36.7293 23.9991 35.9605 23.4312 35.0885 23.4312H29.516C29.516 18.4377 30.347 17.7111 35.0309 17.6202C35.9296 17.6028 36.7364 17.0094 36.8668 16.12C37.0861 14.625 36.9987 13.3188 36.8611 12.3999C36.734 11.5511 35.9729 10.9978 35.1147 11.0053C26.8363 11.0775 22.1213 12.0563 22.1213 23.4312H17.8325C16.999 23.4312 16.259 23.9536 16.1329 24.7775C15.9971 25.6652 15.915 26.9519 16.1417 28.5169C16.2727 29.421 17.0859 30.0396 17.9995 30.0396H22.1213V46.4939C15.7113 46.4518 11.1232 46.1988 8.1357 45.9561C4.84785 45.689 2.31102 43.1521 2.04389 39.8643C1.77808 36.5927 1.5 31.4014 1.5 24C1.5 16.5986 1.77808 11.4073 2.04389 8.1357C2.31102 4.84784 4.84785 2.31102 8.13571 2.04389C11.4073 1.77807 16.5986 1.5 24 1.5C31.4014 1.5 36.5927 1.77808 39.8643 2.04389C43.1521 2.31102 45.689 4.84785 45.9561 8.1357C46.2219 11.4073 46.5 16.5986 46.5 24C46.5 31.4014 46.2219 36.5927 45.9561 39.8643C45.689 43.1522 43.1521 45.689 39.8643 45.9561C37.4739 46.1503 34.0587 46.3511 29.5054 46.4452Z"></path></svg>