<?xml version="1.0" encoding="UTF-8"?>
<svg width="45px" height="45px" viewBox="0 0 45 45" version="1.1" xmlns="http://www.w3.org/2000/svg" xmlns:xlink="http://www.w3.org/1999/xlink">
    <title>mastodon</title>
    <g id="Page-1" stroke="none" stroke-width="1" fill="none" fill-rule="evenodd">
        <g id="Artboard" transform="translate(-108.000000, -76.000000)">
            <g id="mastodon" transform="translate(108.000000, 76.000000)">
                <path d="M6.6357,44.4561 C9.9073,44.7219 15.0986,45 22.5,45 C29.9014,45 35.0927,44.7219 38.3643,44.4561 C41.6521,44.189 44.189,41.6522 44.4561,38.3643 C44.7219,35.0927 45,29.9014 45,22.5 C45,15.0986 44.7219,9.9073 44.4561,6.6357 C44.189,3.34785 41.6521,0.81102 38.3643,0.54389 C35.0927,0.27808 29.9014,0 22.5,0 C15.0986,0 9.9073,0.27807 6.63571,0.54389 C3.34785,0.81102 0.81102,3.34784 0.54389,6.6357 C0.27808,9.9073 0,15.0986 0,22.5 C0,29.9014 0.27808,35.0927 0.54389,38.3643 C0.81102,41.6521 3.34785,44.189 6.6357,44.4561 Z" id="shape" fill="#000000"></path>
                <path d="M36.9989067,17.1780403 C36.9989067,10.4532241 32.5788228,8.48144157 32.5788228,8.48144157 C28.2412989,6.49582197 16.7217458,6.51657758 12.4258489,8.48144157 C12.4258489,8.48144157 8.00507121,10.4532241 8.00507121,17.1780403 C8.00507121,25.1827856 7.54717522,35.1247207 15.3334884,37.1795256 C18.1439985,37.9198089 20.559053,38.0789352 22.5023358,37.9682386 C26.0274412,37.7745196 28.0054131,36.7159838 28.0054131,36.7159838 L27.8874702,34.1630443 C27.8874702,34.1630443 25.3683485,34.9517573 22.5370249,34.8618163 C19.7334527,34.7649568 16.7786359,34.5574008 16.3186586,31.1258073 C16.2760108,30.8070304 16.2551492,30.4857305 16.2562182,30.1641309 C22.1970718,31.6101048 27.2630666,30.7937176 28.657568,30.6276728 C32.5510715,30.1641309 35.942277,27.7703177 36.3745031,25.5840606 C37.0544092,22.1386301 36.9989067,17.1780403 36.9989067,17.1780403 Z M31.7872178,25.8400464 L28.5521132,25.8400464 L28.5521132,17.9390792 C28.5521132,14.5005672 24.1119096,14.369115 24.1119096,18.4164581 L24.1119096,22.7405426 L20.8976185,22.7405426 L20.8976185,18.4157663 C20.8976185,14.3684232 16.457415,14.4998754 16.457415,17.9383873 L16.457415,25.8393546 L13.2153726,25.8393546 C13.2153726,17.3918231 12.854606,15.606841 14.4926249,13.7319179 C16.2895198,11.7324613 20.0303913,11.6010091 21.6961614,14.1539486 L22.5009483,15.503063 L23.3057352,14.1539486 C24.9784431,11.587172 28.7255586,11.7462983 30.5092717,13.7319179 C32.1542283,15.6206781 31.7858302,17.3987416 31.7858302,25.8393546 L31.7872178,25.8400464 Z" id="logo" fill="#FFFFFF" fill-rule="nonzero"></path>
            </g>
        </g>
    </g>
</svg>