<?xml version="1.0" encoding="UTF-8"?>
<svg width="45px" height="45px" viewBox="0 0 45 45" version="1.1" xmlns="http://www.w3.org/2000/svg" xmlns:xlink="http://www.w3.org/1999/xlink">
    <title>youtube</title>
    <g id="Page-1" stroke="none" stroke-width="1" fill="none" fill-rule="evenodd">
        <g id="Artboard" transform="translate(-284.000000, -76.000000)">
            <g id="youtube" transform="translate(284.000000, 76.000000)">
                <path d="M6.6357,44.4561 C9.9073,44.7219 15.0986,45 22.5,45 C29.9014,45 35.0927,44.7219 38.3643,44.4561 C41.6521,44.189 44.189,41.6522 44.4561,38.3643 C44.7219,35.0927 45,29.9014 45,22.5 C45,15.0986 44.7219,9.9073 44.4561,6.6357 C44.189,3.34785 41.6521,0.81102 38.3643,0.54389 C35.0927,0.27808 29.9014,0 22.5,0 C15.0986,0 9.9073,0.27807 6.63571,0.54389 C3.34785,0.81102 0.81102,3.34784 0.54389,6.6357 C0.27808,9.9073 0,15.0986 0,22.5 C0,29.9014 0.27808,35.0927 0.54389,38.3643 C0.81102,41.6521 3.34785,44.189 6.6357,44.4561 Z" id="shape" fill="#000000"></path>
                <path d="M38.3313289,15.4422552 C37.963302,14.0873073 36.8789674,13.0201927 35.5021918,12.6580521 C33.006687,12 23,12 23,12 C23,12 12.9933716,12 10.4978082,12.6580521 C9.12103257,13.02025 8.03669795,14.0873073 7.66867106,15.4422552 C7,17.8981771 7,23.0222292 7,23.0222292 C7,23.0222292 7,28.1462813 7.66867106,30.6022031 C8.03669795,31.957151 9.12103257,32.9798073 10.4978082,33.3419479 C12.9933716,34 23,34 23,34 C23,34 33.0066284,34 35.5021918,33.3419479 C36.8789674,32.9798073 37.963302,31.957151 38.3313289,30.6022031 C39,28.1462812 39,23.0222292 39,23.0222292 C39,23.0222292 39,17.8981771 38.3313289,15.4422552 Z M19.7272501,27.6744844 L19.7272501,18.369974 L28.0908532,23.0223438 L19.7272501,27.6744844 Z" id="logo" fill="#FFFFFF" fill-rule="nonzero"></path>
            </g>
        </g>
    </g>
</svg>