<svg xmlns="http://www.w3.org/2000/svg" fill="none" viewBox="0 0 48 48"><path fill="currentColor" fill-rule="evenodd" d="M1.5 24C1.5 11.5736 11.5736 1.5 24 1.5C36.4264 1.5 46.5 11.5736 46.5 24C46.5 36.4264 36.4264 46.5 24 46.5C11.5736 46.5 1.5 36.4264 1.5 24ZM26.5955 19.0559C27.6449 19.9561 29.009 20.5 30.5 20.5C33.8137 20.5 36.5 17.8137 36.5 14.5C36.5 11.1863 33.8137 8.5 30.5 8.5C27.1863 8.5 24.5 11.1863 24.5 14.5C24.5 14.8722 24.5339 15.2365 24.5988 15.59L17.9046 19.4442C16.8552 18.5439 15.4911 18 14 18C10.6863 18 8 20.6863 8 24C8 27.3137 10.6863 30 14 30C15.491 30 16.8551 29.4561 17.9045 28.5559L24.5987 32.4102C24.5339 32.7636 24.5 33.1278 24.5 33.5C24.5 36.8137 27.1863 39.5 30.5 39.5C33.8137 39.5 36.5 36.8137 36.5 33.5C36.5 30.1863 33.8137 27.5 30.5 27.5C29.0089 27.5 27.6448 28.0439 26.5954 28.9442L19.9012 25.09C19.9661 24.7365 20 24.3722 20 24C20 23.6278 19.9661 23.2636 19.9013 22.9102L26.5955 19.0559Z" clip-rule="evenodd"></path></svg>