<svg xmlns="http://www.w3.org/2000/svg" fill="none" viewBox="0 0 48 48"><path fill="currentColor" fill-rule="evenodd" d="M8.1357 45.9561C11.4073 46.2219 16.5986 46.5 24 46.5C31.4014 46.5 36.5927 46.2219 39.8643 45.9561C43.1521 45.689 45.689 43.1522 45.9561 39.8643C46.2219 36.5927 46.5 31.4014 46.5 24C46.5 16.5986 46.2219 11.4073 45.9561 8.1357C45.689 4.84785 43.1521 2.31102 39.8643 2.04389C36.5927 1.77808 31.4014 1.5 24 1.5C16.5986 1.5 11.4073 1.77807 8.13571 2.04389C4.84785 2.31102 2.31102 4.84784 2.04389 8.1357C1.77808 11.4073 1.5 16.5986 1.5 24C1.5 31.4014 1.77808 36.5927 2.04389 39.8643C2.31102 43.1521 4.84785 45.689 8.1357 45.9561ZM8.32677 17.628C9.64307 15.7466 14.7133 9.05176 19.4441 10.2463C21.7088 10.8182 22.3324 15.1855 22.9225 19.3182C23.362 22.396 23.7828 25.3436 24.8492 26.4965C25.1491 26.8207 25.6359 26.8553 26.0241 26.6446C29.4784 24.7698 33.0956 15.1854 26.651 17.5163C26.4499 17.5891 26.2126 17.5479 26.0621 17.3959C25.9321 17.2645 25.8781 17.0755 25.9305 16.8981C27.0182 13.2119 31.8051 8.11046 37.2968 10.7105C45.6744 14.6767 32.7277 35.256 23.6324 37.8682C23.2826 37.9687 22.9176 37.9995 22.5601 37.9311C18.3467 37.1255 16.55 30.2384 15.1567 24.8977C14.3004 21.6154 13.5965 18.9172 12.5776 18.5739C12.0291 18.3891 10.9877 18.9231 10.2409 19.3809C9.68345 19.7226 8.94041 19.8887 8.50753 19.3987C8.30098 19.1649 8.17849 18.9079 8.10585 18.6852C7.98683 18.3204 8.10679 17.9424 8.32677 17.628Z" clip-rule="evenodd"></path></svg>