<svg xmlns="http://www.w3.org/2000/svg" fill="none" viewBox="0 0 48 48"><path fill="currentColor" d="M17.7725 23.5909H18.1816C19.3112 23.5909 20.227 22.6751 20.227 21.5455C20.227 20.4158 19.3112 19.5 18.1816 19.5H17.7725V23.5909Z"></path><path fill="currentColor" fill-rule="evenodd" d="M1.5 24C1.5 19.0199 1.71608 15.3424 1.95077 12.8168C2.2573 9.51804 4.88873 7.11717 8.12465 6.91597C11.3836 6.71334 16.5773 6.5 24 6.5C31.4227 6.5 36.6164 6.71335 39.8754 6.91598C43.1113 7.11718 45.7427 9.51805 46.0492 12.8168C46.2839 15.3424 46.5 19.02 46.5 24C46.5 28.9801 46.2839 32.6576 46.0492 35.1832C45.7427 38.482 43.1113 40.8828 39.8754 41.084C36.6164 41.2866 31.4227 41.5 24 41.5C16.5773 41.5 11.3836 41.2866 8.12464 41.084C4.88871 40.8828 2.25729 38.4819 1.95076 35.1832C1.71608 32.6576 1.5 28.98 1.5 24ZM5.7577 16.9393C6.039 16.658 6.42053 16.5 6.81836 16.5H12.2729C13.1013 16.5 13.7729 17.1716 13.7729 18C13.7729 18.8284 13.1013 19.5 12.2729 19.5H8.31836V21.9545H11.182C12.0104 21.9545 12.682 22.6261 12.682 23.4545C12.682 24.283 12.0104 24.9545 11.182 24.9545H8.31836V30C8.31836 30.8284 7.64679 31.5 6.81836 31.5C5.98993 31.5 5.31836 30.8284 5.31836 30V18C5.31836 17.6022 5.47639 17.2206 5.7577 16.9393ZM25.2118 16.9393C25.4931 16.658 25.8746 16.5 26.2725 16.5H31.727C32.5554 16.5 33.227 17.1716 33.227 18C33.227 18.8284 32.5554 19.5 31.727 19.5H27.7725V21.9545H30.6361C31.4645 21.9545 32.1361 22.6261 32.1361 23.4545C32.1361 24.283 31.4645 24.9545 30.6361 24.9545H27.7725V28.5H31.727C32.5554 28.5 33.227 29.1716 33.227 30C33.227 30.8284 32.5554 31.5 31.727 31.5H26.2725C25.444 31.5 24.7725 30.8284 24.7725 30V18C24.7725 17.6022 24.9305 17.2206 25.2118 16.9393ZM35.7266 16.5C35.3287 16.5 34.9472 16.658 34.6659 16.9393C34.3846 17.2206 34.2266 17.6022 34.2266 18V30C34.2266 30.8284 34.8981 31.5 35.7266 31.5H41.1811C42.0095 31.5 42.6811 30.8284 42.6811 30C42.6811 29.1716 42.0095 28.5 41.1811 28.5H37.2266V24.9545H40.0902C40.9186 24.9545 41.5902 24.283 41.5902 23.4545C41.5902 22.6261 40.9186 21.9545 40.0902 21.9545H37.2266V19.5H41.1811C42.0095 19.5 42.6811 18.8284 42.6811 18C42.6811 17.1716 42.0095 16.5 41.1811 16.5H35.7266ZM15.2118 16.9393C15.4931 16.658 15.8746 16.5 16.2725 16.5H18.1816C20.9681 16.5 23.227 18.7589 23.227 21.5455C23.227 23.0927 22.5306 24.4772 21.4341 25.4028L23.5834 29.2716C23.9858 29.9957 23.7248 30.9089 23.0007 31.3113C22.2765 31.7136 21.3633 31.4527 20.961 30.7285L18.6504 26.5694C18.496 26.5836 18.3396 26.5909 18.1816 26.5909H17.7725V30C17.7725 30.8284 17.1009 31.5 16.2725 31.5C15.444 31.5 14.7725 30.8284 14.7725 30V18C14.7725 17.6022 14.9305 17.2206 15.2118 16.9393Z" clip-rule="evenodd"></path></svg>