<svg xmlns="http://www.w3.org/2000/svg" fill="none" viewBox="0 0 48 48"><path fill="currentColor" fill-rule="evenodd" d="M1.95077 12.8168C1.71608 15.3424 1.5 19.0199 1.5 24C1.5 28.98 1.71608 32.6576 1.95076 35.1832C2.25729 38.4819 4.88871 40.8828 8.12464 41.084C11.3836 41.2866 16.5773 41.5 24 41.5C31.4227 41.5 36.6164 41.2866 39.8754 41.084C43.1113 40.8828 45.7427 38.482 46.0492 35.1832C46.2839 32.6576 46.5 28.9801 46.5 24C46.5 19.02 46.2839 15.3424 46.0492 12.8168C45.7427 9.51805 43.1113 7.11718 39.8754 6.91598C36.6164 6.71335 31.4227 6.5 24 6.5C16.5773 6.5 11.3836 6.71334 8.12465 6.91597C4.88873 7.11717 2.2573 9.51804 1.95077 12.8168ZM10.8655 17.4645C10.5734 16.8217 9.87251 16.4697 9.18245 16.6192C8.4924 16.7687 8 17.3792 8 18.0852V30C8 30.8284 8.67157 31.5 9.5 31.5C10.3284 31.5 11 30.8284 11 30V25.0101L13.5503 30.6207C13.8424 31.2635 14.5433 31.6155 15.2334 31.466C15.9234 31.3165 16.4158 30.7061 16.4158 30V18.0852C16.4158 17.2568 15.7442 16.5852 14.9158 16.5852C14.0874 16.5852 13.4158 17.2568 13.4158 18.0852V23.0751L10.8655 17.4645ZM38.6292 29.8776C38.4884 30.7631 37.7248 31.4148 36.8282 31.4148C35.9589 31.4148 35.2105 30.8012 35.04 29.9488L34.1258 25.3777L33.2115 29.9488C33.0411 30.8012 32.2926 31.4148 31.4233 31.4148C30.5267 31.4148 29.7632 30.7631 29.6223 29.8776L27.7701 18.2356C27.64 17.4175 28.1977 16.6488 29.0158 16.5186C29.834 16.3884 30.6027 16.9462 30.7329 17.7643L31.5552 22.9333L32.331 19.0545C32.5021 18.199 33.2533 17.5831 34.1258 17.5831C34.9982 17.5831 35.7494 18.199 35.9205 19.0545L36.6963 22.9333L37.5186 17.7643C37.6488 16.9462 38.4175 16.3884 39.2357 16.5186C40.0538 16.6488 40.6115 17.4175 40.4814 18.2356L38.6292 29.8776ZM19.916 16.5852C19.5182 16.5852 19.1367 16.7432 18.8554 17.0245C18.5741 17.3059 18.416 17.6874 18.416 18.0852V30C18.416 30.8284 19.0876 31.5 19.916 31.5H25.3318C26.1603 31.5 26.8318 30.8284 26.8318 30C26.8318 29.1716 26.1603 28.5 25.3318 28.5H21.416V25.001H24.2487C25.0771 25.001 25.7487 24.3295 25.7487 23.501C25.7487 22.6726 25.0771 22.001 24.2487 22.001H21.416V19.5852H25.3318C26.1603 19.5852 26.8318 18.9136 26.8318 18.0852C26.8318 17.2568 26.1603 16.5852 25.3318 16.5852H19.916Z" clip-rule="evenodd"></path></svg>