<svg xmlns="http://www.w3.org/2000/svg" fill="none" viewBox="0 0 48 48"><path fill="currentColor" fill-rule="evenodd" d="M37.8343 45.7947C39.4783 46.7454 41.6859 46.4883 42.9915 45.0893C43.5244 44.55 43.9158 43.9056 44.1657 43.1563C44.4491 42.3065 44.0903 41.4052 43.4607 40.768L38.6706 35.9201C40.3059 32.5714 42.6908 24 40.9704 20.0502C39.969 18.4456 37.7421 18.4763 35.866 18.9331C34.7046 19.2158 34.0102 20.3303 33.9675 21.5248C33.8672 24.3357 33.523 27.2003 32.6771 29.8542L24.9175 21.951C28.2322 21.1658 31.608 19.2791 32.6129 15.4286C34.766 7.17792 29.2738 1.5 21.5961 1.5C15.4102 1.5 9.4697 5.0194 9.4697 11.7273C9.4697 14.7065 10.7738 17.1334 12.6058 19.4154C7.13101 21.6317 3.5459 26.2977 3.5459 32.2524C3.5459 41.4258 11.4291 46.5 19.9932 46.5C24.887 46.5 29.7733 45.0979 33.4437 41.7743C34.78 43.1267 36.1072 44.9207 37.8343 45.7947ZM23.1801 8.73166C20.5744 8.14817 18.0418 9.58165 18.0418 12.6442C18.0418 14.4948 19.0351 15.8042 20.2156 17.1094C20.4926 17.1104 25.4137 16.7793 26.149 13.7967C26.8842 10.814 25.0995 9.16145 23.1801 8.73166ZM20.4113 39.4467C15.8201 39.4467 11.9786 36.7359 11.9786 31.8997C11.9786 28.6717 14.0635 25.8829 17.1358 24.8464L28.3562 36.4843C26.1446 38.4139 23.3563 39.4467 20.4113 39.4467Z" clip-rule="evenodd"></path></svg>