<svg xmlns="http://www.w3.org/2000/svg" fill="none" viewBox="0 0 48 48"><path fill="currentColor" d="M24 9C10.687 9 5.44187 8.87337 3.51319 8.7996C2.65196 8.76666 1.46918 8.34293 1.16588 7.07659C1.06604 6.65974 1 6.1416 1 5.5C1 4.8584 1.06604 4.34026 1.16588 3.92341C1.46918 2.65707 2.65196 2.23334 3.51319 2.2004C5.44187 2.12663 10.687 2 24 2C37.313 2 42.5581 2.12663 44.4868 2.2004C45.348 2.23334 46.5308 2.65707 46.8341 3.92341C46.934 4.34026 47 4.8584 47 5.5C47 6.1416 46.934 6.65974 46.8341 7.07659C46.5308 8.34293 45.348 8.76666 44.4868 8.7996C42.5581 8.87337 37.313 9 24 9Z"></path><path fill="currentColor" d="M24 13C26.963 13 29.1855 13.0934 30.7493 13.1986C32.954 13.347 34.653 15.046 34.8014 17.2507C34.9066 18.8145 35 21.037 35 24C35 26.963 34.9066 29.1855 34.8014 30.7493C34.653 32.954 32.954 34.653 30.7493 34.8014C29.1855 34.9066 26.963 35 24 35C21.037 35 18.8145 34.9066 17.2507 34.8014C15.046 34.653 13.347 32.954 13.1986 30.7493C13.0934 29.1855 13 26.963 13 24C13 21.037 13.0934 18.8145 13.1986 17.2507C13.347 15.046 15.046 13.347 17.2507 13.1986C18.8145 13.0934 21.037 13 24 13Z"></path><path fill="currentColor" d="M10.2458 16.2943C10.3427 15.125 9.42222 14.0719 8.2034 14.0905C5.78092 14.1274 4.34237 14.1688 3.51319 14.2005C2.65196 14.2334 1.46918 14.6572 1.16588 15.9235C1.06604 16.3403 1 16.8585 1 17.5001C1 18.1417 1.06604 18.6598 1.16588 19.0767C1.46918 20.343 2.65196 20.7667 3.51319 20.7997C4.32542 20.8308 5.7223 20.8711 8.05583 20.9074C9.15266 20.9245 10.0464 20.0573 10.0891 18.9772C10.1344 17.8326 10.1912 16.953 10.2458 16.2943Z"></path><path fill="currentColor" d="M39.7967 14.0905C38.578 14.0719 37.6576 15.1249 37.7544 16.2941C37.8089 16.9529 37.8657 17.8325 37.911 18.9771C37.9537 20.0573 38.8474 20.9245 39.9442 20.9074C42.2777 20.8711 43.6746 20.8307 44.4868 20.7997C45.348 20.7667 46.5308 20.343 46.8341 19.0767C46.934 18.6598 47 18.1417 47 17.5001C47 16.8585 46.934 16.3403 46.8341 15.9235C46.5308 14.6572 45.348 14.2334 44.4868 14.2005C43.6576 14.1688 42.2191 14.1274 39.7967 14.0905Z"></path><path fill="currentColor" d="M10.0837 29.026C10.0426 27.9446 9.14833 27.0758 8.05045 27.0929C5.72015 27.1292 4.3248 27.1694 3.51319 27.2005C2.65196 27.2334 1.46918 27.6572 1.16588 28.9235C1.06604 29.3403 1 29.8585 1 30.5001C1 31.1417 1.06604 31.6598 1.16588 32.0767C1.46918 33.343 2.65196 33.7667 3.51319 33.7997C4.34134 33.8314 5.77733 33.8727 8.19434 33.9095C9.40766 33.928 10.3281 32.883 10.2351 31.7158C10.1817 31.0454 10.1269 30.1623 10.0837 29.026Z"></path><path fill="currentColor" d="M39.9496 27.0929C38.8517 27.0758 37.9574 27.9446 37.9163 29.026C37.8732 30.1624 37.8185 31.0455 37.7651 31.7159C37.6721 32.8831 38.5925 33.928 39.8058 33.9095C42.2227 33.8727 43.6587 33.8314 44.4868 33.7997C45.348 33.7667 46.5308 33.343 46.8341 32.0767C46.934 31.6598 47 31.1417 47 30.5001C47 29.8585 46.934 29.3403 46.8341 28.9235C46.5308 27.6572 45.348 27.2334 44.4868 27.2005C43.6752 27.1694 42.2799 27.1292 39.9496 27.0929Z"></path><path fill="currentColor" d="M24 46C10.687 46 5.44187 45.8734 3.51319 45.7996C2.65196 45.7667 1.46918 45.3429 1.16588 44.0766C1.06604 43.6597 1 43.1416 1 42.5C1 41.8584 1.06604 41.3403 1.16588 40.9234C1.46918 39.6571 2.65196 39.2333 3.51319 39.2004C5.44187 39.1266 10.687 39 24 39C37.313 39 42.5581 39.1266 44.4868 39.2004C45.348 39.2333 46.5308 39.6571 46.8341 40.9234C46.934 41.3403 47 41.8584 47 42.5C47 43.1416 46.934 43.6597 46.8341 44.0766C46.5308 45.3429 45.348 45.7667 44.4868 45.7996C42.5581 45.8734 37.313 46 24 46Z"></path></svg>