<svg xmlns="http://www.w3.org/2000/svg" fill="none" viewBox="0 0 48 48"><path fill="currentColor" d="M21.9633 11C22.4784 11 22.907 11.3903 22.936 11.9047C22.9929 12.9112 23.0495 14.65 22.9274 16.5664C22.8993 17.0062 22.5763 17.3686 22.1379 17.4126C21.7057 17.456 21.1335 17.4821 20.5645 17.4151C20.1964 17.3718 19.9185 17.0811 19.8328 16.7204L19.5428 15.5H15.4632V33.5H16.5771C17.0723 33.5 17.4918 33.8623 17.5349 34.3556C17.5781 34.849 17.6147 35.4971 17.5922 36.1387C17.5748 36.635 17.1509 37 16.6543 37H8.3315C7.84115 37 7.42222 36.6437 7.39867 36.154C7.36949 35.5469 7.38815 34.9026 7.41502 34.4009C7.44247 33.8883 7.87155 33.5 8.38483 33.5H9.53657V15.5H5.45721L5.16736 16.7203C5.08168 17.081 4.80382 17.3718 4.43561 17.4151C3.86658 17.4821 3.29437 17.456 2.86216 17.4126C2.42373 17.3686 2.10072 17.0062 2.07267 16.5665C1.95044 14.65 2.00709 12.9111 2.064 11.9046C2.09308 11.3903 2.52163 11 3.03676 11H21.9633Z"></path><path fill="currentColor" d="M27.0367 11C26.5216 11 26.093 11.3903 26.064 11.9047C26.0071 12.9112 25.9505 14.65 26.0726 16.5664C26.1007 17.0062 26.4237 17.3686 26.8621 17.4126C27.2943 17.456 27.8665 17.4821 28.4355 17.4151C28.8036 17.3718 29.0815 17.0811 29.1672 16.7204L29.4572 15.5H33.5368V33.5H32.4229C31.9277 33.5 31.5082 33.8623 31.4651 34.3556C31.4219 34.849 31.3853 35.4971 31.4078 36.1387C31.4252 36.635 31.8491 37 32.3457 37H40.6685C41.1588 37 41.5778 36.6437 41.6013 36.154C41.6305 35.5469 41.6119 34.9026 41.585 34.4009C41.5575 33.8883 41.1285 33.5 40.6152 33.5H39.4634V15.5H43.5428L43.8326 16.7203C43.9183 17.081 44.1962 17.3718 44.5644 17.4151C45.1334 17.4821 45.7056 17.456 46.1378 17.4126C46.5763 17.3686 46.8993 17.0062 46.9273 16.5665C47.0496 14.65 46.9929 12.9111 46.936 11.9046C46.9069 11.3903 46.4784 11 45.9632 11H27.0367Z"></path></svg>