<svg xmlns="http://www.w3.org/2000/svg" fill="none" viewBox="0 0 48 48"><path fill="currentColor" d="M24 2C9.81162 2 4.78634 2.14382 3.17262 2.21429C2.52191 2.2427 1.61896 2.55288 1.28734 3.50589C1.12327 3.97738 1 4.62356 1 5.5C1 6.37644 1.12327 7.02262 1.28734 7.49411C1.61896 8.44712 2.52191 8.75729 3.17262 8.78571C4.78634 8.85618 9.81162 9 24 9C38.1884 9 43.2137 8.85618 44.8274 8.78571C45.4781 8.75729 46.381 8.44712 46.7127 7.49411C46.8767 7.02262 47 6.37644 47 5.5C47 4.62356 46.8767 3.97738 46.7127 3.50589C46.381 2.55288 45.4781 2.24271 44.8274 2.21429C43.2137 2.14382 38.1884 2 24 2Z"></path><path fill="currentColor" d="M36.5 14C31.7184 14 29.3279 14.0874 28.1602 14.1608C27.1286 14.2255 26.1719 14.9367 26.058 16.1248C26.0235 16.484 26 16.9355 26 17.5C26 18.0645 26.0235 18.516 26.058 18.8752C26.1719 20.0633 27.1286 20.7745 28.1602 20.8392C29.3279 20.9126 31.7184 21 36.5 21C41.2816 21 43.6721 20.9126 44.8398 20.8393C45.8714 20.7745 46.8281 20.0633 46.942 18.8752C46.9765 18.516 47 18.0645 47 17.5C47 16.9355 46.9765 16.484 46.942 16.1248C46.8281 14.9367 45.8714 14.2255 44.8398 14.1608C43.6721 14.0874 41.2816 14 36.5 14Z"></path><path fill="currentColor" d="M12 14C14.9624 14 17.1835 14.0841 18.7451 14.1787C20.9396 14.3117 22.667 15.9792 22.8212 18.1929C22.9182 19.5859 23 21.5016 23 24C23 26.4984 22.9181 28.4141 22.8212 29.8072C22.667 32.0208 20.9396 33.6883 18.7451 33.8213C17.1835 33.9159 14.9624 34 12 34C9.03756 34 6.81646 33.9159 5.25488 33.8213C3.06039 33.6883 1.33296 32.0208 1.17884 29.8071C1.08185 28.4141 1 26.4984 1 24C1 21.5016 1.08185 19.5859 1.17884 18.1928C1.33297 15.9792 3.0604 14.3117 5.25488 14.1787C6.81646 14.0841 9.03756 14 12 14Z"></path><path fill="currentColor" d="M24 39C9.81162 39 4.78634 39.1438 3.17262 39.2143C2.52191 39.2427 1.61896 39.5529 1.28734 40.5059C1.12327 40.9774 1 41.6236 1 42.5C1 43.3764 1.12327 44.0226 1.28734 44.4941C1.61896 45.4471 2.52191 45.7573 3.17262 45.7857C4.78634 45.8562 9.81162 46 24 46C38.1884 46 43.2137 45.8562 44.8274 45.7857C45.4781 45.7573 46.381 45.4471 46.7127 44.4941C46.8767 44.0226 47 43.3764 47 42.5C47 41.6236 46.8767 40.9774 46.7127 40.5059C46.381 39.5529 45.4781 39.2427 44.8274 39.2143C43.2137 39.1438 38.1884 39 24 39Z"></path><path fill="currentColor" d="M36.5 27C31.7184 27 29.3279 27.0874 28.1602 27.1608C27.1286 27.2255 26.1719 27.9367 26.058 29.1248C26.0235 29.484 26 29.9355 26 30.5C26 31.0645 26.0235 31.516 26.058 31.8752C26.1719 33.0633 27.1286 33.7745 28.1602 33.8392C29.3279 33.9126 31.7184 34 36.5 34C41.2816 34 43.6721 33.9126 44.8398 33.8393C45.8714 33.7745 46.8281 33.0633 46.942 31.8752C46.9765 31.516 47 31.0645 47 30.5C47 29.9355 46.9765 29.484 46.942 29.1248C46.8281 27.9367 45.8714 27.2255 44.8398 27.1608C43.6721 27.0874 41.2816 27 36.5 27Z"></path></svg>