<svg xmlns="http://www.w3.org/2000/svg" fill="none" viewBox="0 0 48 48"><path fill="currentColor" d="M29 2C18.7295 2 14.6645 2.12616 13.1574 2.20049C12.3726 2.2392 11.4128 2.68189 11.1684 3.75665C11.0705 4.18725 11 4.75522 11 5.5C11 6.24478 11.0705 6.81274 11.1684 7.24335C11.4128 8.31811 12.3726 8.7608 13.1574 8.79951C14.6645 8.87384 18.7295 9 29 9C39.2705 9 43.3355 8.87384 44.8426 8.79951C45.6274 8.7608 46.5872 8.31811 46.8316 7.24335C46.9295 6.81275 47 6.24478 47 5.5C47 4.75522 46.9295 4.18725 46.8316 3.75665C46.5872 2.68189 45.6274 2.2392 44.8426 2.20049C43.3355 2.12616 39.2705 2 29 2Z"></path><path fill="currentColor" d="M12 14C14.9624 14 17.1835 14.0841 18.7451 14.1787C20.9396 14.3117 22.667 15.9792 22.8212 18.1929C22.9181 19.5859 23 21.5016 23 24C23 26.4984 22.9181 28.4141 22.8212 29.8072C22.667 32.0208 20.9396 33.6883 18.7451 33.8213C17.1835 33.9159 14.9624 34 12 34C9.03755 34 6.81646 33.9159 5.25487 33.8213C3.06039 33.6883 1.33296 32.0208 1.17884 29.8071C1.08185 28.4141 1 26.4984 1 24C1 21.5016 1.08185 19.5859 1.17884 18.1928C1.33297 15.9792 3.06039 14.3117 5.25488 14.1787C6.81646 14.0841 9.03756 14 12 14Z"></path><path fill="currentColor" d="M37 14C32.5535 14 30.2873 14.0842 29.156 14.1568C28.1064 14.2242 27.1596 14.956 27.0533 16.1447C27.0216 16.4996 27 16.9448 27 17.5C27 18.0552 27.0216 18.5004 27.0533 18.8553C27.1596 20.044 28.1064 20.7758 29.156 20.8432C30.2873 20.9158 32.5535 21 37 21C41.4465 21 43.7126 20.9158 44.844 20.8432C45.8936 20.7758 46.8404 20.044 46.9467 18.8553C46.9784 18.5004 47 18.0552 47 17.5C47 16.9448 46.9784 16.4996 46.9467 16.1447C46.8404 14.956 45.8936 14.2242 44.844 14.1568C43.7126 14.0842 41.4465 14 37 14Z"></path><path fill="currentColor" d="M29 39C18.7295 39 14.6645 39.1262 13.1574 39.2005C12.3726 39.2392 11.4128 39.6819 11.1684 40.7566C11.0705 41.1873 11 41.7552 11 42.5C11 43.2448 11.0705 43.8127 11.1684 44.2433C11.4128 45.3181 12.3726 45.7608 13.1574 45.7995C14.6645 45.8738 18.7295 46 29 46C39.2705 46 43.3355 45.8738 44.8426 45.7995C45.6274 45.7608 46.5872 45.3181 46.8316 44.2433C46.9295 43.8127 47 43.2448 47 42.5C47 41.7552 46.9295 41.1873 46.8316 40.7567C46.5872 39.6819 45.6274 39.2392 44.8426 39.2005C43.3355 39.1262 39.2705 39 29 39Z"></path><path fill="currentColor" d="M37 27C32.5535 27 30.2873 27.0842 29.156 27.1568C28.1064 27.2242 27.1596 27.956 27.0533 29.1447C27.0216 29.4996 27 29.9448 27 30.5C27 31.0552 27.0216 31.5004 27.0533 31.8553C27.1596 33.044 28.1064 33.7758 29.156 33.8432C30.2873 33.9158 32.5535 34 37 34C41.4465 34 43.7126 33.9158 44.844 33.8432C45.8936 33.7758 46.8404 33.044 46.9467 31.8553C46.9784 31.5004 47 31.0552 47 30.5C47 29.9448 46.9784 29.4996 46.9467 29.1447C46.8404 27.956 45.8936 27.2242 44.844 27.1568C43.7126 27.0842 41.4465 27 37 27Z"></path></svg>