<svg xmlns="http://www.w3.org/2000/svg" fill="none" viewBox="0 0 48 48"><path fill="currentColor" d="M24 2C9.81162 2 4.78634 2.14382 3.17262 2.21429C2.52191 2.2427 1.61896 2.55288 1.28734 3.50589C1.12327 3.97738 1 4.62356 1 5.5C1 6.37644 1.12327 7.02262 1.28734 7.49411C1.61896 8.44712 2.52191 8.75729 3.17262 8.78571C4.78634 8.85618 9.81162 9 24 9C38.1884 9 43.2137 8.85618 44.8274 8.78571C45.4781 8.75729 46.381 8.44712 46.7127 7.49411C46.8767 7.02262 47 6.37644 47 5.5C47 4.62356 46.8767 3.97738 46.7127 3.50589C46.381 2.55288 45.4781 2.24271 44.8274 2.21429C43.2137 2.14382 38.1884 2 24 2Z"></path><path fill="currentColor" d="M16 14C7.9984 14 4.5638 14.1129 3.15773 14.1884C2.27726 14.2357 1.30435 14.7777 1.11471 15.9103C1.04735 16.3126 1 16.8322 1 17.5C1 18.1678 1.04735 18.6874 1.11471 19.0897C1.30435 20.2223 2.27726 20.7643 3.15773 20.8116C4.5638 20.8871 7.9984 21 16 21C24.0016 21 27.4362 20.8871 28.8423 20.8116C29.7227 20.7643 30.6956 20.2223 30.8853 19.0897C30.9526 18.6874 31 18.1678 31 17.5C31 16.8322 30.9526 16.3126 30.8853 15.9103C30.6956 14.7777 29.7227 14.2357 28.8423 14.1884C27.4362 14.1129 24.0016 14 16 14Z"></path><path fill="currentColor" d="M24 46C13.9504 46 8.47783 45.7406 5.55068 45.4971C3.12683 45.2955 1.32583 43.5387 1.15291 41.0837C1.06564 39.8447 1 38.1865 1 36C1 33.8135 1.06564 32.1553 1.15291 30.9163C1.32583 28.4613 3.12682 26.7045 5.55068 26.5029C8.47783 26.2594 13.9504 26 24 26C34.0496 26 39.5222 26.2594 42.4493 26.5029C44.8732 26.7045 46.6742 28.4613 46.8471 30.9163C46.9344 32.1553 47 33.8135 47 36C47 38.1865 46.9344 39.8447 46.8471 41.0837C46.6742 43.5387 44.8732 45.2955 42.4493 45.4971C39.5222 45.7406 34.0496 46 24 46Z"></path></svg>