<svg xmlns="http://www.w3.org/2000/svg" fill="none" viewBox="0 0 48 48"><path fill="currentColor" d="M36.5 4C33.771 4 31.7043 4.07029 30.2291 4.15123C28.0419 4.27124 26.2991 5.91876 26.1481 8.13782C26.0657 9.34912 26 10.956 26 13C26 15.044 26.0657 16.6509 26.1481 17.8622C26.2991 20.0812 28.0419 21.7288 30.2291 21.8488C31.7043 21.9297 33.771 22 36.5 22C39.229 22 41.2957 21.9297 42.7709 21.8488C44.9581 21.7288 46.7009 20.0812 46.8519 17.8622C46.9343 16.6509 47 15.044 47 13C47 10.956 46.9343 9.34911 46.8519 8.13781C46.7009 5.91876 44.9581 4.27124 42.7709 4.15123C41.2957 4.07029 39.229 4 36.5 4Z"></path><path fill="currentColor" d="M11.5 4C16.2816 4 18.6721 4.08741 19.8398 4.16075C20.8714 4.22554 21.8281 4.93672 21.942 6.12477C21.9765 6.48398 22 6.93552 22 7.5C22 8.06449 21.9765 8.51602 21.942 8.87524C21.8281 10.0633 20.8714 10.7745 19.8398 10.8393C18.6721 10.9126 16.2816 11 11.5 11C6.7184 11 4.32794 10.9126 3.16016 10.8393C2.1286 10.7745 1.17191 10.0633 1.05795 8.87524C1.02349 8.51603 1 8.06449 1 7.5C1 6.93552 1.02349 6.48398 1.05795 6.12477C1.17191 4.93672 2.1286 4.22554 3.16016 4.16075C4.32794 4.08741 6.71839 4 11.5 4Z"></path><path fill="currentColor" d="M24 37C38.1884 37 43.2137 37.1438 44.8274 37.2143C45.4781 37.2427 46.381 37.5529 46.7127 38.5059C46.8767 38.9774 47 39.6236 47 40.5C47 41.3764 46.8767 42.0226 46.7127 42.4941C46.381 43.4471 45.4781 43.7573 44.8274 43.7857C43.2137 43.8562 38.1884 44 24 44C9.81162 44 4.78634 43.8562 3.17262 43.7857C2.52191 43.7573 1.61895 43.4471 1.28733 42.4941C1.12327 42.0226 1 41.3764 1 40.5C1 39.6236 1.12327 38.9774 1.28733 38.5059C1.61895 37.5529 2.5219 37.2427 3.17262 37.2143C4.78634 37.1438 9.81161 37 24 37Z"></path><path fill="currentColor" d="M11.5 15C16.2816 15 18.6721 15.0874 19.8398 15.1608C20.8714 15.2255 21.8281 15.9367 21.942 17.1248C21.9765 17.484 22 17.9355 22 18.5C22 19.0645 21.9765 19.516 21.942 19.8752C21.8281 21.0633 20.8714 21.7745 19.8398 21.8393C18.6721 21.9126 16.2816 22 11.5 22C6.7184 22 4.32794 21.9126 3.16016 21.8393C2.1286 21.7745 1.17191 21.0633 1.05795 19.8752C1.02349 19.516 1 19.0645 1 18.5C1 17.9355 1.02349 17.484 1.05795 17.1248C1.17191 15.9367 2.1286 15.2255 3.16016 15.1608C4.32794 15.0874 6.71839 15 11.5 15Z"></path><path fill="currentColor" d="M24 26C38.1884 26 43.2137 26.1438 44.8274 26.2143C45.4781 26.2427 46.381 26.5529 46.7127 27.5059C46.8767 27.9774 47 28.6236 47 29.5C47 30.3764 46.8767 31.0226 46.7127 31.4941C46.381 32.4471 45.4781 32.7573 44.8274 32.7857C43.2137 32.8562 38.1884 33 24 33C9.81162 33 4.78634 32.8562 3.17262 32.7857C2.52191 32.7573 1.61895 32.4471 1.28733 31.4941C1.12327 31.0226 1 30.3764 1 29.5C1 28.6236 1.12327 27.9774 1.28733 27.5059C1.61895 26.5529 2.5219 26.2427 3.17262 26.2143C4.78634 26.1438 9.81161 26 24 26Z"></path></svg>