<svg xmlns="http://www.w3.org/2000/svg" fill="none" viewBox="0 0 48 48"><path fill="currentColor" d="M12.5 4C15.229 4 17.2957 4.07029 18.7709 4.15123C20.9581 4.27124 22.7009 5.91876 22.8519 8.13782C22.9343 9.34912 23 10.956 23 13C23 15.044 22.9343 16.6509 22.8519 17.8622C22.7009 20.0812 20.9581 21.7288 18.7709 21.8488C17.2957 21.9297 15.229 22 12.5 22C9.77095 22 7.7043 21.9297 6.22912 21.8488C4.04192 21.7288 2.29907 20.0812 2.14814 17.8622C2.06575 16.6509 2 15.044 2 13C2 10.956 2.06575 9.34911 2.14814 8.13781C2.29908 5.91876 4.04193 4.27124 6.22913 4.15123C7.7043 4.07029 9.77096 4 12.5 4Z"></path><path fill="currentColor" d="M35.5 4C30.7184 4 28.3279 4.08741 27.1602 4.16075C26.1286 4.22554 25.1719 4.93672 25.058 6.12477C25.0235 6.48398 25 6.93552 25 7.5C25 8.06449 25.0235 8.51602 25.058 8.87524C25.1719 10.0633 26.1286 10.7745 27.1602 10.8393C28.3279 10.9126 30.7184 11 35.5 11C40.2816 11 42.6721 10.9126 43.8398 10.8393C44.8714 10.7745 45.8281 10.0633 45.942 8.87524C45.9765 8.51603 46 8.06449 46 7.5C46 6.93552 45.9765 6.48398 45.942 6.12477C45.8281 4.93672 44.8714 4.22554 43.8398 4.16075C42.6721 4.08741 40.2816 4 35.5 4Z"></path><path fill="currentColor" d="M24 37C10.6145 37 5.77115 37.1405 4.17099 37.2119C3.49886 37.2419 2.57616 37.5741 2.26043 38.5554C2.11111 39.0196 2 39.6503 2 40.5C2 41.3497 2.11111 41.9804 2.26043 42.4446C2.57616 43.426 3.49887 43.7582 4.17099 43.7881C5.77115 43.8595 10.6145 44 24 44C37.3855 44 42.2289 43.8595 43.829 43.7881C44.5011 43.7582 45.4238 43.426 45.7396 42.4446C45.8889 41.9804 46 41.3497 46 40.5C46 39.6503 45.8889 39.0196 45.7396 38.5554C45.4238 37.5741 44.5011 37.2419 43.829 37.2119C42.2288 37.1405 37.3855 37 24 37Z"></path><path fill="currentColor" d="M35.5 15C30.7184 15 28.3279 15.0874 27.1602 15.1608C26.1286 15.2255 25.1719 15.9367 25.058 17.1248C25.0235 17.484 25 17.9355 25 18.5C25 19.0645 25.0235 19.516 25.058 19.8752C25.1719 21.0633 26.1286 21.7745 27.1602 21.8393C28.3279 21.9126 30.7184 22 35.5 22C40.2816 22 42.6721 21.9126 43.8398 21.8393C44.8714 21.7745 45.8281 21.0633 45.942 19.8752C45.9765 19.516 46 19.0645 46 18.5C46 17.9355 45.9765 17.484 45.942 17.1248C45.8281 15.9367 44.8714 15.2255 43.8398 15.1608C42.6721 15.0874 40.2816 15 35.5 15Z"></path><path fill="currentColor" d="M24 26C10.6145 26 5.77115 26.1405 4.17099 26.2119C3.49886 26.2419 2.57616 26.574 2.26043 27.5554C2.11111 28.0196 2 28.6503 2 29.5C2 30.3497 2.11111 30.9804 2.26043 31.4446C2.57616 32.426 3.49887 32.7582 4.17099 32.7881C5.77115 32.8595 10.6145 33 24 33C37.3855 33 42.2289 32.8595 43.829 32.7881C44.5011 32.7582 45.4238 32.426 45.7396 31.4446C45.8889 30.9804 46 30.3497 46 29.5C46 28.6503 45.8889 28.0196 45.7396 27.5554C45.4238 26.574 44.5011 26.2419 43.829 26.2119C42.2288 26.1405 37.3855 26 24 26Z"></path></svg>