<svg xmlns="http://www.w3.org/2000/svg" fill="none" viewBox="0 0 48 48"><path fill="currentColor" d="M11.313 41.3163C11.1107 41.9826 11 42.352 11 42.352C11 45.314 14.0616 46 16.5529 46C17.4862 46 18.3864 45.8817 19.2783 45.6784C19.9556 45.524 20.4671 44.9828 20.6478 44.312C21.2804 41.9639 21.9389 39.6285 22.6672 37.3056H24.4265C24.2595 36.9011 24.12 36.4797 24.0055 36.0449L23.1726 33.3056H15.3899C14.922 34.8871 14.4786 36.4814 14.0445 38.0924C13.6788 39.45 12.7187 40.6957 11.313 41.3163Z"></path><path fill="currentColor" d="M36.1594 41.4609C36.3771 41.3932 36.5943 41.3176 36.8097 41.2332C38.4251 40.6003 39.3793 39.3059 39.7874 37.9823C40.1754 36.724 40.0967 35.4135 39.7676 34.3015C38.0555 28.5169 35.6097 20.7724 33.5975 14.4902C32.838 12.119 32.1391 9.95258 31.563 8.17357C33.7263 8.48281 35.9394 9.29485 36.643 11.2832C36.643 11.2832 42.987 30.6522 46.3909 42.1529C46.7756 43.4526 46.4773 44.9455 45.2153 45.4399C44.1203 45.8689 42.8582 46 41.7591 46C38.8911 46 37.1056 45.0063 36.3934 42.2304L36.1594 41.4609Z"></path><path fill="currentColor" d="M25.396 30.3056H13.1672C12.4389 32.6285 11.7804 34.9639 11.1478 37.312C10.9671 37.9828 10.4556 38.524 9.77826 38.6784C8.88636 38.8817 7.98623 39 7.05286 39C4.56158 39 1.5 38.314 1.5 35.352C1.5 35.352 7.68282 14.7142 12.1001 3.75047C12.4239 2.94675 13.0013 2.25948 13.8071 1.9409C15.555 1.24983 17.6139 1 19.4064 1C22.0256 1 26.1346 1.43348 27.143 4.2832C27.143 4.2832 33.487 23.6522 36.8909 35.1529C37.2756 36.4526 36.9773 37.9455 35.7153 38.4399C34.6203 38.869 33.3582 39 32.2591 39C29.3911 39 27.6056 38.0063 26.8934 35.2304L25.396 30.3056ZM19.5289 9.512C19.4188 9.512 19.3213 9.58321 19.2876 9.68804C17.866 14.1141 16.1577 18.4434 14.7894 22.888H23.7114C22.4869 18.4657 21.0666 14.0971 19.7718 9.69383C19.7401 9.58606 19.6412 9.512 19.5289 9.512Z"></path></svg>