<svg xmlns="http://www.w3.org/2000/svg" fill="none" viewBox="0 0 48 48"><path fill="currentColor" d="M30.8938 7.23987C30.2435 4.91285 27.2907 4 25.1274 4C19.2383 4 16.1128 7.93484 14.9386 13.2105L11.5084 13.3981C10.6309 13.446 9.75503 13.8558 9.46565 14.6855C9.21583 15.4018 9.20937 16.0669 9.28078 16.5879C9.37706 17.2902 10.0252 17.7109 10.7327 17.7545L13.869 17.9474C13.6086 19.9755 13.391 21.833 13.1789 23.6433C12.8495 26.4562 12.5333 29.1552 12.0904 32.2035L12.0706 32.3244C11.6132 35.1185 11.3078 36.984 10.1177 39.3411C9.92366 39.7254 9.35675 39.6797 9.15983 39.2969C8.47182 37.9594 7.25134 36.6316 5.31239 36.6316C3.36735 36.6316 1.8641 37.9373 2.00976 39.9351C2.03996 40.3493 2.18175 40.7489 2.39491 41.1054C3.63889 43.186 5.94069 44 8.37146 44C14.7097 44 17.7768 37.517 18.776 32.2451C19.471 28.284 19.9236 24.816 20.472 20.6127C20.5835 19.7581 20.699 18.8731 20.8213 17.9474L24.9036 17.7647C26.0116 17.7152 27.0575 17.0649 27.2588 15.9743C27.3293 15.5918 27.3612 15.2369 27.3699 14.9216C27.3938 14.0529 26.6499 13.4473 25.7818 13.4085L21.3561 13.2105C21.3561 13.2105 21.6304 11.155 22.9602 8.99992C23.1719 8.65684 23.678 8.73077 23.8605 9.09021C24.4887 10.3272 25.6018 11.3684 27.7733 11.3684C29.6729 11.3684 31.4592 9.26316 30.8938 7.23987Z"></path><path fill="currentColor" d="M24.1959 32.9242C22.6376 32.9242 21 34.0688 21 36.1721C21 38.3153 22.7266 39.8317 24.7639 39.8317C28.0341 39.8317 30.3416 35.9677 31.802 33.4379C31.9456 33.8681 32.0778 34.3072 32.2093 34.7442C33.0126 37.4127 33.7915 40 37.0063 40C40.0229 40 42.1164 37.2635 43.5118 34.6637C43.7177 34.2803 43.7899 33.8287 43.596 33.4391C43.3616 32.968 42.9043 32.3735 42.0496 32.1819C41.6926 32.1019 41.3517 32.3189 41.161 32.6311C40.7297 33.337 39.9276 34.5232 39.4081 34.5232C37.5521 34.5232 36.3656 28.6602 36.3656 28.6602C36.3656 28.6602 37.943 25.6879 39.9151 23.3301C40.4222 24.3961 41.5899 25.0392 42.9576 25.0392C44.8128 25.0392 46 23.3301 46 21.198C46 19.2101 44.2265 18 42.6719 18C39.2212 18 37.6511 20.6275 36.3043 22.8811C35.9815 23.4214 35.6715 23.9402 35.3515 24.3961C35.2146 24.0016 35.0863 23.5952 34.9576 23.1876C34.1462 20.618 33.3195 18 30.2314 18C28.257 18 26.4333 19.3705 24.2235 22.1791C23.954 22.5215 23.8005 22.9559 23.9437 23.3674C24.103 23.8251 24.4563 24.4242 25.2401 24.83C25.5397 24.9852 25.8961 24.9088 26.189 24.7413C26.4832 24.573 26.8782 24.3961 27.2384 24.3961C29.3165 24.3961 30.0261 26.7201 30.5598 28.4681C30.6384 28.7253 30.7131 28.9701 30.7879 29.1932C30.7879 29.1932 29.2451 32.6359 27.2384 34.5232C26.2242 33.4572 25.6428 32.9242 24.1959 32.9242Z"></path></svg>