<svg xmlns="http://www.w3.org/2000/svg" fill="none" viewBox="0 0 48 48"><path fill="currentColor" d="M24 2C13.9504 2 8.47783 2.25945 5.55068 2.50289C3.12683 2.70448 1.32583 4.46127 1.15291 6.91632C1.06564 8.15526 1 9.81351 1 12C1 14.1865 1.06564 15.8447 1.15291 17.0837C1.32583 19.5387 3.12682 21.2955 5.55068 21.4971C8.47783 21.7406 13.9504 22 24 22C34.0496 22 39.5222 21.7406 42.4493 21.4971C44.8732 21.2955 46.6742 19.5387 46.8471 17.0837C46.9344 15.8447 47 14.1865 47 12C47 9.81351 46.9344 8.15526 46.8471 6.91632C46.6742 4.46128 44.8732 2.70448 42.4493 2.50289C39.5222 2.25945 34.0496 2 24 2Z"></path><path fill="currentColor" d="M15.5 39C7.87018 39 4.54516 39.1104 3.15914 39.1859C2.26254 39.2348 1.28771 39.7945 1.10698 40.9359C1.04406 41.3333 1 41.8449 1 42.5C1 43.1551 1.04406 43.6667 1.10698 44.0641C1.28771 45.2055 2.26254 45.7652 3.15914 45.8141C4.54516 45.8896 7.87018 46 15.5 46C23.1298 46 26.4548 45.8896 27.8409 45.8141C28.7375 45.7652 29.7123 45.2055 29.893 44.0641C29.9559 43.6667 30 43.1551 30 42.5C30 41.8449 29.9559 41.3333 29.893 40.9359C29.7123 39.7945 28.7375 39.2348 27.8409 39.1859C26.4548 39.1104 23.1298 39 15.5 39Z"></path><path fill="currentColor" d="M24 27C9.81162 27 4.78634 27.1438 3.17262 27.2143C2.52191 27.2427 1.61896 27.5529 1.28734 28.5059C1.12327 28.9774 1 29.6236 1 30.5C1 31.3764 1.12327 32.0226 1.28734 32.4941C1.61896 33.4471 2.52191 33.7573 3.17262 33.7857C4.78634 33.8562 9.81162 34 24 34C38.1884 34 43.2137 33.8562 44.8274 33.7857C45.4781 33.7573 46.381 33.4471 46.7127 32.4941C46.8767 32.0226 47 31.3764 47 30.5C47 29.6236 46.8767 28.9774 46.7127 28.5059C46.381 27.5529 45.4781 27.2427 44.8274 27.2143C43.2137 27.1438 38.1884 27 24 27Z"></path></svg>