<svg xmlns="http://www.w3.org/2000/svg" fill="none" viewBox="0 0 48 48"><path fill="currentColor" d="M5.95334 5.09797C3.44834 5.20076 1.64232 7.10128 1.5698 9.60734C1.52936 11.005 1.5 12.8161 1.5 15.1286C1.5 17.27 1.52518 18.9815 1.56102 20.3328C1.63158 22.9933 3.62283 24.9892 6.28342 25.0567C7.62694 25.0908 9.33818 25.1145 11.5001 25.1145H12.5002C12.5001 30.5435 10.1293 34.2675 5.38822 37.147C4.28736 37.8157 3.60575 39.0649 4.10982 40.2501C4.41857 40.9762 4.87125 41.7763 5.52462 42.4411C6.08518 43.0115 6.9392 43.1162 7.70376 42.8817C15.1893 40.586 21.5002 34.6635 21.5002 25.1142L21.5 15.1286C21.5 12.8163 21.4707 11.0054 21.4303 9.60773C21.3578 7.10148 19.5517 5.20074 17.0465 5.09795C15.6566 5.04092 13.843 5 11.5001 5C9.157 5 7.34328 5.04093 5.95334 5.09797Z"></path><path fill="currentColor" d="M30.9533 5.09797C28.4483 5.20076 26.6423 7.10128 26.5698 9.60734C26.5294 11.005 26.5 12.8161 26.5 15.1286C26.5 17.27 26.5252 18.9815 26.561 20.3328C26.6316 22.9933 28.6228 24.9892 31.2834 25.0567C32.6269 25.0908 34.3382 25.1145 36.5001 25.1145H37.5002C37.5001 30.5435 35.1293 34.2675 30.3882 37.147C29.2874 37.8157 28.6058 39.0649 29.1098 40.2501C29.4186 40.9762 29.8713 41.7763 30.5246 42.4411C31.0852 43.0115 31.9392 43.1162 32.7038 42.8817C40.1893 40.586 46.5002 34.6635 46.5002 25.1142L46.5 15.1286C46.5 12.8163 46.4707 11.0054 46.4303 9.60773C46.3578 7.10148 44.5517 5.20074 42.0465 5.09795C40.6566 5.04092 38.843 5 36.5001 5C34.157 5 32.3433 5.04093 30.9533 5.09797Z"></path></svg>