<svg xmlns="http://www.w3.org/2000/svg" fill="none" viewBox="0 0 48 48"><path fill="currentColor" fill-rule="evenodd" d="M7 1.5C3.96243 1.5 1.5 3.96243 1.5 7C1.5 9.27162 2.87715 11.2216 4.84212 12.0605C4.55636 16.1868 4.41944 20.344 4.43138 24.5C4.44236 28.3226 4.57927 32.1442 4.84211 35.9395C2.87715 36.7784 1.5 38.7284 1.5 41C1.5 44.0376 3.96243 46.5 7 46.5C9.27158 46.5 11.2215 45.1229 12.0605 43.158C16.0213 43.4323 20.0107 43.5694 24.0001 43.5694C27.9894 43.5694 31.9787 43.4323 35.9395 43.158C36.7785 45.1229 38.7284 46.5 41 46.5C44.0376 46.5 46.5 44.0376 46.5 41C46.5 38.7285 45.1229 36.7785 43.1581 35.9395C43.4209 32.1442 43.5578 28.3227 43.5688 24.5C43.5807 20.344 43.4438 16.1867 43.1581 12.0605C45.1229 11.2215 46.5 9.27154 46.5 7C46.5 3.96243 44.0376 1.5 41 1.5C38.7276 1.5 36.7771 2.87812 35.9386 4.84419C33.1417 4.66048 29.208 4.5 24.0001 4.5C18.7921 4.5 14.8583 4.66049 12.0614 4.8442C11.223 2.87813 9.27242 1.5 7 1.5ZM36.2011 15.1936C36.1107 14.2146 35.2764 13.5 34.2933 13.5H13.7064C12.7232 13.5 11.889 14.2146 11.7986 15.1935C11.6539 16.76 11.5366 19.1602 11.868 21.2846C11.9348 21.7132 12.2919 22.0295 12.7244 22.0621C13.652 22.1319 15.2782 22.2213 16.445 22.104C16.8509 22.0632 17.1527 21.736 17.2153 21.3328L17.5 19.5H21V30H18.7204C18.29 30 17.9094 30.2751 17.8152 30.6951C17.6112 31.6047 17.3634 33.2703 17.7871 34.8574C17.8926 35.2525 18.2678 35.5 18.6767 35.5H29.3226C29.7315 35.5 30.1067 35.2525 30.2122 34.8574C30.6359 33.2703 30.3881 31.6047 30.1841 30.6951C30.0899 30.2751 29.7093 30 29.2789 30H27V19.5H30.6114L30.8963 21.3329C30.959 21.736 31.2606 22.0634 31.6665 22.1045C32.8104 22.2203 34.3759 22.133 35.2784 22.0635C35.7097 22.0303 36.0646 21.7144 36.1313 21.2871C36.4631 19.162 36.3458 16.7607 36.2011 15.1936Z" clip-rule="evenodd"></path></svg>