<svg xmlns="http://www.w3.org/2000/svg" fill="none" viewBox="0 0 48 48"><path fill="currentColor" d="M19 2C29.2705 2 33.3355 2.12616 34.8426 2.20049C35.6274 2.2392 36.5872 2.68189 36.8316 3.75665C36.9295 4.18725 37 4.75522 37 5.5C37 6.24478 36.9295 6.81274 36.8316 7.24335C36.5872 8.31811 35.6274 8.7608 34.8426 8.79951C33.3355 8.87384 29.2705 9 19 9C8.72948 9 4.66448 8.87384 3.15743 8.79951C2.37263 8.7608 1.41283 8.31811 1.1684 7.24335C1.07047 6.81275 1 6.24478 1 5.5C1 4.75522 1.07047 4.18725 1.1684 3.75665C1.41283 2.68189 2.37263 2.2392 3.15743 2.20049C4.66448 2.12616 8.72948 2 19 2Z"></path><path fill="currentColor" d="M36 14C33.0376 14 30.8165 14.0841 29.2549 14.1787C27.0604 14.3117 25.333 15.9792 25.1788 18.1929C25.0818 19.5859 25 21.5016 25 24C25 26.4984 25.0819 28.4141 25.1788 29.8072C25.333 32.0208 27.0604 33.6883 29.2549 33.8213C30.8165 33.9159 33.0376 34 36 34C38.9624 34 41.1835 33.9159 42.7451 33.8213C44.9396 33.6883 46.667 32.0208 46.8212 29.8071C46.9182 28.4141 47 26.4984 47 24C47 21.5016 46.9182 19.5859 46.8212 18.1928C46.667 15.9792 44.9396 14.3117 42.7451 14.1787C41.1835 14.0841 38.9624 14 36 14Z"></path><path fill="currentColor" d="M11 14C15.4465 14 17.7127 14.0842 18.844 14.1568C19.8936 14.2242 20.8404 14.956 20.9467 16.1447C20.9784 16.4996 21 16.9448 21 17.5C21 18.0552 20.9784 18.5004 20.9467 18.8553C20.8404 20.044 19.8936 20.7758 18.844 20.8432C17.7127 20.9158 15.4465 21 11 21C6.55355 21 4.28735 20.9158 3.15602 20.8432C2.10645 20.7758 1.15962 20.044 1.05333 18.8553C1.02159 18.5004 1 18.0552 1 17.5C1 16.9448 1.02159 16.4996 1.05333 16.1447C1.15962 14.956 2.10645 14.2242 3.15602 14.1568C4.28735 14.0842 6.55354 14 11 14Z"></path><path fill="currentColor" d="M19 39C29.2705 39 33.3355 39.1262 34.8426 39.2005C35.6274 39.2392 36.5872 39.6819 36.8316 40.7566C36.9295 41.1873 37 41.7552 37 42.5C37 43.2448 36.9295 43.8127 36.8316 44.2433C36.5872 45.3181 35.6274 45.7608 34.8426 45.7995C33.3355 45.8738 29.2705 46 19 46C8.72948 46 4.66448 45.8738 3.15743 45.7995C2.37263 45.7608 1.41283 45.3181 1.1684 44.2433C1.07047 43.8127 1 43.2448 1 42.5C1 41.7552 1.07047 41.1873 1.1684 40.7567C1.41283 39.6819 2.37263 39.2392 3.15743 39.2005C4.66448 39.1262 8.72948 39 19 39Z"></path><path fill="currentColor" d="M11 27C15.4465 27 17.7127 27.0842 18.844 27.1568C19.8936 27.2242 20.8404 27.956 20.9467 29.1447C20.9784 29.4996 21 29.9448 21 30.5C21 31.0552 20.9784 31.5004 20.9467 31.8553C20.8404 33.044 19.8936 33.7758 18.844 33.8432C17.7127 33.9158 15.4465 34 11 34C6.55355 34 4.28735 33.9158 3.15602 33.8432C2.10645 33.7758 1.15962 33.044 1.05333 31.8553C1.02159 31.5004 1 31.0552 1 30.5C1 29.9448 1.02159 29.4996 1.05333 29.1447C1.15962 27.956 2.10645 27.2242 3.15602 27.1568C4.28735 27.0842 6.55354 27 11 27Z"></path></svg>