<svg xmlns="http://www.w3.org/2000/svg" fill="none" viewBox="0 0 48 48"><path fill="currentColor" d="M39.5111 10.0714H43.955C45.0596 10.0714 45.955 9.17593 45.955 8.07136V5.5C45.955 3.29086 44.1641 1.5 41.955 1.5H18.9397C10.5074 1.5 3 6.59641 3 15.5665C3 22.4736 7.66855 28.5534 14.8124 28.5534H15.8859V44.5002C15.8859 45.6048 16.7813 46.5002 17.8859 46.5002H21.4028C22.5074 46.5002 23.4028 45.6048 23.4028 44.5002V28.5534L23.4369 10.8125H28.0775V43.2854C28.0775 46.4996 30.7482 46.4996 34.3996 46.4996C35.2727 46.4996 36.1506 46.4236 37.0247 46.3098C38.4687 46.1218 39.5111 44.8517 39.5111 43.3956V10.0714Z"></path></svg>