<svg xmlns="http://www.w3.org/2000/svg" fill="none" viewBox="0 0 48 48"><path fill="currentColor" d="M34 2C27.4628 2 24.4763 2.10249 23.1603 2.17786C22.2124 2.23214 21.2406 2.84715 21.0861 4.01018C21.0352 4.39295 21 4.88099 21 5.5C21 6.119 21.0352 6.60705 21.0861 6.98981C21.2406 8.15285 22.2124 8.76785 23.1603 8.82214C24.4763 8.89751 27.4628 9 34 9C40.5372 9 43.5237 8.89751 44.8397 8.82214C45.7876 8.76786 46.7594 8.15285 46.9139 6.98982C46.9648 6.60705 47 6.11901 47 5.5C47 4.88099 46.9648 4.39295 46.9139 4.01018C46.7594 2.84715 45.7876 2.23214 44.8397 2.17786C43.5237 2.10249 40.5372 2 34 2Z"></path><path fill="currentColor" fill-rule="evenodd" d="M12.3157 19.25L12.8933 20.79C13.3296 21.9535 14.6265 22.5431 15.79 22.1067C16.9535 21.6704 17.5431 20.3735 17.1067 19.21L12.0431 5.70685C10.9886 2.89505 7.01135 2.89505 5.95693 5.70685L0.893259 19.21C0.456939 20.3735 1.04645 21.6704 2.20997 22.1067C3.37349 22.5431 4.67042 21.9535 5.10674 20.79L5.68425 19.25H12.3157ZM10.6282 14.75L9 10.408L7.37175 14.75H10.6282Z" clip-rule="evenodd"></path><path fill="currentColor" d="M24 39C9.81162 39 4.78634 39.1438 3.17262 39.2143C2.52191 39.2427 1.61896 39.5529 1.28734 40.5059C1.12327 40.9774 1 41.6236 1 42.5C1 43.3764 1.12327 44.0226 1.28734 44.4941C1.61896 45.4471 2.52191 45.7573 3.17262 45.7857C4.78634 45.8562 9.81162 46 24 46C38.1884 46 43.2137 45.8562 44.8274 45.7857C45.4781 45.7573 46.381 45.4471 46.7127 44.4941C46.8767 44.0226 47 43.3764 47 42.5C47 41.6236 46.8767 40.9774 46.7127 40.5059C46.381 39.5529 45.4781 39.2427 44.8274 39.2143C43.2137 39.1438 38.1884 39 24 39Z"></path><path fill="currentColor" d="M34 14C27.4628 14 24.4763 14.1025 23.1603 14.1779C22.2124 14.2321 21.2406 14.8472 21.0861 16.0102C21.0352 16.393 21 16.881 21 17.5C21 18.119 21.0352 18.607 21.0861 18.9898C21.2406 20.1528 22.2124 20.7679 23.1603 20.8221C24.4763 20.8975 27.4628 21 34 21C40.5372 21 43.5237 20.8975 44.8397 20.8221C45.7876 20.7679 46.7594 20.1528 46.9139 18.9898C46.9648 18.607 47 18.119 47 17.5C47 16.881 46.9648 16.393 46.9139 16.0102C46.7594 14.8472 45.7876 14.2321 44.8397 14.1779C43.5237 14.1025 40.5372 14 34 14Z"></path><path fill="currentColor" d="M24 27C9.81162 27 4.78634 27.1438 3.17262 27.2143C2.52191 27.2427 1.61896 27.5529 1.28734 28.5059C1.12327 28.9774 1 29.6236 1 30.5C1 31.3764 1.12327 32.0226 1.28734 32.4941C1.61896 33.4471 2.52191 33.7573 3.17262 33.7857C4.78634 33.8562 9.81162 34 24 34C38.1884 34 43.2137 33.8562 44.8274 33.7857C45.4781 33.7573 46.381 33.4471 46.7127 32.4941C46.8767 32.0226 47 31.3764 47 30.5C47 29.6236 46.8767 28.9774 46.7127 28.5059C46.381 27.5529 45.4781 27.2427 44.8274 27.2143C43.2137 27.1438 38.1884 27 24 27Z"></path></svg>