<svg xmlns="http://www.w3.org/2000/svg" fill="none" viewBox="0 0 48 48"><path fill="currentColor" fill-rule="evenodd" d="M1.95077 12.8168C1.71608 15.3424 1.5 19.0199 1.5 24C1.5 28.98 1.71608 32.6576 1.95076 35.1832C2.25729 38.4819 4.88871 40.8828 8.12464 41.084C11.3836 41.2866 16.5773 41.5 24 41.5C31.4227 41.5 36.6164 41.2866 39.8754 41.084C43.1113 40.8828 45.7427 38.482 46.0492 35.1832C46.2839 32.6576 46.5 28.9801 46.5 24C46.5 19.02 46.2839 15.3424 46.0492 12.8168C45.7427 9.51805 43.1113 7.11718 39.8754 6.91598C36.6164 6.71335 31.4227 6.5 24 6.5C16.5773 6.5 11.3836 6.71334 8.12465 6.91597C4.88873 7.11717 2.2573 9.51804 1.95077 12.8168ZM32.5 15.75C33.7426 15.75 34.75 16.7574 34.75 18V23.5337C35.4813 23.5581 36.0484 23.5931 36.4856 23.6307C37.2666 23.6977 37.9885 24.1392 38.3399 24.8886C38.69 25.6354 38.5697 26.4687 38.1312 27.1102C37.7542 27.662 37.1971 28.4195 36.3886 29.4083C35.3608 30.6653 34.5653 31.399 33.997 31.8288C33.1007 32.5068 31.8992 32.5066 31.0031 31.8287C30.435 31.3989 29.6395 30.6653 28.6117 29.4084C27.8029 28.4194 27.2457 27.6618 26.8686 27.11C26.4302 26.4684 26.31 25.6352 26.6601 24.8885C27.0115 24.1392 27.7334 23.6977 28.5142 23.6307C28.9514 23.5932 29.5186 23.5581 30.25 23.5337V18C30.25 16.7574 31.2574 15.75 32.5 15.75ZM12.1408 16.0327C13.0298 15.8703 13.9173 16.3243 14.3058 17.1403L16.5001 21.7483L18.6944 17.1403C19.0829 16.3243 19.9704 15.8703 20.8594 16.0327C21.7485 16.195 22.4182 16.9334 22.4932 17.8341L23.4932 29.8341C23.5849 30.9348 22.767 31.9015 21.6662 31.9932C20.5654 32.085 19.5987 31.267 19.507 30.1662L19.122 25.546L18.3058 27.26C17.9742 27.9565 17.2715 28.4001 16.5001 28.4001C15.7287 28.4001 15.026 27.9565 14.6944 27.26L13.8782 25.546L13.4932 30.1662C13.4015 31.267 12.4348 32.085 11.334 31.9932C10.2333 31.9015 9.41529 30.9348 9.50702 29.8341L10.507 17.8341C10.5821 16.9334 11.2518 16.195 12.1408 16.0327Z" clip-rule="evenodd"></path></svg>