<svg xmlns="http://www.w3.org/2000/svg" fill="none" viewBox="0 0 48 48"><path fill="currentColor" d="M24 2C38.1884 2 43.2137 2.14382 44.8274 2.21429C45.4781 2.2427 46.381 2.55288 46.7127 3.50589C46.8767 3.97738 47 4.62356 47 5.5C47 6.37644 46.8767 7.02262 46.7127 7.49411C46.381 8.44712 45.4781 8.75729 44.8274 8.78571C43.2137 8.85618 38.1884 9 24 9C9.81162 9 4.78634 8.85618 3.17262 8.78571C2.52191 8.75729 1.61895 8.44712 1.28733 7.49411C1.12327 7.02262 1 6.37644 1 5.5C1 4.62356 1.12327 3.97738 1.28733 3.50589C1.61895 2.55288 2.5219 2.24271 3.17262 2.21429C4.78634 2.14382 9.81161 2 24 2Z"></path><path fill="currentColor" d="M11.5 14C16.2816 14 18.6721 14.0874 19.8398 14.1608C20.8714 14.2255 21.8281 14.9367 21.942 16.1248C21.9765 16.484 22 16.9355 22 17.5C22 18.0645 21.9765 18.516 21.942 18.8752C21.8281 20.0633 20.8714 20.7745 19.8398 20.8392C18.6721 20.9126 16.2816 21 11.5 21C6.7184 21 4.32794 20.9126 3.16016 20.8393C2.1286 20.7745 1.17191 20.0633 1.05795 18.8752C1.02349 18.516 1 18.0645 1 17.5C1 16.9355 1.02349 16.484 1.05795 16.1248C1.17191 14.9367 2.1286 14.2255 3.16016 14.1608C4.32794 14.0874 6.71839 14 11.5 14Z"></path><path fill="currentColor" d="M36 14C33.0376 14 30.8165 14.0841 29.2549 14.1787C27.0604 14.3117 25.333 15.9792 25.1788 18.1929C25.0818 19.5859 25 21.5016 25 24C25 26.4984 25.0819 28.4141 25.1788 29.8072C25.333 32.0208 27.0604 33.6883 29.2549 33.8213C30.8165 33.9159 33.0376 34 36 34C38.9624 34 41.1835 33.9159 42.7451 33.8213C44.9396 33.6883 46.667 32.0208 46.8212 29.8071C46.9182 28.4141 47 26.4984 47 24C47 21.5016 46.9182 19.5859 46.8212 18.1928C46.667 15.9792 44.9396 14.3117 42.7451 14.1787C41.1835 14.0841 38.9624 14 36 14Z"></path><path fill="currentColor" d="M24 39C38.1884 39 43.2137 39.1438 44.8274 39.2143C45.4781 39.2427 46.381 39.5529 46.7127 40.5059C46.8767 40.9774 47 41.6236 47 42.5C47 43.3764 46.8767 44.0226 46.7127 44.4941C46.381 45.4471 45.4781 45.7573 44.8274 45.7857C43.2137 45.8562 38.1884 46 24 46C9.81162 46 4.78634 45.8562 3.17262 45.7857C2.52191 45.7573 1.61895 45.4471 1.28733 44.4941C1.12327 44.0226 1 43.3764 1 42.5C1 41.6236 1.12327 40.9774 1.28733 40.5059C1.61895 39.5529 2.5219 39.2427 3.17262 39.2143C4.78634 39.1438 9.81161 39 24 39Z"></path><path fill="currentColor" d="M11.5 27C16.2816 27 18.6721 27.0874 19.8398 27.1608C20.8714 27.2255 21.8281 27.9367 21.942 29.1248C21.9765 29.484 22 29.9355 22 30.5C22 31.0645 21.9765 31.516 21.942 31.8752C21.8281 33.0633 20.8714 33.7745 19.8398 33.8392C18.6721 33.9126 16.2816 34 11.5 34C6.7184 34 4.32794 33.9126 3.16016 33.8393C2.1286 33.7745 1.17191 33.0633 1.05795 31.8752C1.02349 31.516 1 31.0645 1 30.5C1 29.9355 1.02349 29.484 1.05795 29.1248C1.17191 27.9367 2.1286 27.2255 3.16016 27.1608C4.32794 27.0874 6.71839 27 11.5 27Z"></path></svg>