<svg xmlns="http://www.w3.org/2000/svg" fill="none" viewBox="0 0 48 48"><path fill="currentColor" d="M34 44.1458C37.8815 43.4301 41.2991 42.2811 43.3974 41.4847C45.3266 40.7526 46.5615 38.9584 46.6676 36.9514C46.8092 34.2709 47 29.3203 47 22.0996C47 15.196 46.8256 10.3675 46.6865 7.61415C46.5645 5.19818 44.139 3.77819 41.9973 4.53044C39.0459 5.56706 36.3928 6.26591 34.4795 6.70506C34.3139 6.74305 34.154 6.77908 34 6.8132V44.1458Z"></path><path fill="currentColor" d="M31 6.93984C27.7395 5.7321 24.5713 4.90414 22.1393 4.36627C20.7699 4.0634 19.6271 3.85103 18.8237 3.71396C18.4871 3.65654 18.2098 3.61228 18 3.58008V40.8094C21.1767 41.2978 24.3156 42.1378 26.741 42.8888C28.0581 43.2966 29.1549 43.675 29.9203 43.9507C30.3028 44.0885 30.6021 44.2004 30.8042 44.2773C30.8855 44.3082 30.9511 44.3335 31 44.3525V6.93984Z"></path><path fill="currentColor" d="M5.60256 6.5145C7.70085 5.71812 11.1185 4.56919 15 3.85345V41.186C14.846 41.2202 14.6861 41.2562 14.5205 41.2942C12.6072 41.7333 9.95408 42.4322 7.00273 43.4688C4.861 44.2211 2.43555 42.8011 2.31349 40.3851C2.17439 37.6317 2 32.8032 2 25.8996C2 18.6789 2.19078 13.7283 2.33241 11.0479C2.43847 9.04088 3.6734 7.24669 5.60256 6.5145Z"></path></svg>