<svg xmlns="http://www.w3.org/2000/svg" fill="none" viewBox="0 0 48 48"><path fill="currentColor" d="M19 1.5C11.6492 1.5 7.61365 2.02234 5.44709 2.50148C3.39875 2.95448 2.24321 4.67416 2.03309 6.4857C1.79719 8.51954 1.5 11.8615 1.5 15.8C1.5 21.3947 3.63576 26.7591 7.44903 30.6557C6.95197 27.3399 7.14049 23.9091 8.02634 20.6031C9.0831 16.6592 10.2762 13.3954 11.0607 11.4154C12.0987 8.79607 14.6746 6.39802 18.311 6.55868C20.8263 6.6698 25.0906 7.26518 32.3054 9.19837C33.7712 9.59112 35.1039 9.97081 36.3158 10.3363C36.2129 8.79425 36.0826 7.48278 35.9669 6.4857C35.7568 4.67416 34.6012 2.95448 32.5529 2.50148C30.3863 2.02234 26.3508 1.5 19 1.5Z"></path><path fill="currentColor" fill-rule="evenodd" d="M18.178 9.55621C20.3948 9.65415 24.428 10.1941 31.5283 12.0966C38.6287 13.9991 42.3915 15.5482 44.3603 16.5717C46.2215 17.5394 46.8926 19.4996 46.6267 21.3038C46.3282 23.3294 45.7503 26.6344 44.7309 30.4387C42.7279 37.9142 36.8913 43.9062 29.2405 45.5649C26.8799 46.0767 24.3279 46.4019 22.4697 45.904C20.6115 45.4061 18.564 43.8485 16.7755 42.2249C10.9791 36.963 8.92047 28.8555 10.9235 21.38C11.9429 17.5758 13.0949 14.4246 13.8492 12.5211C14.521 10.8256 16.0822 9.46362 18.178 9.55621ZM30.2377 24.5151C30.8607 25.3305 31.7258 25.1173 32.4799 24.7164C32.6172 24.6434 32.8243 24.5512 33.0814 24.4879C33.5694 24.3678 34.272 24.3382 35.1217 24.8288C35.9714 25.3194 36.2971 25.9426 36.4371 26.4253C36.5108 26.6796 36.5345 26.905 36.5399 27.0605C36.5698 27.9141 36.8177 28.7698 37.8353 28.9016C38.6883 29.0121 39.4458 28.3608 39.5243 27.5266C39.5347 27.417 39.5473 27.2195 39.5381 26.9555C39.5259 26.6059 39.4744 26.1281 39.3184 25.5899C38.9988 24.4876 38.2463 23.1687 36.6217 22.2307C34.997 21.2927 33.4786 21.3005 32.3642 21.5749C31.8201 21.7089 31.3806 21.9032 31.0717 22.0674C30.8384 22.1914 30.6737 22.3012 30.584 22.3649C29.9009 22.8499 29.7155 23.8316 30.2377 24.5151ZM26.4383 23.4979C27.2323 23.167 27.5624 22.2238 27.2135 21.4626C27.1677 21.3625 27.0799 21.1852 26.9399 20.9611C26.7544 20.6645 26.471 20.2764 26.0668 19.8883C25.2389 19.0935 23.9278 18.3276 22.0518 18.3276C20.1758 18.3276 18.8647 19.0935 18.0368 19.8883C17.6326 20.2764 17.3492 20.6645 17.1637 20.9611C17.0705 21.1104 17.0002 21.2394 16.9503 21.3379C16.9254 21.3872 16.9054 21.4292 16.8901 21.4626C16.5411 22.2241 16.8713 23.1671 17.6654 23.4979C18.4234 23.8138 19.293 23.4611 19.6185 22.7101C19.6245 22.6973 19.6538 22.6374 19.7077 22.5511C19.7902 22.4192 19.9234 22.2359 20.1144 22.0525C20.477 21.7045 21.0706 21.3276 22.0518 21.3276C23.033 21.3276 23.6266 21.7045 23.9892 22.0525C24.1802 22.2359 24.3134 22.4192 24.3959 22.5511C24.8485 23.2753 25.491 23.8926 26.4383 23.4979ZM20.9469 29.8678C20.8265 29.0482 20.0644 28.4814 19.2447 28.6019C18.4251 28.7224 17.8584 29.4845 17.9788 30.3041C18.2516 32.16 19.0392 34.1065 20.0903 35.6892C21.1103 37.2252 22.5551 38.6791 24.2832 39.1421C26.0113 39.6052 27.9895 39.0685 29.6408 38.2483C31.3424 37.4031 32.9977 36.1112 34.162 34.6404C34.6761 33.9909 34.5664 33.0475 33.9169 32.5333C33.2673 32.0191 32.3239 32.1288 31.8097 32.7784C30.9457 33.8699 29.6512 34.8934 28.3063 35.5614C26.9113 36.2543 25.7464 36.4283 25.0597 36.2443C24.373 36.0603 23.4511 35.3271 22.5894 34.0296C21.7587 32.7786 21.1494 31.245 20.9469 29.8678Z" clip-rule="evenodd"></path></svg>