<svg xmlns="http://www.w3.org/2000/svg" fill="none" viewBox="0 0 48 48"><path fill="currentColor" fill-rule="evenodd" d="M7.33205 5.96074C10.353 5.73471 15.5275 5.5 24 5.5C32.4725 5.5 37.6471 5.73471 40.668 5.96074C43.6014 6.18023 45.8927 8.32548 46.1699 11.3073C46.2926 12.6275 46.4116 14.3522 46.4974 16.5745C46.5625 18.261 45.4215 19.4905 44.3511 20.1111C42.9982 20.8954 42.0992 22.3463 42.0992 24C42.0992 25.6537 42.9982 27.1046 44.3511 27.8889C45.4215 28.5095 46.5625 29.739 46.4974 31.4255C46.4116 33.6478 46.2926 35.3725 46.1699 36.6927C45.8928 39.6745 43.6014 41.8198 40.668 42.0393C37.6471 42.2653 32.4725 42.5 24 42.5C15.5275 42.5 10.353 42.2653 7.33204 42.0393C4.3986 41.8198 2.10729 39.6745 1.83015 36.6927C1.70746 35.3725 1.58842 33.6477 1.50266 31.4254C1.43758 29.7389 2.57841 28.5094 3.64879 27.8888C5.00163 27.1045 5.90051 25.6536 5.90051 24C5.90051 22.3464 5.00163 20.8955 3.64879 20.1112C2.57841 19.4906 1.43758 18.2611 1.50266 16.5746C1.58842 14.3523 1.70746 12.6275 1.83015 11.3073C2.10729 8.32548 4.3986 6.18023 7.33205 5.96074ZM20.5379 17.0787C20.8659 14.4541 22.1033 13.042 23.0054 12.3444C23.5992 11.8852 24.4008 11.8852 24.9946 12.3444C25.8967 13.042 27.1341 14.4541 27.4621 17.0787C27.4002 17.8832 27.333 18.6753 27.2625 19.4469L33.392 22.6576C34.3806 23.1754 35 24.1991 35 25.3151V26.4407C35 26.9715 34.4919 27.3547 33.9816 27.2089L26.6576 25.1163C26.3004 28.0616 26 30.0001 26 30.0001L28.6433 32.2658C29.175 32.7216 29.4296 33.4223 29.3144 34.1131L29.1186 35.2885C29.0596 35.642 28.6755 35.8376 28.355 35.6773L24 33.4999L19.645 35.6773C19.3245 35.8376 18.9404 35.642 18.8814 35.2885L18.6855 34.1131C18.5704 33.4223 18.825 32.7216 19.3567 32.2658L22 30.0001C22 30.0001 21.6996 28.0616 21.3424 25.1163L14.0184 27.2089C13.5081 27.3547 13 26.9715 13 26.4407V25.3151C13 24.1991 13.6194 23.1754 14.608 22.6576L20.7375 19.4469C20.667 18.6753 20.5998 17.8832 20.5379 17.0787Z" clip-rule="evenodd"></path></svg>