<svg xmlns="http://www.w3.org/2000/svg" fill="none" viewBox="0 0 48 48"><path fill="currentColor" fill-rule="evenodd" d="M13.246 2.155C15.37 1.819 18.764 1.5 24 1.5c5.235 0 8.63.32 10.754.655 2.645.418 4.01 2.832 3.741 5.195l-.732 6.424a55.27 55.27 0 0 0-5.858-.274c-1.936.006-3.19 1.564-3.74 2.723a3.19 3.19 0 0 1-1.174 1.341c-.593.382-1.522.72-2.991.72-1.45 0-2.373-.329-2.967-.704a3.186 3.186 0 0 1-1.18-1.319c-.575-1.175-1.884-2.749-3.854-2.707-2.306.048-4.22.177-5.75.327L9.504 7.35c-.27-2.363 1.096-4.777 3.742-5.195ZM33.5 9a1.5 1.5 0 0 1-1.5 1.5H16a1.5 1.5 0 0 1 0-3h16A1.5 1.5 0 0 1 33.5 9ZM9.169 17.02c-1.436.463-2.635 1.506-3.175 2.98H3a2 2 0 1 0 0 4h2.512a34.65 34.65 0 0 0-.012.928v.534a.537.537 0 0 1-.054.234c-.526 1.094-1.969 4.16-3.17 7.305-.544 1.424-.776 2.917-.776 4.39v3.27c0 2.854 2.192 5.256 5.092 5.399 3.43.168 9.233.368 17.408.368s13.978-.2 17.408-.368c2.9-.143 5.092-2.545 5.092-5.399v-3.272c0-1.471-.232-2.964-.776-4.387-1.2-3.145-2.644-6.212-3.17-7.306a.537.537 0 0 1-.054-.234v-.534c0-.32-.004-.63-.012-.928H45a2 2 0 0 0 0-4h-2.994c-.653-1.782-2.27-2.936-4.105-3.193a5.972 5.972 0 0 0-.406-.042 140.437 140.437 0 0 0-5.701-.246.928.928 0 0 0-.337.197 2.417 2.417 0 0 0-.581.792 6.19 6.19 0 0 1-2.262 2.58c-1.154.742-2.668 1.195-4.614 1.195-1.919 0-3.419-.44-4.568-1.166a6.185 6.185 0 0 1-2.274-2.538 2.472 2.472 0 0 0-.612-.81c-.222-.182-.384-.218-.483-.216-3.002.063-5.294.267-6.894.467ZM37 26a1.5 1.5 0 0 1-1.5 1.5h-2a1.5 1.5 0 0 1 0-3h2A1.5 1.5 0 0 1 37 26Zm-8.5 1.5a1.5 1.5 0 0 0 0-3h-2a1.5 1.5 0 0 0 0 3h2ZM23 26a1.5 1.5 0 0 1-1.5 1.5h-2a1.5 1.5 0 0 1 0-3h2A1.5 1.5 0 0 1 23 26Zm-8.5 1.5a1.5 1.5 0 0 0 0-3h-2a1.5 1.5 0 0 0 0 3h2Zm24 4.5a1.5 1.5 0 0 1-1.5 1.5h-2a1.5 1.5 0 0 1 0-3h2a1.5 1.5 0 0 1 1.5 1.5ZM29 33.5a1.5 1.5 0 0 0 0-3h-2a1.5 1.5 0 0 0 0 3h2ZM22.5 32a1.5 1.5 0 0 1-1.5 1.5h-2a1.5 1.5 0 0 1 0-3h2a1.5 1.5 0 0 1 1.5 1.5ZM13 33.5a1.5 1.5 0 0 0 0-3h-2a1.5 1.5 0 0 0 0 3h2ZM34.5 38a1.5 1.5 0 0 1-1.5 1.5H15a1.5 1.5 0 0 1 0-3h18a1.5 1.5 0 0 1 1.5 1.5Z" clip-rule="evenodd"/></svg>