<svg xmlns="http://www.w3.org/2000/svg" fill="none" viewBox="0 0 48 48"><path fill="currentColor" d="M17.1512 17.583L17.4431 28.4625C17.5098 30.9521 19.2483 33.6082 22.3287 33.9156C22.8328 33.966 23.3958 33.9998 24.0002 33.9998C24.6046 33.9998 25.1674 33.966 25.6714 33.9157C28.7518 33.6082 30.4899 30.9521 30.5567 28.4629L30.8488 17.583C34.5173 17.6767 37.3061 17.8358 39.299 17.9877C42.2964 18.216 44.7732 20.3883 45.1047 23.4896C45.3179 25.484 45.5 28.277 45.5 31.9999C45.5 35.7227 45.3179 38.5157 45.1047 40.5101C44.7732 43.6115 42.2964 45.7837 39.299 46.0121C36.2124 46.2472 31.2167 46.4999 24 46.4999C16.7833 46.4999 11.7876 46.2472 8.70097 46.0121C5.70359 45.7837 3.22681 43.6115 2.89529 40.5101C2.6821 38.5157 2.5 35.7227 2.5 31.9999C2.5 28.277 2.6821 25.484 2.89529 23.4896C3.22681 20.3882 5.70359 18.216 8.70098 17.9877C10.6939 17.8358 13.4826 17.6767 17.1512 17.583Z"></path><path fill="currentColor" d="M15.4294 10.4028C14.1178 11.884 14.9295 13.7551 16.9054 13.854C17.7687 13.8971 18.8083 13.9351 20.0551 13.9615L20.4419 28.3822C20.4766 29.6738 21.3408 30.8023 22.6266 30.9306C23.0441 30.9723 23.5069 30.9999 24.0002 30.9999C24.4934 30.9999 24.9561 30.9723 25.3735 30.9306C26.659 30.8023 27.5231 29.674 27.5577 28.3825L27.9449 13.9615C29.1909 13.9351 30.23 13.8972 31.0931 13.854C33.0694 13.7552 33.8811 11.8835 32.5693 10.402C31.896 9.6416 31.0516 8.73072 29.9999 7.65876C28.0232 5.6441 26.5348 4.48288 25.5349 3.8236C24.5822 3.19546 23.4176 3.19553 22.465 3.82374C21.4651 4.48303 19.9768 5.64424 17.9999 7.65876C16.9475 8.73111 16.1028 9.64227 15.4294 10.4028Z"></path></svg>