<svg xmlns="http://www.w3.org/2000/svg" fill="none" viewBox="0 0 48 48"><path fill="currentColor" fill-rule="evenodd" d="M24 1.5C11.5736 1.5 1.5 11.5736 1.5 24C1.5 36.4264 11.5736 46.5 24 46.5C36.4264 46.5 46.5 36.4264 46.5 24C46.5 11.5736 36.4264 1.5 24 1.5ZM22 20.5C22 23.181 20.3768 25.4829 18.0596 26.4766C19.5957 26.9697 20.9699 27.8241 22.0822 28.9398C20.7648 30.9728 19.9998 33.3971 19.9998 36V41.5539C14.478 40.3009 9.92043 36.5094 7.61884 31.4712C7.20088 30.5563 7.35923 29.4713 8.08579 28.7757C9.31857 27.5955 10.8529 26.7277 12.5616 26.2995C10.4482 25.2266 9 23.0324 9 20.5C9 16.9101 11.9101 14 15.5 14C19.0899 14 22 16.9101 22 20.5ZM26 20.5C26 23.1811 27.6232 25.483 29.9405 26.4767C25.9142 27.7692 23 31.5443 23 36V40.9722C23 41.5334 23.4388 42 24 42C31.2758 42 37.5434 37.6831 40.3812 31.4709C40.7991 30.556 40.6408 29.471 39.9141 28.7754C38.6814 27.5953 37.1471 26.7276 35.4385 26.2994C37.5518 25.2265 39 23.0324 39 20.5C39 16.9101 36.0899 14 32.5 14C28.9101 14 26 16.9101 26 20.5Z" clip-rule="evenodd"></path></svg>