<svg xmlns="http://www.w3.org/2000/svg" fill="none" viewBox="0 0 48 48"><path fill="currentColor" fill-rule="evenodd" d="M7.5 16C7.5 9.649 12.648 4.5 19 4.5c6.35 0 11.5 5.149 11.5 11.5a11.49 11.49 0 0 1-5.306 9.69c4.824 1.802 8.6 5.511 10.124 10.173 1.123 3.437-1.418 6.422-4.599 6.891-2.624.388-6.568.746-12.179.746-5.611 0-9.555-.358-12.179-.746-3.18-.469-5.722-3.454-4.598-6.89 1.586-4.854 5.613-8.675 10.722-10.386A11.488 11.488 0 0 1 7.5 16Zm30.669 18.931c1.113 3.407-.025 6.405-2.113 8.386a66.272 66.272 0 0 0 5.663-.563c3.18-.469 5.722-3.454 4.599-6.89-1.524-4.663-5.3-8.372-10.124-10.173A11.491 11.491 0 0 0 41.5 16c0-6.351-5.15-11.5-11.5-11.5-.667 0-1.32.057-1.956.166A14.473 14.473 0 0 1 33.499 16a14.44 14.44 0 0 1-3.109 8.972c3.62 2.364 6.425 5.816 7.779 9.96Z" clip-rule="evenodd"/></svg>