<svg xmlns="http://www.w3.org/2000/svg" fill="none" viewBox="0 0 48 48"><path fill="currentColor" fill-rule="evenodd" d="M1.5 24C1.5 11.5736 11.5736 1.5 24 1.5C36.4264 1.5 46.5 11.5736 46.5 24C46.5 36.4264 36.4264 46.5 24 46.5C11.5736 46.5 1.5 36.4264 1.5 24ZM36.409 20.9999C36.409 26.1447 33.2781 30.5582 28.8178 32.439C30.8841 33.2809 32.6772 34.6481 34.0284 36.3731C34.9625 37.5655 34.4883 39.2601 33.1245 39.9191C30.3651 41.2525 27.2696 41.9999 23.9995 41.9999C20.7294 41.9999 17.6338 41.2525 14.8744 39.9191C13.5106 39.2601 13.0365 37.5655 13.9705 36.3731C15.3218 34.648 17.1151 33.2807 19.1816 32.4389C14.7215 30.5579 11.5908 26.1445 11.5908 20.9999C11.5908 14.1466 17.1466 8.59082 23.9999 8.59082C30.8533 8.59082 36.409 14.1466 36.409 20.9999Z" clip-rule="evenodd"></path></svg>