<svg xmlns="http://www.w3.org/2000/svg" fill="none" viewBox="0 0 48 48"><path fill="currentColor" d="M21 40.5C15.0974 40.5 10.8316 40.2938 8.00262 40.0814C4.70627 39.8338 2.16617 37.2937 1.91862 33.9974C1.70616 31.1684 1.5 26.9026 1.5 21C1.5 15.0974 1.70616 10.8316 1.91862 8.00262C2.16617 4.70627 4.70628 2.16617 8.00262 1.91862C10.8316 1.70616 15.0974 1.5 21 1.5C26.9026 1.5 31.1684 1.70616 33.9974 1.91862C37.2937 2.16618 39.8338 4.70628 40.0814 8.00262C40.2896 10.7747 40.4917 14.9262 40.4997 20.6453C39.412 20.2282 38.2318 20 37.0001 20C33.5581 20 30.5182 21.7821 28.7745 24.4887C27.8838 23.6244 26.8432 22.9078 25.6946 22.3793C27.321 21.0298 28.3569 18.9931 28.3569 16.7146C28.3569 12.6513 25.063 9.35742 20.9997 9.35742C16.9365 9.35742 13.6426 12.6513 13.6426 16.7146C13.6426 18.9935 14.6787 21.0304 16.3056 22.3799C13.6376 23.6079 11.5528 25.8505 10.5748 28.6033C9.99003 30.2494 10.8725 32.2797 12.7956 32.4237C12.8262 32.426 12.8568 32.4281 12.8875 32.4299C14.854 32.5463 17.5319 32.6431 21.0004 32.6431C22.5624 32.6431 23.9642 32.6235 25.2128 32.5913C24.8641 33.3573 24.6502 34.2076 24.5973 35.1161C24.5393 36.1116 24.5 37.3817 24.5 39C24.5 39.5269 24.5048 40.0175 24.5137 40.4744C23.4138 40.4909 22.2432 40.5 21 40.5Z"></path><path fill="currentColor" fill-rule="evenodd" d="M37 23C33.3663 23 30.3789 25.8655 30.2276 29.4961L30.128 31.888C28.6672 32.3712 27.6883 33.6398 27.5922 35.2906C27.5382 36.218 27.5 37.429 27.5 39C27.5 40.7212 27.5534 42.0114 27.6262 42.971C27.767 44.8282 29.0986 46.1336 30.9417 46.2929C32.2555 46.4064 34.1901 46.5 37 46.5C39.8099 46.5 41.7445 46.4064 43.0583 46.2929C44.9014 46.1336 46.233 44.8282 46.3738 42.971C46.4466 42.0114 46.5 40.7212 46.5 39C46.5 37.2788 46.4466 35.9886 46.3738 35.029C46.2547 33.4578 45.2833 32.2815 43.8709 31.8601L43.7724 29.4961C43.6212 25.8655 40.6338 23 37 23ZM37 31.5C38.0746 31.5 39.0212 31.5137 39.854 31.537L39.7759 29.6626C39.7139 28.1745 38.4894 27 37 27C35.5106 27 34.2862 28.1745 34.2242 29.6626L34.1461 31.5368C34.9805 31.5136 35.9273 31.5 37 31.5ZM38.5 38C38.5 37.1716 37.8284 36.5 37 36.5C36.1716 36.5 35.5 37.1716 35.5 38V40C35.5 40.8284 36.1716 41.5 37 41.5C37.8284 41.5 38.5 40.8284 38.5 40V38Z" clip-rule="evenodd"></path></svg>