<svg xmlns="http://www.w3.org/2000/svg" fill="none" viewBox="0 0 48 48"><path fill="currentColor" fill-rule="evenodd" d="M34.598 46.28a9.512 9.512 0 0 0 2.598-5.955c.163-2.417.305-5.818.305-10.325s-.142-7.909-.305-10.325c-.323-4.806-4.065-8.547-8.87-8.87-2.417-.163-5.818-.305-10.325-.305-4.508 0-7.909.142-10.326.305a9.512 9.512 0 0 0-5.955 2.598c.095-2.122.21-3.87.324-5.267.268-3.288 2.804-5.825 6.092-6.092C11.408 1.778 16.6 1.5 24.001 1.5s12.592.278 15.864.544c3.288.267 5.825 2.804 6.092 6.092.265 3.271.544 8.463.544 15.864 0 7.401-.279 12.593-.544 15.864-.267 3.288-2.804 5.825-6.092 6.092-1.398.114-3.146.23-5.267.325Zm-11.623.156c1.439-1.563 2.34-3.633 2.438-5.944.052-1.236.088-2.727.088-4.492 0-1.765-.036-3.256-.088-4.492-.207-4.898-4.023-8.713-8.92-8.92A106.583 106.583 0 0 0 12 22.5c-1.765 0-3.256.036-4.492.088-2.311.098-4.381.999-5.945 2.438.056-2.07.142-3.78.235-5.15.222-3.307 2.77-5.856 6.078-6.078 2.345-.158 5.68-.298 10.124-.298 4.444 0 7.778.14 10.124.298 3.307.222 5.855 2.771 6.078 6.078.158 2.346.298 5.68.298 10.124 0 4.444-.14 7.778-.298 10.124-.223 3.307-2.771 5.856-6.078 6.078-1.371.092-3.08.178-5.15.234Zm-15.34-.021c1.193.05 2.641.085 4.366.085 1.724 0 3.172-.035 4.365-.085 3.34-.142 5.908-2.71 6.05-6.05.05-1.192.084-2.64.084-4.365 0-1.724-.035-3.173-.085-4.365-.141-3.34-2.709-5.908-6.05-6.05-1.192-.05-2.64-.085-4.364-.085-1.725 0-3.173.035-4.366.085-3.34.142-5.908 2.71-6.05 6.05A103.64 103.64 0 0 0 1.5 36c0 1.724.035 3.173.086 4.365.141 3.34 2.709 5.908 6.05 6.05Z" clip-rule="evenodd"/></svg>