<svg clip-rule="evenodd" fill-rule="evenodd" stroke-linecap="round" stroke-linejoin="round" viewBox="0 0 14 14" xmlns="http://www.w3.org/2000/svg"><g fill="none" stroke="#000" transform="matrix(.83362 0 0 .83362 1.16466 1.16466)"><path d="m12.853 11.563c.096-1.471.147-2.998.147-4.563 0-.426-.004-.849-.011-1.269-.014-.784-.265-1.549-.746-2.169-.825-1.064-1.559-1.798-2.696-2.664-.317-.242-.704-.373-1.103-.382-.456-.011-.933-.016-1.444-.016-1.541 0-2.771.048-4.061.139-.964.068-1.729.834-1.792 1.798-.096 1.471-.147 2.998-.147 4.563s.051 3.092.147 4.563c.063.964.828 1.73 1.792 1.798 1.29.091 2.52.139 4.061.139s2.771-.048 4.061-.139c.964-.068 1.73-.834 1.792-1.798z"/><path d="m7 4.5v5m2.5-2.5h-5"/></g></svg>