<svg xmlns="http://www.w3.org/2000/svg" fill="none" viewBox="0 0 14 14"><path stroke="currentColor" stroke-linecap="round" stroke-linejoin="round" d="M2.16679 12.6725c0.02924 0.4808 0.39927 0.8812 0.87016 0.8216C4.30674 13.3335 5.63407 12.5226 7 11.6209c1.36594 0.9017 2.69326 1.7126 3.9631 1.8732 0.4708 0.0596 0.8409 -0.3408 0.8701 -0.8216 0.214 -3.51831 0.2221 -6.88684 0.0243 -10.39385 -0.0407 -0.72137 -0.5902 -1.306041 -1.2935 -1.417327C9.47742 0.689389 8.36876 0.5 7 0.5 5.63125 0.5 4.52258 0.689389 3.43599 0.861323c-0.7033 0.111285 -1.25282 0.695957 -1.2935 1.417327 -0.19777 3.50701 -0.18967 6.87554 0.0243 10.39385Z" stroke-width="1"/><path stroke="currentColor" stroke-linecap="round" stroke-linejoin="round" d="M7 3.75v5" stroke-width="1"/><path stroke="currentColor" stroke-linecap="round" stroke-linejoin="round" d="m9.5 6.25 -5 0" stroke-width="1"/></svg>