<svg xmlns="http://www.w3.org/2000/svg" fill="none" viewBox="0 0 14 14"><path stroke="currentColor" stroke-linecap="round" stroke-linejoin="round" d="M8.47729 5.91168c0.10843 0.0105 0.22108 0.0158 0.33784 0.0158 1.44777 0 2.26217 -0.81437 2.26217 -2.26214 0 -1.38214 -0.7422 -2.187 -2.06919 -2.25714" stroke-width="1"/><path stroke="currentColor" stroke-linecap="round" stroke-linejoin="round" d="M4.91073 5.48406c1.5949 0 2.49203 -0.89713 2.49203 -2.49203C7.40276 1.39713 6.50563 0.5 4.91073 0.5c-1.5949 0 -2.49203 0.89713 -2.49203 2.49203 0 1.5949 0.89713 2.49203 2.49203 2.49203Z" stroke-width="1"/><path stroke="currentColor" stroke-linecap="round" stroke-linejoin="round" d="M11 8.5v5M8.5 11h5" stroke-width="1"/><path stroke="currentColor" stroke-linecap="round" stroke-linejoin="round" d="M6.28125 10.6261H2.15898c-1.464604 0 -2.287723 -1.56588 -1.06874 -2.37775 1.0934 -0.72824 2.40651 -1.15265 3.81875 -1.15265 1.41224 0 2.72536 0.42441 3.81876 1.15265 0.21716 0.14463 0.36951 0.31319 0.46497 0.49257" stroke-width="1"/></svg>