<svg viewBox="0 0 17 15" version="1.1" xmlns="http://www.w3.org/2000/svg" xmlns:xlink="http://www.w3.org/1999/xlink"><g transform="translate(1 1)" stroke="currentColor" stroke-width="1" fill="none" fill-rule="evenodd" stroke-linejoin="round"><path d="M2.42941714,4.16541714 L0.615085714,5.11004571 C0.237097143,5.30683429 -8.8817842e-16,5.69758857 -8.8817842e-16,6.12373714 L-8.8817842e-16,9.74348571 C-8.8817842e-16,10.1226514 0.186980571,10.4787657 0.506197714,10.6832229 C1.69249143,11.4433371 2.92226286,12.0808229 4.22620571,12.6193371 C4.52318857,12.7419657 4.85844571,12.7259657 5.14617143,12.5829943 C8.21458286,11.0578514 11.25336,9.48064 14.2620457,7.84113143 C14.62856,7.64146286 14.8558743,7.25715429 14.8558743,6.83986286 L14.8558743,3.28884571 C14.8558743,2.86361143 14.61976,2.47354286 14.2430743,2.27633143 L11.7110743,0.950891429 M5.14542857,2.75132571 L7.65348571,1.44552"/><path d="M14.8558743,2.59709714 C11.65336,4.35333714 8.41656,6.03795429 5.14617143,7.66355429 C4.85844571,7.80657143 4.52318857,7.82249143 4.22620571,7.69984 C2.73585143,7.08437714 1.34238857,6.3396 -8.8817842e-16,5.43024"/><line x1="4.69426286" y1="7.88728" x2="4.69426286" y2="12.4922514" stroke-linecap="round"/><path d="M9.71733714,2.74006857 C11.01256,2.74006857 11.7411314,2.24685714 11.7411314,1.37003429 C11.7411314,0.493211429 11.01256,0 9.71733714,0 C8.42208,0 7.69349714,0.493211429 7.69349714,1.37003429 C7.69349714,2.24685714 8.42208,2.74006857 9.71733714,2.74006857 L9.71733714,2.74006857 Z" stroke-linecap="round"/><path d="M4.45059429,5.48002286 C5.74585143,5.48002286 6.47443429,4.98681143 6.47443429,4.10998857 C6.47443429,3.23316571 5.74585143,2.73995429 4.45059429,2.73995429 C3.15533714,2.73995429 2.42675429,3.23316571 2.42675429,4.10998857 C2.42675429,4.98681143 3.15533714,5.48002286 4.45059429,5.48002286 Z" stroke-linecap="round"/></g></svg>