<svg xmlns="http://www.w3.org/2000/svg" fill="none" viewBox="0 0 14 14"><desc>Ai Prompt Spark Streamline Icon: https://streamlinehq.com</desc><g stroke="currentColor" stroke-linecap="round" stroke-linejoin="round"><path d="M5.215 4.617H.675l.027-.257a3.004 3.004 0 0 1 2.64-2.647c1.026-.115 2.08-.213 3.154-.213q.159 0 .317.003M.675 4.62l-.007.063C.574 5.602.5 6.542.5 7.498s.074 1.897.168 2.815a3.4 3.4 0 0 0 3 3.01c.925.098 1.871.177 2.834.177s1.909-.079 2.833-.177a3.4 3.4 0 0 0 3.001-3.01c.074-.722.141-1.77.164-2.516v-.838"/><path d="M3.694 7.053 5.31 8.67l-1.616 1.615m3.927-1.616h1.515m.118-6.156C9.952 1.814 10.084.5 10.375.5s.423 1.314 1.121 2.013 2.004.772 2.004 1.112-1.305.414-2.004 1.112-.83 2.013-1.12 2.013c-.292 0-.424-1.314-1.122-2.013S7.25 3.965 7.25 3.625s1.305-.414 2.004-1.112"/></g></svg>