<svg xmlns="http://www.w3.org/2000/svg" fill="none" viewBox="0 0 14 14"><g stroke="currentColor" stroke-linecap="round" stroke-linejoin="round"><path d="m13.25 13.25-2.235-2.236M6.625 12.5c3.76 0 5.875-2.115 5.875-5.875S10.385.75 6.625.75.75 2.865.75 6.625 2.865 12.5 6.625 12.5"/><path d="M5.46 5.469c.726-.727.862-2.093 1.165-2.093s.44 1.366 1.165 2.093 2.083.803 2.083 1.156-1.357.43-2.083 1.156c-.726.727-.862 2.093-1.165 2.093s-.44-1.366-1.166-2.093-2.083-.803-2.083-1.156 1.357-.43 2.083-1.156"/></g></svg>
