<svg xmlns="http://www.w3.org/2000/svg" fill="none" viewBox="0 0 14 14"><path stroke="currentColor" stroke-linecap="round" stroke-linejoin="round" d="M4.95197 2.26926c-0.44889 -0.44889 -0.51837 -0.86068 -0.84447 -1.27564 -0.25527 -0.324827 -0.73854 -0.324827 -0.99381 0 -0.3261 0.41496 -0.39558 0.82675 -0.84447 1.27564 -0.44889 0.44888 -0.86068 0.51837 -1.275636 0.84446 -0.324826 0.25527 -0.324826 0.73855 0 0.99382 0.414956 0.3261 0.826726 0.39559 1.275606 0.84447 0.44888 0.44888 0.51837 0.86068 0.84446 1.27563 0.25527 0.32483 0.73855 0.32483 0.99382 0 0.32609 -0.41495 0.39558 -0.82675 0.84446 -1.27563 0.44889 -0.44889 0.86068 -0.51837 1.27564 -0.84447 0.32483 -0.25527 0.32483 -0.73855 0 -0.99382 -0.41496 -0.32609 -0.82672 -0.39558 -1.2756 -0.84446Z" stroke-width="1"/><path stroke="currentColor" stroke-linecap="round" stroke-linejoin="round" d="M11.048 7.15973c-0.6506 -0.6506 -0.7514 -1.24744 -1.22399 -1.84887 -0.36998 -0.47079 -1.07043 -0.4708 -1.4404 0 -0.47264 0.60143 -0.57335 1.19827 -1.22395 1.84887 -0.65061 0.65061 -1.24745 0.75131 -1.84887 1.22395 -0.4708 0.36998 -0.4708 1.07043 0 1.44041 0.60142 0.47261 1.19823 0.57331 1.84882 1.22391 0.6506 0.6506 0.75131 1.2475 1.22394 1.8489 0.36998 0.4708 1.07043 0.4708 1.44041 0 0.47264 -0.6014 0.57334 -1.1983 1.22394 -1.8489 0.6506 -0.6506 1.2475 -0.7513 1.8489 -1.22391 0.4708 -0.36998 0.4708 -1.07043 0 -1.44041 -0.6014 -0.47264 -1.1982 -0.57335 -1.8488 -1.22395Z" stroke-width="1"/></svg>