<svg xmlns="http://www.w3.org/2000/svg" fill="none" viewBox="0 0 14 14"><desc>Ai Spark Starlight Streamline Icon: https://streamlinehq.com</desc><g stroke="currentColor" stroke-linecap="round" stroke-linejoin="round"><path d="m.75.75 1.809 1.809M.75 13.25l1.809-1.809M13.25.75l-1.809 1.809M13.25 13.25l-1.809-1.809M5.296 5.308C6.358 4.247 6.557 2.25 7 2.25s.642 1.997 1.704 3.058c1.061 1.062 3.045 1.174 3.045 1.69 0 .518-1.984.63-3.045 1.691C7.642 9.751 7.443 11.748 7 11.748S6.358 9.75 5.296 8.689C4.235 7.628 2.251 7.516 2.251 7s1.984-.63 3.045-1.69"/></g></svg>