<svg xmlns="http://www.w3.org/2000/svg" fill="none" viewBox="0 0 14 14"><desc>Ai Chat Spark Streamline Icon: https://streamlinehq.com</desc><g stroke="currentColor" stroke-linecap="round" stroke-linejoin="round"><path d="M7.542 1.008a42.123 42.123 0 0 0-5.18.22A1.826 1.826 0 0 0 .73 2.772a22.9 22.9 0 0 0-.01 6.4c.124.889.875 1.542 1.769 1.626l.216.02.68.063V13.5c1.405-.631 2.21-1.228 3.258-2.434h.107c1.487 0 2.928-.09 4.325-.232A1.886 1.886 0 0 0 12.76 9.23c.128-.908.215-1.84.235-2.795"/><path d="M9.254 2.513C9.952 1.814 10.084.5 10.375.5s.423 1.314 1.121 2.013 2.004.772 2.004 1.112-1.305.414-2.004 1.112-.83 2.013-1.12 2.013c-.292 0-.424-1.314-1.122-2.013S7.25 3.965 7.25 3.625s1.305-.414 2.004-1.112"/></g></svg>