<svg xmlns="http://www.w3.org/2000/svg" fill="none" viewBox="0 0 14 14"><g stroke="currentColor" stroke-linecap="round" stroke-linejoin="round"><path d="M13.253 3.887c.368-.623.327-1.371-.139-2.178S12.022.493 11.298.5M.747 3.887C.379 3.264.42 2.516.885 1.709 1.351.902 1.98.493 2.702.5M5.452 12.595c.23.586.764.905 1.548.905.783 0 1.317-.32 1.547-.905M10.865 5.33C10.865 2.878 9.473 1.5 7 1.5S3.135 2.879 3.135 5.33c0 2.338-1.385 1.557-1.385 3.29 0 1.811 3.946 2.04 5.25 2.04s5.25-.229 5.25-2.04c0-1.733-1.385-.952-1.385-3.29"/></g></svg>
