<svg xmlns="http://www.w3.org/2000/svg" fill="none" viewBox="0 0 14 14"><desc>Align Object Right Streamline Icon: https://streamlinehq.com</desc><g stroke="currentColor" stroke-linecap="round" stroke-linejoin="round"><path d="M3.731 13.04a3.13 3.13 0 0 1-2.76-2.753C.853 9.217.75 8.12.75 7s.102-2.218.222-3.287A3.13 3.13 0 0 1 3.732.96C4.794.846 5.886.75 7 .75s2.205.096 3.269.21a3.13 3.13 0 0 1 2.76 2.753c.119 1.07.221 2.167.221 3.287s-.102 2.218-.222 3.287a3.13 3.13 0 0 1-2.76 2.753c-1.063.114-2.155.21-3.268.21s-2.205-.096-3.269-.21"/><path d="M10.555 7c0-1.18-.045-2.1-.104-2.68-.045-.444-.347-.78-.787-.849a4.5 4.5 0 0 0-.7-.052c-.27 0-.503.021-.702.052-.44.07-.74.405-.786.849-.06.58-.104 1.5-.104 2.68s.044 2.1.104 2.68c.045.443.346.78.786.848.199.031.432.053.701.053.27 0 .503-.021.701-.053.44-.069.742-.405.787-.848.06-.58.104-1.5.104-2.68"/></g></svg>