<svg xmlns="http://www.w3.org/2000/svg" fill="none" viewBox="0 0 14 14"><g stroke="currentColor" stroke-linecap="round" stroke-linejoin="round"><path d="M.96 3.731A3.13 3.13 0 0 1 3.713.971C4.783.853 5.88.75 7 .75s2.218.102 3.287.222a3.13 3.13 0 0 1 2.753 2.76c.114 1.063.21 2.155.21 3.268s-.096 2.205-.21 3.269a3.13 3.13 0 0 1-2.753 2.76c-1.07.119-2.167.221-3.287.221s-2.218-.102-3.287-.222a3.13 3.13 0 0 1-2.753-2.76C.846 9.205.75 8.114.75 7s.096-2.205.21-3.269"/><path d="M7 8.591c1.18 0 2.1-.044 2.68-.103.444-.046.78-.347.849-.787.03-.198.052-.432.052-.701 0-.27-.021-.503-.052-.7-.07-.441-.405-.742-.849-.787-.58-.06-1.5-.104-2.68-.104s-2.1.044-2.68.103c-.443.046-.78.347-.848.787-.031.198-.053.432-.053.701s.022.503.053.701c.069.44.405.741.848.787.58.059 1.5.103 2.68.103"/></g></svg>
