<svg xmlns="http://www.w3.org/2000/svg" fill="none" viewBox="0 0 14 14"><desc>Alt Streamline Icon: https://streamlinehq.com</desc><g stroke="currentColor" stroke-linecap="round" stroke-linejoin="round"><path d="M.96 10.269a3.13 3.13 0 0 0 2.753 2.76c1.07.119 2.167.221 3.287.221s2.218-.102 3.287-.222a3.13 3.13 0 0 0 2.753-2.76c.114-1.063.21-2.155.21-3.268s-.096-2.205-.21-3.269a3.13 3.13 0 0 0-2.753-2.76C9.217.853 8.12.75 7 .75S4.782.852 3.713.972A3.13 3.13 0 0 0 .96 3.732C.846 4.794.75 5.886.75 7s.096 2.205.21 3.269"/><path d="M2.297 8.643c.13-.68.52-3.284 1.297-3.284S4.76 7.962 4.89 8.643M2.644 7.548h1.902M9.003 6.158v-.054c0-.352.228-.658.545-.697a6.5 6.5 0 0 1 1.61 0c.317.04.545.345.545.697v.054m-1.35-.662v2.992M8.266 8.488c-.545.164-.95.198-1.438.101-.247-.048-.43-.273-.469-.548-.124-.895-.087-1.745.07-2.636"/></g></svg>