<svg xmlns="http://www.w3.org/2000/svg" fill="none" viewBox="0 0 14 14"><desc>Android Logo Streamline Icon: https://streamlinehq.com</desc><g stroke="currentColor" stroke-linecap="round"><path stroke-linejoin="round" d="M3.246 6.63c0 1.315-.064 2.593-.038 3.818.011.523.392.946.88 1.016 2.005.287 3.82.287 5.825 0 .488-.07.869-.493.88-1.016.026-1.225-.038-2.503-.038-3.818q0-.566-.027-1.124C10.612 2.876 8.806 1.56 7 1.56S3.39 2.876 3.272 5.506q-.025.558-.026 1.124M10.799 13.5v-3.363M3.203 13.5V9.95"/><path d="m3.021.5 1.79 1.795M10.98.5 9.19 2.295"/><path stroke-linejoin="round" d="M12.5 9.154V7.902c0-1.201-.846-2.174-1.89-2.174-2.423-.3-4.797-.3-7.22 0-1.044 0-1.89.973-1.89 2.174v1.252"/></g></svg>