<svg xmlns="http://www.w3.org/2000/svg" fill="none" viewBox="0 0 14 14"><g stroke="currentColor" stroke-linecap="round" stroke-linejoin="round"><path d="M8.045 13.11a1.72 1.72 0 0 0-1.771 0c-1.209.747-2.466.332-3.168-.497C1.984 11.29.46 7.13 2.506 5.031c.928-.951 2.119-.884 3.078-.578q.345.109.646.29c.55.327 1.31.327 1.859 0a3 3 0 0 1 .646-.29c.96-.306 2.15-.373 3.078.578.303.311.529.668.688 1.054a3 3 0 0 0-.3-.014c-1.29 0-2.016.725-2.016 2.015s.726 2.015 2.017 2.015q.135 0 .263-.01c-.325 1.075-.818 2.01-1.252 2.522-.702.829-1.96 1.244-3.168.497M8.096 2.54A4.27 4.27 0 0 1 9.983.65"/></g></svg>