<svg xmlns="http://www.w3.org/2000/svg" fill="none" viewBox="0 0 14 14"><g stroke="currentColor" stroke-linecap="round" stroke-linejoin="round"><path d="M12.316 3.601a3.52 3.52 0 0 0-.787-1.935c-.44-.52-1.017-.85-1.636-.935C8.951.606 7.986.5 7 .5S5.048.606 4.107.73c-.62.085-1.196.415-1.636.936a3.52 3.52 0 0 0-.787 1.935c-.1 1.106-.185 2.241-.185 3.399s.084 2.293.185 3.4c.07.731.347 1.413.787 1.935.44.521 1.017.85 1.636.935.942.123 1.907.23 2.893.23s1.952-.106 2.893-.23c.619-.085 1.195-.415 1.636-.936s.717-1.204.787-1.935c.1-1.105.185-2.24.185-3.399s-.084-2.293-.185-3.399M7 11.001V2.999"/><path d="M8.332 4.331A3.2 3.2 0 0 0 7 3c-.533.267-1.066.8-1.333 1.332M8.332 9.669A3.2 3.2 0 0 1 7 11a3.2 3.2 0 0 1-1.333-1.332"/></g></svg>