<svg xmlns="http://www.w3.org/2000/svg" fill="none" viewBox="0 0 16 16"><g stroke="currentColor" stroke-linecap="round" stroke-linejoin="round"><path d="M1.097 11.735a3.58 3.58 0 0 0 3.146 3.155c1.222.136 2.477.253 3.757.253s2.535-.117 3.757-.253a3.58 3.58 0 0 0 3.146-3.155c.13-1.215.24-2.463.24-3.735s-.11-2.52-.24-3.735a3.58 3.58 0 0 0-3.146-3.155C10.535.974 9.28.857 8 .857s-2.535.117-3.757.253a3.58 3.58 0 0 0-3.146 3.155C.967 5.48.857 6.728.857 8s.11 2.52.24 3.735M5.623 10.377l4.3-4.3"/><path d="M6.69 6.078c.606-.606 2.222-.606 3.232 0 .606 1.01.606 2.626 0 3.232"/></g></svg>