<svg xmlns="http://www.w3.org/2000/svg" fill="none" viewBox="0 0 14 14"><desc>Fit Width Streamline Icon: https://streamlinehq.com</desc><g stroke="currentColor" stroke-linecap="round" stroke-linejoin="round"><path d="M3.601 1.684a3.52 3.52 0 0 0-1.935.787c-.52.44-.85 1.017-.935 1.636C.606 5.049.5 6.014.5 7s.106 1.952.23 2.893c.085.62.415 1.196.936 1.636s1.204.717 1.935.787c1.106.1 2.241.185 3.399.185s2.293-.084 3.4-.185a3.52 3.52 0 0 0 1.935-.787c.521-.44.85-1.017.935-1.636.123-.942.23-1.907.23-2.893s-.106-1.952-.23-2.893c-.085-.62-.415-1.196-.936-1.636a3.52 3.52 0 0 0-1.935-.787c-1.105-.1-2.24-.185-3.399-.185s-2.293.084-3.399.185M11.001 7H2.999"/><path d="M4.331 5.667C3.798 5.934 3.266 6.467 3 7c.267.533.8 1.066 1.332 1.332M9.669 5.667c.532.267 1.065.8 1.332 1.333a3.2 3.2 0 0 1-1.332 1.332"/></g></svg>