<svg xmlns="http://www.w3.org/2000/svg" fill="none" viewBox="0 0 14 14"><path stroke="currentColor" stroke-linecap="round" stroke-linejoin="round" d="m3.17188 12.5625 0.12377 -0.528c0.20645 -0.7775 0.65299 -1.4723 1.27877 -1.9838 0.68452 -0.55951 1.54143 -0.86515 2.42552 -0.86515s1.74099 0.30564 2.42552 0.86515c0.62574 0.5115 1.07234 1.2063 1.27874 1.9838l0.1239 0.5436" stroke-width="1"/><path stroke="currentColor" stroke-linecap="round" stroke-linejoin="round" d="M7 13.5c4.16 0 6.5 -2.34 6.5 -6.5S11.16 0.5 7 0.5 0.5 2.84 0.5 7s2.34 6.5 6.5 6.5Z" stroke-width="1"/><path stroke="currentColor" stroke-linecap="round" stroke-linejoin="round" d="M6.99927 7.57996c1.4 0 2.1875 -0.7875 2.1875 -2.1875s-0.7875 -2.1875 -2.1875 -2.1875 -2.1875 0.7875 -2.1875 2.1875 0.7875 2.1875 2.1875 2.1875Z" stroke-width="1"/></svg>