<svg xmlns="http://www.w3.org/2000/svg" fill="none" viewBox="0 0 14 14"><g stroke="currentColor" stroke-linecap="round" stroke-linejoin="round"><path d="M10.269.96a3.13 3.13 0 0 1 2.76 2.753c.119 1.07.221 2.167.221 3.287s-.102 2.218-.222 3.287a3.13 3.13 0 0 1-2.76 2.753c-1.063.114-2.155.21-3.268.21s-2.205-.096-3.269-.21a3.13 3.13 0 0 1-2.76-2.753C.853 9.217.75 8.12.75 7s.102-2.218.222-3.287A3.13 3.13 0 0 1 3.732.96C4.794.846 5.886.75 7 .75s2.205.096 3.269.21M9.594.938v12.124"/><path d="M6.542 9.281c-.896-.448-1.792-1.344-2.24-2.24.448-.896 1.344-1.792 2.24-2.24"/></g></svg>