<svg xmlns="http://www.w3.org/2000/svg" fill="none" viewBox="0 0 14 14"><desc>Bar Top Panel Open Streamline Icon: https://streamlinehq.com</desc><g stroke="currentColor" stroke-linecap="round" stroke-linejoin="round"><path d="M13.04 3.731a3.13 3.13 0 0 0-2.753-2.76C9.217.853 8.12.75 7 .75S4.782.852 3.713.972A3.13 3.13 0 0 0 .96 3.732C.846 4.794.75 5.886.75 7s.096 2.205.21 3.268a3.13 3.13 0 0 0 2.753 2.76c1.07.12 2.167.222 3.287.222s2.218-.102 3.287-.222a3.13 3.13 0 0 0 2.753-2.76c.114-1.063.21-2.155.21-3.268s-.096-2.205-.21-3.269M13.063 4.406H.938"/><path d="M4.719 7.458c.448.896 1.344 1.792 2.24 2.24.896-.448 1.792-1.344 2.24-2.24"/></g></svg>