<?xml version="1.0" encoding="UTF-8" standalone="no"?>
<!DOCTYPE svg PUBLIC "-//W3C//DTD SVG 1.1//EN" "http://www.w3.org/Graphics/SVG/1.1/DTD/svg11.dtd">
<svg width="100%" height="100%" viewBox="0 0 14 14" version="1.1" xmlns="http://www.w3.org/2000/svg" xmlns:xlink="http://www.w3.org/1999/xlink" xml:space="preserve" xmlns:serif="http://www.serif.com/" style="fill-rule:evenodd;clip-rule:evenodd;stroke-linecap:round;stroke-linejoin:round;">
    <g id="margins--margins-file-cut-space-printing-art-work" transform="matrix(1,0,0,1,0.25,0.25)">
        <path id="Subtract" d="M12.536,6.75C12.536,8.259 12.487,9.731 12.394,11.149C12.334,12.079 11.595,12.818 10.666,12.883C9.422,12.971 8.236,13.017 6.75,13.017C5.264,13.017 4.078,12.971 2.834,12.883C1.905,12.818 1.166,12.079 1.106,11.149C1.013,9.731 0.964,8.259 0.964,6.75C0.964,5.24 1.013,3.768 1.106,2.35C1.166,1.421 1.905,0.682 2.834,0.616C4.078,0.528 5.264,0.482 6.75,0.482C8.235,0.482 9.422,0.528 10.666,0.616C11.595,0.682 12.334,1.421 12.394,2.35C12.487,3.768 12.536,5.24 12.536,6.75Z" style="fill:none;fill-rule:nonzero;stroke:currentColor;stroke-width:0.5px;"/>
        <path id="Vector-3901" serif:id="Vector 3901" d="M3.591,0.573L3.591,12.935" style="fill:none;fill-rule:nonzero;stroke:currentColor;stroke-width:0.5px;stroke-linejoin:miter;stroke-dasharray:0.5,1,0,0,0,0;"/>
        <path id="Vector-3903" serif:id="Vector 3903" d="M12.408,3.144L1.062,3.144" style="fill:none;fill-rule:nonzero;stroke:currentColor;stroke-width:0.5px;stroke-linejoin:miter;stroke-dasharray:0.5,1,0,0,0,0;"/>
        <path id="Vector-3904" serif:id="Vector 3904" d="M12.408,10.356L1.062,10.356" style="fill:none;fill-rule:nonzero;stroke:currentColor;stroke-width:0.5px;stroke-linejoin:miter;stroke-dasharray:0.5,1,0,0,0,0;"/>
        <path id="Vector-3902" serif:id="Vector 3902" d="M9.909,0.573L9.909,12.935" style="fill:none;fill-rule:nonzero;stroke:currentColor;stroke-width:0.5px;stroke-linejoin:miter;stroke-dasharray:0.5,1,0,0,0,0;"/>
    </g>
</svg>
