<svg xmlns="http://www.w3.org/2000/svg" fill="none" viewBox="0 0 14 14"><path stroke="currentColor" stroke-linecap="round" stroke-linejoin="round" d="M7.0236 4.1503c1.31345 -1.31128 3.076 -2.45417 5.0026 -2.74427 0.5534 -0.07111 0.9546 0.30854 1.064 0.83827 0.5496 2.66251 0.5427 5.24593 0 7.9084 -0.0808 0.3961 -0.3866 0.8022 -0.8307 0.8468 -1.2794 0.1574 -2.88619 0.9614 -3.93154 1.6447 -0.22332 0.1459 -0.36447 0.3012 -0.48947 0.4388 -0.21137 0.2326 -0.37658 0.4144 -0.81489 0.4144 -0.44149 0 -0.60792 -0.1818 -0.82082 -0.4144 -0.12592 -0.1376 -0.26809 -0.2929 -0.49304 -0.4388 -1.05296 -0.6833 -2.6715 -1.4873 -3.9602 -1.6447 -0.44733 -0.0446 -0.75538 -0.4507 -0.836709 -0.8468 -0.546722 -2.66247 -0.553594 -5.24589 0 -7.9084 0.110139 -0.52973 0.514279 -0.90938 1.071739 -0.83827 0.4928 0.07366 0.97494 0.20232 1.44172 0.37476" stroke-width="1"/><path stroke="currentColor" stroke-linecap="round" stroke-linejoin="round" d="M7.02374 4.14867v9.34703c-0.8977 -1.7414 -1.74218 -3.247 -3.17968 -4.50225 -0.38916 -0.33981 -0.50663 -0.74218 -0.54688 -1.06695 -0.27041 -2.18209 0.01068 -4.48946 0.15772 -6.60586 0.05213 -0.750349 0.36717 -1.066629 0.95166 -0.596232 0.74083 0.596232 1.78125 1.694722 2.61718 3.424262Z" stroke-width="1"/><path stroke="currentColor" stroke-linecap="round" stroke-linejoin="round" d="M7.02374 13.4974V4.15039" stroke-width="1"/></svg>