<svg xmlns="http://www.w3.org/2000/svg" fill="none" viewBox="0 0 14 14"><g stroke="currentColor" stroke-linecap="round" stroke-linejoin="round"><path d="M4.045 13.205a26 26 0 0 1-.022-5.756Q3 7.481 1.97 7.534c-.47.024-.866.35-.97.786-.334 1.41-.334 2.604 0 4.014.104.436.5.761.97.786q1.042.053 2.075.085M9.955 13.205q1.034-.032 2.075-.085c.47-.025.866-.35.97-.786.333-1.41.333-2.604 0-4.014a1.045 1.045 0 0 0-.97-.786 99 99 0 0 0-2.053-.085 26 26 0 0 1-.022 5.756"/><path d="M9.955 13.205c-1.975.06-3.935.06-5.91 0a26 26 0 0 1 .033-6.216.85.85 0 0 1 .19-.44c.742-.886 1.619-1.446 2.783-1.799 1.141.359 1.989.922 2.695 1.811a.85.85 0 0 1 .175.42c.262 2.024.273 4.203.034 6.224M7 10.884v2.227"/><path d="M7.002 4.78c0-1.552-.037-2.633.234-3.98A16 16 0 0 1 9.76.8c.134.583.24 1.383 0 2.102-.999.157-1.79.141-2.75 0"/></g></svg>