<svg xmlns="http://www.w3.org/2000/svg" fill="none" viewBox="0 0 14 14"><g stroke="currentColor"><path stroke-linecap="round" stroke-linejoin="round" d="M11.563 7.811c.462.06.814.438.841.903.065 1.098.154 3.104.045 4.488a97 97 0 0 0-10.898 0c-.109-1.384-.02-3.39.045-4.488a.965.965 0 0 1 .84-.903 35.2 35.2 0 0 1 9.127 0"/><path d="m11.665 7.83-.077-2.491a.986.986 0 0 0-.913-.958 51.6 51.6 0 0 0-7.403.004.917.917 0 0 0-.862.902c-.01.598-.017 1.397-.023 2.096q0 .228-.003.436l.053-.008a35.2 35.2 0 0 1 9.126 0q.053.007.102.019Z"/><path stroke-linecap="round" stroke-linejoin="round" d="M6.818 4.219c0-1.233-.029-2.359.186-3.43a13 13 0 0 1 2.007 0c.106.464.19 1.1 0 1.67a6.8 6.8 0 0 1-2.185 0M13.25 13.25a97 97 0 0 0-12.5 0M7 10.316v2.537M4.07 10.316v2.537M9.894 10.316v2.537"/></g></svg>