<svg xmlns="http://www.w3.org/2000/svg" fill="none" viewBox="0 0 14 14"><desc>Building 1 Streamline Icon: https://streamlinehq.com</desc><g stroke="currentColor" stroke-linecap="round" stroke-linejoin="round"><path d="M2.007 2.194C1.493 5.3 1.358 9.767 1.652 12.65c.05.492.472.851.966.851h8.764c.494 0 .916-.36.966-.85.294-2.883.159-7.35-.355-10.456A1.67 1.67 0 0 0 10.589.796C9.606.646 8.236.5 7 .5S4.394.646 3.41.796a1.67 1.67 0 0 0-1.403 1.398M8.5 7.5h1"/><path d="M5.5 13.5v-1.814a1.5 1.5 0 0 1 1.5-1.5v0a1.5 1.5 0 0 1 1.5 1.5V13.5M4.5 4.5h1M8.5 4.5h1M4.5 7.5h1"/></g></svg>