<svg xmlns="http://www.w3.org/2000/svg" fill="none" viewBox="0 0 14 14"><path stroke="currentColor" stroke-linecap="round" stroke-linejoin="round" d="M0.782138 10.6396c0.143217 1.3955 1.438972 2.4106 2.839442 2.4914 1.09826 0.0634 2.22698 0.119 3.37842 0.119s2.28016 -0.0556 3.3784 -0.119c1.4005 -0.0808 2.6962 -1.0959 2.8395 -2.4914 0.0203 -0.1978 0.0321 -0.397 0.0321 -0.5976s-0.0118 -0.39985 -0.0321 -0.5976c-0.1433 -1.39547 -1.439 -2.41059 -2.8395 -2.49143C9.28016 6.88957 8.15144 6.83398 7 6.83398s-2.28016 0.05559 -3.37842 0.11899C2.22111 7.03381 0.925355 8.04893 0.782138 9.4444 0.761843 9.64215 0.75 9.8414 0.75 10.042s0.011843 0.3998 0.032138 0.5976Z" stroke-width="1"/><path stroke="currentColor" stroke-linecap="round" stroke-linejoin="round" d="M3.40479 1.01712c-0.77942 0.09243 -1.41416 0.65212 -1.59747 1.4153C1.41378 4.07085 0.792982 7.04609 0.752168 9.65486c-0.00075 0.04794 0.000465 0.09535 0.003569 0.14219 0.005387 -0.11806 0.014438 -0.23562 0.026449 -0.35265C0.925403 8.04893 2.22116 7.03381 3.62163 6.95297c1.09826 -0.0634 2.22698 -0.11899 3.37842 -0.11899s2.28016 0.05559 3.37845 0.11899c1.4004 0.08084 2.6962 1.09596 2.8394 2.49143 0.0121 0.11773 0.0212 0.23598 0.0266 0.35474 0.0037 -0.04741 0.0056 -0.09541 0.0055 -0.14396 -0.0055 -2.57376 -0.51 -5.50431 -0.8418 -7.15595 -0.1603 -0.79796 -0.8104 -1.39392 -1.6188 -1.48889C9.75993 0.88938 8.31553 0.75 7.12583 0.75c-1.21201 0 -2.68834 0.144655 -3.72104 0.26712Z" stroke-width="1"/><path stroke="currentColor" stroke-linecap="round" stroke-linejoin="round" d="M3.77441 10.042h2.01392" stroke-width="1"/><path stroke="currentColor" stroke-linecap="round" stroke-linejoin="round" d="M9.15771 10.9673c0.59219 0 0.92529 -0.3331 0.92529 -0.9253 0 -0.5922 -0.3331 -0.9253 -0.92529 -0.9253 -0.59218 0 -0.92529 0.3331 -0.92529 0.9253 0 0.5922 0.33311 0.9253 0.92529 0.9253Z" stroke-width="1"/></svg>