<svg xmlns="http://www.w3.org/2000/svg" fill="none" viewBox="0 0 14 14"><g stroke="currentColor" stroke-linecap="round" stroke-linejoin="round"><path d="M.923 10.552c.166 1.425 1.37 2.557 2.857 2.626 1.029.047 2.08.072 3.22.072s2.19-.025 3.22-.072c1.488-.07 2.691-1.201 2.857-2.626.23-1.98.23-3.666 0-5.645-.166-1.426-1.37-2.557-2.857-2.626A69 69 0 0 0 7 2.208c-1.14 0-2.191.025-3.22.073C2.292 2.35 1.09 3.48.923 4.907c-.23 1.98-.23 3.665 0 5.645M4.252.75V3.5M9.748.75V3.5"/><path d="M4.253 7.034c-.16 0-.25-.09-.25-.25s.09-.25.25-.25M4.255 7.034c.16 0 .25-.09.25-.25s-.09-.25-.25-.25M4.253 10.034c-.16 0-.25-.09-.25-.25s.09-.25.25-.25M4.255 10.034c.16 0 .25-.09.25-.25s-.09-.25-.25-.25M6.998 7.034c-.16 0-.25-.09-.25-.25s.09-.25.25-.25M7 7.034c.16 0 .25-.09.25-.25s-.09-.25-.25-.25M6.998 10.034c-.16 0-.25-.09-.25-.25s.09-.25.25-.25M7 10.034c.16 0 .25-.09.25-.25s-.09-.25-.25-.25M9.745 7.034c-.16 0-.25-.09-.25-.25s.09-.25.25-.25M9.747 7.034c.16 0 .25-.09.25-.25s-.09-.25-.25-.25"/></g></svg>