<svg xmlns="http://www.w3.org/2000/svg" fill="none" viewBox="0 0 14 14"><path stroke="currentColor" stroke-linecap="round" stroke-linejoin="round" d="M4.00049 6.625 7.27322 10c1.54002 -4.42383 2.82258 -6.36505 5.72728 -9" stroke-width="1"/><path stroke="currentColor" stroke-linecap="round" stroke-linejoin="round" d="M12.3279 4.44195c0.0953 0.91548 0.1721 1.85325 0.1721 2.80805 0 0.9548 -0.0768 1.89257 -0.1721 2.808 -0.1499 1.4411 -1.312 2.6036 -2.75244 2.76 -0.92108 0.1 -1.86468 0.182 -2.82546 0.182 -0.96078 0 -1.90438 -0.082 -2.82546 -0.182 -1.4404 -0.1564 -2.60256 -1.3189 -2.75247 -2.76C1.07684 9.14257 1 8.2048 1 7.25c0 -0.9548 0.07684 -1.89257 0.17207 -2.80805 0.14991 -1.44109 1.31207 -2.60354 2.75247 -2.75997C4.84562 1.58196 5.78922 1.5 6.75 1.5c0.96078 0 1.90438 0.08196 2.82546 0.18198" stroke-width="1"/></svg>