<svg xmlns="http://www.w3.org/2000/svg" fill="none" viewBox="0 0 14 14"><path stroke="currentColor" stroke-linecap="round" stroke-linejoin="round" d="M10 7 4 7" stroke-width="1"/><path stroke="currentColor" stroke-linecap="round" stroke-linejoin="round" d="M0.960355 10.2878C1.11449 11.737 2.27319 12.9026 3.71314 13.064c2.2118 0.248 4.36289 0.248 6.57466 0 1.44 -0.1614 2.5987 -1.327 2.7528 -2.7762 0.1138 -1.06976 0.2099 -2.16807 0.2099 -3.2878 0 -1.11973 -0.0961 -2.21805 -0.2099 -3.28784 -0.1541 -1.44916 -1.3128 -2.61471 -2.7528 -2.776165 -2.21177 -0.247993 -4.36286 -0.247993 -6.57466 0C2.27319 1.09745 1.11449 2.263 0.960355 3.71216 0.846572 4.78195 0.750488 5.88027 0.750488 7c0 1.11973 0.096084 2.21804 0.209867 3.2878Z" stroke-width="1"/></svg>