<svg xmlns="http://www.w3.org/2000/svg" fill="none" viewBox="0 0 16 16"><path stroke="currentColor" d="M4.769702857142857 2.41016c-0.2940457142857143 0.03366857142857143 -0.6885942857142856 0.06877714285714286 -0.9783771428571427 0.10362285714285714 -0.2750971428571429 0.033074285714285716 -0.5481942857142856 0.06590857142857143 -0.8192114285714285 0.09705142857142857 -0.5668799999999999 0.0651542857142857 -1.0161485714285714 0.5093028571428571 -1.0581371428571427 1.0681714285714285 -0.26773714285714284 3.563828571428571 -0.26773714285714284 6.927874285714285 0 10.491737142857142 0.04198857142857143 0.5588571428571428 0.4915314285714285 1.0043428571428572 1.060377142857143 1.0500571428571428 3.452045714285714 0.27714285714285714 6.599531428571428 0.27714285714285714 10.05158857142857 0 0.5688 -0.045714285714285714 1.0184 -0.49119999999999997 1.060342857142857 -1.0500571428571428 0.26777142857142855 -3.563862857142857 0.26777142857142855 -6.927908571428571 0 -10.491737142857142 -0.04194285714285714 -0.5588685714285714 -0.49119999999999997 -1.0030171428571428 -1.0581714285714285 -1.0681714285714285 -0.2709714285714286 -0.031142857142857142 -0.5441142857142857 -0.06397714285714286 -0.8191999999999999 -0.09705142857142857 -0.2897142857142857 -0.034845714285714285 -0.6949714285714285 -0.0699542857142857 -0.9889371428571427 -0.10362285714285714" stroke-width="1"/><path stroke="currentColor" stroke-linecap="round" stroke-linejoin="round" d="M9.490857142857143 0.6230742857142856c1.1186171428571428 0.04257485714285714 1.7447428571428572 0.5991428571428571 1.7447428571428572 1.5590514285714285 0 0.9598971428571429 -0.6261257142857143 1.5164571428571427 -1.7447428571428572 1.55904 -1.809302857142857 0.06885714285714285 -1.1717485714285714 0.06885714285714285 -2.9810514285714285 0 -1.1186171428571428 -0.042582857142857145 -1.7447428571428572 -0.5991428571428571 -1.7447428571428572 -1.55904 0 -0.9599085714285713 0.6261257142857143 -1.5164777142857142 1.7447428571428572 -1.5590514285714285 1.809302857142857 -0.06886057142857142 1.1717485714285714 -0.06886057142857142 2.9810514285714285 0Z" stroke-width="1"/><path stroke="currentColor" stroke-linecap="round" stroke-linejoin="round" d="M5.293108571428571 7.440011428571428h5.413782857142857" stroke-width="1"/><path stroke="currentColor" stroke-linecap="round" stroke-linejoin="round" d="M5.293108571428571 10.475725714285714h3.2669371428571425" stroke-width="1"/></svg>