<svg xmlns="http://www.w3.org/2000/svg" fill="none" viewBox="0 0 14 14"><desc>Clover Streamline Icon: https://streamlinehq.com</desc><g stroke="currentColor" stroke-linejoin="round"><path stroke-linecap="round" d="M6.292 13.5c.548-2.677.794-4.567.843-6.847"/><path d="m7.03 1.305.3-.329a1.457 1.457 0 0 1 2.42.418c.433 1.033.017 1.995-.672 2.818.755-.547 1.614-.828 2.527-.445a1.457 1.457 0 0 1 .418 2.421l-.33.3.33.299a1.457 1.457 0 0 1-.418 2.42c-1.935.812-3.622-1.354-4.606-2.72-.984 1.366-2.672 3.532-4.606 2.72a1.457 1.457 0 0 1-.418-2.42l.329-.3-.329-.3a1.457 1.457 0 0 1 .418-2.42c.986-.413 1.908-.053 2.706.581-.758-.852-1.247-1.864-.79-2.954A1.457 1.457 0 0 1 6.73.976z"/></g></svg>