<svg xmlns="http://www.w3.org/2000/svg" fill="none" viewBox="0 0 14 14"><path fill="currentColor" fill-rule="evenodd" d="M6.591 0.0000066757C6.28929 0.000389427 5.99383 0.0911818 5.74434 0.260876c-0.2492 0.169501 -0.44175 0.409982 -0.55213 0.690456l-0.00042 0.00107 -0.37713 0.948998 -1.15881 0.6671 -1.01644 -0.15413c-0.29876 -0.04483 -0.60501 0.00085 -0.87743 0.13146 -0.27234 0.13058 -0.49922 0.34 -0.65066 0.60135l-0.40882 0.70354c-0.15185 0.26131 -0.22104 0.56237 -0.198246 0.86376 0.022787 0.30129 0.136398 0.58844 0.325585 0.82399l0.641651 0.79948v1.32411l-0.641482 0.79928c-0.189187 0.23555 -0.302967 0.5229 -0.325754 0.8242 -0.022794 0.30139 0.046392 0.60244 0.198242 0.86376l0.408634 0.7032c0.15143 0.2614 0.37848 0.4711 0.65085 0.6017 0.27242 0.1306 0.57791 0.1764 0.87667 0.1316l1.02013 -0.1543 1.15559 0.6634 0.37555 0.9527c0.11034 0.2808 0.30316 0.5219 0.55256 0.6915 0.24948 0.1697 0.54431 0.2605 0.84601 0.2609l0.40933 0 0.40932 0c0.3017 -0.0004 0.59653 -0.0912 0.84601 -0.2609 0.2494 -0.1696 0.44222 -0.4107 0.55256 -0.6915l0.37555 -0.9528 1.15554 -0.6633 1.0202 0.1542c0.2987 0.0449 0.6042 -0.0009 0.8767 -0.1315 0.2723 -0.1306 0.4994 -0.3403 0.6508 -0.6017l0.4086 -0.7032c0.1519 -0.26133 0.2211 -0.56238 0.1983 -0.86377 -0.0228 -0.3013 -0.1366 -0.58865 -0.3258 -0.8242l-0.6415 -0.79928v-1.3241l0.6417 -0.79949c0.1892 -0.23555 0.3028 -0.52269 0.3256 -0.82399 0.0228 -0.30139 -0.0464 -0.60245 -0.1983 -0.86376l-0.4088 -0.70354c-0.1514 -0.26135 -0.3783 -0.47077 -0.6506 -0.60135 -0.2725 -0.13061 -0.5787 -0.17629 -0.8775 -0.13146l-1.0164 0.15413 -1.15883 -0.66709 -0.37713 -0.949004 -0.00042 -0.001071C8.69304 0.670851 8.50049 0.430371 8.25129 0.260869 8.0018 0.0911751 7.70634 0.000382751 7.40463 0l-0.40681 0.0000068843 -0.40682 -2.086e-7ZM5.28484 5.2868c0.41242 -0.41242 1.00266 -0.61297 1.71297 -0.61297 0.71032 0 1.30056 0.20055 1.71297 0.61297 0.41242 0.41241 0.61297 1.00265 0.61297 1.71297 0 0.71031 -0.20055 1.30055 -0.61297 1.71297 -0.41241 0.41241 -1.00265 0.61296 -1.71297 0.61296 -0.71031 0 -1.30055 -0.20055 -1.71297 -0.61296 -0.41241 -0.41242 -0.61296 -1.00266 -0.61296 -1.71297 0 -0.71032 0.20055 -1.30056 0.61296 -1.71297Z" clip-rule="evenodd"/></svg>