<svg xmlns="http://www.w3.org/2000/svg" fill="none" viewBox="0 0 24 24">
    <path fill="currentColor" d="M11.3691 15.2247c0.3928 -0.3204 0.9718 -0.2978 1.3379 0.0683l4.25 4.25c0.3905 0.3906 0.3905 1.0236 0 1.4141s-1.0235 0.3904 -1.414 0L12 17.4141l-3.54297 3.543c-0.3905 0.3905 -1.02353 0.3904 -1.41406 0 -0.39053 -0.3905 -0.39053 -1.0235 0 -1.4141l4.25003 -4.25zM15.543 3.04303c0.3905 -0.39052 1.0235 -0.39052 1.414 0 0.3905 0.39053 0.3905 1.02356 0 1.41406l-4.25 4.25c-0.3905 0.3905 -1.0235 0.39045 -1.414 0l-4.25003 -4.25c-0.39053 -0.39052 -0.39053 -1.02354 0 -1.41406 0.39052 -0.39052 1.02354 -0.39052 1.41406 0L12 6.586z" stroke-width="1"></path>
</svg>
