<svg xmlns="http://www.w3.org/2000/svg" fill="none" viewBox="0 0 14 14" id="Command--Streamline-Flex">
  <g id="command--mac-command-apple-keyboard">
    <g id="Vector">
      <path stroke="currentColor" stroke-linecap="round" stroke-linejoin="round" d="M12.5022 10.1682c-0.2768 -0.1849 -0.6021 -0.28359 -0.9349 -0.28359H9.88461v1.68269c0 0.3328 0.09869 0.6581 0.28359 0.9349 0.1849 0.2767 0.4477 0.4924 0.7552 0.6197 0.3074 0.1274 0.6458 0.1607 0.9722 0.0958 0.3264 -0.065 0.6262 -0.2252 0.8616 -0.4605 0.2353 -0.2354 0.3955 -0.5352 0.4605 -0.8616 0.0649 -0.3264 0.0316 -0.6648 -0.0958 -0.9722 -0.1273 -0.3075 -0.343 -0.5703 -0.6197 -0.7552Z" stroke-width="1"></path>
      <path stroke="currentColor" stroke-linecap="round" stroke-linejoin="round" d="M10.1682 1.49784c-0.1849 0.27672 -0.28359 0.60205 -0.28359 0.93485v1.68269h1.68269c0.3328 0 0.6581 -0.09868 0.9349 -0.28358 0.2767 -0.1849 0.4924 -0.4477 0.6197 -0.75517 0.1274 -0.30747 0.1607 -0.6458 0.0958 -0.97221 -0.065 -0.32641 -0.2252 -0.62624 -0.4605 -0.86157 -0.2354 -0.23533 -0.5352 -0.39559 -0.8616 -0.460517 -0.3264 -0.064927 -0.6648 -0.031604 -0.9722 0.095755 -0.3075 0.127362 -0.5703 0.343032 -0.7552 0.619752Z" stroke-width="1"></path>
      <path stroke="currentColor" stroke-linecap="round" stroke-linejoin="round" d="M1.49784 3.8318c0.27672 0.1849 0.60205 0.28358 0.93485 0.28358h1.68269V2.43269c0 -0.3328 -0.09868 -0.65813 -0.28358 -0.93485 -0.1849 -0.27672 -0.4477 -0.49239 -0.75517 -0.619752 -0.30747 -0.127359 -0.6458 -0.160682 -0.97221 -0.095755 -0.32641 0.064927 -0.62624 0.225187 -0.86157 0.460517 -0.23533 0.23533 -0.39559 0.53516 -0.460517 0.86157 -0.064927 0.32641 -0.031604 0.66474 0.095755 0.97221 0.127362 0.30747 0.343032 0.57027 0.619752 0.75517Z" stroke-width="1"></path>
      <path stroke="currentColor" stroke-linecap="round" stroke-linejoin="round" d="M3.8318 12.5022c0.1849 -0.2768 0.28358 -0.6021 0.28358 -0.9349V9.88461H2.43269c-0.3328 0 -0.65813 0.09869 -0.93485 0.28359 -0.27672 0.1849 -0.49239 0.4477 -0.619752 0.7552 -0.127359 0.3074 -0.160682 0.6458 -0.095755 0.9722 0.064927 0.3264 0.225187 0.6262 0.460517 0.8616 0.23533 0.2353 0.53516 0.3955 0.86157 0.4605 0.32641 0.0649 0.66474 0.0316 0.97221 -0.0958 0.30747 -0.1273 0.57027 -0.343 0.75517 -0.6197Z" stroke-width="1"></path>
    </g>
    <path id="Intersect" stroke="currentColor" stroke-linecap="round" stroke-linejoin="round" d="M4.15997 9.83093c0.89917 0.08122 1.85252 0.24307 2.83981 0.24307 0.9873 0 1.94065 -0.16185 2.83982 -0.24307 0.08147 -0.89634 0.2342 -1.8467 0.2342 -2.8309 0 -0.9842 -0.15273 -1.93456 -0.2342 -2.83091 -0.89917 -0.08122 -1.85252 -0.24309 -2.83982 -0.24309 -0.98729 0 -1.94064 0.16187 -2.83981 0.24309 -0.08147 0.89635 -0.23419 1.84671 -0.23419 2.83091 0 0.9842 0.15272 1.93456 0.23419 2.8309Z" stroke-width="1"></path>
  </g>
</svg>