<svg xmlns="http://www.w3.org/2000/svg" fill="none" viewBox="0 0 14 14"><desc>Screen 1 Streamline Icon: https://streamlinehq.com</desc><g stroke="currentColor" stroke-linecap="round" stroke-linejoin="round"><path d="M10.659 13.317a33.3 33.3 0 0 0-7.31 0M13.042 8.535c-.135.953-.907 1.695-1.848 1.78a46 46 0 0 1-8.388 0c-.941-.085-1.713-.827-1.848-1.78a20 20 0 0 1 0-5.747c.135-.953.907-1.695 1.848-1.78a46 46 0 0 1 8.388 0c.941.085 1.713.827 1.848 1.78.278 1.951.278 3.796 0 5.747"/><path d="M8.534 10.48a46 46 0 0 1-3.067 0l-.479 2.698a33 33 0 0 1 4.025 0z"/></g></svg>