<svg xmlns="http://www.w3.org/2000/svg" fill="none" viewBox="0 0 14 14"><g stroke="currentColor" stroke-linecap="round" stroke-linejoin="round"><path d="M6.936 11.54v1.96M1.001 6.904c.48 2.984 2.565 4.637 5.935 4.637s5.454-1.653 5.934-4.637"/><path d="M3.73 6.222c.094 1.522 1.291 2.866 2.813 2.95a8 8 0 0 0 .914 0c1.522-.084 2.719-1.428 2.812-2.95q.044-.68.046-1.38c0-.465-.018-.925-.046-1.379C10.176 1.942 8.98.598 7.457.513a8 8 0 0 0-.914 0c-1.522.085-2.719 1.429-2.812 2.95-.028.454-.046.914-.046 1.38s.018.926.046 1.38"/></g></svg>