<svg xmlns="http://www.w3.org/2000/svg" fill="none" viewBox="0 0 14 14"><g stroke="currentColor" stroke-linecap="round" stroke-linejoin="round"><path d="M.5 9.903c0-.515.447-.92.96-.883 1.052.074 2.94.174 5.54.174s4.489-.1 5.54-.174a.895.895 0 0 1 .96.883v0c0 1.221-.856 2.263-2.071 2.387A44 44 0 0 1 7 12.5c-1.853 0-3.344-.1-4.429-.211C1.356 12.166.5 11.124.5 9.903"/><path d="M12.173 9.044c-1.097.07-2.852.15-5.173.15s-4.076-.08-5.174-.15c-.27-1.676-.441-3.875-.413-5.473a1.884 1.884 0 0 1 1.672-1.838 33 33 0 0 1 7.83 0c.942.11 1.655.89 1.671 1.838.029 1.598-.142 3.797-.413 5.473"/></g></svg>