<svg xmlns="http://www.w3.org/2000/svg" fill="none" viewBox="0 0 14 14"><desc>Zoom Logo 1 Streamline Icon: https://streamlinehq.com</desc><g stroke="currentColor" stroke-linecap="round" stroke-linejoin="round"><path d="M3.402 7.213c.036.964.87 1.747 1.834 1.8q.257.014.52.014c.606 0 1.197-.068 1.762-.123a.52.52 0 0 0 .464-.45c.06-.467.13-.954.13-1.454q0-.107-.004-.213c-.035-.964-.87-1.747-1.833-1.8a10 10 0 0 0-.52-.015c-.607 0-1.197.07-1.763.124a.52.52 0 0 0-.464.45c-.06.467-.13.954-.13 1.454q0 .107.004.213M8.113 8.023c.022-.333.04-.675.04-1.023s-.018-.69-.04-1.023c.369-.289.786-.52 1.225-.705.538-.226 1.114.148 1.185.727.044.35.079.721.079 1.001s-.035.65-.079 1c-.071.58-.647.954-1.185.728a5.3 5.3 0 0 1-1.225-.705"/><path d="M7 13.5c4.16 0 6.5-2.34 6.5-6.5S11.16.5 7 .5.5 2.84.5 7s2.34 6.5 6.5 6.5"/></g></svg>