<svg xmlns="http://www.w3.org/2000/svg" fill="none" viewBox="0 0 14 14"><g stroke="currentColor" stroke-linecap="round"><path stroke-linejoin="round" d="M1.977 10.102c.053.497.436.89.918.946 2.807.321 5.403.321 8.21 0 .482-.055.865-.45.918-.946.304-2.87.304-5.545 0-8.415a1.056 1.056 0 0 0-.918-.946 35 35 0 0 0-8.21 0c-.482.055-.865.45-.918.946a39 39 0 0 0 0 8.415"/><path stroke-linejoin="round" d="M2.82 11.036q.038.008.077.012c2.808.321 5.403.321 8.21 0l.077-.012c-.012.55-.037 1.098-.094 1.65-.042.42-.404.758-.866.814H3.78c-.462-.056-.824-.394-.867-.814-.056-.552-.082-1.1-.094-1.65M3.725 6.748c.04.25.245.443.497.462 1.88.143 3.68.143 5.56 0a.55.55 0 0 0 .498-.462c.198-1.26.198-2.372 0-3.632a.55.55 0 0 0-.497-.462 36 36 0 0 0-5.561 0 .55.55 0 0 0-.497.462 11.2 11.2 0 0 0 0 3.632"/><path d="M8.455 9.318h1.653"/></g></svg>