<svg xmlns="http://www.w3.org/2000/svg" fill="none" viewBox="-0.25 -0.25 14 14" id="Horizontal-Slider-2--Streamline-Flex">
  <desc>
    Horizontal Slider 2 Streamline Icon: https://streamlinehq.com
  </desc>
  <g id="horizontal-slider-2--adjustment-adjust-controls-fader-horizontal-settings-slider">
    <path id="Vector" stroke="currentColor" stroke-linecap="round" stroke-linejoin="round" d="M5.326405714285714 6.75c0 0.9257142857142857 0.5207142857142858 1.4464285714285714 1.4464285714285714 1.4464285714285714s1.4464285714285714 -0.5207142857142858 1.4464285714285714 -1.4464285714285714 -0.5207142857142858 -1.4464285714285714 -1.4464285714285714 -1.4464285714285714 -1.4464285714285714 0.5207142857142858 -1.4464285714285714 1.4464285714285714Z" stroke-width="0.5"></path>
    <path id="Vector_2" stroke="currentColor" stroke-linecap="round" stroke-linejoin="round" d="M0.48214285714285715 6.75h4.844262857142857" stroke-width="0.5"></path>
    <path id="Vector_3" stroke="currentColor" stroke-linecap="round" stroke-linejoin="round" d="M10.125 11.571428571428571c0 0.9257142857142857 0.5207142857142858 1.4464285714285714 1.4464285714285714 1.4464285714285714s1.4464285714285714 -0.5207142857142858 1.4464285714285714 -1.4464285714285714 -0.5207142857142858 -1.4464285714285714 -1.4464285714285714 -1.4464285714285714 -1.4464285714285714 0.5207142857142858 -1.4464285714285714 1.4464285714285714Z" stroke-width="0.5"></path>
    <path id="Vector_4" stroke="currentColor" stroke-linecap="round" stroke-linejoin="round" d="M0.48214285714285715 11.571428571428571h9.642857142857142" stroke-width="0.5"></path>
    <path id="Vector_5" stroke="currentColor" stroke-linecap="round" stroke-linejoin="round" d="M8.219262857142859 6.75 13.017857142857142 6.75" stroke-width="0.5"></path>
    <path id="Vector_6" stroke="currentColor" stroke-linecap="round" stroke-linejoin="round" d="M0.48214285714285715 1.9285714285714286c0 0.9257142857142857 0.5207142857142858 1.4464285714285714 1.4464285714285714 1.4464285714285714S3.375 2.854285714285714 3.375 1.9285714285714286 2.854285714285714 0.48214285714285715 1.9285714285714286 0.48214285714285715 0.48214285714285715 1.002857142857143 0.48214285714285715 1.9285714285714286Z" stroke-width="0.5"></path>
    <path id="Vector_7" stroke="currentColor" stroke-linecap="round" stroke-linejoin="round" d="m13.017857142857142 1.9285714285714286 -9.642857142857142 0" stroke-width="0.5"></path>
  </g>
</svg>