<svg xmlns="http://www.w3.org/2000/svg" fill="none" viewBox="0 0 14 14" id="Horizontal-Slider-2--Streamline-Flex"><desc>Horizontal Slider 2 Streamline Icon: https://streamlinehq.com</desc><g id="horizontal-slider-2--adjustment-adjust-controls-fader-horizontal-settings-slider"><path id="Vector" stroke="currentColor" stroke-linecap="round" stroke-linejoin="round" d="M5.52368 7c0 0.96 0.54 1.5 1.5 1.5s1.5 -0.54 1.5 -1.5 -0.54 -1.5 -1.5 -1.5 -1.5 0.54 -1.5 1.5Z" stroke-width="1"/><path id="Vector_2" stroke="currentColor" stroke-linecap="round" stroke-linejoin="round" d="M0.5 7h5.02368" stroke-width="1"/><path id="Vector_3" stroke="currentColor" stroke-linecap="round" stroke-linejoin="round" d="M10.5 12c0 0.96 0.54 1.5 1.5 1.5s1.5 -0.54 1.5 -1.5 -0.54 -1.5 -1.5 -1.5 -1.5 0.54 -1.5 1.5Z" stroke-width="1"/><path id="Vector_4" stroke="currentColor" stroke-linecap="round" stroke-linejoin="round" d="M0.5 12h10" stroke-width="1"/><path id="Vector_5" stroke="currentColor" stroke-linecap="round" stroke-linejoin="round" d="M8.52368 7 13.5 7" stroke-width="1"/><path id="Vector_6" stroke="currentColor" stroke-linecap="round" stroke-linejoin="round" d="M0.5 2c0 0.96 0.54 1.5 1.5 1.5S3.5 2.96 3.5 2 2.96 0.5 2 0.5 0.5 1.04 0.5 2Z" stroke-width="1"/><path id="Vector_7" stroke="currentColor" stroke-linecap="round" stroke-linejoin="round" d="m13.5 2 -10 0" stroke-width="1"/></g></svg>