<svg xmlns="http://www.w3.org/2000/svg" fill="none" viewBox="0 0 14 14"><g stroke="currentColor" stroke-linecap="round"><path d="M3.688.75v1.896M10.438.75v1.896"/><path stroke-linejoin="round" d="M1.06 7.681c.107.463.503.807.971.832 3.377.178 6.686.178 10.063 0 .468-.025.864-.369.97-.832.331-1.431.331-2.638 0-4.07a1.065 1.065 0 0 0-.97-.83 95 95 0 0 0-10.063 0 1.065 1.065 0 0 0-.97.83C.73 5.043.73 6.25 1.06 7.681"/><path d="M3.688 8.646v4.604M10.438 8.646v4.604M9.501 3.758c1.08 1.08 2.54 2.436 3.65 3.45m-3.65-3.45c-.32-.32-.663-.672-1.015-1.04zM10.398 8.57a108 108 0 0 1-2.924-2.784 112 112 0 0 1-2.958-3.114M1.21 3.299c.984 1.088 2.84 3.118 4.237 4.514.249.25.518.513.799.784"/></g></svg>