<svg xmlns="http://www.w3.org/2000/svg" fill="none" viewBox="0 0 14 14"><desc>Dashboard Square Streamline Icon: https://streamlinehq.com</desc><g stroke="currentColor" stroke-linecap="round" stroke-linejoin="round"><path d="M8.523 4.411c.06.554.505 1 1.059 1.061.411.046.834.086 1.264.086s.853-.04 1.265-.086c.553-.061 1-.507 1.058-1.061.044-.41.081-.829.081-1.257s-.037-.848-.08-1.257c-.06-.554-.506-1-1.06-1.062A11 11 0 0 0 10.847.75c-.43 0-.853.04-1.264.085-.554.062-1 .508-1.059 1.062-.044.409-.08.829-.08 1.257s.036.848.08 1.257M.83 4.411c.06.554.506 1 1.06 1.061.41.046.833.086 1.264.086.43 0 .853-.04 1.264-.086.554-.061 1-.507 1.059-1.061.044-.41.08-.829.08-1.257s-.036-.848-.08-1.257c-.06-.554-.505-1-1.059-1.062A11 11 0 0 0 3.154.75c-.43 0-.853.04-1.265.085C1.336.897.89 1.343.831 1.897.787 2.306.75 2.726.75 3.154s.037.848.08 1.257M.83 12.103c.06.554.506 1 1.06 1.062a11 11 0 0 0 1.264.085c.43 0 .853-.04 1.264-.085.554-.062 1-.508 1.059-1.062.044-.409.08-.829.08-1.257s-.036-.848-.08-1.257c-.06-.554-.505-1-1.059-1.061a11 11 0 0 0-1.264-.086c-.43 0-.853.04-1.265.086-.553.061-.999.507-1.058 1.061-.044.41-.081.829-.081 1.257s.037.848.08 1.257M8.523 12.103c.06.554.505 1 1.059 1.062.411.046.834.085 1.264.085s.853-.04 1.265-.085c.553-.062 1-.508 1.058-1.062.044-.409.081-.829.081-1.257s-.037-.848-.08-1.257c-.06-.554-.506-1-1.06-1.061a11 11 0 0 0-1.264-.086c-.43 0-.853.04-1.264.086-.554.061-1 .507-1.059 1.061-.044.41-.08.829-.08 1.257s.036.848.08 1.257"/></g></svg>