<svg xmlns="http://www.w3.org/2000/svg" fill="none" viewBox="0 0 14 14"><desc>Dashboard Square Horizontal Rectangle 1 Streamline Icon: https://streamlinehq.com</desc><g stroke="currentColor" stroke-linecap="round" stroke-linejoin="round"><path d="M2.241.839c-.351.034-.68.167-.93.38-.25.212-.41.49-.45.788C.801 2.46.75 2.927.75 3.4c0 .476.051.941.111 1.395.04.298.2.576.45.788s.579.346.93.38c.532.048 4.203.089 4.76.089s4.226-.04 4.758-.09c.352-.033.68-.167.93-.379.251-.212.41-.49.45-.788.06-.454.111-.92.111-1.395s-.051-.94-.111-1.394a1.26 1.26 0 0 0-.45-.788 1.7 1.7 0 0 0-.93-.38C11.227.791 7.557.749 7 .749S2.773.792 2.241.84M4.411 13.17c.554-.06 1-.506 1.061-1.06.046-.41.086-.833.086-1.264 0-.43-.04-.853-.086-1.264-.061-.554-.507-1-1.061-1.059-.41-.044-.829-.08-1.257-.08s-.848.036-1.257.08c-.554.06-1 .505-1.062 1.059-.046.411-.085.834-.085 1.264s.04.853.085 1.265c.062.553.508 1 1.062 1.058.409.044.829.081 1.257.081s.848-.037 1.257-.08M12.103 13.17c.555-.06 1-.506 1.062-1.06.046-.41.085-.833.085-1.264 0-.43-.04-.853-.085-1.264-.062-.554-.507-1-1.062-1.059-.409-.044-.829-.08-1.257-.08s-.848.036-1.257.08c-.554.06-1 .505-1.061 1.059-.046.411-.086.834-.086 1.264s.04.853.086 1.265c.061.553.507 1 1.061 1.058.41.044.83.081 1.257.081.428 0 .848-.037 1.257-.08"/></g></svg>