<svg xmlns="http://www.w3.org/2000/svg" fill="none" viewBox="0 0 14 14"><desc>Dashboard 3 Streamline Icon: https://streamlinehq.com</desc><g stroke="currentColor" stroke-linecap="round" stroke-linejoin="round"><path d="M.884 7.131c.036.476.398.87.869.952.49.084.995.165 1.512.165s1.022-.081 1.512-.165c.47-.081.833-.476.868-.952.064-.847.135-1.728.135-2.632s-.071-1.786-.135-2.633a1.05 1.05 0 0 0-.868-.951C4.287.831 3.782.75 3.265.75S2.243.83 1.753.915c-.47.08-.833.475-.869.951C.821 2.713.75 3.594.75 4.5S.82 6.284.884 7.13M8.355 12.134c.035.476.397.87.868.951.49.084.995.165 1.512.165s1.022-.08 1.512-.165c.47-.08.833-.475.869-.952.063-.846.134-1.727.134-2.632 0-.904-.07-1.785-.134-2.632a1.05 1.05 0 0 0-.869-.952c-.49-.084-.995-.165-1.512-.165s-1.022.081-1.512.165c-.47.081-.833.476-.868.952-.064.847-.135 1.728-.135 2.632s.071 1.785.135 2.633M8.257 2.514c.073.463.488.805.956.833.493.03 1.002.06 1.522.06s1.03-.03 1.522-.06c.468-.028.884-.37.956-.833.022-.144.037-.289.037-.436s-.015-.292-.037-.435c-.072-.464-.488-.805-.956-.834C11.764.78 11.255.75 10.735.75S9.706.779 9.213.81c-.468.028-.883.37-.956.833a3 3 0 0 0-.037.435c0 .147.015.292.037.436M.787 12.357c.072.464.488.805.956.834.493.03 1.002.059 1.522.059s1.029-.029 1.522-.06c.468-.028.883-.37.956-.833a3 3 0 0 0 .037-.435 3 3 0 0 0-.037-.436c-.073-.463-.488-.805-.956-.833-.493-.03-1.002-.06-1.522-.06s-1.03.03-1.522.06c-.468.028-.884.37-.956.833a3 3 0 0 0-.037.436c0 .147.015.292.037.435"/></g></svg>