<svg xmlns="http://www.w3.org/2000/svg" fill="none" viewBox="0 0 14 14"><desc>Dashboard Square Vertical Rectangle 1 Streamline Icon: https://streamlinehq.com</desc><g stroke="currentColor" stroke-linecap="round" stroke-linejoin="round"><path d="M13.16 2.241a1.7 1.7 0 0 0-.379-.93c-.212-.25-.49-.41-.788-.45-.454-.06-.92-.111-1.395-.111s-.94.051-1.394.111c-.298.04-.576.2-.788.45s-.346.579-.38.93c-.048.532-.089 4.203-.089 4.76s.04 4.226.09 4.758c.033.352.167.68.379.93.212.251.49.41.788.45.454.06.92.111 1.394.111.476 0 .941-.051 1.395-.111.298-.04.576-.2.788-.45s.346-.579.38-.93c.048-.532.089-4.202.089-4.759s-.04-4.227-.09-4.759M.83 4.411c.06.554.506 1 1.06 1.061.41.046.833.086 1.264.086.43 0 .853-.04 1.264-.086.554-.061 1-.507 1.059-1.061.044-.41.08-.829.08-1.257s-.036-.848-.08-1.257c-.06-.554-.505-1-1.059-1.062A11 11 0 0 0 3.154.75c-.43 0-.853.04-1.265.085C1.336.897.89 1.343.831 1.897.787 2.306.75 2.726.75 3.154s.037.848.08 1.257M.83 12.103c.06.554.506 1 1.06 1.062a11 11 0 0 0 1.264.085c.43 0 .853-.04 1.264-.085.554-.062 1-.508 1.059-1.062.044-.409.08-.829.08-1.257s-.036-.848-.08-1.257c-.06-.554-.505-1-1.059-1.061a11 11 0 0 0-1.264-.086c-.43 0-.853.04-1.265.086-.553.061-.999.507-1.058 1.061-.044.41-.081.829-.081 1.257s.037.848.08 1.257"/></g></svg>