<svg xmlns="http://www.w3.org/2000/svg" fill="none" viewBox="0 0 14 14"><desc>Dashboard Square Vertical Rectangle 2 Streamline Icon: https://streamlinehq.com</desc><g stroke="currentColor" stroke-linecap="round" stroke-linejoin="round"><path d="M.839 2.241c.034-.351.167-.68.38-.93.212-.25.49-.41.788-.45C2.46.801 2.927.75 3.4.75c.475 0 .941.051 1.395.111.298.04.576.2.788.45s.346.579.38.93c.048.532.089 4.203.089 4.76s-.041 4.226-.09 4.758c-.033.352-.167.68-.379.93-.212.251-.49.41-.788.45-.454.06-.92.111-1.395.111s-.94-.051-1.394-.111a1.26 1.26 0 0 1-.789-.45 1.7 1.7 0 0 1-.38-.93C.79 11.227.75 7.557.75 7s.04-4.227.089-4.759M13.17 4.411c-.06.554-.506 1-1.06 1.061-.41.046-.833.086-1.264.086-.43 0-.853-.04-1.264-.086-.554-.061-1-.507-1.059-1.061a12 12 0 0 1-.08-1.257c0-.428.036-.848.08-1.257.06-.554.505-1 1.059-1.062.411-.046.833-.085 1.264-.085.43 0 .853.04 1.264.085.554.062 1 .508 1.06 1.062.043.409.08.829.08 1.257s-.037.848-.08 1.257M13.17 12.103c-.06.554-.506 1-1.06 1.062-.41.046-.833.085-1.264.085-.43 0-.853-.04-1.264-.085-.554-.062-1-.508-1.059-1.062a12 12 0 0 1-.08-1.257c0-.428.036-.848.08-1.257.06-.554.505-1 1.059-1.061.411-.046.833-.086 1.264-.086.43 0 .853.04 1.264.086.554.061 1 .507 1.06 1.061.043.41.08.829.08 1.257s-.037.848-.08 1.257"/></g></svg>