<svg xmlns="http://www.w3.org/2000/svg" fill="none" viewBox="0 0 14 14"><desc>Buttons None 2 Streamline Icon: https://streamlinehq.com</desc><g stroke="currentColor" stroke-linecap="round" stroke-linejoin="round"><path d="M8.838 1.27a13.4 13.4 0 0 1-.04 2.213.54.54 0 0 1-.147.325c-.323.35-1.374 1.203-1.652 1.203-.279 0-1.33-.852-1.653-1.203a.54.54 0 0 1-.143-.325 13.5 13.5 0 0 1-.044-2.213.76.76 0 0 1 .713-.722C6.227.524 6.658.5 6.998.5s.772.024 1.127.048a.76.76 0 0 1 .713.722M8.838 12.73a13.4 13.4 0 0 0-.04-2.213.54.54 0 0 0-.147-.325c-.323-.35-1.374-1.203-1.652-1.203-.279 0-1.33.852-1.653 1.203a.54.54 0 0 0-.143.325 13.5 13.5 0 0 0-.044 2.213.76.76 0 0 0 .713.722c.355.024.786.048 1.126.048s.772-.023 1.127-.048a.76.76 0 0 0 .713-.722M12.73 8.838a13.4 13.4 0 0 1-2.213-.039.54.54 0 0 1-.325-.148C9.842 8.328 8.989 7.277 8.989 7s.852-1.33 1.203-1.652a.54.54 0 0 1 .325-.144 13.5 13.5 0 0 1 2.213-.043.76.76 0 0 1 .722.712c.024.355.048.787.048 1.127s-.023.771-.048 1.126a.76.76 0 0 1-.722.713M1.27 8.838A13.4 13.4 0 0 0 3.483 8.8a.54.54 0 0 0 .325-.148C4.158 8.328 5.011 7.277 5.011 7s-.852-1.33-1.203-1.652a.54.54 0 0 0-.325-.144A13.5 13.5 0 0 0 1.27 5.16a.76.76 0 0 0-.722.712C.524 6.227.5 6.66.5 7s.024.771.048 1.126a.76.76 0 0 0 .722.713"/></g></svg>