<svg xmlns="http://www.w3.org/2000/svg" fill="none" viewBox="0 0 14 14" id="Open-Book--Streamline-Flex"><desc>Open Book Streamline Icon: https://streamlinehq.com</desc><g id="open-book--content-books-book-open"><path id="Intersect" stroke="currentColor" stroke-linecap="round" stroke-linejoin="round" d="M0.5 5.56058C0.5 4.244 0.595784 2.96161 0.681242 1.72883 0.725061 1.09671 1.28264 0.631001 1.87732 0.776919 3.73973 1.23391 5.38731 2.03295 7.00005 3.22379V13.25c-1.70022 -1.2554 -3.43916 -2.0754 -5.42773 -2.5182 -0.47347 -0.1055 -0.834982 -0.515 -0.868885 -1.01602C0.613337 8.38439 0.5 6.99272 0.5 5.56058Z" stroke-width="1"/><path id="Intersect_2" stroke="currentColor" stroke-linecap="round" stroke-linejoin="round" d="M13.4998 5.56058c0 -1.31658 -0.0958 -2.59897 -0.1812 -3.83175 -0.0439 -0.63212 -0.6014 -1.097829 -1.1961 -0.951911 -1.8624 0.456991 -3.51001 1.256031 -5.12274 2.446871V13.25c1.70021 -1.2554 3.43914 -2.0754 5.42774 -2.5182 0.4735 -0.1055 0.835 -0.515 0.8689 -1.01602 0.0901 -1.33139 0.2034 -2.72306 0.2034 -4.1552Z" stroke-width="1"/></g></svg>