<svg clip-rule="evenodd" fill-rule="evenodd" stroke-linecap="round" stroke-linejoin="round" viewBox="0 0 21 20" xmlns="http://www.w3.org/2000/svg"><g fill="none" stroke="currentColor" transform="matrix(1.0119 0 0 1.0119 -.124057 -.118957)"><path d="m2.834 17.681c.047.687.583 1.24 1.269 1.303 4.34.4 8.311.4 12.652 0 .686-.063 1.222-.616 1.268-1.303.352-5.228.352-10.134 0-15.362-.046-.687-.582-1.24-1.268-1.303-4.341-.4-8.312-.4-12.652 0-.686.063-1.222.616-1.269 1.303-.352 5.228-.352 10.134 0 15.362z"/><path d="m10.429 6.429h3.928"/><path d="m10.429 8.957h3.928"/><path d="m6.112.858c.347 6.173.32 12.062-.082 18.279"/></g></svg>