<svg xmlns="http://www.w3.org/2000/svg" fill="none" viewBox="0 0 14 14"><g stroke="currentColor" stroke-linecap="round" stroke-linejoin="round"><path d="M7 10.283c-1.494 0-2.95-.132-4.355-.255A2.09 2.09 0 0 1 .763 8.257C.626 7.327.5 6.37.5 5.39s.126-1.936.263-2.865c.14-.95.925-1.688 1.882-1.772C4.05.632 5.506.5 7 .5s2.95.132 4.355.254a2.09 2.09 0 0 1 1.882 1.772c.082.555.16 1.12.21 1.695M3.5 2.873h6.125M3.5 5.415h1.75M12.647 10.06c.106 1.09.12 2.185.028 3.276a.179.179 0 0 1-.29.124l-1.013-.817a.434.434 0 0 0-.546 0l-1.012.817a.179.179 0 0 1-.29-.124 18 18 0 0 1 .028-3.275"/><path d="M11.1 10.54a2.4 2.4 0 1 0 0-4.802 2.4 2.4 0 0 0 0 4.801"/><path d="M11.1 8.46a.322.322 0 1 1 0-.643M11.1 8.46a.322.322 0 1 0 0-.643"/></g></svg>