<svg xmlns="http://www.w3.org/2000/svg" fill="none" viewBox="0 0 16 16"><path stroke="currentColor" stroke-linecap="round" stroke-linejoin="round" d="M0.5714285714285714 12.173257142857143c0 -0.5878857142857142 0.510952 -1.0508114285714285 1.09744 -1.0091657142857142C2.87032 11.249382857142855 5.029039999999999 11.363085714285715 8 11.363085714285715s5.129714285714286 -0.11370285714285713 6.331085714285714 -0.1989942857142857c0.5865142857142857 -0.041645714285714286 1.0974857142857142 0.42128 1.0974857142857142 1.0091657142857142v0c0 1.3961142857142856 -0.9780571428571428 2.586171428571429 -2.3669714285714285 2.728342857142857 -1.2396571428571428 0.12685714285714286 -2.944388571428571 0.24125714285714286 -5.061599999999999 0.24125714285714286 -2.1172114285714283 0 -3.82192 -0.11439999999999999 -5.061645714285714 -0.24125714285714286C1.549542857142857 14.759428571428572 0.5714285714285714 13.56937142857143 0.5714285714285714 12.173257142857143v0Z" stroke-width="1"/><path stroke="currentColor" stroke-linecap="round" stroke-linejoin="round" d="M10.373737142857141 2.6448114285714284c0.6958857142857142 0.04432 1.3950628571428572 0.10805714285714285 2.10032 0.19121142857142853 1.0764571428571428 0.1269142857142857 1.8912 1.0174742857142858 1.9103999999999999 2.101257142857143 0.03245714285714286 1.826445714285714 -0.16217142857142855 4.339634285714285 -0.4721142857142857 6.2549714285714275 -1.2543999999999997 0.08014857142857142 -3.2595657142857144 0.17079999999999998 -5.912342857142857 0.17079999999999998 -2.6530400000000003 0 -4.658377142857143 -0.09067428571428571 -5.912731428571428 -0.17082285714285714 -0.3099885714285714 -1.9153371428571428 -0.5045485714285713 -4.428514285714286 -0.4721485714285714 -6.254948571428572 0.01921142857142857 -1.0837828571428572 0.8339885714285714 -1.974342857142857 1.91048 -2.101257142857143 0.7052571428571428 -0.08315428571428572 1.4043999999999999 -0.14689142857142856 2.100285714285714 -0.19121142857142853" stroke-width="1"/><path stroke="currentColor" stroke-linecap="round" stroke-linejoin="round" d="M8 0.8571679999999999 8 8.147325714285714" stroke-width="1"/><path stroke="currentColor" stroke-linecap="round" stroke-linejoin="round" d="M10.312502857142858 5.834582857142857c-0.46254857142857136 0.9250971428571427 -1.3876457142857144 1.8501942857142855 -2.3127085714285713 2.3127428571428568 -0.9251314285714286 -0.46254857142857136 -1.8502285714285711 -1.3876457142857144 -2.312777142857143 -2.3127428571428568" stroke-width="1"/></svg>