<svg xmlns="http://www.w3.org/2000/svg" fill="none" viewBox="0 0 14 14"><g stroke="currentColor" stroke-linecap="round" stroke-linejoin="round"><path d="M7 .75v7.448M9.344 5.854C8.875 6.79 7.937 7.729 7 8.198c-.938-.47-1.875-1.407-2.344-2.344"/><path d="M4.495 3.427a37 37 0 0 0-2.066.203c-.745.095-1.333.64-1.434 1.354A25 25 0 0 0 .75 8.295c.01 1.343.13 2.505.245 3.31.1.715.69 1.26 1.434 1.354 3.068.388 6.073.387 9.141 0 .745-.094 1.334-.639 1.435-1.354.114-.805.236-1.967.245-3.31a25 25 0 0 0-.245-3.31c-.1-.715-.69-1.26-1.435-1.354A37 37 0 0 0 9.5 3.427"/></g></svg>