<svg xmlns="http://www.w3.org/2000/svg" fill="none" viewBox="0 0 14 14"><path stroke="currentColor" stroke-linecap="round" stroke-linejoin="round" d="M0.670625 11.0771c0.064523 0.5716 0.320784 1.1044 0.726995 1.5117 0.40621 0.4072 0.93841 0.6649 1.50982 0.7308 0.86937 0.0975 1.76068 0.1804 2.67068 0.1804 0.91001 0 1.80213 -0.0829 2.67069 -0.1804 0.57141 -0.0659 1.10361 -0.3236 1.50982 -0.7308 0.40617 -0.4073 0.66247 -0.9401 0.72697 -1.5117 0.0926 -0.8637 0.1706 -1.75091 0.1706 -2.65522 0 -0.90432 -0.078 -1.79157 -0.1706 -2.65607 -0.0645 -0.57157 -0.3208 -1.10442 -0.72697 -1.51167 -0.40621 -0.40724 -0.93841 -0.66485 -1.50982 -0.73083 -0.86937 -0.09587 -1.76068 -0.17956 -2.67069 -0.17956 -0.91 0 -1.80212 0.08288 -2.67068 0.18038 -0.57141 0.06597 -1.10361 0.32358 -1.50982 0.73083 -0.406211 0.40724 -0.662472 0.94009 -0.726995 1.51167C0.578 6.6295 0.5 7.51675 0.5 8.42188c0 0.90512 0.078 1.79152 0.170625 2.65522Z" stroke-width="1"/><path stroke="currentColor" stroke-linecap="round" stroke-linejoin="round" d="M4.40967 1.25702c0.37997 -0.318082 0.84602 -0.51943 1.34157 -0.576645C6.6198 0.582875 7.51193 0.5 8.42193 0.5c0.91 0 1.80127 0.083688 2.67067 0.179563 0.5714 0.065974 1.1036 0.323587 1.5098 0.730827 0.4062 0.40725 0.6625 0.9401 0.727 1.51167 0.0927 0.8645 0.1707 1.75175 0.1707 2.65606 0 0.90432 -0.078 1.79157 -0.1707 2.65525 -0.0578 0.51215 -0.2695 0.99321 -0.6052 1.38067" stroke-width="1"/><path stroke="currentColor" stroke-linecap="round" stroke-linejoin="round" d="M3.67188 6.94482h3.81249" stroke-width="1"/><path stroke="currentColor" stroke-linecap="round" stroke-linejoin="round" d="M3.67188 9.71045h2.30064" stroke-width="1"/></svg>