<svg xmlns="http://www.w3.org/2000/svg" fill="none" viewBox="-0.45 -0.45 14 14" id="Earth-1--Streamline-Flex">
  <desc>
    Earth 1 Streamline Icon: https://streamlinehq.com
  </desc>
  <g id="earth-1--planet-earth-globe-world">
    <path id="Vector" stroke="currentColor" stroke-linecap="round" stroke-linejoin="round" d="M6.55 12.632142857142858c3.892571428571429 0 6.082142857142857 -2.1895714285714285 6.082142857142857 -6.082142857142857S10.442571428571428 0.46785714285714286 6.55 0.46785714285714286 0.46785714285714286 2.6574285714285715 0.46785714285714286 6.55s2.1895714285714285 6.082142857142857 6.082142857142857 6.082142857142857Z" stroke-width="0.9"></path>
    <path id="Vector_2" stroke="currentColor" stroke-linecap="round" stroke-linejoin="round" d="m10.264879285714287 11.299217857142857 -0.0011228571428571427 0.38523357142857145m0 0c1.5413085714285715 -0.9927928571428571 2.36848 -2.741942285714286 2.36848 -5.1344233571428575 0 -0.02098807142857143 -0.00009357142857142858 -0.04192 -0.00018714285714285716 -0.06280514285714285l-0.05352285714285714 -0.030251642857142855c-1.0723285714285713 -0.5561324285714285 -3.697886714285714 -0.8229981428571429 -4.625600642857143 0.1047157857142857 -0.3044159285714286 0.3044159285714286 -0.4754364285714286 0.7172998571428572 -0.4754364285714286 1.147812642857143 0 0.4305127857142857 0.1710205 0.8433967142857143 0.4754364285714286 1.147812642857143 0.30442528571428573 0.3044159285714286 0.7172998571428572 0.4754364285714286 1.147812642857143 0.4754364285714286 0.3074944285714286 0 0.6024315714285714 0.12217621428571428 0.8198915714285714 0.3396362142857143 0.21746 0.21736642857142857 0.3395707142857143 0.5123035714285714 0.3395707142857143 0.8198728571428572v1.194532857142857l0.0035557142857142857 -0.0023392857142857143Z" stroke-width="0.9"></path>
    <path id="Vector_3" stroke="currentColor" stroke-linecap="round" stroke-linejoin="round" d="M3.7555547857142852 8.3934975c0.3044159285714286 -0.30442528571428573 0.4754364285714286 -0.7172998571428572 0.4754364285714286 -1.147812642857143V5.8543245c0 -0.4305127857142857 0.1710205 -0.8433967142857143 0.4754457857142857 -1.147812642857143 0.3044159285714286 -0.3044159285714286 0.7172998571428572 -0.4754364285714286 1.147812642857143 -0.4754364285714286 0.4305127857142857 0 0.8433873571428571 -0.1710205 1.147812642857143 -0.4754457857142857 0.7839039999999999 -0.7839039999999999 0.6579287857142857 -2.1473707142857146 0.4754364285714286 -3.243423385714286C7.180081928571429 0.48273125714285714 6.870828357142857 0.46785714285714286 6.55 0.46785714285714286 2.6574285714285715 0.46785714285714286 0.46785714285714286 2.6574285714285715 0.46785714285714286 6.55c0 0.8573201428571429 0.10621199285714286 1.6320260714285715 0.3134362142857143 2.3189339285714285 1.0550459285714284 0.5092625000000001 2.2368624285714285 0.26196257142857143 2.9742614285714284 -0.4754364285714286Z" stroke-width="0.9"></path>
  </g>
</svg>