<svg xmlns="http://www.w3.org/2000/svg" fill="none" viewBox="0 0 14 14"><g stroke="currentColor" stroke-linecap="round" stroke-linejoin="round"><path d="M2.17 4.926c3.835 3.38 6.314 4.803 11.33 6.532"/><path d="M2.735 4.971c1.43 0 2.235-.805 2.235-2.235S4.165.5 2.735.5C1.304.5.499 1.305.499 2.736S1.304 4.97 2.735 4.97M2.17 9.074C6.005 5.694 8.484 4.27 13.5 2.542"/><path d="M2.735 9.029c1.43 0 2.235.805 2.235 2.235 0 1.431-.805 2.236-2.235 2.236-1.431 0-2.236-.805-2.236-2.236 0-1.43.805-2.235 2.236-2.235"/></g></svg>