<svg xmlns="http://www.w3.org/2000/svg" fill="none" viewBox="0 0 14 14"><desc>Paint Palette Streamline Icon: https://streamlinehq.com</desc><g stroke="currentColor" stroke-linecap="round" stroke-linejoin="round"><path d="M4.66 10.34c-.332 0-.52-.18-.52-.5s.188-.5.52-.5M4.66 10.34c.333 0 .52-.18.52-.5s-.187-.5-.52-.5"/><path d="M.5 7c0 4.16 2.34 6.5 6.5 6.5 1.03 0 2.389-.266 2.747-1.293.52-1.49-2.2-1.107-2.2-2.981 0-3.321 5.953.446 5.953-4C13.5 3.27 11.16.5 7 .5S.5 2.84.5 7"/><path d="M8.56 4.92c.665 0 1.04-.374 1.04-1.04s-.375-1.04-1.04-1.04-1.04.374-1.04 1.04.374 1.04 1.04 1.04M4.4 6.48c.666 0 1.04-.374 1.04-1.04S5.066 4.4 4.4 4.4s-1.04.374-1.04 1.04.375 1.04 1.04 1.04"/></g></svg>