<svg xmlns="http://www.w3.org/2000/svg" fill="none" viewBox="0 0 14 14"><path stroke="currentColor" stroke-linecap="round" stroke-linejoin="round" d="M12.6867 11.4252c0.0918 -1.427 0.14 -2.90741 0.14 -4.42525 0 -0.40984 -0.0035 -0.81695 -0.0104 -1.22102 -0.0134 -0.77977 -0.2621 -1.54129 -0.7384 -2.1588 -0.7917 -1.02627 -1.5 -1.73829 -2.58864 -2.57546C9.17153 0.800325 8.78242 0.667419 8.3817 0.658393 7.94491 0.648554 7.48852 0.643555 7.00004 0.643555c-1.47696 0 -2.66054 0.045707 -3.896 0.132681 -0.96353 0.067831 -1.72874 0.834564 -1.7907 1.798494 -0.09173 1.42698 -0.14 2.90739 -0.14 4.42522 0 1.51784 0.04827 2.99825 0.14 4.42525 0.06196 0.9639 0.82717 1.7306 1.7907 1.7985 1.23546 0.0869 2.41904 0.1327 3.896 0.1327s2.66054 -0.0458 3.89596 -0.1327c0.9636 -0.0679 1.7288 -0.8346 1.7907 -1.7985Z" stroke-width="1"/><path stroke="currentColor" stroke-linecap="round" stroke-linejoin="round" d="M5.09375 7.01562h3.8125" stroke-width="1"/><path stroke="currentColor" stroke-linecap="round" stroke-linejoin="round" d="M5.09375 9.92185H8.8944M5.09375 4H7.3944" stroke-width="1"/></svg>