<svg xmlns="http://www.w3.org/2000/svg" fill="none" viewBox="0 0 24 24">
    <path fill="currentColor" d="M15.543 15.5432c0.3905 -0.3905 1.0235 -0.3905 1.414 0 0.3904 0.3905 0.3905 1.0236 0 1.4141l-4.25 4.25c-0.3904 0.3904 -1.0235 0.3903 -1.414 0l-4.25003 -4.25c-0.3905 -0.3905 -0.39045 -1.0236 0 -1.4141 0.39052 -0.3905 1.02354 -0.3905 1.41406 0L12 19.0862zM11.3691 2.72485c0.3928 -0.32035 0.9718 -0.29775 1.3379 0.06836l4.25 4.25c0.3904 0.39054 0.3905 1.02359 0 1.41407 -0.3904 0.39039 -1.0235 0.39034 -1.414 0L12 4.91431 8.45703 8.45728c-0.39048 0.39039 -1.02355 0.39034 -1.41406 0 -0.3905 -0.3905 -0.39045 -1.02354 0 -1.41407l4.25003 -4.25z" stroke-width="1"></path>
</svg>
