<svg xmlns="http://www.w3.org/2000/svg" fill="none" viewBox="0 0 14 14"><path stroke="currentColor" stroke-linecap="round" stroke-linejoin="round" d="m1 13 4 -4" stroke-width="1"/><path stroke="currentColor" stroke-linecap="round" stroke-linejoin="round" d="M13 1 9 5" stroke-width="1"/><path stroke="currentColor" stroke-linecap="round" stroke-linejoin="round" d="m1 1 4 4" stroke-width="1"/><path stroke="currentColor" stroke-linecap="round" stroke-linejoin="round" d="M13 13 9 9" stroke-width="1"/><path stroke="currentColor" stroke-linecap="round" stroke-linejoin="round" d="M13 5.00004c0.5 -1.50004 0.5 -2.50004 0 -4 -1.5 -0.500045 -2.5 -0.500059 -4 0" stroke-width="1"/><path stroke="currentColor" stroke-linecap="round" stroke-linejoin="round" d="M1.00003 9c-0.500033 1.5 -0.500042 2.5 -0.00001 4 1.49998 0.5 2.49998 0.5 4 0" stroke-width="1"/><path stroke="currentColor" stroke-linecap="round" stroke-linejoin="round" d="M1.00001 5.00004C0.5 3.5 0.5 2.5 1 1.00004c1.5 -0.500045 2.5 -0.500059 4 0" stroke-width="1"/><path stroke="currentColor" stroke-linecap="round" stroke-linejoin="round" d="M13 9c0.5 1.5 0.5 2.5 0 4 -1.5 0.5 -2.5 0.5 -4.00002 0" stroke-width="1"/></svg>