<svg xmlns="http://www.w3.org/2000/svg" fill="none" viewBox="0 0 14 14"><path d="M13.25 7c0 1.113-.096 2.205-.21 3.269a3.13 3.13 0 0 1-2.753 2.76c-1.07.119-2.167.221-3.287.221s-2.218-.102-3.287-.222a3.13 3.13 0 0 1-2.753-2.76C.846 9.205.75 8.114.75 7s.096-2.205.21-3.269A3.13 3.13 0 0 1 3.713.971C4.783.853 5.88.75 7 .75M6.5 7.5l4.203-4.203M10.166 1.016c.77-.155 1.598-.132 2.194-.05a.76.76 0 0 1 .658.658c.082.596.105 1.424-.05 2.194-.104.52-.669.73-1.107.432a8.1 8.1 0 0 1-2.127-2.127c-.298-.438-.088-1.003.432-1.107" stroke="currentColor" stroke-linecap="round" stroke-linejoin="round"/></svg>