<svg xmlns="http://www.w3.org/2000/svg" fill="none" viewBox="0 0 14 14"><path stroke="currentColor" stroke-linecap="round" stroke-linejoin="round" d="M7.5544 6.47459 13.1108 0.918111" stroke-width="1"/><path stroke="currentColor" stroke-linecap="round" stroke-linejoin="round" d="M13.1294 4.93133c0.161 -1.62061 0.1611 -2.51073 0 -4.060578C11.5796 0.709704 10.6895 0.709795 9.06885 0.870751" stroke-width="1"/><path stroke="currentColor" stroke-linecap="round" stroke-linejoin="round" d="M10.6816 6.62131c0.0412 0.53584 0.0684 1.07918 0.0684 1.62877 0 1.06563 -0.1023 2.10772 -0.2106 3.11732 -0.1031 0.9603 -0.86885 1.7288 -1.83281 1.789 -2.00015 0.1248 -3.91303 0.1248 -5.91318 0 -0.96396 -0.0602 -1.72974 -0.8287 -1.832775 -1.789C0.852307 10.3578 0.75 9.31566 0.75 8.25002c0 -1.07941 0.104971 -2.1347 0.21484 -3.15651 0.10137 -0.94274 0.84118 -1.70481 1.7872 -1.76876 1.58795 -0.10735 3.1711 -0.10472 4.76608 -0.03535" stroke-width="1"/></svg>