<svg xmlns="http://www.w3.org/2000/svg" fill="none" viewBox="0 0 14 14"><path stroke="currentColor" stroke-linecap="round" stroke-linejoin="round" d="M1.38736 5.21254C0.823319 5.95324 0.5 6.63156 0.5 7c0 1.10537 2.91015 5 6.5 5 0.36468 0 0.72235 -0.0402 1.07066 -0.1136M3.0062 3.56228C4.10817 2.68516 5.4943 2 7 2c3.5899 0 6.5 3.89463 6.5 5 0 0.72914 -1.2663 2.67195 -3.1586 3.91" stroke-width="1"/><path stroke="currentColor" stroke-linecap="round" stroke-linejoin="round" d="M5.18457 6.01615C5.4745 5.35737 6.09833 5 7.00011 5c1.28 0 2 0.72 2 2 0 0.90625 -0.36092 1.53179 -1.02597 1.81982" stroke-width="1"/><path stroke="currentColor" stroke-linecap="round" stroke-linejoin="round" d="M0.499852 0.5C4.96491 6.2196 7.6578 8.88141 13.5 13.5" stroke-width="1"/></svg>