<svg xmlns="http://www.w3.org/2000/svg" fill="none" viewBox="0 0 14 14"><g stroke="currentColor" stroke-linecap="round" stroke-linejoin="round"><path d="M10.722 9.449c-2.376 2.327-4.79 1.39-7.557 3.801M12.425 9.296l-1.703.153-.793-.912M13.25 6.114l-1.074.643-1.296-.643M12.425 2.808l-.695 1.029-1.36-.29M10.648 1.233 10.369.75"/><path d="M3.278 9.449c2.376 2.327 4.79 1.39 7.557 3.801M3.353 1.233 3.63.75M1.575 2.808l.695 1.029 1.36-.29M.75 6.114l1.075.643 1.295-.643M1.575 9.296l1.703.153.793-.912"/></g></svg>