<svg xmlns="http://www.w3.org/2000/svg" fill="none" viewBox="0 0 14 14"><g stroke="currentColor" stroke-linejoin="round"><path d="M7.538 4.87c-.252-1.065-.651-1.97-1.255-2.798a.685.685 0 0 0-1.124 0C4.554 2.9 4.154 3.805 3.9 4.87c-1.026-.038-1.97.084-2.907.4-.456.154-.641.71-.37 1.123a6.9 6.9 0 0 0 2.153 2.091 9.1 9.1 0 0 0-.524 2.977c-.005.512.458.878.926.726.934-.303 1.754-.775 2.54-1.47a7 7 0 0 0 2.541 1.47c.469.152.931-.214.926-.726a9.1 9.1 0 0 0-.523-2.977 6.9 6.9 0 0 0 2.152-2.091c.271-.412.086-.97-.37-1.123-.936-.316-1.881-.438-2.907-.4Z"/><path stroke-linecap="round" d="M10.82 12.188c.47.151.932-.215.927-.727a9.1 9.1 0 0 0-.524-2.977 6.9 6.9 0 0 0 2.153-2.091c.271-.412.086-.97-.37-1.123a8 8 0 0 0-.5-.15M9.559 3.284a7 7 0 0 0-.715-1.212.685.685 0 0 0-.775-.26"/></g></svg>