<svg xmlns="http://www.w3.org/2000/svg" fill="none" viewBox="0 0 14 14"><desc>Star 1 Streamline Icon: https://streamlinehq.com</desc><path stroke="currentColor" stroke-linejoin="round" d="M9.263 4.348c-.314-1.325-.81-2.45-1.562-3.483a.852.852 0 0 0-1.399 0c-.753 1.032-1.251 2.158-1.565 3.483-1.278-.047-2.454.105-3.62.499-.567.19-.797.884-.46 1.397.7 1.063 1.563 1.899 2.68 2.603a11.3 11.3 0 0 0-.652 3.705c-.006.638.57 1.094 1.153.905 1.162-.378 2.183-.966 3.16-1.83.979.864 2.001 1.452 3.164 1.83.584.189 1.16-.267 1.153-.905a11.3 11.3 0 0 0-.652-3.705c1.117-.704 1.98-1.54 2.68-2.603.337-.513.107-1.206-.46-1.398-1.166-.393-2.343-.545-3.62-.498Z"/></svg>