<svg viewBox="0 0 14 14" version="1.1" xmlns="http://www.w3.org/2000/svg" xmlns:xlink="http://www.w3.org/1999/xlink"><g transform="translate(1 1)" stroke="currentColor" stroke-width="1" fill="none" fill-rule="evenodd" stroke-linecap="round" stroke-linejoin="round"><path d="M0.172874,9.7749 C0.33883,11.2143 1.54224,12.3571 3.03036,12.4268 C4.05892,12.475 5.10964,12.5 6.25,12.5 C7.39036,12.5 8.44107,12.475 9.4696,12.4268 C10.9578,12.3571 12.1612,11.2143 12.3271,9.7749 C12.5576,7.77571 12.5576,6.07323 12.3271,4.07404 C12.1612,2.63465 10.9578,1.49181 9.4696,1.42213 C8.44108,1.37397 7.39036,1.34894 6.25,1.34894 C5.10964,1.34894 4.05893,1.37397 3.03036,1.42213 C1.54224,1.49181 0.33883,2.63465 0.172873,4.07404 C-0.057625,6.07323 -0.057624,7.77571 0.172874,9.7749 Z"/><path d="M12.397,4.74994 L0.102539,4.74994 C0.122886,4.52793 0.146255,4.30293 0.172646,4.07404 C0.3386,2.63465 1.54202,1.49181 3.03013,1.42213 C4.0587,1.37397 5.10941,1.34894 6.24977,1.34894 C7.39014,1.34894 8.44085,1.37397 9.4694,1.42213 C10.9575,1.49181 12.1609,2.63465 12.3269,4.07404 C12.3533,4.30293 12.3767,4.52793 12.397,4.74994 L12.397,4.74994 Z"/><line x1="3.50195" y1="0" x2="3.50195" y2="2.75"/><line x1="8.99805" y1="0" x2="8.99805" y2="2.75"/></g></svg>