<svg xmlns="http://www.w3.org/2000/svg" fill="none" viewBox="0 0 14 14"><path stroke="currentColor" stroke-linecap="round" stroke-linejoin="round" d="M8.5 7.27051h4.75" stroke-width="1"/><path stroke="currentColor" stroke-linecap="round" stroke-linejoin="round" d="M8.5 10.2598h4.75" stroke-width="1"/><path stroke="currentColor" stroke-linecap="round" stroke-linejoin="round" d="M8.5 13.25h4.75" stroke-width="1"/><path stroke="currentColor" stroke-linecap="round" stroke-linejoin="round" d="M1.03026 3.87681c0.14135 0.41354 0.52811 0.70557 0.96488 0.72074 3.37058 0.11708 6.70911 0.11708 10.07966 0 0.4368 -0.01517 0.8236 -0.3072 0.9649 -0.72074 0.2803 -0.81992 0.2803 -1.49834 0 -2.31826 -0.1413 -0.41354 -0.5281 -0.705565 -0.9649 -0.720737 -3.37055 -0.117084 -6.70908 -0.117084 -10.07966 0 -0.43677 0.015172 -0.82353 0.307197 -0.96488 0.720737 -0.280255 0.81992 -0.280255 1.49834 0 2.31826Z" stroke-width="1"/><path stroke="currentColor" stroke-linecap="round" stroke-linejoin="round" d="M1.80686 6.77252c-0.5179 0.07522 -0.916473 0.47053 -0.95812 0.94722C0.717087 9.22663 0.717087 10.6912 0.848739 12.1981c0.041647 0.4767 0.440221 0.872 0.958121 0.9472 0.95985 0.1394 1.86393 0.1394 2.82378 0 0.5179 -0.0752 0.91647 -0.4705 0.95812 -0.9472 0.13165 -1.5069 0.13165 -2.97147 0 -4.47836 -0.04165 -0.47669 -0.44022 -0.872 -0.95812 -0.94722 -0.95985 -0.1394 -1.86393 -0.1394 -2.82378 0Z" stroke-width="1"/></svg>