<svg xmlns="http://www.w3.org/2000/svg" fill="none" viewBox="-0.25 -0.25 14 14" id="Library-Books--Streamline-Flex">
  <desc>
    Library Books Streamline Icon: https://streamlinehq.com
  </desc>
  <g id="library-books--library-books-content-file-pages">
    <path id="Intersect" stroke="currentColor" stroke-linecap="round" stroke-linejoin="round" d="M3.0841425 2.8411425c0.11005392857142857 -0.9998967857142856 0.9114814285714286 -1.8011025 1.9109057142857144 -1.9153452857142856C5.916220714285715 0.8204933571428572 6.865155 0.7234495714285715 7.834435714285713 0.7234495714285715c0.9692903571428572 0 1.9182535714285716 0.09704378571428572 2.839435714285714 0.20234667857142857 0.9993857142857143 0.11424375 1.8008035714285715 0.9154494642857143 1.9108285714285715 1.91534625 0.10086428571428571 0.9164475 0.19208571428571428 1.860435 0.19208571428571428 2.824624285714286s-0.09122142857142858 1.9081767857142857 -0.19208571428571428 2.824624285714286c-0.110025 0.9998967857142856 -0.9114428571428572 1.8011410714285714 -1.9108285714285715 1.9153125000000002 -0.921182142857143 0.1053 -1.8701453571428572 0.20240357142857143 -2.839435714285714 0.20240357142857143 -0.9692807142857143 0 -1.918215 -0.09710357142857143 -2.8393875 -0.20240357142857143 -0.9994242857142858 -0.11417142857142858 -1.8008517857142858 -0.9154157142857143 -1.9109057142857144 -1.9153125000000002 -0.10086428571428571 -0.9164475 -0.19201821428571428 -1.860435 -0.19201821428571428 -2.824624285714286s0.09115392857142858 -1.9081767857142857 0.19201821428571428 -2.824624285714286Z" stroke-width="0.5"></path>
    <path id="Vector" stroke="currentColor" stroke-linecap="round" stroke-linejoin="round" d="M5.333232857142857 7.915802142857143H8.507700000000002" stroke-width="0.5"></path>
    <path id="Vector_2" stroke="currentColor" stroke-linecap="round" stroke-linejoin="round" d="M10.335600000000001 5.665178571428571H5.333396785714285" stroke-width="0.5"></path>
    <path id="Vector_3" stroke="currentColor" stroke-linecap="round" stroke-linejoin="round" d="M10.335503571428571 3.416435357142857H5.333281071428571" stroke-width="0.5"></path>
    <path id="Intersect_2" stroke="currentColor" stroke-linecap="round" stroke-linejoin="round" d="M8.505038571428573 12.574382142857143c-0.9211725 0.1053 -1.8701067857142857 0.20230714285714285 -2.839397142857143 0.20230714285714285 -0.9692807142857143 0 -1.918215 -0.09700714285714285 -2.8393875 -0.20230714285714285 -0.9994242857142858 -0.11426785714285714 -1.8008614285714286 -0.9154928571428572 -1.9109037857142859 -1.9153607142857143 -0.10086235714285714 -0.9164571428571429 -0.1920249642857143 -1.8604446428571428 -0.1920249642857143 -2.8246339285714286 0 -0.9641892857142857 0.09116260714285715 -1.9081767857142857 0.1920249642857143 -2.824624285714286" stroke-width="0.5"></path>
  </g>
</svg>