<svg viewBox="0 0 17 14" version="1.1" xmlns="http://www.w3.org/2000/svg" xmlns:xlink="http://www.w3.org/1999/xlink"><g transform="translate(1 1)" stroke="currentColor" stroke-width="1" fill="none" fill-rule="evenodd" stroke-linecap="round" stroke-linejoin="round"><path d="M3.83589745,9.90856857 C3.72320031,8.67430571 3.62246888,7.38498 3.62246888,6.1757 C3.62246888,4.48875143 3.81848031,2.85042 3.96958888,1.28498 C4.01987459,0.764077143 4.46030888,0.34442 5.02369173,0.273471429 C7.91912031,-0.0911571429 10.5604917,-0.0911571429 13.455886,0.273471429 C14.0193146,0.34442 14.4597717,0.764077143 14.5100574,1.28498 C14.6611432,2.85042 14.8571432,4.48875143 14.8571432,6.1757 C14.8571432,7.54268286 14.7284574,8.87775714 14.5992003,10.1679971 C14.4948574,11.2094829 13.6108574,12.05874 12.4844574,12.2030829 C11.4320003,12.3378257 10.3475889,12.4626257 9.23980602,12.4626257 C7.77610316,12.4626257 5.81205745,12.4114257 4.37284602,12.32994 C3.64296031,12.2886829 2.91378316,12.2382829 2.18499459,12.1830829 C1.08797745,12.0986257 0.223499734,11.2914257 0.163196877,10.2804543 C0.0528871626,8.43133429 0.0106197341,6.44887714 0,4.51051143 C-0.00326369451,3.91094571 0.525657448,3.4249 1.17760031,3.4249 L3.76163459,3.4249"/><line x1="6.28459459" y1="8.46205429" x2="12.1428574" y2="8.46205429"/><line x1="6.28459459" y1="5.81919714" x2="12.1428574" y2="5.81919714"/><line x1="6.28459459" y1="3.17634" x2="12.1428574" y2="3.17634"/></g></svg>