<svg clip-rule="evenodd" fill-rule="evenodd" stroke-linecap="round" stroke-linejoin="round" viewBox="0 0 21 20" xmlns="http://www.w3.org/2000/svg"><g fill="none" stroke="#000"><path d="m19 9.999c0 2.237-.072 4.418-.209 6.519-.09 1.377-1.184 2.471-2.56 2.568-1.843.131-3.601.199-5.802.199s-3.959-.068-5.802-.199c-1.376-.097-2.47-1.191-2.56-2.568-.137-2.101-.21-4.282-.21-6.519 0-2.236.072-4.416.21-6.517.09-1.377 1.183-2.472 2.56-2.569 1.843-.13 3.601-.199 5.802-.199s3.959.069 5.802.199c1.376.097 2.47 1.192 2.56 2.569.137 2.101.209 4.281.209 6.517z"/><g stroke-linejoin="miter"><path d="m5.748.848v18.315" stroke-dasharray="2 2"/><path d="m18.811 4.658h-16.808" stroke-dasharray="1.86 1.86 0 0 0 0" stroke-width=".93"/><path d="m18.811 15.342h-16.808" stroke-dasharray="1.86 1.86" stroke-width=".93"/><path d="m15.109.848v18.315" stroke-dasharray="2 2"/></g></g></svg>