<svg xmlns="http://www.w3.org/2000/svg" fill="none" viewBox="0 0 14 14"><path stroke="currentColor" stroke-linecap="round" stroke-linejoin="round" d="M7 11.5c1.20727 0 2.39053 -0.0792 3.5415 -0.1691 1.4307 -0.1116 2.6481 -1.2062 2.834 -2.62913C13.4484 8.14368 13.5 7.5758 13.5 7c0 -0.5758 -0.0516 -1.14368 -0.1245 -1.70177 -0.1859 -1.42291 -1.4033 -2.51749 -2.834 -2.62915C9.39053 2.57925 8.20727 2.5 7 2.5v9Z" stroke-width="1"/><path stroke="currentColor" stroke-linecap="round" stroke-linejoin="round" d="M7 2.5c-1.20727 0 -2.39053 0.07925 -3.54152 0.16908C2.02783 2.78074 0.810426 3.87532 0.624499 5.29823 0.551575 5.85632 0.5 6.4242 0.5 7c0 0.5758 0.051576 1.14368 0.124499 1.70177C0.810427 10.1247 2.02783 11.2193 3.45848 11.3309 4.60947 11.4208 5.79273 11.5 7 11.5l0 -9Z" stroke-width="1"/><path stroke="currentColor" stroke-linecap="round" stroke-linejoin="round" d="M10.9788 6.56527c-0.1739 0.34777 -0.5217 0.69554 -0.8695 0.86942 -0.34774 -0.17388 -0.69551 -0.52165 -0.86939 -0.86942" stroke-width="1"/></svg>