<svg xmlns="http://www.w3.org/2000/svg" fill="none" viewBox="0 0 14 14"><path stroke="currentColor" stroke-linecap="round" stroke-linejoin="round" d="M10.6582 13.25c-2.4536 -0.2679 -4.85583 -0.2679 -7.30943 0" stroke-width="1"/><path stroke="currentColor" stroke-linecap="round" stroke-linejoin="round" d="M13.0423 8.46783c-0.1355 0.95347 -0.9071 1.69507 -1.8479 1.77997 -2.82718 0.2552 -5.56143 0.2552 -8.38858 0 -0.94082 -0.0849 -1.71244 -0.8265 -1.847919 -1.77997 -0.277201 -1.95087 -0.277201 -3.79561 0 -5.74648C1.09338 1.76788 1.865 1.02626 2.80583 0.941356c2.82714 -0.255141 5.56139 -0.255141 8.38857 0 0.9408 0.084904 1.7124 0.826524 1.8479 1.779994 0.2772 1.95087 0.2772 3.79561 0 5.74648Z" stroke-width="1"/><path stroke="currentColor" stroke-linecap="round" stroke-linejoin="round" d="M8.53473 10.4134c-1.02401 0.0344 -2.04342 0.0344 -3.06744 -0.0001l-0.47876 2.6971c1.34447 -0.0818 2.68029 -0.0819 4.02474 -0.0004l-0.47854 -2.6966Z" stroke-width="1"/><path stroke="currentColor" stroke-linecap="round" stroke-linejoin="round" d="M8.5 3.78296S10 5.04918 10 5.59454c0 0.54537 -1.5 1.81159 -1.5 1.81159" stroke-width="1"/><path stroke="currentColor" stroke-linecap="round" stroke-linejoin="round" d="M5.5 3.78296S4 5.04918 4 5.59454c0 0.54537 1.5 1.81159 1.5 1.81159" stroke-width="1"/></svg>