<svg xmlns="http://www.w3.org/2000/svg" fill="none" viewBox="0 0 14 14"><path stroke="currentColor" stroke-linecap="round" stroke-linejoin="round" d="M3.99021 5.03642c0.57644 -1.91271 1.90454 -3.6343 2.72478 -4.420507 0.16123 -0.154551 0.40899 -0.154551 0.57023 0C8.10545 1.40212 9.43355 3.12371 10.01 5.03642c0.0606 0.20124 -0.02894 0.41555 -0.22094 0.50105 -0.55131 0.24549 -1.55618 0.55628 -2.78896 0.55628s-2.23765 -0.31079 -2.78895 -0.55628c-0.19201 -0.0855 -0.28159 -0.29981 -0.22094 -0.50105Z" stroke-width="1"/><path stroke="currentColor" stroke-linecap="round" stroke-linejoin="round" d="M3.99021 5.03642c0.57644 -1.91271 1.90454 -3.6343 2.72478 -4.420507 0.16123 -0.154551 0.40899 -0.154551 0.57023 0C8.10545 1.40212 9.43355 3.12371 10.01 5.03642c0.0606 0.20124 -0.02894 0.41555 -0.22094 0.50105 -0.55131 0.24549 -1.55618 0.55628 -2.78896 0.55628s-2.23765 -0.31079 -2.78895 -0.55628c-0.19201 -0.0855 -0.28159 -0.29981 -0.22094 -0.50105Z" stroke-width="1"/><path stroke="currentColor" stroke-linecap="round" stroke-linejoin="round" d="M0.625123 12.4497c0.053717 0.4799 0.437157 0.8632 0.916907 0.9187 0.56747 0.0658 1.15425 0.1316 1.75485 0.1316 0.60059 0 1.18737 -0.0658 1.75484 -0.1316 0.47975 -0.0555 0.86319 -0.4388 0.91691 -0.9187 0.06321 -0.5648 0.12512 -1.1489 0.12512 -1.7466 0 -0.5977 -0.06191 -1.1817 -0.12512 -1.74653 -0.05372 -0.47996 -0.43716 -0.86319 -0.91691 -0.91876 -0.56747 -0.06572 -1.15425 -0.13156 -1.75484 -0.13156 -0.6006 0 -1.18738 0.06584 -1.75485 0.13156 -0.47975 0.05557 -0.86319 0.4388 -0.916907 0.91876C0.561908 9.5214 0.5 10.1054 0.5 10.7031c0 0.5977 0.061908 1.1818 0.125123 1.7466Z" stroke-width="1"/><path stroke="currentColor" stroke-linecap="round" stroke-linejoin="round" d="M10.7031 13.5c1.79 0 2.7969 -1.0069 2.7969 -2.7969 0 -1.78998 -1.0069 -2.79685 -2.7969 -2.79685 -1.78998 0 -2.79685 1.00687 -2.79685 2.79685 0 1.79 1.00687 2.7969 2.79685 2.7969Z" stroke-width="1"/><path stroke="currentColor" stroke-linecap="round" stroke-linejoin="round" d="M10.7031 13.5c1.79 0 2.7969 -1.0069 2.7969 -2.7969 0 -1.78998 -1.0069 -2.79685 -2.7969 -2.79685 -1.78998 0 -2.79685 1.00687 -2.79685 2.79685 0 1.79 1.00687 2.7969 2.79685 2.7969Z" stroke-width="1"/></svg>