<svg xmlns="http://www.w3.org/2000/svg" fill="none" viewBox="0 0 14 14"><desc>Grid fieldtype</desc><g id="dashboard-horizontal-rectangle-thirds"><path id="Intersect" stroke="currentColor" stroke-linecap="round" stroke-linejoin="round" d="M11.7585 0.838368c0.3519 0.033417 0.6799 0.166132 0.9306 0.376522 0.2507 0.21038 0.4093 0.48601 0.4499 0.78194 0.06 0.45026 0.111 0.91188 0.111 1.38317 0 0.4713 -0.051 0.93334 -0.111 1.38318 -0.0406 0.29593 -0.1992 0.57156 -0.4499 0.78194 -0.2507 0.21038 -0.5787 0.3431 -0.9306 0.37652 -0.5316 0.04797 -4.20208 0.08837 -4.75875 0.08837 -0.55667 0 -4.22663 -0.0404 -4.75879 -0.08837 -0.35184 -0.03342 -0.67985 -0.16614 -0.93054 -0.37652 -0.25069 -0.21038 -0.409274 -0.48601 -0.449886 -0.78194C0.801516 4.31292 0.75 3.8513 0.75 3.38c0 -0.47129 0.051016 -0.93333 0.111034 -1.38317 0.040612 -0.29593 0.199196 -0.57156 0.449886 -0.78194 0.25069 -0.21039 0.5787 -0.343105 0.93054 -0.376522C2.77262 0.790397 6.44283 0.75 7 0.75c0.55717 0 4.2269 0.040397 4.7585 0.088368Z" stroke-width="1"/><path id="Intersect_2" stroke="currentColor" stroke-linecap="round" stroke-linejoin="round" d="M11.7585 8.07909c0.3519 0.03341 0.6799 0.16611 0.9306 0.37646 0.2507 0.21035 0.4093 0.48594 0.4499 0.78184 0.06 0.45019 0.111 0.91171 0.111 1.38301 0 0.4712 -0.051 0.9332 -0.111 1.3829 -0.0406 0.2959 -0.1992 0.5715 -0.4499 0.7819 -0.2507 0.2103 -0.5787 0.343 -0.9306 0.3764 -0.5316 0.048 -4.20208 0.0884 -4.75875 0.0884 -0.55667 0 -4.22663 -0.0404 -4.75879 -0.0884 -0.35184 -0.0334 -0.67985 -0.1661 -0.93054 -0.3764 -0.25069 -0.2104 -0.409274 -0.486 -0.449886 -0.7819C0.801516 11.5531 0.75 11.0916 0.75 10.6204c0 -0.4713 0.051016 -0.93324 0.111034 -1.38301 0.040612 -0.2959 0.199196 -0.57149 0.449886 -0.78184 0.25069 -0.21035 0.5787 -0.34305 0.93054 -0.37646C2.77262 8.03112 6.44283 7.99073 7 7.99073c0.55717 0 4.2269 0.04039 4.7585 0.08836Z" stroke-width="1"/><path id="Vector 3430" stroke="currentColor" stroke-linecap="round" stroke-linejoin="round" d="m4.91724 0.774696 0 5.171104" stroke-width="1"/><path id="Vector 3432" stroke="currentColor" stroke-linecap="round" stroke-linejoin="round" d="m4.91675 8.03519 0 5.17041" stroke-width="1"/><path id="Vector 3431" stroke="currentColor" stroke-linecap="round" stroke-linejoin="round" d="m9.08374 0.774696 0 5.171104" stroke-width="1"/><path id="Vector 3433" stroke="currentColor" stroke-linecap="round" stroke-linejoin="round" d="m9.08325 8.03519 0 5.17041" stroke-width="1"/></g></svg>