<svg viewBox="0 0 20 19" fill="none" xmlns="http://www.w3.org/2000/svg"><path d="M10.0714 11.4763V8.40224C10.0714 7.91716 9.67814 7.52393 9.19306 7.52393H8.75391M10.0714 11.4763L11.3894 11.4763M10.0714 11.4763L8.75444 11.4763" stroke="currentColor" stroke-linecap="round" stroke-linejoin="round"/><path d="M1.08562 11.8984C1.34765 13.9038 3.06339 15.4464 5.07966 15.6037C6.7018 15.7304 8.36942 15.842 10.0709 15.842C11.7723 15.842 13.4399 15.7304 15.0621 15.6037C17.0784 15.4464 18.7941 13.9038 19.0561 11.8984C19.1589 11.1118 19.2316 10.3115 19.2316 9.49999C19.2316 8.68849 19.1589 7.88816 19.0561 7.10162C18.7941 5.09625 17.0784 3.55362 15.0621 3.39625C13.4399 3.26965 11.7723 3.15796 10.0709 3.15796C8.36942 3.15796 6.7018 3.26965 5.07966 3.39625C3.06339 3.55362 1.34765 5.09625 1.08562 7.10162C0.982843 7.88816 0.910156 8.68849 0.910156 9.49999C0.910156 10.3115 0.982844 11.1118 1.08562 11.8984Z" stroke="currentColor" stroke-linecap="round" stroke-linejoin="round"/></svg>