<svg xmlns="http://www.w3.org/2000/svg" fill="none" viewBox="0 0 14 14"><path stroke="currentColor" stroke-linecap="round" stroke-linejoin="round" d="M0.959867 10.2685C1.114 11.7092 2.2727 12.8679 3.71266 13.0284 4.78221 13.1476 5.88037 13.25 7 13.25s2.21779 -0.1024 3.2873 -0.2216c1.44 -0.1605 2.5987 -1.3192 2.7528 -2.7599 0.1138 -1.06348 0.2099 -2.15535 0.2099 -3.2685 0 -1.11316 -0.0961 -2.20502 -0.2099 -3.26853 -0.1541 -1.44065 -1.3128 -2.59936 -2.7528 -2.759861C9.21779 0.852392 8.11963 0.75 7 0.75S4.78221 0.852392 3.71266 0.971609C2.2727 1.13211 1.114 2.29082 0.959867 3.73147 0.846083 4.79498 0.75 5.88684 0.75 7c0 1.11315 0.096084 2.20502 0.209867 3.2685Z" stroke-width="1"/><path stroke="currentColor" stroke-linecap="round" stroke-linejoin="round" d="M5.05794 13.162c-0.24623 -4.74651 -0.23899 -7.41709 0.00003 -12.323987" stroke-width="1"/><path stroke="currentColor" stroke-linecap="round" stroke-linejoin="round" d="M9.01177 13.1559c0.24581 -4.74091 0.23858 -7.41107 -0.00005 -12.31215" stroke-width="1"/><path stroke="currentColor" stroke-linecap="round" stroke-linejoin="round" d="M13.1631 8.97992c-4.8937 0.23413 -7.59226 0.24123 -12.326186 0.00027" stroke-width="1"/><path stroke="currentColor" stroke-linecap="round" stroke-linejoin="round" d="M13.1631 5.0201C8.2694 4.78597 5.57084 4.77887 0.836914 5.01983" stroke-width="1"/></svg>