<svg xmlns="http://www.w3.org/2000/svg" fill="none" viewBox="0 0 14 14"><path stroke="currentColor" stroke-linecap="round" stroke-linejoin="round" d="M7.45508 7c0 1.28 0.72 2 2 2 1.28002 0 2.00002 -0.72 2.00002 -2s-0.72 -2 -2.00002 -2c-1.28 0 -2 0.72 -2 2Z" stroke-width="1"/><path stroke="currentColor" stroke-linecap="round" stroke-linejoin="round" d="M0.513081 7.45818C0.618464 9.3548 2.35518 10.7844 4.25106 10.9022 5.15054 10.958 6.06812 11 7 11c0.93188 0 1.84946 -0.042 2.74893 -0.0978 1.89587 -0.1178 3.63257 -1.5474 3.73797 -3.44402 0.0085 -0.15207 0.0131 -0.30481 0.0131 -0.45818 0 -0.15337 -0.0046 -0.30611 -0.0131 -0.45818 -0.1054 -1.89662 -1.8421 -3.32621 -3.73797 -3.44398C8.84946 3.04197 7.93188 3 7 3s-1.84946 0.04197 -2.74894 0.09784C2.35517 3.21561 0.618464 4.6452 0.513081 6.54182 0.504631 6.69389 0.5 6.84663 0.5 7c0 0.15337 0.004631 0.30611 0.013081 0.45818Z" stroke-width="1"/></svg>