<svg xmlns="http://www.w3.org/2000/svg" fill="none" viewBox="0 0 14 14"><path stroke="currentColor" stroke-linecap="round" stroke-linejoin="round" d="M0.959867 10.1435C1.114 11.5842 2.2727 12.7429 3.71266 12.9034c1.06955 0.1192 2.16771 0.2216 3.28734 0.2216s2.21779 -0.1024 3.2873 -0.2216c1.44 -0.1605 2.5987 -1.3192 2.7528 -2.7599 0.1138 -1.06348 0.2099 -2.15535 0.2099 -3.2685 0 -1.11316 -0.0961 -2.20502 -0.2099 -3.26853 -0.1541 -1.44065 -1.3128 -2.59936 -2.7528 -2.759861C9.21779 0.727392 8.11963 0.625 7 0.625S4.78221 0.727392 3.71266 0.846609C2.2727 1.00711 1.114 2.16582 0.959867 3.60647 0.846083 4.66998 0.75 5.76184 0.75 6.875c0 1.11315 0.096084 2.20502 0.209867 3.2685Z" stroke-width="1"/><path stroke="currentColor" stroke-linecap="round" stroke-linejoin="round" d="M9.18555 5.73633c0.89565 0 1.39945 -0.50379 1.39945 -1.39942 0 -0.89562 -0.5038 -1.39941 -1.39945 -1.39941 -0.89563 0 -1.39942 0.50379 -1.39942 1.39941 0 0.89563 0.50379 1.39942 1.39942 1.39942Z" stroke-width="1"/><path stroke="currentColor" stroke-linecap="round" stroke-linejoin="round" d="M3.71277 12.9034c-1.43995 -0.1605 -2.59865 -1.3192 -2.752787 -2.7599 -0.046278 -0.43253 -0.089629 -0.86978 -0.124778 -1.31124C1.68672 7.72191 2.70769 6.875 3.82751 6.875c2.49205 0 4.49452 4.1942 5.22946 6.1522 -0.67622 0.0584 -1.36241 0.0978 -2.05685 0.0978 -1.11964 0 -2.2178 -0.1024 -3.28735 -0.2216Z" stroke-width="1"/><path stroke="currentColor" stroke-linecap="round" stroke-linejoin="round" d="M12.8574 10.9063c-0.908 -1.30851 -2.0401 -2.37505 -3.29678 -2.37505 -0.79259 0 -1.53566 0.42427 -2.20417 1.06592 0.77771 1.20453 1.36845 2.54553 1.70047 3.43003 0.41403 -0.0357 0.82433 -0.0785 1.23048 -0.1238 1.1748 -0.131 2.1624 -0.9263 2.57 -1.9971Z" stroke-width="1"/></svg>