<svg xmlns="http://www.w3.org/2000/svg" fill="none" viewBox="0 0 14 14"><path stroke="currentColor" stroke-linecap="round" stroke-linejoin="round" d="M3.02246 9.21643V4.97985c0 -0.14548 0.11794 -0.26342 0.26342 -0.26342v0c0.06925 0 0.13595 0.02711 0.18435 0.07663 0.5608 0.57386 0.94167 1.20316 1.17446 1.99429 0.03087 0.10491 0.12584 0.17908 0.23519 0.17908v0c0.10936 0 0.20433 -0.07417 0.2352 -0.17908 0.23279 -0.79113 0.61366 -1.42043 1.17446 -1.99429 0.04839 -0.04952 0.1151 -0.07663 0.18434 -0.07663v0c0.14549 0 0.26342 0.11794 0.26342 0.26342v4.23658" stroke-width="1"/><path stroke="currentColor" stroke-linecap="round" stroke-linejoin="round" d="m9.99609 4.71641 0 4.56283" stroke-width="1"/><path stroke="currentColor" stroke-linecap="round" stroke-linejoin="round" d="M11.5093 7.77011c-0.3027 0.60538 -0.9081 1.21077 -1.51346 1.51346 -0.60541 -0.30269 -1.2108 -0.90808 -1.51349 -1.51346" stroke-width="1"/><path stroke="currentColor" stroke-linecap="round" stroke-linejoin="round" d="M3.60128 1.68374c-0.73161 0.0699 -1.41366 0.3475 -1.93494 0.78755 -0.52127 0.44004 -0.851014 1.01657 -0.935461 1.63557C0.606079 5.04865 0.499999 6.0142 0.499999 7c0 0.9858 0.10608 1.95223 0.23088 2.89314 0.084447 0.61896 0.414191 1.19556 0.935461 1.63556 0.52128 0.4401 1.20333 0.7177 1.93494 0.7876 1.10552 0.1003 2.2412 0.1848 3.39872 0.1848 1.15752 0 2.2932 -0.0845 3.3998 -0.1848 0.7316 -0.0699 1.4136 -0.3475 1.9349 -0.7876 0.5213 -0.44 0.851 -1.0166 0.9355 -1.63556C13.3929 8.95135 13.5 7.9858 13.5 7c0 -0.9858 -0.1061 -1.95223 -0.2309 -2.89314 -0.0844 -0.619 -0.4142 -1.19553 -0.9354 -1.63557 -0.5213 -0.44005 -1.2034 -0.71765 -1.935 -0.78755C9.29424 1.5834 8.15856 1.4989 7 1.4989s-2.2932 0.0845 -3.39872 0.18484Z" stroke-width="1"/></svg>