<svg width="100%" height="100%" viewBox="0 0 14 14" version="1.1" xmlns="http://www.w3.org/2000/svg" xmlns:xlink="http://www.w3.org/1999/xlink" xml:space="preserve" xmlns:serif="http://www.serif.com/" fill-rule="evenodd" clip-rule="evenodd" stroke-linecap="round" stroke-linejoin="round"><g id="number-field--input-number-internet-form-fill"><g id="Vector_2"><path d="M4.359,8.402L4.359,6.221C4.359,5.877 4.08,5.598 3.736,5.598L3.424,5.598M4.359,8.402L5.294,8.402M4.359,8.402L3.425,8.402" fill="none" fill-rule="nonzero" stroke="currentColor" stroke-width="1px" transform="matrix(1,0,0,1,-0.287517,0)"/></g><g id="Vector_21" serif:id="Vector_2"><path d="M4.359,8.402L4.359,6.221C4.359,5.877 4.08,5.598 3.736,5.598L3.424,5.598M4.359,8.402L5.294,8.402M4.359,8.402L3.425,8.402" fill="none" fill-rule="nonzero" stroke="currentColor" stroke-width="1px" transform="matrix(1,0,0,1,5.56407,8.88178e-16)"/></g><path id="Intersect" d="M0.624,8.702C0.81,10.125 2.028,11.219 3.458,11.331C4.609,11.421 5.793,11.5 7,11.5C8.207,11.5 9.391,11.421 10.541,11.331C11.972,11.219 13.19,10.125 13.375,8.702C13.448,8.144 13.5,7.576 13.5,7C13.5,6.424 13.448,5.856 13.376,5.298C13.19,3.875 11.972,2.781 10.542,2.669C9.391,2.579 8.207,2.5 7,2.5C5.793,2.5 4.609,2.579 3.458,2.669C2.028,2.781 0.81,3.875 0.624,5.298C0.552,5.856 0.5,6.424 0.5,7C0.5,7.576 0.552,8.144 0.624,8.702Z" fill="none" fill-rule="nonzero" stroke="currentColor" stroke-width="1px"/><g transform="matrix(0.79365,0,0,0.79365,1.46403,1.50397)"><circle cx="6.975" cy="8.679" r=".629"/></g></g></svg>