<svg xmlns="http://www.w3.org/2000/svg" fill="none" viewBox="0 0 14 14"><g stroke="currentColor" stroke-linecap="round" stroke-linejoin="round"><path d="m3.705 5.194.92.855c.432-1.12.793-1.613 1.609-2.28M3.705 9.23l.92.854c.432-1.12.793-1.613 1.609-2.28M7.817 5.387h2.5M7.817 9.641h2.5"/><path d="M12.366 11.563a77 77 0 0 0 .122-5.913 3.65 3.65 0 0 0-.654-2.049c-.754-1.065-1.42-1.799-2.441-2.655A1.88 1.88 0 0 0 8.23.513C7.84.505 7.434.5 7 .5 5.642.5 4.547.544 3.414.629a1.926 1.926 0 0 0-1.78 1.808A77 77 0 0 0 1.5 7c0 1.566.046 3.092.134 4.563a1.926 1.926 0 0 0 1.78 1.808c1.133.085 2.228.129 3.586.129s2.453-.044 3.586-.129a1.926 1.926 0 0 0 1.78-1.808"/></g></svg>