<svg xmlns="http://www.w3.org/2000/svg" fill="none" viewBox="0 0 14 14"><desc>Zip File Streamline Icon: https://streamlinehq.com</desc><g stroke="currentColor" stroke-linecap="round" stroke-linejoin="round"><path d="M3.423 6.785c.863.287 1.638.287 2.5 0M3.423 3.785c.863.287 1.638.287 2.5 0M4.674.547v6.44"/><path d="M12.853 11.563a70 70 0 0 0 .136-5.832 3.64 3.64 0 0 0-.746-2.169c-.825-1.064-1.56-1.798-2.696-2.664A1.9 1.9 0 0 0 8.444.516C7.988.506 7.511.5 7 .5 5.46.5 4.229.548 2.939.64a1.93 1.93 0 0 0-1.792 1.797A70 70 0 0 0 1 7c0 1.565.05 3.092.147 4.563a1.93 1.93 0 0 0 1.792 1.798A55 55 0 0 0 7 13.5a55 55 0 0 0 4.061-.14 1.93 1.93 0 0 0 1.792-1.797"/></g></svg>