<svg xmlns="http://www.w3.org/2000/svg" fill="none" viewBox="0 0 14 14"><path stroke="currentColor" stroke-linecap="round" stroke-linejoin="round" d="M4.27832 13.5s-0.34166 -1.1015 -0.59791 -2.696" stroke-width="1"/><path stroke="currentColor" stroke-linecap="round" stroke-linejoin="round" d="M9.69172 13.5s0.87468 -2.8202 0.87468 -5.96728c0 -0.6154 -0.0777 -1.13819 -0.2142 -1.58106" stroke-width="1"/><path stroke="currentColor" stroke-linecap="round" stroke-linejoin="round" d="M6.98511 11.6127v1.0432" stroke-width="1"/><path stroke="currentColor" stroke-linecap="round" stroke-linejoin="round" d="M3.40373 7.53284c0 -3.14708 2.03091 -3.8722 3.58144 -3.8722 0.45971 0 0.96165 0.06375 1.44037 0.23545" stroke-width="1"/><path stroke="currentColor" stroke-linecap="round" stroke-linejoin="round" d="M5.78668 8.5802c0 -0.97847 0.53635 -1.51087 1.19797 -1.51087s1.19797 0.5324 1.19797 1.51087" stroke-width="1"/><path stroke="currentColor" stroke-linecap="round" stroke-linejoin="round" d="M1.12212 13.4999c-0.494828 -3.1738 -1.459135 -8.41052 0.88496 -11.01943" stroke-width="1"/><path stroke="currentColor" stroke-linecap="round" stroke-linejoin="round" d="M12.8777 13.4999c0.2545 -1.6326 0.6333 -3.81088 0.6221 -5.89663" stroke-width="1"/><path stroke="currentColor" stroke-linecap="round" stroke-linejoin="round" d="M13.1533 4.75062C12.4078 1.80778 9.72435 0.5 6.98447 0.5c-0.75429 0 -1.50431 0.099245 -2.21079 0.304308" stroke-width="1"/></svg>