<svg xmlns="http://www.w3.org/2000/svg" fill="none" viewBox="0 0 14 14"><g stroke="currentColor" stroke-linecap="round" stroke-linejoin="round"><path d="M1.501 8.348a5.4 5.4 0 0 1 .52-2.448c.193-.398.432-.76.71-1.073.365-.41.986-.207 1.252.274a6.4 6.4 0 0 0 1.08 1.438S6.232.5 8.671.5s3.61 6.039 3.61 6.039c.482 2.521.249 4.746-1.537 6.171-.599.477-1.362.68-2.123.739-4.589.356-6.985-1.125-7.12-5.101"/><path d="M9.246 10.55s-.653-2.822-2.012-2.822-2.067 2.821-2.067 2.821c-.27 1.178-.14 2.059.856 2.62.787.441 1.58.441 2.366 0 .997-.561 1.126-1.442.857-2.62"/></g></svg>