<svg xmlns="http://www.w3.org/2000/svg" fill="none" viewBox="0 0 14 14"><path stroke="currentColor" stroke-linecap="round" stroke-linejoin="round" d="M12.3161 3.60128c-0.0699 -0.73161 -0.3475 -1.41366 -0.7875 -1.93494 -0.4401 -0.52127 -1.0166 -0.851014 -1.63558 -0.935461 -0.94179 -0.1248 -1.90734 -0.23088 -2.89314 -0.23088 -0.9858 -0.000001 -1.95223 0.106079 -2.89314 0.230879 -0.619 0.084447 -1.19553 0.414192 -1.63557 0.935462 -0.44005 0.52128 -0.71766 1.20333 -0.78755 1.93494C1.58328 4.7068 1.49878 5.84248 1.49878 7c0 1.15752 0.0845 2.2932 0.18484 3.3998 0.06989 0.7316 0.3475 1.4136 0.78755 1.9349 0.44004 0.5213 1.01657 0.851 1.63557 0.9355 0.94179 0.1227 1.90734 0.2298 2.89314 0.2298 0.98579 0 1.95223 -0.1061 2.89314 -0.2309 0.61898 -0.0844 1.19548 -0.4142 1.63558 -0.9354 0.44 -0.5213 0.7176 -1.2034 0.7875 -1.935 0.1004 -1.10446 0.1849 -2.24014 0.1849 -3.3987s-0.0845 -2.2932 -0.1849 -3.39872Z" stroke-width="1"/><path stroke="currentColor" stroke-linecap="round" stroke-linejoin="round" d="m7 11.001 0 -8.00198" stroke-width="1"/><path stroke="currentColor" stroke-linecap="round" stroke-linejoin="round" d="M8.33203 4.33149c-0.26649 -0.53299 -0.79948 -1.06597 -1.33244 -1.33247 -0.53301 0.2665 -1.06599 0.79948 -1.33248 1.33247" stroke-width="1"/><path stroke="currentColor" stroke-linecap="round" stroke-linejoin="round" d="M8.33203 9.66851c-0.26649 0.53299 -0.79948 1.06599 -1.33244 1.33249 -0.53301 -0.2665 -1.06599 -0.7995 -1.33248 -1.33249" stroke-width="1"/></svg>