<svg xmlns="http://www.w3.org/2000/svg" fill="none" viewBox="0 0 14 14"><desc>Flash 1 Streamline Icon: https://streamlinehq.com</desc><path stroke="currentColor" stroke-linecap="round" stroke-linejoin="round" d="M2.001 7.296c.093-1.884.448-4.358 1.358-6.167a.88.88 0 0 1 .682-.478C4.62.58 5.607.5 6.916.5c.962 0 1.81.074 2.458.162.626.085.953.737.705 1.318l-1.04 2.436c.911.034 1.618.107 2.277.246.574.12.86.735.57 1.245-1.043 1.833-3.436 4.794-6.895 7.486a.481.481 0 0 1-.784-.407c.101-1.602.446-2.902.981-4.652H3.012a1 1 0 0 1-1.01-1.038"/></svg>