<svg xmlns="http://www.w3.org/2000/svg" fill="none" viewBox="0 0 14 14"><path stroke="currentColor" stroke-linejoin="round" d="M6.34286 1.45431c-0.13401 -0.37988 -0.48293 -0.643254 -0.8853 -0.662433C4.01687 0.723206 3.14636 0.741758 1.98918 0.827285c-0.48411 0.035781 -0.86904 0.436355 -0.92443 0.942515C0.725625 4.86843 0.613117 7.97783 0.966382 11.0836c0.119878 1.0538 0.941888 1.8198 1.925278 1.9322 2.77679 0.3175 5.51367 0.3093 8.29024 -0.008 0.965 -0.1103 1.7396 -0.9125 1.8547 -1.9242 0.2211 -1.94368 0.2779 -3.93665 0.1353 -6.39197 -0.0549 -0.94656 -0.7927 -1.71237 -1.7373 -1.79476 -1.3557 -0.11826 -2.29494 -0.12507 -3.95633 -0.16193 -0.4147 -0.0092 -0.78057 -0.27474 -0.91856 -0.66592l-0.21685 -0.61471Z" stroke-width="1"/><path stroke="currentColor" stroke-linecap="round" stroke-linejoin="round" d="M9.66522 9.1145V6.33942c0 -0.56862 -0.47494 -1.02848 -1.03788 -0.94827 -0.77732 0.11075 -1.5196 0.3109 -2.2576 0.60574 -0.36049 0.14402 -0.58361 0.50118 -0.58361 0.88938v2.71024" stroke-width="1"/><path stroke="currentColor" stroke-linecap="round" stroke-linejoin="round" d="M4.81323 10.563c0.6261 0 0.97827 -0.3522 0.97827 -0.97828 0 -0.6261 -0.35217 -0.97827 -0.97827 -0.97827 -0.62609 0 -0.97827 0.35217 -0.97827 0.97827 0 0.62608 0.35218 0.97828 0.97827 0.97828Z" stroke-width="1"/><path stroke="currentColor" stroke-linecap="round" stroke-linejoin="round" d="M8.68701 10.0933c0.6261 0 0.97827 -0.35222 0.97827 -0.97831s-0.35217 -0.97827 -0.97827 -0.97827c-0.62609 0 -0.97827 0.35218 -0.97827 0.97827s0.35218 0.97831 0.97827 0.97831Z" stroke-width="1"/></svg>