<svg xmlns="http://www.w3.org/2000/svg" fill="none" viewBox="0 0 14 14"><path stroke="currentColor" stroke-linecap="round" stroke-linejoin="round" d="M5.84358 12.3356c-1.06805 -0.0245 -2.13743 -0.0949 -3.21284 -0.212 -0.97832 -0.1065 -1.796094 -0.8324 -1.915352 -1.8311C0.363945 7.34939 0.475872 4.40279 0.813247 1.4664 0.868357 0.986745 1.2513 0.607146 1.73292 0.573238 2.88566 0.492082 3.75246 0.474562 5.18914 0.539945c0.39778 0.018103 0.74439 0.274799 0.88268 0.648195l0.20046 0.54131c0.14224 0.38408 0.50508 0.64275 0.91456 0.65142 1.65243 0.03496 2.5869 0.04134 3.93136 0.15264 0.946 0.07832 1.689 0.84083 1.745 1.78836 0.0493 0.83336 0.0729 1.61062 0.0726 2.35001" stroke-width="1"/><path stroke="currentColor" stroke-linecap="round" stroke-linejoin="round" d="M8.90944 8.9096c0.49037 -0.49037 0.56628 -0.94022 0.92251 -1.39353 0.27885 -0.35484 0.80675 -0.35484 1.08565 0 0.3562 0.45331 0.4321 0.90316 0.9225 1.39353s0.9402 0.56628 1.3935 0.92251c0.3549 0.27889 0.3549 0.80679 0 1.08569 -0.4533 0.3562 -0.9031 0.4321 -1.3934 0.9225 -0.4904 0.4904 -0.5663 0.9402 -0.9226 1.3935 -0.2788 0.3549 -0.8068 0.3549 -1.08561 0 -0.35624 -0.4533 -0.43214 -0.9031 -0.92251 -1.3935 -0.49037 -0.4904 -0.94022 -0.5663 -1.39353 -0.9225 -0.35484 -0.2789 -0.35484 -0.8068 0 -1.08569 0.45331 -0.35623 0.90313 -0.43215 1.39349 -0.92251Z" stroke-width="1"/></svg>