<svg xmlns="http://www.w3.org/2000/svg" fill="none" viewBox="0 0 14 14"><path stroke="currentColor" stroke-linecap="round" stroke-linejoin="round" d="M0.96638 11.0783c0.11988 1.0565 0.94188 1.8244 1.92526 1.9371m8.29026 -0.0081c0.9649 -0.1106 1.7395 -0.9147 1.8546 -1.929m0.1364 -6.39067c-0.0553 -0.95877 -0.7694 -1.73019 -1.6788 -1.81118 -0.077 -0.00686 -0.1527 -0.01336 -0.2272 -0.01952m-2.67439 -0.1241c-0.34886 -0.00779 -0.72616 -0.01528 -1.15051 -0.02477 -0.39373 -0.00881 -0.74292 -0.27058 -0.87969 -0.65925l-0.22172 -0.6301c-0.13296 -0.37786 -0.46655 -0.637585 -0.84902 -0.65611C5.44306 0.760251 5.3952 0.757999 5.34795 0.755845M8.74178 13.2071c-1.08431 0.0528 -2.1661 0.0571 -3.25021 0.0117m7.71473 -4.2122c0.0346 -0.68868 0.0491 -1.39957 0.0419 -2.14878M0.768196 5.87708C0.74289 6.74049 0.743171 7.60424 0.774139 8.46801M2.71721 0.75c-0.23493 0.012124 -0.47461 0.027681 -0.72804 0.046458 -0.48411 0.03587 -0.86903 0.437442 -0.92442 0.944862 -0.05485 0.50242 -0.103776 1.00513 -0.145757 1.50806" stroke-width="1"/></svg>