<svg xmlns="http://www.w3.org/2000/svg" fill="none" viewBox="0 0 14 14"><path stroke="currentColor" stroke-linecap="round" stroke-linejoin="round" d="M2.41798 9.21875 3.5938 6.54139c0.29497 -0.66047 0.92891 -1.11444 1.66098 -1.17055 0.91247 -0.06993 2.20061 -0.15026 3.30376 -0.15026 1.23491 0 2.90486 0.10066 3.96646 0.17472 0.5668 0.03954 0.9839 0.53162 0.8839 1.08101 -0.3149 1.73068 -0.9621 3.75769 -1.3989 5.02309 -0.259 0.7505 -0.9593 1.2557 -1.7654 1.2877 -1.92908 0.0766 -5.4994 0.1735 -7.49163 -0.0522 -0.9998 -0.1132 -1.835538 -0.8851 -1.957415 -1.9471C0.436394 7.65827 0.550779 5.27502 0.895563 2.15262c0.05632 -0.51004 0.447667 -0.91369 0.939867 -0.94974C3.01192 1.1167 3.89696 1.098 5.36169 1.1672c0.40909 0.01932 0.76384 0.28472 0.90009 0.66752l0.22046 0.61942c0.1403 0.39418 0.51227 0.66175 0.9339 0.67103H11.17c0.5623 0 1.0182 0.44771 1.0182 1v1.09541" stroke-width="1"/></svg>