<svg xmlns="http://www.w3.org/2000/svg" fill="none" viewBox="0 0 14 14"><path stroke="currentColor" stroke-linecap="round" stroke-linejoin="round" d="M12.9938 6.29698c-0.0105 -0.59129 -0.0342 -1.20721 -0.0719 -1.85535 -0.0549 -0.94656 -0.7927 -1.71237 -1.7373 -1.79476 -1.35573 -0.11826 -2.29494 -0.12507 -3.95633 -0.16193 -0.4147 -0.0092 -0.78057 -0.27474 -0.91856 -0.66592l-0.21685 -0.61471c-0.13401 -0.379883 -0.48293 -0.643254 -0.8853 -0.662433C3.76687 0.473206 2.89636 0.491758 1.73918 0.577285 1.25507 0.613066 0.870144 1.01364 0.814748 1.5198 0.475625 4.61843 0.363117 7.72783 0.716382 10.8336c0.119875 1.0538 0.941888 1.8198 1.925278 1.9322 1.08784 0.1244 2.16956 0.1988 3.24994 0.2242" stroke-width="1"/><path stroke="currentColor" stroke-linecap="round" stroke-linejoin="round" d="M13.0143 10.6112c-0.0001 0.0265 0.0088 0.0522 0.0252 0.0729l0.3487 0.4393c0.0631 0.079 0.1009 0.1752 0.1085 0.2759 0.0076 0.1008 -0.0154 0.2016 -0.066 0.2891l-0.2045 0.3539c-0.0504 0.0876 -0.1261 0.1579 -0.2171 0.2018 -0.0911 0.0439 -0.1933 0.0593 -0.2932 0.0442l-0.5556 -0.0845c-0.0263 -0.0036 -0.053 0.0014 -0.0761 0.0145l-0.6583 0.3801c-0.0229 0.0134 -0.0407 0.0341 -0.0505 0.0588l-0.2049 0.5229c-0.0367 0.094 -0.1009 0.1748 -0.1842 0.2317 -0.0833 0.057 -0.1818 0.0876 -0.2827 0.0877h-0.409c-0.1009 -0.0001 -0.1995 -0.0307 -0.2828 -0.0877 -0.08325 -0.0569 -0.14743 -0.1377 -0.18414 -0.2317l-0.20496 -0.5229c-0.00981 -0.0247 -0.02756 -0.0454 -0.05043 -0.0588l-0.65833 -0.3801c-0.02307 -0.0131 -0.04983 -0.0182 -0.0761 -0.0145l-0.55561 0.0845c-0.09995 0.0151 -0.20211 -0.0003 -0.29316 -0.0442 -0.09104 -0.0439 -0.16673 -0.1142 -0.21716 -0.2018l-0.20451 -0.3539c-0.05057 -0.0875 -0.07356 -0.1883 -0.06598 -0.2891 0.00758 -0.1007 0.04538 -0.1969 0.10847 -0.2759l0.35064 -0.4393c0.01641 -0.0207 0.0253 -0.0464 0.02522 -0.0729v-0.76007c0.00008 -0.02643 -0.00881 -0.05211 -0.02522 -0.07283l-0.35064 -0.43936c-0.06309 -0.07896 -0.10089 -0.17512 -0.10847 -0.27591 -0.00758 -0.10079 0.01541 -0.20152 0.06598 -0.28904l0.20451 -0.35391c0.05043 -0.08758 0.12612 -0.15792 0.21716 -0.20182 0.09105 -0.0439 0.19321 -0.05931 0.29316 -0.04423l0.55421 0.08451c0.02627 0.00372 0.05303 -0.00137 0.0761 -0.01448l0.65973 -0.38192c0.02287 -0.01347 0.04062 -0.03417 0.05043 -0.05883l0.2059 -0.52106c0.0367 -0.094 0.10088 -0.17475 0.1842 -0.23172 0.0833 -0.05697 0.1818 -0.08751 0.2827 -0.08764h0.4099c0.1009 0.00013 0.1995 0.03067 0.2828 0.08764 0.0832 0.05697 0.1474 0.13772 0.1841 0.23172l0.205 0.52106c0.0095 0.02536 0.0272 0.04676 0.0504 0.0607l0.6584 0.38005c0.023 0.01308 0.0498 0.01816 0.0761 0.01448l0.5556 -0.08451c0.0999 -0.01508 0.2021 0.00033 0.2931 0.04423 0.0911 0.0439 0.1668 0.11424 0.2172 0.20182l0.2045 0.35391c0.0506 0.08752 0.0736 0.18825 0.066 0.28904 -0.0076 0.10079 -0.0454 0.19695 -0.1085 0.27591l-0.3506 0.43936c-0.0164 0.02072 -0.0253 0.0464 -0.0252 0.07283v0.76007Z" stroke-width="1"/><path stroke="currentColor" stroke-linecap="round" stroke-linejoin="round" d="M10.5 9.73242c-0.1264 -0.00007 -0.2529 0.03677 -0.3411 0.11053 -0.19686 0.16455 -0.20927 0.54065 -0.0457 0.73285 0.0888 0.1044 0.2378 0.1566 0.3868 0.1565" stroke-width="1"/><path stroke="currentColor" stroke-linecap="round" stroke-linejoin="round" d="M10.5 9.73242c0.1264 -0.00007 0.2529 0.03677 0.3411 0.11053 0.1969 0.16455 0.2093 0.54065 0.0457 0.73285 -0.0888 0.1044 -0.2378 0.1566 -0.3868 0.1565" stroke-width="1"/></svg>