<svg xmlns="http://www.w3.org/2000/svg" fill="none" viewBox="0 0 14 14"><path stroke="currentColor" stroke-linecap="round" stroke-linejoin="round" d="M6.95757 12.1754c0.48546 -1.8603 1.17596 -3.28877 2.55301 -4.77388 0.37718 -0.40678 1.01662 -0.40678 1.39382 0 1.3771 1.48511 2.0676 2.91358 2.553 4.77388 0.1546 0.5925 -0.264 1.174 -0.8742 1.225 -1.5906 0.1328 -3.16085 0.1328 -4.75141 0 -0.61016 -0.051 -1.02882 -0.6325 -0.87422 -1.225Z" stroke-width="1"/><path stroke="currentColor" stroke-linecap="round" stroke-linejoin="round" d="M12.9969 6.50044c-0.0083 -0.65319 -0.033 -1.33591 -0.075 -2.05869 -0.0549 -0.94656 -0.7927 -1.71237 -1.7373 -1.79476 -1.1845 -0.10332 -2.051 -0.12157 -3.35899 -0.14911 -0.18912 -0.00398 -0.38746 -0.00816 -0.59734 -0.01282 -0.4147 -0.0092 -0.78057 -0.27474 -0.91856 -0.66592l-0.21685 -0.6147c-0.13401 -0.379891 -0.48293 -0.643262 -0.8853 -0.662441C3.76687 0.473328 2.89636 0.491881 1.73918 0.577407c-0.48411 0.035781 -0.869036 0.436353 -0.924432 0.942513C0.475625 4.61855 0.363117 7.72795 0.716382 10.8337c0.119875 1.0539 0.941888 1.8198 1.925278 1.9323 0.63301 0.0723 1.26394 0.1278 1.89374 0.1665" stroke-width="1"/><path stroke="currentColor" stroke-linecap="round" stroke-linejoin="round" d="m10.2075 9.17999 0 1.20001" stroke-width="1"/><path stroke="currentColor" stroke-linecap="round" stroke-linejoin="round" d="M10.2065 11.9786c-0.08 0 -0.125 -0.045 -0.125 -0.125s0.045 -0.125 0.125 -0.125" stroke-width="1"/><path stroke="currentColor" stroke-linecap="round" stroke-linejoin="round" d="M10.2075 11.9786c0.08 0 0.125 -0.045 0.125 -0.125s-0.045 -0.125 -0.125 -0.125" stroke-width="1"/></svg>