<svg xmlns="http://www.w3.org/2000/svg" fill="none" viewBox="0 0 14 14"><desc>Drop Down Menu Streamline Icon: https://streamlinehq.com</desc><g stroke="currentColor" stroke-linecap="round" stroke-linejoin="round"><path d="M7 11.5c1.207 0 2.39-.08 3.542-.17 1.43-.11 2.648-1.205 2.833-2.628.073-.558.125-1.126.125-1.702s-.052-1.144-.124-1.702c-.186-1.423-1.404-2.517-2.834-2.629C9.39 2.58 8.207 2.5 7 2.5zM7 2.5c-1.207 0-2.39.08-3.542.17C2.028 2.78.81 3.874.624 5.297A13 13 0 0 0 .5 7c0 .576.052 1.144.124 1.702.186 1.423 1.404 2.517 2.834 2.629 1.151.09 2.335.169 3.542.169z"/><path d="M10.979 6.565a2.1 2.1 0 0 1-.87.87 2.1 2.1 0 0 1-.87-.87"/></g></svg>