<svg xmlns="http://www.w3.org/2000/svg" fill="none" viewBox="0 0 14 14"><g stroke="currentColor"><path stroke-linecap="round" stroke-linejoin="round" d="M6.11 8.42a56 56 0 0 1-3.531-.152A2.09 2.09 0 0 1 .676 6.541a12.4 12.4 0 0 1 0-4.158A2.09 2.09 0 0 1 2.579.655a55 55 0 0 1 8.28 0c.95.07 1.747.788 1.903 1.728.18 1.085.222 2.129.125 3.195"/><path stroke-linecap="round" stroke-linejoin="round" d="M3.584 5.953a5.28 5.28 0 0 1 0-2.983"/><path d="M10.719 7.262a2.717 2.717 0 0 0-2.71 2.524c-.049.676.103 1.379.53 1.938.506.666 1.022 1.123 1.83 1.66.23.154.532.154.762 0 .808-.537 1.324-.994 1.83-1.66.427-.56.579-1.262.53-1.938a2.717 2.717 0 0 0-2.71-2.524z"/><path stroke-linecap="round" stroke-linejoin="round" d="M10.748 10.228c-.239 0-.373-.136-.373-.376s.134-.375.373-.375M10.752 10.228c.239 0 .373-.136.373-.376s-.134-.375-.373-.375"/></g></svg>