<svg xmlns="http://www.w3.org/2000/svg" fill="none" viewBox="0 0 14 14"><path stroke="currentColor" stroke-linecap="round" stroke-linejoin="round" d="M0.500366 13.5001 2.5918 11.4087" stroke-width="1"/><path stroke="currentColor" stroke-linecap="round" stroke-linejoin="round" d="M1.24502 8.14578c1.43351 -0.41334 3.1258 -0.33696 4.14656 -0.1554 0.30929 0.05502 0.5474 0.29312 0.60241 0.60241 0.18157 1.02076 0.25794 2.71301 -0.15539 4.14661 -0.13221 0.4585 -0.64095 0.6483 -1.04993 0.4024 -0.59313 -0.3566 -1.39703 -0.9312 -2.20596 -1.7401 -0.80892 -0.809 -1.38358 -1.61286 -1.740177 -2.206 -0.245881 -0.40898 -0.056039 -0.91772 0.402487 -1.04992Z" stroke-width="1"/><path stroke="currentColor" stroke-linecap="round" stroke-linejoin="round" d="M13.4996 0.499878 11.4082 2.59131" stroke-width="1"/><path stroke="currentColor" stroke-linecap="round" stroke-linejoin="round" d="M12.755 5.85422c-1.4335 0.41334 -3.12582 0.33696 -4.14658 0.1554 -0.30929 -0.05502 -0.5474 -0.29312 -0.60241 -0.60242 -0.18157 -1.02075 -0.25794 -2.71305 0.15539 -4.14656 0.13221 -0.458522 0.64095 -0.648364 1.04993 -0.402481 0.59313 0.356591 1.39707 0.931261 2.20597 1.740181 0.8089 0.80893 1.3836 1.61282 1.7402 2.20596 0.2458 0.40898 0.056 0.91772 -0.4025 1.04992Z" stroke-width="1"/></svg>