<svg xmlns="http://www.w3.org/2000/svg" fill="none" viewBox="0 0 14 14"><path stroke="currentColor" stroke-linecap="round" stroke-linejoin="round" d="m4.03274 9.92358 5.88914 -5.88913" stroke-width="1"/><path stroke="currentColor" stroke-linecap="round" stroke-linejoin="round" d="M1.10809 8.66332C0.699771 10.0149 0.777434 11.6355 0.952573 12.5852c0.047647 0.2584 0.247297 0.458 0.505647 0.5057 0.94972 0.1751 2.57036 0.2528 3.92191 -0.1555 0.38201 -0.1154 0.54121 -0.5408 0.33853 -0.8846 -0.32461 -0.5505 -0.86457 -1.3175 -1.63653 -2.08948C3.31018 9.18937 2.5432 8.6494 1.99264 8.3248c-0.34376 -0.20268 -0.76914 -0.04348 -0.88455 0.33852Z" stroke-width="1"/><path stroke="currentColor" stroke-linecap="round" stroke-linejoin="round" d="M12.8919 5.33667c0.4083 -1.35155 0.3307 -2.97218 0.1555 -3.92191 -0.0476 -0.25834 -0.2473 -0.458002 -0.5056 -0.505644 -0.9497 -0.175139 -2.57038 -0.252801 -3.92193 0.155524 -0.38201 0.11541 -0.54121 0.54078 -0.33853 0.88454 0.32461 0.55056 0.86457 1.31754 1.63653 2.0895 0.77193 0.77195 1.53893 1.31192 2.08953 1.63652 0.3437 0.20268 0.7691 0.04348 0.8845 -0.33853Z" stroke-width="1"/></svg>