<svg xmlns="http://www.w3.org/2000/svg" fill="none" viewBox="0 0 14 14"><path stroke="currentColor" stroke-linecap="round" stroke-linejoin="round" d="m3.49902 9.5 0 -5" stroke-width="1"/><path stroke="currentColor" stroke-linecap="round" stroke-linejoin="round" d="M3.49902 4.5c1.28 0 2 -0.72 2 -2s-0.72 -2 -2 -2 -2 0.72 -2 2 0.72 2 2 2Z" stroke-width="1"/><path stroke="currentColor" stroke-linecap="round" stroke-linejoin="round" d="M3.49902 13.5c1.28 0 2 -0.72 2 -2s-0.72 -2 -2 -2 -2 0.72 -2 2 0.72 2 2 2Z" stroke-width="1"/><path stroke="currentColor" stroke-linecap="round" stroke-linejoin="round" d="M10.501 5.5c1.28 0 2 -0.72 2 -2s-0.72 -2 -2 -2c-1.28002 0 -2.00002 0.72 -2.00002 2s0.72 2 2.00002 2Z" stroke-width="1"/><path stroke="currentColor" stroke-linecap="round" stroke-linejoin="round" d="M3.5 8.50012c0 -0.33334 0.3 -1 1.5 -1l2.9375 0C9.32238 7.50012 10.5 6.875 10.5 5.5" stroke-width="1"/></svg>