<svg xmlns="http://www.w3.org/2000/svg" fill="none" viewBox="0 0 14 14"><desc>Graphic Template Website Ui Streamline Icon: https://streamlinehq.com</desc><g stroke="currentColor"><path stroke-linecap="round" stroke-linejoin="round" d="M.751 7H13.25M3.844 2.764H7M3.844 4.764h6.313"/><path d="m4.524 13.1 1.665-1.652a4.557 4.557 0 0 1 6.421 0l.273.279"/><path stroke-linecap="round" stroke-linejoin="round" d="M4.263 10.438c.607 0 .948-.338.948-.938s-.341-.937-.948-.937-.948.337-.948.937.342.938.948.938"/><path stroke-linecap="round" stroke-linejoin="round" d="M.96 10.269a3.13 3.13 0 0 0 2.753 2.76c1.07.119 2.167.221 3.287.221s2.218-.102 3.287-.222a3.13 3.13 0 0 0 2.753-2.76c.114-1.063.21-2.155.21-3.268s-.096-2.205-.21-3.269a3.13 3.13 0 0 0-2.753-2.76C9.217.853 8.12.75 7 .75S4.782.852 3.713.972A3.13 3.13 0 0 0 .96 3.732C.846 4.794.75 5.886.75 7s.096 2.205.21 3.269"/></g></svg>