<svg viewBox="0 0 17 15" version="1.1" xmlns="http://www.w3.org/2000/svg" xmlns:xlink="http://www.w3.org/1999/xlink"><g transform="translate(1 1)" stroke="currentColor" stroke-width="1" fill="none" fill-rule="evenodd" stroke-linecap="round" stroke-linejoin="round"><path d="M2.99971543,4.35411429 C3.42832114,3.74145143 4.10824114,3.36161143 4.95956686,3.36161143 C5.81088114,3.36161143 6.49081257,3.74145143 6.91940686,4.35411429 M7.93275543,4.35411429 C8.36134971,3.74145143 9.04128114,3.36161143 9.89259543,3.36161143 C10.7439211,3.36161143 11.4238754,3.74145143 11.8524469,4.35411429"/><path d="M9.892904,3.36170286 C10.9686754,3.36170286 11.573704,2.75659429 11.573704,1.68085714 C11.573704,0.605108571 10.9686754,-2.22044605e-16 9.892904,-2.22044605e-16 C8.81715543,-2.22044605e-16 8.21205829,0.605108571 8.21205829,1.68085714 C8.21205829,2.75659429 8.81715543,3.36170286 9.892904,3.36170286 Z"/><path d="M4.96070971,3.36170286 C6.03644686,3.36170286 6.64155543,2.75659429 6.64155543,1.68085714 C6.64155543,0.605108571 6.03644686,-2.22044605e-16 4.96070971,-2.22044605e-16 C3.88496114,-2.22044605e-16 3.27985257,0.605108571 3.27985257,1.68085714 C3.27985257,2.75659429 3.88496114,3.36170286 4.96070971,3.36170286 Z"/><path d="M9.90213829,12.5736914 C9.90213829,11.0212343 8.93097257,9.84374857 7.42651543,9.84374857 C5.92206971,9.84374857 4.95089257,11.0212343 4.95089257,12.5736914"/><path d="M4.95124686,12.5736914 C4.95124686,11.0212343 3.98006971,9.84374857 2.475624,9.84374857 C0.971178286,9.84374857 -4.4408921e-16,11.0212343 -4.4408921e-16,12.5736914"/><path d="M14.8530183,12.5736914 C14.8530183,11.0212343 13.8818183,9.84374857 12.3773611,9.84374857 C10.8730183,9.84374857 9.901784,11.0212343 9.901784,12.5736914"/><path d="M7.42621829,9.84386286 C8.50596686,9.84386286 9.11331543,9.23874286 9.11331543,8.16299429 C9.11331543,7.08725714 8.50596686,6.48214857 7.42621829,6.48214857 C6.34646971,6.48214857 5.73912114,7.08725714 5.73912114,8.16299429 C5.73912114,9.23874286 6.34646971,9.84386286 7.42621829,9.84386286 L7.42621829,9.84386286 Z"/><path d="M2.47588686,9.84386286 C3.555624,9.84386286 4.162984,9.23874286 4.162984,8.16299429 C4.162984,7.08725714 3.555624,6.48214857 2.47588686,6.48214857 C1.39613829,6.48214857 0.788778286,7.08725714 0.788778286,8.16299429 C0.788778286,9.23874286 1.39613829,9.84386286 2.47588686,9.84386286 L2.47588686,9.84386286 Z"/><path d="M12.377704,9.84386286 C13.4573611,9.84386286 14.0647897,9.23874286 14.0647897,8.16299429 C14.0647897,7.08725714 13.4573611,6.48214857 12.377704,6.48214857 C11.2979326,6.48214857 10.6905726,7.08725714 10.6905726,8.16299429 C10.6905726,9.23874286 11.2979326,9.84386286 12.377704,9.84386286 L12.377704,9.84386286 Z"/></g></svg>