<svg xmlns="http://www.w3.org/2000/svg" fill="none" viewBox="0 0 14 14"><desc>Image Caption Streamline Icon: https://streamlinehq.com</desc><g stroke="currentColor" stroke-linecap="round" stroke-linejoin="round"><path d="M1.709 10.703h10.5M1.709 13.5h5.813M1.68 6.667a2.09 2.09 0 0 0 1.886 1.768c1.111.095 2.26.19 3.434.19s2.323-.095 3.434-.19a2.09 2.09 0 0 0 1.885-1.768c.1-.685.182-1.388.182-2.104s-.083-1.42-.182-2.105A2.09 2.09 0 0 0 10.434.69C9.324.595 8.175.5 7 .5S4.677.595 3.566.69a2.09 2.09 0 0 0-1.885 1.768c-.099.685-.182 1.388-.182 2.105s.083 1.42.182 2.104"/><path d="M9.007 8.549C8.08 6.707 6.497 4.4 4.852 4.4c-1.144 0-2.26 1.117-3.144 2.417.195.876.953 1.54 1.858 1.617 1.111.095 2.26.19 3.434.19.679 0 1.348-.032 2.007-.076M9.407 4.401c.72 0 1.125-.405 1.125-1.125s-.405-1.125-1.125-1.125-1.125.405-1.125 1.125.405 1.125 1.125 1.125"/></g></svg>