<svg xmlns="http://www.w3.org/2000/svg" fill="none" viewBox="0 0 14 14"><desc>Photo Panorama Curved Streamline Icon: https://streamlinehq.com</desc><g stroke="currentColor" stroke-linecap="round" stroke-linejoin="round"><path d="M7 3.71c2.593 0 4.413-1.207 5.506-2.091a.513.513 0 0 1 .84.384 81 81 0 0 1 0 9.994.513.513 0 0 1-.84.384c-1.093-.884-2.913-2.09-5.506-2.09s-4.413 1.206-5.506 2.09a.513.513 0 0 1-.84-.384 81 81 0 0 1 0-9.994.513.513 0 0 1 .84-.384c1.093.884 2.913 2.09 5.506 2.09"/><path d="M10.385 4.752c-.286 0-.544.081-.731.268s-.268.445-.268.731.08.545.268.731c.187.187.445.268.731.268s.544-.08.731-.268c.187-.186.268-.445.268-.73 0-.287-.08-.545-.268-.732-.187-.187-.445-.268-.731-.268M9.695 10.755A8 8 0 0 0 7 10.29c-2.055 0-3.624.757-4.731 1.512.256-.72.633-1.631 1.102-2.459.334-.587.728-1.157 1.178-1.585C4.996 7.333 5.548 7 6.187 7c.64 0 1.191.333 1.638.759.45.428.844.998 1.178 1.585.26.46.493.946.692 1.41"/></g></svg>