<svg xmlns="http://www.w3.org/2000/svg" fill="none" viewBox="0 0 14 14"><desc>Hub Integration Connection Streamline Icon: https://streamlinehq.com</desc><g stroke="currentColor" stroke-linecap="round" stroke-linejoin="round"><path d="M7 9.764c1.4 0 2.188-.791 2.188-2.198S8.4 5.367 7 5.367s-2.187.792-2.187 2.199S5.6 9.764 7 9.764M12.328 6.978c.75 0 1.172-.424 1.172-1.177s-.422-1.178-1.172-1.178-1.172.424-1.172 1.178c0 .753.422 1.177 1.172 1.177M10.578 13.03c.75 0 1.172-.425 1.172-1.178 0-.754-.422-1.178-1.172-1.178s-1.172.424-1.172 1.178c0 .753.422 1.177 1.172 1.177M7 3.389c.75 0 1.172-.424 1.172-1.178S7.75 1.033 7 1.033s-1.172.424-1.172 1.178S6.25 3.389 7 3.389M10.955 6.26l-1.843.65M9.627 10.926l-1.248-1.51M7 3.389v1.963M1.672 6.978C.922 6.978.5 6.555.5 5.801s.422-1.178 1.172-1.178 1.172.424 1.172 1.178-.422 1.177-1.172 1.177M3.422 13.03c-.75 0-1.172-.425-1.172-1.178 0-.754.422-1.178 1.172-1.178s1.172.424 1.172 1.178c0 .753-.422 1.177-1.172 1.177M3.045 6.26l1.843.65M4.373 10.926l1.248-1.51"/></g></svg>