<svg xmlns="http://www.w3.org/2000/svg" fill="none" viewBox="0 0 14 14"><g stroke="currentColor" stroke-linecap="round" stroke-linejoin="round"><path d="M2.005 10.407c.068-.977.841-1.773 1.833-1.824 2.112-.11 4.212-.11 6.324 0 .992.051 1.764.847 1.833 1.824M7 6.438v3.968M4.146 4.997a1.48 1.48 0 0 0 1.3 1.304c.506.057 1.025.105 1.554.105s1.048-.048 1.553-.105a1.48 1.48 0 0 0 1.3-1.304c.055-.502.1-1.018.1-1.544s-.045-1.042-.1-1.544a1.48 1.48 0 0 0-1.3-1.305A14 14 0 0 0 7 .5c-.53 0-1.048.048-1.553.105a1.48 1.48 0 0 0-1.3 1.304c-.055.502-.1 1.018-.1 1.544s.045 1.042.1 1.544M5.518 12.769a.77.77 0 0 0 .676.676A7 7 0 0 0 7 13.5c.275 0 .544-.025.806-.054a.77.77 0 0 0 .676-.678c.028-.26.051-.528.051-.801s-.023-.541-.051-.802a.77.77 0 0 0-.676-.677A7 7 0 0 0 7 10.434c-.275 0-.544.025-.806.054a.77.77 0 0 0-.676.677c-.028.26-.051.528-.051.802s.023.54.051.801M.552 12.769a.77.77 0 0 0 .675.676 7 7 0 0 0 .806.055c.275 0 .544-.025.807-.054a.77.77 0 0 0 .675-.678c.028-.26.051-.528.051-.801s-.023-.541-.051-.802a.77.77 0 0 0-.675-.677 7 7 0 0 0-.807-.054c-.275 0-.544.025-.806.054a.77.77 0 0 0-.675.677c-.028.26-.052.529-.052.802s.024.54.052.801M13.449 12.769a.77.77 0 0 1-.676.676c-.262.03-.532.055-.806.055-.275 0-.544-.025-.807-.054a.77.77 0 0 1-.675-.678c-.028-.26-.051-.528-.051-.801s.023-.541.051-.802a.77.77 0 0 1 .675-.677c.263-.03.532-.054.807-.054.274 0 .544.025.806.054a.77.77 0 0 1 .675.677c.028.26.052.528.052.802s-.023.54-.051.801"/></g></svg>