<svg xmlns="http://www.w3.org/2000/svg" fill="none" viewBox="0 0 14 14"><path stroke="currentColor" stroke-linecap="round" stroke-linejoin="round" d="M3.75745 12.5h6.48525c0.6863 0 1.2699 -0.4739 1.3744 -1.1159 0.166 -1.0203 0.2044 -2.05462 0.1152 -3.08173h1.2543c0.4043 0 0.6494 -0.42223 0.4327 -0.74521l-0.2171 -0.32349c-1.3053 -1.94557 -2.9665 -3.65548 -4.90548 -5.04958l-0.67661 -0.48646c-0.36649 -0.2635 -0.87359 -0.26351 -1.24009 -0.00001l-0.6767 0.48652C3.76433 3.57821 2.1032 5.28808 0.797803 7.23361l-0.217091 0.32354c-0.216715 0.32299 0.028427 0.74522 0.432658 0.74522h1.25445c-0.08921 1.02711 -0.05074 2.06143 0.11525 3.08173 0.10445 0.642 0.6881 1.1159 1.37438 1.1159Z" stroke-width="1"/><path stroke="currentColor" stroke-linecap="round" stroke-linejoin="round" d="M6.99989 7.79248c0.92099 0 1.6676 0.74661 1.6676 1.66761V12.5H5.33228V9.46009c0 -0.921 0.74661 -1.66761 1.66761 -1.66761Z" stroke-width="1"/></svg>