<svg xmlns="http://www.w3.org/2000/svg" fill="none" viewBox="0 0 14 14"><g stroke="currentColor" stroke-linecap="round" stroke-linejoin="round"><path d="M12.77 9.589c.64.387.64.944-.003 1.33-.63.378-1.289.763-2.035 1.122s-1.55.674-2.337.977c-.804.31-1.964.309-2.77.002-.795-.303-1.606-.619-2.357-.979-.75-.36-1.407-.75-2.038-1.131-.64-.387-.64-.944.003-1.33"/><path d="M12.77 6.462c.64.387.64.944-.003 1.33-.63.378-1.289.763-2.035 1.122-.747.358-1.55.674-2.337.977-.804.309-1.964.309-2.77.001-.795-.302-1.606-.618-2.357-.978-.75-.36-1.407-.75-2.038-1.131-.64-.388-.64-.944.003-1.33"/><path d="M1.233 3.08c-.644.387-.643.944-.003 1.331.63.381 1.288.77 2.038 1.131.75.36 1.562.676 2.356.979.807.307 1.967.307 2.771-.002.787-.302 1.59-.618 2.337-.977a25 25 0 0 0 2.035-1.122c.644-.386.644-.943.003-1.33-.63-.381-1.288-.77-2.038-1.131-.75-.36-1.562-.676-2.356-.978C7.569.673 6.409.673 5.605.982c-.787.303-1.59.619-2.337.977-.746.358-1.405.744-2.035 1.122"/></g></svg>