<svg xmlns="http://www.w3.org/2000/svg" fill="none" viewBox="0 0 14 14"><g stroke="currentColor" stroke-linecap="round" stroke-linejoin="round"><path d="M9.063 7H.75M13.04 10.269a3.13 3.13 0 0 1-2.753 2.76c-1.07.119-2.167.221-3.287.221s-2.218-.102-3.287-.222a3.13 3.13 0 0 1-2.753-2.76C.846 9.205.75 8.114.75 7s.096-2.205.21-3.269A3.13 3.13 0 0 1 3.713.971C4.783.853 5.88.75 7 .75s2.218.102 3.287.222a3.13 3.13 0 0 1 2.753 2.76c.114 1.063.21 2.155.21 3.268s-.096 2.205-.21 3.269M9.063.857v12.289"/></g></svg>