<svg xmlns="http://www.w3.org/2000/svg" fill="none" viewBox="0 0 14 14"><desc>Flip Vertical Square 1 Streamline Icon: https://streamlinehq.com</desc><g stroke="currentColor" stroke-linecap="round" stroke-linejoin="round"><path d="M10.88 12.902a3.15 3.15 0 0 0 1.963-1.833M3.12 12.902a3.15 3.15 0 0 1-1.964-1.833m4.545 2.14q.644.04 1.298.041.655-.001 1.299-.042M13.248 6.821A110 110 0 0 1 .75 6.822c.01-1.051.101-2.084.21-3.09A3.13 3.13 0 0 1 3.711.971C4.782.852 5.88.75 6.999.75c1.12 0 2.218.102 3.288.222a3.13 3.13 0 0 1 2.752 2.76c.108 1.006.2 2.038.21 3.09"/></g></svg>