<svg xmlns="http://www.w3.org/2000/svg" fill="none" viewBox="0 0 14 14"><path stroke="currentColor" stroke-linecap="round" stroke-linejoin="round" d="M0.884421 7.13115c0.035704 0.47634 0.397759 0.8706 0.868539 0.9515 0.48972 0.08416 0.99514 0.16497 1.51193 0.16497 0.5168 0 1.02222 -0.08081 1.51194 -0.16497 0.47078 -0.0809 0.83283 -0.47516 0.86853 -0.9515 0.06349 -0.847 0.13443 -1.72795 0.13443 -2.63234s-0.07094 -1.78534 -0.13443 -2.63234c-0.0357 -0.47634 -0.39775 -0.870596 -0.86853 -0.951499C4.28711 0.830813 3.78169 0.75 3.26489 0.75c-0.51679 0 -1.02221 0.080813 -1.51193 0.164971 -0.47078 0.080903 -0.832835 0.475159 -0.868539 0.951499C0.820934 2.71347 0.75 3.59442 0.75 4.49881s0.070935 1.78534 0.134421 2.63234Z" stroke-width="1"/><path stroke="currentColor" stroke-linecap="round" stroke-linejoin="round" d="M8.35464 12.1335c0.0357 0.4764 0.39775 0.8706 0.86853 0.9515 0.48972 0.0842 0.99513 0.165 1.51193 0.165s1.0222 -0.0808 1.5119 -0.165c0.4708 -0.0809 0.8329 -0.4751 0.8686 -0.9515 0.0635 -0.847 0.1344 -1.7279 0.1344 -2.63231 0 -0.90439 -0.0709 -1.78534 -0.1344 -2.63234 -0.0357 -0.47634 -0.3978 -0.8706 -0.8686 -0.9515 -0.4897 -0.08416 -0.9951 -0.16497 -1.5119 -0.16497s-1.02221 0.08081 -1.51193 0.16497c-0.47078 0.0809 -0.83283 0.47516 -0.86853 0.9515 -0.06349 0.847 -0.13443 1.72795 -0.13443 2.63234 0 0.90441 0.07094 1.78531 0.13443 2.63231Z" stroke-width="1"/><path stroke="currentColor" stroke-linecap="round" stroke-linejoin="round" d="M8.25746 2.51366c0.07217 0.46332 0.48759 0.80501 0.95563 0.83353 0.49286 0.03003 1.00171 0.05906 1.52201 0.05906s1.0292 -0.02902 1.522 -0.05906c0.4681 -0.02852 0.8835 -0.37021 0.9557 -0.83353 0.0223 -0.14319 0.0372 -0.28849 0.0372 -0.43554 0 -0.14704 -0.0149 -0.29234 -0.0372 -0.43553 -0.0722 -0.46332 -0.4876 -0.805008 -0.9557 -0.83353C11.7643 0.779025 11.2554 0.75 10.7351 0.75S9.70595 0.779025 9.21309 0.80906c-0.46804 0.028522 -0.88346 0.37021 -0.95563 0.83353 -0.0223 0.14319 -0.03725 0.28849 -0.03725 0.43553 0 0.14705 0.01495 0.29235 0.03725 0.43554Z" stroke-width="1"/><path stroke="currentColor" stroke-linecap="round" stroke-linejoin="round" d="M0.787245 12.3574c0.072171 0.4633 0.487585 0.805 0.955625 0.8335 0.49287 0.0301 1.00168 0.0591 1.52202 0.0591s1.02916 -0.029 1.52202 -0.0591c0.46804 -0.0285 0.88346 -0.3702 0.95563 -0.8335 0.0223 -0.1432 0.03725 -0.2885 0.03725 -0.4355 0 -0.1471 -0.01495 -0.2924 -0.03725 -0.4356 -0.07217 -0.4633 -0.48759 -0.805 -0.95563 -0.8335 -0.49286 -0.03 -1.00168 -0.059 -1.52202 -0.059s-1.02915 0.029 -1.52202 0.059c-0.46804 0.0285 -0.883454 0.3702 -0.955625 0.8335C0.764941 11.6295 0.75 11.7748 0.75 11.9219c0 0.147 0.014941 0.2923 0.037245 0.4355Z" stroke-width="1"/></svg>