<svg xmlns="http://www.w3.org/2000/svg" fill="none" viewBox="0 0 14 14"><path stroke="currentColor" stroke-linecap="round" stroke-linejoin="round" d="M0.551865 2.78432c0.019059 0.16883 0.094754 0.32623 0.214743 0.44652 0.119989 0.1203 0.277192 0.19639 0.445972 0.21588 0.2568 0.0288 0.52008 0.05328 0.78888 0.05328 0.2688 0 0.53232 -0.02448 0.78888 -0.05328 0.16879 -0.01949 0.32599 -0.09558 0.44598 -0.21588 0.11999 -0.12029 0.19569 -0.27769 0.21474 -0.44652 0.02736 -0.25512 0.0504 -0.5172 0.0504 -0.78432s-0.02304 -0.5292 -0.0504 -0.78456c-0.01905 -0.16883 -0.09475 -0.32623 -0.21474 -0.446523C3.11633 0.648623 2.95913 0.572528 2.79034 0.55304 2.53354 0.52472 2.27026 0.5 2.00146 0.5c-0.2688 0 -0.53232 0.02448 -0.78888 0.05328C1.0438 0.572768 0.886597 0.648863 0.766608 0.769157 0.646619 0.88945 0.570924 1.04685 0.551865 1.21568c-0.02736 0.25488 -0.0504 0.51696 -0.0504 0.78432 0 0.26736 0.02304 0.5292 0.0504 0.78432Z" stroke-width="1"/><path stroke="currentColor" stroke-linecap="round" stroke-linejoin="round" d="M0.551865 7.78505c0.019059 0.16884 0.094754 0.32623 0.214743 0.44653 0.119989 0.12029 0.277192 0.19638 0.445972 0.21587 0.2568 0.0288 0.52008 0.05328 0.78888 0.05328 0.2688 0 0.53232 -0.02448 0.78888 -0.05328 0.16879 -0.01949 0.32599 -0.09558 0.44598 -0.21587 0.11999 -0.1203 0.19569 -0.27769 0.21474 -0.44653 0.02736 -0.25512 0.0504 -0.5172 0.0504 -0.78432s-0.02304 -0.5292 -0.0504 -0.78456c-0.01905 -0.16883 -0.09475 -0.32623 -0.21474 -0.44652 -0.11999 -0.12029 -0.27719 -0.19639 -0.44598 -0.21588 -0.2568 -0.02832 -0.52008 -0.05304 -0.78888 -0.05304 -0.2688 0 -0.53232 0.02448 -0.78888 0.05328 -0.16878 0.01949 -0.325983 0.09559 -0.445972 0.21588 -0.119989 0.12029 -0.195684 0.27769 -0.214743 0.44652 -0.02736 0.25488 -0.0504 0.51696 -0.0504 0.78432 0 0.26736 0.02304 0.5292 0.0504 0.78432Z" stroke-width="1"/><path stroke="currentColor" stroke-linecap="round" stroke-linejoin="round" d="M0.551865 12.786c0.019059 0.1689 0.094754 0.3263 0.214743 0.4466 0.119989 0.1202 0.277192 0.1963 0.445972 0.2158 0.2568 0.0288 0.52008 0.0533 0.78888 0.0533 0.2688 0 0.53232 -0.0245 0.78888 -0.0533 0.16879 -0.0195 0.32599 -0.0956 0.44598 -0.2158 0.11999 -0.1203 0.19569 -0.2777 0.21474 -0.4466 0.02736 -0.2551 0.0504 -0.5172 0.0504 -0.7843s-0.02304 -0.5292 -0.0504 -0.7846c-0.01905 -0.1688 -0.09475 -0.3262 -0.21474 -0.4465 -0.11999 -0.1203 -0.27719 -0.1964 -0.44598 -0.2159 -0.2568 -0.0283 -0.52008 -0.053 -0.78888 -0.053 -0.2688 0 -0.53232 0.0245 -0.78888 0.0533 -0.16878 0.0195 -0.325983 0.0956 -0.445972 0.2159 -0.119989 0.1203 -0.195684 0.2777 -0.214743 0.4465 -0.02736 0.2549 -0.0504 0.5169 -0.0504 0.7843 0 0.2674 0.02304 0.5292 0.0504 0.7843Z" stroke-width="1"/><path stroke="currentColor" stroke-linecap="round" stroke-linejoin="round" d="M5.55113 2.78432c0.01906 0.16883 0.09476 0.32623 0.21475 0.44652 0.11998 0.1203 0.27719 0.19639 0.44597 0.21588 0.2568 0.0288 0.52008 0.05328 0.78888 0.05328 0.2688 0 0.53232 -0.02448 0.78888 -0.05328 0.16879 -0.01949 0.32599 -0.09558 0.44598 -0.21588 0.11999 -0.12029 0.19568 -0.27769 0.21474 -0.44652 0.02736 -0.25512 0.0504 -0.5172 0.0504 -0.78432s-0.02304 -0.5292 -0.0504 -0.78456c-0.01906 -0.16883 -0.09475 -0.32623 -0.21474 -0.446523C8.1156 0.648623 7.9584 0.572528 7.78961 0.55304 7.53281 0.52472 7.26953 0.5 7.00073 0.5c-0.2688 0 -0.53232 0.02448 -0.78888 0.05328 -0.16878 0.019488 -0.32599 0.095583 -0.44597 0.215877 -0.11999 0.120293 -0.19569 0.277693 -0.21475 0.446523 -0.02736 0.25488 -0.0504 0.51696 -0.0504 0.78432 0 0.26736 0.02304 0.5292 0.0504 0.78432Z" stroke-width="1"/><path stroke="currentColor" stroke-linecap="round" stroke-linejoin="round" d="M5.55113 7.78505c0.01906 0.16884 0.09476 0.32623 0.21475 0.44653 0.11998 0.12029 0.27719 0.19638 0.44597 0.21587 0.2568 0.0288 0.52008 0.05328 0.78888 0.05328 0.2688 0 0.53232 -0.02448 0.78888 -0.05328 0.16879 -0.01949 0.32599 -0.09558 0.44598 -0.21587 0.11999 -0.1203 0.19568 -0.27769 0.21474 -0.44653 0.02736 -0.25512 0.0504 -0.5172 0.0504 -0.78432s-0.02304 -0.5292 -0.0504 -0.78456c-0.01906 -0.16883 -0.09475 -0.32623 -0.21474 -0.44652 -0.11999 -0.12029 -0.27719 -0.19639 -0.44598 -0.21588 -0.2568 -0.02832 -0.52008 -0.05304 -0.78888 -0.05304 -0.2688 0 -0.53232 0.02448 -0.78888 0.05328 -0.16878 0.01949 -0.32599 0.09559 -0.44597 0.21588 -0.11999 0.12029 -0.19569 0.27769 -0.21475 0.44652 -0.02736 0.25488 -0.0504 0.51696 -0.0504 0.78432 0 0.26736 0.02304 0.5292 0.0504 0.78432Z" stroke-width="1"/><path stroke="currentColor" stroke-linecap="round" stroke-linejoin="round" d="M5.55113 12.786c0.01906 0.1689 0.09476 0.3263 0.21475 0.4466 0.11998 0.1202 0.27719 0.1963 0.44597 0.2158 0.2568 0.0288 0.52008 0.0533 0.78888 0.0533 0.2688 0 0.53232 -0.0245 0.78888 -0.0533 0.16879 -0.0195 0.32599 -0.0956 0.44598 -0.2158 0.11999 -0.1203 0.19568 -0.2777 0.21474 -0.4466 0.02736 -0.2551 0.0504 -0.5172 0.0504 -0.7843s-0.02304 -0.5292 -0.0504 -0.7846c-0.01906 -0.1688 -0.09475 -0.3262 -0.21474 -0.4465 -0.11999 -0.1203 -0.27719 -0.1964 -0.44598 -0.2159 -0.2568 -0.0283 -0.52008 -0.053 -0.78888 -0.053 -0.2688 0 -0.53232 0.0245 -0.78888 0.0533 -0.16878 0.0195 -0.32599 0.0956 -0.44597 0.2159 -0.11999 0.1203 -0.19569 0.2777 -0.21475 0.4465 -0.02736 0.2549 -0.0504 0.5169 -0.0504 0.7843 0 0.2674 0.02304 0.5292 0.0504 0.7843Z" stroke-width="1"/><path stroke="currentColor" stroke-linecap="round" stroke-linejoin="round" d="M10.5504 2.78432c0.0191 0.16883 0.0948 0.32623 0.2147 0.44652 0.12 0.1203 0.2772 0.19639 0.446 0.21588 0.2568 0.0288 0.5201 0.05328 0.7889 0.05328 0.2688 0 0.5323 -0.02448 0.7889 -0.05328 0.1688 -0.01949 0.326 -0.09558 0.446 -0.21588 0.1199 -0.12029 0.1956 -0.27769 0.2147 -0.44652C13.477 2.5292 13.5 2.26712 13.5 2s-0.023 -0.5292 -0.0504 -0.78456c-0.0191 -0.16883 -0.0948 -0.32623 -0.2147 -0.446523 -0.12 -0.120294 -0.2772 -0.196389 -0.446 -0.215877C12.5321 0.52472 12.2688 0.5 12 0.5c-0.2688 0 -0.5323 0.02448 -0.7889 0.05328 -0.1688 0.019488 -0.326 0.095583 -0.446 0.215877 -0.1199 0.120293 -0.1956 0.277693 -0.2147 0.446523C10.523 1.47056 10.5 1.73264 10.5 2c0 0.26736 0.023 0.5292 0.0504 0.78432Z" stroke-width="1"/><path stroke="currentColor" stroke-linecap="round" stroke-linejoin="round" d="M10.5504 7.78505c0.0191 0.16884 0.0948 0.32623 0.2147 0.44653 0.12 0.12029 0.2772 0.19638 0.446 0.21587 0.2568 0.0288 0.5201 0.05328 0.7889 0.05328 0.2688 0 0.5323 -0.02448 0.7889 -0.05328 0.1688 -0.01949 0.326 -0.09558 0.446 -0.21587 0.1199 -0.1203 0.1956 -0.27769 0.2147 -0.44653 0.0274 -0.25512 0.0504 -0.5172 0.0504 -0.78432s-0.023 -0.5292 -0.0504 -0.78456c-0.0191 -0.16883 -0.0948 -0.32623 -0.2147 -0.44652 -0.12 -0.12029 -0.2772 -0.19639 -0.446 -0.21588 -0.2568 -0.02832 -0.5201 -0.05304 -0.7889 -0.05304 -0.2688 0 -0.5323 0.02448 -0.7889 0.05328 -0.1688 0.01949 -0.326 0.09559 -0.446 0.21588 -0.1199 0.12029 -0.1956 0.27769 -0.2147 0.44652 -0.0274 0.25488 -0.0504 0.51696 -0.0504 0.78432 0 0.26736 0.023 0.5292 0.0504 0.78432Z" stroke-width="1"/><path stroke="currentColor" stroke-linecap="round" stroke-linejoin="round" d="M10.5504 12.786c0.0191 0.1689 0.0948 0.3263 0.2147 0.4466 0.12 0.1202 0.2772 0.1963 0.446 0.2158 0.2568 0.0288 0.5201 0.0533 0.7889 0.0533 0.2688 0 0.5323 -0.0245 0.7889 -0.0533 0.1688 -0.0195 0.326 -0.0956 0.446 -0.2158 0.1199 -0.1203 0.1956 -0.2777 0.2147 -0.4466 0.0274 -0.2551 0.0504 -0.5172 0.0504 -0.7843s-0.023 -0.5292 -0.0504 -0.7846c-0.0191 -0.1688 -0.0948 -0.3262 -0.2147 -0.4465 -0.12 -0.1203 -0.2772 -0.1964 -0.446 -0.2159 -0.2568 -0.0283 -0.5201 -0.053 -0.7889 -0.053 -0.2688 0 -0.5323 0.0245 -0.7889 0.0533 -0.1688 0.0195 -0.326 0.0956 -0.446 0.2159 -0.1199 0.1203 -0.1956 0.2777 -0.2147 0.4465 -0.0274 0.2549 -0.0504 0.5169 -0.0504 0.7843 0 0.2674 0.023 0.5292 0.0504 0.7843Z" stroke-width="1"/></svg>