<svg xmlns="http://www.w3.org/2000/svg" fill="none" viewBox="0 0 14 14"><desc>Layout Window 16 Streamline Icon: https://streamlinehq.com</desc><g stroke="currentColor" stroke-linecap="round" stroke-linejoin="round"><path d="M13.25 6.908H.75M4.658 13.048v-6.14M9.158 13.048v-6.14M3.731.868A3.13 3.13 0 0 0 .971 3.62C.853 4.69.75 5.788.75 6.908s.102 2.218.222 3.287a3.13 3.13 0 0 0 2.76 2.753c1.063.114 2.155.21 3.268.21s2.205-.096 3.269-.21a3.13 3.13 0 0 0 2.76-2.753c.119-1.07.221-2.168.221-3.287 0-1.12-.102-2.218-.222-3.288a3.13 3.13 0 0 0-2.76-2.752C9.205.754 8.114.658 7 .658s-2.205.096-3.269.21"/></g></svg>