<svg xmlns="http://www.w3.org/2000/svg" fill="none" viewBox="0 0 14 14"><desc>Play List 2 Streamline Icon: https://streamlinehq.com</desc><g stroke="currentColor" stroke-linecap="round" stroke-linejoin="round"><path d="M3.48 11.245c.035.477.398.867.87.947.852.143 1.74.31 2.65.31s1.798-.167 2.65-.31c.472-.08.835-.47.87-.947.1-1.36.23-2.781.23-4.245s-.13-2.886-.23-4.245a1.044 1.044 0 0 0-.87-.947c-.852-.143-1.74-.31-2.65-.31s-1.798.167-2.65.31c-.472.08-.835.47-.87.947-.1 1.36-.23 2.781-.23 4.245s.13 2.886.23 4.245"/><path d="M5.7 7.09c0 .399.067.989.125 1.42.04.298.336.488.616.38.811-.311 1.57-.805 2.068-1.565a.43.43 0 0 0 0-.47c-.499-.759-1.257-1.252-2.068-1.564a.46.46 0 0 0-.616.38c-.058.431-.125 1.021-.125 1.42M12.174 3.013l.013.001c.475.034.866.394.945.865.169 1.002.368 2.047.368 3.121s-.199 2.119-.368 3.121c-.08.47-.47.83-.945.865h-.013M1.826 3.013l-.012.001a1.04 1.04 0 0 0-.946.865C.7 4.88.5 5.926.5 7s.2 2.119.368 3.121c.08.47.47.83.946.865h.012"/></g></svg>