<svg xmlns="http://www.w3.org/2000/svg" fill="none" viewBox="0 0 14 14"><g stroke="currentColor" stroke-linecap="round" stroke-linejoin="round"><path d="M12.902 10.88a3.15 3.15 0 0 1-1.834 1.963m1.834-9.722a3.15 3.15 0 0 0-1.834-1.964m2.14 4.545q.04.644.042 1.298-.002.655-.042 1.299M6.821 13.248C7.06 9.074 7.06 4.924 6.822.75c-1.051.01-2.084.101-3.09.21a3.13 3.13 0 0 0-2.76 2.752C.852 4.782.75 5.88.75 6.999c0 1.12.102 2.218.222 3.288a3.13 3.13 0 0 0 2.76 2.752c1.006.108 2.038.2 3.09.21"/></g></svg>