<svg xmlns="http://www.w3.org/2000/svg" fill="none" viewBox="0 0 14 14"><path stroke="currentColor" stroke-linecap="round" stroke-linejoin="round" d="M0.852037 4.72319c0.053214 0.48002 0.437523 0.86419 0.917323 0.91937 0.47984 0.05518 0.97476 0.10744 1.48064 0.10744s1.0008 -0.05226 1.48064 -0.10744c0.4798 -0.05518 0.86411 -0.43935 0.91732 -0.91937C5.70089 4.24573 5.75 3.7533 5.75 3.25c0 -0.50331 -0.04911 -0.99573 -0.10204 -1.47319 -0.05321 -0.48002 -0.43752 -0.864187 -0.91732 -0.919367C4.2508 0.802257 3.75588 0.75 3.25 0.75S2.2492 0.802257 1.76936 0.857443c-0.4798 0.05518 -0.864109 0.439347 -0.917323 0.919367C0.799107 2.25427 0.75 2.74669 0.75 3.25c0 0.5033 0.049107 0.99573 0.102037 1.47319Z" stroke-width="1"/><path stroke="currentColor" stroke-linecap="round" stroke-linejoin="round" d="M0.852037 12.2232c0.053214 0.48 0.437523 0.8642 0.917323 0.9194 0.47984 0.0551 0.97476 0.1074 1.48064 0.1074s1.0008 -0.0523 1.48064 -0.1074c0.4798 -0.0552 0.86411 -0.4394 0.91732 -0.9194 0.05293 -0.4775 0.10204 -0.9699 0.10204 -1.4732 0 -0.5033 -0.04911 -0.99573 -0.10204 -1.47319 -0.05321 -0.48002 -0.43752 -0.86419 -0.91732 -0.91937C4.2508 8.30226 3.75588 8.25 3.25 8.25s-1.0008 0.05226 -1.48064 0.10744c-0.4798 0.05518 -0.864109 0.43935 -0.917323 0.91937C0.799107 9.75427 0.75 10.2467 0.75 10.75s0.049107 0.9957 0.102037 1.4732Z" stroke-width="1"/><path stroke="currentColor" stroke-linecap="round" stroke-linejoin="round" d="M8.35204 4.72319c0.05321 0.48002 0.43752 0.86419 0.91732 0.91937 0.47984 0.05518 0.97474 0.10744 1.48064 0.10744 0.5059 0 1.0008 -0.05226 1.4806 -0.10744 0.4798 -0.05518 0.8641 -0.43935 0.9174 -0.91937 0.0529 -0.47746 0.102 -0.96989 0.102 -1.47319 0 -0.50331 -0.0491 -0.99573 -0.102 -1.47319 -0.0533 -0.48002 -0.4376 -0.864187 -0.9174 -0.919367C11.7508 0.802257 11.2559 0.75 10.75 0.75c-0.5059 0 -1.0008 0.052257 -1.48064 0.107443 -0.4798 0.05518 -0.86411 0.439347 -0.91732 0.919367C8.29911 2.25427 8.25 2.74669 8.25 3.25c0 0.5033 0.04911 0.99573 0.10204 1.47319Z" stroke-width="1"/><path stroke="currentColor" stroke-linecap="round" stroke-linejoin="round" d="M8.35204 12.2232c0.05321 0.48 0.43752 0.8642 0.91732 0.9194 0.47984 0.0551 0.97474 0.1074 1.48064 0.1074 0.5059 0 1.0008 -0.0523 1.4806 -0.1074 0.4798 -0.0552 0.8641 -0.4394 0.9174 -0.9194 0.0529 -0.4775 0.102 -0.9699 0.102 -1.4732 0 -0.5033 -0.0491 -0.99573 -0.102 -1.47319 -0.0533 -0.48002 -0.4376 -0.86419 -0.9174 -0.91937 -0.4798 -0.05518 -0.9747 -0.10744 -1.4806 -0.10744 -0.5059 0 -1.0008 0.05226 -1.48064 0.10744 -0.4798 0.05518 -0.86411 0.43935 -0.91732 0.91937C8.29911 9.75427 8.25 10.2467 8.25 10.75s0.04911 0.9957 0.10204 1.4732Z" stroke-width="1"/></svg>