<svg xmlns="http://www.w3.org/2000/svg" fill="none" viewBox="0 0 14 14"><g stroke="currentColor" stroke-linecap="round" stroke-linejoin="round"><path d="M13.5 3.785c-.232.1-.443.258-.62.467-.27.319-.44.736-.482 1.184-.061.677-.113.856-.113 1.565s.052.888.113 1.566c.043.447.213.865.482 1.184.176.209.388.367.62.467M.5 3.785c.232.1.444.258.62.467.27.319.44.736.482 1.184.061.677.113.856.113 1.565s-.052.888-.113 1.566A2.16 2.16 0 0 1 1.12 9.75a1.7 1.7 0 0 1-.62.467M10.254 3.823c-.043-.549-.213-1.06-.482-1.45-.614-.89-1.83-.874-2.772-.874-.943 0-2.158-.017-2.773.874-.27.39-.44.901-.482 1.45-.061.828-.113 2.31-.113 3.177s.052 2.35.113 3.178c.043.548.213 1.06.482 1.45.615.89 1.83.873 2.773.873.942 0 2.158.017 2.772-.874.27-.39.44-.901.482-1.45.062-.827.113-2.309.113-3.177s-.052-2.35-.113-3.177"/></g></svg>