<svg xmlns="http://www.w3.org/2000/svg" fill="none" viewBox="0 0 14 14"><desc>Layout Window 17 Streamline Icon: https://streamlinehq.com</desc><g stroke="currentColor" stroke-linecap="round" stroke-linejoin="round"><path d="M7 6.947V.657M.75 6.948h12.5M.953 10.092h12.094M.96 10.176a3.13 3.13 0 0 0 2.753 2.76c1.07.12 2.167.222 3.287.222s2.218-.103 3.287-.222a3.13 3.13 0 0 0 2.753-2.76c.114-1.063.21-2.155.21-3.268s-.096-2.205-.21-3.269A3.13 3.13 0 0 0 10.287.88C9.217.76 8.12.658 7 .658S4.782.76 3.713.879A3.13 3.13 0 0 0 .96 3.64C.846 4.703.75 5.795.75 6.908s.096 2.205.21 3.268"/></g></svg>