<svg xmlns="http://www.w3.org/2000/svg" fill="none" viewBox="0 0 14 14"><desc>Flip Horizontal Square 1 Streamline Icon: https://streamlinehq.com</desc><g stroke="currentColor" stroke-linecap="round" stroke-linejoin="round"><path d="M1.098 10.88a3.15 3.15 0 0 0 1.834 1.963M1.098 3.12a3.15 3.15 0 0 1 1.834-1.964M.792 5.702Q.752 6.346.75 7q.002.655.042 1.299M7.179 13.248A110 110 0 0 1 7.178.75c1.051.01 2.084.101 3.09.21a3.13 3.13 0 0 1 2.76 2.752c.12 1.07.222 2.168.222 3.287 0 1.12-.102 2.218-.222 3.288a3.13 3.13 0 0 1-2.76 2.752c-1.006.108-2.038.2-3.09.21"/></g></svg>