<svg xmlns="http://www.w3.org/2000/svg" fill="none" viewBox="0 0 14 14"><path stroke="currentColor" stroke-linecap="round" stroke-linejoin="round" d="M7 10.2825c-1.49361 0 -2.95047 -0.1319 -4.35493 -0.2542C1.68832 9.94491 0.902642 9.207 0.762843 8.25686 0.626163 7.32791 0.5 6.37009 0.5 5.39123c0 -0.97885 0.126163 -1.93667 0.262842 -2.86562C0.902641 1.57547 1.68832 0.837557 2.64507 0.754203 4.04953 0.631844 5.50639 0.5 7 0.5c1.49361 0 2.95048 0.131844 4.3549 0.254203 0.9568 0.083355 1.7425 0.821267 1.8823 1.771407 0.0817 0.55527 0.1596 1.12085 0.2091 1.69508" stroke-width="1"/><path stroke="currentColor" stroke-linecap="round" stroke-linejoin="round" d="M3.5 2.87329h6.125" stroke-width="1"/><path stroke="currentColor" stroke-linecap="round" stroke-linejoin="round" d="M3.5 5.41504h1.75" stroke-width="1"/><path stroke="currentColor" stroke-linecap="round" stroke-linejoin="round" d="M12.6469 10.0609c0.1063 1.0896 0.1194 2.1841 0.0282 3.2748 -0.012 0.1431 -0.1791 0.2146 -0.2908 0.1243l-1.0121 -0.8174c-0.1591 -0.1286 -0.3865 -0.1286 -0.5457 0l-1.012 0.8174c-0.11171 0.0903 -0.27886 0.0188 -0.29083 -0.1243 -0.09118 -1.0907 -0.07813 -2.1852 0.02813 -3.2748" stroke-width="1"/><path stroke="currentColor" stroke-linecap="round" stroke-linejoin="round" d="M11.0999 10.5394c1.3258 0 2.4006 -1.07477 2.4006 -2.40061 0 -1.32583 -1.0748 -2.40063 -2.4006 -2.40063 -1.32588 0 -2.40068 1.0748 -2.40068 2.40063 0 1.32584 1.0748 2.40061 2.40068 2.40061Z" stroke-width="1"/><path stroke="currentColor" stroke-linecap="round" stroke-linejoin="round" d="M11.0994 8.46087c-0.1779 0 -0.3221 -0.14419 -0.3221 -0.32205s0.1442 -0.32205 0.3221 -0.32205" stroke-width="1"/><path stroke="currentColor" stroke-linecap="round" stroke-linejoin="round" d="M11.0998 8.46087c0.1779 0 0.3221 -0.14419 0.3221 -0.32205s-0.1442 -0.32205 -0.3221 -0.32205" stroke-width="1"/></svg>