<svg xmlns="http://www.w3.org/2000/svg" fill="none" viewBox="0 0 14 14"><desc>Lightbulb On Streamline Icon: https://streamlinehq.com</desc><g stroke="currentColor" stroke-linecap="round"><path stroke-linejoin="round" d="M4.03 8.93c-.322-.494-.524-1.206-.55-1.796 0-2.125 1.195-3.321 3.57-3.321 2.126 0 3.572 1.196 3.572 3.321-.027.59-.228 1.302-.551 1.796-.576.883-1.3 1.576-1.3 2.626-.506-.107-.797-.161-1.72-.161-.674 0-1.215.054-1.72.161 0-1.05-.725-1.743-1.3-2.626"/><path stroke-linejoin="round" d="m5.333 11.556-.003.206c0 .31.022.613.05.909a.94.94 0 0 0 .21.517.7.7 0 0 0 .437.25c.252.033.76.062 1.024.062.263 0 .772-.028 1.023-.062a.7.7 0 0 0 .437-.25.94.94 0 0 0 .211-.517c.027-.296.05-.6.05-.909q0-.104-.004-.206a8 8 0 0 0-1.718-.161c-.922 0-1.213.054-1.717.16"/><path d="M7.05 9.42v1.975"/><path stroke-linejoin="round" d="M5.954 8.081c.19.452.465.858.709 1.152.207.25.568.25.775 0 .244-.294.518-.7.71-1.152M2.404 2.404l.383.383M7 .5v.542M13.5 7h-.542M1.042 7H.5M11.596 2.404l-.383.383"/></g></svg>