<svg clip-rule="evenodd" fill-rule="evenodd" stroke-linejoin="round" stroke-miterlimit="2" viewBox="0 0 20 9" xmlns="http://www.w3.org/2000/svg"><path d="m18.211 4.757c0-.362-.071-.72-.21-1.055-.138-.334-.341-.638-.597-.894-.256-.255-.56-.458-.894-.597-.335-.138-.693-.21-1.055-.21h-4.676c-.441 0-.875.106-1.267.308-.391.203-.729.497-.983.857-.255.36-.419.775-.48 1.212s-.015.882.132 1.298c.043.136.032.284-.032.412-.063.129-.174.227-.31.275-.135.048-.283.041-.413-.019-.13-.059-.232-.168-.284-.301-.206-.582-.269-1.205-.184-1.816s.315-1.193.672-1.697c.356-.504.828-.915 1.376-1.198.548-.284 1.156-.432 1.773-.432h4.676c.511-.007 1.018.088 1.492.279.473.191.904.474 1.268.833.363.359.652.786.849 1.257.197.472.298.977.298 1.488s-.101 1.016-.298 1.488c-.197.471-.486.898-.849 1.257-.364.359-.795.642-1.268.833-.474.191-.981.286-1.492.279h-1.825c-.074.003-.148-.01-.217-.036-.069-.027-.132-.067-.186-.118-.053-.052-.095-.113-.124-.181s-.044-.142-.044-.216.015-.147.044-.215.071-.13.124-.181c.054-.051.117-.092.186-.118.069-.027.143-.039.217-.036h1.825c.362 0 .72-.072 1.055-.21.334-.138.638-.341.894-.597s.459-.56.597-.894c.139-.335.21-.693.21-1.055zm-6.056-1.622c.138-.049.289-.04.421.023s.233.175.282.313c.206.582.269 1.205.184 1.816s-.315 1.193-.672 1.697c-.356.504-.828.915-1.376 1.199-.548.283-1.156.431-1.773.431h-4.676c-.511.007-1.018-.088-1.492-.279-.473-.191-.904-.474-1.268-.833-.363-.359-.652-.786-.849-1.257-.197-.472-.298-.977-.298-1.488s.101-1.016.298-1.488c.197-.471.486-.898.849-1.257.364-.359.795-.642 1.268-.833.474-.191.981-.286 1.492-.279h1.826c.073-.003.147.01.216.036.069.027.132.067.186.118.053.052.095.113.124.181s.044.142.044.216-.015.147-.044.215-.071.13-.124.181c-.054.052-.117.092-.186.118-.069.027-.143.039-.216.036h-1.826c-.731 0-1.432.291-1.949.808-.256.255-.459.559-.597.894-.138.334-.21.692-.21 1.054s.072.72.21 1.055c.138.334.341.638.597.894.517.516 1.218.807 1.949.807h4.676c.441 0 .875-.106 1.267-.308.391-.203.729-.497.983-.857.255-.36.42-.775.48-1.212.061-.437.016-.882-.132-1.298-.024-.068-.034-.14-.03-.212.003-.073.021-.143.053-.209.031-.065.074-.124.128-.172s.117-.086.185-.11z" transform="matrix(1.0681 0 0 1.0681 -.681023 -.580997)"/></svg>