<svg xmlns="http://www.w3.org/2000/svg" fill="none" viewBox="0 0 14 14">
  <g>
    <path id="Vector 381" stroke="currentColor" stroke-linecap="round" stroke-linejoin="round" d="M6 7 0.5 7" stroke-width="1"></path>
    <path id="Vector" stroke="currentColor" stroke-linecap="round" stroke-linejoin="round" d="m10.3398 10.6591 -0.71431 0c-2.25969 0 -3.53076 -1.31723 -3.53076 -3.65901 0 -2.34177 1.27107 -3.65903 3.53076 -3.65903l0.71431 0" stroke-width="1"></path>
    <path id="Vector 2594" stroke="currentColor" stroke-linecap="round" stroke-linejoin="round" d="M11.5593 5.56402c0.6926 -0.50793 1.3953 -1.21055 1.7917 -1.76159 0.1987 -0.2761 0.1987 -0.64693 0 -0.92303 -0.3964 -0.55105 -1.0456 -1.2678 -1.7917 -1.76159 -0.4255 -0.281577 -0.9472 -0.03371 -1.0483 0.47885 -0.0917 0.4647 -0.1673 1.06363 -0.1673 1.74425 0 0.68063 0.0756 1.27955 0.1673 1.74426 0.1011 0.51256 0.6228 0.76042 1.0483 0.47885Z" stroke-width="1"></path>
    <path id="Vector 2595" stroke="currentColor" stroke-linecap="round" stroke-linejoin="round" d="M11.5593 12.8821c0.6926 -0.5079 1.3953 -1.2105 1.7917 -1.7616 0.1987 -0.2761 0.1987 -0.6469 0 -0.923 -0.3964 -0.55103 -1.0456 -1.26778 -1.7917 -1.76158 -0.4255 -0.28157 -0.9472 -0.03371 -1.0483 0.47886 -0.0917 0.4647 -0.1673 1.06362 -0.1673 1.74422 0 0.6807 0.0756 1.2796 0.1673 1.7443 0.1011 0.5125 0.6228 0.7604 1.0483 0.4788Z" stroke-width="1"></path>
  </g>
</svg>