<svg xmlns="http://www.w3.org/2000/svg" fill="none" viewBox="0 0 14 14"><desc>Magnet Streamline Icon: https://streamlinehq.com</desc><g stroke="currentColor" stroke-linecap="round" stroke-linejoin="round"><path d="M2.218 11.782a5.867 5.867 0 0 0 8.298 0l2.672-2.672a1.067 1.067 0 0 0 0-1.509l-1.51-1.508a1.067 1.067 0 0 0-1.508 0L7.5 8.764a1.6 1.6 0 1 1-2.263-2.263L7.907 3.83a1.067 1.067 0 0 0 0-1.509L6.4.812a1.067 1.067 0 0 0-1.509 0L2.218 3.484a5.867 5.867 0 0 0 0 8.298"/><path d="M3.35 2.353 6.367 5.37l1.54-1.54a1.067 1.067 0 0 0 0-1.509L6.398.812a1.067 1.067 0 0 0-1.508 0zM8.63 7.633l3.017 3.017 1.54-1.54a1.067 1.067 0 0 0 0-1.509L11.68 6.093a1.067 1.067 0 0 0-1.509 0z"/></g></svg>