<svg xmlns="http://www.w3.org/2000/svg" fill="none" viewBox="0 0 14 14"><desc>Chat Bubble Text Square Streamline Icon: https://streamlinehq.com</desc><g stroke="currentColor" stroke-linecap="round" stroke-linejoin="round"><path d="M2.739 10.548C1.845 10.464 1.094 9.81.97 8.922a22.7 22.7 0 0 1 .01-6.4c.12-.83.798-1.457 1.632-1.544A42 42 0 0 1 7 .75c1.501 0 2.948.085 4.358.23a1.854 1.854 0 0 1 1.658 1.572 23 23 0 0 1 .234 3.231c0 1.096-.093 2.161-.239 3.196a1.886 1.886 0 0 1-1.686 1.605 43 43 0 0 1-4.432.232c-1.049 1.206-1.853 1.803-3.258 2.434v-2.62l-.68-.062zM4.563 4h4.875M4.563 7H8.25"/></g></svg>