<svg xmlns="http://www.w3.org/2000/svg" fill="none" viewBox="0 0 16 16"><path stroke="currentColor" stroke-linecap="round" stroke-linejoin="round" d="M1.2498628571428572 3.5999314285714283C2.8088571428571427 5.106971428571429 4.432674285714286 6.502617142857143 6.217371428571428 7.7328c1.0753828571428572 0.7412457142857143 2.4897142857142858 0.7412342857142857 3.565085714285714 -0.00002285714285714286C11.5672 6.5025828571428566 13.190971428571427 5.1069257142857145 14.749942857142857 3.599885714285714" stroke-width="1"/><path stroke="currentColor" stroke-linecap="round" stroke-linejoin="round" d="M4.115748571428571 1.9242742857142856c-0.8361257142857142 0.07988571428571428 -1.6156114285714285 0.3971428571428571 -2.21136 0.9000571428571428 -0.5957371428571429 0.5029028571428571 -0.9725874285714285 1.1617942857142856 -1.0690982857142857 1.869222857142857C0.6926617142857143 5.7698857142857145 0.5714274285714286 6.873371428571428 0.5714274285714286 8c0 1.1266285714285713 0.1212342857142857 2.2311199999999998 0.2638628571428571 3.3064457142857138 0.09651085714285713 0.7073828571428571 0.4733611428571428 1.3663542857142856 1.0690982857142857 1.8692114285714283 0.5957485714285714 0.5029714285714285 1.3752342857142856 0.8202285714285714 2.21136 0.9001142857142856 1.2634514285714287 0.11462857142857143 2.5613714285714284 0.21119999999999997 3.8842514285714285 0.21119999999999997 1.32288 0 2.6208 -0.09657142857142857 3.885485714285714 -0.21119999999999997 0.8361142857142857 -0.07988571428571428 1.615542857142857 -0.3971428571428571 2.211314285714286 -0.9001142857142856 0.5957714285714285 -0.5028571428571428 0.9725714285714285 -1.1618285714285712 1.0691428571428572 -1.8692114285714283C15.306171428571426 10.230114285714285 15.428571428571427 9.12662857142857 15.428571428571427 8c0 -1.1266285714285713 -0.12125714285714286 -2.2311199999999998 -0.2638857142857143 -3.3064457142857138 -0.09645714285714285 -0.7074285714285714 -0.47337142857142855 -1.36632 -1.0690285714285714 -1.869222857142857 -0.5957714285714285 -0.5029142857142856 -1.3753142857142857 -0.8201714285714286 -2.2114285714285713 -0.9000571428571428C10.621988571428572 1.8095999999999999 9.32406857142857 1.7130285714285711 8 1.7130285714285711s-2.6208 0.09657142857142857 -3.8842514285714285 0.2112457142857143Z" stroke-width="1"/></svg>