<svg xmlns="http://www.w3.org/2000/svg" fill="none" viewBox="0 0 14 14"><desc>Inbox Open Streamline Icon: https://streamlinehq.com</desc><g stroke="currentColor"><path d="M2.041 5.906a33 33 0 0 0 3.333 2.582 2.92 2.92 0 0 0 3.252 0 33 33 0 0 0 3.333-2.582c-.003-1-.033-2.32-.09-3.253-.06-.978-.859-1.756-1.863-1.814a51 51 0 0 0-6.011 0C2.99.897 2.19 1.675 2.13 2.653a63 63 0 0 0-.09 3.253Z"/><path stroke-linecap="round" stroke-linejoin="round" d="M12.943 5.017c-1.357 1.262-2.77 2.433-4.317 3.47a2.92 2.92 0 0 1-3.252.001C3.828 7.45 2.414 6.279 1.058 5.017q-.06.181-.086.37C.852 6.27.75 7.174.75 8.097c0 .924.102 1.829.222 2.71.081.58.398 1.12.9 1.532.5.412 1.157.672 1.86.738 1.063.094 2.155.173 3.268.173s2.205-.08 3.269-.173c.704-.066 1.36-.326 1.86-.738.502-.412.819-.952.9-1.532.118-.882.221-1.786.221-2.71s-.102-1.828-.222-2.71a2 2 0 0 0-.085-.37M5.5 5.884h3M5.5 3.448h3"/></g></svg>