<svg xmlns="http://www.w3.org/2000/svg" fill="none" viewBox="0 0 14 14"><path stroke="currentColor" stroke-linecap="round" stroke-linejoin="round" d="M7.485 10.1999c-0.40821 0.0205 -0.82002 0.0328 -1.235 0.0328 -1.02396 0 -2.0286 -0.0747 -3.00656 -0.1635 -0.64719 -0.0618 -1.25055 -0.3074 -1.71167 -0.69668 -0.46113 -0.38927 -0.752827 -0.89927 -0.82753 -1.44685C0.59384 7.09333 0.5 6.23841 0.5 5.36636c0 -0.87206 0.09384 -1.7262 0.20424 -2.55932 0.074703 -0.54757 0.3664 -1.05758 0.82753 -1.44685C1.99289 0.970916 2.59625 0.725342 3.24344 0.663509 4.2214 0.574747 5.22512 0.5 6.25 0.5c1.02488 0 2.02952 0.074747 3.00656 0.16351 0.64719 0.061832 1.25054 0.307406 1.71164 0.69668 0.4612 0.38927 0.7529 0.89928 0.8276 1.44685 0.1104 0.83234 0.2042 1.68727 0.2042 2.55932 0 0.67463 -0.0567 1.33855 -0.1327 1.9903" stroke-width="1"/><path stroke="currentColor" stroke-linecap="round" stroke-linejoin="round" d="M1.02515 1.96061C2.23187 3.12711 3.48877 4.2074 4.8702 5.1596c0.83238 0.57376 1.92712 0.57375 2.7595 -0.00001 1.38143 -0.95222 2.6383 -2.03251 3.8451 -3.19902" stroke-width="1"/><path stroke="currentColor" stroke-linecap="round" stroke-linejoin="round" d="M9 11.8125 10.6364 13.5c0.77 -2.2119 1.4113 -3.1825 2.8636 -4.5" stroke-width="1"/></svg>