<svg xmlns="http://www.w3.org/2000/svg" fill="none" viewBox="0 0 14 14"><path stroke="currentColor" stroke-linecap="round" stroke-linejoin="round" d="M5.90632 10.23c-0.90523 -0.0142 -1.79457 -0.082 -2.66288 -0.1608 -0.64719 -0.0618 -1.25055 -0.3074 -1.71167 -0.69668 -0.46113 -0.38927 -0.752826 -0.89927 -0.827529 -1.44685C0.593841 7.09333 0.5 6.23841 0.5 5.36636c0 -0.87206 0.093841 -1.7262 0.204241 -2.55932 0.074703 -0.54757 0.366399 -1.05758 0.827529 -1.44685C1.99289 0.970915 2.59625 0.725341 3.24344 0.663509 4.2214 0.574747 5.22512 0.5 6.25 0.5c1.02488 0 2.02952 0.074747 3.00656 0.163509 0.64719 0.061833 1.25054 0.307407 1.71164 0.696681 0.4612 0.38927 0.7529 0.89928 0.8276 1.44685 0.1104 0.83234 0.2042 1.68727 0.2042 2.55932 0 0.06547 -0.0005 0.13084 -0.0016 0.19612" stroke-width="1"/><path stroke="currentColor" stroke-linecap="round" stroke-linejoin="round" d="M1.02515 1.96061C2.23187 3.12711 3.48877 4.2074 4.8702 5.1596c0.83238 0.57376 1.92712 0.57375 2.7595 -0.00001 1.38143 -0.95222 2.6383 -2.03251 3.8451 -3.19902" stroke-width="1"/><path stroke="currentColor" stroke-linecap="round" stroke-linejoin="round" d="M13.0566 10.8626c-0.0001 0.0242 0.008 0.0476 0.023 0.0665l0.3185 0.4012c0.0576 0.0721 0.0921 0.1599 0.099 0.252 0.007 0.092 -0.014 0.184 -0.0602 0.2639l-0.1868 0.3232c-0.046 0.08 -0.1151 0.1442 -0.1983 0.1843 -0.0831 0.0401 -0.1764 0.0541 -0.2677 0.0404l-0.5073 -0.0772c-0.024 -0.0034 -0.0484 0.0013 -0.0695 0.0132l-0.6012 0.3471c-0.0208 0.0123 -0.037 0.0312 -0.046 0.0537l-0.1872 0.4775c-0.0335 0.0858 -0.0921 0.1596 -0.1682 0.2116 -0.076 0.052 -0.166 0.0799 -0.2581 0.08h-0.3735c-0.0921 -0.0001 -0.1821 -0.028 -0.2582 -0.08 -0.076 -0.052 -0.1346 -0.1258 -0.1682 -0.2116l-0.18712 -0.4775c-0.00896 -0.0225 -0.02516 -0.0414 -0.04605 -0.0537l-0.60115 -0.3471c-0.02106 -0.0119 -0.0455 -0.0166 -0.06949 -0.0132l-0.50736 0.0772c-0.09126 0.0137 -0.18456 -0.0003 -0.26769 -0.0404 -0.08314 -0.0401 -0.15225 -0.1043 -0.19831 -0.1843l-0.18674 -0.3232c-0.04618 -0.0799 -0.06718 -0.1719 -0.06026 -0.2639 0.00692 -0.0921 0.04145 -0.1799 0.09906 -0.252l0.32019 -0.4012c0.01498 -0.0189 0.0231 -0.0423 0.02302 -0.0665v-0.6941c0.00008 -0.0241 -0.00804 -0.0476 -0.02302 -0.0665l-0.32019 -0.40118c-0.05761 -0.07211 -0.09214 -0.15991 -0.09906 -0.25195 -0.00692 -0.09204 0.01408 -0.18402 0.06026 -0.26393l0.18674 -0.32318c0.04606 -0.07998 0.11517 -0.14421 0.19831 -0.18429 0.08313 -0.04009 0.17643 -0.05416 0.26769 -0.04039l0.50608 0.07717c0.02399 0.0034 0.04843 -0.00125 0.06949 -0.01322l0.60243 -0.34875c0.02089 -0.0123 0.03709 -0.0312 0.04605 -0.05372l0.18802 -0.47581c0.0335 -0.08583 0.0921 -0.15957 0.1682 -0.21159 0.076 -0.05203 0.166 -0.07991 0.2581 -0.08003h0.3744c0.0921 0.00012 0.1821 0.028 0.2582 0.08003 0.076 0.05202 0.1346 0.12576 0.1681 0.21159l0.1872 0.47581c0.0086 0.02315 0.0249 0.04269 0.046 0.05542l0.6012 0.34705c0.0211 0.01194 0.0455 0.01658 0.0695 0.01322l0.5074 -0.07717c0.0912 -0.01377 0.1845 0.0003 0.2676 0.04039 0.0832 0.04008 0.1523 0.10431 0.1984 0.18429l0.1867 0.32318c0.0462 0.07991 0.0672 0.17189 0.0602 0.26393 -0.0069 0.09204 -0.0414 0.17984 -0.099 0.25195l-0.3202 0.40118c-0.015 0.0189 -0.0231 0.0424 -0.023 0.0665v0.6941Z" stroke-width="1"/><path stroke="currentColor" stroke-linecap="round" stroke-linejoin="round" d="M10.7585 11.0156c-0.32 0 -0.5 -0.18 -0.5 -0.5s0.18 -0.5 0.5 -0.5" stroke-width="1"/><path stroke="currentColor" stroke-linecap="round" stroke-linejoin="round" d="M10.7617 11.0156c0.32 0 0.5 -0.18 0.5 -0.5s-0.18 -0.5 -0.5 -0.5" stroke-width="1"/></svg>