<svg xmlns="http://www.w3.org/2000/svg" fill="none" viewBox="0 0 14 14"><desc>Map Search Streamline Icon: https://streamlinehq.com</desc><g stroke="currentColor" stroke-linecap="round" stroke-linejoin="round"><path d="M12.975 6.171a19 19 0 0 0-.295-4.053l-.02-.119c-.086-.478-.174-.979-.512-1.32-.105-.105-.225-.176-.358-.163-.487.045-1.008.18-1.38.282-.405.111-.865.332-1.32.55L9 1.392a.98.98 0 0 1-.67.063L4.813.545C4.201.4 3.26.637 2.682.797c-.361.1-.766.285-1.172.479-.146.07-.27.249-.364.431-.162.315-.229.668-.291 1.016l-.05.278a19.7 19.7 0 0 0 .03 7.07c.082.487.17 1.002.533 1.324.098.086.209.138.329.115.286-.054.577-.157.88-.265q.133-.047.268-.093.263-.091.524-.184c.413-.147.82-.291 1.205-.397a.9.9 0 0 1 .477.001l.35.096"/><path d="M4.746 10.538V.67q0-.063.008-.125l3.674.92q.156.038.315.023V5.5M13.5 13.5l-1.187-1.187M10.25 13c1.76 0 2.75-.99 2.75-2.75s-.99-2.75-2.75-2.75-2.75.99-2.75 2.75S8.49 13 10.25 13"/></g></svg>