<svg xmlns="http://www.w3.org/2000/svg" fill="none" viewBox="0 0 14 14"><path stroke="currentColor" stroke-linecap="round" stroke-linejoin="round" d="M0.627441 6.56124c0 -1.40949 0.154302 -3.09719 0.310105 -4.28622C1.04381 1.46403 1.68433 0.865922 2.49259 0.770237c3.04359 -0.360316 5.97121 -0.360316 9.01481 0 0.8082 0.095685 1.4488 0.693793 1.555 1.504783 0.1558 1.18903 0.3101 2.87673 0.3101 4.28622 0 3.73626 -2.1241 6.93876 -6.37251 6.93876 -4.24836 0 -6.372549 -3.2025 -6.372549 -6.93876Z" stroke-width="1"/><path stroke="currentColor" stroke-linecap="round" stroke-linejoin="round" d="M3.49988 5.10461c0.14877 -0.38277 0.4934 -0.59108 1.00004 -0.59108 0.50665 0 0.85127 0.20831 1.00005 0.59108" stroke-width="1"/><path stroke="currentColor" stroke-linecap="round" stroke-linejoin="round" d="M8.5 5.10461c0.14878 -0.38277 0.4934 -0.59108 1.00005 -0.59108s0.85125 0.20831 1.00005 0.59108" stroke-width="1"/><path stroke="currentColor" stroke-linecap="round" stroke-linejoin="round" d="M4.1875 8.08142c0.41841 1.07651 1.38762 1.66234 2.81247 1.66234 1.42486 0 2.39407 -0.58583 2.81248 -1.66234" stroke-width="1"/></svg>