<svg xmlns="http://www.w3.org/2000/svg" fill="none" viewBox="0 0 14 14"><path stroke="currentColor" stroke-linecap="round" stroke-linejoin="round" d="M3.01313 6.42256C3.00468 6.19947 3 5.97525 3 5.75c0 -0.93505 0.08071 -1.85222 0.17629 -2.74557C3.30576 1.79429 4.27907 0.820974 5.48863 0.686151 6.38705 0.586009 7.30951 0.5 8.25 0.5c0.94049 0 1.8629 0.086009 2.7614 0.186151 1.2095 0.134823 2.1828 1.108139 2.3123 2.318279 0.0956 0.89335 0.1763 1.81052 0.1763 2.74557 0 0.93505 -0.0807 1.85221 -0.1763 2.74556 -0.1295 1.21015 -1.1028 2.18344 -2.3123 2.31824C10.1129 10.914 9.19049 11 8.25 11c-0.20481 0 -0.40877 -0.0041 -0.61181 -0.0115" stroke-width="1"/><path stroke="currentColor" stroke-linecap="round" stroke-linejoin="round" d="M0.583947 12.3074c0.061653 0.5763 0.525133 1.0398 1.101113 1.104 0.42782 0.0476 0.86709 0.0886 1.31494 0.0886 0.44785 0 0.88712 -0.041 1.31494 -0.0886 0.57598 -0.0642 1.03946 -0.5277 1.10111 -1.104C5.46157 11.882 5.5 11.4453 5.5 11c0 -0.4453 -0.03843 -0.882 -0.08395 -1.30741 -0.06165 -0.57626 -0.52513 -1.03975 -1.10111 -1.10395C3.88712 8.54096 3.44785 8.5 3 8.5c-0.44785 0 -0.88712 0.04096 -1.31494 0.08864 -0.57598 0.0642 -1.03946 0.52769 -1.101113 1.10395C0.538433 10.118 0.5 10.5547 0.5 11c0 0.4453 0.038433 0.882 0.083947 1.3074Z" stroke-width="1"/><path stroke="currentColor" stroke-linecap="round" stroke-linejoin="round" d="M7.09375 6.82412 10.3764 3.5415" stroke-width="1"/><path stroke="currentColor" stroke-linecap="round" stroke-linejoin="round" d="M7.62695 3.54891c0.82697 -0.27566 1.92959 -0.27566 2.75655 -0.00002 0.2757 0.82698 0.2757 1.9296 0 2.75657" stroke-width="1"/></svg>