<svg xmlns="http://www.w3.org/2000/svg" fill="none" viewBox="0 0 14 14"><g stroke="currentColor" stroke-linecap="round" stroke-linejoin="round"><path d="M.833 5.064c.035-.449.08-.893.126-1.332A3.13 3.13 0 0 1 3.712.972c.98-.11 1.984-.205 3.006-.22m2.021 12.426c.522-.04 1.038-.093 1.548-.15a3.13 3.13 0 0 0 2.753-2.76c.104-.973.193-1.97.208-2.986M.606 12.001c.077.724.66 1.307 1.384 1.388.537.06 1.09.111 1.652.111.563 0 1.116-.051 1.653-.111A1.575 1.575 0 0 0 6.68 12c.058-.535.106-1.084.106-1.643 0-.56-.048-1.11-.106-1.644a1.575 1.575 0 0 0-1.384-1.387c-.537-.06-1.09-.112-1.653-.112s-1.115.052-1.652.112A1.575 1.575 0 0 0 .606 8.714 15 15 0 0 0 .5 10.358c0 .56.048 1.108.106 1.643M8.999 4.982 13.152.83M9.39.787c1.147-.383 2.676-.383 3.823 0 .382 1.147.382 2.676 0 3.823"/></g></svg>