<svg xmlns="http://www.w3.org/2000/svg" fill="none" viewBox="0 0 14 14"><desc>News Paper Streamline Icon: https://streamlinehq.com</desc><g stroke="currentColor" stroke-linecap="round" stroke-linejoin="round"><path d="M10.144 10.266c.098-1.08.186-2.208.186-3.266 0-1.476-.171-2.91-.303-4.28-.044-.455-.43-.822-.923-.884-1.183-.15-2.418-.337-3.689-.337s-2.506.188-3.689.337c-.493.062-.878.429-.922.885C.672 4.09.5 5.524.5 7c0 1.196.113 2.364.226 3.493.091.912.865 1.655 1.85 1.78.921.119 1.87.228 2.84.228 1.28 0 2.998-.045 4.258-.116q.957-.055 1.914-.129c.96-.073 1.716-.78 1.77-1.664.096-1.618.133-3.353.142-5.05.003-.524-.46-.949-1.03-.949h-2.261"/><path d="M3.442 6.46a.52.52 0 0 0 .468.444c.513.046 1.047.1 1.596.1s1.083-.054 1.595-.1a.52.52 0 0 0 .469-.444c.053-.369.11-.752.11-1.145s-.057-.776-.11-1.145a.52.52 0 0 0-.469-.445c-.512-.045-1.046-.1-1.595-.1-.55 0-1.083.055-1.596.1a.52.52 0 0 0-.468.445c-.053.369-.11.752-.11 1.145s.057.776.11 1.145M7.313 9.47H3.648"/></g></svg>