<svg xmlns="http://www.w3.org/2000/svg" fill="none" viewBox="0 0 14 14"><desc>Camera 1 Streamline Icon: https://streamlinehq.com</desc><g stroke="currentColor" stroke-linecap="round" stroke-linejoin="round"><path d="m3.847 3.353.62-1.208a.96.96 0 0 1 .722-.522 13.2 13.2 0 0 1 3.622 0 .96.96 0 0 1 .723.522l.619 1.208q.531.042 1.054.085l.15.013c.955.079 1.742.79 1.884 1.709.135.874.259 1.775.259 2.695s-.124 1.821-.259 2.695c-.142.919-.929 1.63-1.885 1.71l-.15.012c-1.358.112-2.765.23-4.206.23s-2.848-.118-4.207-.23l-.15-.013C1.688 12.18.902 11.47.76 10.55.624 9.676.5 8.776.5 7.855S.624 6.034.759 5.16c.142-.918.928-1.63 1.885-1.71l.15-.012q.521-.043 1.053-.085"/><path d="M7 9.902c1.44 0 2.25-.81 2.25-2.25S8.44 5.402 7 5.402s-2.25.81-2.25 2.25.81 2.25 2.25 2.25"/></g></svg>