<svg xmlns="http://www.w3.org/2000/svg" fill="none" viewBox="0 0 14 14"><desc>Gallery Streamline Icon: https://streamlinehq.com</desc><g stroke="currentColor" stroke-linecap="round" stroke-linejoin="round"><path d="M10.29 9.242c.72 0 1.125-.405 1.125-1.125s-.405-1.125-1.125-1.125-1.125.405-1.125 1.125.405 1.125 1.125 1.125"/><path d="M3.862 11.698a1.57 1.57 0 0 0 1.4 1.347c1.03.1 2.097.205 3.19.205 1.094 0 2.162-.106 3.19-.205a1.57 1.57 0 0 0 1.4-1.347c.107-.79.208-1.605.208-2.44 0-.833-.101-1.649-.207-2.438a1.57 1.57 0 0 0-1.4-1.347c-1.03-.1-2.097-.205-3.19-.205-1.094 0-2.162.106-3.19.205a1.57 1.57 0 0 0-1.4 1.347c-.107.79-.208 1.605-.208 2.439s.101 1.65.207 2.439"/><path d="M1.445 8.117a1.56 1.56 0 0 1-.488-.937C.852 6.39.75 5.575.75 4.74s.102-1.65.207-2.439A1.57 1.57 0 0 1 2.443.947C3.445.85 4.483.75 5.548.75s2.102.1 3.105.197l.085.008a1.57 1.57 0 0 1 1.4 1.347q.05.37.095.749M5.262 13.045a1.57 1.57 0 0 1-1.4-1.347 37 37 0 0 1-.116-.933c.744-.854 1.62-1.515 2.515-1.515 1.687 0 3.304 2.346 4.1 3.912-.625.051-1.262.088-1.909.088-1.063 0-2.102-.1-3.105-.197z"/></g></svg>