<svg xmlns="http://www.w3.org/2000/svg" fill="none" viewBox="0 0 14 14"><desc>Ticket Star Streamline Icon: https://streamlinehq.com</desc><g stroke="currentColor" stroke-linecap="round" stroke-linejoin="round"><path d="M13.5 3.95v1.196c-.738.315-1.255 1.041-1.255 1.886s.517 1.572 1.255 1.887v1.195c0 1.135-.825 1.894-2.08 2.054-3.452.442-5.382.445-8.84 0-1.22-.157-2.08-.92-2.08-2.054V8.919a2.05 2.05 0 0 0 1.255-1.887c0-.845-.516-1.57-1.255-1.886V3.95c0-1.135.868-1.852 2.08-2.054 3.417-.573 5.374-.487 8.84 0 1.146.16 2.08.92 2.08 2.054"/><path d="M6.63 4.36a.4.4 0 0 1 .74 0l.564 1.372 1.523.134a.4.4 0 0 1 .22.708l-.931.764a.4.4 0 0 0-.137.394l.305 1.411a.4.4 0 0 1-.615.418L7 8.69l-1.3.87a.4.4 0 0 1-.613-.418l.305-1.41a.4.4 0 0 0-.138-.395l-.93-.764a.4.4 0 0 1 .22-.708l1.523-.134z"/></g></svg>