<svg xmlns="http://www.w3.org/2000/svg" fill="none" viewBox="0 0 14 14"><g stroke="currentColor" stroke-linecap="round" stroke-linejoin="round"><path d="M4.512.75a9.2 9.2 0 0 0 2.294 2.445"/><path d="M.962 11.264c.132.954.92 1.7 1.886 1.79 2.801.261 5.503.261 8.304 0a2.1 2.1 0 0 0 1.886-1.79c.283-2.05.283-3.995 0-6.045a2.1 2.1 0 0 0-1.886-1.79 44 44 0 0 0-8.304 0 2.1 2.1 0 0 0-1.886 1.79 21.6 21.6 0 0 0 0 6.045"/><path d="M9.489.75a9.2 9.2 0 0 1-2.295 2.445M3.227 10.13a1.31 1.31 0 0 0 1.178 1.119c1.75.163 3.439.163 5.19 0a1.31 1.31 0 0 0 1.178-1.119 13.5 13.5 0 0 0 0-3.777 1.314 1.314 0 0 0-1.178-1.119 27.6 27.6 0 0 0-5.19 0 1.31 1.31 0 0 0-1.178 1.119 13.5 13.5 0 0 0 0 3.777"/></g></svg>