<svg xmlns="http://www.w3.org/2000/svg" fill="none" viewBox="0 0 14 14"><desc>Music Note 2 Streamline Icon: https://streamlinehq.com</desc><g stroke="currentColor" stroke-linecap="round" stroke-linejoin="round"><path d="M4.9 6.29v4.885M4.893 6.29V4.165c0-.988.615-1.853 1.5-2.092q.869-.237 1.764-.455c1.323-.322 2.625-.589 3.882-.846.672-.138 1.205.368 1.205 1.11V4.25l-.42.118c-1.237.35-2.518.71-3.841 1.033s-2.625.588-3.883.846zM13.25 10.08V4.258M2.825 13.25c1.328 0 2.074-.747 2.074-2.075s-.746-2.074-2.074-2.074S.75 9.847.75 11.175s.747 2.075 2.075 2.075M11.175 12.266c1.328 0 2.075-.747 2.075-2.075s-.747-2.075-2.075-2.075-2.074.747-2.074 2.075.746 2.075 2.074 2.075"/></g></svg>