<svg xmlns="http://www.w3.org/2000/svg" fill="none" viewBox="0 0 14 14"><path stroke="currentColor" stroke-linecap="round" stroke-linejoin="round" d="M6.68359 3.4502v1.68713" stroke-width="1"/><path stroke="currentColor" stroke-linecap="round" stroke-linejoin="round" d="M9.23486 3.4502v1.68713" stroke-width="1"/><path stroke="currentColor" stroke-linecap="round" stroke-linejoin="round" d="M3.57131 13.3578c2.51416 0.1896 4.48678 0.1896 7.00099 0 0.9629 -0.0726 1.7239 -0.843 1.7849 -1.8067 0.1932 -3.05641 0.1913 -6.01676 -0.0039 -9.07385 -0.0606 -0.94926 -0.8003 -1.71475 -1.7466 -1.811779C8.80386 0.480599 7.32189 0.417204 5.13859 0.65165c-0.17919 0.019242 -0.34968 0.087803 -0.49123 0.199366C3.59867 1.67758 2.66848 2.59653 1.81258 3.63043c-0.12417 0.15 -0.19928 0.33446 -0.21583 0.52849 -0.21327 2.49961 -0.04227 4.92239 0.16936 7.39388 0.08238 0.9621 0.84229 1.7324 1.8052 1.805Z" stroke-width="1"/></svg>