<svg xmlns="http://www.w3.org/2000/svg" fill="none" viewBox="0 0 14 14"><desc>Bag Dollar Streamline Icon: https://streamlinehq.com</desc><g stroke="currentColor" stroke-linecap="round" stroke-linejoin="round"><path d="m8.835 3.898.877-2.131c.11-.266.173-.592-.05-.757-.914-.68-4.459-.68-5.373 0-.223.165-.159.49-.05.757l.883 2.143c-2.339.648-3.623 2.606-3.623 5.63 0 3.753 1.98 3.96 5.5 3.96 3.522 0 5.502-.207 5.502-3.96 0-3.043-1.3-5.006-3.666-5.642"/><path d="M8.313 7.022s-.494-.55-1.294-.48c-.8.068-1.186.56-1.186 1.053 0 1.438 2.48.441 2.48 1.916 0 .76-1.645 1.298-2.626.403m1.43-4.34v.961m0 3.838v.96"/></g></svg>