<svg xmlns="http://www.w3.org/2000/svg" fill="none" viewBox="0 0 14 14"><g stroke="currentColor" stroke-linecap="round" stroke-linejoin="round"><path d="M.96 10.269a3.13 3.13 0 0 0 2.753 2.76c1.07.119 2.167.221 3.287.221s2.218-.102 3.287-.222a3.13 3.13 0 0 0 2.753-2.76c.114-1.063.21-2.155.21-3.268s-.096-2.205-.21-3.269a3.13 3.13 0 0 0-2.753-2.76C9.217.853 8.12.75 7 .75S4.782.852 3.713.972A3.13 3.13 0 0 0 .96 3.732C.846 4.794.75 5.886.75 7s.096 2.205.21 3.269"/><path d="M3.27 9.397a.95.95 0 0 0 .905.885c.526.017 1.054-.002 1.575-.057V8.892q-.001-.255-.02-.505a.95.95 0 0 0-.905-.886 10 10 0 0 0-.65 0 .95.95 0 0 0-.904.886q-.02.25-.021.505.001.257.02.506"/><path d="M5.749 10.189a7.9 7.9 0 0 0 2.5 0V8.066c0-.45-.023-.89-.048-1.318-.028-.47-.377-.87-.847-.895a7 7 0 0 0-.71 0c-.469.026-.818.425-.846.895a22 22 0 0 0-.049 1.318zM8.25 10.14q.827.204 1.66.127c.445-.041.755-.435.774-.883.031-.767.066-1.565.066-2.384 0-.82-.035-1.617-.066-2.385-.018-.447-.328-.843-.774-.884a4.4 4.4 0 0 0-.82 0c-.445.041-.755.437-.774.884C8.285 5.383 8.25 6.181 8.25 7z"/></g></svg>