<svg xmlns="http://www.w3.org/2000/svg" fill="none" viewBox="0 0 14 14"><desc>Tag Streamline Icon: https://streamlinehq.com</desc><g stroke="currentColor" stroke-linecap="round" stroke-linejoin="round"><path d="M7.101 13.024c-.719.65-1.873.629-2.736-.027-.622-.472-1.248-.97-1.82-1.542s-1.07-1.198-1.542-1.82C.347 8.772.327 7.618.976 6.9a69 69 0 0 1 5.86-5.765c.254-.221.566-.367.912-.415 1.256-.175 4.395-.513 5.22.312.826.826.488 3.965.313 5.22a1.74 1.74 0 0 1-.415.912 69 69 0 0 1-5.765 5.86"/><path d="M9.795 5.455c-.8 0-1.25-.45-1.25-1.25s.45-1.25 1.25-1.25 1.25.45 1.25 1.25-.45 1.25-1.25 1.25"/></g></svg>