<svg xmlns="http://www.w3.org/2000/svg" fill="none" viewBox="0 0 14 14"><g stroke="currentColor" stroke-linecap="round" stroke-linejoin="round"><path d="M6.613.825C4.477 1.69 2.375 2.891.881 4.431c-.294.302-.058.77.372.77h11.494c.43 0 .666-.468.373-.77C11.626 2.89 9.523 1.69 7.387.825c-.248-.1-.526-.1-.774 0M2.82 10.231c-1.214 0-1.8.907-2.004 2.017-.1.548.383 1.002.96 1.002h10.448c.577 0 1.06-.454.96-1.002-.203-1.11-.79-2.017-2.004-2.017zM2.82 10.231v-5.03M7 10.231v-5.03M11.18 10.231v-5.03"/></g></svg>