<svg xmlns="http://www.w3.org/2000/svg" fill="none" viewBox="0 0 14 14"><g stroke="currentColor" stroke-linecap="round" stroke-linejoin="round"><path d="M.96 10.269a3.13 3.13 0 0 0 2.753 2.76c1.07.119 2.167.221 3.287.221s2.218-.102 3.287-.222a3.13 3.13 0 0 0 2.753-2.76c.114-1.063.21-2.155.21-3.268s-.096-2.205-.21-3.269a3.13 3.13 0 0 0-2.753-2.76C9.217.853 8.12.75 7 .75S4.782.852 3.713.972A3.13 3.13 0 0 0 .96 3.732C.846 4.794.75 5.886.75 7s.096 2.205.21 3.269"/><path d="M13.25 7H7v6.25c1.12 0 2.218-.102 3.287-.222a3.13 3.13 0 0 0 2.753-2.76c.114-1.063.21-2.155.21-3.268M.75 7H7L6.997.75c-1.119 0-2.216.102-3.284.222A3.13 3.13 0 0 0 .96 3.732C.846 4.794.75 5.886.75 7M9.126 8.893H10.5M9.126 3.875H10.5M2.714 3.875h2.321M3.054 8.893l1.641 1.641M3.875 2.714v2.321M4.696 8.893l-1.641 1.641M9.126 10.803H10.5"/></g></svg>