<svg xmlns="http://www.w3.org/2000/svg" fill="none" viewBox="0 0 14 14"><g stroke="currentColor" stroke-linecap="round" stroke-linejoin="round"><path d="M12.316 3.601a3.52 3.52 0 0 0-.787-1.935c-.44-.52-1.017-.85-1.636-.935C8.951.606 7.986.5 7 .5S5.048.606 4.107.73c-.62.085-1.196.415-1.636.936a3.52 3.52 0 0 0-.787 1.935c-.1 1.106-.185 2.241-.185 3.399s.084 2.293.185 3.4c.07.731.347 1.413.787 1.935.44.521 1.017.85 1.636.935.942.123 1.907.23 2.893.23s1.952-.106 2.893-.23c.619-.085 1.195-.415 1.636-.936s.717-1.204.787-1.935c.1-1.105.185-2.24.185-3.399s-.084-2.293-.185-3.399"/><path d="M8.6 5.736c.896 0 1.4-.503 1.4-1.4 0-.895-.504-1.399-1.4-1.399s-1.399.504-1.399 1.4.504 1.4 1.4 1.4M10.19 13.21c-.902-2.299-2.831-6.104-5.181-6.104-1.29 0-2.453 1.146-3.389 2.56q.03.369.064.734c.07.731.347 1.413.787 1.935.44.521 1.017.85 1.636.935.941.123 1.907.23 2.893.23s1.952-.106 2.893-.23q.15-.022.296-.06"/></g></svg>