<svg xmlns="http://www.w3.org/2000/svg" fill="none" viewBox="0 0 14 14"><g stroke="currentColor" stroke-linecap="round" stroke-linejoin="round"><path d="M9.686 6.361c.895 0 1.399-.503 1.399-1.4 0-.895-.504-1.399-1.4-1.399s-1.399.504-1.399 1.4.504 1.4 1.4 1.4"/><path d="M3.601 1.559a3.52 3.52 0 0 0-1.935.787c-.52.44-.85 1.017-.935 1.636C.606 4.924.5 5.889.5 6.875s.106 1.952.23 2.893c.085.62.415 1.196.936 1.636s1.204.717 1.935.787c1.106.1 2.241.185 3.399.185s2.293-.084 3.4-.185a3.52 3.52 0 0 0 1.935-.787c.521-.44.85-1.017.935-1.636.123-.942.23-1.907.23-2.893s-.106-1.952-.23-2.893c-.085-.62-.415-1.196-.936-1.636a3.52 3.52 0 0 0-1.935-.787c-1.105-.1-2.24-.185-3.399-.185s-2.293.084-3.399.185"/><path d="M9.556 12.263c-.761-1.993-2.74-6.062-5.195-6.062C2.91 6.2 1.625 7.622.659 9.197q.034.287.073.571c.084.62.414 1.196.935 1.636s1.203.717 1.935.787c1.105.1 2.241.185 3.399.185.865 0 1.718-.047 2.555-.113"/></g></svg>