<svg xmlns="http://www.w3.org/2000/svg" fill="none" viewBox="0 0 14 14"><desc>Package Streamline Icon: https://streamlinehq.com</desc><g stroke="currentColor" stroke-linecap="round" stroke-linejoin="round"><path d="M10.205 8.156V6.703c0-.585-.127-1.344-.127-1.344-1.77-1.251-3.982-2.593-5.984-3.421M7 6.55v6.7"/><path d="M1.346 3.417C3.149 2.242 4.69 1.463 6.686.801a1 1 0 0 1 .627 0c1.994.662 3.537 1.44 5.34 2.617.257.167.422.441.45.745.19 2.024.2 3.662.003 5.678a1 1 0 0 1-.448.74c-1.805 1.176-3.35 1.955-5.345 2.618a1 1 0 0 1-.627 0c-1.996-.663-3.538-1.442-5.343-2.619a1 1 0 0 1-.449-.74C.697 7.826.707 6.188.896 4.164c.028-.304.194-.579.45-.746"/><path d="M12.936 3.695 7 6.55 1.063 3.695a1 1 0 0 1 .283-.278C3.149 2.242 4.69 1.463 6.686.801a1 1 0 0 1 .627 0c1.994.662 3.537 1.44 5.34 2.617a1 1 0 0 1 .283.277"/></g></svg>