<svg xmlns="http://www.w3.org/2000/svg" fill="none" viewBox="0 0 14 14"><path stroke="currentColor" stroke-linecap="round" stroke-linejoin="round" d="M1.61224 10.8516c0.17164 1.4329 1.3818 2.5488 2.82397 2.6023C5.25396 13.4842 6.09222 13.5 7 13.5s1.74604 -0.0158 2.56379 -0.0461c1.44221 -0.0535 2.65231 -1.1694 2.82401 -2.6023 0.0662 -0.5527 0.1132 -1.11497 0.1132 -1.68496 0 -0.57 -0.047 -1.13225 -0.1132 -1.68493 -0.1717 -1.43292 -1.3818 -2.54881 -2.82401 -2.60233C8.74604 4.84903 7.90778 4.83331 7 4.83331s-1.74604 0.01572 -2.56379 0.04607c-1.44217 0.05352 -2.65233 1.16941 -2.82397 2.60233 -0.0662 0.55268 -0.11322 1.11493 -0.11322 1.68493 0 0.56999 0.04702 1.13226 0.11322 1.68496Z" stroke-width="1"/><path stroke="currentColor" stroke-linecap="round" stroke-linejoin="round" d="M10.0339 4.83333v-1.3c0 -0.80449 -0.31954 -1.57603 -0.8884 -2.14489C8.57664 0.819582 7.8051 0.5 7.00061 0.5c-0.80448 0 -1.57602 0.319582 -2.14488 0.88844 -0.56886 0.56886 -0.88844 1.3404 -0.88844 2.14489v1.3" stroke-width="1"/><path stroke="currentColor" stroke-linecap="round" stroke-linejoin="round" d="m7 8.56006 0 1.03993" stroke-width="1"/></svg>