<svg xmlns="http://www.w3.org/2000/svg" fill="none" viewBox="0 0 14 14"><path stroke="currentColor" stroke-linecap="round" stroke-linejoin="round" d="M8.15454 0.597656V4.1535c0 0.55228 0.44743 0.98001 0.9996 0.99149 1.50456 0.03128 3.80056 0.40116 3.80056 3.1535" stroke-width="1"/><path stroke="currentColor" stroke-linecap="round" stroke-linejoin="round" d="M3.23077 0.616461c-0.1071 0.006988 -0.2144 0.01428 -0.32211 0.021874 -0.97022 0.068407 -1.74074 0.834955 -1.80368 1.798845 -0.00678 0.10392 -0.01334 0.20811 -0.01967 0.31257M3.23077 13.3835c-0.1071 -0.0069 -0.2144 -0.0142 -0.32211 -0.0218 -0.97022 -0.0684 -1.74074 -0.835 -1.80368 -1.7989 -0.00383 -0.0587 -0.00759 -0.1175 -0.01128 -0.1763M5.79385 0.509983C6.16489 0.503357 6.55079 0.5 6.95838 0.5c0.45381 0 0.88072 0.004161 1.29019 0.012364 0.04909 0.000983 0.09793 0.002025 0.14653 0.003124 0.40352 0.009126 0.79524 0.142013 1.11535 0.386151C10.6454 1.76726 11.3792 2.50078 12.2039 3.5653c0.4788 0.61813 0.7294 1.37932 0.7432 2.15908 0.0075 0.42207 0.0113 0.84739 0.0113 1.27562 0 0.41945 -0.0037 0.8361 -0.0108 1.24964M5.79385 13.49c0.37104 0.0066 0.75693 0.01 1.16453 0.01 0.45381 0 0.88072 -0.0042 1.29019 -0.0124m2.53123 -0.1103c0.0759 -0.005 0.152 -0.0103 0.2283 -0.0156 0.9702 -0.0684 1.7407 -0.835 1.8037 -1.7989 0.0038 -0.0587 0.0076 -0.1175 0.0112 -0.1763M0.967861 5.82819C0.961563 6.21616 0.958374 6.60685 0.958374 7c0 0.41945 0.00363 0.8361 0.010793 1.24964" stroke-width="1"/></svg>