<svg xmlns="http://www.w3.org/2000/svg" fill="none" viewBox="0 0 14 14"><g stroke="currentColor" stroke-linejoin="round"><path d="M10.592 12.25V1.719M3.408 12.25V1.719"/><path stroke-linecap="round" d="M3.582 1.656c-.736.07-1.422.35-1.946.792S.78 3.47.696 4.092a21.8 21.8 0 0 0 0 5.816c.084.623.416 1.202.94 1.644.524.443 1.21.722 1.946.792a37.6 37.6 0 0 0 6.838 0c.736-.07 1.422-.35 1.946-.792s.856-1.021.94-1.644a22 22 0 0 0 0-5.816c-.085-.622-.417-1.202-.941-1.644-.524-.443-1.21-.722-1.946-.792a37.5 37.5 0 0 0-6.837 0"/></g></svg>