<svg viewBox="0 0 17 17" version="1.1" xmlns="http://www.w3.org/2000/svg" xmlns:xlink="http://www.w3.org/1999/xlink"><g transform="translate(1 1)" stroke="currentColor" stroke-width="1" fill="none" fill-rule="evenodd" stroke-linecap="round" stroke-linejoin="round"><path d="M4.82143017,12.3830857 L1.97837875,12.3830857 C0.23180046,12.3830857 -0.749792683,10.5157371 0.703875888,9.54755429 C2.00779589,8.67910857 3.57371589,8.17299429 5.25785303,8.17299429 C6.34599017,8.17299429 7.38477875,8.38427429 8.3354416,8.76805714"/><path d="M5.2598416,5.94378286 C7.1618416,5.94378286 8.23172732,4.87389714 8.23172732,2.97188571 C8.23172732,1.06987429 7.1618416,0 5.2598416,0 C3.35783017,0 2.28794446,1.06987429 2.28794446,2.97188571 C2.28794446,4.87389714 3.35783017,5.94378286 5.2598416,5.94378286 Z"/><path d="M9.86285875,11.1572571 L11.9889159,7.47485714 C12.2694873,6.98885714 12.890973,6.82233143 13.3769159,7.10292571 L14.8570302,7.95745143"/><line x1="10.9992016" y1="9.18861714" x2="12.7963445" y2="10.2261943"/><path d="M10.5741387,13.8123429 C9.95193303,14.8900571 8.9957616,15.1462857 7.9180816,14.5241143 C6.8404016,13.9018286 6.58418446,12.9457143 7.20639017,11.868 C7.82858446,10.7903429 8.78476732,10.5341371 9.86244732,11.1563429 C10.9401159,11.7785143 11.1963445,12.7347429 10.5741387,13.8123429 Z"/></g></svg>