<svg xmlns="http://www.w3.org/2000/svg" fill="none" viewBox="0 0 14 14"><desc>Running Streamline Icon: https://streamlinehq.com</desc><g stroke="currentColor" stroke-linecap="round" stroke-linejoin="round"><path d="M1.497 10.57c1.287.392 2.611.52 3.765-.637M9.365 13.5c0-1.87-.753-2.975-2.154-4.046-1.242-.949.488-3.23 1.11-3.84"/><path d="M3.347 5.844c2.292-1.982 3.522-1.507 5.005-.222.782.679 1.19 1.784 1.892 2.04.55.201.872.018 1.569-.243M9.66 4.048c1.025.597 1.935.351 2.527-.682s.348-1.95-.678-2.546c-1.025-.597-1.935-.351-2.527.682s-.348 1.95.677 2.546"/></g></svg>