<svg xmlns="http://www.w3.org/2000/svg" fill="none" viewBox="0 0 14 14"><desc>Contact Phonebook 2 Streamline Icon: https://streamlinehq.com</desc><g stroke="currentColor" stroke-linejoin="round"><path stroke-linecap="round" d="M12.06 10.285c-.618.24-1.091.713-1.091 1.473s.473 1.233 1.092 1.474a1.75 1.75 0 0 1-.747.194 106 106 0 0 1-7.886 0c-.96-.035-1.495-.767-1.495-1.668s.535-1.633 1.495-1.668c2.64-.098 5.247-.098 7.886 0 .27.01.528.08.747.194"/><path stroke-linecap="round" d="M1.935 11.67c.034-.861.565-1.546 1.493-1.58 2.64-.098 5.247-.098 7.886 0 .269.01.524.078.742.192.215-2.546.143-5.038-.085-7.582A2.2 2.2 0 0 0 10.096.727a21.2 21.2 0 0 0-6.184 0A2.2 2.2 0 0 0 2.038 2.7c-.27 2.999-.283 5.964-.103 8.97"/><path d="M6.21 2.659c-.354-.3-.88-.254-1.15.122a8 8 0 0 1-.265.352c-.48.602-.48 1.473.003 2.072.357.442.73.889 1.15 1.307.418.419.864.793 1.307 1.15.599.483 1.47.483 2.071.002.168-.133.279-.212.37-.278a.76.76 0 0 0 .132-1.11c-.158-.19-.328-.373-.498-.553a.737.737 0 0 0-1.016-.046c-.08.07-.167.15-.285.26-.688-.41-1.105-.831-1.506-1.507.111-.119.191-.207.261-.287a.73.73 0 0 0-.048-1.012 15 15 0 0 0-.526-.472Z"/></g></svg>