<svg xmlns="http://www.w3.org/2000/svg" fill="none" viewBox="0 0 14 14"><desc>Phone Streamline Icon: https://streamlinehq.com</desc><path stroke="currentColor" stroke-linecap="round" stroke-linejoin="round" d="M9.445.933c.783-.658 1.95-.564 2.545.27.16.223.347.488.672.896a3.89 3.89 0 0 1-.006 4.829c-.83 1.031-1.7 2.072-2.673 3.047s-2.01 1.847-3.04 2.679a3.86 3.86 0 0 1-4.817.006c-.434-.347-.705-.537-.934-.701-.804-.575-.916-1.703-.289-2.468.496-.604 1.048-1.18 1.58-1.742.425-.448 1.133-.477 1.615-.092.129.104.29.24.616.547 1.6-.953 2.57-1.937 3.503-3.511a10 10 0 0 1-.55-.624c-.384-.482-.356-1.19.094-1.612.548-.513 1.105-1.038 1.684-1.524"/></svg>