<svg xmlns="http://www.w3.org/2000/svg" fill="none" viewBox="0 0 14 14"><path stroke="currentColor" stroke-linecap="round" stroke-linejoin="round" d="m0.5 13.5 0.86058 -10.25097C1.49105 1.69494 2.7905 0.500002 4.35006 0.500002L9.64993 0.5C11.2095 0.5 12.509 1.69494 12.6394 3.24903L13.5 13.5" stroke-width="1"/><path stroke="currentColor" stroke-linecap="round" stroke-linejoin="round" d="M4.49998 0.932129c-0.27536 2.789881 -0.27536 5.281651 0 8.071531" stroke-width="1"/><path stroke="currentColor" stroke-linecap="round" stroke-linejoin="round" d="M9.5 0.932129c0.27536 2.789881 0.27536 5.281651 0 8.071531" stroke-width="1"/><path stroke="currentColor" stroke-linecap="round" stroke-linejoin="round" d="M9.40108 9.11831c-1.44276 0.34815 -3.35944 0.34815 -4.80219 -0.00001 -0.57614 -0.13903 -1.22344 0.17655 -1.35202 0.75511 -0.14511 0.65299 0.17523 1.32589 0.82472 1.48569 1.69659 0.4176 4.16021 0.4176 5.85678 0 0.64943 -0.1598 0.96983 -0.8327 0.82473 -1.48564 -0.1286 -0.57857 -0.77587 -0.89418 -1.35202 -0.75515Z" stroke-width="1"/></svg>