<svg xmlns="http://www.w3.org/2000/svg" fill="none" viewBox="0 0 14 14"><desc>Shit Reaction Streamline Icon: https://streamlinehq.com</desc><g stroke="currentColor" stroke-linecap="round" stroke-linejoin="round"><path d="M9.528 9.577c2.093-.313 4.137-.546 3.964 1.414C13.307 13.084 10.375 13.5 7 13.5S.693 13.084.508 10.99C.31 8.756 2.996 9.372 5.35 9.707"/><path d="M10.555 9.444c1.21-.346 2.028-.578 2.117-1.731.173-2.24-2.182-2.03-4.24-1.695M3.444 9.444c-1.21-.346-2.028-.578-2.117-1.731-.138-1.79 1.338-2.038 2.987-1.875l.525.084M4.196 5.777c-1.458-.652-.427-2.832 1.663-2.867C7.56 2.882 7.924 2.166 7.924.5c2.513.089 3.747 4.34 1.78 5.278"/></g></svg>