<svg xmlns="http://www.w3.org/2000/svg" fill="none" viewBox="0 0 14 14"><desc>Projector Board Streamline Icon: https://streamlinehq.com</desc><g stroke="currentColor" stroke-linecap="round" stroke-linejoin="round"><path d="M7 10.298v2.952M5.557 10.298a14.3 14.3 0 0 0-2.884 2.952M8.442 10.298a14.3 14.3 0 0 1 2.885 2.952M13.162 3.712a93.5 93.5 0 0 0-12.328 0"/><path d="M6.998 10.298c-1.731 0-3.428-.068-5.02-.258a1.01 1.01 0 0 1-.866-.851C.948 8.204.748 7.26.748 5.524s.2-2.68.364-3.665c.074-.443.42-.798.865-.851C3.57.818 5.267.75 6.998.75c1.732 0 3.428.068 5.02.258.447.053.792.408.866.851.165.985.364 1.928.364 3.665s-.2 2.68-.364 3.665c-.074.443-.42.798-.865.851-1.593.19-3.29.258-5.02.258"/></g></svg>