<svg xmlns="http://www.w3.org/2000/svg" fill="none" viewBox="0 0 14 14" id="Desktop-Favorite-Star--Streamline-Flex">
  <desc>
    Desktop Favorite Star Streamline Icon: https://streamlinehq.com
  </desc>
  <g id="desktop-favorite-star--desktop-device-display-like-favorite-star">
    <path id="Vector 8" stroke="currentColor" stroke-linecap="round" stroke-linejoin="round" d="M10.7461 13.4339c-2.51245 -0.2758 -4.9723 -0.2758 -7.48475 0" stroke-width="1"></path>
    <path id="Subtract" stroke="currentColor" stroke-linecap="round" stroke-linejoin="round" d="M8.57148 10.5138c-1.04858 0.0354 -2.09244 0.0354 -3.14103 -0.0001l-0.49026 2.7765c1.37674 -0.0842 2.74462 -0.0843 4.12134 -0.0004l-0.49005 -2.776Z" stroke-width="1"></path>
    <path id="Star 10" stroke="currentColor" stroke-linejoin="round" d="M11.4844 2.22881c-0.116 -0.46888 -0.2812 -0.88609 -0.5098 -1.271704 -0.2912 -0.490953 -0.9798 -0.490992 -1.27136 -0.000293 -0.22917 0.385697 -0.39484 0.802997 -0.51084 1.271997 -0.46536 -0.01658 -0.90421 0.01708 -1.33373 0.10829 -0.56806 0.12063 -0.79902 0.78239 -0.4146 1.21767 0.29123 0.32976 0.63216 0.60899 1.03964 0.85516 -0.15485 0.42256 -0.25246 0.8383 -0.29866 1.26226 -0.06445 0.59153 0.50956 1.0268 1.05298 0.78438 0.38911 -0.17358 0.74975 -0.40279 1.09967 -0.69863 0.35 0.29598 0.7113 0.52526 1.1009 0.69887 0.5436 0.24215 1.1176 -0.19309 1.0531 -0.78462 -0.0462 -0.42396 -0.1438 -0.8397 -0.2987 -1.26226 0.4075 -0.24617 0.7485 -0.5254 1.0397 -0.85516 0.3844 -0.43528 0.1534 -1.09704 -0.4146 -1.21767 -0.4295 -0.09121 -0.8684 -0.12487 -1.3337 -0.10829Z" stroke-width="1"></path>
    <path id="Subtract_2" stroke="currentColor" stroke-linecap="round" stroke-linejoin="round" d="M7.34377 0.567437c-1.53841 -0.011416 -3.0746 0.05382 -4.63854 0.195709C1.74184 0.85055 0.951714 1.61399 0.812985 2.5955c-0.28385 2.00825 -0.28385 3.90725 0 5.91551 0.138729 0.98151 0.928855 1.74499 1.892245 1.83239 2.89495 0.2626 5.69478 0.2626 8.58977 0 0.9634 -0.0874 1.7535 -0.85088 1.8922 -1.8324 0.0116 -0.08222 0.0228 -0.16427 0.0334 -0.24615" stroke-width="1"></path>
  </g>
</svg>