<svg xmlns="http://www.w3.org/2000/svg" fill="none" viewBox="0 0 14 14"><desc>Shipping Box 2 Streamline Icon: https://streamlinehq.com</desc><g stroke="currentColor" stroke-linecap="round" stroke-linejoin="round"><path d="M1.254 5.28c.26-.898.67-1.73 1.07-2.539.196-.4.39-.793.563-1.187.155-.354.486-.61.875-.644A33 33 0 0 1 7 .75c1.267 0 2.15.064 3.209.158.404.035.743.31.895.68.191.47.416.921.646 1.383.356.715.723 1.453.994 2.308M7 4.512V.75"/><path d="M1.107 12.091c.074.472.467.835.949.872 1.581.12 3.238.287 4.944.287s3.363-.166 4.944-.287c.482-.037.875-.4.95-.872.162-1.03.356-2.105.356-3.21s-.194-2.18-.357-3.21a1.04 1.04 0 0 0-.949-.872C10.363 4.68 8.706 4.512 7 4.512s-3.363.167-4.944.287c-.482.037-.875.4-.95.872C.945 6.701.75 7.776.75 8.881s.194 2.18.357 3.21M8.693 10.575h2.02"/></g></svg>