<svg xmlns="http://www.w3.org/2000/svg" fill="none" viewBox="0 0 14 14"><g stroke="currentColor" stroke-linecap="round"><path d="M8.266 1.016a48 48 0 0 1 2.08.192 3.36 3.36 0 0 1 2.957 2.966c.106.99.197 2.02.197 3.076s-.091 2.087-.197 3.076a3.36 3.36 0 0 1-2.958 2.966c-.994.11-2.032.208-3.095.208s-2.1-.097-3.095-.208a3.36 3.36 0 0 1-2.958-2.966C1.091 9.336 1 8.306 1 7.25c0-.41.016-.95.04-1.352"/><path stroke-linejoin="round" d="M2.312 4.123C1.456 3.56 1.053 3.175.5 2.312c.553-.864.956-1.249 1.812-1.812M4.71 4.123c.856-.563 1.26-.948 1.812-1.811C5.97 1.448 5.566 1.063 4.711.5"/></g></svg>