<svg xmlns="http://www.w3.org/2000/svg" fill="none" viewBox="0 0 14 14"><path stroke="currentColor" stroke-linecap="round" stroke-linejoin="round" d="M1.729 4.247q.274.273.558.434c-.486.54-.963 1.085-1.3 1.474a.98.98 0 0 0-.079 1.173l.078.12c.342.533.672 1.047 1.056 1.564a3 3 0 0 1 .349-.42c.886-.887 1.882-.887 2.768 0 .886.885.886 1.882 0 2.768q-.21.21-.428.354c.507.38 1.01.706 1.529 1.043l.126.082a.98.98 0 0 0 1.174-.072c.396-.34.954-.823 1.504-1.313q.16.288.44.568c.885.885 1.882.885 2.767 0 .886-.886.886-1.883 0-2.769a2.6 2.6 0 0 0-.568-.439c.49-.55.973-1.107 1.314-1.504a.98.98 0 0 0 .072-1.174l-.082-.126c-.337-.52-.663-1.022-1.043-1.529a2.8 2.8 0 0 1-.354.428c-.886.886-1.883.886-2.768 0-.886-.886-.886-1.882 0-2.768a3 3 0 0 1 .42-.349c-.517-.384-1.03-.714-1.563-1.056L7.578.658a.98.98 0 0 0-1.173.078c-.39.338-.935.815-1.474 1.301a2.6 2.6 0 0 0-.434-.558c-.886-.886-1.882-.886-2.768 0s-.886 1.882 0 2.768"/></svg>