<svg xmlns="http://www.w3.org/2000/svg" fill="none" viewBox="0 0 14 14"><path stroke="currentColor" stroke-linecap="round" stroke-linejoin="round" d="M3.58203 6.60881c0.5995 -0.03953 0.93696 -0.03758 1.53639 0" stroke-width="1"/><path stroke="currentColor" stroke-linecap="round" stroke-linejoin="round" d="M3.58203 11.3748c0.61441 0.0621 0.95145 0.0587 1.53639 0" stroke-width="1"/><path stroke="currentColor" stroke-linecap="round" stroke-linejoin="round" d="M4.35099 6.60919c-0.11451 1.87707 -0.12599 2.92533 0 4.76571" stroke-width="1"/><path stroke="currentColor" stroke-linecap="round" stroke-linejoin="round" d="M5.15649 4.53713c-0.52426 0.02109 -1.04933 0.05117 -1.57591 0.09022 -1.17716 0.09198 -2.673582 0.71603 -2.886584 1.99301C0.436923 8.23392 0.4334 9.76618 0.695042 11.3795c0.213002 1.277 1.709428 1.9011 2.886578 1.9931 2.28807 0.17 4.5477 0.1698 6.83578 0 1.1771 -0.092 2.6736 -0.7161 2.8866 -1.9931 0.2393 -1.47731 0.2596 -2.88895 0.0602 -4.35528l-0.0602 -0.40386" stroke-width="1"/><path stroke="currentColor" stroke-linecap="round" stroke-linejoin="round" d="M9.25397 2.51253C9.95248 1.81402 10.0838 0.5 10.3751 0.5c0.2912 0 0.4226 1.31402 1.1211 2.01253S13.5 3.28502 13.5 3.625s-1.3053 0.41396 -2.0038 1.11247S10.6663 6.75 10.3751 6.75c-0.2913 0 -0.42262 -1.31402 -1.12113 -2.01253S7.25012 3.96498 7.25012 3.625s1.30534 -0.41396 2.00385 -1.11247" stroke-width="1"/></svg>