<svg xmlns="http://www.w3.org/2000/svg" fill="none" viewBox="0 0 14 14"><path stroke="currentColor" stroke-linecap="round" stroke-linejoin="round" d="M13.4999 2.08c-0.1319 -0.80191 -0.774 -1.440871 -1.58 -1.58M8.08282 2.08c0.13187 -0.80191 0.774 -1.440871 1.57999 -1.58m3.83709 3.7909c-0.1319 0.80191 -0.774 1.44087 -1.58 1.58m-3.83708 -1.58c0.13187 0.80191 0.774 1.44087 1.57999 1.58" stroke-width="1"/><path stroke="currentColor" stroke-linecap="round" stroke-linejoin="round" d="M2.29441 8.04272c-0.9627 0.07811 -1.736544 0.86508 -1.775752 1.83014 -0.024227 0.59634 -0.024227 1.15794 0 1.75424 0.039208 0.9651 0.813052 1.7521 1.775742 1.8302 0.3142 0.0255 0.63317 0.0427 0.95609 0.0427 0.32291 0 0.64189 -0.0172 0.95608 -0.0427 0.9627 -0.0781 1.73654 -0.8651 1.77575 -1.8302 0.02422 -0.5963 0.02422 -1.1579 0 -1.75424 -0.03921 -0.96506 -0.81305 -1.75203 -1.77575 -1.83014C3.89238 8.01723 3.57341 8 3.25049 8c-0.32292 0 -0.64189 0.01723 -0.95608 0.04272Z" stroke-width="1"/><path stroke="currentColor" stroke-linecap="round" stroke-linejoin="round" d="M5.7326 1.23145c-1.61623 0 -2.92645 1.31021 -2.92645 2.92644 0 0.28072 0.03953 0.5522 0.11331 0.80919l0.26742 0.77609" stroke-width="1"/><path stroke="currentColor" stroke-linecap="round" stroke-linejoin="round" d="M1.31201 4.5051c0.29898 0.59796 0.89694 1.19592 1.49488 1.4949 0.59799 -0.29898 1.19595 -0.89694 1.49493 -1.4949" stroke-width="1"/></svg>