<svg xmlns="http://www.w3.org/2000/svg" fill="none" viewBox="-0.25 -0.25 14 14" id="Ai-Folder-Spark--Streamline-Flex">
  <desc>
    Ai Folder Spark Streamline Icon: https://streamlinehq.com
  </desc>
  <g id="ai-folder-spark--file-directory-artificial-intelligence-ai">
    <path id="Subtract" stroke="currentColor" stroke-linecap="round" stroke-linejoin="round" d="M12.460403571428573 7.342399285714286c0.02883214285714286 -0.9816332142857143 0.011571428571428571 -2.022647142857143 -0.056603571428571434 -3.1748817857142857 -0.054 -0.9136896428571428 -0.7704642857142858 -1.6489671428571429 -1.6826785714285715 -1.72449 -1.2964435714285714 -0.107325 -2.197539642857143 -0.11347714285714286 -3.790954285714286 -0.14718857142857142 -0.3948557142857143 -0.008360357142857143 -0.7447371428571429 -0.25779214285714286 -0.8818971428571429 -0.628155l-0.1933007142857143 -0.5219775c-0.13335107142857142 -0.36006042857142856 -0.46758214285714284 -0.6075887142857143 -0.8511557142857143 -0.6250451785714285C3.6184435714285716 0.4576133571428571 2.7826007142857145 0.47450764285714286 1.67103 0.5527652142857143 1.2066107142857143 0.5854622142857142 0.83734425 0.9515041071428572 0.7842024642857144 1.4140285714285714 0.45887657142857147 4.245547500000001 0.3509469642857143 7.086911785714285 0.6898384285714286 9.924910714285716c0.11499878571428572 0.9630321428571429 0.9035665714285714 1.663007142857143 1.8469465714285713 1.7657035714285714 1.1757632142857142 0.12805714285714287 2.3440725000000002 0.19816071428571427 3.511485 0.21146785714285715h0.3043767857142857" stroke-width="0.5"></path>
    <path id="Vector 2141" stroke="currentColor" stroke-linecap="round" stroke-linejoin="round" d="M8.923471071428573 8.931725357142858C9.597034285714285 8.258162142857142 9.723664285714285 6.991071428571429 10.004560714285715 6.991071428571429c0.2808 0 0.40750714285714285 1.2670907142857142 1.0810607142857143 1.9406539285714286S13.017857142857142 9.676607142857144 13.017857142857142 10.004464285714286s-1.2586821428571429 0.3992142857142857 -1.9322357142857143 1.0727678571428572S10.285360714285714 13.017857142857142 10.004560714285715 13.017857142857142c-0.2808964285714286 0 -0.40752642857142857 -1.2670714285714286 -1.0810896428571428 -1.9406250000000003s-1.9322839285714286 -0.7449107142857143 -1.9322839285714286 -1.0727678571428572 1.2587207142857142 -0.3991757142857143 1.9322839285714286 -1.0727389285714286" stroke-width="0.5"></path>
  </g>
</svg>