<svg xmlns="http://www.w3.org/2000/svg" fill="none" viewBox="0 0 14 14" id="Ai-Folder-Spark--Streamline-Flex"><desc>Ai Folder Spark Streamline Icon: https://streamlinehq.com</desc><g id="ai-folder-spark--file-directory-artificial-intelligence-ai"><path id="Subtract" stroke="currentColor" stroke-linecap="round" stroke-linejoin="round" d="M12.9219 7.61434c0.0299 -1.01799 0.012 -2.09756 -0.0587 -3.29247 -0.056 -0.94753 -0.799 -1.71004 -1.745 -1.78836 -1.34446 -0.1113 -2.27893 -0.11768 -3.93136 -0.15264 -0.40948 -0.00867 -0.77232 -0.26734 -0.91456 -0.65142l-0.20046 -0.54131c-0.13829 -0.373396 -0.4849 -0.630092 -0.88268 -0.648195C3.75246 0.474562 2.88566 0.492082 1.73292 0.573238 1.2513 0.607146 0.868357 0.986745 0.813247 1.4664 0.475872 4.40279 0.363945 7.34939 0.715388 10.2925c0.119258 0.9987 0.937032 1.7246 1.915352 1.8311 1.21931 0.1328 2.43089 0.2055 3.64154 0.2193h0.31565" stroke-width="1"/><path id="Vector 2141" stroke="currentColor" stroke-linecap="round" stroke-linejoin="round" d="M9.25397 9.26253C9.95248 8.56402 10.0838 7.25 10.3751 7.25c0.2912 0 0.4226 1.31402 1.1211 2.01253S13.5 10.035 13.5 10.375s-1.3053 0.414 -2.0038 1.1125S10.6663 13.5 10.3751 13.5c-0.2913 0 -0.42262 -1.314 -1.12113 -2.0125s-2.00385 -0.7725 -2.00385 -1.1125 1.30534 -0.41396 2.00385 -1.11247" stroke-width="1"/></g></svg>