<svg xmlns="http://www.w3.org/2000/svg" fill="none" viewBox="0 0 14 14"><g stroke="currentColor" stroke-linecap="round" stroke-linejoin="round"><path d="M12.029 7.756q0 .08.05.145l.697.874a.995.995 0 0 1 .085 1.123l-.409.704a1 1 0 0 1-1.02.49l-1.111-.169a.24.24 0 0 0-.153.029l-1.316.756a.24.24 0 0 0-.101.117l-.41 1.04a1 1 0 0 1-.934.635H6.59a1.01 1.01 0 0 1-.934-.635l-.41-1.04a.24.24 0 0 0-.1-.117l-1.317-.756a.24.24 0 0 0-.152-.029l-1.112.168a1.01 1.01 0 0 1-1.02-.49l-.41-.703a.995.995 0 0 1 .086-1.123L1.92 7.9a.23.23 0 0 0 .05-.145V6.244a.23.23 0 0 0-.05-.145l-.701-.874a1 1 0 0 1-.085-1.123l.409-.704a1 1 0 0 1 1.02-.49l1.109.169a.24.24 0 0 0 .152-.029l1.32-.76a.24.24 0 0 0 .1-.117l.412-1.036A1 1 0 0 1 6.591.5h.82a1.01 1.01 0 0 1 .934.635l.41 1.036c.019.05.054.093.1.121l1.317.756c.046.026.1.036.152.029l1.112-.168a1.01 1.01 0 0 1 1.02.49l.41.703a.995.995 0 0 1-.086 1.124l-.701.873a.23.23 0 0 0-.05.145z"/><path d="M7 9.076c1.329 0 2.076-.748 2.076-2.076S8.329 4.924 7 4.924 4.924 5.67 4.924 7c0 1.328.747 2.076 2.076 2.076"/></g></svg>