<svg xmlns="http://www.w3.org/2000/svg" fill="none" viewBox="0 0 14 14"><g stroke="currentColor" stroke-linecap="round" stroke-linejoin="round"><path d="M10.269 13.04a3.13 3.13 0 0 0 2.76-2.753c.119-1.07.221-2.167.221-3.287s-.102-2.218-.222-3.287A3.13 3.13 0 0 0 10.268.96C9.205.846 8.114.75 7 .75S4.795.846 3.731.96a3.13 3.13 0 0 0-2.76 2.753C.853 4.783.75 5.88.75 7s.102 2.218.222 3.287a3.13 3.13 0 0 0 2.76 2.753c1.063.114 2.155.21 3.268.21s2.205-.096 3.269-.21M4.5 10V7M9.5 4v3"/><path d="M8 8.5c0 .96.54 1.5 1.5 1.5S11 9.46 11 8.5 10.46 7 9.5 7 8 7.54 8 8.5M3 5.5C3 6.46 3.54 7 4.5 7S6 6.46 6 5.5 5.46 4 4.5 4 3 4.54 3 5.5"/></g></svg>