<svg xmlns="http://www.w3.org/2000/svg" fill="none" viewBox="0 0 14 14"><desc>Share Link Streamline Icon: https://streamlinehq.com</desc><g stroke="currentColor" stroke-linecap="round" stroke-linejoin="round"><path d="M8.984 3.373c-2.604.62-2.785.64-5.002 1.693M8.984 10.638c-2.604-.62-2.785-.64-5.002-1.693"/><path d="M11.1 5.055c1.376 0 2.15-.775 2.15-2.153S12.476.75 11.1.75c-1.377 0-2.15.775-2.15 2.152s.773 2.153 2.15 2.153M2.9 9.158c1.377 0 2.15-.775 2.15-2.152S4.278 4.853 2.9 4.853.75 5.628.75 7.006s.774 2.152 2.15 2.152M11.1 8.945c1.376 0 2.15.775 2.15 2.153 0 1.377-.774 2.152-2.15 2.152-1.377 0-2.15-.775-2.15-2.152s.773-2.153 2.15-2.153"/></g></svg>