<svg xmlns="http://www.w3.org/2000/svg" fill="none" viewBox="0 0 14 14"><g stroke="currentColor" stroke-linecap="round" stroke-linejoin="round"><path d="M13.496 3.839a12.7 12.7 0 0 1-.773 3.387c-.246.638-.763 1.088-1.394 1.22-.645.136-1.624.273-2.95.273-.934 0-1.725-.068-2.357-.155C4.909 8.41 4.124 7.43 3.945 6.239l-.523-3.483h9.114a.98.98 0 0 1 .96 1.083"/><path d="M11.75 11.262H6.24a2 2 0 0 1-1.98-1.724L3.24 2.224A2 2 0 0 0 1.26.5H.5M5.041 13.5a1.12 1.12 0 1 0 0-2.238 1.12 1.12 0 0 0 0 2.238"/><path d="M11.688 13.5a1.12 1.12 0 1 0 0-2.238 1.12 1.12 0 0 0 0 2.238"/></g></svg>