<svg xmlns="http://www.w3.org/2000/svg" fill="none" viewBox="0 0 14 14"><g stroke="currentColor" stroke-linecap="round" stroke-linejoin="round"><path d="M1.5 8.75v2.5a2 2 0 0 0 2 2h7a2 2 0 0 0 2-2v-2.5M3.154 6.66c.786 0 1.484-.362 1.923-.922.438.56 1.137.923 1.923.923s1.484-.363 1.923-.923c.439.56 1.137.923 1.923.923 1.328 0 2.404-1.034 2.404-2.308 0-.616-.48-2.53-2.404-3.27-2.984-.442-4.668-.446-7.692 0C1.23 1.824.75 3.738.75 4.354c0 1.274 1.076 2.308 2.404 2.308"/><path d="M5 9.688v3.562h4V9.688a1 1 0 0 0-1-1H6a1 1 0 0 0-1 1"/></g></svg>