<svg xmlns="http://www.w3.org/2000/svg" fill="none" viewBox="0 0 14 14"><desc>Shirt Streamline Icon: https://streamlinehq.com</desc><path stroke="currentColor" stroke-linecap="round" stroke-linejoin="round" d="M5.003.5h-1.56c-.388 0-1.23 1.052-1.483 1.305-.37.37-.712.754-1.04 1.128-.33.377-.376.948-.08 1.354.11.151.227.299.362.434a3.6 3.6 0 0 0 .434.363c.406.295.977.25 1.354-.08a.194.194 0 0 1 .322.147c-.026 2.306-.029 5.007.054 6.95a.98.98 0 0 0 .65.894c2.066.714 4.012.635 6.053-.011.4-.127.67-.494.688-.914.082-1.94.079-4.625.053-6.919a.194.194 0 0 1 .322-.147c.376.33.948.375 1.353.08.152-.11.3-.228.434-.363.135-.135.254-.283.364-.434.295-.406.25-.977-.08-1.354-.33-.374-.67-.758-1.04-1.128C11.912 1.555 11.071.5 10.677.5h-1.79a1.986 1.986 0 0 1-3.885 0"/></svg>