<svg xmlns="http://www.w3.org/2000/svg" fill="none" viewBox="0 0 14 14"><desc>Sidebar Collapses Streamline Icon: https://streamlinehq.com</desc><g stroke="currentColor" stroke-linecap="round" stroke-linejoin="round"><path d="M10.269 13.04a3.13 3.13 0 0 0 2.76-2.753c.119-1.07.221-2.167.221-3.287s-.102-2.218-.222-3.287A3.13 3.13 0 0 0 10.268.96C9.205.846 8.114.75 7 .75S4.795.846 3.731.96a3.13 3.13 0 0 0-2.76 2.753C.853 4.783.75 5.88.75 7s.102 2.218.222 3.287a3.13 3.13 0 0 0 2.76 2.753c1.063.114 2.155.21 3.268.21s2.205-.096 3.269-.21"/><path d="M10.269 13.04a3.13 3.13 0 0 0 2.76-2.753c.119-1.07.221-2.167.221-3.287s-.102-2.218-.222-3.287A3.13 3.13 0 0 0 10.268.96C9.205.846 8.114.75 7 .75S4.795.846 3.731.96a3.13 3.13 0 0 0-2.76 2.753C.853 4.783.75 5.88.75 7s.102 2.218.222 3.287a3.13 3.13 0 0 0 2.76 2.753c1.063.114 2.155.21 3.268.21s2.205-.096 3.269-.21M9.063 13.068V1.125"/><path d="M6.854 6.483c-.601-.908-1.457-1.517-2.372-1.916-.387-.168-.784.181-.837.73a17.6 17.6 0 0 0 0 3.407c.053.548.45.897.837.729.915-.399 1.771-1.008 2.372-1.916a.99.99 0 0 0 0-1.034"/></g></svg>