<svg xmlns="http://www.w3.org/2000/svg" fill="none" viewBox="0 0 14 14"><path stroke="currentColor" stroke-linecap="round" stroke-linejoin="round" d="M13.4213 1.46922c0.1192 2.99162 0.1032 5.91395 -0.0482 8.92428 -0.0177 0.351 -0.2092 0.6672 -0.505 0.838l-3.70288 2.1379c-0.63714 0.3679 -1.4247 -0.0824 -1.45484 -0.8386 -0.11922 -2.99164 -0.10314 -5.91397 0.04824 -8.92428 0.01765 -0.351 0.20914 -0.66721 0.50503 -0.83805L11.9665 0.63059c0.6371 -0.367859 1.4247 0.082407 1.4548 0.83863Z" stroke-width="1"/><path stroke="currentColor" stroke-linecap="round" stroke-linejoin="round" d="M12.363 0.498047H5.63873c-0.52523 0 -0.9616 0.406231 -0.99232 0.930573 -0.06864 1.17121 -0.11329 2.35355 -0.13396 3.53926M7.6316 12.5049H5.63873c-0.52523 0 -0.96159 -0.4062 -0.99232 -0.9305 -0.05116 -0.873 -0.089 -1.7522 -0.11351 -2.63434" stroke-width="1"/><path stroke="currentColor" stroke-linecap="round" stroke-linejoin="round" d="m5.13867 7.00098 -4.469846 0" stroke-width="1"/><path stroke="currentColor" stroke-linecap="round" stroke-linejoin="round" d="M2.27034 5.22949C1.56221 5.58356 0.854069 6.2917 0.5 6.99981c0.354069 0.70816 1.06221 1.4163 1.77034 1.77037" stroke-width="1"/></svg>