<svg viewBox="0 0 19 19" version="1.1" xmlns="http://www.w3.org/2000/svg" xmlns:xlink="http://www.w3.org/1999/xlink"><g transform="translate(1 1)" stroke="currentColor" stroke-width="1" fill="none" fill-rule="evenodd" stroke-linecap="round" stroke-linejoin="round"><path d="M16.755077,1.25932208 C16.9096439,5.13856205 16.8888966,8.92795353 16.692576,12.8314548 C16.6696243,13.2865972 16.4213059,13.6966144 16.0377414,13.9180912 L11.2362091,16.6903106 C10.4100283,17.1673673 9.38879757,16.5834624 9.34971497,15.6028962 C9.19512214,11.7236303 9.21597311,7.93423884 9.41226788,4.0307635 C9.43515467,3.57562106 9.68346016,3.16559089 10.0671413,2.9440623 L14.8686348,0.171868788 C15.6947637,-0.305134754 16.7160463,0.278726119 16.755077,1.25932208 L16.755077,1.25932208 Z"/><path d="M15.3826475,0 L6.66323347,0 C5.98215365,0 5.41632472,0.526760595 5.37647706,1.20667597 C5.32267689,2.12471513 5.2802488,3.04804484 5.24917982,3.9744218 M9.24739221,15.5693116 L6.66323347,15.5693116 C5.98215365,15.5693116 5.41632472,15.0425912 5.37647706,14.3627303 C5.35163225,13.9385791 5.3291993,13.5133904 5.30920416,13.0872941"/><line x1="0" y1="8.43236695" x2="5.79606393" y2="8.43236695"/><path d="M3.71936957,6.13527213 C4.6376162,6.59439544 5.55584987,7.51264208 6.01497318,8.43084981 C5.55584987,9.34912238 4.6376162,10.267369 3.71936957,10.7264923"/></g></svg>