<svg viewBox="0 0 17 17" version="1.1" xmlns="http://www.w3.org/2000/svg" xmlns:xlink="http://www.w3.org/1999/xlink"><g transform="translate(1 1)" stroke="currentColor" stroke-width="1" fill="none" fill-rule="evenodd" stroke-linecap="round" stroke-linejoin="round"><path d="M11.3236436,14.8571429 C8.51955214,14.5509714 5.77414643,14.5509714 2.97003214,14.8571429"/><path d="M8.89655786,11.6153143 C7.72624929,11.6546286 6.56122071,11.6546286 5.39091214,11.6152 L4.84374643,14.6976 C6.380295,14.6041143 7.90694643,14.604 9.44344929,14.6971429 L8.89655786,11.6153143 Z"/><path d="M6.39452357,0.576731429 C5.05444357,0.596022857 3.711415,0.66712 2.34951786,0.790034286 C1.27428357,0.887074286 0.392434429,1.73464 0.237601286,2.82432 C-0.079201,5.05387429 -0.0791998571,7.16216 0.237601286,9.39171429 C0.392434429,10.4813943 1.27428357,11.3289143 2.34951786,11.4260571 C5.580535,11.7176 8.70539214,11.7176 11.9364436,11.4260571 C13.0116436,11.3289143 13.8934721,10.4813943 14.0483293,9.39171429 C14.1045579,8.99611429 14.1507293,8.60434286 14.1870721,8.21502857"/><path d="M14.350615,3.80742857 C14.350615,3.83500571 14.3598721,3.86180571 14.377015,3.88344 L14.7409007,4.34194286 C14.8068436,4.42435429 14.8462721,4.52470857 14.8541579,4.62988571 C14.8620436,4.73507429 14.8380436,4.84019429 14.7852436,4.93152 L14.5718721,5.30086857 C14.5191864,5.39227429 14.440215,5.46568 14.3452436,5.51148571 C14.2502721,5.55730286 14.1436436,5.57338286 14.0393007,5.55764571 L13.459415,5.46945143 C13.4321007,5.46561143 13.4041007,5.47091429 13.3801007,5.48456 L12.693015,5.88118857 C12.6691293,5.89524571 12.650615,5.91684571 12.6404436,5.94258286 L12.4265007,6.48830857 C12.388215,6.5864 12.3212436,6.67067429 12.2342721,6.73012571 C12.147415,6.78958857 12.0445579,6.82146286 11.9391864,6.82158857 L11.5124436,6.82158857 C11.4070721,6.82146286 11.304215,6.78958857 11.2173579,6.73012571 C11.1303864,6.67067429 11.063415,6.5864 11.0251293,6.48830857 L10.8112321,5.94258286 C10.8009921,5.91684571 10.7824779,5.89524571 10.7586036,5.88118857 L10.071575,5.48456 C10.047495,5.47088 10.0195636,5.46557714 9.99214643,5.46945143 L9.41231786,5.55764571 C9.30800929,5.57338286 9.20139214,5.55730286 9.106375,5.51148571 C9.01136929,5.46568 8.932375,5.39227429 8.87974643,5.30086857 L8.66632929,4.93152 C8.61355214,4.84019429 8.58955214,4.73507429 8.59746071,4.62988571 C8.60536929,4.52470857 8.64482071,4.42435429 8.71066071,4.34194286 L9.07659214,3.88344 C9.09372357,3.86180571 9.10299214,3.83500571 9.10290071,3.80742857 L9.10290071,3.01417143 C9.10299214,2.98658286 9.09372357,2.95978286 9.07659214,2.93816 L8.71066071,2.47964571 C8.64482071,2.39724571 8.60536929,2.29689143 8.59746071,2.19170286 C8.58955214,2.08652571 8.61355214,1.98139429 8.66632929,1.89006857 L8.87974643,1.52073143 C8.932375,1.42931429 9.01136929,1.35592 9.106375,1.31010286 C9.20139214,1.26429714 9.30800929,1.24820571 9.41231786,1.26394286 L9.99068357,1.35213714 C10.0181007,1.35602286 10.0460321,1.35070857 10.0701121,1.33702857 L10.7586036,0.938457143 C10.7824779,0.9244 10.8009921,0.9028 10.8112321,0.877062857 L11.0261579,0.333283429 C11.0644436,0.235187429 11.131415,0.150915429 11.2182721,0.0914617143 C11.3052436,0.032008 11.4081007,0.000134857143 11.5133579,8.8817842e-16 L11.9411293,8.8817842e-16 C12.0465007,0.000134857143 12.1493579,0.032008 12.236215,0.0914617143 C12.3231864,0.150915429 12.3901579,0.235187429 12.4284436,0.333283429 L12.6423864,0.877062857 C12.652215,0.90352 12.6707293,0.925851429 12.6949579,0.9404 L13.3820436,1.33702857 C13.4060436,1.35067429 13.4340436,1.35598857 13.4614721,1.35213714 L14.0412436,1.26394286 C14.1455864,1.24820571 14.252215,1.26429714 14.3471864,1.31010286 C14.4421579,1.35592 14.5211293,1.42931429 14.573815,1.52073143 L14.7871864,1.89006857 C14.8399864,1.98139429 14.8639864,2.08652571 14.8561007,2.19170286 C14.848215,2.29689143 14.8087864,2.39724571 14.7429579,2.47964571 L14.377015,2.93816 C14.3598721,2.95978286 14.350615,2.98658286 14.350615,3.01417143 L14.350615,3.80742857 Z"/><g transform="translate(10.939 2.84)"><path d="M0.785714286,1.14285714 C0.42,1.14285714 0.214285714,0.937142857 0.214285714,0.571428571 C0.214285714,0.205714286 0.42,0 0.785714286,0"/><path d="M0.789371429,1.14285714 C1.15508571,1.14285714 1.3608,0.937142857 1.3608,0.571428571 C1.3608,0.205714286 1.15508571,0 0.789371429,0"/></g></g></svg>