<svg xmlns="http://www.w3.org/2000/svg" fill="none" viewBox="0 0 14 14"><desc>Github Logo Streamline Icon: https://streamlinehq.com</desc><g stroke="currentColor" stroke-linecap="round" stroke-linejoin="round"><path d="M5.117 11.429c-1.14 0-1.768-.272-1.883-1.407l-.437-.39"/><path d="M7 13.5c4.16 0 6.5-2.34 6.5-6.5S11.16.5 7 .5.5 2.84.5 7s2.34 6.5 6.5 6.5"/><path d="M8.818 13.33A9.2 9.2 0 0 1 7 13.5a9.2 9.2 0 0 1-1.818-.17v-2.246c0-.638.104-1.415.303-1.818-1.636-.358-2.532-1.104-2.532-2.618 0-.593.137-1.106.402-1.533a5.8 5.8 0 0 1 .107-1.87.17.17 0 0 1 .223-.123 5.7 5.7 0 0 1 1.444.748Q5.932 3.63 7 3.63t1.87.24a5.7 5.7 0 0 1 1.445-.748.17.17 0 0 1 .223.124c.101.404.185 1.12.107 1.869.265.427.402.94.402 1.533 0 1.514-.896 2.26-2.532 2.618.199.403.303 1.18.303 1.818z"/></g></svg>