<svg xmlns="http://www.w3.org/2000/svg" fill="none" viewBox="0 0 14 14"><desc>Linkedin Logo Streamline Icon: https://streamlinehq.com</desc><g stroke="currentColor" stroke-linecap="round" stroke-linejoin="round"><path d="M2.24 5.704c.768 0 1.39.622 1.39 1.39v4.766a1.39 1.39 0 0 1-2.78 0V7.094c0-.768.623-1.39 1.39-1.39M9.477 8.484a.993.993 0 0 0-.993.993v2.383a1.39 1.39 0 0 1-2.78 0V9.477a3.773 3.773 0 0 1 7.546 0v2.383a1.39 1.39 0 1 1-2.78 0V9.477a.993.993 0 0 0-.993-.993" clip-rule="evenodd"/><path d="M2.314.75c1.002 0 1.565.563 1.565 1.564S3.316 3.88 2.314 3.88.75 3.315.75 2.314 1.313.75 2.314.75"/></g></svg>