<svg xmlns="http://www.w3.org/2000/svg" fill="none" viewBox="0 0 14 14"><desc>Facebook Logo 1 Streamline Icon: https://streamlinehq.com</desc><path stroke="currentColor" stroke-linecap="round" stroke-linejoin="round" d="M3.713 13.053A3.135 3.135 0 0 1 .96 10.288C.846 9.222.75 8.128.75 7.013c0-1.116.096-2.21.21-3.275A3.135 3.135 0 0 1 3.713.972C4.783.852 5.88.75 7 .75s2.218.103 3.287.222a3.135 3.135 0 0 1 2.753 2.766c.114 1.065.21 2.16.21 3.275s-.096 2.21-.21 3.275a3.135 3.135 0 0 1-2.753 2.765 42 42 0 0 1-1.787.168v-3.202h1.64c.214 0 .409-.138.46-.347a3.65 3.65 0 0 0 0-1.812.47.47 0 0 0-.46-.346H8.5V6.512c0-.554.448-1.002 1-1.002h.5a.5.5 0 0 0 .5-.5V4.007c0-.554-.448-1.002-1-1.002H9c-1.657 0-3 1.345-3 3.006v1.503H4.36a.47.47 0 0 0-.46.346 3.65 3.65 0 0 0 0 1.812c.051.21.245.347.461.347H6v3.231a37 37 0 0 1-2.287-.197"/></svg>