<svg xmlns="http://www.w3.org/2000/svg" fill="none" viewBox="0 0 14 14"><desc>Discord Logo Streamline Icon: https://streamlinehq.com</desc><g stroke="currentColor" stroke-linecap="round" stroke-linejoin="round"><path d="M4.615 7c-.32 0-.5-.18-.5-.5s.18-.5.5-.5M4.618 7c.32 0 .5-.18.5-.5s-.18-.5-.5-.5M9.383 7c-.32 0-.5-.18-.5-.5s.18-.5.5-.5M9.386 7c.32 0 .5-.18.5-.5s-.18-.5-.5-.5"/><path d="M4.58 11.655a.87.87 0 0 1-1.012.286 7 7 0 0 1-2.115-1.253A2.73 2.73 0 0 1 .51 8.376c.173-1.982.704-3.982 1.433-5.453a.94.94 0 0 1 .575-.474q.185-.058.353-.112c.657-.212 1.156-.373 2.095-.33.282.013.539.16.712.384q.674-.046 1.364-.048c.432 0 .86.017 1.284.043a.96.96 0 0 1 .708-.379c.939-.043 1.438.118 2.095.33l.353.112a.94.94 0 0 1 .575.474c.73 1.47 1.26 3.47 1.433 5.453a2.73 2.73 0 0 1-.943 2.312 7 7 0 0 1-2.115 1.253.87.87 0 0 1-1.011-.287q-.517-.673-.892-1.35c-.49.035-.986.057-1.487.057-.53 0-1.053-.025-1.568-.063q-.376.681-.895 1.356"/><path d="M4.105 10.093c.786.337 4.692.379 5.499 0"/></g></svg>