<svg xmlns="http://www.w3.org/2000/svg" fill="none" viewBox="0 0 14 14"><desc>Twitch Logo Streamline Icon: https://streamlinehq.com</desc><g stroke="currentColor" stroke-linecap="round" stroke-linejoin="round"><path d="m2.999 10.636-.904-.081a1.025 1.025 0 0 1-.935-.888l-.017-.134C.913 7.647.687 5.808.92 3.892L3.34 1.196c1.21-.11 2.457-.213 3.732-.213 1.395 0 2.757.124 4.073.244q.456.041.904.08c.485.042.877.412.935.889l.015.121c.232 1.899.458 3.748.223 5.677l-2.916 2.717c-1.053.092-2.133.169-3.234.169q-.248 0-.494-.005L3.24 12.983v-2.325zM6.458 4.15V5.47M9.982 4.15V5.47"/><path d="M3.62 8.248c-.209-.756-.332-4.916-.166-7.088 2.384-.28 7.137.12 9.216.354.293 1.4.604 4.61.384 6.473-.791.315-2.876.448-3.929.448-1.149.063-4.052 0-5.504-.187"/></g></svg>