<svg xmlns="http://www.w3.org/2000/svg" fill="none" viewBox="0 0 14 14"><g stroke="currentColor" stroke-linecap="round" stroke-linejoin="round"><path d="M6.946 5.48 7.3 3.895a2 2 0 0 1 1.953-1.566h.951"/><path d="M12.162 9.642C11.968 11.66 9.732 13.25 7 13.25c-2.834 0-5.136-1.713-5.175-3.837A2.103 2.103 0 1 1 4.29 6.04 6.5 6.5 0 0 1 7 5.465c1.065 0 2.054.242 2.877.657a2.104 2.104 0 1 1 2.285 3.52"/><path d="M6.166 10.91c.684.164 1.048.156 1.668 0M5.277 8.412v.478M8.724 8.412v.478M11.726 3.799c.975 0 1.524-.549 1.524-1.525S12.701.75 11.726.75 10.2 1.299 10.2 2.274c0 .976.549 1.525 1.525 1.525"/></g></svg>