<svg xmlns="http://www.w3.org/2000/svg" width="24" height="24"><path fill="none" stroke="#696969" stroke-linecap="round" stroke-linejoin="round" stroke-width="1.5" d="M6.778 13.25V8.211A2.445 2.445 0 0 1 9.4 6h0a2.444 2.444 0 0 1 2.624 2.211v3.577M12.028 11.788V8.211A2.445 2.445 0 0 1 14.653 6h0a2.444 2.444 0 0 1 2.624 2.211v5.039"/><path fill="none" stroke="#696969" stroke-linecap="round" stroke-linejoin="round" stroke-width="1.5" d="M1.344 12.347q-.081-1.294-.091-2.592A13.3 13.3 0 0 1 1.85 4.9a5.87 5.87 0 0 1 4.474-3.679A33.3 33.3 0 0 1 13.74.8a17.6 17.6 0 0 1 5.445.86 5.58 5.58 0 0 1 3.1 3.6c.759 2.342.424 4.83.166 7.225-.6 5.546-8.8 4.976-12.954 4.549-.787-.081-1.566-.244-2.352-.37-.077 1.66.68 3.392 2.268 3.633a30.5 30.5 0 0 0 4.395.143 5.3 5.3 0 0 0 .977-.123.9.9 0 0 1 1.085.792v.058c.039.384-.161 1.267-.518 1.415-2.366.976-6.157.771-8.746.126a5.84 5.84 0 0 1-3.664-2.668 13.8 13.8 0 0 1-1.322-4.752q-.186-1.465-.276-2.941"/></svg>