<svg xmlns="http://www.w3.org/2000/svg" fill="none" viewBox="0 0 14 14"><g stroke="currentColor" stroke-linecap="round" stroke-linejoin="round"><path d="M.5 6.603v3.977c1.22.303 2.179.407 3.22.31 1.096-.102 2.047-.933 2.106-2.03.075-1.392-1.3-2.257-2.693-2.257zm0 0V3.219c1.038-.259 1.854-.347 2.74-.264.932.087 1.741.793 1.792 1.728.063 1.183-1.107 1.92-2.292 1.92zM12.46 2.925H9.013M7.973 8.161c0-1.769.995-2.764 2.763-2.764 1.77 0 2.764.995 2.764 2.764zm0 0c0 1.769.995 2.764 2.763 2.764.974 0 1.714-.302 2.182-.868"/></g></svg>