<svg xmlns="http://www.w3.org/2000/svg" fill="none" viewBox="0 0 14 14"><desc>Dropbox Logo Streamline Icon: https://streamlinehq.com</desc><g stroke="currentColor" stroke-linecap="round" stroke-linejoin="round"><path d="M10.515 9.708v.823c0 .274-.105.54-.312.716C9.066 12.22 7.3 13 7.068 13s-1.998-.781-3.136-1.752a.93.93 0 0 1-.312-.717v-.823"/><path d="M10.201 9.772C9.483 9.772.734 4.22.82 3.353c0-1.156 2.497-2.461 3.173-2.346.676.116 9.655 5.831 9.317 6.525s-2.39 2.24-3.108 2.24"/><path d="M3.936 9.772c.718 0 9.466-5.551 9.382-6.419 0-1.156-2.497-2.461-3.173-2.346C9.469 1.123.49 6.838.828 7.532s2.39 2.24 3.108 2.24"/><path d="M7.069 2.783a81 81 0 0 0-3.964 2.664A70 70 0 0 0 7.07 8.085a70 70 0 0 0 3.963-2.638A81 81 0 0 0 7.07 2.783"/></g></svg>