<svg xmlns="http://www.w3.org/2000/svg" fill="none" viewBox="0 0 14 14"><desc>Meta Thread Logo Streamline Icon: https://streamlinehq.com</desc><path stroke="currentColor" stroke-linecap="round" d="M12.501 4.66C12.25 1.812 10.113.499 7.143.499c-4.455 0-5.894 2.91-5.894 6.5 0 3.591 1.704 6.502 5.894 6.502 2.439 0 4.735-1.314 4.735-3.673 0-1.86-.922-2.354-2.188-2.862m0 0c-.01-1.733-.829-3.131-2.578-3.131-1.041 0-1.752.495-2.16 1.26m4.738 1.87V7c0 1.748-.817 3.165-2.578 3.165-1.243 0-2.16-.918-2.16-1.83 0-1.058.848-1.763 2.674-1.763.641 0 1.378.119 2.064.394Z"/></svg>