<svg xmlns="http://www.w3.org/2000/svg" fill="none" viewBox="0 0 14 14"><desc>Bluesky Logo Streamline Icon: https://streamlinehq.com</desc><path stroke="currentColor" stroke-linecap="round" stroke-linejoin="round" d="M2.56 7.454c.54.152 1.096.289 1.634.4-.492.093-1 .206-1.497.336-.921.24-1.396 1.236-.94 2.069a9.9 9.9 0 0 0 1.915 2.475c.69.65 1.794.467 2.284-.343A10 10 0 0 0 7 10.056c.275.906.62 1.633 1.044 2.335.49.81 1.594.992 2.284.343a9.9 9.9 0 0 0 1.916-2.476c.455-.832-.02-1.828-.941-2.068a22 22 0 0 0-1.498-.335 25 25 0 0 0 1.635-.4c.984-.278 1.685-1.119 1.835-2.125.09-.598.175-1.25.206-1.741.033-.512.02-1.148-.006-1.707-.032-.707-.714-1.196-1.376-.936C9.124 2.114 7.65 4.449 7 6.096 6.349 4.45 4.876 2.115 1.901.947 1.24.686.557 1.175.525 1.882a17 17 0 0 0-.006 1.707c.031.492.116 1.143.206 1.74.15 1.007.851 1.848 1.835 2.125"/></svg>