<svg xmlns="http://www.w3.org/2000/svg" fill="none" viewBox="0 0 14 14"><g stroke="currentColor" stroke-linecap="round" stroke-linejoin="round"><path d="M.843 12.204c.013.48.357.892.822.977.217.04.44.069.665.069s.447-.03.665-.07c.464-.084.809-.497.822-.976.042-1.54.093-4.468.093-5.204s-.051-3.663-.093-5.204a1.02 1.02 0 0 0-.822-.977C2.777.78 2.555.75 2.33.75s-.448.03-.665.07a1.02 1.02 0 0 0-.822.976A326 326 0 0 0 .75 7c0 .736.051 3.663.093 5.204M9.816 7.618c2.198 0 3.434-1.236 3.434-3.434S12.014.75 9.816.75 6.382 1.986 6.382 4.184s1.236 3.434 3.434 3.434"/></g></svg>