<svg xmlns="http://www.w3.org/2000/svg" fill="none" viewBox="0 0 14 14"><desc>Paypal Logo Streamline Icon: https://streamlinehq.com</desc><g stroke="currentColor" stroke-linecap="round" stroke-linejoin="round"><path d="M12.464 6.587c.07.49.041 1.007-.101 1.52-.518 1.871-2.348 2.997-4.088 2.516L6.386 10.1l-.653 2.36c-.205.74-.93 1.187-1.62.996a1.22 1.22 0 0 1-.601-.382M5.33.544c-.69-.19-1.416.256-1.62.997L1.552 9.33c-.205.741.188 1.497.878 1.688s1.415-.256 1.62-.997l.653-2.36 1.89.523c1.74.482 3.57-.644 4.087-2.514.518-1.87-.473-3.777-2.213-4.258z"/><path d="m5.331 5.46.615-2.28 1.326.356a1.182 1.182 0 0 1-.615 2.282z"/></g></svg>