<svg xmlns="http://www.w3.org/2000/svg" fill="none" viewBox="0 0 14 14"><desc>Instagram Logo Streamline Icon: https://streamlinehq.com</desc><g stroke="currentColor" stroke-linecap="round" stroke-linejoin="round"><path d="M.96 10.269a3.13 3.13 0 0 0 2.753 2.76c1.07.119 2.167.221 3.287.221s2.218-.102 3.287-.222a3.13 3.13 0 0 0 2.753-2.76c.114-1.063.21-2.155.21-3.268s-.096-2.205-.21-3.269a3.13 3.13 0 0 0-2.753-2.76C9.217.853 8.12.75 7 .75S4.782.852 3.713.972A3.13 3.13 0 0 0 .96 3.732C.846 4.794.75 5.886.75 7s.096 2.205.21 3.269"/><path d="M7 9.182c1.397 0 2.183-.785 2.183-2.182s-.786-2.182-2.182-2.182c-1.397 0-2.183.785-2.183 2.182s.786 2.182 2.183 2.182M10.462 3.85c-.16 0-.25-.09-.25-.248s.09-.25.25-.25M10.463 3.85c.16 0 .249-.09.249-.248s-.09-.25-.249-.25"/></g></svg>