<svg xmlns="http://www.w3.org/2000/svg" fill="none" viewBox="0 0 14 14"><path stroke="currentColor" stroke-linejoin="round" d="M9.26344 4.34844C8.94942 3.02262 8.45287 1.8971 7.7007 0.865168 7.34583 0.378308 6.65711 0.378311 6.302 0.864976 5.54897 1.89696 5.0506 3.02254 4.73655 4.34844c-1.27708 -0.0475 -2.4531 0.10502 -3.61903 0.49806 -0.567297 0.19124 -0.797993 0.88418 -0.460427 1.39727C1.35657 7.30695 2.22018 8.14266 3.33681 8.8471c-0.43299 1.2339 -0.63943 2.4396 -0.65185 3.7051 -0.00626 0.6378 0.56948 1.0938 1.15274 0.9045 1.16232 -0.3774 2.18286 -0.9657 3.16091 -1.8293 0.97815 0.8637 2.00043 1.452 3.16369 1.8294 0.5833 0.1892 1.159 -0.2668 1.1527 -0.9046 -0.0124 -1.2655 -0.2188 -2.4712 -0.6518 -3.7051 1.1166 -0.70444 1.9802 -1.54015 2.6797 -2.60333 0.3376 -0.51309 0.1069 -1.20603 -0.4604 -1.39727 -1.1659 -0.39304 -2.342 -0.54556 -3.61906 -0.49806Z" stroke-width="1"/></svg>