<svg xmlns="http://www.w3.org/2000/svg" viewBox="0 0 139.56 112.01"><path fill="#191a1b" d="M112.46 110.67c9.62-.6 13.78-5.17 14.72-15.49.73-8.04 1-12.06 1.36-20.11.43-9.6 5.28-15.13 9.96-17.7 1.41-.8 1.4-2.65 0-3.54-4.88-2.94-9.61-9.19-9.98-17.45-.36-7.9-.63-11.85-1.35-19.75-1.02-11.13-4.55-14.67-14.18-15.28a799 799 0 0 0-86.42.02c-9.62.61-13.16 4.15-14.18 15.28-.72 7.9-.99 11.85-1.35 19.75-.38 8.26-5.1 14.51-9.98 17.45a2.01 2.01 0 0 0 0 3.54c4.69 2.49 9.53 8.01 9.96 17.7.36 8.04.63 12.06 1.36 20.11.94 10.32 5.1 14.89 14.72 15.49 28.52 1.53 56.85 1.53 85.36 0ZM69.55 92.82c-8.77.49-19.7-3.8-25.95-9.95-1.23-1.13-1.73-2.53-1.76-3.92-.03-1.11.23-2.31 1.04-3.23.87-1.14 1.31-1.71 2.18-2.85 1.1-1.38 2.3-2.02 3.7-2.01 1.58.01 3.08.67 4.68 1.71 5.06 3.3 10.63 5.2 17.31 5.2 5.1 0 9.78-2.89 9.23-6.57-2.18-14.6-38.37-6.19-37.83-30.63C42.44 27.71 55.29 18.69 67.9 19c9.77.25 17.47 3.09 23.08 6.71 1.4.95 2.37 2.83 2.41 4.69.02 1.12-.23 2.13-.86 3.06-.65 1-.97 1.49-1.63 2.49-1.18 1.66-2.57 2.49-4.34 2.48-1.21 0-2.52-.48-3.92-1.14-4.2-2.17-8.56-3.31-13.85-3.31-5.47 0-9.15 3.52-8.76 6.1 2.18 14.47 37.35 5.97 37.84 30.07.3 14.88-15.58 22.52-28.34 22.68Z"/><path fill="#d4ff4c" d="M105.69 102.58c8.47-.62 12.23-4.7 13.2-13.82.75-7.1 1.03-10.65 1.4-17.76.44-8.48 4.75-13.37 8.92-15.64 1.25-.7 1.25-2.33 0-3.12-4.34-2.59-8.55-8.12-8.94-15.41-.37-6.98-.65-10.46-1.39-17.44-1.05-9.83-4.24-13-12.71-13.62a612 612 0 0 0-76.11 0c-8.47.62-11.67 3.79-12.71 13.62-.74 6.98-1.02 10.46-1.39 17.44-.39 7.29-4.59 12.82-8.94 15.41-1.25.71-1.25 2.41 0 3.12 4.17 2.19 8.48 7.08 8.92 15.64.37 7.1.65 10.65 1.4 17.76.96 9.12 4.72 13.2 13.2 13.82 25.18 1.54 50 1.54 75.18 0Z"/><path d="M47.49 69.34c.93-1.21 2-1.74 3.21-1.74 1.34 0 2.67.54 4.01 1.48 4.27 2.82 9.08 4.43 14.83 4.43 4.41 0 7.88-1.88 7.88-5.63 0-9.79-32.46-4.43-32.46-26.43 0-11.81 9.62-18.38 22.04-18.38 8.82 0 15.23 2.55 20.04 5.63 1.2.8 2 2.41 2 4.02 0 .94-.27 1.88-.8 2.68l-1.47 2.15c-1.07 1.48-2.27 2.15-3.74 2.15-1.07 0-2.14-.4-3.34-.94-3.61-1.88-7.35-2.82-11.89-2.82s-7.48 2.55-7.48 5.23c0 10.06 32.46 4.56 32.46 25.89 0 11.94-9.62 19.32-24.31 19.32-9.35 0-16.16-2.82-22.44-8.32-1.07-.94-1.47-2.15-1.47-3.35 0-.94.27-2.01.94-2.82l2-2.55Z"/></svg>