<svg xmlns="http://www.w3.org/2000/svg" fill="none" viewBox="0 0 14 14"><path stroke="currentColor" stroke-linecap="round" d="M4.78125 9.21875c-1.08301 0.68519 -1.90856 1.51075 -2.59375 2.59375m2.59375 -7.03124C4.09605 3.69825 3.27051 2.8727 2.1875 2.18751m7.03124 7.03124c1.08306 0.68519 1.90856 1.51075 2.59376 2.59375M9.21874 4.78126c0.6852 -1.08301 1.51076 -1.90856 2.59376 -2.59375" stroke-width="1"/><path stroke="currentColor" stroke-linecap="round" stroke-linejoin="round" d="M7 13.5c4.16 0 6.5 -2.34 6.5 -6.5S11.16 0.5 7 0.5 0.5 2.84 0.5 7s2.34 6.5 6.5 6.5Z" stroke-width="1"/><path stroke="currentColor" stroke-linecap="round" stroke-linejoin="round" d="M7 10c1.92 0 3 -1.08 3 -3S8.92 4 7 4 4 5.08 4 7s1.08 3 3 3Z" stroke-width="1"/></svg>