<svg xmlns="http://www.w3.org/2000/svg" fill="none" viewBox="0 0 14 14"><path stroke="currentColor" stroke-linecap="round" stroke-linejoin="round" d="M3.98962 10.4313c0.32632 0.6987 0.30789 1.3882 -0.0553 2.0685 -0.69873 0.3263 -1.38824 0.3079 -2.06854 -0.0553" stroke-width="1"/><path stroke="currentColor" stroke-linecap="round" stroke-linejoin="round" d="M10.0327 3.57921c-0.32547 -0.69685 -0.30709 -1.3845 0.0551 -2.06296 0.6969 -0.32544 1.3845 -0.30706 2.063 0.05515" stroke-width="1"/><path stroke="currentColor" stroke-linecap="round" stroke-linejoin="round" d="M6.89491 0.5c-1.45831 0.032188 -2.91465 0.73457 -4.28722 2.10714 -2.811066 2.81106 -2.811066 5.9735 0 8.78456 0.43246 0.4325 0.87323 0.7984 1.31977 1.0978M10.0993 1.52741c0.4374 0.29601 0.8691 0.65592 1.293 1.07973 2.811 2.81106 2.811 5.9735 0 8.78456 -1.40972 1.4097 -2.90775 2.1124 -4.40552 2.1083" stroke-width="1"/><path stroke="currentColor" stroke-linecap="round" stroke-linejoin="round" d="M5.83456 5.84353c0.72614 -0.72614 0.8627 -2.09213 1.16546 -2.09213 0.30275 0 0.43932 1.36599 1.16545 2.09213 0.72614 0.72614 2.08313 0.80304 2.08313 1.15647s-1.35699 0.43033 -2.08313 1.15647c-0.72613 0.72613 -0.8627 2.09213 -1.16545 2.09213 -0.30276 0 -0.43932 -1.366 -1.16546 -2.09213C5.10843 7.43033 3.75146 7.35343 3.75146 7s1.35697 -0.43033 2.0831 -1.15647" stroke-width="1"/></svg>