<svg xmlns="http://www.w3.org/2000/svg" fill="none" viewBox="0 0 14 14"><g stroke="currentColor" stroke-linecap="round" stroke-linejoin="round"><path d="M.75 13.25h12.5M.75 4.75h12.5M7 .75c-.845 0-1.559.053-2.049.124-.44.064-.77.384-.855.821A5.5 5.5 0 0 0 4 2.75c0 .42.04.772.096 1.055.086.437.414.757.855.821.49.071 1.204.124 2.049.124s1.559-.053 2.049-.124c.44-.064.77-.384.855-.821.055-.283.096-.635.096-1.055s-.04-.772-.096-1.055a1.01 1.01 0 0 0-.855-.821A15 15 0 0 0 7 .75M7 9.25c-1.608 0-2.832.066-3.543.15a.97.97 0 0 0-.86.795A5.5 5.5 0 0 0 2.5 11.25c0 .42.04.772.096 1.055a.97.97 0 0 0 .86.795c.712.084 1.936.15 3.544.15s2.832-.066 3.543-.15a.97.97 0 0 0 .86-.795c.056-.283.097-.635.097-1.055s-.041-.772-.096-1.055a.97.97 0 0 0-.86-.795C9.831 9.316 8.607 9.25 7 9.25"/></g></svg>