<svg viewBox="0 0 17 17" version="1.1" xmlns="http://www.w3.org/2000/svg" xmlns:xlink="http://www.w3.org/1999/xlink"><g transform="translate(1 1)" stroke="currentColor" stroke-width="1" fill="none" fill-rule="evenodd" stroke-linecap="round" stroke-linejoin="round"><path d="M7.54421659,14.3130289 C6.72259373,15.0552003 5.4030623,15.0315431 4.41665087,14.2826289 C3.70577087,13.7429717 2.99117659,13.1741717 2.33707373,12.5201146 C1.68295944,11.8659431 1.11411373,11.1513146 0.574468014,10.4404917 C-0.174350272,9.45408028 -0.198014272,8.13454885 0.544094299,7.31292599 C2.65703944,4.97356599 4.84877659,2.81842314 7.24175944,0.72504028 C7.53135944,0.471691709 7.88766801,0.304829994 8.28366801,0.249906566 C9.71932516,0.0507922802 13.306628,-0.336274006 14.2500566,0.60712028 C15.1933709,1.55052599 14.8063994,5.13781742 14.6071994,6.57347457 C14.5523423,6.96947457 14.3854852,7.32578314 14.1321137,7.61538314 C12.0387423,10.008366 9.88357659,12.2001146 7.54421659,14.3130289 Z"/><path d="M10.6227652,5.66294885 C9.70847944,5.66294885 9.19419373,5.14866314 9.19419373,4.23437742 C9.19419373,3.32009171 9.70847944,2.80580599 10.6227652,2.80580599 C11.537028,2.80580599 12.0513137,3.32009171 12.0513137,4.23437742 C12.0513137,5.14866314 11.537028,5.66294885 10.6227652,5.66294885 L10.6227652,5.66294885 Z"/></g></svg>