<svg xmlns="http://www.w3.org/2000/svg" fill="none" viewBox="0 0 14 14"><desc>Template Theme Design Layout Streamline Icon: https://streamlinehq.com</desc><g stroke="currentColor" stroke-linecap="round" stroke-linejoin="round"><path d="M8.5 7.27h4.75M8.5 10.26h4.75M8.5 13.25h4.75M1.03 3.877c.142.413.528.705.965.72 3.37.118 6.71.118 10.08 0 .437-.015.823-.307.965-.72.28-.82.28-1.499 0-2.318a1.07 1.07 0 0 0-.965-.721C8.705.72 5.365.72 1.995.838a1.07 1.07 0 0 0-.965.72c-.28.82-.28 1.499 0 2.319M1.807 6.773c-.518.075-.917.47-.958.947a25.4 25.4 0 0 0 0 4.478c.041.477.44.872.958.947.96.14 1.864.14 2.824 0 .518-.075.916-.47.958-.947a25.4 25.4 0 0 0 0-4.478c-.042-.477-.44-.872-.958-.947a9.6 9.6 0 0 0-2.824 0"/></g></svg>