<svg xmlns="http://www.w3.org/2000/svg" fill="none" viewBox="0 0 14 14"><desc>Insert Bottom Streamline Icon: https://streamlinehq.com</desc><g stroke="currentColor" stroke-linecap="round" stroke-linejoin="round"><path d="M.668 9.948c.181-.693.858-1.19 1.619-1.223 3.155-.137 6.271-.137 9.426 0 .761.033 1.438.53 1.619 1.223.095.364.168.735.168 1.113s-.073.749-.168 1.113c-.181.693-.858 1.19-1.619 1.223-3.155.137-6.271.137-9.426 0-.761-.033-1.438-.53-1.619-1.223A4.4 4.4 0 0 1 .5 11.06c0-.378.073-.75.168-1.113M8.75 4.834H.5M.5.5h13"/></g></svg>