<svg xmlns="http://www.w3.org/2000/svg" fill="none" viewBox="0 0 14 14"><g stroke="currentColor" stroke-linecap="round" stroke-linejoin="round"><path d="M5.601 8.571a1.506 1.506 0 0 0 1.324 1.327c1.67.187 3.48.188 5.15 0A1.506 1.506 0 0 0 13.4 8.571c.055-.511.101-1.036.101-1.571 0-.536-.046-1.06-.101-1.572A1.506 1.506 0 0 0 12.075 4.1a24 24 0 0 0-5.15 0A1.506 1.506 0 0 0 5.6 5.428C5.546 5.938 5.5 6.464 5.5 7c0 .535.046 1.06.101 1.571M.5.5h10.532M.5 4.833h2.33M.5 9.167h2.33M.5 13.5h10.532"/></g></svg>