<svg xmlns="http://www.w3.org/2000/svg" fill="none" viewBox="0 0 14 14"><desc>Insert Center Right 1 Streamline Icon: https://streamlinehq.com</desc><g stroke="currentColor" stroke-linecap="round" stroke-linejoin="round"><path d="M13.4 8.569a1.5 1.5 0 0 1-1.322 1.324c-.514.058-1.04.107-1.578.107a14 14 0 0 1-1.578-.107A1.5 1.5 0 0 1 7.601 8.57C7.546 8.059 7.5 7.534 7.5 7s.046-1.058.1-1.57a1.5 1.5 0 0 1 1.322-1.324A14 14 0 0 1 10.5 4c.538 0 1.065.049 1.578.107a1.504 1.504 0 0 1 1.321 1.324c.055.51.101 1.034.101 1.569s-.046 1.058-.1 1.569M.5.5h13M.5 4.833h3.897M.5 9.167h3.897M.5 13.5h13"/></g></svg>