<svg xmlns="http://www.w3.org/2000/svg" fill="none" viewBox="0 0 14 14"><desc>Description Streamline Icon: https://streamlinehq.com</desc><g stroke="currentColor" stroke-linecap="round" stroke-linejoin="round"><path d="M9.05 3.938c-.786 0-1.228.442-1.228 1.228s.442 1.228 1.228 1.228 1.227-.442 1.227-1.228-.442-1.228-1.227-1.228M4.843 3.938c-.786 0-1.228.442-1.228 1.228s.442 1.228 1.228 1.228S6.07 5.952 6.07 5.166s-.442-1.228-1.227-1.228"/><path d="M9.303 8.085c.703-.39 1.083-1.144 1.083-2.202 0-.411-.072-.89-.183-1.206M5.095 8.085c.703-.39 1.083-1.144 1.083-2.202 0-.411-.072-.89-.183-1.206"/><path d="M2.593.789C4.013.627 5.57.5 7 .5c1.43 0 2.988.127 4.409.289.977.111 1.745.89 1.851 1.875 0 0 .241 1.126.241 3.32s-.24 3.319-.24 3.319a2.11 2.11 0 0 1-1.852 1.875c-1.294.147-2.703.266-4.024.286l-1.728 1.738c-.631.636-1.712.186-1.712-.713v-1.173c-.458-.041-.911-.088-1.35-.138A2.11 2.11 0 0 1 .74 9.303S.5 8.177.5 5.983s.24-3.319.24-3.319A2.11 2.11 0 0 1 2.594.79"/></g></svg>