<svg xmlns="http://www.w3.org/2000/svg" fill="none" viewBox="0 0 14 14"><desc>Insert Center Left 1 Streamline Icon: https://streamlinehq.com</desc><g stroke="currentColor" stroke-linecap="round" stroke-linejoin="round"><path d="M.6 8.569a1.5 1.5 0 0 0 1.322 1.324c.514.058 1.04.107 1.578.107s1.065-.049 1.578-.107A1.5 1.5 0 0 0 6.399 8.57C6.454 8.059 6.5 7.534 6.5 7s-.046-1.058-.1-1.57a1.5 1.5 0 0 0-1.322-1.324A14 14 0 0 0 3.5 4c-.538 0-1.065.049-1.578.107A1.5 1.5 0 0 0 .601 5.43C.546 5.941.5 6.465.5 7s.046 1.058.1 1.569M13.5.5H.5M13.5 4.833H9.603M13.5 9.167H9.603M13.5 13.5H.5"/></g></svg>