<svg xmlns="http://www.w3.org/2000/svg" fill="none" viewBox="0 0 14 14"><desc>Text Box 1 Streamline Icon: https://streamlinehq.com</desc><g stroke="currentColor" stroke-linecap="round" stroke-linejoin="round"><path d="M1.75 3C2.55 3 3 2.55 3 1.75v-.002c.303-.154.633-.254.976-.294C4.959 1.344 5.97 1.25 7 1.25s2.04.095 3.024.203c.343.04.673.14.976.294v.003c0 .8.45 1.25 1.25 1.25h.007c.158.308.26.644.3.993.105.978.193 1.983.193 3.007s-.088 2.029-.193 3.007c-.04.349-.142.685-.3.993h-.007c-.8 0-1.25.45-1.25 1.25v.002a2.9 2.9 0 0 1-.976.294c-.983.11-1.994.204-3.024.204s-2.04-.094-3.024-.204A2.9 2.9 0 0 1 3 12.252v-.002c0-.8-.45-1.25-1.25-1.25h-.007a2.9 2.9 0 0 1-.3-.993C1.338 9.029 1.25 8.025 1.25 7s.088-2.03.193-3.007c.04-.349.142-.685.3-.993z"/><path d="M4.648 5.693v-.174c0-.505.36-.942.862-1.002 1-.118 1.98-.118 2.98 0 .502.06.862.497.862 1.002v.174M7 4.429v4.957m-1.045.228c.724-.304 1.366-.304 2.09 0M1.75 3C2.55 3 3 2.55 3 1.75S2.55.5 1.75.5.5.95.5 1.75.95 3 1.75 3M1.75 13.5c.8 0 1.25-.45 1.25-1.25S2.55 11 1.75 11 .5 11.45.5 12.25s.45 1.25 1.25 1.25M12.25 3c.8 0 1.25-.45 1.25-1.25S13.05.5 12.25.5 11 .95 11 1.75 11.45 3 12.25 3M12.25 13.5c.8 0 1.25-.45 1.25-1.25S13.05 11 12.25 11 11 11.45 11 12.25s.45 1.25 1.25 1.25"/></g></svg>