<svg xmlns="http://www.w3.org/2000/svg" fill="none" viewBox="0 0 14 14"><desc>Insert Top Right Streamline Icon: https://streamlinehq.com</desc><g stroke="currentColor" stroke-linecap="round" stroke-linejoin="round"><path d="M.5.5h4.347M.5 4.834h4.347M.5 13.5h13M.5 9.167h13M13.408 4.65a1.365 1.365 0 0 1-1.2 1.203c-.466.053-.945.097-1.433.097s-.967-.044-1.433-.097a1.366 1.366 0 0 1-1.2-1.203c-.05-.464-.092-.94-.092-1.425s.042-.961.092-1.425a1.366 1.366 0 0 1 1.2-1.204C9.808.545 10.287.5 10.775.5s.967.044 1.433.097a1.365 1.365 0 0 1 1.2 1.203c.05.463.092.94.092 1.425s-.042.961-.092 1.425"/></g></svg>