<svg xmlns="http://www.w3.org/2000/svg" fill="none" viewBox="0 0 14 14"><desc>Insert Center Left 2 Streamline Icon: https://streamlinehq.com</desc><g stroke="currentColor" stroke-linecap="round" stroke-linejoin="round"><path d="M8.399 8.571a1.506 1.506 0 0 1-1.324 1.327c-1.67.187-3.48.188-5.15 0A1.506 1.506 0 0 1 .6 8.571 15 15 0 0 1 .5 7c0-.536.046-1.06.101-1.572A1.506 1.506 0 0 1 1.925 4.1a24 24 0 0 1 5.15 0A1.506 1.506 0 0 1 8.4 5.428c.055.51.101 1.036.101 1.572 0 .535-.046 1.06-.101 1.571M13.5.5H2.968M13.5 4.833h-2.33M13.5 9.167h-2.33M13.5 13.5H2.968"/></g></svg>