<svg xmlns="http://www.w3.org/2000/svg" fill="none" viewBox="0 0 14 14"><desc>Markdown Rectangle Programming Streamline Icon: https://streamlinehq.com</desc><g stroke="currentColor" stroke-linecap="round" stroke-linejoin="round"><path d="M3.022 9.216V4.98c0-.146.118-.264.264-.264v0c.07 0 .136.028.184.077.561.574.942 1.203 1.175 1.994.03.105.126.18.235.18v0c.11 0 .204-.075.235-.18A4.6 4.6 0 0 1 6.29 4.793a.26.26 0 0 1 .184-.077v0c.145 0 .263.118.263.264v4.236M9.996 4.716V9.28M11.51 7.77a3.65 3.65 0 0 1-1.514 1.514A3.65 3.65 0 0 1 8.482 7.77"/><path d="M3.601 1.684a3.52 3.52 0 0 0-1.935.787c-.52.44-.85 1.017-.935 1.636C.606 5.049.5 6.014.5 7s.106 1.952.23 2.893c.085.62.415 1.196.936 1.636s1.204.717 1.935.787c1.106.1 2.241.185 3.399.185s2.293-.084 3.4-.185a3.52 3.52 0 0 0 1.935-.787c.521-.44.85-1.017.935-1.636.123-.942.23-1.907.23-2.893s-.106-1.952-.23-2.893c-.085-.62-.415-1.196-.936-1.636a3.52 3.52 0 0 0-1.935-.787c-1.105-.1-2.24-.185-3.399-.185s-2.293.084-3.399.185"/></g></svg>