<svg xmlns="http://www.w3.org/2000/svg" fill="none" viewBox="0 0 14 14"><desc>Insert Top Left Streamline Icon: https://streamlinehq.com</desc><g stroke="currentColor" stroke-linecap="round" stroke-linejoin="round"><path d="M13.5.5H9.153M13.5 4.834H9.153M13.5 13.5H.5M13.5 9.167H.5M.592 4.65a1.366 1.366 0 0 0 1.2 1.203c.466.053.945.097 1.433.097s.967-.044 1.433-.097a1.366 1.366 0 0 0 1.2-1.203c.05-.464.092-.94.092-1.425s-.042-.961-.092-1.425a1.366 1.366 0 0 0-1.2-1.204A13 13 0 0 0 3.225.5c-.488 0-.967.044-1.433.097A1.366 1.366 0 0 0 .592 1.8C.542 2.263.5 2.74.5 3.225s.042.961.092 1.425"/></g></svg>