<svg xmlns="http://www.w3.org/2000/svg" fill="none" viewBox="0 0 14 14"><g stroke="currentColor" stroke-linecap="round" stroke-linejoin="round"><path d="M2 8.5c.96 0 1.5-.54 1.5-1.5S2.96 5.5 2 5.5.5 6.04.5 7 1.04 8.5 2 8.5M2 .5v4.956M2 13.5V8.544M11.677 4.093c-1.318-.04-2.736-.011-3.83.087a.83.83 0 0 0-.499.232C6.81 4.918 5.5 6.565 5.5 7S6.81 9.083 7.348 9.59c.149.14.321.21.5.225 1.093.098 2.511.13 3.83.093a1.845 1.845 0 0 0 1.786-1.76c.02-.395.036-.8.036-1.146s-.015-.751-.036-1.145a1.85 1.85 0 0 0-1.787-1.763"/></g></svg>