<svg xmlns="http://www.w3.org/2000/svg" fill="none" viewBox="0 0 14 14"><g stroke="currentColor" stroke-linecap="round" stroke-linejoin="round"><path d="M8.5 12c0-.96-.54-1.5-1.5-1.5s-1.5.54-1.5 1.5.54 1.5 1.5 1.5 1.5-.54 1.5-1.5M.5 12h4.956M13.5 12H8.544M4.093 2.323c-.04 1.318-.011 2.736.087 3.83a.83.83 0 0 0 .232.499C4.918 7.19 6.565 8.5 7 8.5S9.083 7.19 9.59 6.652c.14-.149.21-.321.225-.5.098-1.093.13-2.511.093-3.83A1.845 1.845 0 0 0 8.147.537C7.751.516 7.346.5 7 .5S6.25.515 5.856.536a1.85 1.85 0 0 0-1.763 1.787"/></g></svg>