<svg xmlns="http://www.w3.org/2000/svg" fill="none" viewBox="0 0 14 14"><g stroke="currentColor" stroke-linecap="round" stroke-linejoin="round"><path d="M4.962 11.91 4.953 1.023c-.61-.1-1.475.136-2.019.3-.361.107-.767.31-1.173.52-.146.075-.27.27-.364.468-.163.342-.23.725-.292 1.103l-.05.302a23.1 23.1 0 0 0 0 7.496l.03.18c.082.53.17 1.088.534 1.438.098.094.209.15.33.126.285-.06.577-.171.881-.288l.267-.102q.264-.098.525-.2c.414-.159.821-.316 1.207-.43a1 1 0 0 1 .133-.028"/><path d="m8.988 12.969-.052-.012-3.63-1.02a.9.9 0 0 0-.344-.028L4.953 1.024q.06.01.115.024l3.522.988a.9.9 0 0 0 .421.019z"/><path d="M8.988 12.969c.514.11 1.025-.087 1.58-.3l.267-.102q.263-.098.525-.2.364-.141.717-.269c.145-.051.276-.198.387-.369.29-.448.387-1.007.477-1.546a22.6 22.6 0 0 0-.018-7.555c-.085-.519-.174-1.063-.512-1.433-.104-.114-.225-.191-.357-.178-.488.049-1.01.195-1.382.306-.406.121-.867.361-1.322.598l-.09.047a1 1 0 0 1-.25.087z"/></g></svg>