<svg xmlns="http://www.w3.org/2000/svg" fill="none" viewBox="0 0 14 14"><path stroke="currentColor" stroke-linecap="round" stroke-linejoin="round" d="M3.5 4.50635V8c0 3.4375 1.40625 4.0063 3 4.0063" stroke-width="1"/><path stroke="currentColor" stroke-linecap="round" stroke-linejoin="round" d="M3.5 7.00635h3" stroke-width="1"/><path stroke="currentColor" stroke-linecap="round" stroke-linejoin="round" d="M3.63685 0.5c-0.63537 0 -1.2355 0.023698 -1.77636 0.079235C1.29418 0.637385 0.759973 0.975173 0.608186 1.52385 0.535203 1.78767 0.5 2.08828 0.5 2.50001c0 0.41174 0.035203 0.71235 0.108186 0.97617 0.151787 0.54868 0.685994 0.88646 1.252304 0.94461 0.54085 0.05552 1.14098 0.07921 1.77634 0.07921 0.63536 0 1.23545 -0.02369 1.77627 -0.07923 0.56631 -0.05815 1.10052 -0.39594 1.2523 -0.94461 0.07299 -0.26383 0.10819 -0.56444 0.10819 -0.97617 0 -0.41171 -0.03517 -0.71231 -0.10813 -0.97612C6.51373 0.975177 5.97952 0.637385 5.41321 0.579235 4.87235 0.523698 4.27221 0.5 3.63685 0.5Z" stroke-width="1"/><path stroke="currentColor" stroke-linecap="round" stroke-linejoin="round" d="M10.0001 5.46436c-0.79912 0 -1.54826 0.02321 -2.20904 0.07863 -0.49075 0.04116 -0.99581 0.26362 -1.17491 0.72236C6.53781 6.466 6.5 6.69501 6.5 7.00649c0 0.31148 0.03781 0.54049 0.11615 0.74114 0.1791 0.45875 0.68416 0.6812 1.17491 0.72236 0.66077 0.05541 1.4099 0.07861 2.20894 0.07861 0.7991 0 1.5482 -0.02321 2.2089 -0.07863 0.4908 -0.04116 0.9958 -0.26361 1.1749 -0.72235 0.0784 -0.20066 0.1162 -0.42966 0.1162 -0.74115 0 -0.31146 -0.0378 -0.54045 -0.1161 -0.74109 -0.179 -0.45877 -0.6841 -0.68123 -1.1748 -0.72239 -0.6608 -0.05542 -1.41 -0.07863 -2.209 -0.07863Z" stroke-width="1"/><path stroke="currentColor" stroke-linecap="round" stroke-linejoin="round" d="M10.0001 10.4158c-0.79912 0 -1.54826 0.0232 -2.20904 0.0786 -0.49075 0.0412 -0.99581 0.2636 -1.17491 0.7224 -0.07834 0.2006 -0.11615 0.4296 -0.11615 0.7411s0.03781 0.5405 0.11615 0.7411c0.1791 0.4588 0.68416 0.6812 1.17491 0.7224 0.66077 0.0554 1.4099 0.0786 2.20894 0.0786 0.7991 0 1.5482 -0.0232 2.2089 -0.0786 0.4908 -0.0412 0.9958 -0.2636 1.1749 -0.7224 0.0784 -0.2006 0.1162 -0.4296 0.1162 -0.7411s-0.0378 -0.5405 -0.1161 -0.7411c-0.179 -0.4588 -0.6841 -0.6812 -1.1748 -0.7224 -0.6608 -0.0554 -1.41 -0.0786 -2.209 -0.0786Z" stroke-width="1"/></svg>