<svg xmlns="http://www.w3.org/2000/svg" fill="none" viewBox="0 0 14 14"><desc>Triangle Arrow Split Vertical Up 2 Streamline Icon: https://streamlinehq.com</desc><g stroke="currentColor" stroke-linecap="round" stroke-linejoin="round"><path d="M7 5.997V13M3.307 3.647c1.116 1.198 2.5 2.35 3.693 2.35s2.577-1.152 3.693-2.35M12.902 4.18c.127-.828.127-1.796.02-2.449a.77.77 0 0 0-.636-.636c-.652-.107-1.594-.153-2.448.02-.488.1-.676.63-.393 1.053.257.384.618.848 1.087 1.317.47.47.934.83 1.317 1.087.423.284.954.095 1.053-.392M1.098 4.18c-.127-.828-.127-1.796-.02-2.449a.77.77 0 0 1 .636-.636c.653-.107 1.594-.153 2.448.02.488.1.676.63.393 1.053a9 9 0 0 1-1.087 1.317c-.47.47-.934.83-1.317 1.087-.423.284-.954.095-1.053-.392"/></g></svg>