<svg xmlns="http://www.w3.org/2000/svg" fill="none" viewBox="0 0 14 14"><desc>Ui Phone Slider Vertical Streamline Icon: https://streamlinehq.com</desc><g stroke="currentColor" stroke-linecap="round" stroke-linejoin="round"><path d="M12.065 11.381c-.092.974-.792 1.76-1.68 1.882a24.3 24.3 0 0 1-6.77 0c-.888-.122-1.588-.908-1.68-1.882m10.13-8.762c-.092-.974-.792-1.76-1.68-1.882a24.3 24.3 0 0 0-6.77 0c-.888.123-1.588.908-1.68 1.882M2.596 5.03c-.412.017-.773.323-.902.75-.26.865-.26 1.575 0 2.44.129.427.49.733.902.75 2.945.119 5.862.119 8.808 0 .411-.017.773-.323.902-.75.26-.865.26-1.575 0-2.44-.13-.427-.49-.733-.902-.75-2.946-.119-5.863-.119-8.808 0"/><path d="M7.95 3.152c-.19-.416-.57-.832-.95-1.04-.38.208-.76.624-.95 1.04M7.95 10.848c-.19.416-.57.832-.95 1.04-.38-.208-.76-.624-.95-1.04"/></g></svg>