<svg viewBox="0 0 17 17" version="1.1" xmlns="http://www.w3.org/2000/svg" xmlns:xlink="http://www.w3.org/1999/xlink"><g transform="translate(1 1)" stroke="currentColor" stroke-width="1" fill="none" fill-rule="evenodd" stroke-linecap="round" stroke-linejoin="round"><path d="M11.3236436,14.8571429 C8.51955214,14.5509714 5.77414643,14.5509714 2.97003214,14.8571429"/><path d="M8.89655786,11.6153143 C7.72624929,11.6546286 6.56122071,11.6546286 5.39091214,11.6152 L4.84374643,14.6976 C6.380295,14.6041143 7.90694643,14.604 9.44344929,14.6971429 L8.89655786,11.6153143 Z"/><path d="M13.3869579,2.73309714 C13.519415,3.09755429 13.7710721,3.33616 14.1421579,3.44890286 C14.506615,3.31649143 14.7451293,3.06478857 14.8579293,2.69378286"/><path d="M8.80218071,3.52538286 C8.67012357,3.16190857 8.419095,2.92394286 8.04908357,2.81150857 C7.68560929,2.94355429 7.447655,3.19458286 7.33520929,3.56459429"/><path d="M13.4125579,5.42986286 C12.8814721,5.96387429 12.0989579,6.24662857 11.0965579,6.24662857 C9.09762071,6.24662857 7.97320929,5.12222857 7.97320929,3.12329143 C7.97320929,3.03083429 7.97562071,2.94025143 7.98040929,2.85156571"/><path d="M8.824215,0.775131429 C9.35415786,0.268070857 10.1216893,2.22044605e-16 11.0977007,2.22044605e-16 C13.0966721,2.22044605e-16 14.221015,1.1244 14.221015,3.12333714 C14.221015,3.22021714 14.2183864,3.31504 14.2131293,3.40777143"/><path d="M14.2151864,7.88861714 C14.1758721,8.38532571 14.1203293,8.88545143 14.0483293,9.39182857 C13.8934721,10.4815086 13.0116436,11.3290286 11.9364436,11.4261714 C8.70539214,11.7177143 5.580535,11.7177143 2.34951786,11.4261714 C1.27428357,11.3290286 0.392434429,10.48152 0.237601286,9.39184 C-0.0791998571,7.16227429 -0.079201,5.054 0.237601286,2.82443429 C0.392434429,1.73475429 1.27428357,0.887188571 2.34951786,0.790148571 C3.668535,0.671108571 4.96986071,0.600674286 6.26794071,0.578822857"/></g></svg>