<svg xmlns="http://www.w3.org/2000/svg" fill="none" viewBox="-0.35 -0.35 14 14" id="Cloud-Upload--Streamline-Flex"><g id="cloud-upload--cloud-server-internet-upload-up-arrow-network"><path id="Subtract" stroke="currentColor" stroke-linecap="round" stroke-linejoin="round" d="M2.7163444999999995 8.876714499999999C1.4725095000000001 8.350271999999999 0.475 7.414161 0.475 5.7513475c0 -1.9390165 1.0906949999999997 -3.0297115 3.0297115 -3.0297115l0.037629499999999996 0.00013299999999999998C3.9671429999999996 1.270169 5.149152 0.475 6.94963 0.475c2.1944335 0 3.47016 1.1812205 3.575895 3.2924624999999996 1.47269 0.0256975 2.299475 0.875368 2.299475 2.3680934999999996 0 1.5889985 -0.9782150000000001 2.4394479999999996 -2.178255 2.894137" stroke-width=".7"/><path id="Vector" stroke="currentColor" stroke-linecap="round" stroke-linejoin="round" d="M4.763423499999999 9.52584c0.6780719999999999 -0.827583 1.0915404999999998 -1.2411275 1.8863295 -1.886282 0.794789 0.6451545 1.208248 1.0586989999999998 1.8863295 1.886282" stroke-width=".7"/><path id="Vector_2" stroke="currentColor" stroke-linecap="round" stroke-linejoin="round" d="m6.6499619999999995 12.673094999999998 0 -5.023590499999999" stroke-width=".7"/><path id="Vector 2591" stroke="currentColor" stroke-linecap="round" stroke-linejoin="round" d="M3.4752899999999998 2.723194c1.118739 0 2.1192694999999997 0.73739 2.434888 1.4110824999999998" stroke-width=".7"/></g></svg>