<svg xmlns="http://www.w3.org/2000/svg" fill="none" viewBox="0 0 14 14"><g stroke="currentColor" stroke-linecap="round" stroke-linejoin="round"><path d="M7 8.198V.75M4.656 3.094C5.125 2.156 6.063 1.219 7 .75c.938.469 1.875 1.406 2.344 2.344M11.57 3.63c.745.095 1.334.64 1.435 1.355.114.805.236 1.968.245 3.31a25 25 0 0 1-.245 3.31c-.1.715-.69 1.26-1.435 1.354a36 36 0 0 1-9.14 0c-.746-.094-1.334-.639-1.435-1.353a25 25 0 0 1-.245-3.31C.76 6.951.88 5.79.995 4.983c.1-.714.69-1.26 1.434-1.354"/></g></svg>