<svg xmlns="http://www.w3.org/2000/svg" fill="none" viewBox="0 0 14 14"><path stroke="currentColor" stroke-linecap="round" stroke-linejoin="round" d="M2.85931 9.34391C1.55001 8.78976 0.5 7.80438 0.5 6.05405c0 -2.04107 1.1481 -3.18917 3.18917 -3.18917l0.03961 0.00014C4.17594 1.33702 5.42016 0.5 7.3154 0.5c2.30993 0 3.6528 1.24339 3.7641 3.46575 1.5502 0.02705 2.4205 0.92144 2.4205 2.49273 0 1.67263 -1.0297 2.56784 -2.2929 3.04646" stroke-width="1"/><path stroke="currentColor" stroke-linecap="round" stroke-linejoin="round" d="M5.01413 10.0272c0.71376 -0.87114 1.14899 -1.30645 1.98561 -1.98556 0.83662 0.67911 1.27184 1.11442 1.98561 1.98556" stroke-width="1"/><path stroke="currentColor" stroke-linecap="round" stroke-linejoin="round" d="m6.99996 13.3401 0 -5.28799" stroke-width="1"/><path stroke="currentColor" stroke-linecap="round" stroke-linejoin="round" d="M3.6582 2.86652c1.17762 0 2.23081 0.7762 2.56304 1.48535" stroke-width="1"/></svg>