<svg xmlns="http://www.w3.org/2000/svg" fill="none" viewBox="-0.375 -0.375 14 14" id="Cloud-Upload--Streamline-Flex"><g id="cloud-upload--cloud-server-internet-upload-up-arrow-network"><path id="Subtract" stroke="currentColor" stroke-linecap="round" stroke-linejoin="round" d="M2.706132678571428 8.843343392857141C1.46697375 8.318879999999998 0.4732142857142857 7.386288214285714 0.4732142857142857 5.729725892857143c0 -1.9317269642857142 1.0865946428571427 -3.0183216071428567 3.0183216071428567 -3.0183216071428567l0.03748803571428571 0.0001325C3.952228928571428 1.2653939285714286 5.1297942857142855 0.4732142857142857 6.923503571428571 0.4732142857142857c2.18618375 0 3.457114285714286 1.1767798214285714 3.5624517857142854 3.2800848214285714 1.4671535714285715 0.025600892857142857 2.290830357142857 0.8720771428571429 2.290830357142857 2.359190892857143 0 1.5830248214285714 -0.9745375000000001 2.430277142857143 -2.1700660714285713 2.883256785714286" stroke-width=".75"/><path id="Vector" stroke="currentColor" stroke-linecap="round" stroke-linejoin="round" d="M4.745515892857142 9.49002857142857c0.6755228571428571 -0.8244717857142857 1.0874369642857142 -1.236461607142857 1.8792380357142857 -1.8791907142857143 0.7918010714285715 0.6427291071428571 1.2037057142857144 1.0547189285714285 1.8792380357142857 1.8791907142857143" stroke-width=".75"/><path id="Vector_2" stroke="currentColor" stroke-linecap="round" stroke-linejoin="round" d="m6.624962142857142 12.625451785714285 0 -5.004704821428571" stroke-width=".75"/><path id="Vector 2591" stroke="currentColor" stroke-linecap="round" stroke-linejoin="round" d="M3.4622249999999997 2.7129564285714283c1.114533214285714 0 2.111302321428571 0.7346178571428571 2.4257342857142854 1.4057776785714284" stroke-width=".75"/></g></svg>