<svg xmlns="http://www.w3.org/2000/svg" fill="none" viewBox="0 0 14 14"><path stroke="currentColor" stroke-linecap="round" stroke-linejoin="round" d="M7.91201 8.22082c-0.86371 -0.36683 -1.81385 -0.56976 -2.81139 -0.56976 -1.47362 0 -2.8438 0.44286 -3.98473 1.20274 -1.27196 0.84717 -0.413066 2.4811 1.11519 2.4811h3.65954" stroke-width="1"/><path stroke="currentColor" stroke-linecap="round" stroke-linejoin="round" d="M5.10236 5.70081c1.66425 0 2.6004 -0.93615 2.6004 -2.60041S6.76661 0.5 5.10236 0.5c-1.66426 0 -2.60041 0.93614 -2.60041 2.6004s0.93615 2.60041 2.60041 2.60041Z" stroke-width="1"/><path stroke="currentColor" stroke-linecap="round" stroke-linejoin="round" d="M11.1045 7.89686 8.23856 11.1488l-0.39263 1.8466c-0.06318 0.2972 0.24655 0.5783 0.53661 0.4871l1.83766 -0.5777 2.9603 -3.11485c0.4916 -0.51734 0.4058 -1.38263 -0.1893 -1.90902 -0.5812 -0.51406 -1.4259 -0.50693 -1.8867 0.01593Z" stroke-width="1"/></svg>