<svg viewBox="0 0 17 17" version="1.1" xmlns="http://www.w3.org/2000/svg" xmlns:xlink="http://www.w3.org/1999/xlink"><g transform="translate(1 1)" stroke="currentColor" stroke-width="1" fill="none" fill-rule="evenodd" stroke-linecap="round" stroke-linejoin="round"><path d="M8.47458286,11.4117714 C8.72805714,11.1437714 9.02138286,10.9145143 9.34548571,10.7324 C9.89588571,10.4232114 10.5165829,10.2608114 11.1478857,10.2608114 C11.7792,10.2608114 12.3998857,10.4232114 12.9502857,10.7324 C13.1883429,10.8661714 13.4638857,11.0779429 13.6651429,11.2592 L13.9464,11.5357714"/><path d="M9.45981714,14.4556571 C9.34609143,13.0936 9.01314286,12.2354286 8.82707429,11.9202286 C8.43093714,11.2466286 7.87418286,10.6899771 7.21035429,10.3037143 C6.54651429,9.91745143 5.79792,9.71456 5.03651429,9.71456 C4.27510857,9.71456 3.52650286,9.91745143 2.86267429,10.3037143 C2.33259429,10.6121486 1.8708,11.0292571 1.50453714,11.5276571 L1.19196571,11.9824"/><path d="M7.42857143,14.8571429 C12.1828571,14.8571429 14.8571429,12.1828571 14.8571429,7.42857143 C14.8571429,2.67428571 12.1828571,0 7.42857143,0 C2.67428571,0 0,2.67428571 0,7.42857143 C0,12.1828571 2.67428571,14.8571429 7.42857143,14.8571429 Z"/><path d="M5.19482286,7.98123429 C6.65416,7.98123429 7.47502857,7.16036571 7.47502857,5.70102857 C7.47502857,4.24170286 6.65416,3.42083429 5.19482286,3.42083429 C3.73549714,3.42083429 2.91461714,4.24170286 2.91461714,5.70102857 C2.91461714,7.16036571 3.73549714,7.98123429 5.19482286,7.98123429 Z"/><path d="M11.1481143,8.57170286 C12.3257143,8.57170286 12.9881143,7.90929143 12.9881143,6.73165714 C12.9881143,5.55402286 12.3257143,4.8916 11.1481143,4.8916 C9.97045714,4.8916 9.30803429,5.55402286 9.30803429,6.73165714 C9.30803429,7.90929143 9.97045714,8.57170286 11.1481143,8.57170286 Z"/></g></svg>