<svg xmlns="http://www.w3.org/2000/svg" fill="none" viewBox="0 0 14 14"><desc>User Square Single Streamline Icon: https://streamlinehq.com</desc><g stroke="currentColor" stroke-linecap="round" stroke-linejoin="round"><path d="M.96 10.269a3.13 3.13 0 0 0 2.753 2.76c1.07.119 2.167.221 3.287.221s2.218-.102 3.287-.222a3.13 3.13 0 0 0 2.753-2.76c.114-1.063.21-2.155.21-3.268s-.096-2.205-.21-3.269a3.13 3.13 0 0 0-2.753-2.76C9.217.853 8.12.75 7 .75S4.782.852 3.713.972A3.13 3.13 0 0 0 .96 3.732C.846 4.794.75 5.886.75 7s.096 2.205.21 3.269"/><path d="m10.743 12.942.013-.048a3.833 3.833 0 0 0-6.182-2.205c-.675.552-1.167 1.39-1.35 2.244q.239.068.489.095c1.07.12 2.167.222 3.287.222s2.218-.102 3.287-.222q.234-.026.456-.086M7 8.244c1.4 0 2.187-.787 2.187-2.187S8.4 3.871 7 3.871s-2.187.787-2.187 2.186S5.601 8.244 7 8.244"/></g></svg>