<svg viewBox="0 0 16 16" version="1.1" xmlns="http://www.w3.org/2000/svg" xmlns:xlink="http://www.w3.org/1999/xlink"><g transform="translate(1 1)" stroke="currentColor" stroke-width="1" fill="none" fill-rule="evenodd" stroke-linecap="round" stroke-linejoin="round"><path d="M0.239848,10.8782857 C0.416,12.5248 1.74022857,13.8490286 3.38589714,14.0324571 C4.60824,14.1686857 5.86328,14.2857143 7.14285714,14.2857143 C8.42243429,14.2857143 9.67747429,14.1686857 10.8997714,14.0324571 C12.5454857,13.8490286 13.8697143,12.5248 14.0458286,10.8782857 C14.1758857,9.66288 14.2857143,8.41502857 14.2857143,7.14285714 C14.2857143,5.87067429 14.1758857,4.62283429 14.0458286,3.40739429 C13.8697143,1.76093714 12.5454857,0.436697143 10.8997714,0.253267429 C9.67747429,0.117019429 8.42243429,0 7.14285714,0 C5.86328,0 4.60824,0.117019429 3.38589714,0.253267429 C1.74022857,0.436697143 0.416,1.76093714 0.239848,3.40739429 C0.109809143,4.62283429 0,5.87067429 0,7.14285714 C0,8.41502857 0.109810286,9.66288 0.239848,10.8782857 Z"/><line x1="3.71428571" y1="4.28571429" x2="7.14285714" y2="4.28571429"/><line x1="10.5714286" y1="10" x2="7.14285714" y2="10"/><path d="M7.14285714,4.28571429 C7.14285714,5.38285714 7.76,6 8.85714286,6 C9.95428571,6 10.5714286,5.38285714 10.5714286,4.28571429 C10.5714286,3.18857143 9.95428571,2.57142857 8.85714286,2.57142857 C7.76,2.57142857 7.14285714,3.18857143 7.14285714,4.28571429 Z"/><path d="M3.71428571,10 C3.71428571,11.0971429 4.33142857,11.7142857 5.42857143,11.7142857 C6.52571429,11.7142857 7.14285714,11.0971429 7.14285714,10 C7.14285714,8.90285714 6.52571429,8.28571429 5.42857143,8.28571429 C4.33142857,8.28571429 3.71428571,8.90285714 3.71428571,10 Z"/></g></svg>