<svg xmlns="http://www.w3.org/2000/svg" fill="none" viewBox="0 0 14 14"><desc>View Side By Side Streamline Icon: https://streamlinehq.com</desc><g stroke="currentColor" stroke-linecap="round"><path d="M.837 3.581h4.726M8.68 3.581h4.414"/><path stroke-linejoin="round" d="M5.755 10.626q-.018.483-.04.967a1.59 1.59 0 0 1-1.176 1.459c-.883.23-1.686.23-2.57 0a1.59 1.59 0 0 1-1.175-1.459 99 99 0 0 1 0-9.186A1.59 1.59 0 0 1 1.97.95a4.9 4.9 0 0 1 2.57 0 1.59 1.59 0 0 1 1.176 1.458q.055 1.19.081 2.375M8.339 10.626q.018.483.04.967a1.59 1.59 0 0 0 1.175 1.459c.884.23 1.687.23 2.57 0a1.59 1.59 0 0 0 1.176-1.459 99 99 0 0 0 0-9.186A1.59 1.59 0 0 0 12.124.95a4.9 4.9 0 0 0-2.57 0A1.59 1.59 0 0 0 8.38 2.407q-.055 1.19-.082 2.375M10.887 7.673H3.073"/><path stroke-linejoin="round" d="M4.555 9.154a3.57 3.57 0 0 1-1.482-1.481A3.57 3.57 0 0 1 4.555 6.19M9.54 9.154a3.57 3.57 0 0 0 1.48-1.481A3.57 3.57 0 0 0 9.54 6.19"/></g></svg>