<svg xmlns="http://www.w3.org/2000/svg" fill="none" viewBox="0 0 14 14" id="Web-Browser-Tab-Move--Streamline-Flex"><desc>Web Browser Tab Move Streamline Icon: https://streamlinehq.com</desc><g id="web-browser-tab-move--web-browser-tab-move-adjustment-shift-placement"><path id="Intersect" stroke="currentColor" stroke-linecap="round" stroke-linejoin="round" d="M13.0684 4 0.931641 4c0.009259 -0.08971 0.018689 -0.17922 0.028245 -0.26853C1.11402 2.29082 2.27272 1.13211 3.71267 0.971609 4.78222 0.852392 5.88039 0.75 7.00002 0.75s2.21779 0.102392 3.28738 0.221609c1.4399 0.160501 2.5986 1.319211 2.7528 2.759861 0.0095 0.08931 0.0189 0.17882 0.0282 0.26853Z" stroke-width="1"/><path id="Intersect_2" stroke="currentColor" stroke-linecap="round" stroke-linejoin="round" d="M0.96001 10.268c0.07941 0.7035 0.39481 1.3593 0.89476 1.8605 0.49996 0.5012 1.15497 0.8183 1.85824 0.8995 1.07 0.12 2.167 0.222 3.287 0.222s2.218 -0.102 3.28699 -0.222c0.7033 -0.0812 1.3583 -0.3983 1.8582 -0.8995 0.5 -0.5012 0.8154 -1.157 0.8948 -1.8605 0.114 -1.063 0.21 -2.155 0.21 -3.268s-0.096 -2.205 -0.21 -3.269c-0.0794 -0.70347 -0.3948 -1.35929 -0.8948 -1.86051 -0.4999 -0.50123 -1.1549 -0.81829 -1.8582 -0.89949C9.21701 0.853 8.12001 0.75 7.00001 0.75c-1.12 0 -2.218 0.102 -3.287 0.222 -0.70327 0.0812 -1.35828 0.39826 -1.85824 0.89949 -0.49995 0.50122 -0.81535 1.15704 -0.89476 1.86051 -0.087163 0.81198 -0.163802 1.64151 -0.195056 2.48499" stroke-width="1"/><path id="Vector" stroke="currentColor" stroke-linecap="round" stroke-linejoin="round" d="m0.5 8.25391 7.37203 0" stroke-width="1"/><path id="Vector_2" stroke="currentColor" stroke-linecap="round" stroke-linejoin="round" d="M6.07646 6.26758c0.79442 0.39721 1.58883 1.19162 1.98604 1.98601 -0.39721 0.79444 -1.19162 1.58886 -1.98604 1.98611" stroke-width="1"/></g></svg>