<svg xmlns="http://www.w3.org/2000/svg" fill="none" viewBox="0 0 14 14"><path stroke="currentColor" stroke-linecap="round" stroke-linejoin="round" d="M9.28362 11.8739c0.33344 -0.0263 0.66783 -0.0582 1.00358 -0.0959 1.4308 -0.1652 2.5914 -1.3288 2.753 -2.76 0.2021 -1.88441 0.2019 -3.65259 0 -5.537 -0.1616 -1.43125 -1.3222 -2.5948 -2.753 -2.760003 -2.2118 -0.243918 -4.36234 -0.247269 -6.574 0.001C2.28237 0.8872 1.12177 2.05075 0.960201 3.482c-0.202238 1.88401 -0.202048 3.65199 0 5.536 0.161569 1.4312 1.322169 2.5948 2.752999 2.76 0.33602 0.0377 0.67067 0.0696 1.00438 0.0959" stroke-width="1"/><path stroke="currentColor" stroke-linecap="round" stroke-linejoin="round" d="m13.0684 3.75 -12.136759 0c0.009259 -0.08971 0.018689 -0.17922 0.028245 -0.26853C1.11402 2.04082 2.27272 0.882112 3.71267 0.721609 4.78222 0.602392 5.88039 0.5 7.00002 0.5s2.21779 0.102392 3.28738 0.221609c1.4399 0.160503 2.5986 1.319211 2.7528 2.759861 0.0095 0.08931 0.0189 0.17882 0.0282 0.26853Z" stroke-width="1"/><path stroke="currentColor" stroke-linecap="round" stroke-linejoin="round" d="m6.99951 13.5 0 -6.37891" stroke-width="1"/><path stroke="currentColor" stroke-linecap="round" stroke-linejoin="round" d="M4.97607 9.14474c0.40473 -0.80946 1.21419 -1.61892 2.02362 -2.02365 0.80949 0.40473 1.61895 1.21419 2.02368 2.02365" stroke-width="1"/></svg>