<svg xmlns="http://www.w3.org/2000/svg" fill="none" viewBox="0 0 14 14"><path stroke="currentColor" stroke-linecap="round" stroke-linejoin="round" d="M7 6.99976 0.5 13.5" stroke-width="1"/><path stroke="currentColor" stroke-linejoin="round" d="M11.7895 4.56877c0.4978 -0.82499 0.8006 -1.64513 0.9235 -2.55175 0.058 -0.42773 -0.3007 -0.78651 -0.7285 -0.72873 -0.9071 0.12253 -1.7282 0.42441 -2.55326 0.92225C8.78965 1.52157 8.10093 0.985022 7.29749 0.573719c-0.39093 -0.200126 -0.85678 0.025373 -0.93689 0.457181 -0.16599 0.89476 -0.133 1.76155 0.09727 2.69465 -0.84109 0.38997 -1.55009 0.88389 -2.18788 1.50874 -0.32144 0.31492 -0.24901 0.84234 0.1493 1.05171 0.79376 0.41722 1.61887 0.65539 2.55917 0.7341 0.07871 0.94039 0.31777 1.76642 0.73547 2.56065 0.20947 0.39827 0.73687 0.47075 1.05178 0.14927 0.62485 -0.6378 1.11877 -1.3468 1.50879 -2.18789 0.9331 0.23028 1.7998 0.26326 2.6946 0.09727 0.4318 -0.0801 0.6573 -0.54596 0.4572 -0.93689 -0.4113 -0.80344 -0.9479 -1.49216 -1.6368 -2.13374Z" stroke-width="1"/></svg>