<svg xmlns="http://www.w3.org/2000/svg" fill="none" viewBox="0 0 14 14"><path stroke="currentColor" stroke-linecap="round" stroke-linejoin="round" d="M3.76851 2.9164C2.33369 3.79349 1.5625 5.37796 1.5625 7.56224c0 0.45397 0.03331 0.88203 0.09897 1.28321M12.3965 6.71948c-0.2565 -2.5421 -1.7091 -4.11358 -4.14406 -4.50073M4.11299 12.3987c0.79283 0.3958 1.76009 0.601 2.88701 0.601 2.01107 0 3.5137 -0.6537 4.4239 -1.8772" stroke-width="1"/><path stroke="currentColor" stroke-linecap="round" stroke-linejoin="round" d="M7 3.5c0.8 0 1.25 -0.45 1.25 -1.25S7.8 1 7 1s-1.25 0.45 -1.25 1.25S6.2 3.5 7 3.5Z" stroke-width="1"/><path stroke="currentColor" stroke-linecap="round" stroke-linejoin="round" d="M1.75 11.3438c0.8 0 1.25 -0.45 1.25 -1.25 0 -0.80005 -0.45 -1.25005 -1.25 -1.25005S0.5 9.29375 0.5 10.0938c0 0.8 0.45 1.25 1.25 1.25Z" stroke-width="1"/><path stroke="currentColor" stroke-linecap="round" stroke-linejoin="round" d="M12.25 11.3438c0.8 0 1.25 -0.45 1.25 -1.25 0 -0.80005 -0.45 -1.25005 -1.25 -1.25005s-1.25 0.45 -1.25 1.25005c0 0.8 0.45 1.25 1.25 1.25Z" stroke-width="1"/></svg>