<svg xmlns="http://www.w3.org/2000/svg" fill="none" viewBox="0 0 14 14"><g stroke="currentColor" stroke-linecap="round" stroke-linejoin="round"><path d="M10.352 1.498q.6.066 1.188.135a2.09 2.09 0 0 1 1.832 1.836q.067.585.13 1.182M10.352 12.498q.6-.066 1.188-.135a2.09 2.09 0 0 0 1.832-1.836q.067-.585.13-1.182M3.651 1.498q-.6.066-1.188.135A2.09 2.09 0 0 0 .631 3.469Q.565 4.054.5 4.65M3.651 12.498q-.6-.066-1.188-.135a2.09 2.09 0 0 1-1.832-1.836Q.565 9.942.5 9.345M4.647 3.32a2.44 2.44 0 0 0-1.34.545 1.8 1.8 0 0 0-.647 1.132C2.573 5.649 2.5 6.317 2.5 7c0 .682.073 1.351.16 2.003.058.428.287.827.647 1.132s.834.497 1.34.545c.765.07 1.552.128 2.353.128s1.588-.058 2.354-.128c.506-.048.978-.24 1.34-.545.36-.305.588-.704.647-1.132.085-.652.159-1.32.159-2.003s-.073-1.352-.16-2.003a1.8 1.8 0 0 0-.647-1.132 2.44 2.44 0 0 0-1.34-.546c-.765-.07-1.55-.128-2.353-.128-.802 0-1.588.059-2.353.128"/></g></svg>