<svg xmlns="http://www.w3.org/2000/svg" viewBox="0 0 43 56"><path d="M30.48,0H1.46C.66,0,0,.65,0,1.93v53.07c0,.35.65,1,1.46,1h40.07c.81,0,1.46-.65,1.46-1V12.98c0-.7-.09-.92-.26-1.09L31.11.26C30.94.09,30.72,0,30.49,0" fill="#e4e4e7" fill-rule="evenodd"/><path d="M31,.15v8.75c0,1.71,1.39,3.1,3.1,3.1h8.75L31,.15Z" fill="#a1a1aa" fill-rule="evenodd"/><path d="M20.51,42h.99c.28,0,.51.23.51.51v12.93c0,.28-.23.51-.51.51h-.99c-.28,0-.51-.23-.51-.51v-12.93c0-.28.23-.51.51-.51ZM24,22.49v-.99c0-.28-.23-.51-.51-.51h-.99c-.28,0-.51-.23-.51-.51v-.99c0-.28-.23-.51-.51-.51h-.99c-.28,0-.51.23-.51.51v.99c0,.28-.23.51-.51.51h-.99c-.28,0-.51.23-.51.51v.99c0,.28.23.51.51.51h.99c.28,0,.51.23.51.51v.99c0,.28-.23.51-.51.51h-.99c-.28,0-.51.23-.51.51v.99c0,.28.23.51.51.51h.99c.28,0,.51.23.51.51v.99c0,.28-.23.51-.51.51h-.99c-.28,0-.51.23-.51.51v.99c0,.28.23.51.51.51h.99c.28,0,.51.23.51.51v1.99c0,.28.23.51.51.51h.99c.28,0,.51-.23.51-.51v-1.99c0-.28.23-.51.51-.51h.99c.28,0,.51-.23.51-.51v-.99c0-.28-.23-.51-.51-.51h-.99c-.28,0-.51-.23-.51-.51v-.99c0-.28.23-.51.51-.51h.99c.28,0,.51-.23.51-.51v-.99c0-.28-.23-.51-.51-.51h-.99c-.28,0-.51-.23-.51-.51v-.99c0-.28.23-.51.51-.51h.99c.28,0,.51-.23.51-.51Z" fill="#c8bdb8" fill-rule="evenodd"/><path d="M17.5,34h8v8h-8v-8Z" fill="#cbb292" fill-rule="evenodd"/><path d="M17.97,34h6.06c.54,0,.97.44.97.97v6.06c0,.54-.44.97-.97.97h-6.06c-.54,0-.97-.44-.97-.97v-6.06c0-.54.44-.97.97-.97ZM25,37h-8,8Z" fill="none" stroke="#a1a1aa" stroke-width="2"/></svg>
