<svg clip-rule="evenodd" fill-rule="evenodd" viewBox="0 0 43 56" xmlns="http://www.w3.org/2000/svg"><path d="m30.485 0h-29.022c-.808 0-1.463.655-1.463 1.926v53.074c0 .345.655 1 1.463 1h40.074c.808 0 1.463-.655 1.463-1v-42.022c0-.696-.093-.92-.257-1.085l-11.636-11.636c-.165-.164-.389-.257-.622-.257" fill="#e4e4e7"/><path d="m31 .151v11.849h11.849z" fill="#a1a1aa"/><path d="m20 42h2v13.94h-2zm4-19v-2h-2v-2h-2v2h-2v2h2v2h-2v2h2v2h-2v2h2v3h2v-3h2v-2h-2v-2h2v-2h-2v-2z" fill="#c8bdb8"/><path d="m17 34h8v8h-8z" fill="#cbb292"/><path d="m17 34h8v8h-8zm8 3h-8z" fill="none" stroke="#a1a1aa" stroke-width="2"/></svg>