<svg width="42" height="59" viewBox="0 0 42 59" xmlns="http://www.w3.org/2000/svg"><g fill="none" fill-rule="evenodd"><path d="M42 12.014H32a2 2 0 01-2-2v-10l12 12z" fill="#DDE3E9"/><path d="M42 12.014H32a2 2 0 01-2-2v-10H2a2 2 0 00-2 2v54a2 2 0 002 2h38a2 2 0 002-2v-44z" fill="#DDE3E9"/><path d="M18 41.014a4 4 0 010-8h4v4a4 4 0 01-4 4" fill="#F38774"/><path d="M21 34.014h-.002A1 1 0 0120 33.012l.031-19a1 1 0 011.755-.653l4.154 4.784a8.487 8.487 0 011.657 8.241l-.613 1.933a1 1 0 11-1.906-.606l.617-1.946a6.487 6.487 0 00-1.262-6.309l-2.406-2.77L22 33.016a1 1 0 01-1 .998" fill="#F38774"/><path d="M36 49.014H26a1 1 0 110-2h10a1 1 0 110 2M31 53.014h-5a1 1 0 110-2h5a1 1 0 110 2M36 53.014h-1a1 1 0 110-2h1a1 1 0 110 2" fill="#A7B3BE"/></g></svg>