<svg clip-rule="evenodd" fill-rule="evenodd" stroke-linejoin="round" stroke-miterlimit="2" viewBox="0 0 42 59" xmlns="http://www.w3.org/2000/svg"><path d="m42 12.014h-10c-1.097 0-2-.903-2-2v-10z" fill="#a1a1aa"/><path d="m42 12.014h-10c-1.097 0-2-.903-2-2v-10h-28c-1.097 0-2 .903-2 2v55c0 1.097.903 2 2 2h38c1.097 0 2-.903 2-2z" fill="#e4e4e7"/><path d="m18 41.014c-2.194 0-4-1.806-4-4s1.806-4 4-4h4v4c0 2.194-1.806 4-4 4" fill="#f38774"/><path d="m21 34.014h-.002c-.548-.001-.998-.452-.998-1 0-.001 0-.001 0-.002l.031-19c.001-.548.452-.997 1-.997.289 0 .565.125.755.344l4.154 4.784c1.967 2.259 2.598 5.398 1.657 8.241l-.613 1.933c-.132.414-.519.697-.953.697-.549 0-1-.451-1-1 0-.103.016-.205.047-.303l.617-1.946c.724-2.176.244-4.58-1.262-6.309l-2.406-2.77-.027 16.33c-.001.548-.452.998-1 .998" fill="#f38774"/><path d="m36 49.014h-10c-.549 0-1-.451-1-1s.451-1 1-1h10c.549 0 1 .451 1 1s-.451 1-1 1m-5 4h-5c-.549 0-1-.451-1-1s.451-1 1-1h5c.549 0 1 .451 1 1s-.451 1-1 1m5 0h-1c-.549 0-1-.451-1-1s.451-1 1-1h1c.549 0 1 .451 1 1s-.451 1-1 1" fill="#a1a1aa"/></svg>