<svg xmlns="http://www.w3.org/2000/svg" viewBox="0 0 42 59"><g fill="none" fill-rule="evenodd"><path fill="#DDE3E9" d="M42 12.014H32a2 2 0 0 1-2-2v-10l12 12z"/><path fill="#DDE3E9" d="M42 12.014H32a2 2 0 0 1-2-2v-10H2a2 2 0 0 0-2 2v54a2 2 0 0 0 2 2h38a2 2 0 0 0 2-2v-44z"/><path fill="#F38774" d="M18 41.014a4 4 0 0 1 0-8h4v4a4 4 0 0 1-4 4"/><path fill="#F38774" d="M21 34.014h-.002A1 1 0 0 1 20 33.012l.031-19a1 1 0 0 1 1.755-.653l4.154 4.784a8.487 8.487 0 0 1 1.657 8.241l-.613 1.933a1 1 0 1 1-1.906-.606l.617-1.946a6.487 6.487 0 0 0-1.262-6.309l-2.406-2.77L22 33.016a1 1 0 0 1-1 .998"/><path fill="#A7B3BE" d="M36 49.014H26a1 1 0 1 1 0-2h10a1 1 0 1 1 0 2m-5 4h-5a1 1 0 1 1 0-2h5a1 1 0 1 1 0 2m5 0h-1a1 1 0 1 1 0-2h1a1 1 0 1 1 0 2"/></g></svg>