<svg clip-rule="evenodd" fill-rule="evenodd" stroke-linejoin="round" stroke-miterlimit="2" viewBox="0 0 42 59" xmlns="http://www.w3.org/2000/svg"><path d="m42 12.014h-10c-1.097 0-2-.903-2-2v-10z" fill="#a1a1aa"/><path d="m42 12.014h-10c-1.097 0-2-.903-2-2v-10h-28c-1.097 0-2 .903-2 2v55c0 1.097.903 2 2 2h38c1.097 0 2-.903 2-2z" fill="#e4e4e7"/><path d="m8.72 24.014 1.28-3.838 1.279 3.838zm6.229 4.684-4-12c-.136-.407-.519-.683-.948-.683-.43 0-.813.276-.949.683l-4 12c-.034.102-.052.209-.052.317 0 .429.277.812.684.947.102.034.21.052.318.052.429 0 .812-.277.947-.684l1.105-3.316h3.892l1.106 3.316c.136.407.519.684.949.684.548 0 .999-.452.999-1 0-.107-.017-.214-.051-.316z" fill="#71c385"/><path d="m36 18.014h-18c-.549 0-1-.451-1-1s.451-1 1-1h18c.549 0 1 .451 1 1s-.451 1-1 1m0 6h-18c-.549 0-1-.451-1-1s.451-1 1-1h18c.549 0 1 .451 1 1s-.451 1-1 1m0 6h-18c-.549 0-1-.451-1-1s.451-1 1-1h18c.549 0 1 .451 1 1s-.451 1-1 1m0 6h-30c-.549 0-1-.451-1-1s.451-1 1-1h30c.549 0 1 .451 1 1s-.451 1-1 1m0 6h-30c-.549 0-1-.451-1-1s.451-1 1-1h30c.549 0 1 .451 1 1s-.451 1-1 1m0 6h-30c-.549 0-1-.451-1-1s.451-1 1-1h30c.549 0 1 .451 1 1s-.451 1-1 1" fill="#a1a1aa"/></svg>