<svg xmlns="http://www.w3.org/2000/svg" viewBox="0 0 42 59"><g fill="none" fill-rule="evenodd"><path fill="#A7B3BE" d="M42 12.014H32a2 2 0 0 1-2-2v-10l12 12z"/><path fill="#DDE3E9" d="M42 12.014H32a2 2 0 0 1-2-2v-10H2a2 2 0 0 0-2 2v54a2 2 0 0 0 2 2h38a2 2 0 0 0 2-2v-44z"/><path fill="#71C385" d="M8.72 24.014 10 20.176l1.279 3.838H8.72zm6.229 4.684-4-12a1 1 0 0 0-1.897 0l-4 12a.998.998 0 0 0 .632 1.264.998.998 0 0 0 1.265-.632l1.105-3.316h3.892l1.106 3.316a.999.999 0 1 0 1.897-.632z"/><path fill="#A7B3BE" d="M36 18.014H18a1 1 0 1 1 0-2h18a1 1 0 1 1 0 2m0 6H18a1 1 0 1 1 0-2h18a1 1 0 1 1 0 2m0 6H18a1 1 0 1 1 0-2h18a1 1 0 1 1 0 2m0 6H6a1 1 0 1 1 0-2h30a1 1 0 1 1 0 2m0 6H6a1 1 0 1 1 0-2h30a1 1 0 1 1 0 2m0 6H6a1 1 0 1 1 0-2h30a1 1 0 1 1 0 2"/></g></svg>