<svg xmlns="http://www.w3.org/2000/svg" viewBox="0 0 43 56"><path d="M30.49,0H1.46C.66,0,0,.65,0,1.93v53.07c0,.35.65,1,1.46,1h40.07c.81,0,1.46-.65,1.46-1V12.98c0-.7-.09-.92-.26-1.09L31.11.26C30.94.09,30.72,0,30.49,0" fill="#e4e4e7" fill-rule="evenodd"/><path d="M31,.15v8.93c0,1.61,1.31,2.92,2.92,2.92h8.93L31,.15Z" fill="#a1a1aa" fill-rule="evenodd"/><path d="M41.54,56H1.46c-.8,0-1.46-.66-1.46-1.46v-15.54h43v15.54c0,.81-.65,1.46-1.46,1.46" fill="#91cda0" fill-rule="evenodd"/><path d="M13.88,48.11l2.56,4.89h-1.9l-1.6-3.8h-.14l-1.72,3.8h-1.9l2.56-4.89-2.72-5.18h1.87l1.78,4.1h.14l1.93-4.1h1.87l-2.72,5.18ZM20.54,42.92v8.83h4.64v1.24h-6.3v-10.08h1.67ZM32.54,50.24c0,.37-.08.72-.23,1.06-.15.34-.36.64-.64.9-.27.26-.61.47-1.01.62-.44.16-.9.24-1.37.23-.22,0-.44-.01-.68-.03-.24-.02-.47-.06-.7-.12-.23-.05-.46-.13-.68-.22-.2-.09-.39-.21-.55-.35l.29-1.18c.13.07.29.14.49.21.2.07.4.13.61.19.21.06.42.11.63.14s.41.06.59.06c.56,0,.98-.13,1.28-.39s.44-.64.44-1.15c0-.31-.1-.57-.32-.79-.23-.24-.5-.44-.79-.6-.33-.19-.67-.37-1.02-.53-.36-.18-.7-.39-1.03-.63-.31-.24-.58-.52-.79-.85-.21-.33-.31-.74-.31-1.23,0-.45.08-.84.25-1.19.16-.34.38-.64.66-.88.28-.24.6-.43.97-.55.38-.13.77-.19,1.17-.19.42,0,.84.04,1.27.12.43.08.77.2,1.04.38-.06.13-.12.26-.19.39l-.2.4c-.06.12-.12.23-.16.31-.02.05-.05.09-.08.14-.06-.03-.13-.07-.18-.11-.09-.06-.19-.1-.29-.14-.16-.05-.33-.08-.51-.1-.27-.02-.54-.01-.81.01-.18.02-.36.07-.52.16-.16.09-.31.19-.44.32-.12.12-.23.27-.3.43-.07.16-.11.31-.11.46,0,.37.1.66.32.88.21.22.47.42.78.59s.65.33,1.01.49c.36.16.7.35,1.02.58.32.23.58.51.79.85.21.34.31.78.31,1.32" fill="#fff" fill-rule="evenodd"/><path d="M17,15v-2c0-.55-.45-1-1-1H6c-.55,0-1,.45-1,1v20c0,.55.45,1,1,1h31c.55,0,1-.45,1-1v-16c0-.55-.45-1-1-1h-19c-.55,0-1-.45-1-1ZM8,14h6c.55,0,1,.45,1,1h0c0,.55-.45,1-1,1h-6c-.55,0-1-.45-1-1h0c0-.55.45-1,1-1ZM8,18h6c.55,0,1,.45,1,1h0c0,.55-.45,1-1,1h-6c-.55,0-1-.45-1-1h0c0-.55.45-1,1-1ZM8,22h6c.55,0,1,.45,1,1h0c0,.55-.45,1-1,1h-6c-.55,0-1-.45-1-1h0c0-.55.45-1,1-1ZM8,26h6c.55,0,1,.45,1,1h0c0,.55-.45,1-1,1h-6c-.55,0-1-.45-1-1h0c0-.55.45-1,1-1ZM8,30h6c.55,0,1,.45,1,1h0c0,.55-.45,1-1,1h-6c-.55,0-1-.45-1-1h0c0-.55.45-1,1-1ZM18,30h17c.55,0,1,.45,1,1h0c0,.55-.45,1-1,1h-17c-.55,0-1-.45-1-1h0c0-.55.45-1,1-1ZM18,26h17c.55,0,1,.45,1,1h0c0,.55-.45,1-1,1h-17c-.55,0-1-.45-1-1h0c0-.55.45-1,1-1ZM18,22h17c.55,0,1,.45,1,1h0c0,.55-.45,1-1,1h-17c-.55,0-1-.45-1-1h0c0-.55.45-1,1-1ZM18,18h17c.55,0,1,.45,1,1h0c0,.55-.45,1-1,1h-17c-.55,0-1-.45-1-1h0c0-.55.45-1,1-1Z" fill="#c8bdb8" fill-rule="evenodd"/></svg>
