<svg clip-rule="evenodd" fill-rule="evenodd" stroke-linejoin="round" stroke-miterlimit="2" viewBox="0 0 43 56" xmlns="http://www.w3.org/2000/svg"><path d="m30.485 0h-29.022c-.808 0-1.463.655-1.463 1.926v53.074c0 .345.655 1 1.463 1h40.074c.808 0 1.463-.655 1.463-1v-42.022c0-.696-.093-.92-.257-1.085l-11.636-11.636c-.165-.164-.389-.257-.622-.257" fill="#e4e4e7"/><path d="m31 .151v11.849h11.849z" fill="#a1a1aa"/><path d="m41.537 56h-40.074c-.803 0-1.463-.66-1.463-1.463v-15.537h43v15.537c0 .808-.655 1.463-1.463 1.463" fill="#91cda0"/><path d="m13.879 48.106 2.557 4.894h-1.901l-1.599-3.801h-.137l-1.723 3.801h-1.9l2.556-4.894-2.72-5.182h1.873l1.777 4.101h.137l1.928-4.101h1.873zm6.658-5.182v8.832h4.635v1.244h-6.303v-10.076zm12.004 7.314c0 .365-.075.718-.226 1.06-.15.342-.362.642-.635.902-.274.26-.611.467-1.012.622-.437.161-.901.241-1.367.233-.219 0-.445-.012-.677-.034-.237-.024-.472-.063-.704-.117-.232-.053-.459-.128-.677-.225-.201-.087-.388-.205-.553-.349l.287-1.176c.127.073.289.144.485.212.196.069.398.132.608.192.21.059.419.107.629.143s.406.055.588.055c.556 0 .982-.13 1.278-.39s.445-.644.445-1.155c0-.31-.105-.574-.315-.793-.232-.236-.496-.436-.786-.595-.334-.188-.674-.365-1.018-.533-.362-.176-.705-.387-1.026-.629-.313-.235-.582-.524-.793-.854-.21-.328-.314-.739-.314-1.231 0-.446.082-.843.246-1.189.157-.337.383-.638.663-.882.278-.241.602-.426.971-.554.376-.129.771-.193 1.169-.191.419 0 .842.039 1.271.116.428.077.775.203 1.039.376-.061.131-.124.261-.191.39l-.205.396c-.064.123-.119.226-.164.308-.024.047-.052.092-.082.136-.064-.032-.126-.068-.185-.109-.092-.057-.191-.103-.294-.137-.164-.053-.334-.085-.506-.095-.269-.018-.538-.014-.806.013-.182.018-.359.072-.52.158-.164.086-.31.193-.437.321-.125.124-.227.27-.301.43-.073.16-.11.313-.11.458 0 .365.105.659.315.882.209.224.469.419.779.588s.647.333 1.012.492c.364.16.704.354 1.018.582.315.227.577.512.787.854.209.342.314.781.314 1.319" fill="#fff"/><path d="m17 16v-4h-12v22h33v-18zm-10-2h8v2h-8zm0 4h8v2h-8zm0 4h8v2h-8zm0 4h8v2h-8zm0 4h8v2h-8zm10 0h19v2h-19zm0-4h19v2h-19zm0-4h19v2h-19zm0-4h19v2h-19z" fill="#c8bdb8"/></svg>