<svg xmlns="http://www.w3.org/2000/svg" viewBox="0 0 24 24"><path fill="currentColor" d="M7.718 4.5c.4079477 0 .798387.165768 1.082.459l1.341 1.388c.0940027.0975216.2235493.1527322.359.153H20c.8284271 0 1.5.6715729 1.5 1.5v9.715c-.001653.9855331-.8004661 1.783899-1.786 1.785H4.286c-.9855339-.001101-1.784347-.7994669-1.786-1.785V6.285c.001653-.9855331.8004661-1.783899 1.786-1.785Zm4.4120156 5.5494075c-.076781-.0658766-.1929092-.0658766-.2696901 0l-2.7030301 2.2518728c-.0667355.0525363-.0913538.1399125-.0612932.2175439.0337691.0812033.1173399.1330751.2083968.1293504h.5577682c.0846282 0 .153233.0658092.153233.1469891v1.9108581c0 .1623597.1372095.2939782.306466.2939782h3.371126c.1692564 0 .3064659-.1316185.3064659-.2939782v-1.9108581c0-.0811799.0686048-.1469891.153233-.1469891h.5577682c.0866062-.0011812.1639757-.0522052.1961382-.1293504.0273749-.080142-.0023533-.168069-.0735518-.2175439Z"/></svg>
