<svg width="42" height="59" viewBox="0 0 42 59" xmlns="http://www.w3.org/2000/svg"><g fill="none" fill-rule="evenodd"><path d="M42 12.014H32a2 2 0 01-2-2v-10l12 12z" fill="#A7B3BE"/><path d="M42 12.014H32a2 2 0 01-2-2v-10H2a2 2 0 00-2 2v54a2 2 0 002 2h38a2 2 0 002-2v-44z" fill="#DDE3E9"/><path d="M24 13.014H6a1 1 0 110-2h18a1 1 0 110 2M36 19.014H6a1 1 0 110-2h30a1 1 0 110 2M36 25.014H6a1 1 0 110-2h30a1 1 0 110 2M36 31.014H6a1 1 0 110-2h30a1 1 0 110 2M36 37.014H6a1 1 0 110-2h30a1 1 0 110 2M36 43.014H6a1 1 0 110-2h30a1 1 0 110 2M36 49.014H6a1 1 0 110-2h30a1 1 0 110 2" fill="#A7B3BE"/></g></svg>