<svg clip-rule="evenodd" fill-rule="evenodd" stroke-linejoin="round" stroke-miterlimit="2" viewBox="0 0 42 59" xmlns="http://www.w3.org/2000/svg"><path d="m42 12.014h-10c-1.097 0-2-.903-2-2v-10z" fill="#a1a1aa"/><path d="m42 12.014h-10c-1.097 0-2-.903-2-2v-10h-28c-1.097 0-2 .903-2 2v55c0 1.097.903 2 2 2h38c1.097 0 2-.903 2-2z" fill="#e4e4e7"/><path d="m24 13.014h-18c-.549 0-1-.451-1-1s.451-1 1-1h18c.549 0 1 .451 1 1s-.451 1-1 1m12 6h-30c-.549 0-1-.451-1-1s.451-1 1-1h30c.549 0 1 .451 1 1s-.451 1-1 1m0 6h-30c-.549 0-1-.451-1-1s.451-1 1-1h30c.549 0 1 .451 1 1s-.451 1-1 1m0 6h-30c-.549 0-1-.451-1-1s.451-1 1-1h30c.549 0 1 .451 1 1s-.451 1-1 1m0 6h-30c-.549 0-1-.451-1-1s.451-1 1-1h30c.549 0 1 .451 1 1s-.451 1-1 1m0 6h-30c-.549 0-1-.451-1-1s.451-1 1-1h30c.549 0 1 .451 1 1s-.451 1-1 1m0 6h-30c-.549 0-1-.451-1-1s.451-1 1-1h30c.549 0 1 .451 1 1s-.451 1-1 1" fill="#a1a1aa"/></svg>