<svg xmlns="http://www.w3.org/2000/svg" viewBox="0 0 42 59"><g fill="none" fill-rule="evenodd"><path fill="#A7B3BE" d="M42 12.014H32a2 2 0 0 1-2-2v-10l12 12z"/><path fill="#DDE3E9" d="M42 12.014H32a2 2 0 0 1-2-2v-10H2a2 2 0 0 0-2 2v54a2 2 0 0 0 2 2h38a2 2 0 0 0 2-2v-44z"/><path fill="#A7B3BE" d="M24 13.014H6a1 1 0 1 1 0-2h18a1 1 0 1 1 0 2m12 6H6a1 1 0 1 1 0-2h30a1 1 0 1 1 0 2m0 6H6a1 1 0 1 1 0-2h30a1 1 0 1 1 0 2m0 6H6a1 1 0 1 1 0-2h30a1 1 0 1 1 0 2m0 6H6a1 1 0 1 1 0-2h30a1 1 0 1 1 0 2m0 6H6a1 1 0 1 1 0-2h30a1 1 0 1 1 0 2m0 6H6a1 1 0 1 1 0-2h30a1 1 0 1 1 0 2"/></g></svg>