<svg clip-rule="evenodd" fill-rule="evenodd" stroke-linejoin="round" stroke-miterlimit="2" viewBox="0 0 42 59" xmlns="http://www.w3.org/2000/svg"><g fill-rule="nonzero"><path d="m42 12.014h-10c-1.097 0-2-.903-2-2v-10z" fill="#a1a1aa"/><path d="m42 12.014h-10c-1.097 0-2-.903-2-2v-10h-28c-1.097 0-2 .903-2 2v55c0 1.097.903 2 2 2h38c1.097 0 2-.903 2-2z" fill="#e4e4e7"/><path d="m36 49.014h-10c-.549 0-1-.451-1-1s.451-1 1-1h10c.549 0 1 .451 1 1s-.451 1-1 1m-5 4h-5c-.549 0-1-.451-1-1s.451-1 1-1h5c.549 0 1 .451 1 1s-.451 1-1 1m5 0h-1c-.549 0-1-.451-1-1s.451-1 1-1h1c.549 0 1 .451 1 1s-.451 1-1 1" fill="#a1a1aa"/><path d="m6 15h29.25v26h-29.25z" fill="#424a60"/><path d="m15.75 23.125c0 1.605-1.32 2.925-2.925 2.925s-2.925-1.32-2.925-2.925 1.32-2.925 2.925-2.925 2.925 1.32 2.925 2.925" fill="#f0ce49"/><path d="m35.25 35.222-.636-.722-7.634-7.15-6.68 7.475 6.044 6.175h8.906z" fill="#199172"/><path d="m23.62 38.386-6.905-7.136-10.715 9.75h20.15z" fill="#25ae88"/></g></svg>