<svg width="42" height="59" viewBox="0 0 42 59" xmlns="http://www.w3.org/2000/svg"><g fill-rule="nonzero" fill="none"><path d="M42 12.014H32a2 2 0 01-2-2v-10l12 12z" fill="#A7B3BE"/><path d="M42 12.014H32a2 2 0 01-2-2v-10H2a2 2 0 00-2 2v54a2 2 0 002 2h38a2 2 0 002-2v-44z" fill="#DDE3E9"/><path d="M36 49.014H26a1 1 0 110-2h10a1 1 0 110 2M31 53.014h-5a1 1 0 110-2h5a1 1 0 110 2M36 53.014h-1a1 1 0 110-2h1a1 1 0 110 2" fill="#A6B3BE"/><path fill="#424A60" d="M6 15h29.25v26H6z"/><path d="M15.75 23.125a2.925 2.925 0 11-5.85 0 2.925 2.925 0 015.85 0" fill="#F0CE49"/><path fill="#199172" d="M35.25 35.222l-.636-.722-7.634-7.15-6.68 7.475L26.344 41h8.906v-5.778"/><path fill="#25AE88" d="M23.62 38.386l-6.905-7.136L6 41h20.15l-2.53-2.614"/></g></svg>