<svg width="43" height="56" viewBox="0 0 43 56" xmlns="http://www.w3.org/2000/svg"><g fill="none" fill-rule="evenodd"><path d="M30.485 0H1.463C.655 0 0 .655 0 1.926V55c0 .345.655 1 1.463 1h40.074c.808 0 1.463-.655 1.463-1V12.978c0-.696-.093-.92-.257-1.085L31.107.257A.884.884 0 0030.485 0" fill="#DDE3E9"/><path fill="#A7B3BE" d="M31 .151V12h11.849L31 .151"/><path d="M41.537 56H1.463A1.463 1.463 0 010 54.537V39h43v15.537c0 .808-.655 1.463-1.463 1.463" fill="#9777A8"/><path d="M10.522 42.719v7.847c0 .474-.087.874-.26 1.197a2.142 2.142 0 01-.697.779 2.778 2.778 0 01-1.005.41 5.845 5.845 0 01-1.169.116c-.201 0-.436-.02-.704-.061a5.99 5.99 0 01-.834-.192 9.054 9.054 0 01-.828-.293 3.079 3.079 0 01-.669-.37l.697-1.107c.091.063.22.13.389.198s.354.132.554.192c.2.059.41.111.629.157.219.046.424.068.615.068.484 0 .868-.094 1.156-.28.287-.187.439-.504.458-.95v-7.711h1.668M18.684 50.238c0 .365-.076.718-.226 1.06a2.76 2.76 0 01-.636.902c-.273.26-.61.467-1.012.622a3.746 3.746 0 01-1.367.233c-.218 0-.444-.012-.676-.034a5.497 5.497 0 01-.704-.117 3.659 3.659 0 01-.677-.225 2.17 2.17 0 01-.554-.349l.287-1.176c.128.074.289.144.486.212.196.069.398.132.608.192.21.059.419.107.629.143.21.036.405.055.588.055.555 0 .982-.13 1.278-.39.296-.26.444-.644.444-1.155 0-.31-.104-.574-.314-.793a3.405 3.405 0 00-.786-.595 19.765 19.765 0 00-1.019-.533 6.256 6.256 0 01-1.025-.629 3.281 3.281 0 01-.793-.854c-.21-.328-.315-.739-.315-1.231 0-.446.082-.843.247-1.189.164-.347.384-.641.663-.882a2.93 2.93 0 01.97-.554 3.542 3.542 0 011.169-.191c.419 0 .843.039 1.272.116.428.077.774.203 1.039.376a9.747 9.747 0 01-.192.39l-.205.396a9.433 9.433 0 01-.164.308 1.095 1.095 0 01-.082.136 1.647 1.647 0 01-.184-.109 1.39 1.39 0 00-.294-.137 2.055 2.055 0 00-.506-.095 4.873 4.873 0 00-.807.013 1.426 1.426 0 00-.519.157c-.164.087-.31.194-.438.322a1.483 1.483 0 00-.301.431 1.097 1.097 0 00-.109.458c0 .364.105.658.314.881.21.224.47.419.78.588.309.169.647.333 1.012.492.364.16.704.354 1.018.582.315.227.576.512.786.854.21.342.315.781.315 1.319M28.582 47.914c0 .848-.107 1.595-.321 2.242-.214.648-.511 1.185-.889 1.614-.378.428-.82.752-1.326.97a4.138 4.138 0 01-1.661.328 4.135 4.135 0 01-1.661-.328 3.708 3.708 0 01-1.326-.97c-.378-.429-.675-.966-.889-1.614-.214-.647-.321-1.394-.321-2.242 0-.848.107-1.593.321-2.235.214-.643.511-1.178.889-1.607.377-.428.82-.754 1.326-.977a4.055 4.055 0 011.661-.335c.601 0 1.155.111 1.661.335.506.223.948.549 1.326.977.378.429.675.964.889 1.607.214.642.321 1.387.321 2.235zm-4.238 3.815c.337 0 .658-.067.964-.199.305-.132.579-.348.82-.649.241-.301.431-.696.567-1.183.137-.487.21-1.082.219-1.784-.009-.684-.08-1.265-.212-1.743-.132-.479-.314-.873-.547-1.183a2.109 2.109 0 00-.793-.67 2.217 2.217 0 00-.936-.205c-.337 0-.658.064-.964.192a2.056 2.056 0 00-.82.649c-.242.306-.431.699-.568 1.183-.136.483-.21 1.075-.218 1.777.008.684.08 1.267.211 1.75.132.483.315.877.547 1.183.233.305.497.528.793.67.296.141.609.212.937.212zM38.18 42.924V53h-1.668l-3.951-6.945V53h-1.668V42.924h1.668l3.951 6.945v-6.945h1.668" fill="#FFF"/><path d="M13 19v-4c0-.551.448-1 1-1a1 1 0 100-2c-1.654 0-3 1.346-3 3v4c0 1.103-.897 2-2 2a1 1 0 100 2c1.103 0 2 .897 2 2v4c0 1.654 1.346 3 3 3a1 1 0 100-2c-.552 0-1-.449-1-1v-4c0-1.2-.542-2.266-1.382-3A3.975 3.975 0 0013 19M21 17a1.5 1.5 0 10.001 3.001A1.5 1.5 0 0021 17M33 21c-1.102 0-2-.897-2-2v-4c0-1.654-1.346-3-3-3a1 1 0 100 2c.552 0 1 .449 1 1v4c0 1.2.542 2.266 1.382 3A3.975 3.975 0 0029 25v4c0 .551-.448 1-1 1a1 1 0 100 2c1.654 0 3-1.346 3-3v-4c0-1.103.898-2 2-2a1 1 0 100-2M21 24a1 1 0 00-1 1v3a1 1 0 102 0v-3a1 1 0 00-1-1" fill="#9777A8"/></g></svg>