<svg xmlns="http://www.w3.org/2000/svg" viewBox="0 0 43 56"><path d="M30.49,0H1.46C.66,0,0,.65,0,1.93v53.07c0,.35.65,1,1.46,1h40.07c.81,0,1.46-.65,1.46-1V12.98c0-.7-.09-.92-.26-1.09L31.11.26C30.94.09,30.72,0,30.49,0" fill="#dde3e9" fill-rule="evenodd"/><path d="M31,.15v8.89c0,1.64,1.33,2.96,2.96,2.96h8.89L31,.15Z" fill="#a1a1aa" fill-rule="evenodd"/><path d="M41.54,56H1.46c-.8,0-1.46-.66-1.46-1.46v-15.54h43v15.54c0,.81-.65,1.46-1.46,1.46" fill="#9777a8" fill-rule="evenodd"/><path d="M10.52,42.72v7.85c0,.47-.09.87-.26,1.2-.16.31-.4.58-.7.78-.31.2-.65.34-1.01.41-.39.08-.78.12-1.17.12-.2,0-.44-.02-.7-.06-.28-.04-.56-.11-.83-.19-.28-.08-.56-.18-.83-.29-.24-.1-.46-.22-.67-.37l.7-1.11c.09.06.22.13.39.2s.35.13.55.19c.2.06.41.11.63.16s.42.07.61.07c.48,0,.87-.09,1.16-.28.29-.19.44-.5.46-.95v-7.71h1.67ZM18.68,50.24c0,.37-.08.72-.23,1.06-.15.34-.36.65-.64.9-.27.26-.61.47-1.01.62-.44.16-.9.24-1.37.23-.22,0-.44-.01-.68-.03-.24-.02-.47-.06-.7-.12-.23-.05-.46-.13-.68-.22-.2-.09-.39-.21-.55-.35l.29-1.18c.13.07.29.14.49.21.2.07.4.13.61.19.21.06.42.11.63.14s.4.06.59.06c.56,0,.98-.13,1.28-.39s.44-.64.44-1.15c0-.31-.1-.57-.31-.79-.23-.24-.5-.44-.79-.6-.33-.19-.67-.37-1.02-.53-.36-.18-.7-.39-1.02-.63-.31-.24-.58-.52-.79-.85-.21-.33-.31-.74-.31-1.23,0-.45.08-.84.25-1.19.16-.35.38-.64.66-.88.28-.24.61-.43.97-.55.38-.13.77-.19,1.17-.19.42,0,.84.04,1.27.12.43.08.77.2,1.04.38-.06.13-.12.26-.19.39l-.2.4c-.05.1-.11.21-.16.31-.02.05-.05.09-.08.14-.06-.03-.12-.07-.18-.11-.09-.06-.19-.1-.29-.14-.16-.05-.33-.08-.51-.1-.27-.02-.54-.01-.81.01-.18.02-.36.07-.52.16-.16.09-.31.19-.44.32-.12.12-.23.27-.3.43-.07.14-.11.3-.11.46,0,.36.1.66.31.88.21.22.47.42.78.59.31.17.65.33,1.01.49.36.16.7.35,1.02.58.32.23.58.51.79.85s.32.78.32,1.32M28.58,47.91c0,.85-.11,1.6-.32,2.24-.21.65-.51,1.19-.89,1.61-.38.43-.82.75-1.33.97-.52.22-1.09.33-1.66.33-.57,0-1.14-.1-1.66-.33-.51-.22-.96-.55-1.33-.97-.38-.43-.67-.97-.89-1.61-.21-.65-.32-1.39-.32-2.24s.11-1.59.32-2.24c.21-.64.51-1.18.89-1.61.38-.43.82-.75,1.33-.98.52-.23,1.09-.34,1.66-.33.6,0,1.16.11,1.66.33.51.22.95.55,1.33.98.38.43.67.96.89,1.61.21.64.32,1.39.32,2.24ZM24.34,51.73c.34,0,.66-.07.96-.2.31-.13.58-.35.82-.65s.43-.7.57-1.18c.14-.49.21-1.08.22-1.78,0-.68-.08-1.26-.21-1.74-.13-.48-.31-.87-.55-1.18-.2-.29-.48-.52-.79-.67-.29-.14-.61-.21-.94-.21-.34,0-.66.06-.96.19-.33.14-.61.37-.82.65-.24.31-.43.7-.57,1.18-.14.48-.21,1.08-.22,1.78,0,.68.08,1.27.21,1.75.13.48.32.88.55,1.18.23.31.5.53.79.67.3.14.61.21.94.21ZM38.18,42.92v10.08h-1.67l-3.95-6.94v6.94h-1.67v-10.08h1.67l3.95,6.94v-6.94h1.67Z" fill="#fff" fill-rule="evenodd"/><path d="M13,19v-4c0-.55.45-1,1-1s1-.45,1-1-.45-1-1-1c-1.65,0-3,1.35-3,3v4c0,1.1-.9,2-2,2-.55,0-1,.45-1,1s.45,1,1,1c1.1,0,2,.9,2,2v4c0,1.65,1.35,3,3,3,.55,0,1-.45,1-1s-.45-1-1-1-1-.45-1-1v-4c0-1.2-.54-2.27-1.38-3,.87-.75,1.38-1.85,1.38-3M21,17c-.82,0-1.5.68-1.5,1.5s.68,1.5,1.5,1.5h0c.82,0,1.5-.68,1.5-1.5s-.68-1.5-1.5-1.5ZM33,21c-1.1,0-2-.9-2-2v-4c0-1.65-1.35-3-3-3-.55,0-1,.45-1,1s.45,1,1,1,1,.45,1,1v4c0,1.2.54,2.27,1.38,3-.87.75-1.38,1.85-1.38,3v4c0,.55-.45,1-1,1s-1,.45-1,1,.45,1,1,1c1.65,0,3-1.35,3-3v-4c0-1.1.9-2,2-2,.55,0,1-.45,1-1s-.45-1-1-1M21,24c-.55,0-1,.45-1,1v3c0,.55.45,1,1,1s1-.45,1-1v-3c0-.55-.45-1-1-1" fill="#9777a8" fill-rule="evenodd"/></svg>
