<svg clip-rule="evenodd" fill-rule="evenodd" stroke-linejoin="round" stroke-miterlimit="2" viewBox="0 0 43 56" xmlns="http://www.w3.org/2000/svg"><path d="m30.485 0h-29.022c-.808 0-1.463.655-1.463 1.926v53.074c0 .345.655 1 1.463 1h40.074c.808 0 1.463-.655 1.463-1v-42.022c0-.696-.093-.92-.257-1.085l-11.636-11.636c-.165-.164-.389-.257-.622-.257" fill="#dde3e9"/><path d="m31 .151v11.849h11.849z" fill="#a1a1aa"/><path d="m41.537 56h-40.074c-.803 0-1.463-.66-1.463-1.463v-15.537h43v15.537c0 .808-.655 1.463-1.463 1.463" fill="#9777a8"/><path d="m10.522 42.719v7.847c0 .474-.087.874-.26 1.197-.164.313-.404.581-.697.779-.305.201-.646.341-1.005.41-.385.078-.776.117-1.169.116-.201 0-.436-.02-.704-.061-.282-.044-.561-.108-.834-.192-.281-.084-.557-.182-.828-.293-.238-.095-.462-.219-.669-.37l.697-1.107c.091.063.22.13.389.198s.354.132.554.192c.2.059.41.111.629.157s.424.068.615.068c.484 0 .868-.094 1.156-.28.287-.187.439-.504.458-.95v-7.711zm8.162 7.519c0 .365-.076.718-.226 1.06-.149.34-.365.647-.636.902-.273.26-.61.467-1.012.622-.437.162-.901.241-1.367.233-.218 0-.444-.012-.676-.034-.237-.024-.472-.063-.704-.117-.232-.053-.459-.128-.677-.225-.201-.088-.388-.205-.554-.349l.287-1.176c.128.074.289.144.486.212.196.069.398.132.608.192.21.059.419.107.629.143s.405.055.588.055c.555 0 .982-.13 1.278-.39s.444-.644.444-1.155c0-.31-.104-.574-.314-.793-.232-.235-.497-.436-.786-.595-.334-.188-.674-.365-1.019-.533-.361-.176-.704-.387-1.025-.629-.313-.235-.582-.524-.793-.854-.21-.328-.315-.739-.315-1.231 0-.446.082-.843.247-1.189.164-.347.384-.641.663-.882.285-.245.614-.433.97-.554.376-.129.771-.193 1.169-.191.419 0 .843.039 1.272.116.428.077.774.203 1.039.376-.061.131-.125.261-.192.39l-.205.396c-.053.104-.107.206-.164.308-.024.047-.051.093-.082.136-.064-.032-.125-.069-.184-.109-.092-.057-.191-.103-.294-.137-.164-.053-.334-.085-.506-.095-.269-.018-.539-.014-.807.013-.181.019-.358.072-.519.157-.164.087-.31.194-.438.322-.125.125-.227.271-.301.431-.069.143-.106.299-.109.458 0 .364.105.658.314.881.21.224.47.419.78.588.309.169.647.333 1.012.492.364.16.704.354 1.018.582.315.227.576.512.786.854s.315.781.315 1.319m9.898-2.324c0 .848-.107 1.595-.321 2.242-.214.648-.511 1.185-.889 1.614-.378.428-.82.752-1.326.97-.525.223-1.091.334-1.661.328-.57.006-1.136-.105-1.661-.328-.509-.22-.962-.552-1.326-.97-.378-.429-.675-.966-.889-1.614-.214-.647-.321-1.394-.321-2.242s.107-1.593.321-2.235c.214-.643.511-1.178.889-1.607.377-.428.82-.754 1.326-.977.524-.227 1.09-.342 1.661-.335.601 0 1.155.111 1.661.335.506.223.948.549 1.326.977.378.429.675.964.889 1.607.214.642.321 1.387.321 2.235zm-4.238 3.815c.337 0 .658-.067.964-.199.305-.132.579-.348.82-.649s.431-.696.567-1.183c.137-.487.21-1.082.219-1.784-.009-.684-.08-1.265-.212-1.743-.132-.479-.314-.873-.547-1.183-.204-.286-.477-.516-.793-.67-.293-.136-.613-.206-.936-.205-.337 0-.658.064-.964.192-.325.142-.607.366-.82.649-.242.306-.431.699-.568 1.183-.136.483-.21 1.075-.218 1.777.008.684.08 1.267.211 1.75.132.483.315.877.547 1.183.233.305.497.528.793.67.296.141.609.212.937.212zm13.836-8.805v10.076h-1.668l-3.951-6.945v6.945h-1.668v-10.076h1.668l3.951 6.945v-6.945z" fill="#fff"/><path d="m13 19v-4c0-.551.448-1 1-1 .549 0 1-.451 1-1s-.451-1-1-1c-1.654 0-3 1.346-3 3v4c0 1.103-.897 2-2 2-.549 0-1 .451-1 1s.451 1 1 1c1.103 0 2 .897 2 2v4c0 1.654 1.346 3 3 3 .549 0 1-.451 1-1s-.451-1-1-1c-.552 0-1-.449-1-1v-4c0-1.2-.542-2.266-1.382-3 .874-.752 1.378-1.848 1.382-3m8-2c-.823 0-1.5.678-1.5 1.501s.677 1.5 1.5 1.5h.001c.823 0 1.5-.678 1.5-1.5 0-.824-.677-1.501-1.501-1.501zm12 4c-1.102 0-2-.897-2-2v-4c0-1.654-1.346-3-3-3-.549 0-1 .451-1 1s.451 1 1 1c.552 0 1 .449 1 1v4c0 1.2.542 2.266 1.382 3-.874.752-1.378 1.848-1.382 3v4c0 .551-.448 1-1 1-.549 0-1 .451-1 1s.451 1 1 1c1.654 0 3-1.346 3-3v-4c0-1.103.898-2 2-2 .549 0 1-.451 1-1s-.451-1-1-1m-12 3c-.549 0-1 .451-1 1v3c0 .549.451 1 1 1s1-.451 1-1v-3c0-.549-.451-1-1-1" fill="#9777a8"/></svg>