<svg xmlns="http://www.w3.org/2000/svg" viewBox="0 0 42 59"><g fill="none" fill-rule="evenodd"><path fill="#A7B3BE" d="M42 12.014H32a2 2 0 0 1-2-2v-10l12 12z"/><path fill="#DDE3E9" d="M42 12.014H32a2 2 0 0 1-2-2v-10H2a2 2 0 0 0-2 2v54a2 2 0 0 0 2 2h38a2 2 0 0 0 2-2v-44z"/><path fill="#A7B3BE" d="M36 49.014H26a1 1 0 1 1 0-2h10a1 1 0 1 1 0 2m-5 4h-5a1 1 0 1 1 0-2h5a1 1 0 1 1 0 2m5 0h-1a1 1 0 1 1 0-2h1a1 1 0 1 1 0 2"/><path fill="#26B999" d="M26 30.014H6l10-12h20z"/><path fill="#6BDDC0" d="M26 30.014H11l-5 6h20l10-12h-5z"/><path fill="#26B999" d="M26 36.014H11l-5 6h20l10-12h-5z"/></g></svg>