<svg clip-rule="evenodd" fill-rule="evenodd" stroke-linejoin="round" stroke-miterlimit="2" viewBox="0 0 42 59" xmlns="http://www.w3.org/2000/svg"><path d="m42 12.014h-10c-1.097 0-2-.903-2-2v-10z" fill="#a1a1aa"/><path d="m42 12.014h-10c-1.097 0-2-.903-2-2v-10h-28c-1.097 0-2 .903-2 2v55c0 1.097.903 2 2 2h38c1.097 0 2-.903 2-2z" fill="#e4e4e7"/><path d="m36 49.014h-10c-.549 0-1-.451-1-1s.451-1 1-1h10c.549 0 1 .451 1 1s-.451 1-1 1m-5 4h-5c-.549 0-1-.451-1-1s.451-1 1-1h5c.549 0 1 .451 1 1s-.451 1-1 1m5 0h-1c-.549 0-1-.451-1-1s.451-1 1-1h1c.549 0 1 .451 1 1s-.451 1-1 1" fill="#a7b3be"/><path d="m26 30.014h-20l10-12h20z" fill="#26b999"/><path d="m26 30.014h-15l-5 6h20l10-12h-5z" fill="#6bddc0"/><path d="m26 36.014h-15l-5 6h20l10-12h-5z" fill="#26b999"/></svg>