<svg width="42" height="59" viewBox="0 0 42 59" xmlns="http://www.w3.org/2000/svg"><g fill="none" fill-rule="evenodd"><path d="M42 12.014H32a2 2 0 01-2-2v-10l12 12z" fill="#A7B3BE"/><path d="M42 12.014H32a2 2 0 01-2-2v-10H2a2 2 0 00-2 2v54a2 2 0 002 2h38a2 2 0 002-2v-44z" fill="#DDE3E9"/><path d="M36 49.014H26a1 1 0 110-2h10a1 1 0 110 2M31 53.014h-5a1 1 0 110-2h5a1 1 0 110 2M36 53.014h-1a1 1 0 110-2h1a1 1 0 110 2" fill="#A7B3BE"/><path fill="#26B999" d="M26 30.014H6l10-12h20z"/><path fill="#6BDDC0" d="M26 30.014H11l-5 6h20l10-12h-5z"/><path fill="#26B999" d="M26 36.014H11l-5 6h20l10-12h-5z"/></g></svg>