<svg clip-rule="evenodd" fill-rule="evenodd" stroke-linejoin="round" stroke-miterlimit="2" viewBox="0 0 43 56" xmlns="http://www.w3.org/2000/svg"><path d="m30.485 0h-29.022c-.808 0-1.463.655-1.463 1.926v53.074c0 .345.655 1 1.463 1h40.074c.808 0 1.463-.655 1.463-1v-42.022c0-.696-.093-.92-.257-1.085l-11.636-11.636c-.165-.164-.389-.257-.622-.257" fill="#e4e4e7"/><path d="m31 .151v11.849h11.849z" fill="#a1a1aa"/><path d="m13.014 33.324c-.348 0-.682-.113-.967-.326-1.041-.782-1.181-1.651-1.115-2.243.182-1.627 2.195-3.332 5.985-5.068 1.504-3.296 2.935-7.357 3.788-10.75-.998-2.173-1.967-4.99-1.261-6.644.248-.578.558-1.023 1.134-1.215.332-.093.672-.15 1.016-.172.504 0 .947.649 1.261 1.049.295.377.964 1.174-.373 6.803 1.348 2.783 3.257 5.619 5.088 7.561 1.311-.237 2.439-.358 3.358-.358 1.566 0 2.515.366 2.902 1.117.32.622.188 1.349-.391 2.16-.557.779-1.324 1.191-2.22 1.191-1.216 0-2.632-.768-4.211-2.285-2.838.593-6.151 1.651-8.829 2.822-.836 1.774-1.637 3.203-2.383 4.251-1.023 1.437-1.907 2.107-2.782 2.107zm2.662-5.126c-2.138 1.201-3.009 2.188-3.071 2.744-.01.092-.037.334.431.692.149-.047 1.019-.444 2.64-3.436zm13.637-4.442c.815.627 1.014.944 1.547.944.234 0 .902-.01 1.21-.441.149-.209.207-.343.229-.414-.122-.066-.285-.197-1.175-.197-.504 0-1.139.021-1.811.108zm-7.47-6.582c-.75 2.569-1.642 5.095-2.674 7.564 2.117-.82 4.287-1.495 6.496-2.02-1.35-1.568-2.699-3.526-3.822-5.544zm-.607-8.462c-.098.033-1.33 1.757.096 3.216.949-2.115-.053-3.23-.096-3.216zm20.301 47.288h-40.074c-.803 0-1.463-.66-1.463-1.463v-15.537h43v15.537c0 .808-.655 1.463-1.463 1.463" fill="#cc4b4c"/><path d="m10.885 53h-1.641v-10.076h2.899c.428 0 .852.068 1.271.205s.795.342 1.128.615c.333.274.602.604.807.991.205.388.307.823.307 1.306 0 .511-.087.973-.259 1.388-.162.397-.41.755-.725 1.046-.31.282-.684.501-1.121.656-.466.159-.956.238-1.449.232h-1.217zm0-8.832v3.992h1.504c.2 0 .398-.034.594-.102.196-.069.376-.18.54-.335.165-.156.296-.371.397-.65.1-.278.15-.622.15-1.032-.003-.191-.026-.381-.068-.567-.05-.222-.145-.432-.28-.616-.157-.209-.361-.377-.595-.492-.255-.132-.593-.198-1.012-.198zm14.834 3.514c0 .829-.089 1.538-.267 2.126s-.403 1.08-.677 1.476c-.245.368-.558.686-.922.937-.309.21-.642.382-.992.512-.319.115-.61.187-.875.219-.264.032-.46.048-.588.048h-3.814v-10.076h3.035c.848 0 1.593.135 2.236.403.642.269 1.175.627 1.599 1.073.424.447.74.955.95 1.525.21.569.315 1.155.315 1.757zm-4.867 4.115c1.111 0 1.914-.356 2.406-1.067.492-.71.738-1.741.738-3.089 0-.419-.05-.834-.15-1.244-.102-.413-.301-.795-.581-1.115-.287-.333-.677-.601-1.169-.806s-1.131-.308-1.914-.308h-.957v7.629zm8.914-7.629v3.172h4.211v1.121h-4.211v4.539h-1.668v-10.076h6.302v1.244z" fill="#fff"/></svg>