<svg xmlns="http://www.w3.org/2000/svg" viewBox="0 0 43 56"><path d="M30.48,0H1.46C.66,0,0,.65,0,1.93v53.07c0,.35.65,1,1.46,1h40.07c.81,0,1.46-.65,1.46-1V12.98c0-.7-.09-.92-.26-1.09L31.11.26C30.94.09,30.72,0,30.49,0" fill="#e4e4e7" fill-rule="evenodd"/><path d="M31,.15v8.83c0,1.67,1.35,3.02,3.02,3.02h8.83L31,.15Z" fill="#a1a1aa" fill-rule="evenodd"/><path d="M13.01,33.32c-.35,0-.68-.11-.97-.33-1.04-.78-1.18-1.65-1.11-2.24.18-1.63,2.19-3.33,5.98-5.07,1.5-3.3,2.93-7.36,3.79-10.75-1-2.17-1.97-4.99-1.26-6.64.25-.58.56-1.02,1.13-1.22.33-.09.67-.15,1.02-.17.5,0,.95.65,1.26,1.05.3.38.96,1.17-.37,6.8,1.35,2.78,3.26,5.62,5.09,7.56,1.31-.24,2.44-.36,3.36-.36,1.57,0,2.51.37,2.9,1.12.32.62.19,1.35-.39,2.16-.56.78-1.32,1.19-2.22,1.19-1.22,0-2.63-.77-4.21-2.28-2.84.59-6.15,1.65-8.83,2.82-.84,1.77-1.64,3.2-2.38,4.25-1.02,1.44-1.91,2.11-2.78,2.11ZM15.68,28.2c-2.14,1.2-3.01,2.19-3.07,2.74-.01.09-.04.33.43.69.15-.05,1.02-.44,2.64-3.44ZM29.31,23.76c.82.63,1.01.94,1.55.94.23,0,.9-.01,1.21-.44.15-.21.21-.34.23-.41-.12-.07-.28-.2-1.17-.2-.5,0-1.14.02-1.81.11ZM21.84,17.17c-.75,2.57-1.64,5.09-2.67,7.56,2.12-.82,4.29-1.5,6.5-2.02-1.35-1.57-2.7-3.53-3.82-5.54ZM21.24,8.71c-.1.03-1.33,1.76.1,3.22.95-2.11-.05-3.23-.1-3.22ZM41.54,56H1.46c-.8,0-1.46-.66-1.46-1.46v-15.54h43v15.54c0,.81-.65,1.46-1.46,1.46" fill="#cc4b4c" fill-rule="evenodd"/><path d="M10.88,53h-1.64v-10.08h2.9c.43,0,.85.07,1.27.21s.8.34,1.13.62c.33.27.6.6.81.99.2.39.31.82.31,1.31,0,.51-.09.97-.26,1.39-.16.4-.41.76-.73,1.05-.31.28-.68.5-1.12.66-.47.16-.96.24-1.45.23h-1.22v3.64ZM10.88,44.17v3.99h1.5c.2,0,.4-.03.59-.1.2-.07.38-.18.54-.33.16-.16.3-.37.4-.65.1-.28.15-.62.15-1.03,0-.19-.03-.38-.07-.57-.05-.22-.15-.43-.28-.62-.16-.21-.36-.38-.6-.49-.26-.13-.59-.2-1.01-.2h-1.23ZM25.72,47.68c0,.83-.09,1.54-.27,2.13s-.4,1.08-.68,1.48c-.25.37-.56.69-.92.94-.31.21-.64.38-.99.51-.32.12-.61.19-.88.22-.26.03-.46.05-.59.05h-3.81v-10.08h3.03c.85,0,1.59.13,2.24.4.64.27,1.17.63,1.6,1.07.42.45.74.96.95,1.53.21.57.32,1.15.32,1.76ZM20.85,51.8c1.11,0,1.91-.36,2.41-1.07.49-.71.74-1.74.74-3.09,0-.42-.05-.83-.15-1.24-.1-.41-.3-.79-.58-1.12-.29-.33-.68-.6-1.17-.81s-1.13-.31-1.91-.31h-.96v7.63h1.63ZM29.77,44.17v3.17h4.21v1.12h-4.21v4.54h-1.67v-10.08h6.3v1.24h-4.63Z" fill="#fff" fill-rule="evenodd"/></svg>
