<svg clip-rule="evenodd" fill-rule="evenodd" viewBox="0 0 50 52" xmlns="http://www.w3.org/2000/svg"><path d="m1 1h48v50h-48z" fill="#424a60"/><path d="m1 1h48v50h-48z" fill="none" stroke="#e4e4e7" stroke-width="2"/><path d="m17.569 13.569v.067c0 2.507-2.062 4.57-4.57 4.57-2.507 0-4.57-2.063-4.57-4.57 0-.023.001-.045.001-.068.037-2.481 2.088-4.502 4.569-4.502 2.482 0 4.534 2.022 4.57 4.503" fill="#f0ce49"/><path d="m1 41h48v10h-48z" fill="#e4e4e7"/><path d="m48 32.111-1-1.111-12-11-10.5 11.5 9.5 9.5h14z" fill="#199172"/><path d="m29.983 36.983-10.966-10.966-17.017 14.983h32z" fill="#25ae88"/></svg>