<svg clip-rule="evenodd" fill-rule="evenodd" stroke-linejoin="round" stroke-miterlimit="2" viewBox="0 0 42 59" xmlns="http://www.w3.org/2000/svg"><path d="m42 12.014h-10c-1.097 0-2-.903-2-2v-10z" fill="#a1a1aa"/><path d="m42 12.014h-10c-1.097 0-2-.903-2-2v-10h-28c-1.097 0-2 .903-2 2v55c0 1.097.903 2 2 2h38c1.097 0 2-.903 2-2z" fill="#e4e4e7"/><path d="m22 13.014v12h12c0-6.627-5.373-12-12-12" fill="#f38774"/><path d="m18 29.014v-12c-4.026 0-7.58 1.989-9.756 5.031z" fill="#f0c41a"/><path d="m8.268 22.013c-1.476 2.035-2.27 4.487-2.268 7.001 0 6.627 5.372 12 12 12 6.627 0 12-5.373 12-12h-12l-9.757-6.969" fill="#26b999"/><path d="m36 49.014h-10c-.549 0-1-.451-1-1s.451-1 1-1h10c.549 0 1 .451 1 1s-.451 1-1 1m-5 4h-5c-.549 0-1-.451-1-1s.451-1 1-1h5c.549 0 1 .451 1 1s-.451 1-1 1m5 0h-1c-.549 0-1-.451-1-1s.451-1 1-1h1c.549 0 1 .451 1 1s-.451 1-1 1" fill="#a7b3be"/></svg>