<svg width="42" height="59" viewBox="0 0 42 59" xmlns="http://www.w3.org/2000/svg"><g fill="none" fill-rule="evenodd"><path d="M42 12.014H32a2 2 0 01-2-2v-10l12 12z" fill="#A7B3BE"/><path d="M42 12.014H32a2 2 0 01-2-2v-10H2a2 2 0 00-2 2v54a2 2 0 002 2h38a2 2 0 002-2v-44z" fill="#DDE3E9"/><path d="M22 13.014v12h12c0-6.627-5.373-12-12-12" fill="#F38774"/><path d="M18 29.014v-12c-4.026 0-7.58 1.989-9.756 5.031L18 29.014z" fill="#F0C41A"/><path d="M8.268 22.013A11.904 11.904 0 006 29.014c0 6.627 5.372 12 12 12 6.627 0 12-5.373 12-12H18l-9.757-6.969" fill="#26B999"/><path d="M36 49.014H26a1 1 0 110-2h10a1 1 0 110 2M31 53.014h-5a1 1 0 110-2h5a1 1 0 110 2M36 53.014h-1a1 1 0 110-2h1a1 1 0 110 2" fill="#A7B3BE"/></g></svg>