<svg width="42" height="59" viewBox="0 0 42 59" xmlns="http://www.w3.org/2000/svg"><g fill="none" fill-rule="evenodd"><path d="M42 12.014H32a2 2 0 01-2-2v-10l12 12z" fill="#A7B3BE"/><path d="M42 12.014H32a2 2 0 01-2-2v-10H2a2 2 0 00-2 2v54a2 2 0 002 2h38a2 2 0 002-2v-44z" fill="#DDE3E9"/><path d="M24 37.014H8a2 2 0 01-2-2v-12a2 2 0 012-2h16a2 2 0 012 2v12a2 2 0 01-2 2" fill="#546080"/><path d="M33.425 35.242L26 33.014v-8l7.425-2.227A2 2 0 0136 24.702v8.624a2 2 0 01-2.575 1.916" fill="#374564"/><path d="M36 49.014H26a1 1 0 110-2h10a1 1 0 110 2m-5 4h-5a1 1 0 110-2h5a1 1 0 110 2m5 0h-1a1 1 0 110-2h1a1 1 0 110 2" fill="#A7B3BE"/></g></svg>