<svg clip-rule="evenodd" fill-rule="evenodd" stroke-linejoin="round" stroke-miterlimit="2" viewBox="0 0 42 59" xmlns="http://www.w3.org/2000/svg"><path d="m42 12.014h-10c-1.097 0-2-.903-2-2v-10z" fill="#a1a1aa"/><path d="m42 12.014h-10c-1.097 0-2-.903-2-2v-10h-28c-1.097 0-2 .903-2 2v55c0 1.097.903 2 2 2h38c1.097 0 2-.903 2-2z" fill="#e4e4e7"/><path d="m24 37.014h-16c-1.097 0-2-.903-2-2v-12c0-1.097.903-2 2-2h16c1.097 0 2 .903 2 2v12c0 1.097-.903 2-2 2" fill="#546080"/><path d="m33.425 35.242-7.425-2.228v-8l7.425-2.227c.187-.056.38-.084.575-.084 1.097 0 2 .902 2 1.999v8.624c0 1.098-.903 2-2 2-.195 0-.388-.028-.575-.084" fill="#374564"/><path d="m36 49.014h-10c-.549 0-1-.451-1-1s.451-1 1-1h10c.549 0 1 .451 1 1s-.451 1-1 1m-5 4h-5c-.549 0-1-.451-1-1s.451-1 1-1h5c.549 0 1 .451 1 1s-.451 1-1 1m5 0h-1c-.549 0-1-.451-1-1s.451-1 1-1h1c.549 0 1 .451 1 1s-.451 1-1 1" fill="#a7b3be"/></svg>