<svg clip-rule="evenodd" fill-rule="evenodd" stroke-linejoin="round" stroke-miterlimit="2" viewBox="0 0 43 56" xmlns="http://www.w3.org/2000/svg"><path d="m30.485 0h-29.022c-.808 0-1.463.655-1.463 1.926v53.074c0 .345.655 1 1.463 1h40.074c.808 0 1.463-.655 1.463-1v-42.022c0-.696-.093-.92-.257-1.085l-11.636-11.636c-.165-.164-.389-.257-.622-.257" fill="#e4e4e7"/><path d="m31 .151v11.849h11.849z" fill="#a1a1aa"/><path d="m41.537 56h-40.074c-.803 0-1.463-.66-1.463-1.463v-15.537h43v15.537c0 .808-.655 1.463-1.463 1.463" fill="#f29c1f"/><path d="m12.879 48.105 2.557 4.895h-1.901l-1.599-3.801h-.137l-1.723 3.801h-1.9l2.556-4.895-2.72-5.181h1.873l1.777 4.101h.137l1.928-4.101h1.873zm12.619-5.181h1.668v10.076h-1.668v-6.932l-2.256 5.606h-1.449l-2.27-5.606v6.932h-1.667v-10.076h1.667l2.995 6.891zm5.865 0v8.832h4.635v1.244h-6.303v-10.076z" fill="#fff"/><g fill="#f29c1f"><path d="m9 24c-.001 0-.001 0-.002 0-.548 0-.999-.451-.999-.999 0-.266.106-.521.294-.708l6-6c.187-.187.442-.293.707-.293.549 0 1 .451 1 1 0 .265-.106.52-.293.707l-6 6c-.187.188-.442.293-.707.293"/><path d="m15 30c-.265 0-.52-.105-.707-.293l-6-6c-.187-.187-.293-.442-.293-.707 0-.549.451-1 1-1 .265 0 .52.106.707.293l6 6c.188.187.294.442.294.708 0 .548-.451.999-.999.999-.001 0-.001 0-.002 0m12 0c-.001 0-.001 0-.002 0-.548 0-.999-.451-.999-.999 0-.266.106-.521.294-.708l6-6c.187-.187.442-.293.707-.293.549 0 1 .451 1 1 0 .265-.106.52-.293.707l-6 6c-.187.188-.442.293-.707.293"/><path d="m33 24c-.265 0-.52-.105-.707-.293l-6-6c-.187-.187-.293-.442-.293-.707 0-.549.451-1 1-1 .265 0 .52.106.707.293l6 6c.188.187.294.442.294.708 0 .548-.451.999-.999.999-.001 0-.001 0-.002 0m-15 8c-.549 0-1-.451-1-1 0-.113.019-.226.057-.333l6-17c.141-.399.52-.667.943-.667.549 0 1 .451 1 1 0 .113-.019.226-.057.333l-6 17c-.141.399-.52.667-.943.667"/></g></svg>