<svg xmlns="http://www.w3.org/2000/svg" viewBox="0 0 43 56"><path d="M30.49,0H1.46C.66,0,0,.65,0,1.93v53.07c0,.35.65,1,1.46,1h40.07c.81,0,1.46-.65,1.46-1V12.98c0-.7-.09-.92-.26-1.09L31.11.26C30.94.09,30.72,0,30.49,0" fill="#e4e4e7" fill-rule="evenodd"/><path d="M31,.15v8.81c0,1.68,1.36,3.04,3.04,3.04h8.81L31,.15Z" fill="#a1a1aa" fill-rule="evenodd"/><path d="M41.54,56H1.46c-.8,0-1.46-.66-1.46-1.46v-15.54h43v15.54c0,.81-.65,1.46-1.46,1.46" fill="#f29c1f" fill-rule="evenodd"/><path d="M12.88,48.1l2.56,4.9h-1.9l-1.6-3.8h-.14l-1.72,3.8h-1.9l2.56-4.9-2.72-5.18h1.87l1.78,4.1h.14l1.93-4.1h1.87l-2.72,5.18ZM25.5,42.92h1.67v10.08h-1.67v-6.93l-2.26,5.61h-1.45l-2.27-5.61v6.93h-1.67v-10.08h1.67l3,6.89,2.98-6.89ZM31.36,42.92v8.83h4.64v1.24h-6.3v-10.08h1.67Z" fill="#fff" fill-rule="evenodd"/><path d="M9,24h0c-.55,0-1-.45-1-1,0-.27.11-.52.29-.71l6-6c.19-.19.44-.29.71-.29.55,0,1,.45,1,1,0,.26-.11.52-.29.71l-6,6c-.19.19-.44.29-.71.29" fill="#f29c1f" fill-rule="evenodd"/><path d="M15,30c-.27,0-.52-.1-.71-.29l-6-6c-.19-.19-.29-.44-.29-.71,0-.55.45-1,1-1,.27,0,.52.11.71.29l6,6c.19.19.29.44.29.71,0,.55-.45,1-1,1h0M27,30h0c-.55,0-1-.45-1-1,0-.27.11-.52.29-.71l6-6c.19-.19.44-.29.71-.29.55,0,1,.45,1,1,0,.26-.11.52-.29.71l-6,6c-.19.19-.44.29-.71.29" fill="#f29c1f" fill-rule="evenodd"/><path d="M33,24c-.26,0-.52-.1-.71-.29l-6-6c-.19-.19-.29-.44-.29-.71,0-.55.45-1,1-1,.26,0,.52.11.71.29l6,6c.19.19.29.44.29.71,0,.55-.45,1-1,1h0M18,32c-.55,0-1-.45-1-1,0-.11.02-.23.06-.33l6-17c.14-.4.52-.67.94-.67.55,0,1,.45,1,1,0,.11-.02.23-.06.33l-6,17c-.14.4-.52.67-.94.67" fill="#f29c1f" fill-rule="evenodd"/></svg>
