<svg width="43" height="56" viewBox="0 0 43 56" xmlns="http://www.w3.org/2000/svg"><g fill="none" fill-rule="evenodd"><path d="M30.485 0H1.463C.655 0 0 .655 0 1.926V55c0 .345.655 1 1.463 1h40.074c.808 0 1.463-.655 1.463-1V12.978c0-.696-.093-.92-.257-1.085L31.107.257A.884.884 0 0030.485 0" fill="#DDE3E9"/><path fill="#A7B3BE" d="M31 .151V12h11.849L31 .151"/><path d="M41.537 56H1.463A1.463 1.463 0 010 54.537V39h43v15.537c0 .808-.655 1.463-1.463 1.463" fill="#F29C1F"/><path fill="#FFF" d="M12.879 48.105L15.436 53h-1.901l-1.599-3.801h-.137L10.076 53h-1.9l2.556-4.895-2.72-5.181h1.873l1.777 4.101h.137l1.928-4.101H15.6l-2.721 5.181M25.498 42.924h1.668V53h-1.668v-6.932l-2.256 5.606h-1.449l-2.27-5.606V53h-1.667V42.924h1.667l2.995 6.891 2.98-6.891M31.363 42.924v8.832h4.635V53h-6.303V42.924h1.668"/><path d="M9 24a.999.999 0 01-.707-1.707l6-6a.999.999 0 111.414 1.414l-6 6A.997.997 0 019 24" fill="#F29C1F"/><path d="M15 30a.997.997 0 01-.707-.293l-6-6a.999.999 0 111.414-1.414l6 6A.999.999 0 0115 30M27 30a.999.999 0 01-.707-1.707l6-6a.999.999 0 111.414 1.414l-6 6A.997.997 0 0127 30" fill="#F29C1F"/><path d="M33 24a.997.997 0 01-.707-.293l-6-6a.999.999 0 111.414-1.414l6 6A.999.999 0 0133 24M18 32a1 1 0 01-.943-1.333l6-17a1 1 0 111.886.666l-6 17A1 1 0 0118 32" fill="#F29C1F"/></g></svg>