<svg xmlns="http://www.w3.org/2000/svg" viewBox="0 0 24 24"><path fill="none" stroke="currentColor" stroke-linecap="round" stroke-linejoin="round" d="M18 2.781a1 1 0 0 0-.713-.958l-4-1.2a1 1 0 0 0-.575 0l-4 1.2A1 1 0 0 0 8 2.781V7.86a1 1 0 0 0 .629.928l4 1.6a1 1 0 0 0 .743 0l4-1.6A1 1 0 0 0 18 7.86V2.781z"/><path fill="none" stroke="currentColor" stroke-linecap="round" stroke-linejoin="round" d="M17.745 2.114 13 3.537 8.255 2.114M13 3.5v7m10 2.384a.5.5 0 0 0-.324-.468l-3.5-1.312a.5.5 0 0 0-.351 0l-3.5 1.312a.5.5 0 0 0-.324.468v3.844a.5.5 0 0 0 .276.447l3.5 1.75a.5.5 0 0 0 .447 0l3.5-1.75a.5.5 0 0 0 .276-.447v-3.844z"/><path fill="none" stroke="currentColor" stroke-linecap="round" stroke-linejoin="round" d="M22.894 12.577 19 14.037l-3.893-1.46M19 14v5m-6-4.742a1 1 0 0 0-.684-.949l-5-1.667a1 1 0 0 0-.632 0l-5 1.667a1 1 0 0 0-.684.949v6.559a1 1 0 0 0 .684.949l5 1.667a1 1 0 0 0 .632 0l5-1.667a1 1 0 0 0 .684-.949z"/><path fill="none" stroke="currentColor" stroke-linecap="round" stroke-linejoin="round" d="M12.766 13.615 7 15.537l-5.766-1.922M7 15.5v8"/></svg>