<svg xmlns="http://www.w3.org/2000/svg" version="1.1" xmlns:xlink="http://www.w3.org/1999/xlink" xmlns:svgjs="http://svgjs.com/svgjs" viewBox="0 0 24 24" height="24" width="24"><g transform="matrix(1,0,0,1,0,0)"><path d="M 4.5,8.25L0.75,12l3.75,3.75 " stroke="currentColor" fill="none" stroke-width="1.5" stroke-linecap="round" stroke-linejoin="round"></path><path d="M 19.5,8.25L23.25,12l-3.75,3.75 " stroke="currentColor" fill="none" stroke-width="1.5" stroke-linecap="round" stroke-linejoin="round"></path><path d="M 12,11.625L12,11.625 " stroke="currentColor" fill="none" stroke-width="1.5" stroke-linecap="round" stroke-linejoin="round"></path><path d="M 12,11.625 c-0.207,0-0.375,0.168-0.375,0.375s0.168,0.375,0.375,0.375s0.375-0.168,0.375-0.375S12.207,11.625,12,11.625 " stroke="currentColor" fill="none" stroke-width="1.5" stroke-linecap="round" stroke-linejoin="round"></path><path d="M 16.5,11.625 L16.5,11.625 " stroke="currentColor" fill="none" stroke-width="1.5" stroke-linecap="round" stroke-linejoin="round"></path><path d="M 16.5,11.625c-0.207,0-0.375,0.168-0.375,0.375s0.168,0.375,0.375,0.375s0.375-0.168,0.375-0.375 S16.707,11.625,16.5,11.625 " stroke="currentColor" fill="none" stroke-width="1.5" stroke-linecap="round" stroke-linejoin="round"></path><path d="M 7.5,11.625L7.5,11.625 " stroke="currentColor" fill="none" stroke-width="1.5" stroke-linecap="round" stroke-linejoin="round"></path><path d="M 7.5,11.625c-0.207,0-0.375,0.168-0.375,0.375s0.168,0.375,0.375,0.375 S7.875,12.207,7.875,12S7.707,11.625,7.5,11.625" stroke="currentColor" fill="none" stroke-width="1.5" stroke-linecap="round" stroke-linejoin="round"></path></g></svg>
