<svg xmlns="http://www.w3.org/2000/svg" version="1.1" xmlns:xlink="http://www.w3.org/1999/xlink" xmlns:svgjs="http://svgjs.com/svgjs" viewBox="0 0 24 24" height="24" width="24"><g transform="matrix(1,0,0,1,0,0)"><path d="M23.707,11.293l-5-5c-0.397-0.384-1.03-0.373-1.414,0.025c-0.374,0.388-0.374,1.002,0,1.389l4.116,4.116 c0.098,0.098,0.098,0.256,0,0.354c0,0,0,0,0,0l-4.116,4.116c-0.397,0.384-0.408,1.017-0.025,1.414 c0.384,0.397,1.017,0.408,1.414,0.025c0.008-0.008,0.017-0.016,0.025-0.025l5-5c0.394-0.387,0.404-1.015,0.017-1.409 C23.72,11.295,23.716,11.291,23.707,11.293z M2.591,12.177c-0.098-0.098-0.098-0.256,0-0.354c0,0,0,0,0,0l4.116-4.116 C7.091,7.31,7.08,6.677,6.682,6.293c-0.388-0.374-1.002-0.374-1.389,0l-5,5c-0.39,0.391-0.39,1.024,0,1.414l5,5 c0.384,0.397,1.017,0.408,1.414,0.025c0.397-0.384,0.408-1.017,0.025-1.414c-0.008-0.008-0.016-0.017-0.025-0.025L2.591,12.177z M12,10.5c0.828,0,1.5,0.672,1.5,1.5s-0.672,1.5-1.5,1.5s-1.5-0.672-1.5-1.5S11.172,10.5,12,10.5z M16.5,10.5 c0.828,0,1.5,0.672,1.5,1.5s-0.672,1.5-1.5,1.5c-0.828,0-1.5-0.672-1.5-1.5S15.672,10.5,16.5,10.5z M7.5,10.5 C8.328,10.5,9,11.172,9,12s-0.672,1.5-1.5,1.5S6,12.828,6,12S6.672,10.5,7.5,10.5z" stroke="none" fill="currentColor" stroke-width="0" stroke-linecap="round" stroke-linejoin="round"></path></g></svg>
