<svg xmlns="http://www.w3.org/2000/svg" viewBox="0 0 24 24"><path fill="currentColor" d="m23.707 11.293-5-5a1 1 0 0 0-1.414 1.414l4.116 4.116a.25.25 0 0 1 0 .354l-4.116 4.116a1 1 0 0 0 1.389 1.439l.025-.025 5-5a.994.994 0 0 0 .017-1.409c-.004-.003-.008-.007-.017-.005zm-21.116.884a.25.25 0 0 1 0-.354l4.116-4.116a1 1 0 0 0-1.414-1.414l-5 5a1 1 0 0 0 0 1.414l5 5a1 1 0 0 0 1.439-1.389l-.025-.025-4.116-4.116zM12 10.5a1.5 1.5 0 1 1-.001 3.001A1.5 1.5 0 0 1 12 10.5zm4.5 0a1.5 1.5 0 1 1-.001 3.001A1.5 1.5 0 0 1 16.5 10.5zm-9 0a1.5 1.5 0 1 1-.001 3.001A1.5 1.5 0 0 1 7.5 10.5z"/></svg>