<svg xmlns="http://www.w3.org/2000/svg" version="1.1" xmlns:xlink="http://www.w3.org/1999/xlink" xmlns:svgjs="http://svgjs.com/svgjs" viewBox="0 0 24 24" height="24" width="24"><g transform="matrix(1,0,0,1,0,0)"><path d="M9.147,21.552c-0.337,0.001-0.66-0.136-0.895-0.378L0.84,13.561c-0.838-0.873-0.838-2.252,0-3.125l7.412-7.613 c0.487-0.489,1.279-0.491,1.768-0.004c0.481,0.479,0.492,1.256,0.023,1.748l-6.9,7.083c-0.191,0.194-0.191,0.506,0,0.7l6.9,7.082 c0.482,0.495,0.471,1.286-0.024,1.768c-0.234,0.228-0.549,0.356-0.876,0.354L9.147,21.552z M14.854,21.552 c-0.69,0.002-1.252-0.555-1.254-1.246c-0.001-0.327,0.126-0.642,0.354-0.876l6.9-7.083c0.191-0.194,0.191-0.506,0-0.7l-6.9-7.082 c-0.476-0.5-0.457-1.291,0.043-1.767c0.492-0.469,1.268-0.458,1.748,0.023l7.411,7.612c0.838,0.873,0.838,2.252,0,3.125 l-7.412,7.614C15.511,21.414,15.19,21.551,14.854,21.552z M21.368,12.179L21.368,12.179z" stroke="none" fill="currentColor" stroke-width="0" stroke-linecap="round" stroke-linejoin="round"></path></g></svg>
