<svg xmlns="http://www.w3.org/2000/svg" version="1.1" xmlns:xlink="http://www.w3.org/1999/xlink" xmlns:svgjs="http://svgjs.com/svgjs" viewBox="0 0 16 16" width="20" height="20"><g transform="matrix(0.6666666666666666,0,0,0.6666666666666666,0,0)"><path d="M11.978,0A12.021,12.021,0,0,0,.094,9.919a.5.5,0,0,0,.5.581h8.32a.5.5,0,0,0,.5-.5V6.4a1,1,0,0,1,1.625-.781l7,5.6a1,1,0,0,1,0,1.562l-7,5.6a1,1,0,0,1-.625.219,1.009,1.009,0,0,1-1-1V14a.5.5,0,0,0-.5-.5H.6a.506.506,0,0,0-.5.583A12,12,0,0,0,23.9,11.511,12.113,12.113,0,0,0,11.978,0Z" fill="currentColor" stroke="none" stroke-linecap="round" stroke-linejoin="round" stroke-width="0"></path></g></svg>
