<svg version="1.1"
     xmlns="http://www.w3.org/2000/svg" xmlns:xlink="http://www.w3.org/1999/xlink" xmlns:a="http://ns.adobe.com/AdobeSVGViewerExtensions/3.0/"
     x="0px" y="0px" width="15px" height="16px" viewBox="0 0 15 16" style="enable-background:new 0 0 15 16;" xml:space="preserve">
<style type="text/css">
    .st0{fill:none;stroke:#000000;stroke-linecap:round;stroke-linejoin:round;stroke-miterlimit:10;}
</style>
<defs>
</defs>
<g>
    <rect x="0.5" y="0.5" class="st0" width="2" height="15"/>
    <path class="st0" d="M2.5,1c3.4,1.3,7,1.3,10.7,0.4c0.3-0.1,0.6,0,0.9,0.2s0.4,0.5,0.4,0.8C14,8.3,10.8,12.8,4.9,15.3
        c-0.2,0.1-0.5,0.2-0.8,0.2H2.5"/>
    <path class="st0" d="M2.5,3.5c2.4,1.1,5,1.3,7.8,0.6c0.4-0.1,0.7,0,1,0.3c0.3,0.3,0.3,0.7,0.2,1c-1.2,3.3-3.4,5.7-6.5,7.4
        C4.7,12.9,4.3,13,4,13H2.5"/>
    <line class="st0" x1="4.5" y1="4.2" x2="4.5" y2="12.9"/>
    <line class="st0" x1="6.5" y1="4.5" x2="6.5" y2="11.8"/>
    <line class="st0" x1="8.5" y1="4.4" x2="8.5" y2="10.1"/>
</g>
</svg>
