<svg xmlns="http://www.w3.org/2000/svg" viewBox="0 0 16 16"><g fill="none" stroke="currentColor" stroke-linecap="round" stroke-linejoin="round"><path d="M2 1.067c6.82-3.274 6.9 4.713 12 1.14 1.113-.787 2.527.44 1.08 2.333l-8.413 9.533" stroke-width=".66667"/><path d="M2 3.26c5.473-2.707 6.6 4 10.667 1.147L2.333 14.073M.333 14.073V1.24A.833.833 0 012 1.24v12.833M3.667 2.68v10.147M5.333 2.687v8.58M7 3.347v6.36M8.667 4.42v3.733M7.667 14.073H.333v1A.667.667 0 001 15.74h6a.667.667 0 00.667-.667z" stroke-width=".66667"/></g></svg>