<svg viewBox="0 0 24 24" width="24" height="24"><g transform="matrix(1,0,0,1,0,0)"><path d="M 23.045,23.294c0.141,0.087,0.326,0.043,0.413-0.098c0.036-0.059,0.051-0.128,0.042-0.196V4.177 c-0.016-0.299-0.189-0.568-0.455-0.706l-6.06-2.744c-0.296-0.116-0.622-0.13-0.927-0.041L8.049,3.491 C7.744,3.58,7.417,3.567,7.12,3.454L0.957,0.723c-0.14-0.089-0.325-0.047-0.414,0.093C0.504,0.877,0.489,0.951,0.5,1.023 l0.019,18.821c0.018,0.298,0.192,0.564,0.458,0.7l6.128,2.728c0.297,0.114,0.623,0.127,0.929,0.039l8.024-2.8 c0.305-0.089,0.631-0.074,0.927,0.041L23.045,23.294z " stroke="currentColor" fill="none" stroke-width="1" stroke-linecap="round" stroke-linejoin="round"></path><path d="M 2.963,4.135C2.811,4.051,2.62,4.106,2.536,4.257 c-0.032,0.058-0.045,0.124-0.037,0.19v14.058c0.016,0.297,0.195,0.56,0.465,0.684L7.1,20.826c0.303,0.102,0.631,0.111,0.939,0.025 l8.494-2.846l4.5,1.775c0.154,0.083,0.346,0.025,0.429-0.129c0.031-0.058,0.043-0.123,0.036-0.188V5.916 c-0.016-0.3-0.186-0.57-0.448-0.716l-4.071-1.981c-0.292-0.123-0.617-0.145-0.923-0.06l-8,2.682 C7.748,5.927,7.421,5.918,7.118,5.813L2.963,4.135z " stroke="currentColor" fill="none" stroke-width="1" stroke-linecap="round" stroke-linejoin="round"></path><path d="M 14.499,8.979V3.681 " stroke="currentColor" fill="none" stroke-width="1" stroke-linecap="round" stroke-linejoin="round"></path><path d="M 2.5,14.349l5.157,1.887l3.371-1.157 c0.168-0.077,0.366-0.004,0.443,0.164c0.025,0.054,0.035,0.114,0.029,0.173v4.275 " stroke="currentColor" fill="none" stroke-width="1" stroke-linecap="round" stroke-linejoin="round"></path><path d="M 14.5,18.686v-4.207 c0.017-0.301,0.188-0.572,0.452-0.716l1.014-0.485c0.292-0.12,0.617-0.132,0.918-0.036l4.616,1.779 " stroke="currentColor" fill="none" stroke-width="1" stroke-linecap="round" stroke-linejoin="round"></path><path d="M 2.499,7.946l5,2.001l3.969-1 " stroke="currentColor" fill="none" stroke-width="1" stroke-linecap="round" stroke-linejoin="round"></path><path d="M 4.499,8.747V6.979 " stroke="currentColor" fill="none" stroke-width="1" stroke-linecap="round" stroke-linejoin="round"></path><path d="M 8.499,9.695V7.979 " stroke="currentColor" fill="none" stroke-width="1" stroke-linecap="round" stroke-linejoin="round"></path><path d="M 6.499,9.547V7.979" stroke="currentColor" fill="none" stroke-width="1" stroke-linecap="round" stroke-linejoin="round"></path></g></svg>
