<svg viewBox="0 0 16 16" width="16" height="16"><g transform="matrix(0.6666666666666666,0,0,0.6666666666666666,0,0)"><path d="M5.750 12.000 A1.250 1.250 0 1 0 8.250 12.000 A1.250 1.250 0 1 0 5.750 12.000 Z" fill="none" stroke="currentColor" stroke-linecap="round" stroke-linejoin="round"></path><path d="M10.750 12.000 A1.250 1.250 0 1 0 13.250 12.000 A1.250 1.250 0 1 0 10.750 12.000 Z" fill="none" stroke="currentColor" stroke-linecap="round" stroke-linejoin="round"></path><path d="M15.750 12.000 A1.250 1.250 0 1 0 18.250 12.000 A1.250 1.250 0 1 0 15.750 12.000 Z" fill="none" stroke="currentColor" stroke-linecap="round" stroke-linejoin="round"></path><path d="M0.500 0.500 L23.500 0.500 L23.500 23.500 L0.500 23.500 Z" fill="none" stroke="currentColor" stroke-linecap="round" stroke-linejoin="round"></path></g></svg>
