<svg viewBox="0 0 24 24"><g transform="matrix(1,0,0,1,0,0)"><path d="M 12,5.501c3.038,0,5.5,1.119,5.5,2.5s-2.462,2.5-5.5,2.5s-5.5-1.119-5.5-2.5S8.962,5.501,12,5.501z " stroke="currentColor" fill="none" stroke-width="1" stroke-linecap="round" stroke-linejoin="round"></path><path d="M 21,0.501 c1.381,0,2.5,0.672,2.5,1.5s-1.119,1.5-2.5,1.5s-2.5-0.672-2.5-1.5S19.619,0.501,21,0.501z " stroke="currentColor" fill="none" stroke-width="1" stroke-linecap="round" stroke-linejoin="round"></path><path d="M 23.5,2v3c0,0.828-1.119,1.5-2.5,1.5 S18.5,5.829,18.5,5V2 " stroke="currentColor" fill="none" stroke-width="1" stroke-linecap="round" stroke-linejoin="round"></path><path d="M 3,0.501c1.381,0,2.5,0.672,2.5,1.5s-1.119,1.5-2.5,1.5s-2.5-0.672-2.5-1.5S1.619,0.501,3,0.501z " stroke="currentColor" fill="none" stroke-width="1" stroke-linecap="round" stroke-linejoin="round"></path><path d="M 5.5,2v3 c0,0.828-1.119,1.5-2.5,1.5S0.5,5.829,0.5,5V2 " stroke="currentColor" fill="none" stroke-width="1" stroke-linecap="round" stroke-linejoin="round"></path><path d="M 21,17.501c1.381,0,2.5,0.672,2.5,1.5s-1.119,1.5-2.5,1.5s-2.5-0.672-2.5-1.5 S19.619,17.501,21,17.501z " stroke="currentColor" fill="none" stroke-width="1" stroke-linecap="round" stroke-linejoin="round"></path><path d="M 23.5,19v3c0,0.828-1.119,1.5-2.5,1.5s-2.5-0.672-2.5-1.5v-3 " stroke="currentColor" fill="none" stroke-width="1" stroke-linecap="round" stroke-linejoin="round"></path><path d="M 3,17.501c1.381,0,2.5,0.672,2.5,1.5 s-1.119,1.5-2.5,1.5s-2.5-0.672-2.5-1.5S1.619,17.501,3,17.501z " stroke="currentColor" fill="none" stroke-width="1" stroke-linecap="round" stroke-linejoin="round"></path><path d="M 5.5,19v3c0,0.828-1.119,1.5-2.5,1.5S0.5,22.829,0.5,22v-3 " stroke="currentColor" fill="none" stroke-width="1" stroke-linecap="round" stroke-linejoin="round"></path><path d="M 17.5,12c0,1.381-2.463,2.5-5.5,2.5S6.5,13.382,6.5,12 " stroke="currentColor" fill="none" stroke-width="1" stroke-linecap="round" stroke-linejoin="round"></path><path d="M 6.5,8v8c0,1.381,2.463,2.5,5.5,2.5s5.5-1.119,5.5-2.5V8 " stroke="currentColor" fill="none" stroke-width="1" stroke-linecap="round" stroke-linejoin="round"></path><path d="M 5.309,5.578 L6.851,7.12 " stroke="currentColor" fill="none" stroke-width="1" stroke-linecap="round" stroke-linejoin="round"></path><path d="M 18.691,5.578L17.149,7.12 " stroke="currentColor" fill="none" stroke-width="1" stroke-linecap="round" stroke-linejoin="round"></path><path d="M 5.355,18.497l1.551-1.552 " stroke="currentColor" fill="none" stroke-width="1" stroke-linecap="round" stroke-linejoin="round"></path><path d="M 18.645,18.497l-1.551-1.552" stroke="currentColor" fill="none" stroke-width="1" stroke-linecap="round" stroke-linejoin="round"></path></g></svg>
