<svg viewBox="0 0 24 24"><g transform="matrix(1,0,0,1,0,0)"><path d="M4.5,12c-0.001-0.662,0.283-1.292,0.78-1.729L16.432,0.46c0.781-0.656,1.946-0.554,2.602,0.228 c0.634,0.756,0.562,1.877-0.163,2.545l-9.752,8.579c-0.104,0.091-0.114,0.249-0.023,0.353c0.007,0.008,0.015,0.016,0.023,0.023 l9.752,8.579c0.781,0.656,0.883,1.821,0.228,2.602c-0.656,0.781-1.821,0.883-2.602,0.228c-0.022-0.018-0.043-0.037-0.065-0.057 L5.284,13.732C4.786,13.294,4.501,12.663,4.5,12z" stroke="none" fill="currentColor" stroke-width="0" stroke-linecap="round" stroke-linejoin="round"></path></g></svg>
