<svg xmlns="http://www.w3.org/2000/svg" viewBox="0 0 15 16"><path fill="none" stroke="currentColor" stroke-linecap="round" stroke-linejoin="round" stroke-miterlimit="10" d="M3 3.5H1C.7 3.5.5 3.3.5 3V1C.5.7.7.5 1 .5h2c.3 0 .5.2.5.5v2c0 .3-.2.5-.5.5zm0 12H1c-.3 0-.5-.2-.5-.5v-2c0-.3.2-.5.5-.5h2c.3 0 .5.2.5.5v2c0 .3-.2.5-.5.5zm11-12h-2c-.3 0-.5-.2-.5-.5V1c0-.3.2-.5.5-.5h2c.3 0 .5.2.5.5v2c0 .3-.2.5-.5.5zm0 12h-2c-.3 0-.5-.2-.5-.5v-2c0-.3.2-.5.5-.5h2c.3 0 .5.2.5.5v2c0 .3-.2.5-.5.5zM3.5 1.5h8m2 2v9m-2 2h-8m-2-2v-9m3 2.5c0-.8.7-1.5 1.5-1.5h3c.8 0 1.5.7 1.5 1.5m-3-1.5v7m-2 0h4"/></svg>