<svg xmlns="http://www.w3.org/2000/svg" version="1.1" xmlns:xlink="http://www.w3.org/1999/xlink" xmlns:svgjs="http://svgjs.com/svgjs" viewBox="0 0 24 24" height="24" width="24"><g transform="matrix(1,0,0,1,0,0)"><path d="M0,20.5c0.003,1.103,0.897,1.997,2,2h20c1.103-0.003,1.997-0.897,2-2v-17c-0.003-1.103-0.897-1.997-2-2H2 c-1.105,0-2,0.895-2,2V20.5z M2.25,5C2.251,4.31,2.81,3.751,3.5,3.75H21c0.69,0.001,1.249,0.56,1.25,1.25v14.5 c-0.001,0.69-0.56,1.249-1.25,1.25H3.5c-0.69-0.001-1.249-0.56-1.25-1.25V5z M20.75,5.75c0-0.276-0.224-0.5-0.5-0.5h-16 c-0.276,0-0.5,0.224-0.5,0.5v13c0,0.276,0.224,0.5,0.5,0.5h16c0.276,0,0.5-0.224,0.5-0.5V5.75z M10.707,10.793 c0.39,0.391,0.39,1.024,0,1.414l-2.5,2.5c-0.384,0.397-1.017,0.408-1.414,0.025c-0.397-0.384-0.408-1.017-0.025-1.414 c0.008-0.008,0.016-0.017,0.025-0.025l1.616-1.616c0.098-0.098,0.098-0.256,0-0.354c0,0,0,0,0,0L6.793,9.707 C6.396,9.323,6.385,8.69,6.768,8.293c0.384-0.397,1.017-0.408,1.414-0.025c0.008,0.008,0.017,0.016,0.025,0.025L10.707,10.793z M17.5,13.5c0,0.552-0.448,1-1,1h-4c-0.552,0-1-0.448-1-1s0.448-1,1-1h4C17.052,12.5,17.5,12.948,17.5,13.5z" stroke="none" fill="currentColor" stroke-width="0" stroke-linecap="round" stroke-linejoin="round"></path></g></svg>
