<svg xmlns="http://www.w3.org/2000/svg" viewBox="0 0 24 24"><path fill="currentColor" d="M0 20.5a2.006 2.006 0 0 0 2 2h20a2.006 2.006 0 0 0 2-2v-17a2.006 2.006 0 0 0-2-2H2a2 2 0 0 0-2 2v17zM2.25 5c.001-.69.56-1.249 1.25-1.25H21c.69.001 1.249.56 1.25 1.25v14.5A1.252 1.252 0 0 1 21 20.75H3.5a1.252 1.252 0 0 1-1.25-1.25V5zm18.5.75a.5.5 0 0 0-.5-.5h-16a.5.5 0 0 0-.5.5v13a.5.5 0 0 0 .5.5h16a.5.5 0 0 0 .5-.5v-13zm-10.043 5.043a1 1 0 0 1 0 1.414l-2.5 2.5a1 1 0 0 1-1.439-1.389l.025-.025 1.616-1.616a.25.25 0 0 0 0-.354L6.793 9.707a1 1 0 0 1 1.389-1.439l.025.025 2.5 2.5zM17.5 13.5a1 1 0 0 1-1 1h-4a1 1 0 0 1 0-2h4a1 1 0 0 1 1 1z"/></svg>