<svg xmlns="http://www.w3.org/2000/svg" viewBox="0 0 16 16"><g fill="none" stroke="#000" stroke-linecap="round" stroke-linejoin="round"><path d="M11.326 8.667a1 1 0 00-1-1h-6l-.707-.708a1 1 0 00-.707-.292H1.326a1 1 0 00-1 1v7a1 1 0 001 1h9a1 1 0 001-1z" stroke-width=".66667"/><path d="M12.493 12.5a1 1 0 001-1v-6a1 1 0 00-1-1h-6l-.707-.707a1 1 0 00-.707-.293H3.493a1 1 0 00-1 1v.659" stroke-width=".66667"/><path d="M14.674 9.333a1 1 0 001-1v-6a1 1 0 00-1-1h-6L7.967.626A1 1 0 007.26.333H5.674a1 1 0 00-1 1v.659" stroke-width=".66667"/></g></svg>