<svg xmlns="http://www.w3.org/2000/svg" width="14" height="16"><g fill="none" stroke="currentColor" stroke-linecap="round" stroke-linejoin="round" stroke-miterlimit="10"><path d="M10 15.5h3c.3 0 .5-.2.5-.5v-3.3c0-.1-.1-.3-.1-.4l-.7-.7c-.1-.1-.2-.1-.4-.1H10c-.3 0-.5.2-.5.5v4c0 .3.2.5.5.5zM10 6.5h3c.3 0 .5-.2.5-.5V2.7c0-.1-.1-.3-.1-.4l-.7-.7c-.1-.1-.2-.1-.4-.1H10c-.3 0-.5.2-.5.5v4c0 .3.2.5.5.5zM.5.5v1M.5 3.5v2M.5 7.5v2M.5 11.5v1c0 .6.4 1 1 1h1M4.5 13.5h2M8.5 13.5h1M.5 4.5h2M4.5 4.5h2M8.5 4.5h1"/></g></svg>
