<svg xmlns="http://www.w3.org/2000/svg" viewBox="0 0 24 24"><g stroke="currentColor" fill="none" stroke-linecap="round" stroke-linejoin="round"><path d="M5.139 2.5a2 2 0 1 1 .001 3.999 2 2 0 0 1 0-3.999zm0 6a2 2 0 1 1 .001 3.999 2 2 0 0 1 0-3.999zm0 6a2 2 0 1 1 .001 3.999 2 2 0 0 1 0-3.999z"/><path d="M9.139 19.5a4 4 0 0 1-8 0v-17a2 2 0 0 1 2-2h4a2 2 0 0 1 2 2v17z"/><path d="M8.568 21.56L17.1 6.777a2 2 0 0 0-.732-2.732l-3.464-2a2 2 0 0 0-2.732.731l-.001.001-1.035 1.8"/><path d="M22.593 11.732l-2-3.464a2 2 0 0 0-2.732-.732l-1.794 1.036L8.6 21.5a3.983 3.983 0 0 1-1.415 1.436l14.673-8.472a2 2 0 0 0 .735-2.732c0 .001 0 0 0 0zM5.139 20.749a.25.25 0 1 1 0 .5.25.25 0 0 1 0-.5"/></g></svg>