<svg xmlns="http://www.w3.org/2000/svg" viewBox="0 0 24 24"><g fill="none" stroke="currentColor" stroke-linecap="round" stroke-linejoin="round"><path d="M13.5 23.36H.5m8 0h-3m-2.82 0v-5c.018-.314.151-.61.374-.832L5.5 15.36h3l2.315 2.159c.218.228.348.526.365.841v5M8 5.36c.275 0 .724.022 1 .05l14.5 1.45v1a.5.5 0 0 1-.5.5h0H1a.5.5 0 0 1-.5-.5v-1L5.021 5.5c.319-.086.648-.133.979-.14h2z"/><path d="m.5 6.86 6.267-5.819a1.713 1.713 0 0 1 1.659-.3L23.5 6.86m-3 1.5v6.708a1 1 0 0 0 .6.917A1.5 1.5 0 1 1 19 17.36m-13.5-7 3 3m0 5-3 3m7-15.6v2.6M7.5.682V5.36m1 .015V23.36m-3 0V5.403"/></g></svg>