<svg xmlns="http://www.w3.org/2000/svg" version="1.1" xmlns:xlink="http://www.w3.org/1999/xlink" xmlns:svgjs="http://svgjs.com/svgjs" viewBox="0 0 24 24"><g transform="matrix(1,0,0,1,0,0)"><path d="M 13.5,23.36h-13 " stroke="currentColor" fill="none" stroke-width="1" stroke-linecap="round" stroke-linejoin="round"></path><path d="M 8.5,23.36h-3 " stroke="currentColor" fill="none" stroke-width="1" stroke-linecap="round" stroke-linejoin="round"></path><path d="M 2.68,23.36v-5c0.018-0.314,0.151-0.61,0.374-0.832L5.5,15.36h3l2.315,2.159 c0.218,0.228,0.348,0.526,0.365,0.841v5 " stroke="currentColor" fill="none" stroke-width="1" stroke-linecap="round" stroke-linejoin="round"></path><path d="M 8,5.36c0.275,0,0.724,0.022,1,0.05l14.5,1.45v1c0,0.276-0.224,0.5-0.5,0.5l0,0H1 c-0.276,0-0.5-0.224-0.5-0.5v-1L5.021,5.5C5.34,5.414,5.669,5.367,6,5.36H8z " stroke="currentColor" fill="none" stroke-width="1" stroke-linecap="round" stroke-linejoin="round"></path><path d="M 0.5,6.86l6.267-5.819 c0.462-0.384,1.092-0.498,1.659-0.3L23.5,6.86 " stroke="currentColor" fill="none" stroke-width="1" stroke-linecap="round" stroke-linejoin="round"></path><path d="M 20.5,8.36v6.708c0,0.398,0.235,0.758,0.6,0.917 c0.759,0.331,1.106,1.216,0.775,1.975s-1.216,1.106-1.975,0.775c-0.547-0.239-0.9-0.778-0.9-1.375 " stroke="currentColor" fill="none" stroke-width="1" stroke-linecap="round" stroke-linejoin="round"></path><path d="M 5.5,10.36l3,3 " stroke="currentColor" fill="none" stroke-width="1" stroke-linecap="round" stroke-linejoin="round"></path><path d="M 8.5,18.36l-3,3 " stroke="currentColor" fill="none" stroke-width="1" stroke-linecap="round" stroke-linejoin="round"></path><path d="M 12.5,5.76v2.6 " stroke="currentColor" fill="none" stroke-width="1" stroke-linecap="round" stroke-linejoin="round"></path><path d="M 7.5,0.682V5.36 " stroke="currentColor" fill="none" stroke-width="1" stroke-linecap="round" stroke-linejoin="round"></path><path d="M 8.5,5.375V23.36 " stroke="currentColor" fill="none" stroke-width="1" stroke-linecap="round" stroke-linejoin="round"></path><path d="M 5.5,23.36V5.403" stroke="currentColor" fill="none" stroke-width="1" stroke-linecap="round" stroke-linejoin="round"></path></g></svg>
