<svg xmlns="http://www.w3.org/2000/svg" version="1.1" xmlns:xlink="http://www.w3.org/1999/xlink" xmlns:svgjs="http://svgjs.com/svgjs" viewBox="0 0 16 16" width="16" height="16"><g transform="matrix(0.6666666666666666,0,0,0.6666666666666666,0,0)"><path d="M11.75,6.49c-0.965,0-1.914,0.254-2.75,0.736C8.522,7.502,8.358,8.114,8.634,8.592C8.722,8.744,8.848,8.87,9,8.958 c1.675,0.966,2.249,3.106,1.284,4.78C9.976,14.272,9.533,14.714,9,15.022c-0.478,0.277-0.641,0.888-0.365,1.366 C8.723,16.54,8.849,16.665,9,16.753c2.631,1.519,5.994,0.618,7.513-2.013c1.519-2.631,0.618-5.994-2.013-7.513 C13.664,6.744,12.716,6.49,11.75,6.49z M12.015,15.48c-0.138,0.01-0.258-0.093-0.268-0.231c-0.004-0.056,0.011-0.112,0.043-0.159 c1.28-1.868,1.28-4.332,0-6.2c-0.054-0.079-0.058-0.183-0.01-0.266c0.048-0.084,0.14-0.132,0.236-0.124 c1.927,0.146,3.372,1.827,3.226,3.754C15.111,13.979,13.74,15.349,12.015,15.48L12.015,15.48z M23.354,13.561 c0.861-0.862,0.861-2.26,0-3.122l-2.222-2.221V5.075c-0.001-1.218-0.989-2.206-2.207-2.207h-3.143l-2.221-2.222 c-0.862-0.861-2.26-0.861-3.122,0L8.218,2.868H5.075C3.857,2.869,2.869,3.857,2.868,5.075v3.143l-2.222,2.221 c-0.861,0.862-0.861,2.26,0,3.122l2.222,2.221v3.143c0.001,1.218,0.989,2.206,2.207,2.207h3.143l2.221,2.222 c0.862,0.861,2.26,0.861,3.122,0l2.221-2.222h3.143c1.218-0.001,2.206-0.989,2.207-2.207v-3.143L23.354,13.561z M21.909,11.823 c0.098,0.098,0.098,0.256,0,0.354c0,0,0,0,0,0l-2.484,2.484c-0.188,0.187-0.293,0.442-0.293,0.707v3.514 c0,0.138-0.112,0.25-0.25,0.25h-3.514c-0.265,0-0.52,0.105-0.707,0.293l-2.484,2.484c-0.098,0.098-0.256,0.098-0.354,0c0,0,0,0,0,0 l-2.484-2.484c-0.187-0.188-0.442-0.293-0.707-0.293H5.118c-0.138,0-0.25-0.112-0.25-0.25v-3.514c0-0.265-0.105-0.52-0.293-0.707 l-2.484-2.484c-0.098-0.098-0.098-0.256,0-0.354c0,0,0,0,0,0l2.484-2.484c0.188-0.187,0.293-0.442,0.293-0.707V5.118 c0-0.138,0.112-0.25,0.25-0.25h3.514c0.265,0,0.52-0.105,0.707-0.293l2.484-2.484c0.098-0.098,0.256-0.098,0.354,0c0,0,0,0,0,0 l2.484,2.484c0.187,0.188,0.442,0.293,0.707,0.293h3.514c0.138,0,0.25,0.112,0.25,0.25v3.514c0,0.265,0.105,0.52,0.293,0.707 L21.909,11.823z" stroke="none" fill="currentColor" stroke-width="0" stroke-linecap="round" stroke-linejoin="round"></path></g></svg>
