<svg xmlns="http://www.w3.org/2000/svg" viewBox="0 0 16 16"><path fill="currentColor" d="M7.833 4.327c-.643 0-1.276.169-1.833.49a.667.667 0 0 0 0 1.155 2.333 2.333 0 0 1 0 4.043.667.667 0 0 0 0 1.154 3.666 3.666 0 1 0 1.833-6.842zm.177 5.993a.167.167 0 0 1-.15-.26 3.657 3.657 0 0 0 0-4.133.167.167 0 0 1 .15-.26 2.334 2.334 0 0 1 0 4.653zm7.56-1.28a1.473 1.473 0 0 0 0-2.08l-1.482-1.481V3.383c0-.812-.66-1.47-1.471-1.471H10.52L9.041.431a1.473 1.473 0 0 0-2.082 0L5.48 1.912H3.383c-.812 0-1.47.66-1.471 1.471V5.48L.431 6.959a1.473 1.473 0 0 0 0 2.082l1.481 1.48v2.096c0 .812.66 1.47 1.471 1.471H5.48l1.48 1.481a1.473 1.473 0 0 0 2.082 0l1.48-1.481h2.096c.812 0 1.47-.66 1.471-1.471V10.52l1.481-1.48zm-.964-1.158a.167.167 0 0 1 0 .236L12.95 9.774a.665.665 0 0 0-.195.471v2.343a.167.167 0 0 1-.167.167h-2.343a.665.665 0 0 0-.471.195l-1.656 1.656a.167.167 0 0 1-.236 0L6.226 12.95a.665.665 0 0 0-.471-.195H3.412a.167.167 0 0 1-.167-.167v-2.343a.665.665 0 0 0-.195-.471L1.394 8.118a.167.167 0 0 1 0-.236L3.05 6.226a.665.665 0 0 0 .195-.471V3.412c0-.092.075-.167.167-.167h2.343c.176 0 .346-.07.471-.195l1.656-1.656a.167.167 0 0 1 .236 0L9.774 3.05a.665.665 0 0 0 .471.195h2.343c.092 0 .167.075.167.167v2.343c0 .176.07.346.195.471l1.656 1.656z"/></svg>