<svg viewBox="0 0 24 24"><g fill="none" stroke="currentColor" stroke-linecap="round" stroke-linejoin="round"><path d="M17.75 15.594a1.437 1.437 0 1 1 0 2.873 1.437 1.437 0 0 1 0-2.873z"/><path d="m18.971 11.47.424 1.392a.951.951 0 0 0 1.124.653l1.412-.327a1.283 1.283 0 0 1 1.221 2.126l-.988 1.065a.96.96 0 0 0 0 1.3l.988 1.065a1.283 1.283 0 0 1-1.221 2.126l-1.412-.328a.953.953 0 0 0-1.119.658l-.424 1.392a1.275 1.275 0 0 1-2.442 0l-.429-1.392a.953.953 0 0 0-1.124-.653l-1.412.328a1.283 1.283 0 0 1-1.221-2.126l.988-1.065a.96.96 0 0 0 0-1.3l-.988-1.065a1.283 1.283 0 0 1 1.221-2.126l1.412.327a.951.951 0 0 0 1.124-.653l.424-1.392a1.274 1.274 0 0 1 2.442-.005z"/><path d="M9.5 14.5H2A1.5 1.5 0 0 1 .5 13V2A1.5 1.5 0 0 1 2 .5h18A1.5 1.5 0 0 1 21.5 2v7.5"/><path d="M21.067.946 11 9 .933.946"/></g></svg>