<svg viewBox="0 0 24 24"><g transform="matrix(1,0,0,1,0,0)"><path d="M 17.75,15.594c0.794,0,1.437,0.643,1.437,1.437s-0.643,1.437-1.437,1.437s-1.437-0.643-1.437-1.437 S16.956,15.594,17.75,15.594z " stroke="currentColor" fill="none" stroke-width="1" stroke-linecap="round" stroke-linejoin="round"></path><path d="M 18.971,11.47l0.424,1.392c0.144,0.48,0.636,0.765,1.124,0.653l1.412-0.327 c0.691-0.156,1.378,0.278,1.534,0.969c0.093,0.413-0.024,0.846-0.313,1.157l-0.988,1.065c-0.338,0.367-0.338,0.933,0,1.3 l0.988,1.065c0.483,0.519,0.454,1.33-0.064,1.813c-0.31,0.289-0.743,0.406-1.157,0.313l-1.412-0.328 c-0.488-0.108-0.976,0.179-1.119,0.658l-0.424,1.392c-0.203,0.674-0.914,1.057-1.588,0.854c-0.41-0.123-0.731-0.444-0.854-0.854 L16.105,21.2c-0.145-0.479-0.636-0.764-1.124-0.653l-1.412,0.328c-0.691,0.156-1.378-0.278-1.534-0.969 c-0.093-0.413,0.024-0.846,0.313-1.157l0.988-1.065c0.338-0.367,0.338-0.933,0-1.3l-0.988-1.065 c-0.483-0.519-0.454-1.33,0.064-1.813c0.31-0.289,0.743-0.406,1.157-0.313l1.412,0.327c0.488,0.112,0.98-0.173,1.124-0.653 l0.424-1.392c0.201-0.675,0.912-1.059,1.586-0.857C18.526,10.74,18.847,11.06,18.971,11.47z " stroke="currentColor" fill="none" stroke-width="1" stroke-linecap="round" stroke-linejoin="round"></path><path d="M 9.5,14.5H2 c-0.828,0-1.5-0.672-1.5-1.5V2c0-0.828,0.672-1.5,1.5-1.5h18c0.828,0,1.5,0.672,1.5,1.5v7.5 " stroke="currentColor" fill="none" stroke-width="1" stroke-linecap="round" stroke-linejoin="round"></path><path d="M 21.067,0.946L11,9L0.933,0.946" stroke="currentColor" fill="none" stroke-width="1" stroke-linecap="round" stroke-linejoin="round"></path></g></svg>
