<svg xmlns="http://www.w3.org/2000/svg" version="1.1" xmlns:xlink="http://www.w3.org/1999/xlink" xmlns:svgjs="http://svgjs.com/svgjs" viewBox="0 0 24 24" height="24" width="24"><g transform="matrix(1,0,0,1,0,0)"><path d="M6.273,23.749h11.454c0.69,0,1.25-0.56,1.25-1.25s-0.56-1.25-1.25-1.25H6.273c-0.69,0-1.25,0.56-1.25,1.25 S5.583,23.749,6.273,23.749z M18.977,1.5c0-0.69-0.56-1.25-1.25-1.25H6.273c-0.69,0-1.25,0.56-1.25,1.25s0.56,1.25,1.25,1.25 h11.454C18.417,2.75,18.977,2.19,18.977,1.5z M14.864,8.226c0.552,0,1-0.448,1-1c0-0.265-0.105-0.519-0.293-0.707l-2.864-2.864 c-0.391-0.39-1.024-0.39-1.414,0L8.429,6.519c-0.39,0.391-0.39,1.024,0,1.414c0.187,0.187,0.442,0.293,0.707,0.293H10.5 c0.138,0,0.25,0.112,0.25,0.25v7.045c0,0.138-0.112,0.25-0.25,0.25H9.136c-0.552,0-1,0.448-1,1c0,0.265,0.105,0.519,0.293,0.707 l2.864,2.865c0.391,0.39,1.024,0.39,1.414,0l2.864-2.865c0.39-0.391,0.39-1.024,0-1.414c-0.187-0.187-0.442-0.293-0.707-0.293H13.5 c-0.138,0-0.25-0.112-0.25-0.25V8.476c0-0.138,0.112-0.25,0.25-0.25H14.864z" stroke="none" fill="currentColor" stroke-width="0" stroke-linecap="round" stroke-linejoin="round"></path></g></svg>
