<svg xmlns="http://www.w3.org/2000/svg" version="1.1" xmlns:xlink="http://www.w3.org/1999/xlink" xmlns:svgjs="http://svgjs.com/svgjs" viewBox="0 0 24 24" height="24" width="24"><g transform="matrix(1,0,0,1,0,0)"><path d="M0,23c0,0.552,0.448,1,1,1h5c0.552,0,1-0.448,1-1c0-0.265-0.105-0.519-0.293-0.707l-1.439-1.44 c-0.097-0.097-0.098-0.255-0.001-0.352c0,0,0.001-0.001,0.001-0.001l3.616-3.616c0.488-0.488,0.488-1.28,0-1.768 c-0.488-0.488-1.28-0.488-1.768,0L3.5,18.731c-0.098,0.098-0.256,0.098-0.354,0c0,0,0,0,0,0l-1.439-1.439 c-0.391-0.39-1.024-0.39-1.414,0C0.105,17.48,0,17.735,0,18V23z M24,1c0-0.552-0.448-1-1-1h-5c-0.552,0-1,0.448-1,1 c0,0.265,0.105,0.519,0.293,0.707l1.439,1.439c0.098,0.098,0.098,0.256,0,0.354c0,0,0,0,0,0l-3.616,3.615 c-0.488,0.488-0.488,1.28,0,1.768c0.488,0.488,1.28,0.488,1.768,0L20.5,5.267c0.098-0.098,0.256-0.098,0.354,0c0,0,0,0,0,0 l1.439,1.439C22.48,6.894,22.735,7,23,7c0.131,0,0.262-0.025,0.383-0.076C23.757,6.769,24,6.404,24,6V1z M0,6 c0,0.404,0.243,0.769,0.617,0.924C0.738,6.975,0.869,7,1,7c0.265,0,0.52-0.105,0.707-0.293L3.323,5.09l3.793,3.793 c0.488,0.488,1.28,0.488,1.768,0c0.488-0.488,0.488-1.28,0-1.768L5.268,3.5c-0.098-0.098-0.098-0.256,0-0.354c0,0,0,0,0,0 l1.439-1.44c0.39-0.391,0.389-1.024-0.002-1.414C6.518,0.105,6.264,0,6,0H1C0.448,0,0,0.448,0,1V6z M24,18c0-0.552-0.448-1-1-1 c-0.265,0-0.519,0.105-0.707,0.293l-1.439,1.439c-0.098,0.098-0.256,0.098-0.354,0c0,0,0,0,0,0l-3.616-3.616 c-0.488-0.488-1.28-0.488-1.768,0c-0.488,0.488-0.488,1.28,0,1.768l0,0l3.616,3.616c0.097,0.097,0.098,0.255,0.001,0.352 c0,0-0.001,0.001-0.001,0.001l-1.439,1.44c-0.39,0.391-0.39,1.024,0,1.414C17.481,23.895,17.735,24,18,24h5c0.552,0,1-0.448,1-1V18 z" stroke="none" fill="currentColor" stroke-width="0" stroke-linecap="round" stroke-linejoin="round"></path></g></svg>
