<svg xmlns="http://www.w3.org/2000/svg" viewBox="0 0 16 16"><path d="M6 15.5H1.5c-.6 0-1-.4-1-1V10c0-.6.4-1 1-1H6c.6 0 1 .4 1 1v4.5c0 .6-.4 1-1 1zM.5 13H7M6 7H1.5c-.6 0-1-.4-1-1V1.5c0-.6.4-1 1-1H6c.6 0 1 .4 1 1V6c0 .6-.4 1-1 1zM.5 4.5H7M14.5 7H10c-.6 0-1-.4-1-1V1.5c0-.6.4-1 1-1h4.5c.6 0 1 .4 1 1V6c0 .6-.4 1-1 1zM9 4.5h6.5M14.5 15.5H10c-.6 0-1-.4-1-1V10c0-.6.4-1 1-1h4.5c.6 0 1 .4 1 1v4.5c0 .6-.4 1-1 1zM9 13h6.5" fill="none" stroke="currentColor" stroke-linecap="round" stroke-linejoin="round" stroke-miterlimit="10"/></svg>