<svg version="1.1"
     xmlns="http://www.w3.org/2000/svg" xmlns:xlink="http://www.w3.org/1999/xlink" xmlns:a="http://ns.adobe.com/AdobeSVGViewerExtensions/3.0/"
     x="0px" y="0px" width="16px" height="16px" viewBox="0 0 16 16" style="enable-background:new 0 0 16 16;" xml:space="preserve">
<style type="text/css">
    .st0{fill:none;stroke:#000000;stroke-linecap:round;stroke-linejoin:round;stroke-miterlimit:10;}
</style>
<defs>
</defs>
<path class="st0" d="M6,15.5H1.5c-0.6,0-1-0.4-1-1V10c0-0.6,0.4-1,1-1H6c0.6,0,1,0.4,1,1v4.5C7,15.1,6.6,15.5,6,15.5z"/>
<line class="st0" x1="0.5" y1="13" x2="7" y2="13"/>
<path class="st0" d="M6,7H1.5c-0.6,0-1-0.4-1-1V1.5c0-0.6,0.4-1,1-1H6c0.6,0,1,0.4,1,1V6C7,6.6,6.6,7,6,7z"/>
<line class="st0" x1="0.5" y1="4.5" x2="7" y2="4.5"/>
<path class="st0" d="M14.5,7H10C9.4,7,9,6.6,9,6V1.5c0-0.6,0.4-1,1-1h4.5c0.6,0,1,0.4,1,1V6C15.5,6.6,15.1,7,14.5,7z"/>
<line class="st0" x1="9" y1="4.5" x2="15.5" y2="4.5"/>
<path class="st0" d="M14.5,15.5H10c-0.6,0-1-0.4-1-1V10c0-0.6,0.4-1,1-1h4.5c0.6,0,1,0.4,1,1v4.5C15.5,15.1,15.1,15.5,14.5,15.5z"/>
<line class="st0" x1="9" y1="13" x2="15.5" y2="13"/>
</svg>
