<svg xmlns="http://www.w3.org/2000/svg" viewBox="0 0 23.48 23.68"><path d="M11.63,19.58H1.56A1.05,1.05,0,0,1,.5,18.52v-17A1.05,1.05,0,0,1,1.56.5h15.9a1.05,1.05,0,0,1,1.06,1.06V12.13" fill="none" stroke="currentColor" stroke-linecap="round" stroke-linejoin="round"/><rect x="2.62" y="2.62" width="13.78" height="5.3" rx="0.53" fill="none" stroke="currentColor" stroke-linecap="round" stroke-linejoin="round"/><path d="M2.62,10.57v6.36a.53.53,0,0,0,.53.53H9.87a.53.53,0,0,0,.53-.53.68.68,0,0,0,0-.14L8.56,10.43A.53.53,0,0,0,8.05,10H3.15A.53.53,0,0,0,2.62,10.57ZM16.4,17.46V10.57a.53.53,0,0,0-.53-.53H11.81a.53.53,0,0,0-.53.53.39.39,0,0,0,0,.15l1.92,6.74H16.4M21,17.18v3a3,3,0,0,1-3,3H15m4-4,2-2,2,2" fill="none" stroke="currentColor" stroke-linecap="round" stroke-linejoin="round"/></svg>
