<svg xmlns="http://www.w3.org/2000/svg" version="1.1" xmlns:xlink="http://www.w3.org/1999/xlink" xmlns:svgjs="http://svgjs.com/svgjs" viewBox="0 0 24 24"><g transform="matrix(1,0,0,1,0,0)"><path d="M 0.75,23.25V0.75 " stroke="currentColor" fill="none" stroke-width="1.5" stroke-linecap="round" stroke-linejoin="round"></path><path d="M 0.75,17.708l3.154-0.97c2.643-0.814,5.509-0.449,7.864,1 c2.297,1.416,5.084,1.801,7.679,1.062l2.987-0.854c0.483-0.138,0.816-0.58,0.816-1.082V5.137c-0.001-0.622-0.505-1.126-1.127-1.125 c-0.104,0-0.207,0.015-0.307,0.043l-2.369,0.677c-2.594,0.741-5.381,0.358-7.679-1.056c-2.355-1.449-5.221-1.814-7.864-1 L0.75,3.645" stroke="currentColor" fill="none" stroke-width="1.5" stroke-linecap="round" stroke-linejoin="round"></path></g></svg>
