<svg width="58px" height="51px" viewBox="0 0 58 51" version="1.1" xmlns="http://www.w3.org/2000/svg" xmlns:xlink="http://www.w3.org/1999/xlink" xmlns:sketch="http://www.bohemiancoding.com/sketch/ns">
    <g stroke="none" stroke-width="1" fill="none" fill-rule="evenodd">
        <g id="Icons" transform="translate(-721.000000, -4081.000000)">
            <g transform="translate(721.000000, 4081.000000)">
                <path d="M55.981,51 L2.019,51 C0.904,51 0,50.096 0,48.981 L0,17 L58,17 L58,48.981 C58,50.096 57.096,51 55.981,51" id="Fill-1413" fill="#F0CE49" sketch:type="MSShapeGroup"></path>
                <path d="M26.019,8 L26.019,2.019 C26.019,0.904 25.115,0 24,0 L2.019,0 C0.904,0 0,0.904 0,2.019 L0,17 L58,17 L58,10.019 C58,8.904 57.096,8 55.981,8 L26.019,8" id="Fill-1414" fill="#ECBA16" sketch:type="MSShapeGroup"></path>
            </g>
        </g>
    </g>
</svg>
