<svg xmlns="http://www.w3.org/2000/svg" viewBox="0 0 24 24"><path d="M21.75 9V6a1.5 1.5 0 0 0-1.5-1.5h-12V3a1.5 1.5 0 0 0-1.5-1.5h-4.5A1.5 1.5 0 0 0 .75 3v17.8a1.7 1.7 0 0 0 3.336.438l2.351-11.154A1.5 1.5 0 0 1 7.879 9H21.75a1.5 1.5 0 0 1 1.45 1.886l-2.2 10.5a1.5 1.5 0 0 1-1.45 1.114H2.447" fill="none" stroke="currentColor" stroke-linecap="round" stroke-linejoin="round" stroke-width="1.5"/><path d="M9.75 12.375a.375.375 0 1 1-.375.375.375.375 0 0 1 .375-.375M18.379 19.5l-2.911-4.365a.75.75 0 0 0-1.238-.015l-2 2.851-1.23-.989a.75.75 0 0 0-1.092.17L8.34 19.5" fill="none" stroke="currentColor" stroke-linecap="round" stroke-linejoin="round" stroke-width="1.5"/></svg>