<?xml version="1.0" encoding="UTF-8"?><svg width="64" height="64" version="1.1" viewBox="0 0 64 64" xmlns="http://www.w3.org/2000/svg" xmlns:xlink="http://www.w3.org/1999/xlink"><g transform="scale(2.66667)"><path fill="none" stroke="currentColor" stroke-linejoin="round" stroke-width="1" d="M20.3284,14.6716c1.5621,1.5621 1.5621,4.09476 0,5.65685c-1.5621,1.5621 -4.09476,1.5621 -5.65685,0c-1.5621,-1.5621 -1.5621,-4.09476 -1.77636e-15,-5.65685c1.5621,-1.5621 4.09476,-1.5621 5.65685,-1.77636e-15"></path><path fill="none" stroke="currentColor" stroke-linecap="round" stroke-linejoin="round" stroke-width="1" d="M20.33,20.33l3.17,3.17"></path><path fill="none" stroke="currentColor" stroke-linecap="round" stroke-linejoin="round" stroke-width="1" d="M18.5,4.5v-2h-13v-2h-5v15.5c0,0.829 0.67,1.5 1.5,1.5c0.828,0 1.5,-0.671 1.5,-1.5v-11.5h17v5"></path><path fill="none" stroke="currentColor" stroke-linecap="round" stroke-linejoin="round" stroke-width="1" d="M2,17.5h7.5"></path><path fill="none" d="M0,0h24v24h-24Z"></path></g></svg>
