<svg version="1.1"
     xmlns="http://www.w3.org/2000/svg" xmlns:xlink="http://www.w3.org/1999/xlink" xmlns:a="http://ns.adobe.com/AdobeSVGViewerExtensions/3.0/"
     x="0px" y="0px" width="16px" height="16px" viewBox="0 0 16 16" style="enable-background:new 0 0 16 16;" xml:space="preserve">
<style type="text/css">
    .st0{fill:none;stroke:#000000;stroke-linecap:round;stroke-linejoin:round;stroke-miterlimit:10;}
</style>
<defs>
</defs>
<path class="st0" d="M13.5,4.5v-1c0-0.6-0.4-1-1-1H9.8"/>
<path class="st0" d="M4.2,2.5H1.5c-0.6,0-1,0.4-1,1v11c0,0.6,0.4,1,1,1H4"/>
<path class="st0" d="M9.6,3.2C9.5,3.4,9.4,3.5,9.1,3.5H4.9c-0.2,0-0.4-0.1-0.5-0.3l-0.7-2C3.7,1,3.7,0.8,3.8,0.7
    C3.9,0.6,4,0.5,4.2,0.5h5.6c0.2,0,0.3,0.1,0.4,0.2c0.1,0.1,0.1,0.3,0.1,0.5L9.6,3.2z"/>
<path class="st0" d="M4.5,13.5H3c-0.3,0-0.5-0.2-0.5-0.5V4.5"/>
<line class="st0" x1="10.5" y1="5" x2="10.5" y2="6.5"/>
<line class="st0" x1="4.5" y1="6.5" x2="7.5" y2="6.5"/>
<line class="st0" x1="4.5" y1="9.5" x2="5.5" y2="9.5"/>
<path class="st0" d="M8.7,15.1l-2.5,0.4L6.6,13l6.4-6.4c0.6-0.6,1.5-0.6,2.1,0c0.6,0.6,0.6,1.5,0,2.1L8.7,15.1z"/>
</svg>
