<svg viewBox="0 0 16 16" xmlns="http://www.w3.org/2000/svg"><g fill="none" stroke="currentColor" stroke-linecap="round" stroke-linejoin="round"><path d="M6.333 15.667H1A.667.667 0 01.333 15V2.333A.667.667 0 011 1.667h1.333M10.333 1.667h1.334a.667.667 0 01.666.666V7M7.667 1.667a1.333 1.333 0 00-2.667 0H3.667v2H9v-2z" stroke-width=".66667"/><path d="M11 7V3.333A.333.333 0 0010.667 3H9M3.667 3H2a.333.333 0 00-.333.333V14a.333.333 0 00.333.333h4.333M3.667 5.666H9M3.667 7.666H9M3.667 9.666h2.666M10.467 14.867l-2.8.8.8-2.8 4.786-4.786a1.414 1.414 0 012 2zM12.653 8.68l2 2M8.467 12.866l2 2" stroke-width=".66667"/></g></svg>