<svg xmlns="http://www.w3.org/2000/svg" viewBox="0 0 16 16"><path fill="none" stroke="currentColor" stroke-linecap="round" stroke-linejoin="round" stroke-miterlimit="10" d="M6.5 13.5h3M8 12v3m-3 .5H1.5c-.6 0-1-.4-1-1v-13c0-.6.4-1 1-1h13c.6 0 1 .4 1 1v13c0 .6-.4 1-1 1H11M.5 4.5h15"/><path d="M13 5.8c-.4 0-.8.3-.8.8 0 .4.3.8.8.8s.8-.3.8-.8-.4-.8-.8-.8z"/><path fill="none" stroke="currentColor" stroke-linecap="round" stroke-linejoin="round" stroke-miterlimit="10" d="M.5 8.5h15m-4.5 4h4.5m-15 0H5"/><path d="M13 9.7c-.4 0-.8.3-.8.8 0 .4.3.8.8.8s.8-.3.8-.8c0-.4-.4-.8-.8-.8zm0-8c-.4 0-.8.3-.8.8 0 .4.3.8.8.8s.8-.3.8-.8c0-.4-.4-.8-.8-.8z"/></svg>