<svg viewBox="0 0 16 16" xmlns="http://www.w3.org/2000/svg"><g fill="none" stroke="currentColor" stroke-linecap="round" stroke-linejoin="round"><path d="M14.333 3A1.333 1.333 0 0113 4.333H1.667A1.333 1.333 0 01.333 3V1.667A1.333 1.333 0 011.667.333H13a1.333 1.333 0 011.333 1.334z" stroke-width=".66667"/><path d="M1.667 8.333A1.333 1.333 0 01.333 7V5.667a1.333 1.333 0 011.334-1.334H13a1.333 1.333 0 011.333 1.334v1M3.167 2.167a.167.167 0 10.166.166.167.167 0 00-.166-.166h0M5.5 2.167a.167.167 0 10.167.166.167.167 0 00-.167-.166h0" stroke-width=".66667"/><path d="M3.167 6.167a.167.167 0 10.166.166.167.167 0 00-.166-.166h0M5.5 6.167a.167.167 0 10.167.166.167.167 0 00-.167-.166h0M6 12.333H1.667A1.333 1.333 0 01.333 11V9.667a1.333 1.333 0 011.334-1.334H7" stroke-width=".66667"/><path d="M3.167 10.167a.167.167 0 10.166.166.167.167 0 00-.166-.166h0M5.5 10.167a.167.167 0 10.167.166.167.167 0 00-.167-.166h0M7.667 11.667a4 4 0 108 0 4 4 0 10-8 0zM11.667 9.667v4M13.667 11.667h-4" stroke-width=".66667"/></g></svg>