<svg version="1.1"
     xmlns="http://www.w3.org/2000/svg" xmlns:xlink="http://www.w3.org/1999/xlink" xmlns:a="http://ns.adobe.com/AdobeSVGViewerExtensions/3.0/"
     x="0px" y="0px" width="16px" height="16px" viewBox="0 0 16 16" style="enable-background:new 0 0 16 16;" xml:space="preserve">
<style type="text/css">
    .st0{fill:none;stroke:#000000;stroke-linecap:round;stroke-linejoin:round;stroke-miterlimit:10;}
</style>
<defs>
</defs>
<line class="st0" x1="6.5" y1="13.5" x2="9.5" y2="13.5"/>
<line class="st0" x1="8" y1="12" x2="8" y2="15"/>
<path class="st0" d="M5,15.5H1.5c-0.6,0-1-0.4-1-1v-13c0-0.6,0.4-1,1-1h13c0.6,0,1,0.4,1,1v13c0,0.6-0.4,1-1,1H11"/>
<line class="st0" x1="0.5" y1="4.5" x2="15.5" y2="4.5"/>
<g>
    <path d="M13,5.8c-0.4,0-0.8,0.3-0.8,0.8c0,0.4,0.3,0.8,0.8,0.8s0.8-0.3,0.8-0.8C13.8,6.1,13.4,5.8,13,5.8L13,5.8z"/>
</g>
<line class="st0" x1="0.5" y1="8.5" x2="15.5" y2="8.5"/>
<line class="st0" x1="11" y1="12.5" x2="15.5" y2="12.5"/>
<line class="st0" x1="0.5" y1="12.5" x2="5" y2="12.5"/>
<g>
    <path d="M13,9.7c-0.4,0-0.8,0.3-0.8,0.8c0,0.4,0.3,0.8,0.8,0.8s0.8-0.3,0.8-0.8C13.8,10.1,13.4,9.7,13,9.7L13,9.7z"/>
</g>
<g>
    <path d="M13,1.7c-0.4,0-0.8,0.3-0.8,0.8c0,0.4,0.3,0.8,0.8,0.8s0.8-0.3,0.8-0.8C13.8,2.1,13.4,1.7,13,1.7L13,1.7z"/>
</g>
</svg>
