<svg xmlns="http://www.w3.org/2000/svg" viewBox="0 0 16.03 12.87"><path fill="currentColor" d="M8.32 0c.37 0 .68.34.68.74v11.37c0 .42-.31.76-.68.76s-.7-.34-.7-.76v-5.1H1.38v5.1c0 .42-.31.76-.68.76s-.7-.34-.7-.76V.74C0 .34.31 0 .7 0s.68.34.68.74v4.83h6.24V.74c0-.4.31-.74.7-.74zm7.22 11.57c.27 0 .48.23.48.5 0 .29-.22.52-.48.52h-4.51c-.36 0-.55-.22-.55-.5s.2-.48.34-.63c1.47-1.54 3.75-3.97 3.75-5.89 0-.85-.48-1.54-1.45-1.54-.59 0-1.09.25-1.41.98-.12.26-.27.36-.51.36-.33 0-.51-.26-.51-.55 0-.07.01-.12.03-.19.37-1.15 1.39-1.69 2.49-1.69 1.67 0 2.44 1.23 2.44 2.41 0 2.67-3.03 5.55-3.74 6.22h3.62z"/></svg>