<svg xmlns="http://www.w3.org/2000/svg" viewBox="0 0 15.25 13.79"><path fill="currentColor" d="M8.32 0c.37 0 .68.37.68.79v12.18c0 .45-.31.81-.68.81s-.7-.37-.7-.81V7.51H1.38v5.46c0 .45-.31.81-.68.81s-.7-.37-.7-.81V.79C0 .36.31 0 .7 0s.68.37.68.79v5.17h6.24V.79c0-.43.31-.79.7-.79zm6.5 12.59c.24 0 .44.21.44.46 0 .26-.2.47-.44.47h-4.07c-.32 0-.49-.2-.49-.46s.18-.44.31-.57c1.33-1.41 3.38-3.62 3.38-5.37 0-.77-.44-1.41-1.31-1.41-.53 0-.99.22-1.27.9-.1.24-.24.32-.46.32-.3 0-.46-.24-.46-.5 0-.06.01-.11.02-.17.33-1.04 1.25-1.54 2.25-1.54 1.5 0 2.2 1.12 2.2 2.2 0 2.44-2.73 5.06-3.37 5.67h3.27z"/></svg>
