<svg xmlns="http://www.w3.org/2000/svg" viewBox="0 0 15.61 12.87"><path fill="currentColor" d="M8.32 0c.37 0 .68.34.68.74v11.37c0 .42-.31.76-.68.76s-.7-.34-.7-.76v-5.1H1.38v5.1c0 .42-.31.76-.68.76s-.7-.34-.7-.76V.74C0 .34.31 0 .7 0s.68.34.68.74v4.83h6.24V.74c0-.4.31-.74.7-.74zm4.71 3.03c1.37 0 2.26.91 2.26 2.41 0 1.04-.45 1.88-1.28 2.31 1.02.22 1.59 1.21 1.59 2.33 0 1.71-1.11 2.77-2.58 2.77-.99 0-1.85-.37-2.36-1.2a.888.888 0 0 1-.13-.42c0-.16.06-.31.19-.41.08-.05.16-.1.25-.1.17 0 .32.11.43.29.43.59.95.75 1.58.75 1.02 0 1.62-.75 1.62-1.72 0-1.02-.69-1.66-1.68-1.66h-.2c-.31 0-.5-.23-.5-.55s.2-.55.5-.55h.14c.73 0 1.42-.67 1.42-1.65s-.5-1.51-1.34-1.51c-.63 0-1.01.22-1.31.67-.12.16-.27.25-.42.25-.08 0-.16-.03-.25-.08a.465.465 0 0 1-.18-.38c0-.12.04-.25.11-.37.47-.76 1.21-1.17 2.12-1.17z"/></svg>