<svg xmlns="http://www.w3.org/2000/svg" viewBox="0 0 15.07 13.79"><path fill="currentColor" d="M8.32 0c.37 0 .68.37.68.79v12.18c0 .45-.31.81-.68.81s-.7-.37-.7-.81V7.51H1.38v5.46c0 .45-.31.81-.68.81s-.7-.37-.7-.81V.79C0 .36.31 0 .7 0s.68.37.68.79v5.17h6.24V.79c0-.43.31-.79.7-.79zm4.21 4.82c1.35 0 2.23.83 2.23 2.2 0 .95-.44 1.72-1.26 2.1 1.01.2 1.57 1.11 1.57 2.13 0 1.55-1.1 2.52-2.55 2.52-.97 0-1.83-.33-2.33-1.09a.727.727 0 01-.13-.39c0-.15.06-.29.19-.37.08-.05.16-.09.24-.09.16 0 .31.1.43.26.43.54.94.68 1.56.68 1.01 0 1.6-.68 1.6-1.57 0-.93-.68-1.52-1.66-1.52h-.2c-.3 0-.5-.21-.5-.5s.2-.5.5-.5h.14c.72 0 1.4-.61 1.4-1.5s-.5-1.38-1.32-1.38c-.62 0-.99.2-1.3.61-.12.15-.27.22-.42.22-.08 0-.16-.02-.24-.07-.1-.07-.17-.2-.17-.35 0-.11.04-.22.1-.34.46-.7 1.19-1.07 2.09-1.07z"/></svg>
