<svg xmlns="http://www.w3.org/2000/svg" viewBox="0 0 16.43 12.87"><path fill="currentColor" d="M8.32 0c.37 0 .68.34.68.74v11.37c0 .42-.31.76-.68.76s-.7-.34-.7-.76v-5.1H1.38v5.1c0 .42-.31.76-.68.76s-.7-.34-.7-.76V.74C0 .34.31 0 .7 0s.68.34.68.74v4.83h6.24V.74c0-.4.31-.74.7-.74zm6.97 10.48v1.84c0 .31-.22.55-.47.55s-.47-.23-.47-.55v-1.84h-3.33c-.27 0-.51-.25-.51-.56 0-.12.04-.26.11-.38l3.17-5.91c.11-.2.24-.34.46-.34.26 0 .44.23.44.5 0 .1-.02.22-.08.33l-2.84 5.26h2.58V7.27c0-.31.22-.55.47-.55s.47.23.47.55v2.11h.65c.27 0 .5.26.5.55s-.22.55-.5.55h-.65z"/></svg>