<svg xmlns="http://www.w3.org/2000/svg" viewBox="0 0 15.06 13.79"><path fill="currentColor" d="M8.32 0c.37 0 .68.37.68.79v12.18c0 .45-.31.81-.68.81s-.7-.37-.7-.81V7.51H1.38v5.46c0 .45-.31.81-.68.81s-.7-.37-.7-.81V.79C0 .36.31 0 .7 0s.68.37.68.79v5.17h6.24V.79c0-.43.31-.79.7-.79zm5.72 11.61v1.68c0 .29-.2.5-.42.5s-.42-.21-.42-.5v-1.68h-2.95c-.24 0-.45-.22-.45-.51 0-.11.03-.24.09-.35l2.81-5.38c.09-.19.21-.31.41-.31.23 0 .39.21.39.46 0 .09-.02.2-.07.3l-2.52 4.8h2.29V8.69c0-.29.2-.5.42-.5s.42.21.42.5v1.93h.58c.24 0 .44.24.44.5s-.2.5-.44.5h-.58z"/></svg>
