<svg xmlns="http://www.w3.org/2000/svg" viewBox="0 0 15.09 13.79"><path fill="currentColor" d="M8.32 0c.37 0 .68.37.68.79v12.18c0 .45-.31.81-.68.81s-.7-.37-.7-.81V7.51H1.38v5.46c0 .45-.31.81-.68.81s-.7-.37-.7-.81V.79C0 .36.31 0 .7 0s.68.37.68.79v5.17h6.24V.79c0-.43.31-.79.7-.79zm2.62 12.11c.42.5.96.67 1.5.67.94 0 1.65-.77 1.65-1.84S13.32 9.1 12.1 9.1c-.2 0-.39.02-.57.05-.03 0-.07.01-.11.01-.32 0-.52-.24-.52-.56v-.1l.36-3.08c.04-.27.26-.47.5-.47h2.81c.25 0 .44.21.44.5s-.2.5-.44.5h-2.44l-.31 2.35c.18-.05.42-.09.66-.09 1.49 0 2.59 1.04 2.59 2.7 0 1.8-1.22 2.87-2.67 2.87-.77 0-1.57-.22-2.24-1.12a.53.53 0 01-.09-.3c0-.15.06-.3.19-.39.09-.06.17-.1.27-.1.14 0 .27.09.4.24z"/></svg>
