<svg xmlns="http://www.w3.org/2000/svg" viewBox="0 0 16.1 12.87"><path fill="currentColor" d="M8.32 0c.37 0 .68.34.68.74v11.37c0 .42-.31.76-.68.76s-.7-.34-.7-.76v-5.1H1.38v5.1c0 .42-.31.76-.68.76s-.7-.34-.7-.76V.74C0 .34.31 0 .7 0s.68.34.68.74v4.83h6.24V.74c0-.4.31-.74.7-.74zm3.58 11.02c.43.55.97.74 1.52.74.95 0 1.67-.85 1.67-2.02s-.78-2.02-2.02-2.02c-.2 0-.39.03-.58.05-.03 0-.07.01-.11.01-.32 0-.52-.26-.52-.61v-.11l.37-3.38c.04-.3.26-.52.51-.52h2.85c.25 0 .45.23.45.55s-.2.55-.45.55h-2.47l-.31 2.58c.18-.05.43-.1.66-.1 1.51 0 2.62 1.15 2.62 2.96 0 1.98-1.23 3.15-2.71 3.15-.78 0-1.59-.25-2.27-1.23-.06-.1-.09-.2-.09-.33 0-.16.06-.33.19-.42.09-.07.18-.11.27-.11.14 0 .27.1.4.26z"/></svg>