<svg xmlns="http://www.w3.org/2000/svg" viewBox="0 0 15.08 13.79"><path fill="currentColor" d="M8.32 0c.37 0 .68.37.68.79v12.18c0 .45-.31.81-.68.81s-.7-.37-.7-.81V7.51H1.38v5.46c0 .45-.31.81-.68.81s-.7-.37-.7-.81V.79C0 .36.31 0 .7 0s.68.37.68.79v5.17h6.24V.79c0-.43.31-.79.7-.79zm2.79 9.45c.3-.66.89-1.16 1.8-1.16 1.25 0 2.18 1.09 2.18 2.67 0 1.72-1.17 2.81-2.35 2.81-1.7 0-2.65-1.48-2.65-3.21 0-2.96 1.76-5.05 3.3-5.63.08-.02.16-.05.24-.05.16 0 .29.09.36.27.02.06.03.11.03.17 0 .21-.14.37-.33.45-1.16.52-2.28 1.73-2.58 3.67zm-.1 1.12c0 1.18.57 2.21 1.71 2.21.84 0 1.44-.81 1.44-1.74 0-1.01-.52-1.82-1.55-1.82-.89 0-1.43.73-1.6 1.34z"/></svg>
