<svg xmlns="http://www.w3.org/2000/svg" viewBox="0 0 16.32 12.87"><path fill="currentColor" d="M8.32 0c.37 0 .68.34.68.74v11.37c0 .42-.31.76-.68.76s-.7-.34-.7-.76v-5.1H1.38v5.1c0 .42-.31.76-.68.76s-.7-.34-.7-.76V.74C0 .34.31 0 .7 0s.68.34.68.74v4.83h6.24V.74c0-.4.31-.74.7-.74zM12.29 8.1c.31-.72.91-1.27 1.82-1.27 1.27 0 2.21 1.2 2.21 2.93 0 1.88-1.18 3.08-2.38 3.08-1.72 0-2.68-1.62-2.68-3.52 0-3.25 1.79-5.54 3.34-6.18.08-.03.17-.05.24-.05.17 0 .3.1.36.3.02.07.03.12.03.19 0 .23-.14.41-.33.49-1.17.57-2.31 1.9-2.62 4.02zm-.1 1.23c0 1.3.57 2.43 1.73 2.43.85 0 1.46-.89 1.46-1.91 0-1.1-.53-1.99-1.57-1.99-.9 0-1.45.8-1.62 1.47z"/></svg>
