<svg version="1.1"
     xmlns="http://www.w3.org/2000/svg" xmlns:xlink="http://www.w3.org/1999/xlink" xmlns:a="http://ns.adobe.com/AdobeSVGViewerExtensions/3.0/"
     x="0px" y="0px" width="16px" height="13px" viewBox="0 0 16 13" style="enable-background:new 0 0 16 13;" xml:space="preserve">
<style type="text/css">
    .st0{fill:none;stroke:#000000;stroke-linecap:round;stroke-linejoin:round;stroke-miterlimit:10;}
</style>
<defs>
</defs>
<g>
    <line class="st0" x1="1.9" y1="12.5" x2="14.4" y2="0.5"/>
    <path class="st0" d="M6,11.2c0.7,0.2,1.3,0.3,2,0.3c2.7,0,5.5-1.9,7.2-3.8c0.4-0.4,0.4-1.1,0-1.5c-0.6-0.6-1.3-1.3-2-1.8"/>
    <path class="st0" d="M9.6,2.7C9.1,2.6,8.5,2.5,8,2.5c-2.7,0-5.5,1.8-7.2,3.8c-0.4,0.4-0.4,1.1,0,1.5c0.5,0.5,1.1,1.1,1.7,1.6"/>
    <path class="st0" d="M5.5,7c0-1.4,1.1-2.5,2.5-2.5"/>
    <path class="st0" d="M10.5,7L10.5,7c0,1.4-1.1,2.5-2.5,2.5"/>
</g>
</svg>
