<svg xmlns="http://www.w3.org/2000/svg" viewBox="0 0 24 24"><path fill="none" stroke="currentColor" stroke-linecap="round" stroke-linejoin="round" d="M2.505 9.499v2.5m0 2.5v2.5m0-11.499v1a1 1 0 0 0 1 1h1m-2 12v1a1 1 0 0 0 1 1h1M7 7.499h3m-3 14h3m-7.495-21v2.5M20.5 9.5a1 1 0 0 1-1 1h-6a1 1 0 0 1-1-1v-8a1 1 0 0 1 1-1h3a2.782 2.782 0 0 1 1.707.707l1.586 1.586A2.782 2.782 0 0 1 20.5 4.5z"/><path fill="none" stroke="currentColor" stroke-linecap="round" stroke-linejoin="round" d="M17 .569V3a1 1 0 0 0 1 1h2.429m.071 18.5a1 1 0 0 1-1 1h-6a1 1 0 0 1-1-1v-8a1 1 0 0 1 1-1h3.114a2.139 2.139 0 0 1 1.513.627l1.666 1.666A2.782 2.782 0 0 1 20.5 17.5z"/><path fill="none" stroke="currentColor" stroke-linecap="round" stroke-linejoin="round" d="M17 13.536V16a1 1 0 0 0 1 1h2.43"/></svg>