<svg xmlns="http://www.w3.org/2000/svg" viewBox="0 0 16 16"><path fill="currentColor" d="m11.117 8.08-4.333 3.666a.333.333 0 0 0 .216.588h.833c.092 0 .167.075.167.167v3.166c0 .184.15.333.333.333H10c.184 0 .333-.15.333-.333v-1.5a1 1 0 0 1 2 0v1.5c0 .184.15.333.334.333h1.666c.184 0 .334-.15.334-.333V12.5c0-.092.074-.167.166-.167h.834a.333.333 0 0 0 .215-.588L11.549 8.08a.333.333 0 0 0-.432 0zM16 2a2 2 0 0 0-2-2H2a2 2 0 0 0-2 2v9.667a2 2 0 0 0 2 2h2.667a.667.667 0 0 0 0-1.333H2a.667.667 0 0 1-.667-.667V3.5c0-.092.074-.167.166-.168H14.5c.092 0 .167.075.167.167v4.833a.667.667 0 0 0 1.333 0V2zM2.897 2A.644.644 0 0 1 1.77 2a.649.649 0 0 1-.102-.333c0-.094.021-.188.061-.273A.667.667 0 0 1 2.333 1c.234.003.45.13.564.333.064.1.1.215.103.334A.649.649 0 0 1 2.897 2zm2.334 0a.644.644 0 0 1-1.128 0A.649.649 0 0 1 4 1.667a.649.649 0 0 1 .103-.334.644.644 0 0 1 1.128 0c.064.1.099.215.102.334A.649.649 0 0 1 5.231 2zm2.333 0a.644.644 0 0 1-1.128 0 .649.649 0 0 1-.103-.333.649.649 0 0 1 .103-.334.644.644 0 0 1 1.128 0c.064.1.1.215.103.334A.649.649 0 0 1 7.564 2z"/></svg>