<svg xmlns="http://www.w3.org/2000/svg" version="1.1" xmlns:xlink="http://www.w3.org/1999/xlink" xmlns:svgjs="http://svgjs.com/svgjs" viewBox="0 0 16 16" width="16" height="16"><g transform="matrix(0.6666666666666666,0,0,0.6666666666666666,0,0)"><path d="M16.676,12.119l-6.5,5.5c-0.211,0.178-0.238,0.494-0.059,0.705c0.095,0.113,0.236,0.178,0.383,0.177h1.25 c0.138,0,0.25,0.112,0.25,0.25V23.5c0,0.276,0.224,0.5,0.5,0.5H15c0.276,0,0.5-0.224,0.5-0.5v-2.25c0-0.828,0.672-1.5,1.5-1.5 s1.5,0.672,1.5,1.5v2.25c0,0.276,0.224,0.5,0.5,0.5h2.5c0.276,0,0.5-0.224,0.5-0.5v-4.75c0-0.138,0.112-0.25,0.25-0.25h1.25 c0.276,0,0.5-0.223,0.5-0.5c0-0.147-0.065-0.287-0.177-0.382l-6.5-5.5C17.136,11.96,16.862,11.96,16.676,12.119z M24,3 c0-1.657-1.343-3-3-3H3C1.343,0,0,1.343,0,3v14.5c0,1.657,1.343,3,3,3h4c0.552,0,1-0.448,1-1l0,0c0-0.552-0.448-1-1-1H3 c-0.552,0-1-0.448-1-1V5.251C1.999,5.113,2.111,5.001,2.249,5c0,0,0.001,0,0.001,0h19.5C21.888,5,22,5.112,22,5.25v7.25 c0,0.552,0.448,1,1,1l0,0c0.552,0,1-0.448,1-1V3z M4.346,3C4.088,3.467,3.501,3.637,3.034,3.38C2.874,3.292,2.742,3.16,2.654,3 C2.558,2.851,2.505,2.678,2.5,2.5c0.001-0.141,0.032-0.281,0.092-0.409C2.752,1.733,3.108,1.502,3.5,1.5 C3.851,1.504,4.174,1.694,4.346,2C4.442,2.149,4.495,2.322,4.5,2.5C4.495,2.678,4.442,2.851,4.346,3z M7.846,3 C7.588,3.467,7.001,3.637,6.534,3.38C6.374,3.292,6.242,3.16,6.154,3C6.058,2.851,6.005,2.678,6,2.5 C6.005,2.322,6.058,2.149,6.154,2c0.258-0.467,0.845-0.637,1.312-0.38C7.626,1.708,7.758,1.84,7.846,2 C7.942,2.149,7.995,2.322,8,2.5C7.995,2.678,7.942,2.851,7.846,3z M11.346,3c-0.258,0.467-0.845,0.637-1.312,0.38 C9.874,3.292,9.742,3.16,9.654,3C9.558,2.851,9.505,2.678,9.5,2.5C9.505,2.322,9.558,2.149,9.654,2 c0.258-0.467,0.845-0.637,1.312-0.38c0.16,0.088,0.292,0.22,0.38,0.38c0.096,0.149,0.149,0.322,0.154,0.5 C11.495,2.678,11.442,2.851,11.346,3z" stroke="none" fill="currentColor" stroke-width="0" stroke-linecap="round" stroke-linejoin="round"></path></g></svg>
