<svg xmlns="http://www.w3.org/2000/svg" viewBox="0 0 24 24"><g><path d="M24,8.41a1,1,0,0,0-.29-.7L18.29,2.29a1,1,0,0,0-.7-.29H2A2,2,0,0,0,0,4V20a2,2,0,0,0,2,2H22a2,2,0,0,0,2-2ZM22,19.5a.5.5,0,0,1-.5.5H2.5a.5.5,0,0,1-.5-.5V4.5A.5.5,0,0,1,2.5,4H17a.49.49,0,0,1,.36.15l4.53,4.53A.49.49,0,0,1,22,9Z" fill="currentColor"></path><circle cx="8.3" cy="8" r="2" fill="currentColor"></circle><path d="M13.72,10.68a.49.49,0,0,0-.84,0l-2.43,3.88a.27.27,0,0,1-.21.12.24.24,0,0,1-.21-.12l-.87-1.38a.49.49,0,0,0-.42-.24.51.51,0,0,0-.43.24L5.54,17.62a.25.25,0,0,0,0,.25.26.26,0,0,0,.22.13h12.1a.26.26,0,0,0,.22-.13.25.25,0,0,0,0-.25Z" fill="currentColor"></path></g></svg>