<svg xmlns="http://www.w3.org/2000/svg" viewBox="0 0 13 13"><g fill="none" fill-rule="evenodd" transform="translate(1 1)"><circle cx="5.5" cy="5.5" r="5.5" stroke="#19A1E6"/><path fill="#19A1E6" d="M6.69 9H4.361v-.322l.232-.02a.889.889 0 0 0 .208-.039.351.351 0 0 0 .202-.154.55.55 0 0 0 .066-.285V5.206c0-.104-.023-.2-.07-.286a.63.63 0 0 0-.198-.217.904.904 0 0 0-.269-.1 1.989 1.989 0 0 0-.322-.051v-.318l1.7-.107.068.068v3.926c0 .114.022.208.065.283a.39.39 0 0 0 .208.166 1.303 1.303 0 0 0 .44.107V9Zm-.615-6.772a.711.711 0 0 1-.183.485.579.579 0 0 1-.452.208.57.57 0 0 1-.432-.198.672.672 0 0 1 0-.92.568.568 0 0 1 .432-.2.6.6 0 0 1 .457.188.616.616 0 0 1 .178.437Z"/></g></svg>