<svg xmlns="http://www.w3.org/2000/svg" viewBox="0 0 22.39 24"><path d="M5.25,10.5h4.5" fill="none" stroke="currentColor" stroke-linecap="round" stroke-linejoin="round" stroke-width="1"/><path d="M5.25,14.25H7.5" fill="none" stroke="currentColor" stroke-linecap="round" stroke-linejoin="round" stroke-width="1"/><path d="M5.25,18H7.5" fill="none" stroke="currentColor" stroke-linecap="round" stroke-linejoin="round" stroke-width="1"/><path d="M13.75,23.25H2.25a1.5,1.5,0,0,1-1.5-1.5V6a1.5,1.5,0,0,1,1.5-1.5H6a3.75,3.75,0,0,1,7.5,0h3.75A1.5,1.5,0,0,1,18.75,6v5.25" fill="none" stroke="currentColor" stroke-linecap="round" stroke-linejoin="round" stroke-width="1"/><path d="M9.75,3.75a.38.38,0,1,1-.37.37h0a.37.37,0,0,1,.37-.37" fill="none" stroke="currentColor" stroke-linecap="round" stroke-linejoin="round" stroke-width="1"/><path d="M19.66,14.32a2,2,0,1,0,2,2A2,2,0,0,0,19.66,14.32Z" fill="none" stroke="currentColor" stroke-linecap="round" stroke-linejoin="round" stroke-width="1"/><path d="M13.16,18.55V16.3h4.5" fill="none" stroke="currentColor" stroke-linecap="round" stroke-linejoin="round" stroke-width="1"/><path d="M16.16,17.8V16.3" fill="none" stroke="currentColor" stroke-linecap="round" stroke-linejoin="round" stroke-width="1"/></svg>
