<svg viewBox="0 0 16 16" xmlns="http://www.w3.org/2000/svg"><g fill="none" stroke="#000" stroke-linecap="round" stroke-linejoin="round"><path d="M13.414 12.588l1.414-1.414a1.333 1.333 0 10-1.885-1.886l-1.414 1.415M10.585 11.645L9.172 13.06a1.334 1.334 0 001.885 1.887l1.414-1.413M13.179 10.939l-2.358 2.356M1.333 3.45h13.334M3.333 1.95h0M3.333 1.95a.167.167 0 10.167.167.167.167 0 00-.167-.166M4.667 1.95h0M4.667 1.95a.167.167 0 10.166.167.167.167 0 00-.166-.166M6 1.95h0M6 1.95a.167.167 0 10.167.167A.167.167 0 006 1.951" stroke-width=".66667"/><path d="M6.667 11.45h-4a1.333 1.333 0 01-1.334-1.333v-8A1.333 1.333 0 012.667.784h10.666a1.333 1.333 0 011.334 1.333v4" stroke-width=".66667"/></g></svg>