<svg xmlns="http://www.w3.org/2000/svg" viewBox="0 0 24 24"><g><path d="M7.75,4.5h15a1,1,0,0,0,0-2h-15a1,1,0,0,0,0,2Z" fill="currentColor"></path><path d="M22.75,11h-15a1,1,0,0,0,0,2h15a1,1,0,0,0,0-2Z" fill="currentColor"></path><path d="M22.75,19.5h-15a1,1,0,0,0,0,2h15a1,1,0,0,0,0-2Z" fill="currentColor"></path><path d="M2.21,17.25A2,2,0,0,0,.28,18.73a.75.75,0,0,0,1.45.39.5.5,0,0,1,.48-.37.5.5,0,0,1,.5.5.5.5,0,0,1-.5.5.75.75,0,0,0,0,1.5.5.5,0,0,1,.5.5.5.5,0,0,1-1,.13.75.75,0,1,0-1.44.41,2,2,0,0,0,3.92-.54,1.94,1.94,0,0,0-.34-1.11.28.28,0,0,1,0-.28,1.94,1.94,0,0,0,.34-1.11A2,2,0,0,0,2.21,17.25Z" fill="currentColor"></path><path d="M4.25,10.75a2,2,0,0,0-4,0A.76.76,0,0,0,1,11.5a.76.76,0,0,0,.75-.75.5.5,0,0,1,1,0,1,1,0,0,1-.23.64L.41,14a.76.76,0,0,0-.09.79.76.76,0,0,0,.68.43H3.5a.75.75,0,0,0,0-1.5H3.08a.25.25,0,0,1-.22-.14.24.24,0,0,1,0-.27l.81-1A2.59,2.59,0,0,0,4.25,10.75Z" fill="currentColor"></path><path d="M4,5.25H3.75A.25.25,0,0,1,3.5,5V1.62A1.38,1.38,0,0,0,2.12.25H1.5a.75.75,0,0,0,0,1.5h.25A.25.25,0,0,1,2,2V5a.25.25,0,0,1-.25.25H1.5a.75.75,0,0,0,0,1.5H4a.75.75,0,0,0,0-1.5Z" fill="currentColor"></path></g></svg>