<svg viewBox="0 0 10 10" xmlns="http://www.w3.org/2000/svg"><path d="M2.374,2.438a.255.255,0,0,0,.177-.073.251.251,0,0,0,.073-.177V1.312h4.75V3.685a.25.25,0,0,0,.25.25h.75a.25.25,0,0,0,.25-.25v-2.5A1.127,1.127,0,0,0,7.5.062h-5A1.127,1.127,0,0,0,1.374,1.188v1a.25.25,0,0,0,.25.25Z" fill="currentColor" stroke="none" stroke-linecap="round" stroke-linejoin="round" stroke-width="0"></path><path d="M8.534,9.938H1.482A1.192,1.192,0,0,1,.289,8.824L0,4.333a.845.845,0,0,1,.847-.895H3.536a.845.845,0,0,1,.822.637l.2.86h4.6a.852.852,0,0,1,.624.273A.841.841,0,0,1,10,5.843L9.726,8.85A1.2,1.2,0,0,1,8.534,9.938Z" fill="currentColor" stroke="none" stroke-linecap="round" stroke-linejoin="round" stroke-width="0"></path></svg>