<svg xmlns="http://www.w3.org/2000/svg" viewBox="0 0 10 10"><path fill="currentColor" d="M10 2.942a.75.75 0 0 0-.75-.75H7.562a.25.25 0 0 1-.245-.2 2.381 2.381 0 0 0-4.675 0 .251.251 0 0 1-.245.2H.75a.75.75 0 0 0 0 1.5H1a.25.25 0 0 1 .25.25v4.5a1.5 1.5 0 0 0 1.5 1.5h4.5a1.5 1.5 0 0 0 1.5-1.5v-4.5a.25.25 0 0 1 .25-.25h.25a.75.75 0 0 0 .75-.75Zm-5.021-1.63A1.108 1.108 0 0 1 5.9 1.8a.254.254 0 0 1 .015.259.25.25 0 0 1-.221.133H4.269a.25.25 0 0 1-.206-.392 1.1 1.1 0 0 1 .916-.488Zm-.854 6.376a.625.625 0 0 1-1.25 0v-2.5a.625.625 0 1 1 1.25 0Zm3 0a.625.625 0 0 1-1.25 0v-2.5a.625.625 0 1 1 1.25 0Z"/></svg>