<svg viewBox="0 0 10 10" xmlns="http://www.w3.org/2000/svg"><path d="M10,2.942a.75.75,0,0,0-.75-.75H7.562a.25.25,0,0,1-.245-.2,2.381,2.381,0,0,0-4.675,0,.251.251,0,0,1-.245.2H.75a.75.75,0,0,0,0,1.5H1a.25.25,0,0,1,.25.25v4.5a1.5,1.5,0,0,0,1.5,1.5h4.5a1.5,1.5,0,0,0,1.5-1.5v-4.5A.25.25,0,0,1,9,3.692h.25A.75.75,0,0,0,10,2.942ZM4.979,1.312A1.108,1.108,0,0,1,5.9,1.8a.254.254,0,0,1,.015.259.25.25,0,0,1-.221.133H4.269A.25.25,0,0,1,4.063,1.8,1.1,1.1,0,0,1,4.979,1.312ZM4.125,7.688a.625.625,0,0,1-1.25,0v-2.5a.625.625,0,1,1,1.25,0Zm3,0a.625.625,0,0,1-1.25,0v-2.5a.625.625,0,1,1,1.25,0Z" fill="currentColor" stroke="none" stroke-linecap="round" stroke-linejoin="round" stroke-width="0"></path></svg>