<svg xmlns="http://www.w3.org/2000/svg" width="48" height="48" viewBox="0 0 48 48"><defs><linearGradient id="nova-a" x1="50%" x2="50%" y1="0%" y2="100%"><stop offset="0%" stop-color="#C7CECB"/><stop offset="100%" stop-color="#9CA5A0"/></linearGradient></defs><path fill="url(#nova-a)" d="M24 44C12.954305 44 4 35.045695 4 24S12.954305 4 24 4s20 8.954305 20 20-8.954305 20-20 20zm11.2779613-9.1953234l-.0000137-.0000135c4.9106162-4.9025384 4.897822-12.8178011-.0383826-17.7046407-4.9490321-4.8995387-12.9729985-4.8995387-17.9220306 0-2.7494623 2.721966-2.7494623 7.1351449 0 9.8571108 2.7494623 2.721966 7.2072214 2.721966 9.9566836 0 .5498925-.5443932.5498925-1.4270289 0-1.9714221-.5498924-.5443932-1.4414442-.5443932-1.9913367 0-1.6496773 1.6331796-4.3243328 1.6331796-5.9740102 0-1.6496773-1.6331796-1.6496773-4.2810869 0-5.9142665 3.8492472-3.8107524 10.09011-3.8107524 13.9393571 0 3.8492472 3.8107524 3.8492472 9.9892027 0 13.7999551-5.7123837 5.6552565-14.7765813 5.9698-20.8618165.9436323 2.8412206 3.3727714 7.1178358 5.5190338 11.9008012 5.5190338 4.296724 0 8.1848169-1.7320613 10.9907484-4.5293892zm.9100529-20.6197086c-2.8412206-3.3727714-7.1178358-5.51903376-11.9008013-5.51903376-4.2869417 0-8.1671109 1.72418356-10.9715683 4.51030806-4.92980744 4.901059-4.92340201 12.8305461.0192163 17.7237353 4.9490321 4.8995387 12.9729985 4.8995387 17.9220306 0 2.7494623-2.721966 2.7494623-7.1351449 0-9.8571108-2.7494623-2.721966-7.2072214-2.721966-9.9566836 0-.5498925.5443932-.5498925 1.4270289 0 1.9714221.5498924.5443932 1.4414442.5443932 1.9913367 0 1.6496773-1.6331796 4.3243328-1.6331796 5.9740102 0 1.6496773 1.6331796 1.6496773 4.2810869 0 5.9142665-3.8492472 3.8107524-10.09011 3.8107524-13.9393571 0-3.8492472-3.8107524-3.8492472-9.9892027 0-13.7999551 5.7123837-5.6552565 14.7765813-5.96980002 20.8618186-.9436306z"/></svg>
