<svg xmlns="http://www.w3.org/2000/svg" fill="none" viewBox="0 0 14 14"><path fill="currentColor" fill-rule="evenodd" d="M0.77002 0.25C0.355806 0.25 0.0200195 0.585786 0.0200195 1C0.0200195 1.41421 0.355806 1.75 0.77002 1.75H13.23C13.6442 1.75 13.98 1.41421 13.98 1C13.98 0.585786 13.6442 0.25 13.23 0.25H0.77002ZM0.77002 4.25C0.355806 4.25 0.0200195 4.58579 0.0200195 5C0.0200195 5.41421 0.355806 5.75 0.77002 5.75H9.69587C10.1101 5.75 10.4459 5.41421 10.4459 5C10.4459 4.58579 10.1101 4.25 9.69587 4.25H0.77002ZM0.0200195 13C0.0200195 12.5858 0.355806 12.25 0.77002 12.25H13.23C13.6442 12.25 13.98 12.5858 13.98 13C13.98 13.4142 13.6442 13.75 13.23 13.75H0.77002C0.355806 13.75 0.0200195 13.4142 0.0200195 13ZM0.77002 8.25C0.355806 8.25 0.0200195 8.58579 0.0200195 9C0.0200195 9.41421 0.355806 9.75 0.77002 9.75H9.69587C10.1101 9.75 10.4459 9.41421 10.4459 9C10.4459 8.58579 10.1101 8.25 9.69587 8.25H0.77002Z" clip-rule="evenodd"></path></svg>