<svg viewBox="0 0 24 24"><g transform="matrix(1,0,0,1,0,0)"><path d="M 19.5,12.5V6.478c0.002-3.3-2.672-5.976-5.972-5.978c-0.001,0-0.002,0-0.003,0H1.5c-0.552,0-1,0.448-1,1v21 c0,0.552,0.448,1,1,1h3 " stroke="currentColor" fill="none" stroke-width="1" stroke-linecap="round" stroke-linejoin="round"></path><path d="M 14.5,0.584V4.5c0,0.552,0.448,1,1,1h3.92 " stroke="currentColor" fill="none" stroke-width="1" stroke-linecap="round" stroke-linejoin="round"></path><path d="M 23.5,17.5c0,1.105-0.895,2-2,2h-2v-4h2 C22.605,15.5,23.5,16.395,23.5,17.5z " stroke="currentColor" fill="none" stroke-width="1" stroke-linecap="round" stroke-linejoin="round"></path><path d="M 19.5,23.504v-4 " stroke="currentColor" fill="none" stroke-width="1" stroke-linecap="round" stroke-linejoin="round"></path><path d="M 11.5,17.5c0,1.105-0.895,2-2,2h-2v-4h2C10.605,15.5,11.5,16.395,11.5,17.5z " stroke="currentColor" fill="none" stroke-width="1" stroke-linecap="round" stroke-linejoin="round"></path><path d="M 7.5,23.504v-4 " stroke="currentColor" fill="none" stroke-width="1" stroke-linecap="round" stroke-linejoin="round"></path><path d="M 17.5,15.504v8 " stroke="currentColor" fill="none" stroke-width="1" stroke-linecap="round" stroke-linejoin="round"></path><path d="M 13.5,23.504v-8 " stroke="currentColor" fill="none" stroke-width="1" stroke-linecap="round" stroke-linejoin="round"></path><path d="M 13.5,19.504h4" stroke="currentColor" fill="none" stroke-width="1" stroke-linecap="round" stroke-linejoin="round"></path></g></svg>
