<svg xmlns="http://www.w3.org/2000/svg" fill="none" viewBox="0 0 48 48" stroke-width="3"><path stroke="currentColor" stroke-linecap="round" stroke-linejoin="round" d="M44.1612 23.0398C44.752 22.3879 45.089 21.5478 45.0229 20.6705C44.8694 18.6309 43.8537 14.4238 38.737 9.30711C33.6367 4.20686 29.4187 3.15962 27.3589 2.98819C26.4636 2.91367 25.6034 3.25364 24.9391 3.85857C20.9613 7.48139 19.6386 13.5775 19.2056 16.8193C19.0497 17.9867 17.9857 18.898 16.8091 18.9486C15.0552 19.0239 12.4906 19.3887 10.0338 20.6758C8.71143 21.3686 8.20199 22.9211 8.81842 24.2808C9.71658 26.2618 11.5353 29.3688 15.1053 32.9388C18.6743 36.5078 21.7659 38.3118 23.7347 39.1979C25.0866 39.8063 26.6255 39.2961 27.3154 37.9838C28.6099 35.5218 28.9762 32.9493 29.0518 31.1913C29.1023 30.0147 30.0137 28.9506 31.181 28.7947C34.4287 28.361 40.5408 27.0343 44.1612 23.0398Z"></path><path stroke="currentColor" stroke-linecap="round" stroke-linejoin="round" d="M12.0114 29.4492C6.72231 36.9191 2.07493 43.7613 3.15683 44.8432C4.23844 45.9248 11.0773 41.2802 18.545 35.9929"></path><path stroke="currentColor" stroke-linecap="round" stroke-linejoin="round" d="M27.9997 10.1507C28.9399 11.796 30.3124 13.6547 32.3096 15.652C34.3802 17.7225 36.3054 19.1251 37.9997 20.0723"></path></svg>