<svg version="1.1"
     xmlns="http://www.w3.org/2000/svg" xmlns:xlink="http://www.w3.org/1999/xlink" xmlns:a="http://ns.adobe.com/AdobeSVGViewerExtensions/3.0/"
     x="0px" y="0px" width="15px" height="16px" viewBox="0 0 15 16" style="enable-background:new 0 0 15 16;" xml:space="preserve">
<style type="text/css">
    .st0{fill:none;stroke:#000000;stroke-linecap:round;stroke-linejoin:round;stroke-miterlimit:10;}
</style>
<defs>
</defs>
<g>
    <path class="st0" d="M14.5,14.5c0,0.6-0.4,1-1,1h-12c-0.6,0-1-0.4-1-1v-13c0-0.6,0.4-1,1-1h10c0.3,0,0.5,0.1,0.7,0.3l2,1.9
        c0.2,0.2,0.3,0.4,0.3,0.7V14.5z"/>
    <line class="st0" x1="5.5" y1="7.5" x2="5.5" y2="3.5"/>
    <polyline class="st0" points="3.5,4.5 3.5,3.5 7.5,3.5 7.5,4.5 	"/>
    <line class="st0" x1="10" y1="6.5" x2="11.5" y2="6.5"/>
    <line class="st0" x1="10" y1="3.5" x2="11.5" y2="3.5"/>
    <line class="st0" x1="3.5" y1="9.5" x2="11.5" y2="9.5"/>
    <line class="st0" x1="3.5" y1="12.5" x2="11.5" y2="12.5"/>
    <line class="st0" x1="4.5" y1="7.5" x2="6.5" y2="7.5"/>
</g>
</svg>
