<svg version="1.1"
	 xmlns="http://www.w3.org/2000/svg" xmlns:xlink="http://www.w3.org/1999/xlink" xmlns:a="http://ns.adobe.com/AdobeSVGViewerExtensions/3.0/"
	 x="0px" y="0px" width="16px" height="16px" viewBox="0 0 16 16" style="enable-background:new 0 0 16 16;" xml:space="preserve">
<style type="text/css">
	.st0{fill:none;stroke:#000000;stroke-linecap:round;stroke-linejoin:round;stroke-miterlimit:10;}
</style>
<defs>
</defs>
<g>
	<path class="st0" d="M14.5,3.5h-13c-0.6,0-1-0.4-1-1v-1c0-0.6,0.4-1,1-1h13c0.6,0,1,0.4,1,1v1C15.5,3.1,15.1,3.5,14.5,3.5z"/>
	<path class="st0" d="M14.5,9.5h-13c-0.6,0-1-0.4-1-1v-1c0-0.6,0.4-1,1-1h13c0.6,0,1,0.4,1,1v1C15.5,9.1,15.1,9.5,14.5,9.5z"/>
	<path class="st0" d="M14.5,15.5h-13c-0.6,0-1-0.4-1-1v-1c0-0.6,0.4-1,1-1h13c0.6,0,1,0.4,1,1v1C15.5,15.1,15.1,15.5,14.5,15.5z"/>
</g>
</svg>
