<svg xmlns="http://www.w3.org/2000/svg" viewBox="0 0 16 16"><g fill="none" stroke="currentColor" stroke-linecap="round" stroke-linejoin="round" transform="scale(.66667)"><rect width="23" height="8" x=".5" y="2.5" rx="1" ry="1"/><path d="M3 4.5h8m-8 2h5m-5 2h3.5m9-6v8M21 5.54a.5.5 0 0 0-.812-.39l-1.2.96a.5.5 0 0 0 0 .78l1.2.96A.5.5 0 0 0 21 7.46z"/><rect width="23" height="8" x=".5" y="13.5" rx="1" ry="1"/><path d="M3 15.5h8m-8 2h5m-5 2h3.5m9-6v8m5.5-4.96a.5.5 0 0 0-.812-.39l-1.2.96a.5.5 0 0 0 0 .78l1.2.96a.5.5 0 0 0 .812-.39z"/></g></svg>