<svg version="1.1"
     xmlns="http://www.w3.org/2000/svg" xmlns:xlink="http://www.w3.org/1999/xlink" xmlns:a="http://ns.adobe.com/AdobeSVGViewerExtensions/3.0/"
     x="0px" y="0px" width="16px" height="16px" viewBox="0 0 16 16" style="enable-background:new 0 0 16 16;" xml:space="preserve">
<style type="text/css">
    .st0{fill:none;stroke:#000000;stroke-linecap:round;stroke-linejoin:round;stroke-miterlimit:10;}
</style>
<defs>
</defs>
<g>
    <path class="st0" d="M3,8c0,0,2-3,5-3s5,3,5,3s-2,3-5,3S3,8,3,8z"/>
    <path class="st0" d="M8,9.2L8,9.2C7.3,9.2,6.8,8.7,6.8,8v0c0-0.7,0.6-1.2,1.2-1.2h0c0.7,0,1.2,0.6,1.2,1.2v0C9.2,8.7,8.7,9.2,8,9.2
        z"/>
    <g>
        <path class="st0" d="M0.5,3V1.5c0-0.6,0.4-1,1-1H3"/>
        <path class="st0" d="M15.5,3V1.5c0-0.6-0.4-1-1-1H13"/>
        <path class="st0" d="M0.5,13v1.5c0,0.6,0.4,1,1,1H3"/>
        <path class="st0" d="M15.5,13v1.5c0,0.6-0.4,1-1,1H13"/>
    </g>
</g>
</svg>
