<svg viewBox="0 0 24 24"><g transform="matrix(1,0,0,1,0,0)"><path d="M 10.5,0.501c5.523,0,10,4.477,10,10s-4.477,10-10,10s-10-4.477-10-10S4.977,0.501,10.5,0.501z " stroke="currentColor" fill="none" stroke-width="1" stroke-linecap="round" stroke-linejoin="round"></path><path d="M 17.572,17.574 l5.928,5.927 " stroke="currentColor" fill="none" stroke-width="1" stroke-linecap="round" stroke-linejoin="round"></path><path d="M 15.361,9.426l0.652-0.376c0.478-0.276,0.642-0.888,0.366-1.366l-0.5-0.866c-0.276-0.478-0.888-0.642-1.366-0.366 l-0.645,0.372C13.333,6.326,12.696,5.953,12,5.731V5c0-0.552-0.448-1-1-1h-1C9.448,4,9,4.448,9,5v0.738 c-0.692,0.224-1.327,0.596-1.861,1.09L6.486,6.451C6.008,6.175,5.396,6.339,5.12,6.818c0,0,0,0,0,0l-0.5,0.866 C4.344,8.162,4.508,8.774,4.986,9.05l0.656,0.379c-0.157,0.707-0.157,1.44,0,2.147L4.99,11.952 c-0.479,0.276-0.643,0.887-0.367,1.366c0,0,0,0,0,0l0.5,0.866c0.276,0.478,0.888,0.642,1.366,0.366l0.645-0.372 C7.668,14.675,8.305,15.048,9,15.27V16c0,0.552,0.448,1,1,1h1c0.552,0,1-0.448,1-1v-0.737c0.693-0.223,1.328-0.595,1.862-1.09 l0.651,0.376c0.478,0.276,1.09,0.112,1.366-0.366l0.5-0.866c0.276-0.478,0.112-1.09-0.366-1.366l-0.655-0.378 C15.517,10.866,15.518,10.133,15.361,9.426z " stroke="currentColor" fill="none" stroke-width="1" stroke-linecap="round" stroke-linejoin="round"></path><path d="M 10.5,8.501c1.105,0,2,0.895,2,2s-0.895,2-2,2s-2-0.895-2-2S9.395,8.501,10.5,8.501z" stroke="currentColor" fill="none" stroke-width="1" stroke-linecap="round" stroke-linejoin="round"></path></g></svg>
