<svg viewBox="0 0 16 16" xmlns="http://www.w3.org/2000/svg"><g fill="none" stroke="currentColor" stroke-linecap="round" stroke-linejoin="round"><path d="M15.667 1.333A.667.667 0 0015 .667H1a.667.667 0 00-.667.666v13.334a.667.667 0 00.667.666h14a.667.667 0 00.667-.666z" stroke-width=".66667"/><path d="M13.667 6a.333.333 0 01-.334.333H2.667A.333.333 0 012.333 6V3a.333.333 0 01.334-.333h10.666a.333.333 0 01.334.333zM2.333 8.333H7M2.333 10.333H7M2.333 12.333H7M9 8.333h4.667M9 10.333h4.667M9 12.333h4.667" stroke-width=".66667"/></g></svg>