<svg version="1.1"
     xmlns="http://www.w3.org/2000/svg" xmlns:xlink="http://www.w3.org/1999/xlink" xmlns:a="http://ns.adobe.com/AdobeSVGViewerExtensions/3.0/"
     x="0px" y="0px" width="16px" height="16px" viewBox="0 0 16 16" style="enable-background:new 0 0 16 16;" xml:space="preserve">
<style type="text/css">
    .st0{fill:none;stroke:#000000;stroke-linecap:round;stroke-linejoin:round;stroke-miterlimit:10;}
</style>
<defs>
</defs>
<g>
    <polyline class="st0" points="7,13 8,13.5 9,13 	"/>
    <g>
        <path class="st0" d="M14.5,11h-13c-0.6,0-1-0.4-1-1V1.5c0-0.6,0.4-1,1-1h13c0.6,0,1,0.4,1,1V10C15.5,10.6,15.1,11,14.5,11z"/>
        <path class="st0" d="M12.5,11h-9v2.5c0,1.1,0.9,2,2,2h5c1.1,0,2-0.9,2-2V11z"/>
        <line class="st0" x1="0.5" y1="4" x2="15.5" y2="4"/>
        <line class="st0" x1="0.5" y1="7.5" x2="15.5" y2="7.5"/>
    </g>
</g>
</svg>
