<svg viewBox="0 0 24 24" xmlns="http://www.w3.org/2000/svg"><g stroke-linecap="round" stroke="currentColor" fill="none" stroke-linejoin="round"><path d="M1.5 23.501a1 1 0 0 1-1-1v-21a1 1 0 0 1 1-1h21a1 1 0 0 1 1 1v21a1 1 0 0 1-1 1z"/><path d="M11.121 4.38A3 3 0 1 1 6.88 8.622a3 3 0 0 1 4.24-4.242m6.501 11a3 3 0 1 1-4.242 4.242 3 3 0 0 1 4.242-4.242M12.5 17.5h-9m17 0h-2M12 6.5h8.5m-17 0H6"/><path d="M9 6.251a.25.25 0 1 1-.25.25.25.25 0 0 1 .25-.25m6.5 11a.25.25 0 1 1-.25.25.25.25 0 0 1 .25-.25"/></g></svg>