<svg xmlns="http://www.w3.org/2000/svg" viewBox="0 0 24 24"><path fill="currentColor" d="M23.384.615a1.25 1.25 0 0 0-1.768 0L17.851 4.38a.25.25 0 0 1-.354 0l-1.325-1.325a.5.5 0 0 0-.854.353v4.773a.5.5 0 0 0 .5.5h4.773a.5.5 0 0 0 .353-.854L19.618 6.5a.25.25 0 0 1 .001-.353l3.765-3.765a1.251 1.251 0 0 0 0-1.767zM.616 23.383a1.25 1.25 0 0 0 1.768 0l3.765-3.765a.25.25 0 0 1 .352-.001l.001.001 1.326 1.325a.5.5 0 0 0 .854-.353v-4.773a.5.5 0 0 0-.5-.5H3.409a.5.5 0 0 0-.353.854L4.381 17.5a.25.25 0 0 1 0 .354L.616 21.615a1.25 1.25 0 0 0 0 1.768zm15.011-2.331a.5.5 0 0 0 .545-.109l1.328-1.325a.25.25 0 0 1 .352-.001l.001.001 3.765 3.765a1.25 1.25 0 0 0 1.768-1.768l-3.767-3.765a.25.25 0 0 1 0-.354l1.325-1.325a.5.5 0 0 0-.353-.854h-4.773a.5.5 0 0 0-.5.5v4.773a.5.5 0 0 0 .309.462zM8.682 3.408a.5.5 0 0 0-.854-.353L6.5 4.38a.247.247 0 0 1-.349.004l-.004-.004L2.384.615A1.25 1.25 0 0 0 .616 2.383l3.765 3.765a.25.25 0 0 1 0 .354L3.056 7.827a.5.5 0 0 0 .353.854h4.773a.5.5 0 0 0 .5-.5V3.408zM12 9.09a2.908 2.908 0 1 1 .001 5.817A2.908 2.908 0 0 1 12 9.09z"/></svg>