<svg xmlns="http://www.w3.org/2000/svg" version="1.1" xmlns:xlink="http://www.w3.org/1999/xlink" xmlns:svgjs="http://svgjs.com/svgjs" viewBox="0 0 24 24" height="24" width="24"><g transform="matrix(1,0,0,1,0,0)"><path d="M12,23.67c0.69,0,1.25-0.56,1.25-1.25v-3.513c0-0.138,0.112-0.25,0.25-0.25h1.816c0.276-0.001,0.5-0.225,0.499-0.501 c0-0.132-0.053-0.258-0.146-0.352l-3.315-3.317c-0.199-0.187-0.509-0.187-0.708,0L8.331,17.8c-0.195,0.196-0.194,0.512,0.001,0.707 c0.093,0.093,0.22,0.146,0.352,0.146H10.5c0.138,0,0.25,0.112,0.25,0.25v3.517C10.75,23.11,11.31,23.67,12,23.67z M12,0.328 c-0.69,0-1.25,0.56-1.25,1.25l0,0v3.513c0,0.138-0.112,0.25-0.25,0.25H8.684c-0.276,0.001-0.5,0.225-0.499,0.501 c0,0.132,0.053,0.258,0.146,0.352l3.315,3.317c0.195,0.196,0.512,0.196,0.707,0.001c0,0,0.001-0.001,0.001-0.001l3.315-3.317 c0.195-0.196,0.194-0.512-0.001-0.707c-0.093-0.093-0.22-0.146-0.352-0.146H13.5c-0.138,0-0.25-0.112-0.25-0.25V1.578 C13.25,0.888,12.69,0.328,12,0.328z M1.75,12c0.001,0.69,0.56,1.249,1.25,1.249h18c0.69,0,1.25-0.56,1.25-1.25 s-0.56-1.25-1.25-1.25H3c-0.69,0-1.25,0.56-1.25,1.25C1.75,11.999,1.75,12,1.75,12z" stroke="none" fill="currentColor" stroke-width="0" stroke-linecap="round" stroke-linejoin="round"></path></g></svg>
