<svg xmlns="http://www.w3.org/2000/svg" version="1.1" xmlns:xlink="http://www.w3.org/1999/xlink" xmlns:svgjs="http://svgjs.com/svgjs" viewBox="0 0 24 24" height="24" width="24"><g transform="matrix(1,0,0,1,0,0)"><path d="M23.384,0.615c-0.488-0.488-1.28-0.488-1.768,0L17.851,4.38c-0.098,0.098-0.256,0.098-0.354,0c0,0,0,0,0,0l-1.325-1.325 c-0.195-0.196-0.512-0.196-0.707-0.001c-0.094,0.094-0.147,0.221-0.147,0.354v4.773c0,0.276,0.224,0.5,0.5,0.5h4.773 c0.276,0,0.5-0.224,0.5-0.5c0-0.133-0.053-0.26-0.147-0.354L19.618,6.5c-0.047-0.047-0.073-0.111-0.073-0.177 c0-0.066,0.027-0.129,0.074-0.176l3.765-3.765C23.871,1.894,23.871,1.103,23.384,0.615z M0.616,23.383 c0.488,0.488,1.28,0.488,1.768,0l3.765-3.765c0.097-0.097,0.255-0.098,0.352-0.001c0,0,0.001,0.001,0.001,0.001l1.326,1.325 c0.094,0.094,0.221,0.147,0.354,0.147c0.066,0,0.13-0.013,0.191-0.038c0.187-0.077,0.309-0.26,0.309-0.462v-4.773 c0-0.276-0.224-0.5-0.5-0.5H3.409c-0.276,0-0.5,0.224-0.5,0.5c0,0.133,0.053,0.26,0.147,0.354L4.381,17.5 c0.098,0.098,0.098,0.256,0,0.354c0,0,0,0,0,0l-3.765,3.761C0.128,22.103,0.128,22.895,0.616,23.383z M15.627,21.052 c0.061,0.025,0.125,0.038,0.191,0.038c0.133,0,0.26-0.053,0.354-0.147l1.328-1.325c0.097-0.097,0.255-0.098,0.352-0.001 c0,0,0.001,0.001,0.001,0.001l3.765,3.765c0.488,0.488,1.28,0.488,1.768,0s0.488-1.28,0-1.768l0,0l-3.767-3.765 c-0.098-0.098-0.098-0.256,0-0.354c0,0,0,0,0,0l1.325-1.325c0.196-0.195,0.196-0.512,0.001-0.707 c-0.094-0.094-0.221-0.147-0.354-0.147h-4.773c-0.276,0-0.5,0.224-0.5,0.5v4.773C15.318,20.792,15.44,20.975,15.627,21.052z M8.682,3.408c0-0.276-0.224-0.5-0.5-0.5c-0.133,0-0.26,0.053-0.354,0.147L6.5,4.38C6.405,4.477,6.248,4.479,6.151,4.384 C6.149,4.382,6.148,4.381,6.147,4.38L2.384,0.615c-0.488-0.488-1.28-0.488-1.768,0s-0.488,1.28,0,1.768l3.765,3.765 c0.098,0.098,0.098,0.256,0,0.354c0,0,0,0,0,0L3.056,7.827C2.86,8.022,2.86,8.339,3.055,8.534c0.094,0.094,0.221,0.147,0.354,0.147 h4.773c0.276,0,0.5-0.224,0.5-0.5V3.408z M12,9.09c1.607,0,2.909,1.302,2.909,2.909S13.607,14.908,12,14.908 s-2.909-1.302-2.909-2.909S10.393,9.09,12,9.09z" stroke="none" fill="currentColor" stroke-width="0" stroke-linecap="round" stroke-linejoin="round"></path></g></svg>