<svg version="1.1"
     xmlns="http://www.w3.org/2000/svg" xmlns:xlink="http://www.w3.org/1999/xlink" xmlns:a="http://ns.adobe.com/AdobeSVGViewerExtensions/3.0/"
     x="0px" y="0px" width="16px" height="16px" viewBox="0 0 16 16" style="enable-background:new 0 0 16 16;" xml:space="preserve">
<style type="text/css">
    .st0{fill:none;stroke:#000000;stroke-linecap:round;stroke-linejoin:round;stroke-miterlimit:10;}
</style>
<defs>
</defs>
<g>
    <path class="st0" d="M15.5,13.5c0,1.1-0.9,2-2,2"/>
    <path class="st0" d="M13.5,2.5c1.1,0,2,0.9,2,2"/>
    <path class="st0" d="M4.5,15.5c-1.1,0-2-0.9-2-2"/>
    <line class="st0" x1="2.5" y1="8.5" x2="2.5" y2="10.5"/>
    <line class="st0" x1="15.5" y1="7.5" x2="15.5" y2="10.5"/>
    <line class="st0" x1="10.5" y1="15.5" x2="7.5" y2="15.5"/>
    <line class="st0" x1="10.5" y1="2.5" x2="8.5" y2="2.5"/>
</g>
<g>
    <polygon class="st0" points="0.5,0.5 2.6,6.2 3.7,3.7 6.2,2.6 	"/>
</g>
<path class="st0" d="M11.5,5.5C11.5,5.5,12,5,13,5"/>
<path class="st0" d="M11.5,5.5C11.5,5.5,11,5,10,5"/>
<path class="st0" d="M11.5,13c0,0,0.5,0.5,1.5,0.5"/>
<path class="st0" d="M11.5,13c0,0-0.5,0.5-1.5,0.5"/>
<line class="st0" x1="11.5" y1="13" x2="11.5" y2="5.5"/>
</svg>
