<svg viewBox="0 0 16 16" xmlns="http://www.w3.org/2000/svg"><g fill="none" stroke="currentColor" stroke-linecap="round" stroke-linejoin="round"><path d="M14.333 15.667H15a.667.667 0 00.667-.667v-.667M3.667 15.667H3A.667.667 0 012.333 15v-.667M12.333 15.665H10M8 15.665H5.667M14.333 2.333H15a.667.667 0 01.667.667v.667M12.333 2.332H10M15.667 12.332V9.999M15.667 7.999V5.665M2.333 12.332V9.999M11 6.385v6.227M9 5.719a1.95 1.95 0 012 .666M13 5.719a1.95 1.95 0 00-2 .666M9 13.279a1.95 1.95 0 002-.667M13 13.279a1.95 1.95 0 01-2-.667M9.667 10.665h2.666M4.083 4.082l2.762-.69a.333.333 0 00.042-.635L.789.355a.333.333 0 00-.432.433l2.4 6.097a.333.333 0 00.634-.042z" stroke-width=".66667"/></g></svg>