<svg xmlns="http://www.w3.org/2000/svg" viewBox="0 0 16 16"><g fill="currentColor"><path d="M15.486 15.074a.857.857 0 00.445-1.143l-3.588-8.365a1.303 1.303 0 00-2.4 0l-3.589 8.377a.86.86 0 001.577.686l.972-2.286A.583.583 0 019.429 12h3.428a.583.583 0 01.526.343l.971 2.286a.857.857 0 00.789.514.914.914 0 00.343-.069zm-5.269-4.788a.286.286 0 01-.251-.4l.914-2.149a.286.286 0 01.526 0l.914 2.149a.263.263 0 010 .274.274.274 0 01-.24.126zM8.343 5.291a.857.857 0 00.446-1.142L7.77 1.77a1.509 1.509 0 00-2.777 0L.057 13.966a.869.869 0 00.48 1.143 1.051 1.051 0 00.32.057.869.869 0 00.8-.537l1.829-4.572a.571.571 0 01.537-.354h1.691a.857.857 0 000-1.703h-.96a.297.297 0 01-.183-.126.274.274 0 010-.263l1.566-4.068a.274.274 0 01.263-.114.251.251 0 01.263.171l.56 1.291a.846.846 0 001.12.4z"/></g></svg>