<svg xmlns="http://www.w3.org/2000/svg" viewBox="0 0 24 24"><g stroke="currentColor" fill="none" stroke-width="1.5" stroke-linecap="round" stroke-linejoin="round"><path d="M16.5 23.248H21a.75.75 0 0 0 .75-.75v-4.939a.752.752 0 0 0-.219-.53l-1.06-1.061a.747.747 0 0 0-.53-.22H16.5a.75.75 0 0 0-.75.75v6c0 .414.336.75.75.75zM16.5 9.748H21A.75.75 0 0 0 21.75 9V4.059a.752.752 0 0 0-.219-.53l-1.06-1.061a.747.747 0 0 0-.53-.22H16.5a.75.75 0 0 0-.75.75V9a.75.75 0 0 0 .75.748zM2.25.748v1.5M2.25 5.248v3M2.25 11.248v3M2.25 17.248v1.5a1.5 1.5 0 0 0 1.5 1.5h1.5M8.25 20.248h3M14.25 20.248h1.5M2.25 6.748h3M8.25 6.748h3M14.25 6.748h1.5"/></g></svg>