<svg viewBox="0 0 16 16" xmlns="http://www.w3.org/2000/svg"><g fill="none" stroke="#000" stroke-linecap="round" stroke-linejoin="round"><path d="M1.67 6.333v1.666M1.67 9.666v1.667M1.67 3.667v.666A.667.667 0 002.337 5h.666M1.67 13v.667a.667.667 0 00.667.666h.666M4.667 5h2M4.667 14.333h2M1.67.333v1.666M13.667 6.333A.667.667 0 0113 7H9a.667.667 0 01-.667-.667V1A.667.667 0 019 .333h2a1.855 1.855 0 011.138.472l1.057 1.057A1.855 1.855 0 0113.667 3z" stroke-width=".66667"/><path d="M11.333.38V2a.667.667 0 00.667.667h1.62M13.667 15a.667.667 0 01-.667.667H9A.667.667 0 018.333 15V9.667A.667.667 0 019 9h2.076a1.426 1.426 0 011.009.418l1.11 1.11a1.855 1.855 0 01.472 1.139z" stroke-width=".66667"/><path d="M11.333 9.024v1.643a.667.667 0 00.667.666h1.62" stroke-width=".66667"/></g></svg>