<svg viewBox="0 0 24 24" height="24" width="24" xmlns="http://www.w3.org/2000/svg"><g transform="matrix(1,0,0,1,0,0)"><path d="M0.713 10.34L3.5 14.49 6.705 10.652" fill="none" stroke="currentColor" stroke-linecap="round" stroke-linejoin="round"></path><path d="M3.489,14.439A8.947,8.947,0,0,1,10.043,3.712a8.492,8.492,0,0,1,8.325,2.641" fill="none" stroke="currentColor" stroke-linecap="round" stroke-linejoin="round"></path><path d="M23.285 13.642L20.498 9.49 17.293 13.328" fill="none" stroke="currentColor" stroke-linecap="round" stroke-linejoin="round"></path><path d="M20.509,9.543A8.948,8.948,0,0,1,13.955,20.27,8.5,8.5,0,0,1,5.63,17.629" fill="none" stroke="currentColor" stroke-linecap="round" stroke-linejoin="round"></path><path d="M10.000 11.991 A2.000 2.000 0 1 0 14.000 11.991 A2.000 2.000 0 1 0 10.000 11.991 Z" fill="none" stroke="currentColor" stroke-linecap="round" stroke-linejoin="round"></path></g></svg>
