<svg xmlns="http://www.w3.org/2000/svg" viewBox="0 0 15 15" width="15" height="15"><g transform="matrix(0.625,0,0,0.625,0,0)"><path d="M7.894,19.038,4.712,15.856a1.5,1.5,0,0,1,0-2.122l9.016-9.015,5.3,5.3-9.015,9.016A1.5,1.5,0,0,1,7.894,19.038Z" fill="none" stroke="currentColor" stroke-linecap="round" stroke-linejoin="round" stroke-width="1.5"></path><path d="M3.102 17.273H6.852V20.273H3.102z" fill="none" stroke="currentColor" stroke-linecap="round" stroke-linejoin="round" stroke-width="1.5" transform="translate(-11.816 9.018) rotate(-45)"></path><path d="M1 22.75L3.652 20.098" fill="none" stroke="currentColor" stroke-linecap="round" stroke-linejoin="round" stroke-width="1.5"></path><path d="M12.137 3.128L20.622 11.613" fill="none" stroke="currentColor" stroke-linecap="round" stroke-linejoin="round" stroke-width="1.5"></path><path d="M15.611 4.014H20.861V7.014H15.611z" fill="none" stroke="currentColor" stroke-linecap="round" stroke-linejoin="round" stroke-width="1.5" transform="translate(1.442 14.51) rotate(-45)"></path><path d="M17.44 1.006L22.744 6.31" fill="none" stroke="currentColor" stroke-linecap="round" stroke-linejoin="round" stroke-width="1.5"></path><path d="M13.728 11.083L15.849 13.204" fill="none" stroke="currentColor" stroke-linecap="round" stroke-linejoin="round" stroke-width="1.5"></path><path d="M10.546 14.265L12.667 16.386" fill="none" stroke="currentColor" stroke-linecap="round" stroke-linejoin="round" stroke-width="1.5"></path></g></svg>