<svg version="1.1"
     xmlns="http://www.w3.org/2000/svg" xmlns:xlink="http://www.w3.org/1999/xlink" xmlns:a="http://ns.adobe.com/AdobeSVGViewerExtensions/3.0/"
     x="0px" y="0px" width="15px" height="15px" viewBox="0 0 15 15" style="enable-background:new 0 0 15 15;" xml:space="preserve">
<style type="text/css">
    .st0{fill:none;stroke:#000000;stroke-linecap:round;stroke-linejoin:round;stroke-miterlimit:10;}
</style>
<defs>
</defs>
<g>
    <path class="st0" d="M2.3,4.6L1.9,7.2c0,0.3,0.1,0.5,0.3,0.7l6.3,6.3c0.4,0.4,1,0.4,1.4,0l4.2-4.2c0.4-0.4,0.4-1,0-1.4L7.8,2.1
        C7.6,1.9,7.3,1.8,7.1,1.8L4.5,2.2"/>
    <circle class="st0" cx="5.1" cy="5.1" r="1"/>
    <line class="st0" x1="4.4" y1="4.4" x2="0.5" y2="0.5"/>
</g>
<line class="st0" x1="7.1" y1="7.1" x2="8.6" y2="5.7"/>
<line class="st0" x1="8.6" y1="8.6" x2="10" y2="7.1"/>
<line class="st0" x1="10" y1="10" x2="11.4" y2="8.6"/>
<line class="st0" x1="5.7" y1="8.6" x2="8.6" y2="11.4"/>
</svg>
