<svg version="1.1"
     xmlns="http://www.w3.org/2000/svg" xmlns:xlink="http://www.w3.org/1999/xlink" xmlns:a="http://ns.adobe.com/AdobeSVGViewerExtensions/3.0/"
     x="0px" y="0px" width="15px" height="14px" viewBox="0 0 15 14" style="enable-background:new 0 0 15 14;" xml:space="preserve">
<style type="text/css">
    .st0{fill:none;stroke:#000000;stroke-linecap:round;stroke-linejoin:round;stroke-miterlimit:10;}
</style>
<defs>
</defs>
<g>
    <g>
        <path class="st0" d="M13.5,0.5h-12c-0.6,0-1,0.4-1,1v11c0,0.6,0.4,1,1,1h12c0.6,0,1-0.4,1-1v-11C14.5,0.9,14.1,0.5,13.5,0.5z"/>
        <line class="st0" x1="0.5" y1="3.5" x2="14.5" y2="3.5"/>
    </g>
    <g>
        <path class="st0" d="M6,9.5H3C2.7,9.5,2.5,9.3,2.5,9V6c0-0.3,0.2-0.5,0.5-0.5h3c0.3,0,0.5,0.2,0.5,0.5v3C6.5,9.3,6.3,9.5,6,9.5z"
            />
        <line class="st0" x1="2.5" y1="11.5" x2="6.5" y2="11.5"/>
        <path class="st0" d="M12,11.5H9c-0.3,0-0.5-0.2-0.5-0.5V6c0-0.3,0.2-0.5,0.5-0.5h3c0.3,0,0.5,0.2,0.5,0.5v5
            C12.5,11.3,12.3,11.5,12,11.5z"/>
        <line class="st0" x1="8.5" y1="8.5" x2="12.5" y2="8.5"/>
    </g>
</g>
</svg>
