<svg xmlns="http://www.w3.org/2000/svg" fill="none" viewBox="0 0 14 14"><path fill="currentColor" fill-rule="evenodd" d="M4.75 0.90918C4.75 0.494966 4.41421 0.15918 4 0.15918C3.58579 0.15918 3.25 0.494966 3.25 0.90918V7.17955C3.25 9.25061 4.92893 10.9295 7 10.9295C9.07107 10.9295 10.75 9.25061 10.75 7.17954V0.90918C10.75 0.494966 10.4142 0.15918 10 0.15918C9.58579 0.15918 9.25 0.494966 9.25 0.90918V7.17954C9.25 8.42219 8.24264 9.42955 7 9.42955C5.75736 9.42955 4.75 8.42219 4.75 7.17955V0.90918ZM0.962332 12.3312C0.548707 12.3091 0.195511 12.6265 0.173447 13.0401C0.151384 13.4538 0.468807 13.807 0.882433 13.829C5.62432 14.082 8.41225 14.0154 13.1072 13.8295C13.5211 13.8131 13.8434 13.4643 13.827 13.0504C13.8106 12.6365 13.4618 12.3143 13.0479 12.3307C8.37405 12.5158 5.63806 12.5806 0.962332 12.3312Z" clip-rule="evenodd"></path></svg>