<svg version="1.1"
     xmlns="http://www.w3.org/2000/svg" xmlns:xlink="http://www.w3.org/1999/xlink" xmlns:a="http://ns.adobe.com/AdobeSVGViewerExtensions/3.0/"
     x="0px" y="0px" width="16px" height="16px" class="stroke-current" viewBox="0 0 16 16" style="enable-background:new 0 0 16 16;" xml:space="preserve">
<style type="text/css">
    .st0{fill:none;stroke:#000000;stroke-linecap:round;stroke-linejoin:round;stroke-miterlimit:10;}
</style>
<defs>
</defs>
<g>
    <path class="st0" d="M14.5,11.5h-13c-0.6,0-1-0.4-1-1v-5c0-0.6,0.4-1,1-1h13c0.6,0,1,0.4,1,1v5C15.5,11.1,15.1,11.5,14.5,11.5z"/>
    <g>
        <line class="st0" x1="11.5" y1="12.5" x2="11.5" y2="3.5"/>
        <path class="st0" d="M8.5,15.5c1.7,0,3-1.3,3-3c0,1.7,1.3,3,3,3"/>
        <path class="st0" d="M8.5,0.5c1.7,0,3,1.3,3,3c0-1.7,1.3-3,3-3"/>
    </g>
</g>
</svg>
