<svg xmlns="http://www.w3.org/2000/svg" fill="none" viewBox="0 0 14 14"><path fill="currentColor" fill-rule="evenodd" d="M12.4502 0.345417H9.28836C9.27677 0.345147 9.2652 0.345148 9.25366 0.345417H5.63745C5.22324 0.345417 4.88745 0.681203 4.88745 1.09542C4.88745 1.50963 5.22324 1.84542 5.63745 1.84542H8.17883L4.21389 12.1543H1.5498C1.13559 12.1543 0.799805 12.49 0.799805 12.9043C0.799805 13.3185 1.13559 13.6543 1.5498 13.6543H4.71344C4.72373 13.6545 4.734 13.6545 4.74425 13.6543H8.36257C8.77678 13.6543 9.11257 13.3185 9.11257 12.9043C9.11257 12.49 8.77678 12.1543 8.36257 12.1543H5.82101L9.78595 1.84542H12.4502C12.8644 1.84542 13.2002 1.50963 13.2002 1.09542C13.2002 0.681203 12.8644 0.345417 12.4502 0.345417Z" clip-rule="evenodd"></path></svg>