<svg version="1.1"
     xmlns="http://www.w3.org/2000/svg" xmlns:xlink="http://www.w3.org/1999/xlink" xmlns:a="http://ns.adobe.com/AdobeSVGViewerExtensions/3.0/"
     x="0px" y="0px" width="16px" height="16px" viewBox="0 0 16 16" style="enable-background:new 0 0 16 16;" xml:space="preserve">
<style type="text/css">
    .st0{fill:none;stroke:#000000;stroke-linecap:round;stroke-linejoin:round;stroke-miterlimit:10;}
</style>
<defs>
</defs>
<line class="st0" x1="5.5" y1="15.5" x2="10.5" y2="15.5"/>
<line class="st0" x1="8" y1="13.5" x2="8" y2="15.5"/>
<line class="st0" x1="0.5" y1="11" x2="15.5" y2="11"/>
<path class="st0" d="M14.5,2c0.6,0,1,0.4,1,1v9.5c0,0.6-0.4,1-1,1h-13c-0.6,0-1-0.4-1-1V3c0-0.6,0.4-1,1-1"/>
<path class="st0" d="M3.5,9V1.5c0-0.6,0.4-1,1-1h7c0.6,0,1,0.4,1,1V9"/>
<rect x="5.5" y="4.5" class="st0" width="2" height="2"/>
<line class="st0" x1="3.5" y1="2.5" x2="12.5" y2="2.5"/>
<line class="st0" x1="9.5" y1="4.5" x2="10.5" y2="4.5"/>
<line class="st0" x1="9.5" y1="6" x2="10.5" y2="6"/>
<line class="st0" x1="5.5" y1="8.5" x2="10.5" y2="8.5"/>
</svg>
