<svg xmlns="http://www.w3.org/2000/svg" width="16" height="16"><path fill="none" stroke="#000" stroke-linecap="round" stroke-linejoin="round" stroke-miterlimit="10" d="M5.5 15.5h5M8 13.5v2M.5 11h15M14.5 2c.6 0 1 .4 1 1v9.5c0 .6-.4 1-1 1h-13c-.6 0-1-.4-1-1V3c0-.6.4-1 1-1"/><path d="M3.5 9V1.5c0-.6.4-1 1-1h7c.6 0 1 .4 1 1V9" fill="none" stroke="#000" stroke-linecap="round" stroke-linejoin="round" stroke-miterlimit="10"/><path fill="none" stroke="#000" stroke-linecap="round" stroke-linejoin="round" stroke-miterlimit="10" d="M5.5 4.5h2v2h-2zM3.5 2.5h9M9.5 4.5h1M9.5 6h1M5.5 8.5h5"/></svg>