<svg xmlns="http://www.w3.org/2000/svg" fill="none" viewBox="0 0 14 14"><path fill="currentColor" fill-rule="evenodd" d="M11.0499 9.62418C10.8844 9.68853 10.7113 9.55534 10.69 9.37911C10.6511 9.05758 10.534 8.74457 10.3409 8.46968C9.70711 7.56769 9.23175 7.10315 8.60641 6.56951C8.15091 6.1808 7.59764 5.98169 7.04198 5.97217C7.0281 5.97188 7.01419 5.97174 7.00024 5.97174C6.9864 5.97174 6.97259 5.97188 6.95882 5.97216C6.40298 5.98156 5.8495 6.18067 5.39385 6.56951C4.7685 7.10315 4.29315 7.56769 3.65937 8.46968C3.49311 8.70629 3.38327 8.97114 3.33109 9.24535C3.29867 9.4157 3.1242 9.53546 2.96479 9.46721C2.43351 9.23974 1.96571 8.96432 1.59015 8.64246C0.950964 8.09466 0.559921 7.32036 0.503046 6.4899C0.446172 5.65944 0.728124 4.84085 1.28688 4.21419C1.56354 3.90391 1.89984 3.65008 2.27656 3.46721C2.65328 3.28435 3.06305 3.17602 3.48248 3.14841L3.49195 3.14842C3.50374 3.14908 3.51563 3.14942 3.52759 3.14942C4.01069 3.14942 4.4835 3.30981 4.87608 3.55533C5.27613 3.80552 5.54363 4.11259 5.6551 4.35051C5.80153 4.66309 6.17364 4.79777 6.48621 4.65133C6.79879 4.50489 6.93347 4.13279 6.78703 3.82021C6.54936 3.3129 6.0889 2.8395 5.53888 2.49552C5.27033 2.32757 4.96886 2.1831 4.64416 2.07847C4.4689 2.02199 4.39152 1.80794 4.51822 1.67433C4.74835 1.43166 5.01138 1.21789 5.30187 1.03975C6.05395 0.578538 6.94458 0.384041 7.82524 0.488694C8.70589 0.593346 9.52333 0.990823 10.1412 1.61484C10.7592 2.23886 11.1402 3.05169 11.2208 3.9178C11.2275 3.9634 11.2474 4.00616 11.2782 4.04104C11.3089 4.07591 11.3491 4.10144 11.3942 4.11462C12.0463 4.26524 12.6194 4.64504 13.005 5.18211C13.3906 5.71918 13.562 6.37624 13.4866 7.02886C13.4113 7.68149 13.0945 8.28438 12.5962 8.72337C12.179 9.09087 11.6508 9.39047 11.0499 9.62418ZM7.01464 7.22196C7.00993 7.22188 7.00522 7.22183 7.00049 7.22183C6.99586 7.22183 6.99125 7.22187 6.98665 7.22196C6.71041 7.22514 6.43492 7.32463 6.20549 7.52042C5.64243 8.00091 5.24371 8.38948 4.68236 9.18839C4.52144 9.4174 4.50144 9.71697 4.63048 9.96534C4.75952 10.2137 5.01613 10.3696 5.29602 10.3696H6.25049L6.25049 12.9463C6.25049 13.3605 6.58627 13.6963 7.00049 13.6963C7.4147 13.6963 7.75049 13.3605 7.75049 12.9463L7.75049 10.3696H8.70469C8.98459 10.3696 9.24119 10.2137 9.37023 9.96534C9.49927 9.71697 9.47927 9.4174 9.31835 9.18839C8.757 8.38948 8.35828 8.00091 7.79522 7.52042C7.56595 7.32477 7.29069 7.22528 7.01464 7.22196Z" clip-rule="evenodd"></path></svg>