<svg viewBox="0 0 16 16" xmlns="http://www.w3.org/2000/svg"><g fill="none" stroke="currentColor" stroke-linecap="round" stroke-linejoin="round"><path d="M11.333 13.133c2.566.217 4.334.674 4.334 1.2 0 .734-3.432 1.334-7.667 1.334s-7.667-.6-7.667-1.334c0-.526 1.757-.982 4.306-1.2M12.167 3.167a1.5 1.5 0 103 0 1.5 1.5 0 10-3 0zM13.667 5.333a2 2 0 00-2 2V9h1L13 12h1.333l.334-3h1V7.333a2 2 0 00-2-2zM.833 3.167a1.5 1.5 0 103 0 1.5 1.5 0 10-3 0zM2.333 5.333a2 2 0 00-2 2V9h1l.334 3H3l.333-3h1V7.333a2 2 0 00-2-2zM6.167 2.167a1.833 1.833 0 103.666 0 1.833 1.833 0 10-3.666 0zM10.333 7a2.333 2.333 0 00-4.666 0v2h1.055L7 12.333h2L9.278 9h1.055z" stroke-width=".66667"/></g></svg>