<svg version="1.1"
     xmlns="http://www.w3.org/2000/svg" xmlns:xlink="http://www.w3.org/1999/xlink" xmlns:a="http://ns.adobe.com/AdobeSVGViewerExtensions/3.0/"
     x="0px" y="0px" width="16px" height="16px" viewBox="0 0 16 16" style="enable-background:new 0 0 16 16;" xml:space="preserve">
<style type="text/css">
    .st0{fill:none;stroke:#000000;stroke-linecap:round;stroke-linejoin:round;stroke-miterlimit:10;}
</style>
<defs>
</defs>
<g>
    <g>
        <circle class="st0" cx="5.5" cy="7.2" r="1.8"/>
        <path class="st0" d="M2.5,12.5c0-1.7,1.3-3,3-3c1.7,0,3,1.3,3,3H2.5z"/>
    </g>
    <line class="st0" x1="9.5" y1="7.5" x2="12.5" y2="7.5"/>
    <line class="st0" x1="9.5" y1="9.5" x2="13.5" y2="9.5"/>
    <path class="st0" d="M14.5,3.5h-13c-0.6,0-1,0.4-1,1v10c0,0.6,0.4,1,1,1h2c0-0.6,0.4-1,1-1c0.6,0,1,0.4,1,1h5c0-0.6,0.4-1,1-1
        c0.6,0,1,0.4,1,1h2c0.6,0,1-0.4,1-1v-10C15.5,3.9,15.1,3.5,14.5,3.5z"/>
    <path class="st0" d="M15.5,1.5c0-0.6-0.4-1-1-1h-13c-0.6,0-1,0.4-1,1"/>
</g>
</svg>
