<svg version="1.1"
     xmlns="http://www.w3.org/2000/svg" xmlns:xlink="http://www.w3.org/1999/xlink" xmlns:a="http://ns.adobe.com/AdobeSVGViewerExtensions/3.0/"
     x="0px" y="0px" width="16px" height="16px" viewBox="0 0 16 16" style="enable-background:new 0 0 16 16;" xml:space="preserve">
<style type="text/css">
    .st0{fill:none;stroke:#000000;stroke-linecap:round;stroke-linejoin:round;stroke-miterlimit:10;}
</style>
<defs>
</defs>
<g>
    <g>
        <circle class="st0" cx="8" cy="11.2" r="1.8"/>
        <path class="st0" d="M10.8,15.5c-0.4-1.2-1.5-2-2.8-2c-1.3,0-2.4,0.8-2.8,2"/>
    </g>
    <g>
        <circle class="st0" cx="3.3" cy="2.2" r="1.8"/>
        <path class="st0" d="M6.1,6.5c-0.4-1.2-1.5-2-2.8-2c-1.3,0-2.4,0.8-2.8,2H6.1z"/>
    </g>
    <g>
        <circle class="st0" cx="12.7" cy="2.2" r="1.8"/>
        <path class="st0" d="M15.5,6.5c-0.4-1.2-1.5-2-2.8-2c-1.3,0-2.4,0.8-2.8,2H15.5z"/>
    </g>
    <path class="st0" d="M2.5,8.5V11c0,0.8,0.7,1.5,1.5,1.5h0.5"/>
    <path class="st0" d="M13.5,8.5V11c0,0.8-0.7,1.5-1.5,1.5h-0.5"/>
</g>
</svg>
