<svg viewBox="0 0 24 24" xmlns="http://www.w3.org/2000/svg" height="16" width="16"><path d="M15.7,22.3l-3.335.953a.5.5,0,0,1-.618-.618L12.7,19.3l7.093-7.093a2.2,2.2,0,0,1,2.923-.233,2.122,2.122,0,0,1,.163,3.147Z" fill="none" stroke="currentColor" stroke-linecap="round" stroke-linejoin="round"></path><path d="M18.979 13.021L21.979 16.021" fill="none" stroke="currentColor" stroke-linecap="round" stroke-linejoin="round"></path><path d="M12.7 19.3L15.7 22.3" fill="none" stroke="currentColor" stroke-linecap="round" stroke-linejoin="round"></path><path d="M3.250 4.750 A4.250 4.250 0 1 0 11.750 4.750 A4.250 4.250 0 1 0 3.250 4.750 Z" fill="none" stroke="currentColor" stroke-linecap="round" stroke-linejoin="round"></path><path d="M10.5,17.5H.5A7,7,0,0,1,13.563,14" fill="none" stroke="currentColor" stroke-linecap="round" stroke-linejoin="round"></path></svg>