<svg viewBox="0 0 16 16" xmlns="http://www.w3.org/2000/svg"><g fill="none" stroke="currentColor" stroke-linecap="round" stroke-linejoin="round"><path d="M9 6a3.667 3.667 0 10-4.667 3.525v.808L3.667 11l.666.667v.666L3.667 13l.666.667v1l1 1 1-1V9.525A3.667 3.667 0 009 6z" stroke-width=".66667"/><path d="M4 4.999a1.333 1.333 0 102.667 0 1.333 1.333 0 10-2.667 0zM6.333 10.009a3.671 3.671 0 003.617.022l.717.636v1h1l.333.35V13h.878l.708.667H15v-1.414l-3.636-3.636a3.667 3.667 0 00-3.667-5.422" stroke-width=".66667"/><path d="M5.333 4.667v-3a1.333 1.333 0 012.667 0v1.502" stroke-width=".66667"/></g></svg>