<svg viewBox="0 0 16 16" xmlns="http://www.w3.org/2000/svg"><g fill="none" stroke="currentColor" stroke-linecap="round" stroke-linejoin="round"><path d="M.333 6.333h15.334M9.667 3.667H15a.667.667 0 01.667.666v10A.667.667 0 0115 15H1a.667.667 0 01-.667-.667v-10A.667.667 0 011 3.667h5.333M10 9.667h4M10 11.667h2.333" stroke-width=".66667"/><path d="M8.642 13.333c-.272-.42-1.174-.725-2.303-1.143-.319-.119-.267-.95-.126-1.106a2.35 2.35 0 00.612-1.823 1.459 1.459 0 00-1.492-1.594A1.459 1.459 0 003.841 9.26a2.35 2.35 0 00.612 1.823c.142.155.194.987-.125 1.106-1.128.418-2.031.723-2.303 1.143M9.667 4.667A.333.333 0 019.333 5H6.667a.333.333 0 01-.334-.333v-2a1.667 1.667 0 013.334 0z" stroke-width=".66667"/></g></svg>