<svg xmlns="http://www.w3.org/2000/svg" viewBox="0 0 24 24"><g stroke="currentColor" fill="none" stroke-width="1.5" stroke-linecap="round" stroke-linejoin="round"><path d="M10.341 9.092a.974.974 0 0 0-.9.039.862.862 0 0 0-.441.744v4.249a.866.866 0 0 0 .44.745.974.974 0 0 0 .9.039l3.987-1.883a1.118 1.118 0 0 0 0-2.05l-3.986-1.883z"/><path d="M5.279 3h13.442a.78.78 0 0 1 .779.779v16.442a.78.78 0 0 1-.779.779H5.279a.78.78 0 0 1-.779-.779V3.779A.78.78 0 0 1 5.279 3zM1.934 5.25A1.192 1.192 0 0 0 .75 6.45s0 0 0 0v11.1a1.192 1.192 0 0 0 1.184 1.2s0 0 0 0M22.066 5.25a1.192 1.192 0 0 1 1.184 1.2s0 0 0 0v11.1a1.192 1.192 0 0 1-1.184 1.2s0 0 0 0"/></g></svg>