<svg version="1.1"
     xmlns="http://www.w3.org/2000/svg" xmlns:xlink="http://www.w3.org/1999/xlink" xmlns:a="http://ns.adobe.com/AdobeSVGViewerExtensions/3.0/"
     x="0px" y="0px" width="16px" height="13px" viewBox="0 0 16 13" style="enable-background:new 0 0 16 13;" xml:space="preserve">
<style type="text/css">
    .st0{fill:none;stroke:#000000;stroke-linecap:round;stroke-linejoin:round;stroke-miterlimit:10;}
</style>
<defs>
</defs>
<g>
    <path class="st0" d="M6.9,4.6c-0.2-0.1-0.4-0.1-0.6,0C6.1,4.7,6,4.9,6,5.1v2.8c0,0.2,0.1,0.4,0.3,0.5c0.2,0.1,0.4,0.1,0.6,0
        l2.7-1.3C9.8,7.1,10,6.8,10,6.5S9.8,5.9,9.6,5.8L6.9,4.6z"/>
    <path class="st0" d="M12.2,12.5H3.8c-0.4,0-0.8-0.3-0.8-0.8V1.3c0-0.4,0.3-0.8,0.8-0.8h8.4c0.4,0,0.8,0.3,0.8,0.8v10.4
        C13,12.2,12.7,12.5,12.2,12.5z"/>
    <path class="st0" d="M1.3,2C0.9,2,0.5,2.4,0.5,2.8v7.4c0,0.4,0.4,0.8,0.8,0.8"/>
    <path class="st0" d="M14.7,2c0.4,0,0.8,0.4,0.8,0.8v7.4c0,0.4-0.4,0.8-0.8,0.8"/>
</g>
</svg>
