<svg version="1.1"
     xmlns="http://www.w3.org/2000/svg" xmlns:xlink="http://www.w3.org/1999/xlink" xmlns:a="http://ns.adobe.com/AdobeSVGViewerExtensions/3.0/"
     x="0px" y="0px" width="16px" height="16px" viewBox="0 0 16 16" style="enable-background:new 0 0 16 16;" xml:space="preserve">
<style type="text/css">
    .st0{fill:none;stroke:#000000;stroke-linecap:round;stroke-linejoin:round;stroke-miterlimit:10;}
</style>
<defs>
</defs>
<g>
    <path class="st0" d="M14.5,15.5h-13c-0.6,0-1-0.4-1-1v-13c0-0.6,0.4-1,1-1h13c0.6,0,1,0.4,1,1v13C15.5,15.1,15.1,15.5,14.5,15.5z"
        />
    <g>
        <g>
            <path class="st0" d="M4.5,7v1.5c0,0.6,0.4,1,1,1s1-0.4,1-1V7"/>
            <line class="st0" x1="5.5" y1="9.5" x2="5.5" y2="12"/>
        </g>
        <g>
            <polyline class="st0" points="11.5,12 11.5,7 10,9.5 8.5,7 8.5,12"/>
        </g>
    </g>
</g>
</svg>
