<svg xmlns="http://www.w3.org/2000/svg" width="100" height="100" viewBox="0 0 100 100" class="heroicon-exclamation heroicon heroicons-lg">
    <path class="heroicon-exclamation-background heroicon-component-fill" fill="#FFFFFF" d="M44.76 95.44c2.9-1.62 7.58-1.63 10.47 0l.66.36a6.77 6.77 0 0 0 8.68-1.98l.42-.6c1.9-2.73 6.13-4.76 9.44-4.55l.75.04c3.3.21 6.42-2.27 6.96-5.55l.12-.74c.53-3.27 3.46-6.94 6.53-8.18l.7-.29a6.77 6.77 0 0 0 3.86-8.02l-.22-.71c-.94-3.18.1-7.76 2.33-10.22l.5-.55a6.77 6.77 0 0 0 0-8.9l-.5-.56c-2.22-2.45-3.27-7.03-2.33-10.2l.22-.73a6.77 6.77 0 0 0-3.87-8.02l-.69-.28c-3.07-1.25-6-4.91-6.53-8.19l-.12-.74a6.77 6.77 0 0 0-6.96-5.55l-.75.05c-3.3.2-7.53-1.83-9.44-4.54l-.42-.62a6.77 6.77 0 0 0-8.68-1.98l-.66.37c-2.89 1.62-7.58 1.62-10.47 0l-.65-.37a6.77 6.77 0 0 0-8.68 1.98L35 6.8c-1.9 2.71-6.13 4.75-9.44 4.54l-.74-.05a6.77 6.77 0 0 0-6.96 5.55l-.12.74c-.54 3.27-3.46 6.94-6.53 8.2l-.7.27a6.77 6.77 0 0 0-3.86 8.02l.21.72c.94 3.18-.1 7.75-2.33 10.21l-.5.56a6.77 6.77 0 0 0 0 8.9l.5.55c2.23 2.46 3.27 7.03 2.33 10.22l-.2.71a6.77 6.77 0 0 0 3.85 8.02l.7.29c3.07 1.24 6 4.91 6.53 8.18l.12.74a6.77 6.77 0 0 0 6.96 5.55l.74-.04c3.31-.21 7.54 1.82 9.44 4.54l.43.61a6.77 6.77 0 0 0 8.68 1.98l.65-.36z"></path>
    <path class="heroicon-exclamation-mark heroicon-component-accent heroicon-component-fill" fill="#7ACFC0" d="M58 21l-4 40h-8l-4-40h16zm-8 58a7 7 0 1 1 0-14 7 7 0 0 1 0 14z"></path>
    <path class="heroicon-shadows" fill="#000000" d="M7.03 64.56c-.05.22-.1.44-.17.66l-.2.71a6.77 6.77 0 0 0 3.85 8.02l.7.29c3.07 1.24 6 4.91 6.53 8.18l.12.74a6.77 6.77 0 0 0 6.96 5.55l.74-.04c3.31-.21 7.54 1.82 9.44 4.54l.43.61a6.77 6.77 0 0 0 8.68 1.98l.65-.36c2.9-1.62 7.58-1.63 10.47 0l.66.36a6.77 6.77 0 0 0 8.68-1.98l.42-.6c1.9-2.73 6.13-4.76 9.44-4.55l.75.04c3.3.21 6.42-2.27 6.96-5.55l.12-.74c.53-3.27 3.46-6.94 6.53-8.18l.7-.29a6.77 6.77 0 0 0 3.86-8.02l-.22-.71a7.72 7.72 0 0 1-.16-.66 6.64 6.64 0 0 1-3.49 3.4l-.69.28c-3.07 1.24-6 4.91-6.53 8.18l-.12.74a6.77 6.77 0 0 1-6.96 5.55l-.75-.04c-3.3-.21-7.53 1.82-9.44 4.54l-.42.61a6.77 6.77 0 0 1-8.68 1.98l-.66-.36c-2.89-1.63-7.58-1.62-10.47 0l-.65.36a6.77 6.77 0 0 1-8.68-1.98l-.43-.6c-1.9-2.73-6.13-4.76-9.44-4.55l-.74.04a6.77 6.77 0 0 1-6.96-5.55l-.12-.74c-.54-3.27-3.46-6.94-6.53-8.18l-.7-.29a6.64 6.64 0 0 1-3.48-3.4zm-.24-5.1c-.44-1.71-1.22-3.31-2.26-4.46l-.5-.55A6.8 6.8 0 0 1 3.05 47c.25.52.58 1 .98 1.45l.5.55c2.23 2.46 3.27 7.03 2.33 10.22l-.07.24zm0-24.92l-.14-.48a6.61 6.61 0 0 1 .38-4.62c.31 1.57.2 3.39-.24 5.1zm86.18-5.1c.66 1.43.83 3.07.38 4.62l-.15.48a11.66 11.66 0 0 1-.23-5.1zM96.95 47a6.8 6.8 0 0 1-.98 7.45l-.5.55a10.74 10.74 0 0 0-2.27 4.46l-.07-.24c-.94-3.18.1-7.76 2.33-10.22l.5-.55c.4-.44.73-.93.99-1.45z" opacity=".2"></path>
    <path class="heroicon-outline" fill="#4A4A4A" fill-rule="nonzero" d="M44.76 95.44l-.65.36a6.77 6.77 0 0 1-8.68-1.98l-.43-.6c-1.9-2.73-6.13-4.76-9.44-4.55l-.74.04a6.77 6.77 0 0 1-6.96-5.55l-.12-.74c-.54-3.27-3.46-6.94-6.53-8.18l-.7-.29a6.77 6.77 0 0 1-3.86-8.02l.21-.71c.94-3.19-.1-7.76-2.33-10.22l-.5-.55a6.77 6.77 0 0 1 0-8.9l.5-.56c2.23-2.46 3.27-7.03 2.33-10.2l-.2-.73a6.77 6.77 0 0 1 3.85-8.02l.7-.28c3.07-1.25 6-4.92 6.53-8.19l.12-.74a6.77 6.77 0 0 1 6.96-5.55l.74.05c3.31.2 7.54-1.83 9.44-4.54l.43-.62A6.77 6.77 0 0 1 44.1 4.2l.65.37c2.9 1.62 7.58 1.62 10.47 0l.66-.37a6.77 6.77 0 0 1 8.68 1.98l.42.62c1.9 2.71 6.13 4.75 9.44 4.54l.75-.05a6.77 6.77 0 0 1 6.96 5.55l.12.74c.53 3.28 3.46 6.94 6.53 8.2l.7.27a6.77 6.77 0 0 1 3.86 8.02l-.22.72c-.94 3.18.1 7.76 2.33 10.21l.5.56a6.77 6.77 0 0 1 0 8.9l-.5.55c-2.22 2.46-3.27 7.04-2.33 10.22l.22.71a6.77 6.77 0 0 1-3.87 8.02l-.69.29c-3.07 1.24-6 4.91-6.53 8.18l-.12.74a6.77 6.77 0 0 1-6.96 5.55l-.75-.04c-3.3-.21-7.53 1.82-9.44 4.54l-.42.61a6.77 6.77 0 0 1-8.68 1.98l-.66-.36c-2.89-1.63-7.58-1.62-10.47 0zm18.17-2.76l.43-.62c2.3-3.28 7.2-5.64 11.2-5.39l.74.05a4.77 4.77 0 0 0 4.86-3.88l.13-.74c.64-3.96 4.03-8.2 7.75-9.72l.69-.28a4.77 4.77 0 0 0 2.7-5.6l-.21-.72c-1.14-3.85.07-9.14 2.76-12.12l.5-.55a4.77 4.77 0 0 0 0-6.22l-.5-.55c-2.7-2.98-3.9-8.28-2.76-12.13l.2-.71a4.77 4.77 0 0 0-2.7-5.6l-.68-.29c-3.72-1.5-7.1-5.75-7.75-9.72l-.13-.73a4.77 4.77 0 0 0-4.86-3.88l-.74.05c-4 .25-8.9-2.1-11.2-5.4l-.43-.61a4.77 4.77 0 0 0-6.06-1.38l-.66.36c-3.5 1.97-8.93 1.97-12.43 0l-.65-.36c-2-1.12-4.75-.5-6.06 1.38l-.43.61c-2.3 3.3-7.2 5.65-11.2 5.4l-.75-.05a4.77 4.77 0 0 0-4.86 3.88l-.12.73c-.65 3.97-4.03 8.21-7.75 9.72l-.7.29a4.77 4.77 0 0 0-2.7 5.6l.22.71c1.14 3.85-.07 9.15-2.77 12.13l-.5.55a4.77 4.77 0 0 0 0 6.22l.5.55c2.7 2.98 3.9 8.27 2.77 12.12l-.21.72a4.77 4.77 0 0 0 2.7 5.6l.69.28c3.72 1.51 7.1 5.76 7.75 9.72l.12.74a4.77 4.77 0 0 0 4.86 3.88l.75-.05c4-.25 8.9 2.1 11.2 5.4l.43.6a4.77 4.77 0 0 0 6.06 1.39l.65-.37c3.5-1.96 8.93-1.96 12.43 0l.66.37c2 1.12 4.75.5 6.06-1.38zM58 21l-4 40h-8l-4-40h16zM47.8 59h4.39l3.6-36H44.2l3.6 36zm1.4-16h-1l-1.8-18h7.2l-.1 1h-6l1.7 17zm.8 36a7 7 0 1 1 0-14 7 7 0 0 1 0 14zm5-7a5 5 0 1 0-10 0 5 5 0 0 0 10 0zM24.54 24.54A35.89 35.89 0 0 1 50 14v1a34.89 34.89 0 0 0-24.75 10.25l-.7-.7zM21.2 28.4l.8.6a35.02 35.02 0 0 0-3.31 5.34l-.9-.45a36 36 0 0 1 3.4-5.5zM14 50c0-4.17.7-8.17 2.01-11.9l.94.33A34.95 34.95 0 0 0 15 50c0 5.63 1.33 10.94 3.69 15.65l-.9.45A35.85 35.85 0 0 1 14 50z"></path>
</svg>
