<svg xmlns="http://www.w3.org/2000/svg" width="100" height="100" viewBox="0 0 100 100" class="heroicon-shield-check heroicon heroicons-lg">
    <path class="heroicon-shield-check-edge heroicon-component-accent heroicon-component-fill" fill="#7ACFC0" d="M50 2a85.6 85.6 0 0 1 42 10.94v47.05c0 10.27-7.7 22.22-17.04 26.47L50 97.8 25.04 86.46C15.7 82.2 8 70.26 8 59.99V12.94A85.6 85.6 0 0 1 50 2zm21.23 76.27C77.37 75.47 83 66.73 83 59.99V18.41A76.67 76.67 0 0 0 50 11a76.67 76.67 0 0 0-33 7.4V60c0 6.73 5.64 15.48 11.77 18.27L50 87.92l21.23-9.65z"></path>
    <path class="heroicon-shield-check-background heroicon-component-fill-copy" fill="#FFFFFF" d="M71.23 78.27C77.37 75.47 83 66.73 83 59.99V18.41A76.67 76.67 0 0 0 50 11a76.67 76.67 0 0 0-33 7.4V60c0 6.73 5.64 15.48 11.77 18.27L50 87.92l21.23-9.65z"></path>
    <path class="heroicon-shield-check-circle heroicon-component-accent heroicon-component-fill" fill="#7ACFC0" d="M50 62a16 16 0 1 0 0-32 16 16 0 0 0 0 32z"></path>
    <polygon class="heroicon-shield-check-mark heroicon-component-fill" fill="#FFFFFF" points="42 47.414 47 52.414 57 42.414 55.586 41 47 49.586 43.414 46"></polygon>
    <path class="heroicon-shadows" fill="#000000" d="M67.97 47a18 18 0 1 1-35.95 0 18 18 0 0 0 35.95 0zM12 15.4v-.08A81.62 81.62 0 0 1 50 6a81.62 81.62 0 0 1 38 9.32v.08l-2.97 1.78A78.5 78.5 0 0 0 50 9a78.5 78.5 0 0 0-35.03 8.18L12 15.4zm71 5.01v-2A76.67 76.67 0 0 0 50 11a76.67 76.67 0 0 0-33 7.4v2.01A76.62 76.62 0 0 1 50 13c11.5 0 22.72 2.52 33 7.4v.01z" opacity=".2"></path>
    <path class="heroicon-outline" fill="#4A4A4A" fill-rule="nonzero" d="M94 60c0 11.04-8.15 23.7-18.21 28.28L50 100 24.21 88.28C14.15 83.7 6 71.04 6 59.99V11.77A87.6 87.6 0 0 1 50 0a87.6 87.6 0 0 1 44 11.77V60zM50 2A85.6 85.6 0 0 0 8 12.94v47.05c0 10.26 7.7 22.22 17.04 26.47L50 97.8l24.96-11.34C84.3 82.2 92 70.26 92 59.99V12.94A85.6 85.6 0 0 0 50 2zm0 4a81.62 81.62 0 0 1 38 9.32v44.67c0 8.7-6.77 19.23-14.7 22.83L50 93.4 26.7 82.8C18.78 79.22 12 68.7 12 60V15.32A81.62 81.62 0 0 1 50 6zM13 60c0 8.3 6.55 18.47 14.11 21.9L50 92.32l22.89-10.4C80.45 78.47 87 68.3 87 59.99V15.92A80.62 80.62 0 0 0 50 7a80.62 80.62 0 0 0-37 8.92V60zm2 0V17.14A78.64 78.64 0 0 1 50 9a78.64 78.64 0 0 1 35 8.15V60c0 7.53-6.09 16.98-12.94 20.1L50 90.1 27.94 80.1C21.09 76.97 15 67.5 15 59.99zm56.23 18.27C77.37 75.47 83 66.73 83 59.99V18.41A76.67 76.67 0 0 0 50 11a76.67 76.67 0 0 0-33 7.4V60c0 6.73 5.64 15.48 11.77 18.27L50 87.92l21.23-9.65zM50 64a18 18 0 1 1 0-36 18 18 0 0 1 0 36zm0-2a16 16 0 1 0 0-32 16 16 0 0 0 0 32zM36.96 51.11A14 14 0 0 1 50 32v1a13 13 0 0 0-12.13 17.69l-.9.42zm6.45-6.52L47 48.17l8.59-8.58 2.82 2.82L47 53.83l-6.41-6.42 2.82-2.82zM42 47.4l5 5 10-10L55.59 41 47 49.59 43.41 46 42 47.41z"></path>
</svg>
