<svg xmlns="http://www.w3.org/2000/svg" width="128" height="121" viewBox="0 0 128.39 121.56"><path d="M75.47,65.26c0,.71.11,1.42.19,2.12a12.35,12.35,0,0,0,.41,2.08,4.52,4.52,0,0,1,.84,2.05A8.84,8.84,0,0,0,84.63,76c5.72.25,12-.87,17.72-1.53,7.77-.89,9-6.59,8.4-12.91a4.83,4.83,0,0,1-.37-2.85c-.57-3.56-1.49-7.12-1.95-10-.24-1.47-.38-3.2-.62-5,0-.38-.09-.76-.13-1.15a8.39,8.39,0,0,0-.44-1.9,11.82,11.82,0,0,0-1.43-3.5c.67-.15,1.34-.31,2-.51,5.65-1.73,3.17-9.4-2.37-8.61-3.46.49-6.71,1.54-10.24,1.74-3.27.18-6.59-.05-9.86-.18-2.44-.1-3.64,3.7-1.3,4.78.62.29,1.27.55,1.93.81l-2.2.23a7.2,7.2,0,0,0-1.21.24,10.32,10.32,0,0,0-1.53-2,1.32,1.32,0,0,0-1.84,0C75.68,37.69,76,43.42,75.73,48.4c-.19,4.43-.48,9.12-.39,13.69A5.07,5.07,0,0,1,75.47,65.26Z" fill="#e0dfe6"/><path d="M76.91,71.51a4.52,4.52,0,0,0-.84-2.05,4.28,4.28,0,0,0-2.57-1.67,4.51,4.51,0,0,0,2-2.53,5.07,5.07,0,0,0-.13-3.17,5.56,5.56,0,0,0-4.83-3.73c-7-.39-15.1,4.13-20.6,8.08a49,49,0,0,0-5.19,4.19C43.36,63.85,42.28,57,41.07,50.18c-1.5-8.43-2.59-17.38-5.56-25.44a1.26,1.26,0,0,0-2.46.34c0,.54,0,1.1-.08,1.65a1,1,0,0,0-.07.4v1c0,1.27,0,2.55,0,3.84,0,18.34-.21,37.23,3,55.26-2.5-2-7.16-1.21-7.75,2.37-.32,2,.06,3.93-.29,5.89,0,.18-.1.36-.15.54-.64.09-1.3.45-1.93.5-3.35.27-2.58-4.9-3.5-7a.8.8,0,0,0-1.23-.16c-2.34,2.27-2.81,6.37-2.21,9.45a8.18,8.18,0,0,0,2.53,4.59,2.13,2.13,0,0,0,.12,2.74c7.32,8.91,20.2-.33,25.23-6.87,3.72-4.84,6.35-10.78,10.85-15s10.49-5.38,16.15-7.64A4.68,4.68,0,0,0,76.91,71.51ZM38.24,95a14.08,14.08,0,0,0-.3-4.07,4.88,4.88,0,0,0,2.85.54A40,40,0,0,1,38.24,95Zm8.13-12.23c-.7,1-1.35,2-2,3-.18-1.46-.36-2.92-.57-4.38,1.35-1.35,3.95-2.26,5.46-3.16,1-.62,2.08-1.22,3.13-1.82A36.75,36.75,0,0,0,46.37,82.81Z" fill="#e0dfe6"/><path d="M110.75,61.56A3.67,3.67,0,0,0,111,62a4.94,4.94,0,0,0,6.24,2,21.77,21.77,0,0,1-2.57,1.37c-1.79.79-2.22,3.41-1.3,5a3,3,0,0,0,.42.57,30.54,30.54,0,0,0-.29,3.28c-.12,2.51-.2,4.39-2,5.52a4.27,4.27,0,0,0-3.7-.6A5.79,5.79,0,0,0,106,80a4.65,4.65,0,0,0-3.61-1.81c-2.65-.06-5.19.95-7.79,1.37-2.45.41-4.74.65-6.92,1.91-1.55.9-2.17,3.54-.62,4.79,2.81,2.26,7.26,3.11,11.39,2.73a63.23,63.23,0,0,0,.23,6.72c.13,1.82.3,3.65.49,5.47.09.78.41,1.91.58,3a11,11,0,0,0-3.65,2.85,3.89,3.89,0,0,0-.84,3.24c-.38.11-.77.23-1.16.33-2.37.65-4.78,1.1-7.1,1.86h-.22a1.25,1.25,0,0,0-1,.43l-.73.29c-1.6.69-1.09,3.28.48,3.66.35.08.7.14,1,.2,1.66,2.09,4.83,3.11,7.36,3.81,5.32,1.48,11.59,1.13,15.86-2.77,3.68-3.35,5.47-8.34,5.7-13.23a38.74,38.74,0,0,0-1-9c-.34-1.77-.79-3.52-1.1-5.29A24.05,24.05,0,0,0,113,87a8,8,0,0,0,6.31-5.1c1.46-3.61.31-7.06-.18-10.62a18.66,18.66,0,0,0,9.2-14.34c.34-2.76-3.79-3-4.61-.62a14,14,0,0,1-2.67,4.55,10.56,10.56,0,0,0,1-11.27c-1-1.73-3.2-1-3.83.5a9,9,0,0,1-2,2.83,10,10,0,0,1-1,.93,9,9,0,0,1-.84.52l-.17.11-.25.09a5.5,5.5,0,0,0-3.66,4.15A4.83,4.83,0,0,0,110.75,61.56Z" fill="#e0dfe6"/><path d="M7.66,64.42a3.08,3.08,0,0,0,2.26,1A3.54,3.54,0,0,0,13.13,63a3.5,3.5,0,0,0,.31-2.74,5.24,5.24,0,0,0-.63-1.3,25.76,25.76,0,0,1-.11-3c.1-2.92-4.36-3.77-5.33-1.19A8.75,8.75,0,0,0,5.92,54c-1.81-.64-3.43,1.3-3,3A16,16,0,0,0,4.7,60.65C5.47,62,6.18,63.67,7.66,64.42Z" fill="#e0dfe6"/><path d="M37.6,99.75a1.5,1.5,0,0,1-1.34-1.64,27.68,27.68,0,0,1,2.53-8.91c-.6-6.59-1.2-12.67-1.79-18.59-1.83-18.47-3.34-33.74-3.4-52.06A45,45,0,0,1,30.71,9c-.55,23,1.16,40.28,3.31,62,.76,7.68,1.55,15.62,2.32,24.62a6.44,6.44,0,0,1-6.4,7c-1.88,0-3.71,0-5.55,0a6.07,6.07,0,0,1-6.14-5.6C16.58,74.72,13.71,29.45,13,9.05A5.86,5.86,0,0,1,18.87,3H19l8.44.17a3.52,3.52,0,0,1,2.42,1.08A3.38,3.38,0,0,1,30.69,6a1.5,1.5,0,0,1,2.66.69c.11.7.23,1.39.36,2.06,0-.63,0-1.26,0-1.9A6.52,6.52,0,0,0,32,2.18a6.55,6.55,0,0,0-4.53-2L19,0a8.87,8.87,0,0,0-9,9.15c.23,6.75.7,16.23,1.28,26.68l.76-.49a1.5,1.5,0,0,1,1.57,2.56,24.65,24.65,0,0,0-2.13,1.48C12,48,12.54,57,13.1,65.73c.71.29,1.42.55,2.12.78a1.5,1.5,0,0,1-.48,2.93,1.6,1.6,0,0,1-.47-.08c-.33-.11-.64-.23-1-.35.7,10.76,1.39,20.74,1.95,28.14a9.06,9.06,0,0,0,9,8.38h.16c1.81,0,3.63,0,5.44,0a9.47,9.47,0,0,0,7-3,9.33,9.33,0,0,0,1.89-3.09,1.53,1.53,0,0,1-1,.38Z" fill="#525d7d"/><path d="M38.79,89.2a27.68,27.68,0,0,0-2.53,8.91,1.5,1.5,0,0,0,1.34,1.64h.15a1.51,1.51,0,0,0,1.5-1.35c1.13-11,11-24.85,35-28.15-.08-1-.14-2-.2-3C54.27,69.92,43.38,79.43,38.79,89.2Z" fill="#525d7d"/><path d="M76.8,39.46v0Z" fill="#525d7d"/><path d="M31.64,5.4a1.5,1.5,0,0,0-.95.56,1.49,1.49,0,0,0-.3,1.15c.09.62.2,1.24.32,1.84a45,45,0,0,0,2.89,9.6c6.2,14.21,19.66,21.71,40.18,22.37,0-.2,0-.4,0-.59,0-.81,0-1.61,0-2.41C50.55,37.17,37.4,27.6,33.71,8.71c-.13-.67-.25-1.36-.36-2.06A1.49,1.49,0,0,0,31.64,5.4Z" fill="#525d7d"/><path d="M112.24,69.59a1.51,1.51,0,0,1-.6-2.88c.61-.26,1.28-.58,2-.94-.32-6.1-.73-12.16-1.14-18.1q-.23-3.24-.45-6.53c-.78-.23-1.45-.39-1.94-.49a1.5,1.5,0,0,1,.6-2.94l1.13.26c-.19-2.83-.36-5.67-.51-8.5a1.49,1.49,0,0,0-1.53-1.42c-3.63.08-7.31.22-10.87.36-5.7.22-11.6.45-17.38.45-2.15,0-4.14,0-6.07-.1a1.57,1.57,0,0,0-1.09.42,1.51,1.51,0,0,0-.46,1.08c0,2.54-.05,5.1-.08,7.66,0,.8,0,1.6,0,2.41,0,.19,0,.39,0,.59,0,3.78-.11,7.67-.11,11.52,0,4.28.06,9.39.37,14.82.06,1,.12,2,.2,3,.19,2.67.45,5.38.79,8.11a1.5,1.5,0,0,0,1.4,1.3c2.52.16,4.83.29,7,.39-.05-.43-.1-.85-.16-1.25a1.5,1.5,0,0,1,3-.39c.07.56.14,1.15.21,1.76,2.7.1,5.19.14,7.6.14,3.22,0,6.28-.08,9.21-.26,0-.51,0-1,0-1.56a1.5,1.5,0,0,1,3-.06c0,.48,0,1,0,1.42,2.24-.18,4.4-.42,6.52-.71a1.49,1.49,0,0,0,1.29-1.52c-.06-2.86-.17-5.73-.3-8.6l-.94.43A1.44,1.44,0,0,1,112.24,69.59ZM94.06,77.32c-4.73,0-9.77-.17-16.2-.56a208.44,208.44,0,0,1-1.19-24.32c0-4,.06-8.12.12-12.07,0-.29,0-.57,0-.86v0c0-2.56.07-5.12.09-7.66,1.49,0,3,.06,4.63.06,5.84,0,11.77-.23,17.5-.45,3.07-.12,6.23-.24,9.36-.33.31,5.63.71,11.3,1.09,16.8.66,9.32,1.33,18.94,1.58,28.48A136.85,136.85,0,0,1,94.06,77.32Z" fill="#525d7d"/><path d="M126,53.32c0-8.74-7.16-13.58-14.23-15.35l-1.13-.26a1.5,1.5,0,0,0-.6,2.94c.49.1,1.16.26,1.94.49,4,1.19,11,4.37,11,12.18,0,6.29-5.25,10.27-9.43,12.45-.69.36-1.36.68-2,.94a1.51,1.51,0,0,0,.6,2.88,1.44,1.44,0,0,0,.6-.13l.94-.43C121.69,65.32,126,59.77,126,53.32Z" fill="#525d7d"/><path d="M104.7,77a1.5,1.5,0,0,0-1.47,1.53c0,.53,0,1,0,1.56.26,9.81,1,16.88,1.54,22.11.62,5.93,1,9.5-.11,10.72s-4.32,1.22-9.25,1.22c-12.53,0-12.53-2.92-12.53-6.62a48.64,48.64,0,0,1,1.89-11.66,48.9,48.9,0,0,0,1.9-11.69,36.43,36.43,0,0,0-.25-4c-.07-.61-.14-1.2-.21-1.76a1.5,1.5,0,0,0-3,.39c.06.4.11.82.16,1.25a36.45,36.45,0,0,1,.28,4.08,45.87,45.87,0,0,1-1.81,11,51.1,51.1,0,0,0-2,12.38c0,6.38,2.4,9.62,15.53,9.62,6.06,0,9.58-.1,11.48-2.21s1.61-5.83.86-13c-.54-5.2-1.27-12.24-1.52-22,0-.47,0-.94,0-1.42A1.51,1.51,0,0,0,104.7,77Z" fill="#525d7d"/><path d="M14.74,69.44a1.5,1.5,0,0,0,.48-2.93c-.7-.23-1.41-.49-2.12-.78C8.09,63.66,3,60,3,53.4c0-5.94,4.66-11.08,8.5-14a24.65,24.65,0,0,1,2.13-1.48,1.5,1.5,0,0,0-1.57-2.56l-.76.49C5.92,39.37,0,45.87,0,53.4,0,60.48,4.61,65.86,13.31,69c.32.12.63.24,1,.35A1.6,1.6,0,0,0,14.74,69.44Z" fill="#525d7d"/></svg>
