<svg xmlns="http://www.w3.org/2000/svg" width="164" height="121" viewBox="0 0 163.9 121.56"><path d="M111,65.26c.05.71.11,1.42.18,2.12a11.44,11.44,0,0,0,.42,2.08,4.63,4.63,0,0,1,.84,2.05A8.81,8.81,0,0,0,120.15,76c5.72.25,12-.87,17.71-1.53,7.77-.89,9-6.59,8.41-12.91a4.83,4.83,0,0,1-.37-2.85c-.58-3.56-1.49-7.12-2-10-.24-1.47-.38-3.2-.62-5-.05-.38-.09-.76-.14-1.15a9,9,0,0,0-.43-1.9,12.09,12.09,0,0,0-1.43-3.5c.67-.15,1.33-.31,2-.51,5.64-1.73,3.17-9.4-2.38-8.61-3.45.49-6.71,1.54-10.23,1.74-3.28.18-6.59-.05-9.87-.18-2.44-.1-3.63,3.7-1.29,4.78.62.29,1.26.55,1.92.81l-2.19.23a7.31,7.31,0,0,0-1.22.24,10.68,10.68,0,0,0-1.52-2,1.32,1.32,0,0,0-1.84,0c-3.49,3.94-3.23,9.67-3.44,14.65-.19,4.43-.49,9.12-.39,13.69A5.07,5.07,0,0,1,111,65.26Z" fill="#ffcc80"/><path d="M112.43,71.51a4.63,4.63,0,0,0-.84-2.05A4.31,4.31,0,0,0,109,67.79a4.57,4.57,0,0,0,2-2.53,5.07,5.07,0,0,0-.13-3.17A5.56,5.56,0,0,0,106,58.36c-7-.39-15.1,4.13-20.6,8.08a48.93,48.93,0,0,0-5.18,4.19C78.88,63.85,77.8,57,76.58,50.18,75.08,41.75,74,32.8,71,24.74a1.26,1.26,0,0,0-2.46.34c0,.54-.06,1.1-.08,1.65a1,1,0,0,0-.08.4c0,.32,0,.65,0,1,0,1.27,0,2.55,0,3.84,0,18.34-.21,37.23,3,55.26-2.5-2-7.15-1.21-7.74,2.37-.33,2,.05,3.93-.3,5.89,0,.18-.1.36-.14.54-.65.09-1.31.45-1.94.5-3.35.27-2.58-4.9-3.5-7a.79.79,0,0,0-1.22-.16c-2.34,2.27-2.81,6.37-2.21,9.45a8.16,8.16,0,0,0,2.52,4.59,2.14,2.14,0,0,0,.13,2.74c7.32,8.91,20.2-.33,25.22-6.87,3.72-4.84,6.36-10.78,10.85-15s10.5-5.38,16.16-7.64A4.69,4.69,0,0,0,112.43,71.51ZM73.76,95a14.44,14.44,0,0,0-.3-4.07,4.88,4.88,0,0,0,2.85.54C75.51,92.73,74.67,93.91,73.76,95Zm8.13-12.23c-.7,1-1.35,2-2,3q-.27-2.19-.57-4.38c1.35-1.35,3.94-2.26,5.45-3.16,1-.62,2.09-1.22,3.14-1.82A36.75,36.75,0,0,0,81.89,82.81Z" fill="#e0dfe6"/><path d="M146.27,61.56q.1.24.24.48a4.94,4.94,0,0,0,6.24,2,20.31,20.31,0,0,1-2.57,1.37c-1.78.79-2.21,3.41-1.3,5a4.2,4.2,0,0,0,.42.57c-.15,1-.23,2.13-.29,3.28-.12,2.51-.2,4.39-2,5.52a4.3,4.3,0,0,0-3.71-.6,5.83,5.83,0,0,0-1.77.78,4.65,4.65,0,0,0-3.61-1.81c-2.65-.06-5.2.95-7.8,1.37-2.44.41-4.73.65-6.91,1.91-1.56.9-2.18,3.54-.62,4.79,2.81,2.26,7.26,3.11,11.38,2.73-.06,2.23.07,4.45.23,6.72.14,1.82.31,3.65.5,5.47.08.78.41,1.91.58,3a10.8,10.8,0,0,0-3.65,2.85,3.89,3.89,0,0,0-.84,3.24l-1.17.33c-2.36.65-4.77,1.1-7.09,1.86h-.22a1.24,1.24,0,0,0-1,.43l-.73.29c-1.61.69-1.09,3.28.48,3.66.34.08.69.14,1,.2,1.67,2.09,4.83,3.11,7.37,3.81,5.32,1.48,11.59,1.13,15.86-2.77,3.68-3.35,5.46-8.34,5.69-13.23a38.2,38.2,0,0,0-1-9c-.35-1.77-.79-3.52-1.11-5.29a22.7,22.7,0,0,0-.4-3.45,8,8,0,0,0,6.32-5.1c1.46-3.61.3-7.06-.18-10.62a18.62,18.62,0,0,0,9.19-14.34c.34-2.76-3.78-3-4.6-.62a14,14,0,0,1-2.68,4.55,10.52,10.52,0,0,0,1-11.27c-1-1.73-3.19-1-3.83.5a9,9,0,0,1-2,2.83,13.19,13.19,0,0,1-1,.93c-.27.19-.56.36-.84.52l-.17.11-.25.09a5.47,5.47,0,0,0-3.66,4.15A4.83,4.83,0,0,0,146.27,61.56Z" fill="#e0dfe6"/><path d="M43.18,64.42a3.08,3.08,0,0,0,2.26,1A3.51,3.51,0,0,0,48.64,63,3.5,3.5,0,0,0,49,60.21a5.61,5.61,0,0,0-.63-1.3,23.79,23.79,0,0,1-.11-3c.09-2.92-4.36-3.77-5.33-1.19A9.15,9.15,0,0,0,41.44,54c-1.81-.64-3.44,1.3-3,3a16.34,16.34,0,0,0,1.77,3.67C41,62,41.69,63.67,43.18,64.42Z" fill="#e0dfe6"/><path d="M73.12,99.75a1.49,1.49,0,0,1-1.34-1.64,27.43,27.43,0,0,1,2.53-8.91c-.6-6.59-1.2-12.67-1.79-18.59-1.83-18.47-3.35-33.74-3.4-52.06A45.05,45.05,0,0,1,66.22,9c-.55,23,1.16,40.28,3.32,62,.76,7.68,1.55,15.62,2.32,24.62a6.44,6.44,0,0,1-6.4,7c-1.88,0-3.72,0-5.56,0a6.06,6.06,0,0,1-6.13-5.6c-1.68-22.21-4.55-67.48-5.23-87.88A5.84,5.84,0,0,1,54.38,3h.1l8.44.17A3.45,3.45,0,0,1,66.21,6a1.48,1.48,0,0,1,1-.56,1.49,1.49,0,0,1,1.71,1.25c.11.7.23,1.39.36,2.06,0-.63,0-1.26,0-1.9A6.46,6.46,0,0,0,63,.17L54.53,0a8.85,8.85,0,0,0-9,9.15c.23,6.75.69,16.23,1.28,26.68l.76-.49a1.5,1.5,0,1,1,1.56,2.56A24.61,24.61,0,0,0,47,39.38c.48,8.57,1,17.65,1.6,26.35.71.29,1.42.55,2.11.78a1.5,1.5,0,1,1-.94,2.85c-.33-.11-.64-.23-1-.35.7,10.76,1.39,20.74,2,28.14a9.05,9.05,0,0,0,9,8.38H60c1.82,0,3.63,0,5.45,0a9.4,9.4,0,0,0,8.87-6.13,1.55,1.55,0,0,1-1,.38Z" fill="#525d7d"/><path d="M74.31,89.2a27.43,27.43,0,0,0-2.53,8.91,1.49,1.49,0,0,0,1.34,1.64h.15a1.55,1.55,0,0,0,1-.38,1.52,1.52,0,0,0,.49-1c1.13-11,11-24.85,35-28.15-.07-1-.14-2-.19-3C89.79,69.92,78.9,79.43,74.31,89.2Z" fill="#525d7d"/><path d="M112.32,39.46v0S112.32,39.49,112.32,39.46Z" fill="#525d7d"/><path d="M67.16,5.4A1.52,1.52,0,0,0,65.9,7.11c.1.62.21,1.24.32,1.84a45.05,45.05,0,0,0,2.9,9.6c6.2,14.21,19.66,21.71,40.18,22.37,0-.2,0-.4,0-.59,0-.81,0-1.61,0-2.41C86.06,37.17,72.91,27.6,69.23,8.71,69.1,8,69,7.35,68.87,6.65A1.49,1.49,0,0,0,67.16,5.4Z" fill="#525d7d"/><path d="M147.76,69.59a1.5,1.5,0,0,1-.6-2.88c.6-.26,1.27-.58,2-.94-.32-6.1-.73-12.16-1.15-18.1q-.22-3.24-.45-6.53c-.77-.23-1.44-.39-1.93-.49a1.5,1.5,0,0,1,.6-2.94l1.12.26c-.18-2.83-.35-5.67-.5-8.5a1.49,1.49,0,0,0-1.53-1.42c-3.63.08-7.31.22-10.87.36-5.71.22-11.6.45-17.38.45-2.15,0-4.14,0-6.08-.1a1.59,1.59,0,0,0-1.09.42,1.55,1.55,0,0,0-.46,1.08c0,2.54,0,5.1-.08,7.66,0,.8,0,1.6,0,2.41,0,.19,0,.39,0,.59-.06,3.78-.11,7.67-.11,11.52,0,4.28.06,9.39.37,14.82,0,1,.12,2,.19,3,.2,2.67.45,5.38.8,8.11a1.49,1.49,0,0,0,1.39,1.3c2.53.16,4.84.29,7,.39,0-.43-.11-.85-.16-1.25a1.5,1.5,0,0,1,3-.39c.08.56.15,1.15.22,1.76,2.7.1,5.19.14,7.59.14,3.23,0,6.28-.08,9.22-.26,0-.51,0-1,0-1.56A1.5,1.5,0,0,1,140.22,77a1.52,1.52,0,0,1,1.53,1.47l0,1.42q3.36-.27,6.52-.71a1.49,1.49,0,0,0,1.3-1.52c-.06-2.86-.17-5.73-.31-8.6l-.93.43A1.44,1.44,0,0,1,147.76,69.59Zm-18.19,7.73c-4.72,0-9.76-.17-16.2-.56a210.46,210.46,0,0,1-1.18-24.32c0-4,.06-8.12.11-12.07,0-.29,0-.57,0-.86v0c0-2.56.07-5.12.09-7.66,1.48,0,3,.06,4.63.06,5.84,0,11.76-.23,17.49-.45,3.07-.12,6.24-.24,9.37-.33.31,5.63.71,11.3,1.09,16.8.65,9.32,1.32,18.94,1.58,28.48A137,137,0,0,1,129.57,77.32Z" fill="#525d7d"/><path d="M161.55,53.32c0-8.74-7.15-13.58-14.23-15.35l-1.12-.26a1.5,1.5,0,0,0-.6,2.94c.49.1,1.16.26,1.93.49,4.05,1.19,11,4.37,11,12.18,0,6.29-5.24,10.27-9.42,12.45-.7.36-1.37.68-2,.94a1.5,1.5,0,0,0,.6,2.88,1.44,1.44,0,0,0,.6-.13l.93-.43C157.2,65.32,161.55,59.77,161.55,53.32Z" fill="#525d7d"/><path d="M140.22,77a1.5,1.5,0,0,0-1.47,1.53c0,.53,0,1,0,1.56.26,9.81,1,16.88,1.54,22.11.61,5.93,1,9.5-.11,10.72s-4.33,1.22-9.25,1.22c-12.53,0-12.53-2.92-12.53-6.62a48.64,48.64,0,0,1,1.89-11.66,48.89,48.89,0,0,0,1.89-11.69,39.17,39.17,0,0,0-.24-4c-.07-.61-.14-1.2-.22-1.76a1.5,1.5,0,0,0-3,.39c0,.4.11.82.16,1.25a36.46,36.46,0,0,1,.27,4.08,45.85,45.85,0,0,1-1.8,11,50.62,50.62,0,0,0-2,12.38c0,6.38,2.4,9.62,15.53,9.62,6.06,0,9.58-.1,11.48-2.21s1.61-5.83.86-13c-.54-5.2-1.27-12.24-1.53-22l0-1.42A1.52,1.52,0,0,0,140.22,77Z" fill="#525d7d"/><path d="M50.26,69.44a1.5,1.5,0,0,0,.47-2.93c-.69-.23-1.4-.49-2.11-.78-5-2.07-10.1-5.78-10.1-12.33,0-5.94,4.66-11.08,8.5-14a24.61,24.61,0,0,1,2.12-1.48,1.5,1.5,0,1,0-1.56-2.56l-.76.49c-5.38,3.54-11.3,10-11.3,17.57,0,7.08,4.6,12.46,13.31,15.61.32.12.63.24,1,.35A1.5,1.5,0,0,0,50.26,69.44Z" fill="#525d7d"/><path d="M20.63,18.27a1.5,1.5,0,1,0,2.53-1.61,32.9,32.9,0,0,0-4-4.8c-2.06-2.17-4-4.22-4.86-7a1.5,1.5,0,0,0-2.87.88C12.5,9.19,14.78,11.6,17,13.93A29.82,29.82,0,0,1,20.63,18.27Z" fill="#525d7d"/><path d="M1.91,33.28a1.5,1.5,0,0,0-.82,2.89c1.9.54,3.75,1.25,5.54,1.93a36.51,36.51,0,0,0,10.45,2.83h.11a1.5,1.5,0,0,0,.1-3C14,37.7,10.93,36.53,7.7,35.3,5.85,34.59,3.94,33.86,1.91,33.28Z" fill="#525d7d"/><path d="M1.89,63.68l.25,0c2.39-.4,4.7-.9,6.93-1.39s4.48-1,6.8-1.36a1.5,1.5,0,0,0-.5-3c-2.39.4-4.7.9-6.93,1.39S4,60.31,1.65,60.7a1.5,1.5,0,0,0,.24,3Z" fill="#525d7d"/><path d="M11.3,90.74a1.51,1.51,0,0,0,1.12-.5c2.62-2.91,6-5,9.37-7,1-.58,1.93-1.17,2.87-1.77A1.5,1.5,0,0,0,23.05,79c-.92.59-1.87,1.16-2.81,1.73-3.51,2.12-7.14,4.32-10,7.55a1.51,1.51,0,0,0,1.11,2.51Z" fill="#525d7d"/></svg>
