<svg xmlns="http://www.w3.org/2000/svg" fill="none" viewBox="0 0 14 14"><path stroke="currentColor" stroke-linecap="round" stroke-linejoin="round" d="M2.91797 0.788086c-0.09115 0.009818 -0.182 0.019884 -0.27256 0.030092C1.68557 0.926367 0.914246 1.69761 0.810233 2.65791c-0.009622 0.08883 -0.019095 0.17795 -0.028325 0.26734" stroke-width="1"/><path stroke="currentColor" stroke-linecap="round" stroke-linejoin="round" d="M2.92188 12.71c-0.09115 -0.0099 -0.18201 -0.0199 -0.27256 -0.0301 -0.95984 -0.1082 -1.731168 -0.8795 -1.835181 -1.8398 -0.009621 -0.0888 -0.019094 -0.1779 -0.028324 -0.2673" stroke-width="1"/><path stroke="currentColor" stroke-linecap="round" stroke-linejoin="round" d="M0.512599 7.56387c-0.016799 -0.54615 -0.016799 -1.08705 0 -1.63321" stroke-width="1"/><path stroke="currentColor" stroke-linecap="round" stroke-linejoin="round" d="M10.5913 0.785156c0.0912 0.009818 0.182 0.019885 0.2726 0.030092 0.9598 0.108189 1.7311 0.879432 1.8351 1.839732 0.0097 0.08883 0.0191 0.17795 0.0284 0.26734" stroke-width="1"/><path stroke="currentColor" stroke-linecap="round" stroke-linejoin="round" d="M12.9876 5.93652c0.0074 0.24063 0.0115 0.48024 0.0124 0.71973" stroke-width="1"/><path stroke="currentColor" stroke-linecap="round" stroke-linejoin="round" d="M5.93042 12.9878c0.22186 0.0069 0.44286 0.0109 0.66369 0.0122" stroke-width="1"/><path stroke="currentColor" stroke-linecap="round" stroke-linejoin="round" d="M7.56949 0.512599C7.02333 0.4958 6.48243 0.4958 5.93628 0.512599" stroke-width="1"/><path stroke="currentColor" stroke-linecap="round" stroke-linejoin="round" d="M11 8.5v5M8.5 11h5" stroke-width="1"/></svg>