<svg xmlns="http://www.w3.org/2000/svg" fill="none" viewBox="0 0 14 14"><path stroke="currentColor" stroke-linecap="round" stroke-linejoin="round" d="M9.59375 7.64062v3.90628" stroke-width="1"/><path stroke="currentColor" stroke-linecap="round" stroke-linejoin="round" d="m11.5469 9.59375 -3.90628 0" stroke-width="1"/><path stroke="currentColor" stroke-linecap="round" stroke-linejoin="round" d="M5.80769 11.5329c0.10065 0.9607 0.87489 1.7351 1.83508 1.84 0.63572 0.0695 1.28731 0.1271 1.95098 0.1271 0.66365 0 1.31525 -0.0576 1.95095 -0.1271 0.9602 -0.1049 1.7345 -0.8793 1.8351 -1.84 0.0662 -0.6319 0.1202 -1.2795 0.1202 -1.93915 0 -0.65961 -0.054 -1.30725 -0.1202 -1.93917 -0.1006 -0.96066 -0.8749 -1.73504 -1.8351 -1.84002 -0.6357 -0.0695 -1.2873 -0.12706 -1.95095 -0.12706 -0.66367 0 -1.31526 0.05756 -1.95098 0.12706 -0.96019 0.10498 -1.73443 0.87936 -1.83508 1.84002 -0.06621 0.63192 -0.12019 1.27956 -0.12019 1.93917 0 0.65965 0.05398 1.30725 0.12019 1.93915Z" stroke-width="1"/><path stroke="currentColor" stroke-linecap="round" stroke-linejoin="round" d="M0.729165 0.5C0.460784 2.12976 0.428134 3.70823 0.631214 5.32551c0.051228 0.40797 0.361764 0.73641 0.768766 0.79482C2.46762 6.27355 3.49354 6.23344 4.58301 6" stroke-width="1"/><path stroke="currentColor" stroke-linecap="round" stroke-linejoin="round" d="M3.16839 4.43745C3.74901 4.82224 4.28857 5.41111 4.58301 6c-0.29444 0.58885 -0.834 1.17772 -1.41462 1.5625" stroke-width="1"/></svg>