<svg xmlns="http://www.w3.org/2000/svg" fill="none" viewBox="0 0 14 14"><path stroke="currentColor" stroke-linecap="round" stroke-linejoin="round" d="M1.85476 12.1285c-0.49995 -0.5012 -0.81535 -1.157 -0.89476 -1.8605C0.846 9.205 0.75 8.114 0.75 7c0 -1.114 0.096 -2.206 0.21 -3.268 0.07941 -0.70347 0.39481 -1.35929 0.89476 -1.86051C2.35472 1.37026 3.00973 1.0532 3.713 0.972 4.782 0.852 5.88 0.75 7 0.75s2.217 0.103 3.287 0.221c0.7033 0.0812 1.3583 0.39826 1.8582 0.89949 0.5 0.50122 0.8154 1.15704 0.8948 1.86051 0.114 1.064 0.21 2.156 0.21 3.269 0 0.39155 -0.0119 0.78049 -0.0322 1.16649 -0.5061 3.12391 -3.49224 4.81971 -5.76177 5.07801 -0.15159 0.0036 -0.30361 0.0055 -0.45603 0.0055 -1.12 0 -2.217 -0.102 -3.287 -0.222 -0.70327 -0.0812 -1.35828 -0.3983 -1.85824 -0.8995Z" stroke-width="1"/><path stroke="currentColor" stroke-linecap="round" stroke-linejoin="round" d="M13.2174 8.16602c-0.5097 3.14648 -3.53519 4.84458 -5.81054 5.08388 0.87474 -1.1656 1.48825 -2.3526 1.74994 -4.1583 0.07522 -0.51896 0.50499 -0.92558 1.0294 -0.92558h3.0312Z" stroke-width="1"/><path stroke="currentColor" stroke-linecap="round" stroke-linejoin="round" d="M5.81249 3v4.75M8.1875 5.375h-4.75" stroke-width="1"/></svg>