<svg xmlns="http://www.w3.org/2000/svg" fill="none" viewBox="0 0 14 14"><g stroke="currentColor" stroke-linecap="round" stroke-linejoin="round"><path d="M9.836 5.134a.84.84 0 0 0-.474-.257c-.835-.15-1.815-.228-2.735-.263l.224-3.573c.024-.383-.34-.661-.673-.489C3.944 1.714 1.982 4.205.622 6.75a1.002 1.002 0 0 0 .883 1.478h2.22c-.348 1.483-.524 3.11-.62 4.72-.027.444.456.71.794.435a26 26 0 0 0 1.765-1.57M9.254 9.263c.698-.699.83-2.013 1.121-2.013s.423 1.314 1.121 2.013 2.004.772 2.004 1.112-1.305.414-2.004 1.113-.83 2.012-1.121 2.012-.423-1.314-1.121-2.013c-.699-.698-2.004-.772-2.004-1.112s1.305-.414 2.004-1.112"/></g></svg>
