<svg xmlns="http://www.w3.org/2000/svg" fill="none" viewBox="0 0 14 14"><path stroke="currentColor" stroke-linecap="round" stroke-linejoin="round" d="M10.2685 13.0401c1.4407 -0.1541 2.5994 -1.3128 2.7599 -2.7528 0.1192 -1.06951 0.2216 -2.16767 0.2216 -3.2873 0 -1.11964 -0.1024 -2.2178 -0.2216 -3.28734C12.8679 2.2727 11.7092 1.114 10.2685 0.959867 9.20502 0.846084 8.11315 0.75 7 0.75c-1.11316 0 -2.20502 0.096084 -3.26853 0.209867C2.29082 1.114 1.13211 2.2727 0.971608 3.71266 0.852392 4.78221 0.75 5.88037 0.75 7s0.102392 2.21779 0.221609 3.2873c0.160501 1.44 1.319211 2.5987 2.759861 2.7528C4.79498 13.1539 5.88684 13.25 7 13.25c1.11315 0 2.20502 -0.0961 3.2685 -0.2099Z" stroke-width="1"/><path stroke="currentColor" stroke-linecap="round" stroke-linejoin="round" d="M3.44531 6.99984c0 -1.18018 0.04464 -2.10038 0.10392 -2.68023 0.04531 -0.44319 0.3465 -0.77901 0.78659 -0.84824 0.19821 -0.03118 0.4318 -0.05226 0.70094 -0.05226 0.26913 0 0.50269 0.02108 0.70089 0.05225 0.44009 0.06923 0.74127 0.40506 0.78658 0.84825 0.05928 0.57985 0.10392 1.50005 0.10392 2.68023 0 1.18018 -0.04463 2.10037 -0.1039 2.68022 -0.0453 0.44324 -0.34648 0.77904 -0.78658 0.84824 -0.19821 0.0312 -0.43179 0.0523 -0.70094 0.0523 -0.26914 0 -0.50273 -0.0211 -0.70094 -0.0523 -0.44009 -0.0692 -0.74127 -0.405 -0.78658 -0.84824 -0.05927 -0.57985 -0.1039 -1.50004 -0.1039 -2.68022Z" stroke-width="1"/></svg>