<svg xmlns="http://www.w3.org/2000/svg" fill="none" viewBox="0 0 14 14"><g stroke="currentColor" stroke-linecap="round" stroke-linejoin="round"><path d="M.75 11.687c1.396 1.023 3.388 1.563 5.903 1.563 2.516 0 4.508-.54 5.904-1.563l.602-.5"/><path d="M11.1 10.85c.66-.124 1.5-.008 2.102.29a3.64 3.64 0 0 1-.29 2.11M9.488 5.903c0 1.272-1.024 3.034-2.975 3.034-1.54 0-2.597-1.03-2.597-2.301s1.247-2.302 2.786-2.302c2.786 0 2.786 0 2.786 1.57"/><path d="M10.865 8.624c-.582 0-1.377-.59-1.377-1.572V3.536a2.786 2.786 0 0 0-5.403-.958"/></g></svg>