<svg xmlns="http://www.w3.org/2000/svg" fill="none" viewBox="0 0 14 14"><path stroke="currentColor" stroke-linecap="round" stroke-linejoin="round" d="m5.75 10.7656 -0.69923 -0.1926c-0.15658 -0.0405 -0.32095 -0.0436 -0.47693 -0.0009 -0.38501 0.1056 -0.79174 0.25 -1.20493 0.3967 -0.17397 0.0617 -0.34909 0.1239 -0.52422 0.1837 -0.09018 0.0308 -0.17909 0.0623 -0.26692 0.0935 -0.30411 0.1077 -0.59523 0.2108 -0.88084 0.2653 -0.12014 0.0229 -0.23123 -0.0289 -0.32905 -0.1155 -0.36365 -0.3223 -0.451034 -0.8368 -0.533825 -1.3242 -0.009488 -0.0559 -0.018915 -0.11139 -0.028692 -0.16621 -0.407151 -2.28311 -0.407151 -4.62025 0 -6.90335L0.85491 2.7242c0.06217 -0.34862 0.128944 -0.70114 0.29131 -1.01584 0.09407 -0.18233 0.21804 -0.36165 0.36395 -0.43131 0.40557 -0.19362 0.8107 -0.379897 1.17179 -0.479463C3.26003 0.63819 4.20065 0.401085 4.8124 0.544065l3.51837 0.910505c0.22363 0.05787 0.46047 0.03669 0.66882 -0.06306 0.03011 -0.01442 0.06027 -0.02888 0.09045 -0.04335 0.45448 -0.21795 0.91516 -0.43885 1.32026 -0.550573 0.3715 -0.10243 0.8927 -0.23695 1.3801 -0.282077 0.1322 -0.01224 0.2529 0.058711 0.3571 0.163785 0.338 0.341045 0.4269 0.842175 0.5116 1.319795 0.0071 0.03978 0.0141 0.07939 0.0212 0.11874 0.2424 1.33525 0.34 2.69663 0.2943 4.05319" stroke-width="1"/><path stroke="currentColor" stroke-linecap="round" stroke-linejoin="round" d="M8.74282 6.04688V1.48914c-0.10486 0.01006 -0.21139 0.00211 -0.31517 -0.02386L4.75359 0.546021c-0.00496 0.041124 -0.0075 0.082876 -0.0075 0.125048V10.5377c0.07282 0.0006 0.14568 0.0102 0.21699 0.028l0.33383 0.0835" stroke-width="1"/><path stroke="currentColor" stroke-linejoin="round" d="M8.45837 8.84055c-0.2113 0.14251 -0.3541 0.36765 -0.38498 0.62064 -0.09785 0.80161 -0.09785 1.44851 0 2.25011 0.03088 0.253 0.17368 0.4782 0.38498 0.6207 0.65534 0.442 1.33941 0.8774 2.04343 1.1256 0.1607 0.0566 0.3357 0.0566 0.4964 0 0.704 -0.2482 1.3881 -0.6836 2.0434 -1.1256 0.2113 -0.1425 0.3541 -0.3677 0.385 -0.6207 0.0979 -0.8015 0.0979 -1.4485 0 -2.25011 -0.0309 -0.25299 -0.1737 -0.47813 -0.385 -0.62064 -0.6553 -0.44201 -1.3394 -0.87737 -2.0434 -1.12559 -0.1607 -0.05663 -0.3357 -0.05663 -0.4964 0 -0.70402 0.24822 -1.38809 0.68358 -2.04343 1.12559Z" stroke-width="1"/><path stroke="currentColor" stroke-linecap="round" stroke-linejoin="round" d="M10.748 11.0863c-0.32 0 -0.5 -0.18 -0.5 -0.5s0.18 -0.5 0.5 -0.5" stroke-width="1"/><path stroke="currentColor" stroke-linecap="round" stroke-linejoin="round" d="M10.7512 11.0863c0.32 0 0.5 -0.18 0.5 -0.5s-0.18 -0.5 -0.5 -0.5" stroke-width="1"/></svg>