<svg viewBox="0 0 16 16" version="1.1" xmlns="http://www.w3.org/2000/svg" xmlns:xlink="http://www.w3.org/1999/xlink"><g transform="translate(1 1)" stroke="currentColor" stroke-width="1" fill="none" fill-rule="evenodd" stroke-linecap="round" stroke-linejoin="round"><path d="M4.81319857,12.4677737 L4.80357571,0.0276022459 C4.10588429,-0.0876103255 3.11806714,0.183419389 2.49653571,0.369305103 C2.08339286,0.492859389 1.61985,0.724013675 1.15580429,0.964299389 C0.988855714,1.0507451 0.847015714,1.27328225 0.739392857,1.4995451 C0.55361,1.89008225 0.47721,2.32755653 0.406078571,2.7601851 L0.349392857,3.10496225 C-0.116464286,5.93824225 -0.116464286,8.83856225 0.349392857,11.671888 C0.36057,11.739888 0.371358571,11.8088022 0.382215714,11.8780594 C0.476947143,12.4829737 0.576924286,13.1213737 0.993004286,13.5213737 C1.10492429,13.6289165 1.23203286,13.6931451 1.36949571,13.664688 C1.69628429,13.5971451 2.02938143,13.4691451 2.37732429,13.3354308 C2.47782714,13.2968022 2.57955286,13.2577165 2.68273,13.2195451 C2.88310714,13.1452594 3.08347286,13.0681165 3.28252429,12.9914308 C3.75530143,12.8093737 4.22066143,12.6301737 4.66118714,12.4992022 C4.71123286,12.4843451 4.76204429,12.4739451 4.81319857,12.4677737 L4.81319857,12.4677737 Z"/><path d="M9.41501571,13.6785165 C9.39525571,13.674288 9.37549571,13.6697165 9.35572429,13.664688 L5.20714143,12.5003451 C5.07823857,12.4641165 4.94471857,12.4520022 4.81347286,12.4677737 L4.80385,0.0275565317 C4.84862714,0.0349508174 4.89220429,0.0439336745 4.93441,0.0546308174 L8.96004429,1.18455082 C9.11837571,1.2289851 9.28249,1.2358651 9.44109571,1.20531653 L9.41501571,13.6785165 Z"/><path d="M9.41490143,13.6786308 C10.0017814,13.8035451 10.5862843,13.5789737 11.2201129,13.3354308 C11.32057,13.2969165 11.4222843,13.2578308 11.5254843,13.2195451 C11.7259414,13.1452594 11.9262843,13.0681165 12.12537,12.9914308 C12.40217,12.8849165 12.6763414,12.7793165 12.94457,12.6837737 C13.1105129,12.624688 13.2609129,12.4568022 13.3868557,12.2620594 C13.71817,11.7496022 13.8294843,11.1105165 13.93257,10.4947451 C14.4007986,7.69657367 14.4047986,4.80589939 13.93657,2.00771653 C13.9284557,1.95889367 13.9203414,1.90972796 13.9123414,1.86036796 C13.8153129,1.26764796 13.7135986,0.645762246 13.3268557,0.222539389 C13.20777,0.0921393888 13.0695986,0.00409367451 12.9183986,0.0192822459 C12.3606843,0.0752822459 11.7643414,0.242219389 11.3393129,0.36932796 C10.8756557,0.507979389 10.3486729,0.782105103 9.82866143,1.05257367 C9.79412429,1.07053939 9.75962143,1.08848225 9.72517571,1.10636796 C9.63429571,1.15355653 9.53868429,1.1865851 9.44098143,1.20539653 L9.41490143,13.6786308 Z"/></g></svg>