<svg xmlns="http://www.w3.org/2000/svg" fill="none" viewBox="0 0 14 14"><path stroke="currentColor" stroke-linecap="round" stroke-linejoin="round" d="M6.97621 4.15128C5.66277 2.84 3.90027 1.6971 1.97362 1.407c-0.55343 -0.0711 -0.95464 0.30855 -1.063982 0.83828 -0.54959 2.66251 -0.542768 5.24593 0 7.90842 0.080741 0.3961 0.386572 0.8022 0.830652 0.8468 1.27938 0.1574 2.88622 0.9614 3.93157 1.6446 0.22332 0.146 0.36446 0.3013 0.48947 0.4389 0.21136 0.2325 0.37658 0.4143 0.81488 0.4143 0.4415 0 0.60792 -0.1818 0.82083 -0.4143 0.12591 -0.1376 0.26809 -0.2929 0.49303 -0.4389 1.05297 -0.6832 2.67153 -1.4872 3.96023 -1.6446 0.4473 -0.0446 0.7554 -0.4507 0.8367 -0.8468 0.5467 -2.66249 0.5536 -5.24591 0 -7.90842 -0.1102 -0.52973 -0.5143 -0.90938 -1.0717 -0.83828 -0.4929 0.07367 -0.975 0.20232 -1.4418 0.37476" stroke-width="1"/><path stroke="currentColor" stroke-linecap="round" stroke-linejoin="round" d="M6.97607 4.14964v9.34706c0.89771 -1.7415 1.74219 -3.247 3.17973 -4.50227 0.3891 -0.33982 0.5066 -0.74218 0.5468 -1.06696 0.2704 -2.18208 -0.0106 -4.48945 -0.1577 -6.60585 -0.0521 -0.750352 -0.3672 -1.066632 -0.95164 -0.596236 -0.74084 0.596236 -1.78125 1.694726 -2.61719 3.424256Z" stroke-width="1"/><path stroke="currentColor" stroke-linecap="round" stroke-linejoin="round" d="M6.97607 13.4984V4.15137" stroke-width="1"/></svg>