<svg xmlns="http://www.w3.org/2000/svg" fill="none" viewBox="0 0 14 14"><path fill="currentColor" fill-rule="evenodd" d="M7 0.500977c0.55228 0 1 0.447715 1 1.000003L8 2.5432c0.07554 0.01214 0.14746 0.02517 0.21543 0.03872 0.63746 0.12712 1.02282 0.83913 0.62732 1.44301 -0.00437 0.00668 -0.00891 0.01326 -0.0136 0.01972 -0.35185 0.48486 -0.83813 0.97914 -1.23941 1.27088 -0.35221 0.25607 -0.82727 0.25607 -1.17948 0 -0.3863 -0.28085 -0.89421 -0.74275 -1.25301 -1.2906 -0.3955 -0.60388 -0.01014 -1.31589 0.62732 -1.44301 0.06797 -0.01355 0.13989 -0.02658 0.21543 -0.03872l0 -1.04222C6 0.948692 6.44771 0.500977 7 0.500977ZM8 11.4587c0.07554 -0.0121 0.14746 -0.0251 0.21543 -0.0387 0.63746 -0.1271 1.02282 -0.8391 0.62732 -1.44298 -0.00437 -0.00668 -0.00891 -0.01326 -0.0136 -0.01972 -0.35185 -0.48486 -0.83813 -0.97913 -1.23941 -1.27088 -0.35221 -0.25607 -0.82727 -0.25607 -1.17948 0 -0.3863 0.28086 -0.89421 0.74275 -1.25301 1.2906 -0.3955 0.60388 -0.01014 1.31588 0.62732 1.44298 0.06797 0.0136 0.13989 0.0266 0.21543 0.0388l0 1.0422c0 0.5523 0.44771 1 1 1 0.55228 0 1 -0.4477 1 -1l0 -1.0423Zm3.4579 -5.45772c-0.0121 -0.07555 -0.0252 -0.14746 -0.0387 -0.21543 -0.1271 -0.63747 -0.8392 -1.02283 -1.44303 -0.62733 -0.54785 0.3588 -1.00975 0.86671 -1.2906 1.25301 -0.25607 0.35222 -0.25607 0.82728 0 1.17949 0.29174 0.40128 0.78602 0.88756 1.27088 1.23941 0.00646 0.00469 0.01304 0.00922 0.01972 0.0136 0.60383 0.3955 1.31593 0.01014 1.44303 -0.62733 0.0135 -0.06797 0.0266 -0.13988 0.0387 -0.21542l1.0421 0c0.5523 0 1 -0.44772 1 -1 0 -0.55229 -0.4477 -1 -1 -1l-1.0421 0Zm-8.9158 2c0.01214 0.07554 0.02517 0.14745 0.03872 0.21542 0.12712 0.63747 0.83913 1.02283 1.44301 0.62733 0.00668 -0.00438 0.01326 -0.00891 0.01972 -0.0136 0.48486 -0.35185 0.97914 -0.83813 1.27088 -1.23941 0.25607 -0.35221 0.25607 -0.82727 0 -1.17949 -0.28085 -0.3863 -0.74275 -0.89421 -1.2906 -1.25301 -0.60388 -0.3955 -1.31589 -0.01014 -1.44301 0.62733 -0.01355 0.06797 -0.02658 0.13988 -0.03872 0.21543l-1.0421 0c-0.552284 0 -1 0.44771 -1 1 0 0.55228 0.447715 1 1 1l1.0421 0Z" clip-rule="evenodd"/></svg>