<svg viewBox="0 0 15 16" version="1.1" xmlns="http://www.w3.org/2000/svg" xmlns:xlink="http://www.w3.org/1999/xlink"><g transform="translate(.936 1)" stroke="currentColor" stroke-width="1" fill="none" fill-rule="evenodd" stroke-linecap="round" stroke-linejoin="round"><path d="M10.2730575,13.764912 C11.8279657,13.59232 13.078519,12.294576 13.2517423,10.681776 C13.3803916,9.4839248 13.4909091,8.2539856 13.4909091,7 C13.4909091,5.7460032 13.3803916,4.516064 13.2517423,3.3181792 C13.078519,1.705424 11.8279657,0.40768 10.2730575,0.23505104 C9.12527249,0.10761408 7.94684698,0 6.74545455,0 C5.54405132,0 4.3656366,0.10761408 3.21781926,0.23505104 C1.662965,0.40768 0.412400902,1.705424 0.239175471,3.3181792 C0.110508893,4.5160752 0,5.7460144 0,7 C0,8.2539856 0.110508893,9.4839248 0.23917655,10.681776 C0.412400902,12.294576 1.662965,13.59232 3.21781926,13.764912 C4.3656366,13.892368 5.54405132,14 6.74545455,14 C7.94684698,14 9.12527249,13.892368 10.2730575,13.764912 Z"/><line x1="4.04727273" y1="10.36" x2="4.04727273" y2="7"/><line x1="9.44363636" y1="3.64" x2="9.44363636" y2="7"/><path d="M7.82472727,8.68 C7.82472727,9.7552 8.40753455,10.36 9.44363636,10.36 C10.4797382,10.36 11.0625455,9.7552 11.0625455,8.68 C11.0625455,7.6048 10.4797382,7 9.44363636,7 C8.40753455,7 7.82472727,7.6048 7.82472727,8.68 Z"/><path d="M2.42836364,5.32 C2.42836364,6.3952 3.01117091,7 4.04727273,7 C5.08337455,7 5.66618182,6.3952 5.66618182,5.32 C5.66618182,4.2448 5.08337455,3.64 4.04727273,3.64 C3.01117091,3.64 2.42836364,4.2448 2.42836364,5.32 Z"/></g></svg>