<svg xmlns="http://www.w3.org/2000/svg" fill="none" viewBox="0 0 14 14"><g stroke="currentColor" stroke-linecap="round" stroke-linejoin="round"><path d="M12.369 10.285c-.656.24-1.159.713-1.159 1.473s.503 1.233 1.158 1.474a1.95 1.95 0 0 1-.791.194c-2.8.098-5.566.098-8.366 0-1.018-.035-1.586-.767-1.586-1.668s.568-1.633 1.586-1.668c2.8-.098 5.566-.098 8.366 0 .286.01.56.08.792.194"/><path d="M1.627 11.67c.036-.86.6-1.546 1.584-1.58 2.8-.098 5.566-.098 8.366 0 .284.01.556.078.786.192.228-2.546.152-5.038-.09-7.582-.096-1.007-.926-1.83-1.988-1.973a23.8 23.8 0 0 0-6.56 0C2.663.87 1.832 1.693 1.735 2.7c-.285 2.999-.299 5.964-.108 8.97"/></g></svg>