<svg viewBox="0 0 16 16" version="1.1" xmlns="http://www.w3.org/2000/svg" xmlns:xlink="http://www.w3.org/1999/xlink"><g transform="translate(1 1)" stroke="currentColor" stroke-width="1" fill="none" fill-rule="evenodd" stroke-linecap="round" stroke-linejoin="round"><path d="M0.0587531429,11.8840003 L0,7.15051457 C1.81668571,4.14970314 3.29958857,2.430926 6.51675429,0.196555714 C6.89409143,-0.0655185714 7.39162286,-0.0655185714 7.76897143,0.196555714 C10.9861714,2.430926 12.4690286,4.14970314 14.2857143,7.15051457 L14.2269714,11.8840003 C14.1037714,12.9929146 13.2289143,13.8768003 12.1323429,14.0052574 C8.94105143,14.3792003 5.34466286,14.3792003 2.15337143,14.0052574 C1.05681143,13.8768003 0.181913143,12.9929146 0.0587531429,11.8840003 Z"/><path d="M7.45258286,5.03794314 C6.70481143,5.69226314 5.80510857,7.58515457 5.57142857,8.25114314 L8.71451429,7.690286 C8.4224,8.84702886 7.32408,10.4360917 6.85670857,10.9619431"/></g></svg>