<svg xmlns="http://www.w3.org/2000/svg" fill="none" viewBox="0 0 14 14"><g stroke="currentColor" stroke-linecap="round" stroke-linejoin="round"><path d="M7.131 13.116c.476-.036.87-.398.952-.869.084-.49.165-.995.165-1.512s-.081-1.022-.165-1.512a1.05 1.05 0 0 0-.952-.868C6.284 8.29 5.403 8.22 4.5 8.22s-1.786.071-2.633.135c-.476.035-.87.397-.951.868-.084.49-.165.995-.165 1.512s.08 1.022.165 1.512c.08.47.475.833.951.869.847.063 1.728.134 2.633.134s1.785-.07 2.632-.134M12.134 5.645c.476-.035.87-.397.951-.868.084-.49.165-.995.165-1.512s-.08-1.022-.165-1.512a1.05 1.05 0 0 0-.951-.869C11.287.821 10.406.75 9.5.75c-.904 0-1.785.07-2.632.134-.476.036-.87.398-.952.869-.084.49-.165.995-.165 1.512s.081 1.022.165 1.512c.081.47.476.833.952.868.847.064 1.728.135 2.632.135s1.786-.071 2.633-.135M2.514 5.743c.463-.073.805-.488.833-.956.03-.493.06-1.002.06-1.522s-.03-1.03-.06-1.522c-.028-.468-.37-.884-.833-.956A3 3 0 0 0 2.078.75c-.147 0-.292.015-.435.037-.464.072-.805.488-.834.956C.78 2.236.75 2.745.75 3.265s.029 1.029.06 1.522c.028.468.37.883.833.956q.214.035.435.037c.147 0 .292-.015.436-.037M12.357 13.213c.464-.072.805-.488.834-.956.03-.493.059-1.002.059-1.522s-.029-1.03-.06-1.522c-.028-.468-.37-.883-.833-.956a3 3 0 0 0-.435-.037 3 3 0 0 0-.436.037c-.463.073-.805.488-.833.956-.03.493-.06 1.002-.06 1.522s.03 1.03.06 1.522c.028.468.37.884.833.956.143.022.289.037.436.037s.292-.015.435-.037"/></g></svg>