<svg xmlns="http://www.w3.org/2000/svg" fill="none" viewBox="0 0 14 14"><path stroke="currentColor" stroke-linecap="round" stroke-linejoin="round" d="M1.5 4.0117c3.70225 -0.48695 7.29775 -0.48695 11 0" stroke-width="1"/><path stroke="currentColor" stroke-linecap="round" stroke-linejoin="round" d="M2.48113 3.8938c-0.03491 1.86889 -0.08342 5.02765 0.49568 7.6101 0.22419 0.9997 1.07518 1.7148 2.08968 1.8579 0.65577 0.0925 1.25364 0.1387 1.93361 0.1387 0.68 0 1.27796 -0.0462 1.93382 -0.1387 1.0145 -0.1431 1.86548 -0.8582 2.08968 -1.8579 0.5791 -2.58243 0.5306 -5.74116 0.4957 -7.61006 -3.03257 -0.32979 -6.00563 -0.32981 -9.03817 -0.00004Z" stroke-width="1"/><path stroke="currentColor" stroke-linecap="round" stroke-linejoin="round" d="M4.41786 3.70312c-0.00772 -0.10103 -0.01161 -0.50235 -0.01161 -0.60949C4.40625 1.43371 5.33996 0.5 6.99988 0.5s2.59363 0.93371 2.59363 2.59363c0 0.10714 -0.00389 0.50846 -0.01162 0.60949" stroke-width="1"/><path stroke="currentColor" stroke-linecap="round" stroke-linejoin="round" d="M8.9491 6.62513 5.05079 10.5234M5.05078 6.625l3.8983 3.8983" stroke-width="1"/></svg>