<svg xmlns="http://www.w3.org/2000/svg" fill="none" viewBox="0 0 14 14"><g stroke="currentColor" stroke-linecap="round" stroke-linejoin="round"><path d="M12.06 10.285c-.618.24-1.091.713-1.091 1.473s.473 1.233 1.092 1.474a1.75 1.75 0 0 1-.747.194c-2.64.098-5.247.098-7.886 0-.96-.035-1.495-.767-1.495-1.668s.535-1.633 1.495-1.668c2.64-.098 5.247-.098 7.886 0 .27.01.528.08.747.194"/><path d="M12.056 10.282a1.75 1.75 0 0 0-.742-.192c-2.639-.098-5.247-.098-7.886 0-.928.034-1.459.719-1.493 1.58-.18-3.006-.167-5.971.103-8.97A2.2 2.2 0 0 1 3.912.727a21.2 21.2 0 0 1 6.184 0A2.2 2.2 0 0 1 11.971 2.7c.228 2.544.3 5.036.085 7.582m0 0s0 0 0 0"/><path d="M8.03 4.635h2.27L7.889 8.038h2.552M3.581 5.952l1.045-3.135A.39.39 0 0 1 5 2.548v0c.17 0 .32.109.374.27l1.045 3.134M3.96 4.817h2.08"/></g></svg>