<svg xmlns="http://www.w3.org/2000/svg" fill="none" viewBox="0 0 14 14"><path fill="currentColor" fill-rule="evenodd" d="M5.5867 3.16684c0.22412 -0.44826 0.43019 -0.75464 0.66294 -0.99818v2.74803c0 0.41421 0.33578 0.75 0.75 0.75 0.41421 0 0.75 -0.33579 0.75 -0.75V2.16945c0.23245 0.24343 0.43833 0.54964 0.66222 0.99742 0.18524 0.37049 0.63575 0.52065 1.00623 0.33541 0.37049 -0.18524 0.52065 -0.63574 0.33541 -1.00623 -0.28305 -0.5661 -0.58641 -1.03149 -0.98688 -1.43196C8.36615 0.663617 7.90077 0.36026 7.33469 0.0772241c-0.21114 -0.1055676 -0.45966 -0.1055698 -0.6708 -0.0000057 -0.5661 0.2830336 -1.0315 0.5863876 -1.43198 0.9868616 -0.40048 0.40048 -0.70384 0.86588 -0.98687 1.43199 -0.18523 0.37049 -0.03505 0.82099 0.33544 1.00622 0.37049 0.18523 0.82099 0.03504 1.00622 -0.33545Zm2.16294 5.91647c0 -0.41422 -0.33579 -0.75 -0.75 -0.75 -0.41422 0 -0.75 0.33578 -0.75 0.75v2.74409c-0.23275 -0.2435 -0.43883 -0.5499 -0.66294 -0.9982 -0.18524 -0.3704 -0.63574 -0.5206 -1.00623 -0.3354 -0.37049 0.1852 -0.52066 0.6357 -0.33543 1.0062 0.28304 0.5661 0.58639 1.0315 0.98687 1.432 0.38928 0.3893 0.83991 0.6868 1.38475 0.9631 0.1121 0.0667 0.24306 0.105 0.38298 0.105 0.14161 0 0.27406 -0.0392 0.38705 -0.1074 0.54268 -0.2756 0.99179 -0.5726 1.37993 -0.9607 0.40047 -0.4005 0.70383 -0.8659 0.98688 -1.4319 0.18524 -0.3705 0.03507 -0.821 -0.33541 -1.0063 -0.37048 -0.1852 -0.82099 -0.0351 -1.00623 0.3354 -0.22389 0.4478 -0.42977 0.754 -0.66222 0.9974V9.08331ZM-0.000488281 6.99902c0 -0.02943 0.001694561 -0.05846 0.004991431 -0.087 0.00987125 -0.08586 0.03462485 -0.1704 0.07426095 -0.24968 0.2830329 -0.5661 0.5863869 -1.0315 0.9868659 -1.43198 0.40047 -0.40047 0.86587 -0.70383 1.43198 -0.98687 0.37049 -0.18522 0.82099 -0.03504 1.00622 0.33545 0.18523 0.37049 0.03505 0.82099 -0.33544 1.00622 -0.44886 0.22441 -0.75545 0.43073 -0.99916 0.66386h2.7471c0.41421 0 0.75 0.33579 0.75 0.75s-0.33579 0.75 -0.75 0.75H2.17197c0.24327 0.23207 0.54926 0.4377 0.99645 0.6613 0.37048 0.18524 0.52065 0.63574 0.33541 1.00623 -0.18524 0.37048 -0.63575 0.52065 -1.00623 0.33541 -0.5661 -0.28305 -1.03149 -0.58642 -1.43196 -0.98689C0.672959 8.3724 0.373654 7.91732 0.0953236 7.36609c-0.0610125 -0.10851 -0.095811881 -0.23372 -0.095811881 -0.36707Zm9.083928281 -0.75c-0.41422 0 -0.75 0.33579 -0.75 0.75s0.33578 0.75 0.75 0.75h2.74426c-0.2433 0.23207 -0.5493 0.4377 -0.9964 0.66129 -0.3705 0.18525 -0.5207 0.63575 -0.3354 1.00624 0.1852 0.37048 0.6357 0.52065 1.0062 0.3354 0.5661 -0.28305 1.0315 -0.58641 1.4319 -0.98688 0.3923 -0.39229 0.6914 -0.84688 0.9695 -1.3974 0.0616 -0.10887 0.0968 -0.23465 0.0968 -0.36865 0 -0.0692 -0.0094 -0.13621 -0.027 -0.19983 -0.0128 -0.0468 -0.0303 -0.09265 -0.0524 -0.13686 -0.283 -0.5661 -0.5864 -1.0315 -0.9869 -1.43197 -0.4004 -0.40047 -0.8658 -0.70383 -1.4319 -0.98686 -0.3705 -0.18524 -0.821 -0.03506 -1.0063 0.33543 -0.1852 0.37048 -0.035 0.82099 0.3355 1.00622 0.4488 0.22442 0.7554 0.43074 0.9991 0.66387H9.08344Z" clip-rule="evenodd"/></svg>