<svg xmlns="http://www.w3.org/2000/svg" fill="none" viewBox="0 0 14 14"><path stroke="currentColor" stroke-linecap="round" stroke-linejoin="round" d="M0.5 4.75977c0.89609 0.44804 1.79219 1.34414 2.24023 2.2402C2.29219 7.89609 1.39609 8.79219 0.5 9.24023" stroke-width="1"/><path stroke="currentColor" stroke-linecap="round" stroke-linejoin="round" d="M3.42639 12.0864c0.03957 0.4763 0.43092 0.8389 0.90859 0.8558 2.16726 0.0769 6.03752 0.0769 8.20472 0 0.4777 -0.0169 0.8691 -0.3795 0.9086 -0.8558 0.0685 -0.8248 0.0685 -1.6205 0 -2.44534 -0.0395 -0.47633 -0.4309 -0.83888 -0.9086 -0.85583 -2.1672 -0.07692 -6.03746 -0.07692 -8.20472 0 -0.47767 0.01695 -0.86902 0.3795 -0.90859 0.85583 -0.06852 0.82484 -0.06852 1.62054 0 2.44534Z" stroke-width="1"/><path stroke="currentColor" stroke-linecap="round" stroke-linejoin="round" d="M3.42639 4.35883c0.03957 0.47633 0.43092 0.83888 0.90859 0.85584 2.16726 0.07691 6.03752 0.07691 8.20472 0 0.4777 -0.01695 0.8691 -0.3795 0.9086 -0.85584 0.0685 -0.82481 0.0685 -1.6205 0 -2.44531 -0.0395 -0.47633 -0.4309 -0.83888 -0.9086 -0.85583 -2.1672 -0.076919 -6.03746 -0.076919 -8.20472 0 -0.47767 0.01695 -0.86902 0.3795 -0.90859 0.85583 -0.06852 0.82481 -0.06852 1.6205 0 2.44531Z" stroke-width="1"/></svg>