<svg xmlns="http://www.w3.org/2000/svg" fill="none" viewBox="0 0 14 14"><path stroke="currentColor" stroke-linecap="round" stroke-linejoin="round" d="M11.1037 7.89686 8.23771 11.1488l-0.39263 1.8466c-0.06318 0.2972 0.24655 0.5783 0.5366 0.4871l1.83772 -0.5777 2.9602 -3.11485c0.4917 -0.51734 0.4059 -1.38263 -0.1892 -1.90902 -0.5812 -0.51406 -1.4259 -0.50693 -1.8867 0.01593Z" stroke-width="1"/><path stroke="currentColor" stroke-linecap="round" stroke-linejoin="round" d="M7.30547 0.54519c0.97879 0.037253 1.52665 0.52425 1.52665 1.36417 0 0.83991 -0.54786 1.3269 -1.52665 1.36416 -1.58314 0.06025 -1.02527 0.06025 -2.60841 0 -0.97879 -0.03726 -1.52665 -0.52425 -1.52665 -1.36416 0 -0.83992 0.54786 -1.326918 1.52665 -1.36417 1.58314 -0.060253 1.02527 -0.060253 2.60841 0Z" stroke-width="1"/><path stroke="currentColor" stroke-linecap="round" stroke-linejoin="round" d="M3.17447 2.10938c-0.25729 0.02946 -0.60252 0.06018 -0.85609 0.09066 -0.2407 0.02894 -0.47967 0.05768 -0.7168 0.08493 -0.49602 0.05701 -0.889137 0.44564 -0.925875 0.93465 -0.234273 3.11835 -0.234273 6.06189 0 9.18028 0.036738 0.489 0.430095 0.8788 0.927835 0.9188 1.46624 0.1177 2.86969 0.1782 4.27131 0.1817M8.81846 2.10938c0.25726 0.02946 0.61182 0.06018 0.86536 0.09066 0.2407 0.02894 0.47968 0.05768 0.71678 0.08493 0.496 0.05701 0.8892 0.44564 0.9259 0.93465 0.052 0.6919 0.0869 1.38462 0.1266 2.07726" stroke-width="1"/></svg>