<svg xmlns="http://www.w3.org/2000/svg" fill="none" viewBox="0 0 14 14"><path stroke="currentColor" stroke-linecap="round" stroke-linejoin="round" d="M0.75 6.8314S4.55711 6.57098 7 6.57098s6.25 0.26042 6.25 0.26042" stroke-width="1"/><path stroke="currentColor" d="M4.81721 0.88287C5.50735 0.815664 6.35153 0.750026 7.01639 0.75c0.66482 -0.000026 1.50893 0.065537 2.19905 0.132685 0.78026 0.075918 1.42806 0.622915 1.63296 1.379595 0.1805 0.66623 0.3844 1.4828 0.4937 2.1349 0.1178 0.70345 0.1949 1.62945 0.2409 2.33304 -1.3236 -0.07317 -3.17869 -0.15923 -4.58297 -0.15923 -1.3927 0 -3.2288 0.08464 -4.55008 0.15742 0.04599 -0.70333 0.12301 -1.6282 0.24075 -2.33095 0.10925 -0.65214 0.31318 -1.46876 0.49366 -2.13501 0.20496 -0.75662 0.85265 -1.303605 1.63285 -1.37958Z" stroke-width="1"/><path stroke="currentColor" stroke-linecap="round" stroke-linejoin="round" d="M5.9103 10.9756c0.66128 -0.427 1.51812 -0.427 2.1794 0" stroke-width="1"/><path stroke="currentColor" stroke-linecap="round" stroke-linejoin="round" d="M3.91459 13.2082c1.2808 0 2.00126 -0.7204 2.00126 -2.0013 0 -1.28076 -0.72046 -2.00121 -2.00126 -2.00121 -1.28081 0 -2.00126 0.72045 -2.00126 2.00121 0 1.2809 0.72045 2.0013 2.00126 2.0013Z" stroke-width="1"/><path stroke="currentColor" stroke-linecap="round" stroke-linejoin="round" d="M10.0855 13.25c1.2808 0 2.0012 -0.7204 2.0012 -2.0012 0 -1.28085 -0.7204 -2.0013 -2.0012 -2.0013 -1.28082 0 -2.00127 0.72045 -2.00127 2.0013 0 1.2808 0.72045 2.0012 2.00127 2.0012Z" stroke-width="1"/></svg>