<svg xmlns="http://www.w3.org/2000/svg" fill="none" viewBox="0 0 14 14"><path stroke="currentColor" stroke-linecap="round" stroke-linejoin="round" d="M3.19837 2.94637c0.11413 -1.03693 0.94524 -1.86781 1.98168 -1.986284C6.13534 0.850882 7.11942 0.750244 8.1246 0.750244c1.00519 0 1.9893 0.100638 2.9446 0.209841 1.0364 0.118475 1.8675 0.949355 1.9816 1.986285 0.1046 0.95039 0.1992 1.92934 0.1992 2.92924s-0.0946 1.97885 -0.1992 2.92924c-0.1141 1.03693 -0.9452 1.86785 -1.9816 1.98625 -0.9553 0.1092 -1.93941 0.2099 -2.9446 0.2099 -1.00518 0 -1.98926 -0.1007 -2.94455 -0.2099 -1.03644 -0.1184 -1.86755 -0.94932 -1.98168 -1.98625 -0.1046 -0.95039 -0.19913 -1.92934 -0.19913 -2.92924s0.09453 -1.97885 0.19913 -2.92924Z" stroke-width="1"/><path stroke="currentColor" stroke-linecap="round" stroke-linejoin="round" d="M5.53076 8.20898H8.8228" stroke-width="1"/><path stroke="currentColor" stroke-linecap="round" stroke-linejoin="round" d="M10.7184 5.875H5.53093" stroke-width="1"/><path stroke="currentColor" stroke-linecap="round" stroke-linejoin="round" d="M10.7183 3.54297H5.53081" stroke-width="1"/><path stroke="currentColor" stroke-linecap="round" stroke-linejoin="round" d="M8.82004 13.0401c-0.95529 0.1092 -1.93937 0.2098 -2.94456 0.2098 -1.00518 0 -1.98926 -0.1006 -2.94455 -0.2098 -1.03644 -0.1185 -1.86756 -0.9494 -1.981678 -1.9863 -0.104598 -0.9504 -0.199137 -1.92935 -0.199137 -2.92925 0 -0.9999 0.094539 -1.97885 0.199137 -2.92924" stroke-width="1"/></svg>