<svg viewBox="0 0 19 19" fill="none" xmlns="http://www.w3.org/2000/svg"><path fill-rule="evenodd" clip-rule="evenodd" d="M15.3297 3.57338C15.0685 3.31214 14.7584 3.10491 14.4172 2.96352C14.0759 2.82213 13.7101 2.74936 13.3407 2.74936C12.9713 2.74936 12.6055 2.82213 12.2642 2.96352C11.923 3.10491 11.6129 3.31214 11.3517 3.57338L7.9767 6.94838C7.6583 7.26651 7.4209 7.6564 7.28444 8.08531C7.14798 8.51422 7.11646 8.96962 7.19251 9.41324C7.26857 9.85686 7.44998 10.2758 7.72151 10.6347C7.99305 10.9937 8.34677 11.2822 8.75295 11.4761C8.88294 11.5431 8.98173 11.6581 9.02838 11.7967C9.07504 11.9352 9.0659 12.0866 9.0029 12.2185C8.93989 12.3505 8.82798 12.4527 8.69088 12.5035C8.55378 12.5544 8.40226 12.5499 8.26845 12.4909C7.70004 12.2194 7.20506 11.8154 6.82509 11.313C6.44512 10.8106 6.19124 10.2243 6.08477 9.60341C5.9783 8.98254 6.02236 8.34518 6.21323 7.74486C6.4041 7.14453 6.73622 6.59877 7.1817 6.15338L10.5567 2.77838C10.9206 2.40498 11.355 2.10756 11.8347 1.90338C12.3144 1.6992 12.8299 1.59232 13.3513 1.58895C13.8726 1.58558 14.3894 1.68578 14.8718 1.88374C15.3541 2.0817 15.7923 2.37347 16.161 2.74213C16.5296 3.1108 16.8214 3.549 17.0193 4.03132C17.2173 4.51365 17.3175 5.03048 17.3141 5.55183C17.3108 6.07319 17.2039 6.58868 16.9997 7.06841C16.7955 7.54813 16.4981 7.98252 16.1247 8.34638L14.807 9.66413C14.7555 9.7194 14.6934 9.76372 14.6244 9.79447C14.5554 9.82521 14.4809 9.84174 14.4053 9.84308C14.3298 9.84441 14.2548 9.83052 14.1848 9.80222C14.1147 9.77393 14.0511 9.73183 13.9977 9.67841C13.9443 9.625 13.9022 9.56137 13.8739 9.49133C13.8456 9.42129 13.8317 9.34627 13.833 9.27074C13.8343 9.19521 13.8509 9.12073 13.8816 9.05173C13.9124 8.98273 13.9567 8.92063 14.012 8.86913L15.3297 7.55138C15.5909 7.29021 15.7982 6.98013 15.9396 6.63885C16.081 6.29757 16.1537 5.93179 16.1537 5.56238C16.1537 5.19298 16.081 4.82719 15.9396 4.48591C15.7982 4.14464 15.5909 3.83456 15.3297 3.57338ZM9.78795 6.77363C9.85232 6.63909 9.96749 6.53561 10.1081 6.48597C10.2488 6.43632 10.4034 6.44456 10.538 6.50888C11.1064 6.7804 11.6013 7.18434 11.9813 7.68678C12.3613 8.18921 12.6152 8.77548 12.7216 9.39635C12.8281 10.0172 12.784 10.6546 12.5932 11.2549C12.4023 11.8552 12.0702 12.401 11.6247 12.8464L8.2497 16.2214C7.88584 16.5948 7.45145 16.8922 6.97173 17.0964C6.492 17.3006 5.97651 17.4074 5.45516 17.4108C4.9338 17.4142 4.41697 17.314 3.93464 17.116C3.45232 16.9181 3.01412 16.6263 2.64545 16.2576C2.27679 15.889 1.98502 15.4508 1.78706 14.9684C1.5891 14.4861 1.4889 13.9693 1.49227 13.4479C1.49564 12.9266 1.60252 12.4111 1.8067 11.9314C2.01088 11.4516 2.3083 11.0172 2.6817 10.6534L3.99945 9.33563C4.05095 9.28037 4.11305 9.23604 4.18205 9.2053C4.25105 9.17455 4.32553 9.15802 4.40106 9.15669C4.47659 9.15536 4.55161 9.16925 4.62165 9.19754C4.69169 9.22583 4.75532 9.26794 4.80873 9.32135C4.86215 9.37477 4.90425 9.43839 4.93254 9.50843C4.96084 9.57848 4.97473 9.6535 4.9734 9.72903C4.97206 9.80455 4.95553 9.87904 4.92479 9.94804C4.89405 10.017 4.84972 10.0791 4.79445 10.1306L3.4767 11.4484C2.94919 11.9759 2.65283 12.6914 2.65283 13.4374C2.65283 13.8068 2.72559 14.1725 2.86695 14.5138C3.00831 14.8551 3.2155 15.1652 3.4767 15.4264C3.7379 15.6876 4.04799 15.8948 4.38926 16.0361C4.73054 16.1775 5.09631 16.2503 5.4657 16.2503C6.21172 16.2503 6.92719 15.9539 7.4547 15.4264L10.8297 12.0514C11.1481 11.7333 11.3855 11.3434 11.522 10.9145C11.6584 10.4855 11.69 10.0301 11.6139 9.58652C11.5378 9.1429 11.3564 8.72401 11.0849 8.36505C10.8134 8.00608 10.4596 7.71753 10.0535 7.52363C9.98677 7.49183 9.927 7.4472 9.87757 7.39229C9.82813 7.33738 9.79 7.27328 9.76534 7.20363C9.74069 7.13398 9.72999 7.06016 9.73387 6.98638C9.73775 6.9126 9.75613 6.84031 9.78795 6.77363Z" fill="currentColor"/></svg>