<svg xmlns="http://www.w3.org/2000/svg" fill="none" viewBox="0 0 14 14"><path stroke="currentColor" stroke-linecap="round" stroke-linejoin="round" d="M11.2569 9.08384c0.9798 -0.10927 1.7682 -0.89809 1.8731 -1.87885 0.1599 -1.49532 0.1599 -2.95494 0 -4.45027 -0.1049 -0.98075 -0.8933 -1.769576 -1.8731 -1.878843 -1.50497 -0.167836 -2.96865 -0.167836 -4.47364 0 -0.9798 0.109267 -1.76823 0.898083 -1.8731 1.878843" stroke-width="1"/><path stroke="currentColor" stroke-linecap="round" stroke-linejoin="round" d="M4.9104 2.75472c0.10488 -0.98076 0.8933 -1.769576 1.8731 -1.878843 1.50499 -0.167836 2.96867 -0.167836 4.4737 0 0.9798 0.109267 1.7682 0.898093 1.8731 1.878843 0.0065 0.0608 0.0129 0.37174 0.0192 0.43281h-5.087" stroke-width="1"/><path stroke="currentColor" stroke-linecap="round" stroke-linejoin="round" d="M0.869927 11.2453c0.104878 0.9807 0.893303 1.7696 1.873103 1.8788 1.50499 0.1679 2.96867 0.1679 4.47366 0 0.9798 -0.1092 1.76822 -0.8981 1.8731 -1.8788 0.1599 -1.49535 0.1599 -2.95497 0 -4.45029 -0.10488 -0.98076 -0.8933 -1.76958 -1.8731 -1.87885 -1.50499 -0.16784 -2.96867 -0.16784 -4.47366 0 -0.9798 0.10927 -1.768225 0.89809 -1.873103 1.87885 -0.159903 1.49532 -0.159903 2.95494 0 4.45029Z" stroke-width="1"/><path stroke="currentColor" stroke-linecap="round" stroke-linejoin="round" d="m9.10913 7.22782 -8.2583 0c0.0063 -0.06108 0.012717 -0.37201 0.019219 -0.43281 0.104877 -0.98076 0.893301 -1.76958 1.873101 -1.87885 1.50499 -0.16784 2.96867 -0.16784 4.47366 0 0.9798 0.10927 1.76822 0.89809 1.8731 1.87885 0.0065 0.0608 0.01292 0.37174 0.01922 0.43281Z" stroke-width="1"/></svg>