<svg viewBox="0 0 20 19" fill="none" xmlns="http://www.w3.org/2000/svg"><path d="M1.24968 11.8984C1.51172 13.9038 3.22745 15.4464 5.24372 15.6037C6.86586 15.7304 8.53348 15.842 10.2349 15.842C11.9364 15.842 13.604 15.7304 15.2261 15.6037C17.2425 15.4464 18.9582 13.9038 19.2202 11.8984C19.3229 11.1118 19.3956 10.3115 19.3956 9.49999C19.3956 8.68849 19.3229 7.88816 19.2202 7.10162C18.9582 5.09625 17.2425 3.55362 15.2261 3.39625C13.604 3.26965 11.9364 3.15796 10.2349 3.15796C8.53348 3.15796 6.86586 3.26965 5.24372 3.39625C3.22745 3.55362 1.51171 5.09625 1.24968 7.10162C1.14691 7.88816 1.07422 8.68849 1.07422 9.49999C1.07422 10.3115 1.14691 11.1118 1.24968 11.8984Z" stroke="currentColor" stroke-linecap="round" stroke-linejoin="round"/><path d="M10.1631 11.4763H9.83594" stroke="currentColor" stroke-linecap="round" stroke-linejoin="round"/><path d="M6.11825 11.4765V8.40236C6.11825 7.91728 5.72501 7.52405 5.23993 7.52405H4.80078M6.11825 11.4765L7.43626 11.4764M6.11825 11.4765L4.80132 11.4764" stroke="currentColor" stroke-linecap="round" stroke-linejoin="round"/><path d="M15.365 8.32041C15.5183 8.90199 15.8525 11.5275 14.0427 11.6375C13.2274 11.687 12.831 11.4718 12.5234 11.2301M13.9504 7.35559C13.0371 7.35559 12.5234 7.77184 12.5234 8.51185C12.5234 9.25186 13.0371 9.66811 13.9504 9.66811C14.8637 9.66811 15.3774 9.25186 15.3774 8.51185C15.3774 7.77184 14.8637 7.35559 13.9504 7.35559Z" stroke="currentColor" stroke-width="0.85" stroke-linecap="round" stroke-linejoin="round"/></svg>