<svg xmlns="http://www.w3.org/2000/svg" fill="none" viewBox="0 0 14 14"><path stroke="currentColor" stroke-linecap="round" stroke-linejoin="round" d="M0.624831 10.6249c0.078804 0.9584 0.860289 1.7015 1.820559 1.7526 3.09486 0.1648 6.01436 0.1648 9.10921 0 0.9603 -0.0511 1.7418 -0.7942 1.8206 -1.7526 0.1664 -2.02425 0.1664 -3.82013 0 -5.84437 -0.0788 -0.95841 -0.8603 -1.70151 -1.8206 -1.75264 -3.09485 -0.16479 -6.01435 -0.16479 -9.10921 0 -0.96027 0.05113 -1.741756 0.79424 -1.820559 1.75264 -0.166441 2.02424 -0.166441 3.82012 0 5.84437Z" stroke-width="1"/><path stroke="currentColor" stroke-linecap="round" stroke-linejoin="round" d="M8.90625 5.39685h2.34365" stroke-width="1"/><path stroke="currentColor" stroke-linecap="round" stroke-linejoin="round" d="M8.90625 7.45264h2.34365" stroke-width="1"/><path stroke="currentColor" stroke-linecap="round" stroke-linejoin="round" d="M4.97454 8.19542c0.99777 0 1.55902 -0.56124 1.55902 -1.55901s-0.56125 -1.55902 -1.55902 -1.55902 -1.55901 0.56125 -1.55901 1.55902 0.56124 1.55901 1.55901 1.55901Z" stroke-width="1"/><path fill="currentColor" d="m7.65457 12.4984 0.00398 0.5c0.27458 -0.0022 0.49602 -0.2254 0.49602 -0.5h-0.5Zm0 -0.0524h0.50001l-0.00001 -0.0015 -0.5 0.0015Zm-5.36062 -0.0825 -0.49982 -0.0137c-0.00703 0.2561 0.18072 0.4761 0.43478 0.5094l0.06504 -0.4957Zm0.15141 0.0139 0.02658 -0.4993 -0.02658 0.4993Zm5.70921 0.121v-0.0524h-1v0.0524h1Zm0 -0.0539c-0.0027 -0.8857 -0.30682 -1.6922 -0.87216 -2.2804 -0.56788 -0.59085 -1.37065 -0.93119 -2.30878 -0.93119v0.99999c0.68744 0 1.22279 0.2444 1.5878 0.6242 0.36756 0.3824 0.59114 0.9325 0.59315 1.5904l0.99999 -0.003ZM4.97363 9.23291c-0.9211 0 -1.71202 0.32807 -2.27833 0.89999 -0.56397 0.5695 -0.87743 1.3526 -0.90117 2.2169l0.99963 0.0274c0.01753 -0.6384 0.24567 -1.1706 0.61212 -1.5407 0.3641 -0.3677 0.89239 -0.6036 1.56775 -0.6036v-0.99999ZM2.22891 12.8592c0.06265 0.0082 0.12598 0.0141 0.18986 0.0175l0.05317 -0.9986c-0.03811 -0.002 -0.07579 -0.0055 -0.11296 -0.0104l-0.13007 0.9915Zm0.18986 0.0175c1.78168 0.0949 3.50634 0.1355 5.23978 0.1217l-0.00795 -1c-1.71217 0.0136 -3.41643 -0.0265 -5.17866 -0.1203l-0.05317 0.9986Z"/><path stroke="currentColor" stroke-linecap="round" stroke-linejoin="round" d="m7 3.6311 0 -2.1322" stroke-width="1"/></svg>