<svg xmlns="http://www.w3.org/2000/svg" fill="none" viewBox="0 0 14 14"><path stroke="currentColor" stroke-linecap="round" stroke-linejoin="round" d="M2.418 2.31999c2.41034 -0.11903 5.1967 -0.08646 7.26664 0.09916 0.2907 0.02411 0.57076 0.15012 0.81226 0.37701 0.8752 0.82251 3.0031 3.49828 3.0031 4.20628 0 0.70799 -2.1279 3.38376 -3.0031 4.20626 -0.2415 0.2269 -0.52156 0.3415 -0.81226 0.3656 -2.06991 0.1856 -4.85624 0.2267 -7.26656 0.111 -0.96655 -0.0464 -1.73105 -0.8122 -1.796259 -1.7777C0.560352 8.99751 0.5 7.88059 0.5 7.00332c0 -0.87727 0.060352 -1.9942 0.12182 -2.90428 0.06521 -0.96547 0.82969 -1.73132 1.79618 -1.77905Z" stroke-width="1"/><path stroke="currentColor" stroke-linecap="round" stroke-linejoin="round" d="M4.74805 5v3.93359" stroke-width="1"/><path stroke="currentColor" stroke-linecap="round" stroke-linejoin="round" d="m6.71484 6.9668 -3.93359 0" stroke-width="1"/></svg>