<svg viewBox="0 0 17 17" version="1.1" xmlns="http://www.w3.org/2000/svg" xmlns:xlink="http://www.w3.org/1999/xlink"><g transform="translate(1 1)" stroke="currentColor" stroke-width="1" fill="none" fill-rule="evenodd" stroke-linecap="round" stroke-linejoin="round"><path d="M3.42857143,4.57868571 L3.42857143,8.57142857 C3.42857143,12.5 5.03571429,13.1500571 6.85714286,13.1500571"/><line x1="3.42857143" y1="7.43582857" x2="6.85714286" y2="7.43582857"/><path d="M3.58497143,-4.4408921e-16 C2.85883429,-4.4408921e-16 2.17297143,0.0270834286 1.55484571,0.0905542857 C0.907634286,0.157011429 0.297112,0.543054857 0.123641143,1.17011429 C0.040232,1.47162286 0,1.81517714 0,2.28572571 C0,2.75628571 0.040232,3.09984 0.123641143,3.40134857 C0.297112,4.02841143 0.907634286,4.41444571 1.55484571,4.48090286 C2.17296,4.54435429 2.85882286,4.57142857 3.58494857,4.57142857 C4.31107429,4.57142857 4.99689143,4.54435429 5.61497143,4.48088 C6.26218286,4.41442286 6.87270857,4.02837714 7.04617143,3.40132571 C7.12958857,3.09980571 7.16981714,2.75625143 7.16981714,2.28570286 C7.16981714,1.81517714 7.12962286,1.47163429 7.04624,1.17013714 C6.87283429,0.543059429 6.26230857,0.157011429 5.61509714,0.0905542857 C4.99697143,0.0270834286 4.31109714,-4.4408921e-16 3.58497143,-4.4408921e-16 Z"/><path d="M10.8572571,5.67355429 C9.94397714,5.67355429 9.08781714,5.70008 8.33264,5.76341714 C7.77178286,5.81045714 7.19457143,6.06469714 6.98988571,6.58897143 C6.90035429,6.81828571 6.85714286,7.08001143 6.85714286,7.43598857 C6.85714286,7.79196571 6.90035429,8.05369143 6.98988571,8.28300571 C7.19457143,8.80729143 7.77178286,9.06152 8.33264,9.10856 C9.08780571,9.17188571 9.94395429,9.1984 10.8571429,9.1984 C11.7704,9.1984 12.6265143,9.17187429 13.3816,9.10853714 C13.9425143,9.06149714 14.5196571,8.80726857 14.7243429,8.28299429 C14.8139429,8.05366857 14.8571429,7.79195429 14.8571429,7.43596571 C14.8571429,7.08001143 14.8139429,6.81830857 14.7244571,6.58900571 C14.5198857,6.06469714 13.9426286,5.81045714 13.3818286,5.76341714 C12.6266286,5.70008 11.7704,5.67355429 10.8572571,5.67355429 L10.8572571,5.67355429 Z"/><path d="M10.8572571,11.3323429 C9.94397714,11.3323429 9.08781714,11.3588571 8.33264,11.4221714 C7.77178286,11.4692571 7.19457143,11.7234286 6.98988571,12.2477714 C6.90035429,12.4770286 6.85714286,12.7387429 6.85714286,13.0947429 C6.85714286,13.4507429 6.90035429,13.7124571 6.98988571,13.9417143 C7.19457143,14.4660571 7.77178286,14.7202286 8.33264,14.7673143 C9.08780571,14.8306286 9.94395429,14.8571429 10.8571429,14.8571429 C11.7704,14.8571429 12.6265143,14.8306286 13.3816,14.7673143 C13.9425143,14.7202286 14.5196571,14.4660571 14.7243429,13.9417143 C14.8139429,13.7124571 14.8571429,13.4507429 14.8571429,13.0947429 C14.8571429,12.7387429 14.8139429,12.4770286 14.7244571,12.2477714 C14.5198857,11.7234286 13.9426286,11.4692571 13.3818286,11.4221714 C12.6266286,11.3588571 11.7704,11.3323429 10.8572571,11.3323429 Z"/></g></svg>