<svg xmlns="http://www.w3.org/2000/svg" fill="none" viewBox="0 0 14 14"><path stroke="currentColor" stroke-linecap="round" stroke-linejoin="round" d="M7 9.25c1.44 0 2.25 -0.81 2.25 -2.25S8.44 4.75 7 4.75 4.75 5.56 4.75 7 5.56 9.25 7 9.25Z" stroke-width="1"/><path stroke="currentColor" stroke-linecap="round" stroke-linejoin="round" d="M10.0999 0.75c0.3999 0.043107 0.796 0.089455 1.188 0.134892 0.9595 0.111206 1.7248 0.876028 1.8325 1.835918 0.0437 0.39024 0.0881 0.78456 0.1292 1.18261" stroke-width="1"/><path stroke="currentColor" stroke-linecap="round" stroke-linejoin="round" d="M10.0999 13.25c0.3999 -0.0431 0.796 -0.0895 1.188 -0.1349 0.9595 -0.1112 1.7248 -0.876 1.8325 -1.8359 0.0437 -0.3902 0.0881 -0.7846 0.1292 -1.1826" stroke-width="1"/><path stroke="currentColor" stroke-linecap="round" stroke-linejoin="round" d="M3.89966 0.75c-0.39991 0.043107 -0.79606 0.089455 -1.18809 0.134892C1.75208 0.996098 0.98684 1.76092 0.879146 2.72081c-0.043782 0.39024 -0.088113 0.78456 -0.129185 1.18261" stroke-width="1"/><path stroke="currentColor" stroke-linecap="round" stroke-linejoin="round" d="M3.89966 13.25c-0.39991 -0.0431 -0.79606 -0.0895 -1.18809 -0.1349 -0.95949 -0.1112 -1.72473 -0.876 -1.832424 -1.8359 -0.043782 -0.3902 -0.088113 -0.7846 -0.129185 -1.1826" stroke-width="1"/></svg>