<svg xmlns="http://www.w3.org/2000/svg" fill="none" viewBox="0 0 14 14"><path stroke="currentColor" stroke-linecap="round" stroke-linejoin="round" d="M12.9941 6.3126c-0.0104 -0.59607 -0.0342 -1.21712 -0.0722 -1.87097 -0.0549 -0.94656 -0.7927 -1.71237 -1.7373 -1.79476 -1.1845 -0.10332 -2.051 -0.12157 -3.35899 -0.14911 -0.18912 -0.00399 -0.38746 -0.00816 -0.59734 -0.01282 -0.4147 -0.0092 -0.78057 -0.27474 -0.91856 -0.66592l-0.21685 -0.61471c-0.13401 -0.379884 -0.48293 -0.643254 -0.8853 -0.662433C3.76687 0.473206 2.89636 0.491758 1.73918 0.577285 1.25507 0.613066 0.870144 1.01364 0.814748 1.5198 0.475625 4.61843 0.363117 7.72783 0.716382 10.8336c0.119875 1.0538 0.941888 1.8198 1.925278 1.9322 1.19753 0.1369 2.38763 0.2133 3.5767 0.2304" stroke-width="1"/><path stroke="currentColor" stroke-linecap="round" stroke-linejoin="round" d="M12.778 12.7782 8.72195 8.72217" stroke-width="1"/><path stroke="currentColor" stroke-linecap="round" stroke-linejoin="round" d="M10.75 13.5c1.76 0 2.75 -0.99 2.75 -2.75S12.51 8 10.75 8 8 8.99 8 10.75s0.99 2.75 2.75 2.75Z" stroke-width="1"/></svg>