<svg xmlns="http://www.w3.org/2000/svg" fill="none" viewBox="0 0 14 14"><path stroke="currentColor" stroke-linecap="round" stroke-linejoin="round" d="M5.79801 12.9877c-1.04926 -0.0275 -2.09992 -0.1011 -3.15635 -0.2219 -0.98339 -0.1124 -1.805403 -0.8784 -1.925278 -1.9322C0.363117 7.72783 0.475625 4.61843 0.814748 1.5198c0.055396 -0.50616 0.440322 -0.906734 0.924432 -0.942515C2.89636 0.491758 3.76687 0.473206 5.20756 0.541877c0.40237 0.019179 0.75129 0.282549 0.8853 0.662433l0.21685 0.61471c0.13799 0.39118 0.50386 0.65672 0.91856 0.66592 0.20988 0.00466 0.40822 0.00883 0.59734 0.01282 1.30799 0.02754 2.17449 0.04579 3.35899 0.14911 0.9446 0.08239 1.6824 0.8482 1.7373 1.79476 0.0214 0.36727 0.0382 0.7242 0.0508 1.07217" stroke-width="1"/><path stroke="currentColor" stroke-linecap="round" stroke-linejoin="round" d="M11.0794 7.86561 8.21341 11.1175l-0.39263 1.8467c-0.06317 0.2971 0.24656 0.5783 0.53661 0.4871l1.83771 -0.5777 2.9602 -3.1149c0.4917 -0.51734 0.4059 -1.38263 -0.1892 -1.90902 -0.5812 -0.51406 -1.4259 -0.50693 -1.8867 0.01593Z" stroke-width="1"/></svg>