<svg xmlns="http://www.w3.org/2000/svg" fill="none" viewBox="0 0 14 14"><path stroke="currentColor" stroke-linecap="round" stroke-linejoin="round" d="M12.989 6.06276c-0.0121 -0.51939 -0.0344 -1.0581 -0.0671 -1.62113 -0.0549 -0.94656 -0.7927 -1.71237 -1.7373 -1.79476 -1.1845 -0.10332 -2.051 -0.12157 -3.35899 -0.14911 -0.18912 -0.00399 -0.38746 -0.00816 -0.59734 -0.01282 -0.4147 -0.0092 -0.78057 -0.27474 -0.91856 -0.66592l-0.21685 -0.61471c-0.13401 -0.379883 -0.48293 -0.643254 -0.8853 -0.662433C3.76687 0.473206 2.89636 0.491758 1.73918 0.577285 1.25507 0.613066 0.870144 1.01364 0.814748 1.5198 0.475625 4.61843 0.363117 7.72783 0.716382 10.8336c0.119875 1.0538 0.941888 1.8198 1.925278 1.9322 1.10343 0.1262 2.20056 0.2009 3.29639 0.2252" stroke-width="1"/><path stroke="currentColor" stroke-linecap="round" stroke-linejoin="round" d="M9.20874 9.89771v-0.80628c0 -0.20899 0.04116 -0.41593 0.12114 -0.60901 0.07998 -0.19308 0.1972 -0.36852 0.34498 -0.5163 0.14778 -0.14778 0.32322 -0.265 0.51634 -0.34498 0.193 -0.07998 0.4 -0.12114 0.609 -0.12114 0.209 0 0.4159 0.04116 0.609 0.12114s0.3685 0.1972 0.5163 0.34498c0.1478 0.14778 0.265 0.32322 0.345 0.5163 0.0799 0.19308 0.1211 0.40002 0.1211 0.60901v0.80628" stroke-width="1"/><path stroke="currentColor" stroke-linecap="round" stroke-linejoin="round" d="M13.3563 12.9479c-0.0386 0.2358 -0.234 0.4171 -0.4723 0.4351 -0.6675 0.0505 -1.3656 0.117 -2.0842 0.117 -0.7185 0 -1.41663 -0.0665 -2.08415 -0.117 -0.23828 -0.018 -0.43363 -0.1993 -0.4723 -0.4351 -0.068 -0.4146 -0.14367 -0.8457 -0.14367 -1.2883s0.07567 -0.8738 0.14367 -1.2884c0.03867 -0.2358 0.23402 -0.41708 0.4723 -0.43509 0.66752 -0.05048 1.36565 -0.11702 2.08415 -0.11702 0.7186 0 1.4167 0.06654 2.0842 0.11702 0.2383 0.01801 0.4337 0.19929 0.4723 0.43509 0.068 0.4146 0.1437 0.8458 0.1437 1.2884s-0.0757 0.8737 -0.1437 1.2883Z" stroke-width="1"/></svg>