<svg xmlns="http://www.w3.org/2000/svg" fill="none" viewBox="0 0 14 14"><g stroke="currentColor" stroke-linecap="round" stroke-linejoin="round"><path d="M6.92 3.746c-.902 0-1.634.734-1.634 1.64 0 .64.365 1.193.898 1.464 0 .569.013 1.464.013 1.464a8.74 8.74 0 0 1 3.78 0s.012-.895.012-1.464a1.64 1.64 0 0 0 .898-1.464c0-.906-.732-1.64-1.634-1.64-.457 0-.87.188-1.166.49a1.63 1.63 0 0 0-1.166-.49M6.372 10.278a7.2 7.2 0 0 1 3.436 0M.75 4.726c.872-.297 1.654-.297 2.526 0M.75 9.743c.872-.297 1.654-.297 2.526 0"/><path d="M2.317 11.318a1.92 1.92 0 0 0 1.775 1.808 48.4 48.4 0 0 0 7.253 0 1.92 1.92 0 0 0 1.776-1.808c.172-2.91.172-5.703 0-8.612A1.92 1.92 0 0 0 11.345.898a48.4 48.4 0 0 0-7.253 0 1.92 1.92 0 0 0-1.775 1.808 72 72 0 0 0 0 8.612"/></g></svg>