<svg xmlns="http://www.w3.org/2000/svg" fill="none" viewBox="0 0 14 14"><g stroke="currentColor" stroke-linecap="round" stroke-linejoin="round"><path d="M.624 8.702c.186 1.423 1.404 2.517 2.834 2.629 1.151.09 2.335.169 3.542.169s2.39-.08 3.542-.17c1.43-.11 2.648-1.205 2.833-2.628.073-.558.125-1.126.125-1.702s-.052-1.144-.124-1.702c-.186-1.423-1.404-2.517-2.834-2.629C9.39 2.58 8.207 2.5 7 2.5s-2.39.08-3.542.17C2.028 2.78.81 3.874.624 5.297A13 13 0 0 0 .5 7c0 .576.052 1.144.124 1.702M5.59 5.622l-.923 2.77M9.333 5.622l-.924 2.77"/></g></svg>