<svg xmlns="http://www.w3.org/2000/svg" fill="none" viewBox="0 0 14 14"><g stroke="currentColor" stroke-linecap="round" stroke-linejoin="round"><path d="M1.61 7.846a22 22 0 0 0 .053 2.962c.105 1.26 1.119 2.26 2.415 2.352.868.061 1.831.09 2.92.09 1.09 0 2.054-.029 2.922-.09 1.296-.092 2.31-1.091 2.415-2.352a22.5 22.5 0 0 0 .052-2.962"/><path d="M2.421 7.997c1.474.058 3.537.085 4.579.085s3.105-.027 4.579-.085c.859-.034 1.576-.637 1.644-1.47a8 8 0 0 0 0-1.314c-.068-.834-.785-1.438-1.644-1.471-1.474-.058-3.537-.085-4.579-.085s-3.105.027-4.579.085c-.859.033-1.576.637-1.644 1.47a8 8 0 0 0 0 1.314c.068.834.785 1.437 1.644 1.471M7.001 13.25V3.657M7.001 3.555l1.366-2.14c.588-.921 1.989-.876 2.512.08.382.698.09 1.562-.645 1.909l-.538.253M7.001 3.555l-1.366-2.14c-.588-.921-1.989-.876-2.512.08-.382.698-.09 1.562.645 1.909l.538.253"/></g></svg>