<svg viewBox="0 0 17 17" version="1.1" xmlns="http://www.w3.org/2000/svg" xmlns:xlink="http://www.w3.org/1999/xlink"><g transform="translate(1 1)" stroke="currentColor" stroke-width="1" fill="none" fill-rule="evenodd" stroke-linecap="round" stroke-linejoin="round"><path d="M7.42857143,14.8571429 C12.1828571,14.8571429 14.8571429,12.1828571 14.8571429,7.42857143 C14.8571429,2.67428571 12.1828571,0 7.42857143,0 C2.67428571,0 0,2.67428571 0,7.42857143 C0,12.1828571 2.67428571,14.8571429 7.42857143,14.8571429 Z"/><path d="M11.9658286,13.2291429 L11.9644571,13.6996571 M11.9644571,13.6996571 C13.8469714,12.4870857 14.8572571,10.35072 14.8572571,7.42860571 C14.8572571,7.40297143 14.8571429,7.37740571 14.8570286,7.35189714 L14.7916571,7.31494857 C13.4819429,6.63570286 10.2751543,6.30976 9.14206857,7.44284571 C8.77026286,7.81465143 8.56138286,8.31893714 8.56138286,8.84475429 C8.56138286,9.37057143 8.77026286,9.87485714 9.14206857,10.2466629 C9.51388571,10.6184686 10.01816,10.8273486 10.5439771,10.8273486 C10.9195429,10.8273486 11.2797714,10.9765714 11.5453714,11.2421714 C11.8109714,11.5076571 11.9601143,11.8678857 11.9601143,12.2435429 L11.9601143,13.7025143 L11.9644571,13.6996571 L11.9644571,13.6996571 Z"/><path d="M4.01550857,9.68017143 C4.38731429,9.30835429 4.59619429,8.80408 4.59619429,8.27826286 L4.59619429,6.57889143 C4.59619429,6.05307429 4.80507429,5.54878857 5.17689143,5.17698286 C5.54869714,4.80517714 6.05298286,4.59629714 6.5788,4.59629714 C7.10461714,4.59629714 7.60889143,4.38741714 7.98070857,4.0156 C8.93814857,3.05816 8.78428571,1.39285714 8.56139429,0.0541668571 C8.19813714,0.0181668571 7.82042286,0 7.42857143,0 C2.67428571,0 0,2.67428571 0,7.42857143 C0,8.47568 0.129724571,9.42188571 0.382822857,10.2608571 C1.67142857,10.8828571 3.11486857,10.5808114 4.01550857,9.68017143 Z"/></g></svg>