<svg xmlns="http://www.w3.org/2000/svg" fill="none" viewBox="0 0 14 14"><g stroke="currentColor" stroke-linecap="round" stroke-linejoin="round"><path d="M3.757 12.5h6.486c.686 0 1.27-.474 1.374-1.116.166-1.02.204-2.055.115-3.082h1.255c.404 0 .649-.422.432-.745l-.217-.323a19.9 19.9 0 0 0-4.905-5.05l-.677-.486a1.07 1.07 0 0 0-1.24 0l-.677.486a19.9 19.9 0 0 0-4.905 5.05l-.217.323c-.217.323.028.745.432.745h1.255c-.09 1.027-.05 2.062.115 3.082.105.642.688 1.116 1.374 1.116"/><path d="M7 7.792c.92 0 1.667.747 1.667 1.668v3.04H5.332V9.46c0-.92.747-1.668 1.668-1.668"/></g></svg>