<svg xmlns="http://www.w3.org/2000/svg" fill="none" viewBox="0 0 14 14"><g stroke="currentColor" stroke-linecap="round" stroke-linejoin="round"><path d="M8.548 8.257s-.393.774-1.548.774-1.548-.774-1.548-.774"/><path d="M7 11c2.56 0 4-1.44 4-4S9.56 3 7 3 3 4.44 3 7s1.44 4 4 4M5.194 5.74v.446M8.806 5.74v.446M10.1.75q.6.066 1.188.135A2.09 2.09 0 0 1 13.12 2.72l.004.028q.064.572.126 1.154M10.1 13.25q.6-.066 1.188-.135a2.09 2.09 0 0 0 1.832-1.836l.004-.028q.064-.572.126-1.154M3.9.75q-.6.066-1.188.135A2.09 2.09 0 0 0 .879 2.72l-.003.028Q.811 3.321.75 3.903M3.9 13.25q-.6-.066-1.188-.135A2.09 2.09 0 0 1 .879 11.28l-.003-.028q-.065-.572-.126-1.154"/></g></svg>