<svg xmlns="http://www.w3.org/2000/svg" fill="none" viewBox="0 0 14 14"><g clip-path="url(#a)"><path stroke="currentColor" stroke-linecap="round" stroke-linejoin="round" d="M0.96 10.268c0.07941 0.7035 0.39481 1.3593 0.89476 1.8605 0.49996 0.5012 1.15497 0.8183 1.85824 0.8995 1.07 0.12 2.167 0.222 3.287 0.222s2.218 -0.102 3.287 -0.222c0.7033 -0.0812 1.3583 -0.3983 1.8582 -0.8995 0.5 -0.5012 0.8154 -1.157 0.8948 -1.8605 0.114 -1.063 0.21 -2.155 0.21 -3.268s-0.096 -2.205 -0.21 -3.269c-0.0794 -0.70347 -0.3948 -1.35929 -0.8948 -1.86051 -0.4999 -0.50123 -1.1549 -0.81829 -1.8582 -0.89949C9.217 0.853 8.12 0.75 7 0.75S4.782 0.852 3.713 0.972c-0.70327 0.0812 -1.35828 0.39826 -1.85824 0.89949C1.35481 2.37271 1.03941 3.02853 0.96 3.732 0.846 4.794 0.75 5.886 0.75 7c0 1.114 0.096 2.205 0.21 3.268Z" stroke-width="1"/><path stroke="currentColor" stroke-linecap="round" stroke-linejoin="round" d="M6.99863 4.36347c-0.27631 0 -0.43174 -0.15542 -0.43174 -0.43173 0 -0.27632 0.15543 -0.43174 0.43174 -0.43174" stroke-width="1"/><path stroke="currentColor" stroke-linecap="round" stroke-linejoin="round" d="M7.00137 4.36347c0.27631 0 0.43174 -0.15542 0.43174 -0.43173 0 -0.27632 -0.15543 -0.43174 -0.43174 -0.43174" stroke-width="1"/><path stroke="currentColor" stroke-linecap="round" stroke-linejoin="round" d="M5.27295 10.5c1.16361 -0.1619 2.29027 -0.1619 3.45388 0" stroke-width="1"/><path stroke="currentColor" stroke-linecap="round" stroke-linejoin="round" d="M6.99971 10.3718V6.47046c-0.56521 0.18592 -1.08977 0.18592 -1.65498 0" stroke-width="1"/></g><defs><clipPath id="a"><path fill="currentColor" d="M0 0h14v14H0z" stroke-width="1"/></clipPath></defs></svg>