<svg xmlns="http://www.w3.org/2000/svg" fill="none" viewBox="0 0 14 14"><path stroke="currentColor" stroke-linecap="round" stroke-linejoin="round" d="M7.01569 9.50379c1.64598 0.85541 3.37441 0.49482 4.95091 -1.08164 2.0439 -2.04392 2.0439 -4.34333 0 -6.38726 -2.04394 -2.04391736 -4.34335 -2.04391736 -6.38727 0C4.00272 3.6115 3.64225 5.34013 4.49792 6.98625c-0.36085 0.33852 -0.72309 0.68584 -1.0821 1.04486 -0.73946 0.73945 -1.42933 1.49259 -2.09481 2.21909 -0.27713 0.3026 -0.550031 0.6005 -0.820522 0.8909v2.3602H2.86075c0.2904 -0.2705 0.58832 -0.5434 0.89087 -0.8205 0.72651 -0.6655 1.47965 -1.3553 2.2191 -2.0948 0.35905 -0.359 0.70641 -0.72132 1.04497 -1.08221Z" stroke-width="1"/><path stroke="currentColor" stroke-linecap="round" stroke-linejoin="round" d="M9.11278 4.88916c0.4225 0.42251 0.89782 0.42251 1.32032 0 0.4225 -0.4225 0.4225 -0.89782 0 -1.32033 -0.4225 -0.4225 -0.89782 -0.4225 -1.32032 0 -0.42251 0.42251 -0.42251 0.89783 0 1.32033Z" stroke-width="1"/></svg>