<svg xmlns="http://www.w3.org/2000/svg" fill="none" viewBox="0 0 14 14"><g stroke="currentColor" stroke-linecap="round" stroke-linejoin="round"><path d="M3.238.75h7.526M4.556 5C3.099 6.172 1.967 7.6 1.095 9.14c-1.002 1.769.301 3.83 2.337 3.979 2.4.175 4.737.175 7.136 0 2.036-.149 3.339-2.21 2.337-3.979C12.034 7.6 10.9 6.171 9.442 5a104 104 0 0 0-.064-3.203A1.09 1.09 0 0 0 8.283.75H5.715A1.09 1.09 0 0 0 4.62 1.796C4.582 2.871 4.56 3.936 4.556 5"/><path d="M12.621 8.657H1.38q-.147.24-.284.483c-1.002 1.769.301 3.83 2.337 3.979 2.4.175 4.737.175 7.136 0 2.036-.149 3.339-2.21 2.338-3.979a16 16 0 0 0-.285-.483"/></g></svg>