<svg xmlns="http://www.w3.org/2000/svg" fill="none" viewBox="0 0 14 14"><g stroke="currentColor" stroke-linecap="round" stroke-linejoin="round"><path d="M7 4.938v8.312M3.731.96a3.13 3.13 0 0 0-2.76 2.753C.853 4.783.75 5.88.75 7s.102 2.218.222 3.287a3.13 3.13 0 0 0 2.76 2.753c1.063.114 2.155.21 3.268.21s2.205-.096 3.269-.21a3.13 3.13 0 0 0 2.76-2.753c.119-1.07.221-2.167.221-3.287s-.102-2.218-.222-3.287A3.13 3.13 0 0 0 10.268.96C9.205.846 8.114.75 7 .75S4.795.846 3.731.96M13.148 4.938H.854"/></g></svg>