<svg xmlns="http://www.w3.org/2000/svg" fill="none" viewBox="0 0 14 14"><g stroke="currentColor" stroke-linecap="round" stroke-linejoin="round"><path d="M10.854 7.252a1.86 1.86 0 0 0 1.27 1.204 1.86 1.86 0 0 0 1.204-1.27M3.14 6.768a1.86 1.86 0 0 0-1.267-1.201 1.86 1.86 0 0 0-1.2 1.267"/><path d="M3.175 3.05C4.066 2.195 5.358 1.744 7 1.744c3.363 0 5.255 1.892 5.255 5.255q0 .776-.133 1.446M1.872 5.581A7.5 7.5 0 0 0 1.746 7c0 3.363 1.892 5.255 5.255 5.255 1.686 0 3.003-.476 3.896-1.374"/></g></svg>