<svg xmlns="http://www.w3.org/2000/svg" fill="none" viewBox="0 0 14 14"><g stroke="currentColor" stroke-linecap="round" stroke-linejoin="round"><path d="M11.99 4.877a22 22 0 0 0-.194-2.07c-.075-.548-.367-1.058-.828-1.447A3.1 3.1 0 0 0 9.257.664C8.28.574 7.275.5 6.25.5S4.221.575 3.243.664a3.1 3.1 0 0 0-1.711.696c-.461.39-.753.9-.828 1.447C.594 3.64.5 4.494.5 5.367c0 .871.094 1.726.204 2.559.075.547.367 1.057.828 1.447.46.389 1.064.634 1.711.696.978.089 1.983.164 3.007.164l.218-.001"/><path d="M1.025 1.961C2.232 3.127 3.49 4.208 4.87 5.16a2.43 2.43 0 0 0 2.76 0c1.381-.952 2.638-2.033 3.845-3.2M13.362 12.36c.138-.882.138-1.316.138-2.132 0-2.083-.608-3.254-2.53-3.254s-2.376 1.171-2.376 3.254c0 2.082.127 3.448 1.925 3.253.831-.09.926-.885.926-2.458v-.795"/></g></svg>