<svg xmlns="http://www.w3.org/2000/svg" fill="none" viewBox="0 0 14 14"><g stroke="currentColor" stroke-linecap="round" stroke-linejoin="round"><path d="M3.013 6.423A18 18 0 0 1 3 5.75c0-.935.08-1.852.176-2.746A2.63 2.63 0 0 1 5.49.686C6.387.586 7.309.5 8.25.5c.94 0 1.863.086 2.761.186a2.63 2.63 0 0 1 2.313 2.318c.095.894.176 1.811.176 2.746s-.08 1.852-.176 2.746a2.63 2.63 0 0 1-2.313 2.318c-.898.1-1.82.186-2.761.186q-.308 0-.612-.011M.584 12.307c.062.577.525 1.04 1.101 1.104.428.048.867.089 1.315.089s.887-.041 1.315-.089a1.25 1.25 0 0 0 1.101-1.104c.046-.425.084-.862.084-1.307s-.038-.882-.084-1.307a1.25 1.25 0 0 0-1.101-1.104A12 12 0 0 0 3 8.5c-.448 0-.887.041-1.315.089A1.25 1.25 0 0 0 .584 9.693 12 12 0 0 0 .5 11c0 .445.038.882.084 1.307M7.094 6.824l3.282-3.282"/><path d="M7.627 3.549c.827-.276 1.93-.276 2.757 0 .275.827.275 1.93 0 2.756"/></g></svg>