<svg xmlns="http://www.w3.org/2000/svg" fill="none" viewBox="0 0 14 14"><path stroke="currentColor" stroke-linecap="round" stroke-linejoin="round" d="M9.80673 12.8557c0.24477 -0.0242 0.48817 -0.0503 0.73007 -0.0773 1.4399 -0.1605 2.5987 -1.3192 2.7528 -2.7599 0.1138 -1.06348 0.2099 -2.15535 0.2099 -3.2685 0 -1.11316 -0.0961 -2.20502 -0.2099 -3.26853 -0.1541 -1.44065 -1.3129 -2.599358 -2.7528 -2.759861C9.46725 0.602392 8.36908 0.5 7.24945 0.5S5.03166 0.602392 3.96211 0.721609C2.52215 0.882112 1.36345 2.04082 1.20932 3.48147c-0.02501 0.23373 -0.04916 0.46882 -0.07162 0.70521" stroke-width="1"/><path stroke="currentColor" stroke-linecap="round" stroke-linejoin="round" d="M0.60552 12.001c0.077497 0.7243 0.66009 1.3069 1.38409 1.3876 0.53776 0.0599 1.08991 0.1114 1.65286 0.1114 0.56294 0 1.11509 -0.0515 1.65286 -0.1114 0.724 -0.0807 1.30659 -0.6633 1.38408 -1.3876 0.05721 -0.5348 0.10552 -1.0838 0.10552 -1.6434 0 -0.55973 -0.04831 -1.10872 -0.10552 -1.64344 -0.07749 -0.72435 -0.66008 -1.30695 -1.38408 -1.38765 -0.53777 -0.05994 -1.08992 -0.11142 -1.65286 -0.11142 -0.56295 0 -1.1151 0.05148 -1.65286 0.11142 -0.724 0.0807 -1.306593 0.66329 -1.38409 1.38765C0.54831 9.24888 0.5 9.79787 0.5 10.3576c0 0.5596 0.04831 1.1086 0.10552 1.6434Z" stroke-width="1"/><path stroke="currentColor" stroke-linecap="round" stroke-linejoin="round" d="M10.75 3.09191 7.99999 5.84192" stroke-width="1"/><path stroke="currentColor" stroke-linecap="round" stroke-linejoin="round" d="M10.3877 5.95025c-0.75368 0.25123 -1.75857 0.25123 -2.51222 0.00002 -0.25125 -0.75369 -0.25125 -1.75859 -0.00002 -2.51226" stroke-width="1"/></svg>