<svg xmlns="http://www.w3.org/2000/svg" fill="none" viewBox="0 0 14 14"><g stroke="currentColor" stroke-linecap="round" stroke-linejoin="round"><path d="M13.04 10.269a3.13 3.13 0 0 1-2.753 2.76c-1.07.119-2.167.221-3.287.221s-2.218-.102-3.287-.222a3.13 3.13 0 0 1-2.753-2.76C.846 9.205.75 8.114.75 7s.096-2.205.21-3.269A3.13 3.13 0 0 1 3.713.971C4.783.853 5.88.75 7 .75s2.218.102 3.287.222a3.13 3.13 0 0 1 2.753 2.76c.114 1.063.21 2.155.21 3.268s-.096 2.205-.21 3.269"/><path d="M10.73 9.397a.95.95 0 0 1-.905.885 12 12 0 0 1-1.575-.057V8.892q.001-.255.02-.505a.95.95 0 0 1 .905-.886q.325-.01.65 0a.95.95 0 0 1 .904.886q.02.25.021.505-.001.257-.02.506"/><path d="M8.251 10.189a7.9 7.9 0 0 1-2.5 0V8.066c0-.45.023-.89.048-1.318.028-.47.377-.87.847-.895q.354-.02.71 0c.469.026.818.425.846.895.026.427.049.868.049 1.318zM5.75 10.14a5 5 0 0 1-1.66.127c-.445-.041-.755-.435-.774-.883C3.285 8.617 3.25 7.82 3.25 7c0-.82.035-1.617.066-2.385.018-.447.329-.843.774-.884.275-.026.545-.026.82 0 .445.041.755.437.774.884.031.768.066 1.566.066 2.385z"/></g></svg>