<svg xmlns="http://www.w3.org/2000/svg" fill="none" viewBox="0 0 14 14"><g stroke="currentColor" stroke-linecap="round" stroke-linejoin="round"><path d="M1.063 10.01c.114.488.537.858 1.037.858h9.8c.5 0 .923-.37 1.04-.857.152-.622.31-1.19.31-3.011 0-1.82-.158-2.389-.31-3.011-.117-.486-.54-.857-1.04-.857H2.1c-.5 0-.923.37-1.037.858C.911 4.64.75 5.235.75 7s.161 2.359.313 3.01M2.93 6.99l.609-.007M10.461 6.99l.609-.007"/><path d="M8.197 5.695s-.45-.501-1.18-.438c-.73.062-1.081.51-1.081.96 0 1.311 2.26.402 2.26 1.747 0 .693-1.499 1.182-2.393.367m1.304-3.737v.657m0 3.498v.657"/></g></svg>