<svg xmlns="http://www.w3.org/2000/svg" fill="none" viewBox="0 0 14 14"><path stroke="currentColor" stroke-linecap="round" stroke-linejoin="round" d="M10.6587 13.3171c-2.45361 -0.2679 -4.85584 -0.2679 -7.30944 0" stroke-width="1"/><path stroke="currentColor" stroke-linecap="round" stroke-linejoin="round" d="M13.0423 8.53497c-0.1355 0.95347 -0.9071 1.69513 -1.8479 1.78003 -2.82718 0.2551 -5.56143 0.2551 -8.38858 0 -0.94082 -0.0849 -1.71244 -0.82656 -1.847919 -1.78003C0.6807 6.5841 0.6807 4.73936 0.957901 2.78849c0.135479 -0.95347 0.907099 -1.69509 1.847929 -1.78 2.82714 -0.255137 5.56139 -0.255136 8.38857 0 0.9408 0.08491 1.7124 0.82653 1.8479 1.78 0.2772 1.95087 0.2772 3.79561 0 5.74648Z" stroke-width="1"/><path stroke="currentColor" stroke-linecap="round" stroke-linejoin="round" d="M8.53448 10.4806c-1.02401 0.0344 -2.04341 0.0344 -3.06744 -0.0001l-0.47876 2.697c1.34447 -0.0817 2.6803 -0.0818 4.02474 -0.0004l-0.47854 -2.6965Z" stroke-width="1"/></svg>