<svg xmlns="http://www.w3.org/2000/svg" fill="none" viewBox="0 0 14 14"><path stroke="currentColor" stroke-linecap="round" stroke-linejoin="round" d="M0.5 8.5c0 3.2 1.8 5 5 5 2.60701 0 4.28482 -1.1947 4.8171 -3.3678 -0.52794 0.2424 -1.16194 0.3678 -1.89352 0.3678 -2.4 0 -3.75 -1.35 -3.75 -3.75 0 -1.51793 0.54003 -2.61584 1.54418 -3.21783C5.98702 3.51079 5.7477 3.5 5.5 3.5c-3.2 0 -5 1.8 -5 5Z" stroke-width="1"/><path stroke="currentColor" stroke-linecap="round" stroke-linejoin="round" d="m12.5593 5.60156 0 -1.88149" stroke-width="1"/><path stroke="currentColor" stroke-linecap="round" stroke-linejoin="round" d="m13.5 4.66138 -1.8815 0" stroke-width="1"/><path stroke="currentColor" stroke-linecap="round" stroke-linejoin="round" d="m9.76367 2.38147 0 -1.881488" stroke-width="1"/><path stroke="currentColor" stroke-linecap="round" stroke-linejoin="round" d="m10.7041 1.44104 -1.88149 0" stroke-width="1"/></svg>