<svg xmlns="http://www.w3.org/2000/svg" fill="none" viewBox="0 0 14 14"><path stroke="currentColor" stroke-linecap="round" stroke-linejoin="round" d="M11.6875 4.125c1.16 0 1.8125 -0.6525 1.8125 -1.8125C13.5 1.1525 12.8475 0.5 11.6875 0.5c-1.16 0 -1.8125 0.6525 -1.8125 1.8125 0 1.16 0.6525 1.8125 1.8125 1.8125Z" stroke-width="1"/><path stroke="currentColor" stroke-linecap="round" stroke-linejoin="round" d="M2.3125 13.5c1.16 0 1.8125 -0.6525 1.8125 -1.8125 0 -1.16 -0.6525 -1.8125 -1.8125 -1.8125 -1.16 0 -1.8125 0.6525 -1.8125 1.8125 0 1.16 0.6525 1.8125 1.8125 1.8125Z" stroke-width="1"/><path stroke="currentColor" stroke-linecap="round" stroke-linejoin="round" d="M11.6405 5.96663c0.0146 1.61707 -0.0248 3.21359 -0.1325 5.03567 -0.0582 0.9857 -0.5876 1.9508 -1.53089 2.2425 -0.55681 0.1722 -1.05497 0.1887 -1.58121 0.0431 -0.9678 -0.2677 -1.43424 -1.3153 -1.43424 -2.3194l0 -7.79752c0 -1.22481 -0.72995 -2.457174 -1.95151 -2.546229 -0.22764 -0.016595 -0.45095 -0.013469 -0.67711 0.009114C3.18424 0.74858 2.47551 1.87712 2.42342 3.03046c-0.08406 1.86107 -0.11892 3.51874 -0.10303 5.22051" stroke-width="1"/><path stroke="currentColor" stroke-linecap="round" stroke-linejoin="round" d="M13.3672 7.6123c-0.2873 -0.86185 -0.8619 -1.43642 -1.7237 -1.72371 -0.8619 0.28729 -1.4365 0.86186 -1.72374 1.72371" stroke-width="1"/></svg>