<svg xmlns="http://www.w3.org/2000/svg" fill="none" viewBox="0 0 14 14"><path stroke="currentColor" stroke-linecap="round" stroke-linejoin="round" d="M7.20029 0.56136C5.71628 0.46927 4.30151 0.480837 2.8001 0.596062 1.65082 0.684263 0.760638 1.68456 0.663671 2.90636c-0.218228 2.7497 -0.218228 5.43758 0 8.18724 0.096967 1.2218 0.987149 2.2221 2.136439 2.3103 1.66894 0.1281 3.23084 0.1281 4.89978 0 1.14929 -0.0882 2.03947 -1.0885 2.13644 -2.3103 0.06359 -0.8012 0.10865 -1.59713 0.13518 -2.39091" stroke-width="1"/><path stroke="currentColor" stroke-linecap="round" stroke-linejoin="round" d="M4.34863 10.9751h1.80333" stroke-width="1"/><path stroke="currentColor" stroke-linecap="round" stroke-linejoin="round" d="M12.3914 2.89771v-0.80628c0 -0.20899 -0.0412 -0.41593 -0.1212 -0.60901 -0.08 -0.19308 -0.1972 -0.36852 -0.345 -0.516301 -0.1477 -0.147778 -0.3232 -0.265002 -0.5163 -0.344979 -0.193 -0.079977 -0.4 -0.12114 -0.609 -0.12114 -0.209 0 -0.4159 0.041163 -0.609 0.12114 -0.19307 0.079977 -0.36851 0.197201 -0.51628 0.344979 -0.14778 0.147781 -0.26501 0.323221 -0.34498 0.516301 -0.07998 0.19308 -0.12114 0.40002 -0.12114 0.60901v0.80628" stroke-width="1"/><path stroke="currentColor" stroke-linecap="round" stroke-linejoin="round" d="M8.24328 5.94786c0.03867 0.23582 0.23402 0.41709 0.47231 0.43511 0.66751 0.05047 1.36561 0.11701 2.08421 0.11701 0.7185 0 1.4166 -0.06654 2.0842 -0.11701 0.2382 -0.01802 0.4336 -0.19929 0.4723 -0.43511 0.068 -0.41461 0.1436 -0.84577 0.1436 -1.28835 0 -0.44259 -0.0756 -0.87375 -0.1436 -1.28836 -0.0387 -0.23582 -0.2341 -0.41709 -0.4723 -0.4351 -0.6676 -0.05048 -1.3657 -0.11702 -2.0842 -0.11702 -0.7186 0 -1.4167 0.06654 -2.08421 0.11702 -0.23829 0.01801 -0.43364 0.19928 -0.47231 0.4351 -0.068 0.41461 -0.14367 0.84577 -0.14367 1.28836 0 0.44258 0.07567 0.87374 0.14367 1.28835Z" stroke-width="1"/></svg>