<svg xmlns="http://www.w3.org/2000/svg" fill="none" viewBox="0 0 14 14"><path stroke="currentColor" stroke-linecap="round" stroke-linejoin="round" d="M0.959867 10.2685C1.114 11.7092 2.2727 12.8679 3.71266 13.0284 4.78221 13.1476 5.88037 13.25 7 13.25s2.21779 -0.1024 3.2873 -0.2216c1.44 -0.1605 2.5987 -1.3192 2.7528 -2.7599 0.1138 -1.06348 0.2099 -2.15535 0.2099 -3.2685 0 -1.11316 -0.0961 -2.20502 -0.2099 -3.26853 -0.1541 -1.44065 -1.3128 -2.59936 -2.7528 -2.759861C9.21779 0.852392 8.11963 0.75 7 0.75S4.78221 0.852392 3.71266 0.971609C2.2727 1.13211 1.114 2.29082 0.959867 3.73147 0.846083 4.79498 0.75 5.88684 0.75 7c0 1.11315 0.096084 2.20502 0.209867 3.2685Z" stroke-width="1"/><path stroke="currentColor" stroke-linecap="round" stroke-linejoin="round" d="M4.10498 6.34863c0.94053 0 1.84253 0.37362 2.50758 1.03868 0.66505 0.66505 1.03868 1.56705 1.03868 2.50758" stroke-width="1"/><path stroke="currentColor" stroke-linecap="round" stroke-linejoin="round" d="M4.10498 9.0083c0.23513 0 0.46063 0.09341 0.6269 0.25967 0.16626 0.16626 0.25966 0.39176 0.25966 0.62689" stroke-width="1"/><path stroke="currentColor" stroke-linecap="round" stroke-linejoin="round" d="M10.3109 9.89491c0 -3.42745 -2.77847 -6.20595 -6.20592 -6.20595" stroke-width="1"/></svg>