<svg xmlns="http://www.w3.org/2000/svg" fill="none" viewBox="0 0 14 14"><path stroke="currentColor" stroke-linecap="round" stroke-linejoin="round" d="M1.85476 12.1285c-0.49995 -0.5012 -0.81535 -1.157 -0.89476 -1.8605C0.846 9.205 0.75 8.114 0.75 7c0 -0.73026 0.041253 -1.45107 0.101787 -2.16017 0.040381 -0.47302 0.256993 -0.91265 0.599543 -1.24133l2.3023 -2.20905c0.32116 -0.30816 0.73576 -0.50243 1.1792 -0.54089C5.6122 0.789636 6.30183 0.75 7 0.75c1.12 0 2.217 0.103 3.287 0.221 0.7033 0.0812 1.3583 0.39826 1.8582 0.89949 0.5 0.50122 0.8154 1.15704 0.8948 1.86051 0.114 1.064 0.21 2.156 0.21 3.269s-0.096 2.205 -0.21 3.268c-0.0794 0.7035 -0.3948 1.3593 -0.8948 1.8605 -0.4999 0.5012 -1.1549 0.8183 -1.8582 0.8995 -1.069 0.12 -2.167 0.222 -3.287 0.222s-2.217 -0.102 -3.287 -0.222c-0.70327 -0.0812 -1.35828 -0.3983 -1.85824 -0.8995Z" stroke-width="1"/><path stroke="currentColor" stroke-linecap="round" stroke-linejoin="round" d="M10.0954 0.950077C9.08613 0.841087 8.05324 0.75 7 0.75c-0.60399 0 -1.20157 0.029663 -1.79167 0.075816 -0.1181 1.054594 -0.14103 2.091844 0.01332 3.162014 0.05892 0.40849 0.37539 0.72709 0.78391 0.78587 1.10128 0.15847 2.16671 0.16021 3.26821 0.00335 0.41751 -0.05945 0.73823 -0.38999 0.79533 -0.80783 0.1409 -1.03011 0.1265 -2.01252 0.0263 -3.019143Z" stroke-width="1"/><path stroke="currentColor" stroke-linecap="round" stroke-linejoin="round" d="M9.91915 13.0683C8.9666 13.17 7.99193 13.25 7 13.25c-0.98923 0 -1.96053 -0.0796 -2.91112 -0.1808 -0.15205 -1.3696 -0.17801 -2.687 0.01756 -4.08405 0.05847 -0.41765 0.37845 -0.74749 0.79557 -0.80959 1.42185 -0.21167 2.79285 -0.20984 4.21445 0.00364 0.40815 0.06129 0.72424 0.3797 0.78533 0.78788 0.20811 1.39062 0.17871 2.72992 0.01736 4.10122Z" stroke-width="1"/></svg>