<svg xmlns="http://www.w3.org/2000/svg" fill="none" viewBox="0 0 14 14"><g stroke="currentColor" stroke-linecap="round" stroke-linejoin="round"><path d="M1.612 10.852a2.97 2.97 0 0 0 2.824 2.602c.818.03 1.656.046 2.564.046s1.746-.016 2.564-.046a2.97 2.97 0 0 0 2.824-2.602c.066-.553.113-1.115.113-1.685s-.047-1.133-.113-1.685a2.97 2.97 0 0 0-2.824-2.603C8.746 4.85 7.908 4.833 7 4.833s-1.746.016-2.564.046a2.97 2.97 0 0 0-2.824 2.603A14 14 0 0 0 1.5 9.167c0 .57.047 1.132.113 1.685M10.034 4.833v-1.3a3.033 3.033 0 1 0-6.067 0v1.3M7 8.56V9.6"/></g></svg>