<svg xmlns="http://www.w3.org/2000/svg" fill="none" viewBox="0 0 14 14"><g stroke="currentColor" stroke-linecap="round" stroke-linejoin="round"><path d="M7 5.25c-1.632 0-3.34 0-4.76.262a1.65 1.65 0 0 0-1.275 1.19C.75 7.476.75 7.948.75 9.25s0 1.774.215 2.548a1.65 1.65 0 0 0 1.276 1.19c1.419.262 3.127.262 4.759.262s3.34 0 4.76-.262a1.65 1.65 0 0 0 1.275-1.19c.215-.774.215-1.246.215-2.548s0-1.774-.215-2.548a1.65 1.65 0 0 0-1.276-1.19C10.34 5.25 8.632 5.25 7 5.25"/><path d="M3.5 5.352 7 .75l3.5 4.602"/></g></svg>