<svg xmlns="http://www.w3.org/2000/svg" fill="none" viewBox="0 0 14 14"><path stroke="currentColor" stroke-linecap="round" stroke-linejoin="round" d="m0.5 0.5 3.96832 3.96832" stroke-width="1"/><path stroke="currentColor" stroke-linecap="round" stroke-linejoin="round" d="M4.55679 2.08161c0.17211 0.76858 0.15089 1.67144 -0.07025 2.38231 -0.70134 0.24959 -1.6026 0.3072 -2.37749 0.16622" stroke-width="1"/><path stroke="currentColor" stroke-linecap="round" stroke-linejoin="round" d="M6.99992 8.4941c0.9562 0 1.49406 -0.53786 1.49406 -1.49406 0 -0.9562 -0.53786 -1.49406 -1.49406 -1.49406 -0.9562 0 -1.49406 0.53786 -1.49406 1.49406 0 0.9562 0.53786 1.49406 1.49406 1.49406Z" stroke-width="1"/><path stroke="currentColor" stroke-linecap="round" stroke-linejoin="round" d="M13.5 0.5 9.53168 4.46832" stroke-width="1"/><path stroke="currentColor" stroke-linecap="round" stroke-linejoin="round" d="M9.44321 2.08161c-0.17211 0.76858 -0.15089 1.67144 0.07025 2.38231 0.70134 0.24959 1.60264 0.3072 2.37744 0.16622" stroke-width="1"/><path stroke="currentColor" stroke-linecap="round" stroke-linejoin="round" d="m0.5 13.5 3.96832 -3.96832" stroke-width="1"/><path stroke="currentColor" stroke-linecap="round" stroke-linejoin="round" d="M4.55679 11.9184c0.17211 -0.7686 0.15089 -1.6714 -0.07025 -2.38232 -0.70134 -0.24959 -1.6026 -0.3072 -2.37749 -0.16622" stroke-width="1"/><path stroke="currentColor" stroke-linecap="round" stroke-linejoin="round" d="M13.5 13.5 9.53168 9.53168" stroke-width="1"/><path stroke="currentColor" stroke-linecap="round" stroke-linejoin="round" d="M9.44321 11.9184c-0.17211 -0.7686 -0.15089 -1.6714 0.07025 -2.38232 0.70134 -0.24959 1.60264 -0.3072 2.37744 -0.16622" stroke-width="1"/></svg>