<svg xmlns="http://www.w3.org/2000/svg" fill="none" viewBox="0 0 14 14"><g stroke="currentColor" stroke-linecap="round" stroke-linejoin="round"><path d="M3.731 13.04a3.13 3.13 0 0 1-2.76-2.753C.853 9.217.75 8.12.75 7s.102-2.218.222-3.287A3.13 3.13 0 0 1 3.732.96C4.794.846 5.886.75 7 .75s2.205.096 3.269.21a3.13 3.13 0 0 1 2.76 2.753c.119 1.07.221 2.167.221 3.287s-.102 2.218-.222 3.287a3.13 3.13 0 0 1-2.76 2.753c-1.063.114-2.155.21-3.268.21s-2.205-.096-3.269-.21"/><path d="M3.731 13.04a3.13 3.13 0 0 1-2.76-2.753C.853 9.217.75 8.12.75 7s.102-2.218.222-3.287A3.13 3.13 0 0 1 3.732.96C4.794.846 5.886.75 7 .75s2.205.096 3.269.21a3.13 3.13 0 0 1 2.76 2.753c.119 1.07.221 2.167.221 3.287s-.102 2.218-.222 3.287a3.13 3.13 0 0 1-2.76 2.753c-1.063.114-2.155.21-3.268.21s-2.205-.096-3.269-.21M4.938 13.068V1.125"/><path d="M7.146 6.483c.601-.908 1.457-1.517 2.372-1.916.387-.168.784.181.837.73a17.6 17.6 0 0 1 0 3.407c-.053.548-.45.897-.837.729-.915-.399-1.771-1.008-2.372-1.916a.99.99 0 0 1 0-1.034"/></g></svg>