<svg xmlns="http://www.w3.org/2000/svg" fill="none" viewBox="0 0 14 14"><path stroke="currentColor" stroke-linecap="round" d="M4.49219 10.3438h0.5" stroke-width="1"/><path stroke="currentColor" stroke-linecap="round" d="M6.75 10.3438h0.5" stroke-width="1"/><path stroke="currentColor" stroke-linecap="round" d="M9.00781 10.3438h0.5" stroke-width="1"/><path stroke="currentColor" stroke-linecap="round" stroke-linejoin="round" d="M0.927203 10.2878C1.08217 11.737 2.24714 12.9026 3.69488 13.064c2.22376 0.248 4.38648 0.248 6.61022 0 1.4478 -0.1614 2.6127 -1.327 2.7677 -2.7762 0.2363 -2.20944 0.2363 -4.36616 0 -6.57564 -0.155 -1.44916 -1.3199 -2.61471 -2.7677 -2.776165 -2.22374 -0.247993 -4.38646 -0.247993 -6.61022 0C2.24714 1.09745 1.08217 2.263 0.927203 3.71216c-0.236271 2.20948 -0.236271 4.3662 0 6.57564Z" stroke-width="1"/><path stroke="currentColor" stroke-linecap="round" stroke-linejoin="round" d="M3.87927 5.52173c-0.4101 0.20505 -0.82021 0.61516 -1.02527 1.02525 0.20506 0.41012 0.61517 0.82023 1.02527 1.02529" stroke-width="1"/><path stroke="currentColor" stroke-linecap="round" stroke-linejoin="round" d="M10.1207 5.52173c0.4101 0.20505 0.8202 0.61516 1.0253 1.02525 -0.2051 0.41012 -0.6152 0.82023 -1.0253 1.02529" stroke-width="1"/></svg>