<svg xmlns="http://www.w3.org/2000/svg" fill="none" viewBox="0 0 14 14"><g stroke="currentColor" stroke-linecap="round" stroke-linejoin="round"><path d="M7.224 13.058c4.016 0 6.276-2.26 6.276-6.277S11.24.505 7.224.505C3.207.505.947 2.765.947 6.78c0 1.226.21 2.289.618 3.173L.533 12.793a.523.523 0 0 0 .656.675l2.956-.986c.865.38 1.896.576 3.079.576"/><path d="M6.432 3.9c-.659-.601-1.6-.471-2.156.225v0a2.056 2.056 0 0 0 .004 2.56A20 20 0 0 0 5.7 8.3c.517.517 1.068.979 1.615 1.42.74.597 1.816.597 2.56.003v0c.696-.556.844-1.49.24-2.146l-.142-.152c-.382-.407-1.053-.457-1.46-.076l-.014.012c-.85-.505-1.365-1.026-1.86-1.86l.014-.017c.381-.408.33-1.076-.08-1.455z"/></g></svg>