<svg xmlns="http://www.w3.org/2000/svg" fill="none" viewBox="0 0 14 14"><path stroke="currentColor" stroke-linejoin="round" d="M7.7225 4.4015c0.3078 -1.2994 0.7962 -2.4025 1.5342 -3.4138C9.43 0.7501 9.6845 0.6308 9.9393 0.63c0 0 0.49 3.3146 0.49 5.4525 0 2.1379 -0.49 5.4524 -0.49 5.4524 -0.9585 0.8463 -1.9586 1.4229 -3.0977 1.7927 -0.5716 0.1855 -1.1358 -0.2613 -1.1297 -0.8864 0.0122 -1.2402 0.2145 -2.4218 0.6389 -3.631 -1.0943 -0.6904 -1.9407 -1.5094 -2.6262 -2.5513 -0.3308 -0.5028 -0.1047 -1.1819 0.4512 -1.3693 1.1427 -0.3852 2.2952 -0.5347 3.5467 -0.4881Z" stroke-width="1"/></svg>