<svg xmlns="http://www.w3.org/2000/svg" fill="none" viewBox="0 0 14 14"><path stroke="currentColor" stroke-linecap="round" stroke-linejoin="round" d="m3.5 7 2 0" stroke-width="1"/><path stroke="currentColor" stroke-linecap="round" stroke-linejoin="round" d="m8.5 7 2 0" stroke-width="1"/><path stroke="currentColor" stroke-linecap="round" stroke-linejoin="round" d="M2 8.5c0.96 0 1.5 -0.54 1.5 -1.5S2.96 5.5 2 5.5 0.5 6.04 0.5 7 1.04 8.5 2 8.5Z" stroke-width="1"/><path stroke="currentColor" stroke-linecap="round" stroke-linejoin="round" d="M7 8.5c0.96 0 1.5 -0.54 1.5 -1.5S7.96 5.5 7 5.5 5.5 6.04 5.5 7 6.04 8.5 7 8.5Z" stroke-width="1"/><path stroke="currentColor" stroke-linecap="round" stroke-linejoin="round" d="M12 8.5c0.96 0 1.5 -0.54 1.5 -1.5s-0.54 -1.5 -1.5 -1.5 -1.5 0.54 -1.5 1.5 0.54 1.5 1.5 1.5Z" stroke-width="1"/></svg>