<svg xmlns="http://www.w3.org/2000/svg" fill="none" viewBox="0 0 14 14"><g stroke="currentColor" stroke-linecap="round" stroke-linejoin="round"><path d="m.751 3.21.032-.138c.144-.61.602-1.104 1.214-1.24C3.483 1.5 5.282 1.5 7 1.5c1.719 0 3.517 0 5.004.332.612.136 1.07.63 1.214 1.24l.031.139m0 7.578q-.015.069-.032.139c-.143.61-.601 1.104-1.213 1.24-1.487.332-3.285.332-5.004.332s-3.517 0-5.003-.332c-.612-.136-1.07-.63-1.214-1.24l-.032-.139M9.647 5.469h-1.84V8.53h1.84M7.808 6.872h1.61M12.987 5.469h-1.84V8.53h1.84M11.147 6.872h1.61M1.013 8.531V5.47h1.84M1.013 6.872h1.61M4.353 8.531V7.255m0 0V5.47h.946c.493 0 .893.4.893.893v0c0 .493-.4.893-.893.893zM5.502 7.255l.805 1.276"/></g></svg>