<svg xmlns="http://www.w3.org/2000/svg" fill="none" viewBox="0 0 14 14"><g stroke="currentColor" stroke-linecap="round" stroke-linejoin="round"><path d="M.751 3.21q.014-.068.032-.138c.143-.61.601-1.104 1.213-1.24C3.483 1.5 5.281 1.5 7 1.5s3.517 0 5.004.332c.611.136 1.07.63 1.213 1.24l.032.139m0 7.578-.032.139c-.144.61-.602 1.104-1.214 1.24-1.486.332-3.285.332-5.003.332-1.719 0-3.517 0-5.004-.332-.612-.136-1.07-.63-1.213-1.24l-.032-.139M7.66 5.469H5.82V8.53h1.84M5.82 6.872h1.61M2.028 8.531V5.47L4.07 8.53V5.47M8.91 5.469l.487 2.926a.164.164 0 0 0 .161.136v0c.07 0 .132-.044.155-.11l.643-1.871a.09.09 0 0 1 .084-.06v0a.09.09 0 0 1 .085.06l.643 1.87c.023.067.085.111.155.111v0c.08 0 .148-.058.161-.136l.488-2.926"/></g></svg>