<svg xmlns="http://www.w3.org/2000/svg" fill="none" viewBox="0 0 14 14"><g stroke="currentColor" stroke-linecap="round" stroke-linejoin="round"><path d="M13.488 7.006c0 4.156-2.338 6.494-6.494 6.494S.5 11.162.5 7.006C.5 2.849 2.838.51 6.994.51"/><path d="M5.955 3.737c-1.508.342-2.338 1.482-2.338 3.268 0 2.162 1.216 3.377 3.377 3.377 1.874 0 3.037-.913 3.313-2.565M6.994 7.005l2.25-2.25M9.244 4.756l-.165-.533a2 2 0 0 1 .497-2.003L11.296.5l.52 1.685 1.684.52-1.72 1.719a2 2 0 0 1-2.003.497z"/></g></svg>