<svg xmlns="http://www.w3.org/2000/svg" fill="none" viewBox="0 0 14 14"><g stroke="currentColor" stroke-linecap="round" stroke-linejoin="round"><path d="M7 5.165a1.554 1.554 0 1 1 0 3.11 1.554 1.554 0 0 1 0-3.11"/><path d="M2.189 10.992c2.21 2.596 7.412 2.596 9.622 0 2.036-2.39 1.881-7.07-.569-9.117-2.195-1.833-6.29-1.833-8.484 0-2.45 2.047-2.605 6.726-.57 9.117"/><path d="M3.944 9.434c1.404 1.649 4.708 1.649 6.112 0 1.293-1.519 1.195-4.49-.362-5.79-1.394-1.165-3.994-1.165-5.388 0-1.557 1.3-1.655 4.271-.362 5.79M2.981 11.74c-.527.592-.795 1.044-1.19 1.76M11.026 11.72c.528.592.773 1.048 1.168 1.764"/></g></svg>