<svg xmlns="http://www.w3.org/2000/svg" fill="none" viewBox="0 0 14 14"><path stroke="currentColor" stroke-linecap="round" stroke-linejoin="round" d="M7.91526 10.4853c0.22179 -0.2345 0.47845 -0.4351 0.76204 -0.59445 0.4816 -0.27054 1.02471 -0.41264 1.5771 -0.41264 0.5524 0 1.0955 0.1421 1.5771 0.41264 0.2083 0.11705 0.4494 0.30235 0.6255 0.46095l0.2461 0.242" stroke-width="1"/><path stroke="currentColor" stroke-linecap="round" stroke-linejoin="round" d="M8.77734 13.1487c-0.09951 -1.1918 -0.39084 -1.9427 -0.55365 -2.2185 -0.34662 -0.5894 -0.83378 -1.07647 -1.41463 -1.41445 -0.58086 -0.33798 -1.23588 -0.51551 -1.90211 -0.51551 -0.66623 0 -1.32126 0.17753 -1.90211 0.51551 -0.46382 0.26988 -0.86789 0.63485 -1.18837 1.07095l-0.2735 0.3979" stroke-width="1"/><path stroke="currentColor" stroke-linecap="round" stroke-linejoin="round" d="M7 13.5c4.16 0 6.5 -2.34 6.5 -6.5S11.16 0.5 7 0.5 0.5 2.84 0.5 7s2.34 6.5 6.5 6.5Z" stroke-width="1"/><path stroke="currentColor" stroke-linecap="round" stroke-linejoin="round" d="M5.04547 7.48358c1.27692 0 1.99518 -0.71826 1.99518 -1.99518 0 -1.27691 -0.71826 -1.99517 -1.99518 -1.99517 -1.27691 0 -1.99518 0.71826 -1.99518 1.99517 0 1.27692 0.71827 1.99518 1.99518 1.99518Z" stroke-width="1"/><path stroke="currentColor" stroke-linecap="round" stroke-linejoin="round" d="M10.2546 8.00024c1.0304 0 1.61 -0.57961 1.61 -1.61004s-0.5796 -1.61005 -1.61 -1.61005c-1.03045 0 -1.61007 0.57962 -1.61007 1.61005s0.57962 1.61004 1.61007 1.61004Z" stroke-width="1"/></svg>