<svg xmlns="http://www.w3.org/2000/svg" fill="none" viewBox="0 0 14 14"><g stroke="currentColor" stroke-linecap="round" stroke-linejoin="round"><path d="M.5.5h13M.5 3.75h1.083M12.417 3.75H13.5M.5 10.25h1.083M12.417 10.25H13.5M.5 7h1.083M12.417 7H13.5M.5 13.5h13M3.86 8.7a1.63 1.63 0 0 0 1.43 1.435c.557.062 1.128.115 1.71.115s1.153-.053 1.71-.115a1.63 1.63 0 0 0 1.43-1.436c.06-.552.11-1.12.11-1.699s-.05-1.147-.11-1.7a1.63 1.63 0 0 0-1.43-1.435C8.152 3.804 7.581 3.75 7 3.75s-1.153.053-1.71.115a1.63 1.63 0 0 0-1.43 1.436C3.8 5.853 3.75 6.42 3.75 7s.05 1.147.11 1.7"/></g></svg>