<svg xmlns="http://www.w3.org/2000/svg" fill="none" viewBox="0 0 14 14"><path stroke="currentColor" stroke-linecap="round" stroke-linejoin="round" d="M0.979554 0.75C0.737886 3.85693 0.670347 6.93868 0.857651 10.0479c0.061278 1.0172 0.908389 1.8008 1.927429 1.8008H5.6875" stroke-width="1"/><path stroke="currentColor" stroke-linecap="round" stroke-linejoin="round" d="m0.78125 7.03113 4.90625 0" stroke-width="1"/><path stroke="currentColor" stroke-linecap="round" stroke-linejoin="round" d="m0.9375 2.25452 4.78125 0" stroke-width="1"/><path stroke="currentColor" stroke-linecap="round" stroke-linejoin="round" d="M5.77838 7.66473c0.1067 0.43064 0.50116 0.73793 0.94267 0.758 1.84114 0.08367 3.66105 0.08367 5.50225 0 0.4415 -0.02007 0.8359 -0.32736 0.9426 -0.758 0.1121 -0.45221 0.1121 -0.877 0 -1.32921 -0.1067 -0.43063 -0.5011 -0.73793 -0.9426 -0.758 -1.8412 -0.08367 -3.66111 -0.08367 -5.50225 0 -0.44151 0.02007 -0.83597 0.32737 -0.94267 0.758 -0.11206 0.45221 -0.11206 0.877 0 1.32921Z" stroke-width="1"/><path stroke="currentColor" stroke-linecap="round" stroke-linejoin="round" d="M5.77838 12.4293c0.1067 0.4306 0.50116 0.7379 0.94267 0.758 1.84114 0.0836 3.66105 0.0836 5.50225 0 0.4415 -0.0201 0.8359 -0.3274 0.9426 -0.758 0.1121 -0.4523 0.1121 -0.877 0 -1.3293 -0.1067 -0.4306 -0.5011 -0.7379 -0.9426 -0.7579 -1.8412 -0.0837 -3.66111 -0.0837 -5.50225 0 -0.44151 0.02 -0.83597 0.3273 -0.94267 0.7579 -0.11206 0.4523 -0.11206 0.877 0 1.3293Z" stroke-width="1"/><path stroke="currentColor" stroke-linecap="round" stroke-linejoin="round" d="M5.77838 2.89996c0.1067 0.43064 0.50116 0.73793 0.94267 0.758 1.84114 0.08367 3.66105 0.08367 5.50225 0 0.4415 -0.02007 0.8359 -0.32736 0.9426 -0.758 0.1121 -0.45221 0.1121 -0.877 0 -1.32921 -0.1067 -0.43063 -0.5011 -0.737931 -0.9426 -0.757996 -1.8412 -0.083672 -3.66111 -0.083672 -5.50225 0 -0.44151 0.020065 -0.83597 0.327366 -0.94267 0.757996 -0.11206 0.45221 -0.11206 0.877 0 1.32921Z" stroke-width="1"/></svg>