<svg xmlns="http://www.w3.org/2000/svg" fill="none" viewBox="0 0 14 14"><g stroke="currentColor" stroke-linecap="round"><path d="M4.46 13.25h.5M6.719 13.25h.5M8.977 13.25h.5"/><path stroke-linejoin="round" d="M.899 7.886c.174 1.434 1.37 2.558 2.808 2.686 1.071.096 2.171.178 3.293.178s2.222-.082 3.294-.178c1.437-.128 2.633-1.252 2.807-2.686.085-.698.149-1.412.149-2.136s-.064-1.438-.148-2.136c-.175-1.434-1.37-2.558-2.809-2.686C9.223.832 8.123.75 7 .75S4.778.832 3.707.928C2.269 1.056 1.073 2.18.899 3.614A18 18 0 0 0 .75 5.75c0 .724.064 1.438.149 2.136"/><path stroke-linejoin="round" d="M3.88 4.725c-.41.205-.82.615-1.026 1.025.205.41.615.82 1.025 1.025M10.12 4.725c.41.205.82.615 1.026 1.025-.205.41-.615.82-1.025 1.025"/></g></svg>