<svg xmlns="http://www.w3.org/2000/svg" viewBox="0 0 24 24"><g fill="currentColor"><path d="M24 8.41a1 1 0 0 0-.29-.7l-5.42-5.42a1 1 0 0 0-.7-.29H2a2 2 0 0 0-2 2v16a2 2 0 0 0 2 2h20a2 2 0 0 0 2-2ZM22 19.5a.5.5 0 0 1-.5.5h-19a.5.5 0 0 1-.5-.5v-15a.5.5 0 0 1 .5-.5H17a.49.49 0 0 1 .36.15l4.53 4.53A.49.49 0 0 1 22 9Z"/><circle cx="8.3" cy="8" r="2"/><path d="M13.72 10.68a.49.49 0 0 0-.84 0l-2.43 3.88a.27.27 0 0 1-.21.12.24.24 0 0 1-.21-.12l-.87-1.38a.49.49 0 0 0-.42-.24.51.51 0 0 0-.43.24l-2.77 4.44a.25.25 0 0 0 0 .25.26.26 0 0 0 .22.13h12.1a.26.26 0 0 0 .22-.13.25.25 0 0 0 0-.25Z"/></g></svg>