<svg xmlns="http://www.w3.org/2000/svg" viewBox="0 0 24 24"><circle cx="4" cy="20" r="3.5" fill="none" stroke="currentColor" stroke-linecap="round" stroke-linejoin="round"/><circle cx="4" cy="20" r="1.5" fill="none" stroke="currentColor" stroke-linecap="round" stroke-linejoin="round"/><path d="M.5 20V4a3.5 3.5 0 0 1 7 0v16" fill="none" stroke="currentColor" stroke-linecap="round" stroke-linejoin="round"/><path d="M4 23.5h18.5a1 1 0 0 0 1-1v-18a1 1 0 0 0-1-1h-15" fill="none" stroke="currentColor" stroke-linecap="round" stroke-linejoin="round"/><path d="M15.5 18.5H11a.5.5 0 0 1-.5-.5V9.309a.5.5 0 0 1 .724-.447L15.5 11zM15.5 12.5H20a.5.5 0 0 1 .5.5v5a.5.5 0 0 1-.5.5h-4.5M10.5 12.5H13M10.5 14.5H13M15.5 11V8.5M19.5 12.5V10M15.5 14.5H18M15.5 16.5H18" fill="none" stroke="currentColor" stroke-linecap="round" stroke-linejoin="round"/></svg>