<svg xmlns="http://www.w3.org/2000/svg" viewBox="0 0 24 24"><rect x=".5" y="3.501" width="22" height="20" rx="1" ry="1" fill="none" stroke="currentColor" stroke-linecap="round" stroke-linejoin="round"/><path fill="none" stroke="currentColor" stroke-linecap="round" stroke-linejoin="round" d="M3.5 1.501v3M7.5 1.501v3M11.5 1.501v3M15.5 1.501v3M19.5 1.501v3M12.5 8.5h3v4h0-4 0v-3a1 1 0 0 1 1-1zM15.5 8.5h3a1 1 0 0 1 1 1v3h0-4 0v-4h0zM11.5 12.501h4v4h-4zM15.5 12.501h4v4h-4zM11.5 16.501h4v4h-4z"/><path d="M15.5 16.5h4v3a1 1 0 0 1-1 1h-3 0v-4h0zM4.5 12.5h3v4h0-4 0v-3a1 1 0 0 1 1-1zM7.5 12.501h4v4h-4zM3.5 16.5h4v4h0-3a1 1 0 0 1-1-1v-3h0zM7.5 16.501h4v4h-4z" fill="none" stroke="currentColor" stroke-linecap="round" stroke-linejoin="round"/></svg>