<svg xmlns="http://www.w3.org/2000/svg" width="15" height="16"><g fill="none" stroke="currentColor" stroke-linecap="round" stroke-linejoin="round" stroke-miterlimit="10"><path d="M3 3.5H1C.7 3.5.5 3.3.5 3V1C.5.7.7.5 1 .5h2c.3 0 .5.2.5.5v2c0 .3-.2.5-.5.5zM3 15.5H1c-.3 0-.5-.2-.5-.5v-2c0-.3.2-.5.5-.5h2c.3 0 .5.2.5.5v2c0 .3-.2.5-.5.5zM14 3.5h-2c-.3 0-.5-.2-.5-.5V1c0-.3.2-.5.5-.5h2c.3 0 .5.2.5.5v2c0 .3-.2.5-.5.5zM14 15.5h-2c-.3 0-.5-.2-.5-.5v-2c0-.3.2-.5.5-.5h2c.3 0 .5.2.5.5v2c0 .3-.2.5-.5.5zM3.5 1.5h8M13.5 3.5v9M11.5 14.5h-8M1.5 12.5v-9M4.5 6c0-.8.7-1.5 1.5-1.5h3c.8 0 1.5.7 1.5 1.5M7.5 4.5v7M5.5 11.5h4"/></g></svg>