<svg version="1.1"
     xmlns="http://www.w3.org/2000/svg" xmlns:xlink="http://www.w3.org/1999/xlink" xmlns:a="http://ns.adobe.com/AdobeSVGViewerExtensions/3.0/"
     x="0px" y="0px" width="14px" height="16px" viewBox="0 0 14 16" style="enable-background:new 0 0 14 16;" xml:space="preserve">
<style type="text/css">
    .st0{fill:none;stroke:#000000;stroke-linecap:round;stroke-linejoin:round;stroke-miterlimit:10;}
</style>
<defs>
</defs>
<g>
    <path class="st0" d="M10,15.5h3c0.3,0,0.5-0.2,0.5-0.5v-3.3c0-0.1-0.1-0.3-0.1-0.4l-0.7-0.7c-0.1-0.1-0.2-0.1-0.4-0.1H10
        c-0.3,0-0.5,0.2-0.5,0.5v4C9.5,15.3,9.7,15.5,10,15.5z"/>
    <path class="st0" d="M10,6.5h3c0.3,0,0.5-0.2,0.5-0.5V2.7c0-0.1-0.1-0.3-0.1-0.4l-0.7-0.7c-0.1-0.1-0.2-0.1-0.4-0.1H10
        C9.7,1.5,9.5,1.7,9.5,2v4C9.5,6.3,9.7,6.5,10,6.5z"/>
    <line class="st0" x1="0.5" y1="0.5" x2="0.5" y2="1.5"/>
    <line class="st0" x1="0.5" y1="3.5" x2="0.5" y2="5.5"/>
    <line class="st0" x1="0.5" y1="7.5" x2="0.5" y2="9.5"/>
    <path class="st0" d="M0.5,11.5v1c0,0.6,0.4,1,1,1h1"/>
    <line class="st0" x1="4.5" y1="13.5" x2="6.5" y2="13.5"/>
    <line class="st0" x1="8.5" y1="13.5" x2="9.5" y2="13.5"/>
    <line class="st0" x1="0.5" y1="4.5" x2="2.5" y2="4.5"/>
    <line class="st0" x1="4.5" y1="4.5" x2="6.5" y2="4.5"/>
    <line class="st0" x1="8.5" y1="4.5" x2="9.5" y2="4.5"/>
</g>
</svg>
