<svg xmlns="http://www.w3.org/2000/svg" viewBox="0 0 24 24"><defs><style>.a{fill:none;stroke:currentColor;stroke-linecap:round;stroke-linejoin:round;stroke-width:1.5px}</style></defs><path class="a" d="M.752 21.751a1.5 1.5 0 0 0 1.5 1.5M2.252.751a1.5 1.5 0 0 0-1.5 1.5M23.252 2.251a1.5 1.5 0 0 0-1.5-1.5M21.752 23.251a1.5 1.5 0 0 0 1.5-1.5M23.252 6.001v1.5M23.252 11.251v1.5M23.252 16.501v1.5M.752 6.001v1.5M.752 11.251v1.5M.752 16.501v1.5M6.002 23.251h1.5M11.252 23.251h1.5M16.502 23.251h1.5M6.002.751h1.5M11.252.751h1.5M16.502.751h1.5M12.002 6.001v12M16.502 13.501l-4.5 4.5-4.5-4.5"/></svg>