<?xml version="1.0" encoding="UTF-8" standalone="no"?>
<svg width="43px" height="56px" viewBox="0 0 43 56" version="1.1" xmlns="http://www.w3.org/2000/svg" xmlns:xlink="http://www.w3.org/1999/xlink">
    <!-- Generator: Sketch 40.1 (33804) - http://www.bohemiancoding.com/sketch -->
    <title>19 - XLS File (document, format, extension, file, type, flat)</title>
    <desc>Created with Sketch.</desc>
    <defs></defs>
    <g id="Page-1" stroke="none" stroke-width="1" fill="none" fill-rule="evenodd">
        <g id="Icons" transform="translate(-249.000000, -599.000000)">
            <g id="XLS-File" transform="translate(249.000000, 599.000000)">
                <path d="M30.485,0 L1.463,0 C0.655,0 0,0.655 0,1.926 L0,55 C0,55.345 0.655,56 1.463,56 L41.537,56 C42.345,56 43,55.345 43,55 L43,12.978 C43,12.282 42.907,12.058 42.743,11.893 L31.107,0.257 C30.942,0.093 30.718,0 30.485,0" id="Fill-72" fill="#E9E9E0"></path>
                <polyline id="Fill-73" fill="#D9D7CA" points="31 0.151 31 12 42.849 12 31 0.151"></polyline>
                <path d="M41.537,56 L1.463,56 C0.655,56 0,55.345 0,54.537 L0,39 L43,39 L43,54.537 C43,55.345 42.345,56 41.537,56" id="Fill-159" fill="#91CDA0"></path>
                <polyline id="Fill-160" fill="#FFFFFF" points="13.879 48.106 16.436 53 14.535 53 12.936 49.199 12.799 49.199 11.076 53 9.176 53 11.732 48.106 9.012 42.924 10.885 42.924 12.662 47.025 12.799 47.025 14.727 42.924 16.6 42.924 13.879 48.106"></polyline>
                <polyline id="Fill-161" fill="#FFFFFF" points="20.537 42.924 20.537 51.756 25.172 51.756 25.172 53 18.869 53 18.869 42.924 20.537 42.924"></polyline>
                <path d="M32.541,50.238 C32.541,50.603 32.466,50.956 32.315,51.298 C32.165,51.64 31.953,51.94 31.68,52.2 C31.406,52.46 31.069,52.667 30.668,52.822 C30.267,52.977 29.811,53.055 29.301,53.055 C29.082,53.055 28.856,53.043 28.624,53.021 C28.392,52.998 28.157,52.959 27.92,52.904 C27.683,52.85 27.457,52.774 27.243,52.679 C27.029,52.583 26.844,52.467 26.69,52.33 L26.977,51.154 C27.104,51.227 27.266,51.298 27.462,51.366 C27.658,51.435 27.86,51.498 28.07,51.558 C28.28,51.617 28.489,51.665 28.699,51.701 C28.909,51.737 29.105,51.756 29.287,51.756 C29.843,51.756 30.269,51.626 30.565,51.366 C30.861,51.106 31.01,50.722 31.01,50.211 C31.01,49.901 30.905,49.637 30.695,49.418 C30.485,49.199 30.224,49.001 29.909,48.823 C29.595,48.646 29.255,48.468 28.891,48.29 C28.526,48.112 28.184,47.902 27.865,47.661 C27.546,47.42 27.282,47.135 27.072,46.807 C26.862,46.479 26.758,46.068 26.758,45.576 C26.758,45.13 26.84,44.733 27.004,44.387 C27.168,44.04 27.389,43.746 27.667,43.505 C27.945,43.264 28.269,43.079 28.638,42.951 C29.007,42.823 29.397,42.76 29.807,42.76 C30.226,42.76 30.649,42.799 31.078,42.876 C31.506,42.953 31.853,43.079 32.117,43.252 C32.063,43.37 31.999,43.5 31.926,43.642 C31.853,43.783 31.784,43.915 31.721,44.038 C31.657,44.161 31.602,44.264 31.557,44.346 C31.511,44.428 31.483,44.474 31.475,44.482 C31.42,44.455 31.358,44.419 31.29,44.373 C31.222,44.327 31.124,44.282 30.996,44.236 C30.868,44.19 30.7,44.159 30.49,44.141 C30.28,44.122 30.012,44.127 29.684,44.154 C29.501,44.173 29.328,44.225 29.164,44.312 C29,44.398 28.854,44.505 28.727,44.633 C28.599,44.761 28.499,44.904 28.426,45.063 C28.353,45.223 28.316,45.376 28.316,45.521 C28.316,45.886 28.421,46.18 28.631,46.403 C28.84,46.627 29.1,46.822 29.41,46.991 C29.72,47.16 30.057,47.324 30.422,47.483 C30.786,47.643 31.126,47.837 31.44,48.065 C31.755,48.292 32.017,48.577 32.227,48.919 C32.436,49.261 32.541,49.7 32.541,50.238" id="Fill-162" fill="#FFFFFF"></path>
                <path d="M17,16 L17,12 L5,12 L5,34 L38,34 L38,16 L17,16 L17,16 Z M7,14 L15,14 L15,16 L7,16 L7,14 Z M7,18 L15,18 L15,20 L7,20 L7,18 Z M7,22 L15,22 L15,24 L7,24 L7,22 Z M7,26 L15,26 L15,28 L7,28 L7,26 Z M7,30 L15,30 L15,32 L7,32 L7,30 Z M17,30 L36,30 L36,32 L17,32 L17,30 Z M17,26 L36,26 L36,28 L17,28 L17,26 Z M17,22 L36,22 L36,24 L17,24 L17,22 Z M17,18 L36,18 L36,20 L17,20 L17,18 Z" id="Fill-163" fill="#C8BDB8"></path>
            </g>
        </g>
    </g>
</svg>