<?xml version="1.0" encoding="UTF-8" standalone="no"?>
<svg width="42px" height="59px" viewBox="0 0 42 59" version="1.1" xmlns="http://www.w3.org/2000/svg" xmlns:xlink="http://www.w3.org/1999/xlink">
    <g id="Page-1" stroke="none" stroke-width="1" fill="none" fill-rule="evenodd">
        <g id="Icons" transform="translate(-486.000000, -953.000000)">
            <g id="54--DOCX-File--(document,-paper,-write,-note,-flat)" transform="translate(486.000000, 953.000000)">
                <path d="M42,12.014 L32,12.014 C30.895,12.014 30,11.119 30,10.014 L30,0.014 L42,12.014 Z" id="Fill-266" fill="#D4D0BA"></path>
                <path d="M42,12.014 L32,12.014 C30.895,12.014 30,11.119 30,10.014 L30,0.014 L2,0.014 C0.895,0.014 0,0.909 0,2.014 L0,56.014 C0,57.119 0.895,58.014 2,58.014 L40,58.014 C41.105,58.014 42,57.119 42,56.014 L42,12.014 Z" id="Fill-267" fill="#EFEADD"></path>
                <path d="M8.7208,24.014 L9.9998,20.176 L11.2788,24.014 L8.7208,24.014 Z M14.9488,28.698 L10.9488,16.698 C10.8128,16.289 10.4308,16.014 9.9998,16.014 C9.5698,16.014 9.1878,16.289 9.0518,16.698 L5.0518,28.698 C4.8768,29.222 5.1598,29.788 5.6838,29.962 C6.2108,30.137 6.7738,29.854 6.9488,29.33 L8.0538,26.014 L11.9458,26.014 L13.0518,29.33 C13.1908,29.749 13.5808,30.014 13.9998,30.014 C14.1048,30.014 14.2118,29.997 14.3168,29.962 C14.8408,29.788 15.1238,29.222 14.9488,28.698 L14.9488,28.698 Z" id="Fill-417" fill="#71C385"></path>
                <path d="M36,18.014 L18,18.014 C17.448,18.014 17,17.567 17,17.014 C17,16.461 17.448,16.014 18,16.014 L36,16.014 C36.552,16.014 37,16.461 37,17.014 C37,17.567 36.552,18.014 36,18.014" id="Fill-418" fill="#D4D0BA"></path>
                <path d="M36,24.014 L18,24.014 C17.448,24.014 17,23.567 17,23.014 C17,22.461 17.448,22.014 18,22.014 L36,22.014 C36.552,22.014 37,22.461 37,23.014 C37,23.567 36.552,24.014 36,24.014" id="Fill-419" fill="#D4D0BA"></path>
                <path d="M36,30.014 L18,30.014 C17.448,30.014 17,29.567 17,29.014 C17,28.461 17.448,28.014 18,28.014 L36,28.014 C36.552,28.014 37,28.461 37,29.014 C37,29.567 36.552,30.014 36,30.014" id="Fill-420" fill="#D4D0BA"></path>
                <path d="M36,36.014 L6,36.014 C5.448,36.014 5,35.567 5,35.014 C5,34.461 5.448,34.014 6,34.014 L36,34.014 C36.552,34.014 37,34.461 37,35.014 C37,35.567 36.552,36.014 36,36.014" id="Fill-421" fill="#D4D0BA"></path>
                <path d="M36,42.014 L6,42.014 C5.448,42.014 5,41.567 5,41.014 C5,40.461 5.448,40.014 6,40.014 L36,40.014 C36.552,40.014 37,40.461 37,41.014 C37,41.567 36.552,42.014 36,42.014" id="Fill-422" fill="#D4D0BA"></path>
                <path d="M36,48.014 L6,48.014 C5.448,48.014 5,47.567 5,47.014 C5,46.461 5.448,46.014 6,46.014 L36,46.014 C36.552,46.014 37,46.461 37,47.014 C37,47.567 36.552,48.014 36,48.014" id="Fill-423" fill="#D4D0BA"></path>
            </g>
        </g>
    </g>
</svg>
