<?xml version="1.0" encoding="UTF-8" standalone="no"?>
<svg width="42px" height="59px" viewBox="0 0 42 59" version="1.1" xmlns="http://www.w3.org/2000/svg" xmlns:xlink="http://www.w3.org/1999/xlink">
    <!-- Generator: Sketch 3.8.3 (29802) - http://www.bohemiancoding.com/sketch -->
    <title>51 -File- (Flat)</title>
    <desc>Created with Sketch.</desc>
    <defs></defs>
    <g id="Page-1" stroke="none" stroke-width="1" fill="none" fill-rule="evenodd">
        <g id="Icons" transform="translate(-126.000000, -953.000000)">
            <g id="51--File--(Flat)" transform="translate(126.000000, 953.000000)">
                <path d="M42,12.014 L32,12.014 C30.895,12.014 30,11.119 30,10.014 L30,0.014 L42,12.014 Z" id="Fill-260" fill="#D4D0BA"></path>
                <path d="M42,12.014 L32,12.014 C30.895,12.014 30,11.119 30,10.014 L30,0.014 L2,0.014 C0.895,0.014 0,0.909 0,2.014 L0,56.014 C0,57.119 0.895,58.014 2,58.014 L40,58.014 C41.105,58.014 42,57.119 42,56.014 L42,12.014 Z" id="Fill-261" fill="#EFEADD"></path>
                <path d="M24,13.014 L6,13.014 C5.448,13.014 5,12.567 5,12.014 C5,11.461 5.448,11.014 6,11.014 L24,11.014 C24.552,11.014 25,11.461 25,12.014 C25,12.567 24.552,13.014 24,13.014" id="Fill-393" fill="#D4D0BA"></path>
                <path d="M36,19.014 L6,19.014 C5.448,19.014 5,18.567 5,18.014 C5,17.461 5.448,17.014 6,17.014 L36,17.014 C36.552,17.014 37,17.461 37,18.014 C37,18.567 36.552,19.014 36,19.014" id="Fill-394" fill="#D4D0BA"></path>
                <path d="M36,25.014 L6,25.014 C5.448,25.014 5,24.567 5,24.014 C5,23.461 5.448,23.014 6,23.014 L36,23.014 C36.552,23.014 37,23.461 37,24.014 C37,24.567 36.552,25.014 36,25.014" id="Fill-395" fill="#D4D0BA"></path>
                <path d="M36,31.014 L6,31.014 C5.448,31.014 5,30.567 5,30.014 C5,29.461 5.448,29.014 6,29.014 L36,29.014 C36.552,29.014 37,29.461 37,30.014 C37,30.567 36.552,31.014 36,31.014" id="Fill-396" fill="#D4D0BA"></path>
                <path d="M36,37.014 L6,37.014 C5.448,37.014 5,36.567 5,36.014 C5,35.461 5.448,35.014 6,35.014 L36,35.014 C36.552,35.014 37,35.461 37,36.014 C37,36.567 36.552,37.014 36,37.014" id="Fill-397" fill="#D4D0BA"></path>
                <path d="M36,43.014 L6,43.014 C5.448,43.014 5,42.567 5,42.014 C5,41.461 5.448,41.014 6,41.014 L36,41.014 C36.552,41.014 37,41.461 37,42.014 C37,42.567 36.552,43.014 36,43.014" id="Fill-398" fill="#D4D0BA"></path>
                <path d="M36,49.014 L6,49.014 C5.448,49.014 5,48.567 5,48.014 C5,47.461 5.448,47.014 6,47.014 L36,47.014 C36.552,47.014 37,47.461 37,48.014 C37,48.567 36.552,49.014 36,49.014" id="Fill-399" fill="#D4D0BA"></path>
            </g>
        </g>
    </g>
</svg>