<?xml version="1.0" encoding="UTF-8" standalone="no"?>
<svg width="42px" height="59px" viewBox="0 0 42 59" version="1.1" xmlns="http://www.w3.org/2000/svg" xmlns:xlink="http://www.w3.org/1999/xlink">
    <!-- Generator: Sketch 3.8.3 (29802) - http://www.bohemiancoding.com/sketch -->
    <title>67 -Music File- (Flat)</title>
    <desc>Created with Sketch.</desc>
    <defs></defs>
    <g id="Page-1" stroke="none" stroke-width="1" fill="none" fill-rule="evenodd">
        <g id="Icons" transform="translate(-846.000000, -1073.000000)">
            <g id="67--Music-File--(Flat)" transform="translate(846.000000, 1073.000000)">
                <path d="M42,12.014 L32,12.014 C30.895,12.014 30,11.119 30,10.014 L30,0.014 L42,12.014 Z" id="Fill-294" fill="#D4D0BA"></path>
                <path d="M42,12.014 L32,12.014 C30.895,12.014 30,11.119 30,10.014 L30,0.014 L2,0.014 C0.895,0.014 0,0.909 0,2.014 L0,56.014 C0,57.119 0.895,58.014 2,58.014 L40,58.014 C41.105,58.014 42,57.119 42,56.014 L42,12.014 Z" id="Fill-295" fill="#EFEADD"></path>
                <path d="M18,41.014 L18,41.014 C15.791,41.014 14,39.223 14,37.014 C14,34.805 15.791,33.014 18,33.014 L22,33.014 L22,37.014 C22,39.223 20.209,41.014 18,41.014" id="Fill-517" fill="#F38774"></path>
                <path d="M21,34.014 L20.998,34.014 C20.446,34.013 19.999,33.565 20,33.012 L20.031,14.012 C20.032,13.595 20.291,13.223 20.682,13.077 C21.073,12.932 21.513,13.043 21.786,13.359 L25.94,18.143 C27.906,20.389 28.542,23.548 27.597,26.384 L26.984,28.317 C26.818,28.842 26.26,29.137 25.729,28.967 C25.202,28.8 24.911,28.239 25.078,27.711 L25.695,25.765 C26.422,23.586 25.936,21.174 24.433,19.456 L22.027,16.686 L22,33.016 C21.999,33.568 21.552,34.014 21,34.014" id="Fill-518" fill="#F38774"></path>
                <path d="M36,49.014 L26,49.014 C25.447,49.014 25,48.567 25,48.014 C25,47.461 25.447,47.014 26,47.014 L36,47.014 C36.553,47.014 37,47.461 37,48.014 C37,48.567 36.553,49.014 36,49.014" id="Fill-520" fill="#D4D0BA"></path>
                <path d="M31,53.014 L26,53.014 C25.447,53.014 25,52.567 25,52.014 C25,51.461 25.447,51.014 26,51.014 L31,51.014 C31.553,51.014 32,51.461 32,52.014 C32,52.567 31.553,53.014 31,53.014" id="Fill-521" fill="#D4D0BA"></path>
                <path d="M36,53.014 L35,53.014 C34.447,53.014 34,52.567 34,52.014 C34,51.461 34.447,51.014 35,51.014 L36,51.014 C36.553,51.014 37,51.461 37,52.014 C37,52.567 36.553,53.014 36,53.014" id="Fill-522" fill="#D4D0BA"></path>
            </g>
        </g>
    </g>
</svg>