<?xml version="1.0" encoding="UTF-8" standalone="no"?>
<svg width="42px" height="59px" viewBox="0 0 42 59" version="1.1" xmlns="http://www.w3.org/2000/svg" xmlns:xlink="http://www.w3.org/1999/xlink">
    <!-- Generator: Sketch 40.1 (33804) - http://www.bohemiancoding.com/sketch -->
    <title>59 -PPTX File- (document, paper, write, note, flat)</title>
    <desc>Created with Sketch.</desc>
    <defs></defs>
    <g id="Page-1" stroke="none" stroke-width="1" fill="none" fill-rule="evenodd">
        <g id="Icons" transform="translate(-1086.000000, -953.000000)">
            <g id="59--PPTX-File--(document,-paper,-write,-note,-flat)" transform="translate(1086.000000, 953.000000)">
                <path d="M42,12.014 L32,12.014 C30.895,12.014 30,11.119 30,10.014 L30,0.014 L42,12.014 Z" id="Fill-276" fill="#D4D0BA"></path>
                <path d="M42,12.014 L32,12.014 C30.895,12.014 30,11.119 30,10.014 L30,0.014 L2,0.014 C0.895,0.014 0,0.909 0,2.014 L0,56.014 C0,57.119 0.895,58.014 2,58.014 L40,58.014 C41.105,58.014 42,57.119 42,56.014 L42,12.014 Z" id="Fill-277" fill="#EFEADD"></path>
                <path d="M22,13.014 L22,25.014 L34,25.014 C34,18.387 28.627,13.014 22,13.014" id="Fill-462" fill="#F38774"></path>
                <path d="M18,29.014 L18,17.014 C13.974,17.014 10.42,19.003 8.244,22.045 L18,29.014 Z" id="Fill-463" fill="#F0C41A"></path>
                <path d="M8.2682,22.0134 C6.8442,23.9834 6.0002,26.3974 6.0002,29.0144 C6.0002,35.6414 11.3722,41.0144 18.0002,41.0144 C24.6272,41.0144 30.0002,35.6414 30.0002,29.0144 L18.0002,29.0144 L8.2432,22.0454" id="Fill-464" fill="#26B999"></path>
                <path d="M36,49.014 L26,49.014 C25.447,49.014 25,48.567 25,48.014 C25,47.461 25.447,47.014 26,47.014 L36,47.014 C36.553,47.014 37,47.461 37,48.014 C37,48.567 36.553,49.014 36,49.014" id="Fill-532" fill="#D4D0BA"></path>
                <path d="M31,53.014 L26,53.014 C25.447,53.014 25,52.567 25,52.014 C25,51.461 25.447,51.014 26,51.014 L31,51.014 C31.553,51.014 32,51.461 32,52.014 C32,52.567 31.553,53.014 31,53.014" id="Fill-533" fill="#D4D0BA"></path>
                <path d="M36,53.014 L35,53.014 C34.447,53.014 34,52.567 34,52.014 C34,51.461 34.447,51.014 35,51.014 L36,51.014 C36.553,51.014 37,51.461 37,52.014 C37,52.567 36.553,53.014 36,53.014" id="Fill-534" fill="#D4D0BA"></path>
            </g>
        </g>
    </g>
</svg>