<?xml version="1.0" encoding="UTF-8" standalone="no"?>
<svg width="43px" height="56px" viewBox="0 0 43 56" version="1.1" xmlns="http://www.w3.org/2000/svg" xmlns:xlink="http://www.w3.org/1999/xlink">
    <!-- Generator: Sketch 40.1 (33804) - http://www.bohemiancoding.com/sketch -->
    <title>2 - ZIP File (document, format, extension, file, type, flat)</title>
    <desc>Created with Sketch.</desc>
    <defs></defs>
    <g id="Page-1" stroke="none" stroke-width="1" fill="none" fill-rule="evenodd">
        <g id="Icons" transform="translate(-1089.000000, -719.000000)">
            <g id="ZIP-File" transform="translate(1089.000000, 719.000000)">
                <path d="M30.485,0 L1.463,0 C0.655,0 0,0.655 0,1.926 L0,55 C0,55.345 0.655,56 1.463,56 L41.537,56 C42.345,56 43,55.345 43,55 L43,12.978 C43,12.282 42.907,12.058 42.743,11.893 L31.107,0.257 C30.942,0.093 30.718,0 30.485,0" id="Fill-12" fill="#E9E9E0" fill-rule="evenodd"></path>
                <polyline id="Fill-13" fill="#D9D7CA" fill-rule="evenodd" points="31 0.151 31 12 42.849 12 31 0.151"></polyline>
                <polygon id="Fill-271" fill="#C8BDB8" fill-rule="evenodd" points="20 42 22 42 22 55.94 20 55.94"></polygon>
                <polyline id="Fill-272" fill="#C8BDB8" fill-rule="evenodd" points="24 23 24 21 22 21 22 19 20 19 20 21 18 21 18 23 20 23 20 25 18 25 18 27 20 27 20 29 18 29 18 31 20 31 20 34 22 34 22 31 24 31 24 29 22 29 22 27 24 27 24 25 22 25 22 23 24 23"></polyline>
                <polygon id="Fill-304" fill="#CBB292" fill-rule="evenodd" points="17 34 25 34 25 42 17 42"></polygon>
                <polygon id="Stroke-305" stroke="#5E5F62" stroke-width="2" points="17 34 25 34 25 42 17 42"></polygon>
                <polygon id="Stroke-306" stroke="#5E5F62" stroke-width="2" points="25 37 17 37"></polygon>
            </g>
        </g>
    </g>
</svg>