<?xml version="1.0" encoding="UTF-8" standalone="no"?>
<svg width="42px" height="59px" viewBox="0 0 42 59" version="1.1" xmlns="http://www.w3.org/2000/svg" xmlns:xlink="http://www.w3.org/1999/xlink">
    <!-- Generator: Sketch 40.1 (33804) - http://www.bohemiancoding.com/sketch -->
    <title>68 -PSD File- (document, paper, write, note, flat)</title>
    <desc>Created with Sketch.</desc>
    <defs></defs>
    <g id="Page-1" stroke="none" stroke-width="1" fill="none" fill-rule="evenodd">
        <g id="Icons" transform="translate(-966.000000, -1073.000000)">
            <g id="68--PSD-File--(document,-paper,-write,-note,-flat)" transform="translate(966.000000, 1073.000000)">
                <path d="M42,12.014 L32,12.014 C30.895,12.014 30,11.119 30,10.014 L30,0.014 L42,12.014 Z" id="Fill-296" fill="#D4D0BA"></path>
                <path d="M42,12.014 L32,12.014 C30.895,12.014 30,11.119 30,10.014 L30,0.014 L2,0.014 C0.895,0.014 0,0.909 0,2.014 L0,56.014 C0,57.119 0.895,58.014 2,58.014 L40,58.014 C41.105,58.014 42,57.119 42,56.014 L42,12.014 Z" id="Fill-297" fill="#EFEADD"></path>
                <path d="M36,49.014 L26,49.014 C25.447,49.014 25,48.567 25,48.014 C25,47.461 25.447,47.014 26,47.014 L36,47.014 C36.553,47.014 37,47.461 37,48.014 C37,48.567 36.553,49.014 36,49.014" id="Fill-523" fill="#D4D0BA"></path>
                <path d="M31,53.014 L26,53.014 C25.447,53.014 25,52.567 25,52.014 C25,51.461 25.447,51.014 26,51.014 L31,51.014 C31.553,51.014 32,51.461 32,52.014 C32,52.567 31.553,53.014 31,53.014" id="Fill-524" fill="#D4D0BA"></path>
                <path d="M36,53.014 L35,53.014 C34.447,53.014 34,52.567 34,52.014 C34,51.461 34.447,51.014 35,51.014 L36,51.014 C36.553,51.014 37,51.461 37,52.014 C37,52.567 36.553,53.014 36,53.014" id="Fill-525" fill="#D4D0BA"></path>
                <polygon id="Fill-526" fill="#26B999" points="26 30.014 6 30.014 16 18.014 36 18.014"></polygon>
                <polygon id="Fill-527" fill="#6BDDC0" points="26 30.014 11 30.014 6 36.014 26 36.014 36 24.014 31 24.014"></polygon>
                <polygon id="Fill-528" fill="#26B999" points="26 36.014 11 36.014 6 42.014 26 42.014 36 30.014 31 30.014"></polygon>
            </g>
        </g>
    </g>
</svg>