<?xml version="1.0" encoding="UTF-8" standalone="no"?>
<svg width="43px" height="56px" viewBox="0 0 43 56" version="1.1" xmlns="http://www.w3.org/2000/svg" xmlns:xlink="http://www.w3.org/1999/xlink">
    <!-- Generator: Sketch 40.1 (33804) - http://www.bohemiancoding.com/sketch -->
    <title>28 - PDF File (document, format, extension, file, type, flat)</title>
    <desc>Created with Sketch.</desc>
    <defs></defs>
    <g id="Page-1" stroke="none" stroke-width="1" fill="none" fill-rule="evenodd">
        <g id="Icons" transform="translate(-369.000000, -479.000000)">
            <g id="PDF-File" transform="translate(369.000000, 479.000000)">
                <path d="M30.485,0 L1.463,0 C0.655,0 0,0.655 0,1.926 L0,55 C0,55.345 0.655,56 1.463,56 L41.537,56 C42.345,56 43,55.345 43,55 L43,12.978 C43,12.282 42.907,12.058 42.743,11.893 L31.107,0.257 C30.942,0.093 30.718,0 30.485,0" id="Fill-100" fill="#E9E9E0"></path>
                <polyline id="Fill-101" fill="#D9D7CA" points="31 0.151 31 12 42.849 12 31 0.151"></polyline>
                <path d="M13.014,33.324 L13.014,33.324 C12.666,33.324 12.332,33.211 12.047,32.998 C11.006,32.216 10.866,31.347 10.932,30.755 C11.114,29.128 13.127,27.423 16.917,25.687 C18.421,22.391 19.852,18.33 20.705,14.937 C19.707,12.764 18.738,9.947 19.444,8.293 C19.692,7.715 20.002,7.27 20.578,7.078 C20.807,7.002 21.382,6.906 21.594,6.906 C22.098,6.906 22.541,7.555 22.855,7.955 C23.15,8.332 23.819,9.129 22.482,14.758 C23.83,17.541 25.739,20.377 27.57,22.319 C28.881,22.082 30.009,21.961 30.928,21.961 C32.494,21.961 33.443,22.327 33.83,23.078 C34.15,23.7 34.018,24.427 33.439,25.238 C32.882,26.017 32.115,26.429 31.219,26.429 C30.003,26.429 28.587,25.661 27.008,24.144 C24.17,24.737 20.857,25.795 18.179,26.966 C17.343,28.74 16.542,30.169 15.796,31.217 C14.773,32.654 13.889,33.324 13.014,33.324 L13.014,33.324 Z M15.676,28.198 C13.538,29.399 12.667,30.386 12.605,30.942 C12.595,31.034 12.568,31.276 13.036,31.634 C13.185,31.587 14.055,31.19 15.676,28.198 L15.676,28.198 Z M29.313,23.756 C30.128,24.383 30.327,24.7 30.86,24.7 C31.094,24.7 31.762,24.69 32.07,24.259 C32.219,24.05 32.277,23.916 32.299,23.845 C32.177,23.779 32.014,23.648 31.124,23.648 C30.62,23.648 29.985,23.669 29.313,23.756 L29.313,23.756 Z M21.843,17.174 C21.127,19.648 20.183,22.319 19.169,24.738 C21.259,23.927 23.531,23.219 25.665,22.718 C24.315,21.15 22.966,19.192 21.843,17.174 L21.843,17.174 Z M21.236,8.712 C21.138,8.745 19.906,10.469 21.332,11.928 C22.281,9.813 21.279,8.698 21.236,8.712 L21.236,8.712 Z" id="Fill-102" fill="#CC4B4C"></path>
                <path d="M41.537,56 L1.463,56 C0.655,56 0,55.345 0,54.537 L0,39 L43,39 L43,54.537 C43,55.345 42.345,56 41.537,56" id="Fill-286" fill="#CC4B4C"></path>
                <path d="M10.885,53 L9.244,53 L9.244,42.924 L12.143,42.924 C12.571,42.924 12.995,42.992 13.414,43.129 C13.833,43.266 14.209,43.471 14.542,43.744 C14.875,44.018 15.144,44.348 15.349,44.735 C15.554,45.123 15.656,45.558 15.656,46.041 C15.656,46.552 15.569,47.014 15.397,47.429 C15.223,47.844 14.981,48.192 14.672,48.475 C14.362,48.757 13.988,48.976 13.551,49.131 C13.113,49.286 12.63,49.363 12.102,49.363 L10.885,49.363 L10.885,53 L10.885,53 Z M10.885,44.168 L10.885,48.16 L12.389,48.16 C12.589,48.16 12.787,48.126 12.983,48.058 C13.179,47.989 13.359,47.878 13.523,47.723 C13.688,47.567 13.819,47.352 13.92,47.073 C14.02,46.795 14.07,46.451 14.07,46.041 C14.07,45.877 14.047,45.688 14.002,45.474 C13.956,45.26 13.863,45.055 13.722,44.858 C13.58,44.662 13.382,44.498 13.127,44.366 C12.872,44.234 12.534,44.168 12.115,44.168 L10.885,44.168 L10.885,44.168 Z" id="Fill-287" fill="#FFFFFF"></path>
                <path d="M25.719,47.682 C25.719,48.511 25.63,49.22 25.452,49.808 C25.274,50.396 25.049,50.888 24.775,51.284 C24.502,51.681 24.194,51.993 23.853,52.221 C23.511,52.448 23.18,52.619 22.861,52.733 C22.542,52.848 22.251,52.92 21.986,52.952 C21.722,52.984 21.526,53 21.398,53 L17.584,53 L17.584,42.924 L20.619,42.924 C21.467,42.924 22.212,43.059 22.855,43.327 C23.497,43.596 24.03,43.954 24.454,44.4 C24.878,44.847 25.194,45.355 25.404,45.925 C25.614,46.494 25.719,47.08 25.719,47.682 L25.719,47.682 Z M20.852,51.797 C21.963,51.797 22.766,51.441 23.258,50.73 C23.75,50.02 23.996,48.989 23.996,47.641 C23.996,47.222 23.946,46.807 23.846,46.397 C23.745,45.986 23.552,45.615 23.265,45.282 C22.978,44.949 22.588,44.681 22.096,44.476 C21.604,44.271 20.965,44.168 20.182,44.168 L19.225,44.168 L19.225,51.797 L20.852,51.797 L20.852,51.797 Z" id="Fill-288" fill="#FFFFFF"></path>
                <polyline id="Fill-289" fill="#FFFFFF" points="29.766 44.168 29.766 47.34 33.977 47.34 33.977 48.461 29.766 48.461 29.766 53 28.098 53 28.098 42.924 34.4 42.924 34.4 44.168 29.766 44.168"></polyline>
            </g>
        </g>
    </g>
</svg>