<?xml version="1.0" encoding="UTF-8" standalone="no"?>
<svg width="43px" height="56px" viewBox="0 0 43 56" version="1.1" xmlns="http://www.w3.org/2000/svg" xmlns:xlink="http://www.w3.org/1999/xlink">
    <!-- Generator: Sketch 40.1 (33804) - http://www.bohemiancoding.com/sketch -->
    <title>25 - JSON File (document, format, extension, file, type, flat)</title>
    <desc>Created with Sketch.</desc>
    <defs></defs>
    <g id="Page-1" stroke="none" stroke-width="1" fill="none" fill-rule="evenodd">
        <g id="Icons" transform="translate(-729.000000, -479.000000)">
            <g id="JSON-File" transform="translate(729.000000, 479.000000)">
                <path d="M30.485,0 L1.463,0 C0.655,0 0,0.655 0,1.926 L0,55 C0,55.345 0.655,56 1.463,56 L41.537,56 C42.345,56 43,55.345 43,55 L43,12.978 C43,12.282 42.907,12.058 42.743,11.893 L31.107,0.257 C30.942,0.093 30.718,0 30.485,0" id="Fill-22" fill="#E9E9E0"></path>
                <polyline id="Fill-23" fill="#D9D7CA" points="31 0.151 31 12 42.849 12 31 0.151"></polyline>
                <path d="M41.537,56 L1.463,56 C0.655,56 0,55.345 0,54.537 L0,39 L43,39 L43,54.537 C43,55.345 42.345,56 41.537,56" id="Fill-109" fill="#9777A8"></path>
                <path d="M10.522,42.719 L10.522,50.566 C10.522,51.04 10.435,51.44 10.262,51.763 C10.089,52.086 9.856,52.346 9.565,52.542 C9.273,52.738 8.938,52.875 8.56,52.952 C8.182,53.029 7.792,53.068 7.391,53.068 C7.19,53.068 6.955,53.048 6.687,53.007 C6.418,52.966 6.14,52.902 5.853,52.815 C5.565,52.728 5.29,52.631 5.025,52.522 C4.761,52.412 4.538,52.289 4.356,52.152 L5.053,51.045 C5.144,51.108 5.273,51.175 5.442,51.243 C5.611,51.311 5.796,51.375 5.996,51.435 C6.196,51.494 6.406,51.546 6.625,51.592 C6.844,51.638 7.049,51.66 7.24,51.66 C7.724,51.66 8.108,51.566 8.396,51.38 C8.683,51.193 8.835,50.876 8.854,50.43 L8.854,42.719 L10.522,42.719" id="Fill-110" fill="#FFFFFF"></path>
                <path d="M18.684,50.238 C18.684,50.603 18.608,50.956 18.458,51.298 C18.308,51.64 18.096,51.94 17.822,52.2 C17.549,52.46 17.212,52.667 16.81,52.822 C16.409,52.978 15.954,53.055 15.443,53.055 C15.225,53.055 14.999,53.043 14.767,53.021 C14.534,52.998 14.3,52.959 14.063,52.904 C13.825,52.85 13.6,52.774 13.386,52.679 C13.172,52.583 12.987,52.467 12.832,52.33 L13.119,51.154 C13.247,51.228 13.408,51.298 13.605,51.366 C13.801,51.435 14.003,51.498 14.213,51.558 C14.423,51.617 14.632,51.665 14.842,51.701 C15.052,51.737 15.247,51.756 15.43,51.756 C15.985,51.756 16.412,51.626 16.708,51.366 C17.004,51.106 17.152,50.722 17.152,50.211 C17.152,49.901 17.048,49.637 16.838,49.418 C16.628,49.199 16.366,49.001 16.052,48.823 C15.737,48.646 15.398,48.468 15.033,48.29 C14.669,48.112 14.327,47.902 14.008,47.661 C13.689,47.42 13.425,47.135 13.215,46.807 C13.005,46.479 12.9,46.068 12.9,45.576 C12.9,45.13 12.982,44.733 13.147,44.387 C13.311,44.04 13.531,43.746 13.81,43.505 C14.088,43.264 14.411,43.079 14.78,42.951 C15.149,42.823 15.539,42.76 15.949,42.76 C16.368,42.76 16.792,42.799 17.221,42.876 C17.649,42.953 17.995,43.079 18.26,43.252 C18.205,43.37 18.142,43.5 18.068,43.642 C17.995,43.783 17.927,43.915 17.863,44.038 C17.8,44.161 17.745,44.264 17.699,44.346 C17.653,44.428 17.626,44.474 17.617,44.482 C17.563,44.455 17.501,44.419 17.433,44.373 C17.364,44.327 17.267,44.282 17.139,44.236 C17.011,44.19 16.843,44.159 16.633,44.141 C16.423,44.122 16.154,44.127 15.826,44.154 C15.644,44.173 15.471,44.225 15.307,44.311 C15.143,44.398 14.997,44.505 14.869,44.633 C14.741,44.761 14.642,44.904 14.568,45.064 C14.495,45.223 14.459,45.376 14.459,45.522 C14.459,45.886 14.564,46.18 14.773,46.403 C14.983,46.627 15.243,46.822 15.553,46.991 C15.862,47.16 16.2,47.324 16.565,47.483 C16.929,47.643 17.269,47.837 17.583,48.065 C17.898,48.292 18.159,48.577 18.369,48.919 C18.579,49.261 18.684,49.7 18.684,50.238" id="Fill-111" fill="#FFFFFF"></path>
                <path d="M28.582,47.914 C28.582,48.762 28.475,49.509 28.261,50.156 C28.047,50.804 27.75,51.341 27.372,51.77 C26.994,52.198 26.552,52.522 26.046,52.74 C25.54,52.959 24.986,53.068 24.385,53.068 C23.783,53.068 23.23,52.959 22.724,52.74 C22.218,52.522 21.775,52.198 21.398,51.77 C21.02,51.341 20.723,50.804 20.509,50.156 C20.295,49.509 20.188,48.762 20.188,47.914 C20.188,47.066 20.295,46.321 20.509,45.679 C20.723,45.036 21.02,44.501 21.398,44.072 C21.775,43.644 22.218,43.318 22.724,43.095 C23.23,42.871 23.783,42.76 24.385,42.76 C24.986,42.76 25.54,42.871 26.046,43.095 C26.552,43.318 26.994,43.644 27.372,44.072 C27.75,44.501 28.047,45.036 28.261,45.679 C28.475,46.321 28.582,47.066 28.582,47.914 L28.582,47.914 Z M24.344,51.729 C24.681,51.729 25.002,51.662 25.308,51.53 C25.613,51.398 25.887,51.182 26.128,50.881 C26.369,50.58 26.559,50.185 26.695,49.698 C26.832,49.211 26.905,48.616 26.914,47.914 C26.905,47.23 26.834,46.649 26.702,46.171 C26.57,45.692 26.388,45.298 26.155,44.988 C25.923,44.679 25.658,44.455 25.362,44.318 C25.066,44.182 24.754,44.113 24.426,44.113 C24.089,44.113 23.768,44.177 23.462,44.305 C23.156,44.433 22.883,44.648 22.642,44.954 C22.4,45.26 22.211,45.653 22.074,46.137 C21.938,46.62 21.864,47.212 21.856,47.914 C21.864,48.598 21.936,49.181 22.067,49.664 C22.199,50.147 22.382,50.541 22.614,50.847 C22.847,51.152 23.111,51.375 23.407,51.517 C23.703,51.658 24.016,51.729 24.344,51.729 L24.344,51.729 Z" id="Fill-112" fill="#FFFFFF"></path>
                <polyline id="Fill-113" fill="#FFFFFF" points="38.18 42.924 38.18 53 36.512 53 32.561 46.055 32.561 53 30.893 53 30.893 42.924 32.561 42.924 36.512 49.869 36.512 42.924 38.18 42.924"></polyline>
                <path d="M13,19 L13,15 C13,14.449 13.448,14 14,14 C14.553,14 15,13.552 15,13 C15,12.448 14.553,12 14,12 C12.346,12 11,13.346 11,15 L11,19 C11,20.103 10.103,21 9,21 C8.447,21 8,21.448 8,22 C8,22.552 8.447,23 9,23 C10.103,23 11,23.897 11,25 L11,29 C11,30.654 12.346,32 14,32 C14.553,32 15,31.552 15,31 C15,30.448 14.553,30 14,30 C13.448,30 13,29.551 13,29 L13,25 C13,23.8 12.458,22.734 11.618,22 C12.458,21.266 13,20.2 13,19" id="Fill-114" fill="#9777A8"></path>
                <path d="M21,17 C20.172,17 19.5,17.672 19.5,18.5 C19.5,19.328 20.172,20 21,20 C21.828,20 22.5,19.328 22.5,18.5 C22.5,17.672 21.828,17 21,17" id="Fill-115" fill="#9777A8"></path>
                <path d="M33,21 C31.898,21 31,20.103 31,19 L31,15 C31,13.346 29.654,12 28,12 C27.447,12 27,12.448 27,13 C27,13.552 27.447,14 28,14 C28.552,14 29,14.449 29,15 L29,19 C29,20.2 29.542,21.266 30.382,22 C29.542,22.734 29,23.8 29,25 L29,29 C29,29.551 28.552,30 28,30 C27.447,30 27,30.448 27,31 C27,31.552 27.447,32 28,32 C29.654,32 31,30.654 31,29 L31,25 C31,23.897 31.898,23 33,23 C33.553,23 34,22.552 34,22 C34,21.448 33.553,21 33,21" id="Fill-116" fill="#9777A8"></path>
                <path d="M21,24 C20.447,24 20,24.448 20,25 L20,28 C20,28.552 20.447,29 21,29 C21.553,29 22,28.552 22,28 L22,25 C22,24.448 21.553,24 21,24" id="Fill-117" fill="#9777A8"></path>
            </g>
        </g>
    </g>
</svg>