<?xml version="1.0" encoding="UTF-8" standalone="no"?>
<svg width="42px" height="59px" viewBox="0 0 42 59" version="1.1" xmlns="http://www.w3.org/2000/svg" xmlns:xlink="http://www.w3.org/1999/xlink">
    <!-- Generator: Sketch 3.8.3 (29802) - http://www.bohemiancoding.com/sketch -->
    <title>66 -Video File- (Flat)</title>
    <desc>Created with Sketch.</desc>
    <defs></defs>
    <g id="Page-1" stroke="none" stroke-width="1" fill="none" fill-rule="evenodd">
        <g id="Icons" transform="translate(-726.000000, -1073.000000)">
            <g id="66--Video-File--(Flat)" transform="translate(726.000000, 1073.000000)">
                <path d="M42,12.014 L32,12.014 C30.895,12.014 30,11.119 30,10.014 L30,0.014 L42,12.014 Z" id="Fill-292" fill="#D4D0BA"></path>
                <path d="M42,12.014 L32,12.014 C30.895,12.014 30,11.119 30,10.014 L30,0.014 L2,0.014 C0.895,0.014 0,0.909 0,2.014 L0,56.014 C0,57.119 0.895,58.014 2,58.014 L40,58.014 C41.105,58.014 42,57.119 42,56.014 L42,12.014 Z" id="Fill-293" fill="#EFEADD"></path>
                <path d="M24,37.014 L8,37.014 C6.895,37.014 6,36.119 6,35.014 L6,23.014 C6,21.909 6.895,21.014 8,21.014 L24,21.014 C25.105,21.014 26,21.909 26,23.014 L26,35.014 C26,36.119 25.105,37.014 24,37.014" id="Fill-513" fill="#546080"></path>
                <path d="M33.4253,35.2416 L26.0003,33.0136 L26.0003,25.0136 L33.4253,22.7866 C34.7083,22.4016 36.0003,23.3626 36.0003,24.7016 L36.0003,33.3256 C36.0003,34.6656 34.7083,35.6266 33.4253,35.2416" id="Fill-514" fill="#374564"></path>
                <path d="M36,49.014 L26,49.014 C25.447,49.014 25,48.567 25,48.014 C25,47.461 25.447,47.014 26,47.014 L36,47.014 C36.553,47.014 37,47.461 37,48.014 C37,48.567 36.553,49.014 36,49.014" id="Fill-515" fill="#D4D0BA"></path>
                <path d="M31,53.014 L26,53.014 C25.447,53.014 25,52.567 25,52.014 C25,51.461 25.447,51.014 26,51.014 L31,51.014 C31.553,51.014 32,51.461 32,52.014 C32,52.567 31.553,53.014 31,53.014" id="Fill-516" fill="#D4D0BA"></path>
                <path d="M36,53.014 L35,53.014 C34.447,53.014 34,52.567 34,52.014 C34,51.461 34.447,51.014 35,51.014 L36,51.014 C36.553,51.014 37,51.461 37,52.014 C37,52.567 36.553,53.014 36,53.014" id="Fill-519" fill="#D4D0BA"></path>
            </g>
        </g>
    </g>
</svg>