<svg xmlns="http://www.w3.org/2000/svg" version="1.1" xmlns:xlink="http://www.w3.org/1999/xlink" xmlns:svgjs="http://svgjs.com/svgjs" viewBox="0 0 24 24" height="24" width="24"><g transform="matrix(1,0,0,1,0,0)"><path d="M 9.143,6.749l4.404-0.527l0.665,4.447 " stroke="currentColor" fill="none" stroke-width="2" stroke-linecap="round" stroke-linejoin="round"></path><path d="M 0.75,14.248v7.5c0,0.828,0.672,1.5,1.5,1.5h19.5 c0.828,0,1.5-0.672,1.5-1.5v-7.5 " stroke="currentColor" fill="none" stroke-width="2" stroke-linecap="round" stroke-linejoin="round"></path><path d="M 0.75,11.248h4.5 " stroke="currentColor" fill="none" stroke-width="2" stroke-linecap="round" stroke-linejoin="round"></path><path d="M 17.25,11.248h6 " stroke="currentColor" fill="none" stroke-width="2" stroke-linecap="round" stroke-linejoin="round"></path><path d="M 0.75,6.748v1.5 " stroke="currentColor" fill="none" stroke-width="2" stroke-linecap="round" stroke-linejoin="round"></path><path d="M 23.25,6.748v1.5 " stroke="currentColor" fill="none" stroke-width="2" stroke-linecap="round" stroke-linejoin="round"></path><path d="M 5.25,0.748h1.5 " stroke="currentColor" fill="none" stroke-width="2" stroke-linecap="round" stroke-linejoin="round"></path><path d="M 11.25,0.748 h1.5 " stroke="currentColor" fill="none" stroke-width="1.5" stroke-linecap="round" stroke-linejoin="round"></path><path d="M 17.25,0.748h1.5 " stroke="currentColor" fill="none" stroke-width="1.5" stroke-linecap="round" stroke-linejoin="round"></path><path d="M 2.25,0.748c-0.828,0-1.5,0.672-1.5,1.5l0,0 " stroke="currentColor" fill="none" stroke-width="1.5" stroke-linecap="round" stroke-linejoin="round"></path><path d="M 23.25,2.248c0-0.828-0.672-1.5-1.5-1.5 " stroke="currentColor" fill="none" stroke-width="1.5" stroke-linecap="round" stroke-linejoin="round"></path><path d="M 15,18.364 C12.304,17.41,10.501,14.86,10.5,12c0.034-2.302,1.166-4.448,3.047-5.776" stroke="currentColor" fill="none" stroke-width="1.5" stroke-linecap="round" stroke-linejoin="round"></path></g></svg>