<svg xmlns="http://www.w3.org/2000/svg" viewBox="0 0 16 16"><path d="M13.5 4.5v-1c0-.6-.4-1-1-1H9.8m-5.6 0H1.5c-.6 0-1 .4-1 1v11c0 .6.4 1 1 1H4" fill="none" stroke="currentColor" stroke-linecap="round" stroke-linejoin="round" stroke-miterlimit="10"/><path d="M9.6 3.2c-.1.2-.2.3-.5.3H4.9c-.2 0-.4-.1-.5-.3l-.7-2c0-.2 0-.4.1-.5.1-.1.2-.2.4-.2h5.6c.2 0 .3.1.4.2.1.1.1.3.1.5l-.7 2zM4.5 13.5H3c-.3 0-.5-.2-.5-.5V4.5m8 .5v1.5m-6 0h3m-3 3h1m3.2 5.6l-2.5.4.4-2.5L13 6.6c.6-.6 1.5-.6 2.1 0 .6.6.6 1.5 0 2.1l-6.4 6.4z" fill="none" stroke="currentColor" stroke-linecap="round" stroke-linejoin="round" stroke-miterlimit="10"/></svg>