<svg xmlns="http://www.w3.org/2000/svg" version="1.1" xmlns:xlink="http://www.w3.org/1999/xlink" xmlns:svgjs="http://svgjs.com/svgjs" viewBox="0 0 24 24"><g transform="matrix(1,0,0,1,0,0)"><path d="M 16.5,15.749h1.875c2.17,0.092,4.01-1.58,4.125-3.749l0,0c-0.114-2.17-1.954-3.842-4.125-3.75H16.5 " stroke="currentColor" fill="none" stroke-width="1.5" stroke-linecap="round" stroke-linejoin="round"></path><path d="M 7.5,15.749H5.625C3.455,15.841,1.615,14.169,1.5,12l0,0c0.115-2.169,1.955-3.842,4.125-3.75H7.5 " stroke="currentColor" fill="none" stroke-width="1.5" stroke-linecap="round" stroke-linejoin="round"></path><path d="M 12,5.249v-4.5 " stroke="currentColor" fill="none" stroke-width="1.5" stroke-linecap="round" stroke-linejoin="round"></path><path d="M 9,5.249 l-1.5-1.5 " stroke="currentColor" fill="none" stroke-width="1.5" stroke-linecap="round" stroke-linejoin="round"></path><path d="M 15,5.249l1.5-1.5 " stroke="currentColor" fill="none" stroke-width="1.5" stroke-linecap="round" stroke-linejoin="round"></path><path d="M 12,18.749v4.5 " stroke="currentColor" fill="none" stroke-width="1.5" stroke-linecap="round" stroke-linejoin="round"></path><path d="M 9,18.749l-1.5,1.5 " stroke="currentColor" fill="none" stroke-width="1.5" stroke-linecap="round" stroke-linejoin="round"></path><path d="M 15,18.749l1.5,1.5" stroke="currentColor" fill="none" stroke-width="1.5" stroke-linecap="round" stroke-linejoin="round"></path></g></svg>