<svg xmlns="http://www.w3.org/2000/svg" viewBox="0 0 24 24"><circle cx="17.759" cy="17.033" r="1.437" fill="none" stroke="currentColor" stroke-linecap="round" stroke-linejoin="round"/><path d="M18.981 11.472l.423 1.392a.953.953 0 0 0 1.125.652l1.411-.327a1.283 1.283 0 0 1 1.221 2.126l-.987 1.065a.96.96 0 0 0 0 1.3l.987 1.065a1.283 1.283 0 0 1-1.221 2.126l-1.411-.327a.952.952 0 0 0-1.129.656l-.423 1.392a1.276 1.276 0 0 1-2.443 0l-.42-1.392a.951.951 0 0 0-1.124-.653l-1.411.327a1.283 1.283 0 0 1-1.221-2.126l.987-1.065a.96.96 0 0 0 0-1.3l-.987-1.065a1.283 1.283 0 0 1 1.221-2.126l1.411.327a.951.951 0 0 0 1.124-.652l.424-1.392a1.276 1.276 0 0 1 2.443-.003z" fill="none" stroke="currentColor" stroke-linecap="round" stroke-linejoin="round"/><path d="M9.509 18.5h-7a2 2 0 0 1-2-2V2.51a2 2 0 0 1 2-2h14a2 2 0 0 1 2 2v7M.509 6.51h18M.509 12.501h10M12.509.51v10M6.509.51v17.991" fill="none" stroke="currentColor" stroke-linecap="round" stroke-linejoin="round"/></svg>
