<?xml version="1.0" encoding="UTF-8" standalone="no"?>
<svg width="50px" height="52px" viewBox="0 0 50 52" version="1.1" xmlns="http://www.w3.org/2000/svg" xmlns:xlink="http://www.w3.org/1999/xlink" xmlns:sketch="http://www.bohemiancoding.com/sketch/ns">
    <!-- Generator: Sketch 3.5.1 (25234) - http://www.bohemiancoding.com/sketch -->
    <title>276 - Picture (Flat)</title>
    <desc>Created with Sketch.</desc>
    <defs></defs>
    <g id="Page-1" stroke="none" stroke-width="1" fill="none" fill-rule="evenodd" sketch:type="MSPage">
        <g id="Icons" sketch:type="MSArtboardGroup" transform="translate(-605.000000, -1563.000000)">
            <g id="276---Picture-(Flat)" sketch:type="MSLayerGroup" transform="translate(606.000000, 1564.000000)">
                <path d="M0,0 L48,0 L48,50 L0,50 L0,0 Z" id="Fill-681" fill="#424A60" sketch:type="MSShapeGroup"></path>
                <path d="M0,0 L48,0 L48,50 L0,50 L0,0 Z" id="Stroke-682" stroke="#E8EDEE" stroke-width="2" sketch:type="MSShapeGroup"></path>
                <path d="M16.569,12.569 C16.569,15.092 14.523,17.138 12,17.138 C9.477,17.138 7.431,15.092 7.431,12.569 C7.431,10.046 9.477,8 12,8 C14.523,8 16.569,10.046 16.569,12.569" id="Fill-1868" fill="#F0CE49" sketch:type="MSShapeGroup"></path>
                <path d="M0,40 L48,40 L48,50 L0,50 L0,40 Z" id="Fill-1869" fill="#E8EDEE" sketch:type="MSShapeGroup"></path>
                <path d="M47,31.111 L46,30 L34,19 L23.5,30.5 L33,40 L47,40 L47,31.111" id="Fill-2555" fill="#199172" sketch:type="MSShapeGroup"></path>
                <path d="M28.983,35.983 L18.017,25.017 L1,40 L33,40 L28.983,35.983" id="Fill-2562" fill="#25AE88" sketch:type="MSShapeGroup"></path>
            </g>
        </g>
    </g>
</svg>