<svg xmlns="http://www.w3.org/2000/svg" viewBox="0 0 24 24"><path d="M1.012 11.942a8.5 8.5 0 0 1 15.022-7.685M15.01 15.041l2.333 2.332M23 20.909a1.5 1.5 0 1 1-2.121 2.121l-3.889-3.889a1 1 0 0 1 0-1.414l.707-.707a1 1 0 0 1 1.414 0z" fill="none" stroke="currentColor" stroke-linecap="round" stroke-linejoin="round"/><path d="M.5 15.53l8.793-8.793a1 1 0 0 1 1.414 0l2.586 2.586a1 1 0 0 0 1.414 0L23.5.53" fill="none" stroke="currentColor" stroke-linecap="round" stroke-linejoin="round"/><path fill="none" stroke="currentColor" stroke-linecap="round" stroke-linejoin="round" d="M20.5.53h3v3m-6.015 6.016a8.5 8.5 0 0 1-13.923 6.017"/></svg>