<svg xmlns="http://www.w3.org/2000/svg" viewBox="0 0 24 24"><path fill="none" stroke="currentColor" stroke-linecap="round" stroke-linejoin="round" d="M.5 6.504h20M3.5 4.254h0M3.5 4.254a.25.25 0 1 0 .25.25.25.25 0 0 0-.25-.25M5.5 4.254h0M5.5 4.254a.25.25 0 1 0 .25.25.25.25 0 0 0-.25-.25M7.5 4.254h0M7.5 4.254a.25.25 0 1 0 .25.25.25.25 0 0 0-.25-.25"/><rect x=".5" y="2.504" width="20" height="15" rx="2" ry="2" fill="none" stroke="currentColor" stroke-linecap="round" stroke-linejoin="round"/><path fill="none" stroke="currentColor" stroke-linecap="round" stroke-linejoin="round" d="M20.5 10.504h3M20.5 6.5h1a2 2 0 0 1 2 2v11a2 2 0 0 1-2 2h-16a2 2 0 0 1-2-2v-2"/></svg>