<svg xmlns="http://www.w3.org/2000/svg" viewBox="0 0 16 16"><g fill="none" stroke="currentColor" stroke-linecap="round" stroke-linejoin="round" stroke-miterlimit="10"><path d="M15.5 13.5c0 1.1-.9 2-2 2M13.5 2.5c1.1 0 2 .9 2 2M4.5 15.5c-1.1 0-2-.9-2-2M2.5 8.5v2M15.5 7.5v3M10.5 15.5h-3M10.5 2.5h-2"/></g><path fill="none" stroke="currentColor" stroke-linecap="round" stroke-linejoin="round" stroke-miterlimit="10" d="M.5.5l2.1 5.7 1.1-2.5 2.5-1.1zM11.5 5.5S12 5 13 5M11.5 5.5S11 5 10 5M11.5 13s.5.5 1.5.5M11.5 13s-.5.5-1.5.5M11.5 13V5.5"/></svg>