<?xml version="1.0" encoding="UTF-8" standalone="no"?><svg xmlns="http://www.w3.org/2000/svg" xmlns:xlink="http://www.w3.org/1999/xlink"><symbol viewBox="0 0 43 56" id="file-archive" xmlns="http://www.w3.org/2000/svg"><title>2 - ZIP File (document, format, extension, file, type, flat)</title><g fill="none" fill-rule="evenodd"><path d="M30.485 0H1.463C.655 0 0 .655 0 1.926V55c0 .345.655 1 1.463 1h40.074c.808 0 1.463-.655 1.463-1V12.978c0-.696-.093-.92-.257-1.085L31.107.257A.884.884 0 0 0 30.485 0" fill="#E9E9E0"/><path fill="#D9D7CA" d="M31 .151V12h11.849L31 .151"/><path fill="#C8BDB8" d="M20 42h2v13.94h-2zM24 23v-2h-2v-2h-2v2h-2v2h2v2h-2v2h2v2h-2v2h2v3h2v-3h2v-2h-2v-2h2v-2h-2v-2h2"/><path fill="#CBB292" d="M17 34h8v8h-8z"/><path stroke="#5E5F62" stroke-width="2" d="M17 34h8v8h-8zM25 37h-8z"/></g></symbol><symbol viewBox="0 0 42 59" id="file-audio" xmlns="http://www.w3.org/2000/svg"><title>67 -Music File- (Flat)</title><g fill="none" fill-rule="evenodd"><path d="M42 12.014H32a2 2 0 0 1-2-2v-10l12 12z" fill="#D4D0BA"/><path d="M42 12.014H32a2 2 0 0 1-2-2v-10H2a2 2 0 0 0-2 2v54a2 2 0 0 0 2 2h38a2 2 0 0 0 2-2v-44z" fill="#EFEADD"/><path d="M18 41.014a4 4 0 0 1 0-8h4v4a4 4 0 0 1-4 4" fill="#F38774"/><path d="M21 34.014h-.002A1 1 0 0 1 20 33.012l.031-19a1 1 0 0 1 1.755-.653l4.154 4.784a8.487 8.487 0 0 1 1.657 8.241l-.613 1.933a1 1 0 1 1-1.906-.606l.617-1.946a6.487 6.487 0 0 0-1.262-6.309l-2.406-2.77L22 33.016a1 1 0 0 1-1 .998" fill="#F38774"/><path d="M36 49.014H26a1 1 0 1 1 0-2h10a1 1 0 1 1 0 2M31 53.014h-5a1 1 0 1 1 0-2h5a1 1 0 1 1 0 2M36 53.014h-1a1 1 0 1 1 0-2h1a1 1 0 1 1 0 2" fill="#D4D0BA"/></g></symbol><symbol viewBox="0 0 42 59" id="file-doc" xmlns="http://www.w3.org/2000/svg"><title>54 -DOCX File- (document, paper, write, note, flat)</title><g fill="none" fill-rule="evenodd"><path d="M42 12.014H32a2 2 0 0 1-2-2v-10l12 12z" fill="#D4D0BA"/><path d="M42 12.014H32a2 2 0 0 1-2-2v-10H2a2 2 0 0 0-2 2v54a2 2 0 0 0 2 2h38a2 2 0 0 0 2-2v-44z" fill="#EFEADD"/><path d="M8.72 24.014L10 20.176l1.279 3.838H8.72zm6.229 4.684l-4-12a1 1 0 0 0-1.897 0l-4 12a.998.998 0 0 0 .632 1.264.998.998 0 0 0 1.265-.632l1.105-3.316h3.892l1.106 3.316a.999.999 0 1 0 1.897-.632z" fill="#71C385"/><path d="M36 18.014H18a1 1 0 1 1 0-2h18a1 1 0 1 1 0 2M36 24.014H18a1 1 0 1 1 0-2h18a1 1 0 1 1 0 2M36 30.014H18a1 1 0 1 1 0-2h18a1 1 0 1 1 0 2M36 36.014H6a1 1 0 1 1 0-2h30a1 1 0 1 1 0 2M36 42.014H6a1 1 0 1 1 0-2h30a1 1 0 1 1 0 2M36 48.014H6a1 1 0 1 1 0-2h30a1 1 0 1 1 0 2" fill="#D4D0BA"/></g></symbol><symbol viewBox="0 0 43 56" id="file-excel" xmlns="http://www.w3.org/2000/svg"><title>19 - XLS File (document, format, extension, file, type, flat)</title><g fill="none" fill-rule="evenodd"><path d="M30.485 0H1.463C.655 0 0 .655 0 1.926V55c0 .345.655 1 1.463 1h40.074c.808 0 1.463-.655 1.463-1V12.978c0-.696-.093-.92-.257-1.085L31.107.257A.884.884 0 0 0 30.485 0" fill="#E9E9E0"/><path fill="#D9D7CA" d="M31 .151V12h11.849L31 .151"/><path d="M41.537 56H1.463A1.463 1.463 0 0 1 0 54.537V39h43v15.537c0 .808-.655 1.463-1.463 1.463" fill="#91CDA0"/><path fill="#FFF" d="M13.879 48.106L16.436 53h-1.901l-1.599-3.801h-.137L11.076 53h-1.9l2.556-4.894-2.72-5.182h1.873l1.777 4.101h.137l1.928-4.101H16.6l-2.721 5.182M20.537 42.924v8.832h4.635V53h-6.303V42.924h1.668M32.541 50.238c0 .365-.075.718-.226 1.06-.15.342-.362.642-.635.902-.274.26-.611.467-1.012.622a3.771 3.771 0 0 1-1.367.233c-.219 0-.445-.012-.677-.034a5.527 5.527 0 0 1-.704-.117 3.684 3.684 0 0 1-.677-.225 2.147 2.147 0 0 1-.553-.349l.287-1.176c.127.073.289.144.485.212.196.069.398.132.608.192.21.059.419.107.629.143.21.036.406.055.588.055.556 0 .982-.13 1.278-.39.296-.26.445-.644.445-1.155 0-.31-.105-.574-.315-.793a3.383 3.383 0 0 0-.786-.595 19.719 19.719 0 0 0-1.018-.533 6.224 6.224 0 0 1-1.026-.629 3.281 3.281 0 0 1-.793-.854c-.21-.328-.314-.739-.314-1.231 0-.446.082-.843.246-1.189a2.65 2.65 0 0 1 .663-.882c.278-.241.602-.426.971-.554a3.542 3.542 0 0 1 1.169-.191c.419 0 .842.039 1.271.116.428.077.775.203 1.039.376a9.635 9.635 0 0 1-.191.39l-.205.396c-.064.123-.119.226-.164.308a1.257 1.257 0 0 1-.082.136 1.566 1.566 0 0 1-.185-.109 1.367 1.367 0 0 0-.294-.137 2.055 2.055 0 0 0-.506-.095 4.861 4.861 0 0 0-.806.013 1.408 1.408 0 0 0-.52.158c-.164.086-.31.193-.437.321a1.473 1.473 0 0 0-.301.43c-.073.16-.11.313-.11.458 0 .365.105.659.315.882.209.224.469.419.779.588.31.169.647.333 1.012.492.364.16.704.354 1.018.582.315.227.577.512.787.854.209.342.314.781.314 1.319"/><path d="M17 16v-4H5v22h33V16H17zM7 14h8v2H7v-2zm0 4h8v2H7v-2zm0 4h8v2H7v-2zm0 4h8v2H7v-2zm0 4h8v2H7v-2zm10 0h19v2H17v-2zm0-4h19v2H17v-2zm0-4h19v2H17v-2zm0-4h19v2H17v-2z" fill="#C8BDB8"/></g></symbol><symbol viewBox="0 0 42 59" id="file-generic" xmlns="http://www.w3.org/2000/svg"><title>51 -File- (Flat)</title><g fill="none" fill-rule="evenodd"><path d="M42 12.014H32a2 2 0 0 1-2-2v-10l12 12z" fill="#D4D0BA"/><path d="M42 12.014H32a2 2 0 0 1-2-2v-10H2a2 2 0 0 0-2 2v54a2 2 0 0 0 2 2h38a2 2 0 0 0 2-2v-44z" fill="#EFEADD"/><path d="M24 13.014H6a1 1 0 1 1 0-2h18a1 1 0 1 1 0 2M36 19.014H6a1 1 0 1 1 0-2h30a1 1 0 1 1 0 2M36 25.014H6a1 1 0 1 1 0-2h30a1 1 0 1 1 0 2M36 31.014H6a1 1 0 1 1 0-2h30a1 1 0 1 1 0 2M36 37.014H6a1 1 0 1 1 0-2h30a1 1 0 1 1 0 2M36 43.014H6a1 1 0 1 1 0-2h30a1 1 0 1 1 0 2M36 49.014H6a1 1 0 1 1 0-2h30a1 1 0 1 1 0 2" fill="#D4D0BA"/></g></symbol><symbol viewBox="0 0 43 56" id="file-json" xmlns="http://www.w3.org/2000/svg"><title>25 - JSON File (document, format, extension, file, type, flat)</title><g fill="none" fill-rule="evenodd"><path d="M30.485 0H1.463C.655 0 0 .655 0 1.926V55c0 .345.655 1 1.463 1h40.074c.808 0 1.463-.655 1.463-1V12.978c0-.696-.093-.92-.257-1.085L31.107.257A.884.884 0 0 0 30.485 0" fill="#E9E9E0"/><path fill="#D9D7CA" d="M31 .151V12h11.849L31 .151"/><path d="M41.537 56H1.463A1.463 1.463 0 0 1 0 54.537V39h43v15.537c0 .808-.655 1.463-1.463 1.463" fill="#9777A8"/><path d="M10.522 42.719v7.847c0 .474-.087.874-.26 1.197a2.142 2.142 0 0 1-.697.779 2.778 2.778 0 0 1-1.005.41 5.845 5.845 0 0 1-1.169.116c-.201 0-.436-.02-.704-.061a5.99 5.99 0 0 1-.834-.192 9.054 9.054 0 0 1-.828-.293 3.079 3.079 0 0 1-.669-.37l.697-1.107c.091.063.22.13.389.198s.354.132.554.192c.2.059.41.111.629.157.219.046.424.068.615.068.484 0 .868-.094 1.156-.28.287-.187.439-.504.458-.95v-7.711h1.668M18.684 50.238c0 .365-.076.718-.226 1.06a2.76 2.76 0 0 1-.636.902c-.273.26-.61.467-1.012.622a3.746 3.746 0 0 1-1.367.233c-.218 0-.444-.012-.676-.034a5.497 5.497 0 0 1-.704-.117 3.659 3.659 0 0 1-.677-.225 2.17 2.17 0 0 1-.554-.349l.287-1.176c.128.074.289.144.486.212.196.069.398.132.608.192.21.059.419.107.629.143.21.036.405.055.588.055.555 0 .982-.13 1.278-.39.296-.26.444-.644.444-1.155 0-.31-.104-.574-.314-.793a3.405 3.405 0 0 0-.786-.595 19.765 19.765 0 0 0-1.019-.533 6.256 6.256 0 0 1-1.025-.629 3.281 3.281 0 0 1-.793-.854c-.21-.328-.315-.739-.315-1.231 0-.446.082-.843.247-1.189.164-.347.384-.641.663-.882a2.93 2.93 0 0 1 .97-.554 3.542 3.542 0 0 1 1.169-.191c.419 0 .843.039 1.272.116.428.077.774.203 1.039.376a9.747 9.747 0 0 1-.192.39l-.205.396a9.433 9.433 0 0 1-.164.308 1.095 1.095 0 0 1-.082.136 1.647 1.647 0 0 1-.184-.109 1.39 1.39 0 0 0-.294-.137 2.055 2.055 0 0 0-.506-.095 4.873 4.873 0 0 0-.807.013 1.426 1.426 0 0 0-.519.157c-.164.087-.31.194-.438.322a1.483 1.483 0 0 0-.301.431 1.097 1.097 0 0 0-.109.458c0 .364.105.658.314.881.21.224.47.419.78.588.309.169.647.333 1.012.492.364.16.704.354 1.018.582.315.227.576.512.786.854.21.342.315.781.315 1.319M28.582 47.914c0 .848-.107 1.595-.321 2.242-.214.648-.511 1.185-.889 1.614-.378.428-.82.752-1.326.97a4.138 4.138 0 0 1-1.661.328 4.135 4.135 0 0 1-1.661-.328 3.708 3.708 0 0 1-1.326-.97c-.378-.429-.675-.966-.889-1.614-.214-.647-.321-1.394-.321-2.242 0-.848.107-1.593.321-2.235.214-.643.511-1.178.889-1.607.377-.428.82-.754 1.326-.977a4.055 4.055 0 0 1 1.661-.335c.601 0 1.155.111 1.661.335.506.223.948.549 1.326.977.378.429.675.964.889 1.607.214.642.321 1.387.321 2.235zm-4.238 3.815c.337 0 .658-.067.964-.199.305-.132.579-.348.82-.649.241-.301.431-.696.567-1.183.137-.487.21-1.082.219-1.784-.009-.684-.08-1.265-.212-1.743-.132-.479-.314-.873-.547-1.183a2.109 2.109 0 0 0-.793-.67 2.217 2.217 0 0 0-.936-.205c-.337 0-.658.064-.964.192a2.056 2.056 0 0 0-.82.649c-.242.306-.431.699-.568 1.183-.136.483-.21 1.075-.218 1.777.008.684.08 1.267.211 1.75.132.483.315.877.547 1.183.233.305.497.528.793.67.296.141.609.212.937.212zM38.18 42.924V53h-1.668l-3.951-6.945V53h-1.668V42.924h1.668l3.951 6.945v-6.945h1.668" fill="#FFF"/><path d="M13 19v-4c0-.551.448-1 1-1a1 1 0 1 0 0-2c-1.654 0-3 1.346-3 3v4c0 1.103-.897 2-2 2a1 1 0 1 0 0 2c1.103 0 2 .897 2 2v4c0 1.654 1.346 3 3 3a1 1 0 1 0 0-2c-.552 0-1-.449-1-1v-4c0-1.2-.542-2.266-1.382-3A3.975 3.975 0 0 0 13 19M21 17a1.5 1.5 0 1 0 .001 3.001A1.5 1.5 0 0 0 21 17M33 21c-1.102 0-2-.897-2-2v-4c0-1.654-1.346-3-3-3a1 1 0 1 0 0 2c.552 0 1 .449 1 1v4c0 1.2.542 2.266 1.382 3A3.975 3.975 0 0 0 29 25v4c0 .551-.448 1-1 1a1 1 0 1 0 0 2c1.654 0 3-1.346 3-3v-4c0-1.103.898-2 2-2a1 1 0 1 0 0-2M21 24a1 1 0 0 0-1 1v3a1 1 0 1 0 2 0v-3a1 1 0 0 0-1-1" fill="#9777A8"/></g></symbol><symbol viewBox="0 0 42 59" id="file-layered" xmlns="http://www.w3.org/2000/svg"><title>68 -PSD File- (document, paper, write, note, flat)</title><g fill="none" fill-rule="evenodd"><path d="M42 12.014H32a2 2 0 0 1-2-2v-10l12 12z" fill="#D4D0BA"/><path d="M42 12.014H32a2 2 0 0 1-2-2v-10H2a2 2 0 0 0-2 2v54a2 2 0 0 0 2 2h38a2 2 0 0 0 2-2v-44z" fill="#EFEADD"/><path d="M36 49.014H26a1 1 0 1 1 0-2h10a1 1 0 1 1 0 2M31 53.014h-5a1 1 0 1 1 0-2h5a1 1 0 1 1 0 2M36 53.014h-1a1 1 0 1 1 0-2h1a1 1 0 1 1 0 2" fill="#D4D0BA"/><path fill="#26B999" d="M26 30.014H6l10-12h20z"/><path fill="#6BDDC0" d="M26 30.014H11l-5 6h20l10-12h-5z"/><path fill="#26B999" d="M26 36.014H11l-5 6h20l10-12h-5z"/></g></symbol><symbol viewBox="0 0 43 56" id="file-pdf" xmlns="http://www.w3.org/2000/svg"><title>28 - PDF File (document, format, extension, file, type, flat)</title><g fill="none" fill-rule="evenodd"><path d="M30.485 0H1.463C.655 0 0 .655 0 1.926V55c0 .345.655 1 1.463 1h40.074c.808 0 1.463-.655 1.463-1V12.978c0-.696-.093-.92-.257-1.085L31.107.257A.884.884 0 0 0 30.485 0" fill="#E9E9E0"/><path fill="#D9D7CA" d="M31 .151V12h11.849L31 .151"/><path d="M13.014 33.324c-.348 0-.682-.113-.967-.326-1.041-.782-1.181-1.651-1.115-2.243.182-1.627 2.195-3.332 5.985-5.068 1.504-3.296 2.935-7.357 3.788-10.75-.998-2.173-1.967-4.99-1.261-6.644.248-.578.558-1.023 1.134-1.215a4.92 4.92 0 0 1 1.016-.172c.504 0 .947.649 1.261 1.049.295.377.964 1.174-.373 6.803 1.348 2.783 3.257 5.619 5.088 7.561 1.311-.237 2.439-.358 3.358-.358 1.566 0 2.515.366 2.902 1.117.32.622.188 1.349-.391 2.16-.557.779-1.324 1.191-2.22 1.191-1.216 0-2.632-.768-4.211-2.285-2.838.593-6.151 1.651-8.829 2.822-.836 1.774-1.637 3.203-2.383 4.251-1.023 1.437-1.907 2.107-2.782 2.107zm2.662-5.126c-2.138 1.201-3.009 2.188-3.071 2.744-.01.092-.037.334.431.692.149-.047 1.019-.444 2.64-3.436zm13.637-4.442c.815.627 1.014.944 1.547.944.234 0 .902-.01 1.21-.441.149-.209.207-.343.229-.414-.122-.066-.285-.197-1.175-.197-.504 0-1.139.021-1.811.108zm-7.47-6.582a71.74 71.74 0 0 1-2.674 7.564 49.966 49.966 0 0 1 6.496-2.02c-1.35-1.568-2.699-3.526-3.822-5.544zm-.607-8.462c-.098.033-1.33 1.757.096 3.216.949-2.115-.053-3.23-.096-3.216zM41.537 56H1.463A1.463 1.463 0 0 1 0 54.537V39h43v15.537c0 .808-.655 1.463-1.463 1.463" fill="#CC4B4C"/><path d="M10.885 53H9.244V42.924h2.899c.428 0 .852.068 1.271.205.419.137.795.342 1.128.615.333.274.602.604.807.991.205.388.307.823.307 1.306 0 .511-.087.973-.259 1.388a2.934 2.934 0 0 1-.725 1.046c-.31.282-.684.501-1.121.656a4.318 4.318 0 0 1-1.449.232h-1.217V53zm0-8.832v3.992h1.504c.2 0 .398-.034.594-.102.196-.069.376-.18.54-.335.165-.156.296-.371.397-.65.1-.278.15-.622.15-1.032a2.8 2.8 0 0 0-.068-.567 1.648 1.648 0 0 0-.28-.616 1.657 1.657 0 0 0-.595-.492c-.255-.132-.593-.198-1.012-.198h-1.23zM25.719 47.682c0 .829-.089 1.538-.267 2.126-.178.588-.403 1.08-.677 1.476a3.475 3.475 0 0 1-.922.937 4.629 4.629 0 0 1-.992.512c-.319.115-.61.187-.875.219-.264.032-.46.048-.588.048h-3.814V42.924h3.035c.848 0 1.593.135 2.236.403.642.269 1.175.627 1.599 1.073.424.447.74.955.95 1.525.21.569.315 1.155.315 1.757zm-4.867 4.115c1.111 0 1.914-.356 2.406-1.067.492-.71.738-1.741.738-3.089 0-.419-.05-.834-.15-1.244a2.659 2.659 0 0 0-.581-1.115c-.287-.333-.677-.601-1.169-.806-.492-.205-1.131-.308-1.914-.308h-.957v7.629h1.627zM29.766 44.168v3.172h4.211v1.121h-4.211V53h-1.668V42.924H34.4v1.244h-4.634" fill="#FFF"/></g></symbol><symbol viewBox="0 0 42 59" id="file-presentation" xmlns="http://www.w3.org/2000/svg"><title>59 -PPTX File- (document, paper, write, note, flat)</title><g fill="none" fill-rule="evenodd"><path d="M42 12.014H32a2 2 0 0 1-2-2v-10l12 12z" fill="#D4D0BA"/><path d="M42 12.014H32a2 2 0 0 1-2-2v-10H2a2 2 0 0 0-2 2v54a2 2 0 0 0 2 2h38a2 2 0 0 0 2-2v-44z" fill="#EFEADD"/><path d="M22 13.014v12h12c0-6.627-5.373-12-12-12" fill="#F38774"/><path d="M18 29.014v-12c-4.026 0-7.58 1.989-9.756 5.031L18 29.014z" fill="#F0C41A"/><path d="M8.268 22.013A11.904 11.904 0 0 0 6 29.014c0 6.627 5.372 12 12 12 6.627 0 12-5.373 12-12H18l-9.757-6.969" fill="#26B999"/><path d="M36 49.014H26a1 1 0 1 1 0-2h10a1 1 0 1 1 0 2M31 53.014h-5a1 1 0 1 1 0-2h5a1 1 0 1 1 0 2M36 53.014h-1a1 1 0 1 1 0-2h1a1 1 0 1 1 0 2" fill="#D4D0BA"/></g></symbol><symbol viewBox="0 0 42 59" id="file-video" xmlns="http://www.w3.org/2000/svg"><title>66 -Video File- (Flat)</title><g fill="none" fill-rule="evenodd"><path d="M42 12.014H32a2 2 0 0 1-2-2v-10l12 12z" fill="#D4D0BA"/><path d="M42 12.014H32a2 2 0 0 1-2-2v-10H2a2 2 0 0 0-2 2v54a2 2 0 0 0 2 2h38a2 2 0 0 0 2-2v-44z" fill="#EFEADD"/><path d="M24 37.014H8a2 2 0 0 1-2-2v-12a2 2 0 0 1 2-2h16a2 2 0 0 1 2 2v12a2 2 0 0 1-2 2" fill="#546080"/><path d="M33.425 35.242L26 33.014v-8l7.425-2.227A2 2 0 0 1 36 24.702v8.624a2 2 0 0 1-2.575 1.916" fill="#374564"/><path d="M36 49.014H26a1 1 0 1 1 0-2h10a1 1 0 1 1 0 2M31 53.014h-5a1 1 0 1 1 0-2h5a1 1 0 1 1 0 2M36 53.014h-1a1 1 0 1 1 0-2h1a1 1 0 1 1 0 2" fill="#D4D0BA"/></g></symbol><symbol viewBox="0 0 43 56" id="file-xml" xmlns="http://www.w3.org/2000/svg"><title>24 - XML File (document, format, extension, file, type, flat)</title><g fill="none" fill-rule="evenodd"><path d="M30.485 0H1.463C.655 0 0 .655 0 1.926V55c0 .345.655 1 1.463 1h40.074c.808 0 1.463-.655 1.463-1V12.978c0-.696-.093-.92-.257-1.085L31.107.257A.884.884 0 0 0 30.485 0" fill="#E9E9E0"/><path fill="#D9D7CA" d="M31 .151V12h11.849L31 .151"/><path d="M41.537 56H1.463A1.463 1.463 0 0 1 0 54.537V39h43v15.537c0 .808-.655 1.463-1.463 1.463" fill="#F29C1F"/><path fill="#FFF" d="M12.879 48.105L15.436 53h-1.901l-1.599-3.801h-.137L10.076 53h-1.9l2.556-4.895-2.72-5.181h1.873l1.777 4.101h.137l1.928-4.101H15.6l-2.721 5.181M25.498 42.924h1.668V53h-1.668v-6.932l-2.256 5.606h-1.449l-2.27-5.606V53h-1.667V42.924h1.667l2.995 6.891 2.98-6.891M31.363 42.924v8.832h4.635V53h-6.303V42.924h1.668"/><path d="M9 24a.999.999 0 0 1-.707-1.707l6-6a.999.999 0 1 1 1.414 1.414l-6 6A.997.997 0 0 1 9 24" fill="#F29C1F"/><path d="M15 30a.997.997 0 0 1-.707-.293l-6-6a.999.999 0 1 1 1.414-1.414l6 6A.999.999 0 0 1 15 30M27 30a.999.999 0 0 1-.707-1.707l6-6a.999.999 0 1 1 1.414 1.414l-6 6A.997.997 0 0 1 27 30" fill="#F29C1F"/><path d="M33 24a.997.997 0 0 1-.707-.293l-6-6a.999.999 0 1 1 1.414-1.414l6 6A.999.999 0 0 1 33 24M18 32a1 1 0 0 1-.943-1.333l6-17a1 1 0 1 1 1.886.666l-6 17A1 1 0 0 1 18 32" fill="#F29C1F"/></g></symbol><symbol viewBox="0 0 58 51" id="folder" xmlns="http://www.w3.org/2000/svg"><title>65 - Folder (Flat)</title><g fill="none" fill-rule="evenodd"><path d="M55.981 51H2.019A2.02 2.02 0 0 1 0 48.981V17h58v31.981A2.02 2.02 0 0 1 55.981 51" fill="#F0CE49"/><path d="M26.019 8V2.019A2.02 2.02 0 0 0 24 0H2.019A2.02 2.02 0 0 0 0 2.019V17h58v-6.981A2.02 2.02 0 0 0 55.981 8H26.019" fill="#ECBA16"/></g></symbol><symbol viewBox="0 0 50 52" id="picture" xmlns="http://www.w3.org/2000/svg"><title>276 - Picture (Flat)</title><g transform="translate(1 1)" fill="none" fill-rule="evenodd"><path d="M0 0h48v50H0V0z" fill="#424A60"/><path d="M0 0h48v50H0V0z" stroke="#E8EDEE" stroke-width="2"/><path d="M16.569 12.569a4.57 4.57 0 1 1-9.139-.001 4.57 4.57 0 0 1 9.139.001" fill="#F0CE49"/><path d="M0 40h48v10H0V40z" fill="#E8EDEE"/><path d="M47 31.111L46 30 34 19 23.5 30.5 33 40h14v-8.889" fill="#199172"/><path d="M28.983 35.983L18.017 25.017 1 40h32l-4.017-4.017" fill="#25AE88"/></g></symbol><symbol viewBox="0 0 438.5 84.9" id="statamic-logo" xmlns="http://www.w3.org/2000/svg"><g fill="#3C4858"><path d="M2.7 69.2c.9-1.1 1.8-1.6 3-1.6s2.5.5 3.7 1.4c3.9 2.6 8.4 4.1 13.7 4.1 4.1 0 7.3-1.7 7.3-5.2 0-9-29.9-4.1-29.9-24.2 0-10.8 8.9-16.9 20.3-16.9 8.1 0 14 2.3 18.5 5.2 1.1.7 1.8 2.2 1.8 3.7 0 .9-.2 1.7-.7 2.5l-1.4 2c-1 1.4-2.1 2-3.4 2-1 0-2-.4-3.1-.9-3.3-1.7-6.8-2.6-10.9-2.6-4.3 0-6.9 2.3-6.9 4.8 0 9.2 29.9 4.2 29.9 23.7 0 10.9-8.9 17.7-22.4 17.7-8.6 0-14.9-2.6-20.7-7.6-1-.9-1.4-2-1.4-3.1 0-.9.2-1.8.9-2.6l1.7-2.4zM88.3 75c.4.6.6 1.4.6 2.1 0 1.6-.7 3.2-2.1 3.9-4.2 2.5-8.4 3.7-13.9 3.7-12.5 0-17.2-8.1-17.2-22.3V17.3c0-2.5 2.1-4.6 4.6-4.6h5c2.5 0 4.6 2.1 4.6 4.6v10.8h13.3c2.5 0 4.6 2.1 4.6 4.6v4.2c0 2.5-2.1 4.6-4.6 4.6H69.9v20.2c0 6 2 10 6.6 10 1.5 0 2.8-.2 3.9-.6s2-.6 2.8-.6c1.6 0 2.8.7 3.8 2.5l1.3 2zM96.9 67.3c0-12.2 9-18 20.2-18 4.9 0 9.8 1.6 12.5 3.6v-1.7c0-8.1-2.6-12.5-10.3-12.5-4.2 0-6.9.6-9.5 1.5-.7.2-1.5.4-2.2.4-1.8 0-3.3-.9-4.2-2.6l-.7-1.5c-.2-.6-.5-1.2-.5-2 0-1.6 1.1-3.2 2.6-3.9 4.8-2.2 10.3-3.7 16-3.7 16.4 0 22.1 8.4 22.1 23V79c0 2.5-2.1 4.6-4.6 4.6h-3.2c-2.5 0-4.6-2.1-4.6-4.6v-1.8c-3 4.2-8.9 7.1-16.4 7.1-9.9 0-17.2-6.3-17.2-17zm32.7-5.7c-2.5-1.8-5.7-2.7-9.7-2.7-4.7 0-8.9 2.2-8.9 6.9 0 4.2 3.4 6.5 7.9 6.5 5.9 0 9-2.6 10.7-5v-5.7zM188.8 75c.4.6.6 1.4.6 2.1 0 1.6-.7 3.2-2.1 3.9-4.2 2.5-8.4 3.7-13.9 3.7-12.5 0-17.2-8.1-17.2-22.3V17.3c0-2.5 2.1-4.6 4.6-4.6h5c2.5 0 4.6 2.1 4.6 4.6v10.8h13.3c2.5 0 4.6 2.1 4.6 4.6v4.2c0 2.5-2.1 4.6-4.6 4.6h-13.3v20.2c0 6 2 10 6.6 10 1.5 0 2.8-.2 3.9-.6s2-.6 2.8-.6c1.6 0 2.8.7 3.8 2.5l1.3 2zM197.4 67.3c0-12.2 9-18 20.2-18 4.9 0 9.8 1.6 12.5 3.6v-1.7c0-8.1-2.6-12.5-10.3-12.5-4.2 0-6.9.6-9.5 1.5-.7.2-1.5.4-2.2.4-1.8 0-3.3-.9-4.2-2.6l-.7-1.5c-.2-.6-.5-1.2-.5-2 0-1.6 1.1-3.2 2.6-3.9 4.8-2.2 10.3-3.7 16-3.7 16.4 0 22.1 8.4 22.1 23V79c0 2.5-2.1 4.6-4.6 4.6h-3.2c-2.5 0-4.6-2.1-4.6-4.6v-1.8c-3 4.2-8.9 7.1-16.4 7.1-9.9 0-17.2-6.3-17.2-17zm32.7-5.7c-2.5-1.8-5.7-2.7-9.7-2.7-4.7 0-8.9 2.2-8.9 6.9 0 4.2 3.4 6.5 7.9 6.5 5.9 0 9-2.6 10.7-5v-5.7zM272.1 34.3c3.9-4.4 10.5-7.1 17.3-7.1 8.5 0 14.1 3.8 16.1 8.9 3.9-5.2 10.1-8.9 18.7-8.9 10.1 0 17.7 5 17.7 20.2V79c0 2.5-2.1 4.6-4.6 4.6h-5c-2.5 0-4.6-2.1-4.6-4.6V51c0-6.9-2.8-10.6-9.5-10.6-5.3 0-9.5 2.6-11.4 6.4 0 .9.1 2.8.1 4.1v28c0 2.5-2.1 4.6-4.6 4.6h-5c-2.5 0-4.6-2.1-4.6-4.6V50.1c0-5.8-3.2-9.6-9.2-9.6-5 0-9.1 2.2-11.6 5.9V79c0 2.5-2.1 4.6-4.6 4.6h-5c-2.5 0-4.6-2.1-4.6-4.6V32.7c0-2.5 2.1-4.6 4.6-4.6h5c2.5 0 4.6 2.1 4.6 4.6v1.6zM373.9 8.2c0 5.7-4.1 8.9-8.1 8.9-4.8 0-8.9-3.2-8.9-8.9 0-5 4.1-8.2 8.9-8.2 4 0 8.1 3.2 8.1 8.2zm-5.9 20c2.5 0 4.6 2.1 4.6 4.6V79c0 2.5-2.1 4.6-4.6 4.6h-5c-2.5 0-4.6-2.1-4.6-4.6V32.7c0-2.5 2.1-4.6 4.6-4.6h5zM427.3 42.3c-3.3-1.6-6.2-2.2-9.8-2.2-7.9 0-15.4 6-15.4 15.7 0 9.8 7.6 15.9 16 15.9 4.4 0 7.5-1.1 10.7-3.2 1-.6 2-1 3-1 1.5 0 2.8.6 3.8 1.8l2.1 2.6c.6.6.9 1.6.9 2.5 0 1.5-.6 3.1-1.7 3.9-6.6 5.3-12.5 6.5-19.4 6.5-18.3 0-30.4-11.6-30.4-29 0-16.1 11.8-29 28.7-29 7.4 0 12.8 1.2 18.2 4.2 1.4.7 2.2 2.5 2.2 4.1 0 .7-.1 1.4-.5 2l-1.8 3.2c-1 1.6-2.5 2.6-4.2 2.6-.8-.1-1.6-.2-2.4-.6z"/></g></symbol><symbol viewBox="0 0 95.9 76.4" id="statamic-mark" xmlns="http://www.w3.org/2000/svg"><g fill="3C4858"><path d="M26.5 73.1c0 2.1-1.7 3.3-3.9 3.3h-2.5c-7.7 0-12-3.4-12-12.1V50.1c0-5.3-2.5-7.6-5.2-8.4C.8 41.1 0 40 0 38.2c0-1.9.7-2.9 2.9-3.6 2.6-1 5.2-3.6 5.2-9.4V12.7C8.1 4.5 11.1 0 20.5 0h2.3c2.2 0 3.7 1.3 3.7 3.2 0 2.2-1.4 3.5-3.6 3.5h-.7c-5.1 0-6.9 2.2-6.9 8.4v12.8c0 5.8-2.7 9.7-6.7 10.2 3.8.4 6.7 3.3 6.7 10.2v13c0 5.9 2.2 8.3 7.2 8.3 2.6.1 4 1.3 4 3.5zM33.7 48c.6-.8 1.3-1.2 2.2-1.2.9 0 1.8.4 2.7 1 2.9 1.9 6.1 3 10 3 3 0 5.3-1.3 5.3-3.8 0-6.6-21.8-3-21.8-17.7C32 21.4 38.5 17 46.8 17c5.9 0 10.2 1.7 13.5 3.8.8.5 1.3 1.6 1.3 2.7 0 .6-.2 1.3-.5 1.8l-1 1.4c-.7 1-1.5 1.4-2.5 1.4-.7 0-1.4-.3-2.2-.6-2.4-1.3-4.9-1.9-8-1.9-3.1 0-5 1.7-5 3.5 0 6.7 21.8 3.1 21.8 17.3 0 8-6.5 12.9-16.4 12.9-6.3 0-10.9-1.9-15.1-5.6-.7-.6-1-1.4-1-2.2 0-.6.2-1.3.6-1.9l1.4-1.6zM69.4 73.1c0-2.2 1.4-3.4 4-3.4 4.9 0 7.2-2.3 7.2-8.3v-13c0-6.9 3-9.8 6.7-10.2-4-.5-6.7-4.4-6.7-10.2V15.1c0-6.1-1.8-8.4-6.9-8.4H73c-2.2 0-3.6-1.3-3.6-3.5 0-2 1.5-3.2 3.7-3.2h2.3c9.3 0 12.4 4.5 12.4 12.7v12.5c0 5.8 2.6 8.4 5.2 9.4 2.2.7 2.9 1.7 2.9 3.6 0 1.8-.8 2.9-2.9 3.5-2.7.8-5.2 3.1-5.2 8.4v14.1c0 8.7-4.3 12.1-12 12.1h-2.5c-2.2.1-3.9-1.2-3.9-3.2z"/></g></symbol></svg>