<svg class="statamic-logo" width="90" height="20" xmlns="http://www.w3.org/2000/svg" xmlns="http://www.w3.org/1999/xlink" viewBox="0 0 438.5 84.9">
    <g>
        <path fill="#3C4858" d="M2.7,69.2c0.9-1.1,1.8-1.6,3-1.6c1.2,0,2.5,0.5,3.7,1.4c3.9,2.6,8.4,4.1,13.7,4.1c4.1,0,7.3-1.7,7.3-5.2
            c0-9-29.9-4.1-29.9-24.2c0-10.8,8.9-16.9,20.3-16.9c8.1,0,14,2.3,18.5,5.2c1.1,0.7,1.8,2.2,1.8,3.7c0,0.9-0.2,1.7-0.7,2.5l-1.4,2
            c-1,1.4-2.1,2-3.4,2c-1,0-2-0.4-3.1-0.9c-3.3-1.7-6.8-2.6-10.9-2.6c-4.3,0-6.9,2.3-6.9,4.8c0,9.2,29.9,4.2,29.9,23.7
            c0,10.9-8.9,17.7-22.4,17.7c-8.6,0-14.9-2.6-20.7-7.6c-1-0.9-1.4-2-1.4-3.1c0-0.9,0.2-1.8,0.9-2.6L2.7,69.2z"/>
        <path fill="#3C4858" d="M88.3,75c0.4,0.6,0.6,1.4,0.6,2.1c0,1.6-0.7,3.2-2.1,3.9c-4.2,2.5-8.4,3.7-13.9,3.7
            c-12.5,0-17.2-8.1-17.2-22.3V17.3c0-2.5,2.1-4.6,4.6-4.6h5c2.5,0,4.6,2.1,4.6,4.6v10.8h13.3c2.5,0,4.6,2.1,4.6,4.6v4.2
            c0,2.5-2.1,4.6-4.6,4.6H69.9v20.2c0,6,2,10,6.6,10c1.5,0,2.8-0.2,3.9-0.6s2-0.6,2.8-0.6c1.6,0,2.8,0.7,3.8,2.5L88.3,75z"/>
        <path fill="#3C4858" d="M96.9,67.3c0-12.2,9-18,20.2-18c4.9,0,9.8,1.6,12.5,3.6c0-0.6,0-1.1,0-1.7c0-8.1-2.6-12.5-10.3-12.5
            c-4.2,0-6.9,0.6-9.5,1.5c-0.7,0.2-1.5,0.4-2.2,0.4c-1.8,0-3.3-0.9-4.2-2.6l-0.7-1.5c-0.2-0.6-0.5-1.2-0.5-2c0-1.6,1.1-3.2,2.6-3.9
            c4.8-2.2,10.3-3.7,16-3.7c16.4,0,22.1,8.4,22.1,23V79c0,2.5-2.1,4.6-4.6,4.6h-3.2c-2.5,0-4.6-2.1-4.6-4.6v-1.8
            c-3,4.2-8.9,7.1-16.4,7.1C104.2,84.3,96.9,78,96.9,67.3z M129.6,61.6c-2.5-1.8-5.7-2.7-9.7-2.7c-4.7,0-8.9,2.2-8.9,6.9
            c0,4.2,3.4,6.5,7.9,6.5c5.9,0,9-2.6,10.7-5V61.6z"/>
        <path fill="#3C4858" d="M188.8,75c0.4,0.6,0.6,1.4,0.6,2.1c0,1.6-0.7,3.2-2.1,3.9c-4.2,2.5-8.4,3.7-13.9,3.7
            c-12.5,0-17.2-8.1-17.2-22.3V17.3c0-2.5,2.1-4.6,4.6-4.6h5c2.5,0,4.6,2.1,4.6,4.6v10.8h13.3c2.5,0,4.6,2.1,4.6,4.6v4.2
            c0,2.5-2.1,4.6-4.6,4.6h-13.3v20.2c0,6,2,10,6.6,10c1.5,0,2.8-0.2,3.9-0.6s2-0.6,2.8-0.6c1.6,0,2.8,0.7,3.8,2.5L188.8,75z"/>
        <path fill="#3C4858" d="M197.4,67.3c0-12.2,9-18,20.2-18c4.9,0,9.8,1.6,12.5,3.6c0-0.6,0-1.1,0-1.7c0-8.1-2.6-12.5-10.3-12.5
            c-4.2,0-6.9,0.6-9.5,1.5c-0.7,0.2-1.5,0.4-2.2,0.4c-1.8,0-3.3-0.9-4.2-2.6l-0.7-1.5c-0.2-0.6-0.5-1.2-0.5-2c0-1.6,1.1-3.2,2.6-3.9
            c4.8-2.2,10.3-3.7,16-3.7c16.4,0,22.1,8.4,22.1,23V79c0,2.5-2.1,4.6-4.6,4.6h-3.2c-2.5,0-4.6-2.1-4.6-4.6v-1.8
            c-3,4.2-8.9,7.1-16.4,7.1C204.7,84.3,197.4,78,197.4,67.3z M230.1,61.6c-2.5-1.8-5.7-2.7-9.7-2.7c-4.7,0-8.9,2.2-8.9,6.9
            c0,4.2,3.4,6.5,7.9,6.5c5.9,0,9-2.6,10.7-5V61.6z"/>
        <path fill="#3C4858" d="M272.1,34.3c3.9-4.4,10.5-7.1,17.3-7.1c8.5,0,14.1,3.8,16.1,8.9c3.9-5.2,10.1-8.9,18.7-8.9
            c10.1,0,17.7,5,17.7,20.2V79c0,2.5-2.1,4.6-4.6,4.6h-5c-2.5,0-4.6-2.1-4.6-4.6V51c0-6.9-2.8-10.6-9.5-10.6c-5.3,0-9.5,2.6-11.4,6.4
            c0,0.9,0.1,2.8,0.1,4.1v28c0,2.5-2.1,4.6-4.6,4.6h-5c-2.5,0-4.6-2.1-4.6-4.6V50.1c0-5.8-3.2-9.6-9.2-9.6c-5,0-9.1,2.2-11.6,5.9V79
            c0,2.5-2.1,4.6-4.6,4.6h-5c-2.5,0-4.6-2.1-4.6-4.6V32.7c0-2.5,2.1-4.6,4.6-4.6h5c2.5,0,4.6,2.1,4.6,4.6V34.3z"/>
        <path fill="#3C4858" d="M373.9,8.2c0,5.7-4.1,8.9-8.1,8.9c-4.8,0-8.9-3.2-8.9-8.9c0-5,4.1-8.2,8.9-8.2C369.8,0,373.9,3.2,373.9,8.2z
             M368,28.2c2.5,0,4.6,2.1,4.6,4.6V79c0,2.5-2.1,4.6-4.6,4.6h-5c-2.5,0-4.6-2.1-4.6-4.6V32.7c0-2.5,2.1-4.6,4.6-4.6H368z"/>
        <path fill="#3C4858" d="M427.3,42.3c-3.3-1.6-6.2-2.2-9.8-2.2c-7.9,0-15.4,6-15.4,15.7c0,9.8,7.6,15.9,16,15.9c4.4,0,7.5-1.1,10.7-3.2
            c1-0.6,2-1,3-1c1.5,0,2.8,0.6,3.8,1.8l2.1,2.6c0.6,0.6,0.9,1.6,0.9,2.5c0,1.5-0.6,3.1-1.7,3.9c-6.6,5.3-12.5,6.5-19.4,6.5
            c-18.3,0-30.4-11.6-30.4-29c0-16.1,11.8-29,28.7-29c7.4,0,12.8,1.2,18.2,4.2c1.4,0.7,2.2,2.5,2.2,4.1c0,0.7-0.1,1.4-0.5,2l-1.8,3.2
            c-1,1.6-2.5,2.6-4.2,2.6C428.9,42.8,428.1,42.7,427.3,42.3z"/>
    </g>
</svg>
