<svg xmlns="http://www.w3.org/2000/svg" width="90" height="17.43" viewBox="0 0 90 17.43"><path d="M.53,14.2a.78.78,0,0,1,.62-.33,1.34,1.34,0,0,1,.76.29A4.88,4.88,0,0,0,4.72,15c.84,0,1.5-.35,1.5-1.06,0-1.85-6.14-.85-6.14-5C.08,6.75,1.91,5.5,4.25,5.5a6.78,6.78,0,0,1,3.8,1.07.92.92,0,0,1,.37.76,1,1,0,0,1-.15.51L8,8.25a.81.81,0,0,1-.69.41,1.63,1.63,0,0,1-.64-.18,4.75,4.75,0,0,0-2.24-.54c-.88,0-1.41.48-1.41,1,0,1.89,6.13.86,6.13,4.86,0,2.24-1.82,3.64-4.59,3.64A6.11,6.11,0,0,1,.29,15.87.84.84,0,0,1,0,15.23a.76.76,0,0,1,.18-.53Z" fill="#3C4858"/><path d="M18.1,15.39a.89.89,0,0,1-.31,1.23,5.17,5.17,0,0,1-2.85.76c-2.56,0-3.53-1.66-3.53-4.57V3.55a1,1,0,0,1,.95-.94h1a1,1,0,0,1,.95.94V5.77h2.73a1,1,0,0,1,.94.94v.86a1,1,0,0,1-.94.95H14.33v4.14c0,1.24.41,2.06,1.35,2.06a2.13,2.13,0,0,0,.8-.13,1.76,1.76,0,0,1,.58-.12.85.85,0,0,1,.78.51Z" fill="#3C4858"/><path d="M19.87,13.81c0-2.5,1.84-3.69,4.14-3.69a4.63,4.63,0,0,1,2.57.74v-.35c0-1.66-.53-2.57-2.11-2.57a5.59,5.59,0,0,0-1.95.31,1.85,1.85,0,0,1-.46.08.94.94,0,0,1-.86-.53l-.14-.31a1.17,1.17,0,0,1-.1-.41.91.91,0,0,1,.53-.8,7.94,7.94,0,0,1,3.28-.76c3.37,0,4.54,1.73,4.54,4.72v6a1,1,0,0,1-.95.95h-.65a1,1,0,0,1-.95-.95v-.37A4,4,0,0,1,23.4,17.3,3.31,3.31,0,0,1,19.87,13.81Zm6.71-1.17a3.3,3.3,0,0,0-2-.55c-1,0-1.83.45-1.83,1.42s.7,1.33,1.62,1.33a2.49,2.49,0,0,0,2.2-1Z" fill="#3C4858"/><path d="M38.73,15.39a.85.85,0,0,1,.12.43.86.86,0,0,1-.43.8,5.17,5.17,0,0,1-2.85.76C33,17.38,32,15.72,32,12.81V3.55A1,1,0,0,1,33,2.61h1a1,1,0,0,1,.94.94V5.77h2.73a1,1,0,0,1,1,.94v.86a1,1,0,0,1-1,.95H35v4.14c0,1.24.41,2.06,1.36,2.06a2.17,2.17,0,0,0,.8-.13,1.71,1.71,0,0,1,.57-.12.83.83,0,0,1,.78.51Z" fill="#3C4858"/><path d="M40.49,13.81c0-2.5,1.85-3.69,4.15-3.69a4.66,4.66,0,0,1,2.57.74v-.35c0-1.66-.54-2.57-2.12-2.57a5.68,5.68,0,0,0-2,.31,1.78,1.78,0,0,1-.45.08.93.93,0,0,1-.86-.53l-.14-.31a1,1,0,0,1-.11-.41.92.92,0,0,1,.54-.8,7.94,7.94,0,0,1,3.28-.76c3.37,0,4.54,1.73,4.54,4.72v6a1,1,0,0,1-.95.95h-.65a1,1,0,0,1-1-.95v-.37A4,4,0,0,1,44,17.3,3.31,3.31,0,0,1,40.49,13.81Zm6.72-1.17a3.32,3.32,0,0,0-2-.55c-1,0-1.83.45-1.83,1.42s.7,1.33,1.62,1.33a2.49,2.49,0,0,0,2.2-1Z" fill="#3C4858"/><path d="M55.83,7a4.82,4.82,0,0,1,3.55-1.46,3.29,3.29,0,0,1,3.3,1.83,4.6,4.6,0,0,1,3.84-1.83c2.07,0,3.63,1,3.63,4.15v6.48a1,1,0,0,1-.94.95h-1a1,1,0,0,1-.94-.95V10.47c0-1.42-.58-2.18-1.95-2.18A2.54,2.54,0,0,0,63,9.61c0,.18,0,.57,0,.84v5.74a1,1,0,0,1-.94.95H61a1,1,0,0,1-1-.95V10.28a1.77,1.77,0,0,0-1.88-2,2.77,2.77,0,0,0-2.38,1.21v6.69a1,1,0,0,1-.95.95h-1a1,1,0,0,1-1-.95V6.71a1,1,0,0,1,1-.94h1a1,1,0,0,1,.95.94V7Z" fill="#3C4858"/><path d="M76.72,1.68a1.71,1.71,0,0,1-1.66,1.83,1.75,1.75,0,0,1-1.83-1.83A1.71,1.71,0,0,1,75.06,0,1.67,1.67,0,0,1,76.72,1.68ZM75.51,5.79a1,1,0,0,1,.94.94v9.48a1,1,0,0,1-.94.95h-1a1,1,0,0,1-.94-.95V6.71a1,1,0,0,1,.94-.94h1Z" fill="#3C4858"/><path d="M87.68,8.68a4.28,4.28,0,0,0-2-.45,3.13,3.13,0,0,0-3.16,3.22,3.2,3.2,0,0,0,3.28,3.27,3.72,3.72,0,0,0,2.2-.66,1.24,1.24,0,0,1,.61-.21,1,1,0,0,1,.78.37l.44.54a.76.76,0,0,1,.18.51,1,1,0,0,1-.35.8,5.74,5.74,0,0,1-4,1.33c-3.76,0-6.24-2.38-6.24-5.95A5.78,5.78,0,0,1,85.32,5.5a7.26,7.26,0,0,1,3.74.86,1,1,0,0,1,.45.84.65.65,0,0,1-.11.41L89,8.27a1.05,1.05,0,0,1-.87.54A1.78,1.78,0,0,1,87.68,8.68Z" fill="#3C4858"/></svg>
