<?xml version="1.0" encoding="utf-8"?>
<!-- Generator: Adobe Illustrator 22.1.0, SVG Export Plug-In . SVG Version: 6.00 Build 0)  -->
<svg version="1.1" id="Layer_1" xmlns="http://www.w3.org/2000/svg" xmlns:xlink="http://www.w3.org/1999/xlink" x="0px" y="0px"
	 viewBox="0 0 82.5 37" style="enable-background:new 0 0 82.5 37;" xml:space="preserve">
<style type="text/css">
	.st0{fill:#3C4858;}
	.st1{fill:url(#SVGID_1_);}
</style>
<g>
	<path class="st0" d="M0.5,34c0.1-0.2,0.3-0.3,0.6-0.3c0.3,0,0.5,0.1,0.7,0.3c0.8,0.5,1.7,0.8,2.6,0.8c0.8,0,1.4-0.3,1.4-1
		c0-1.7-5.6-0.8-5.6-4.6c0-2,1.7-3.2,3.8-3.2c1.2,0,2.4,0.3,3.5,1c0.2,0.2,0.3,0.4,0.3,0.7c0,0.2-0.1,0.3-0.1,0.5l-0.2,0.4
		c-0.1,0.2-0.4,0.4-0.6,0.4c-0.2,0-0.4-0.1-0.6-0.2c-0.6-0.3-1.3-0.5-2.1-0.5c-0.8,0-1.3,0.4-1.3,0.9c0,1.7,5.6,0.8,5.6,4.5
		c0,2.1-1.7,3.3-4.2,3.3c-1.4,0-2.8-0.5-3.9-1.4C0.1,35.4,0,35.2,0,35c0-0.2,0.1-0.4,0.2-0.5L0.5,34z"/>
	<path class="st0" d="M16.6,35.1c0.2,0.4,0.1,0.9-0.3,1.1c0,0,0,0,0,0c-0.8,0.5-1.7,0.7-2.6,0.7c-2.3,0-3.2-1.5-3.2-4.2v-8.5
		c0-0.5,0.4-0.8,0.9-0.9h0.9c0.5,0,0.8,0.4,0.9,0.9v2h2.5c0.5,0,0.8,0.4,0.9,0.9v0.8c0,0.5-0.4,0.8-0.9,0.9h-2.5v3.8
		c0,1.1,0.4,1.9,1.2,1.9c0.2,0,0.5,0,0.7-0.1c0.2-0.1,0.3-0.1,0.5-0.1c0.3,0,0.6,0.2,0.7,0.5L16.6,35.1z"/>
	<path class="st0" d="M18.2,33.7c0-2.3,1.7-3.4,3.8-3.4c0.8,0,1.7,0.2,2.4,0.7v-0.3c0-1.5-0.5-2.4-1.9-2.4c-0.6,0-1.2,0.1-1.8,0.3
		c-0.1,0-0.3,0.1-0.4,0.1c-0.3,0-0.6-0.2-0.8-0.5l-0.1-0.3c-0.1-0.1-0.1-0.2-0.1-0.4c0-0.3,0.2-0.6,0.5-0.7c0.9-0.4,2-0.7,3-0.7
		c3.1,0,4.2,1.6,4.2,4.3v5.5c0,0.5-0.4,0.8-0.9,0.9h-0.6c-0.5,0-0.8-0.4-0.9-0.9v-0.3c-0.8,0.9-1.9,1.4-3.1,1.3
		c-1.7,0.1-3.1-1.1-3.2-2.8C18.2,33.9,18.2,33.8,18.2,33.7z M24.4,32.6c-0.5-0.4-1.2-0.5-1.8-0.5c-0.9,0-1.7,0.4-1.7,1.3
		c0,0.9,0.6,1.2,1.5,1.2c0.8,0.1,1.5-0.3,2-0.9L24.4,32.6z"/>
	<path class="st0" d="M35.5,35.1c0.1,0.1,0.1,0.3,0.1,0.4c0,0.3-0.1,0.6-0.4,0.7c-0.8,0.5-1.7,0.7-2.6,0.7c-2.4,0-3.3-1.5-3.3-4.2
		v-8.5c0-0.5,0.4-0.9,0.9-0.9h0.9c0.5,0,0.8,0.4,0.9,0.9v2h2.5c0.5,0,0.9,0.4,0.9,0.9v0.8c0,0.5-0.4,0.9-0.9,0.9h-2.4v3.8
		c0,1.1,0.4,1.9,1.2,1.9c0.2,0,0.5,0,0.7-0.1c0.2-0.1,0.3-0.1,0.5-0.1c0.3,0,0.6,0.2,0.7,0.5L35.5,35.1z"/>
	<path class="st0" d="M37.1,33.7c0-2.3,1.7-3.4,3.8-3.4c0.8,0,1.7,0.2,2.4,0.7v-0.3c0-1.5-0.5-2.4-1.9-2.4c-0.6,0-1.2,0.1-1.8,0.3
		c-0.1,0-0.3,0.1-0.4,0.1c-0.3,0-0.6-0.2-0.8-0.5l-0.1-0.3c-0.1-0.1-0.1-0.2-0.1-0.4c0-0.3,0.2-0.6,0.5-0.7c0.9-0.4,2-0.7,3-0.7
		c3.1,0,4.2,1.6,4.2,4.3v5.5c0,0.5-0.4,0.8-0.9,0.9h-0.6c-0.5,0-0.9-0.4-0.9-0.9v-0.3c-0.7,0.9-1.9,1.4-3,1.3
		c-1.7,0.1-3.1-1.2-3.2-2.8C37.1,33.9,37.1,33.8,37.1,33.7z M43.3,32.6c-0.5-0.4-1.2-0.5-1.8-0.5c-0.9,0-1.7,0.4-1.7,1.3
		c0,0.9,0.6,1.2,1.5,1.2c0.8,0.1,1.5-0.3,2-0.9L43.3,32.6z"/>
	<path class="st0" d="M51.2,27.4c0.9-0.9,2-1.4,3.3-1.3c1.3-0.1,2.5,0.5,3,1.7c0.8-1.1,2.1-1.7,3.5-1.7c1.9,0,3.3,0.9,3.3,3.8v5.9
		c0,0.5-0.4,0.8-0.9,0.9h-0.9c-0.5,0-0.8-0.4-0.9-0.9v-5.2c0-1.3-0.5-2-1.8-2c-0.9,0-1.7,0.4-2.1,1.2c0,0.2,0,0.5,0,0.8v5.3
		c0,0.5-0.4,0.8-0.9,0.9h-1c-0.5,0-0.9-0.4-0.9-0.9v-5.4c0.1-0.9-0.5-1.7-1.4-1.8c-0.1,0-0.2,0-0.3,0c-0.9,0-1.7,0.4-2.2,1.1v6.1
		c0,0.5-0.4,0.8-0.9,0.9h-0.9c-0.5,0-0.9-0.4-0.9-0.9v-8.7c0-0.5,0.4-0.9,0.9-0.9h0.9c0.5,0,0.8,0.4,0.9,0.9L51.2,27.4L51.2,27.4z"
		/>
	<path class="st0" d="M70.4,22.5c0.1,0.9-0.6,1.6-1.5,1.7c0,0,0,0-0.1,0c-0.9,0-1.6-0.6-1.7-1.5c0-0.1,0-0.1,0-0.2
		c0-0.9,0.7-1.6,1.6-1.5c0,0,0.1,0,0.1,0C69.7,21,70.4,21.7,70.4,22.5C70.4,22.5,70.4,22.5,70.4,22.5z M69.2,26.3
		c0.5,0,0.8,0.4,0.9,0.9v8.7c0,0.5-0.4,0.8-0.9,0.9h-0.9c-0.5,0-0.8-0.4-0.9-0.9v-8.7c0-0.5,0.4-0.8,0.9-0.9L69.2,26.3L69.2,26.3z"
		/>
	<path class="st0" d="M80.4,29c-0.6-0.3-1.2-0.4-1.8-0.4c-1.6,0-2.9,1.3-2.9,2.8c0,0,0,0.1,0,0.1c0,1.6,1.2,3,2.9,3c0,0,0.1,0,0.1,0
		c0.7,0,1.4-0.2,2-0.6c0.2-0.1,0.4-0.2,0.6-0.2c0.3,0,0.5,0.1,0.7,0.3l0.4,0.5c0.1,0.1,0.2,0.3,0.2,0.5c0,0.3-0.1,0.6-0.3,0.7
		c-1,0.9-2.3,1.3-3.7,1.2c-3.4,0-5.7-2.2-5.7-5.5C72.7,28.6,75,26.1,78,26c0.1,0,0.2,0,0.3,0c1.2,0,2.4,0.2,3.4,0.8
		c0.3,0.2,0.4,0.5,0.4,0.8c0,0.1,0,0.3-0.1,0.4l-0.4,0.6c-0.2,0.3-0.5,0.5-0.8,0.5C80.7,29.1,80.5,29,80.4,29z"/>
</g>
<linearGradient id="SVGID_1_" gradientUnits="userSpaceOnUse" x1="37.5215" y1="-1.5502" x2="45.0532" y2="19.4868">
	<stop  offset="0" style="stop-color:#DA2FB6"/>
	<stop  offset="1" style="stop-color:#FE1876"/>
</linearGradient>
<path class="st1" d="M48.5,18c1.6,0,2.2-0.7,2.2-2.4v-3.4c0-1.6,0.8-2.5,1.5-3c0.2-0.1,0.2-0.5,0-0.6c-0.8-0.5-1.5-1.5-1.5-2.9V2.4
	c0-1.9-0.5-2.4-2.2-2.4H33.9c-1.6,0-2.2,0.5-2.2,2.4v3.3c0,1.4-0.7,2.4-1.5,2.9c-0.2,0.1-0.2,0.5,0,0.6c0.7,0.4,1.5,1.3,1.5,3v3.4
	c0,1.7,0.6,2.4,2.2,2.4H48.5z M41.2,14.9c-1.8,0-3-0.5-4.2-1.6c-0.2-0.2-0.3-0.4-0.3-0.6c0-0.2,0.1-0.4,0.2-0.5l0.4-0.5
	c0.2-0.2,0.4-0.3,0.6-0.3c0.3,0,0.5,0.1,0.8,0.3c0.8,0.5,1.7,0.8,2.8,0.8c0.8,0,1.5-0.4,1.5-1.1c0-1.8-6.1-0.8-6.1-5
	c0-2.2,1.8-3.4,4.1-3.4c1.7,0,2.9,0.5,3.8,1.1c0.2,0.2,0.4,0.5,0.4,0.8c0,0.2-0.1,0.4-0.2,0.5l-0.3,0.4C44.5,6,44.3,6.2,44,6.2
	c-0.2,0-0.4-0.1-0.6-0.2c-0.7-0.4-1.4-0.5-2.2-0.5c-0.9,0-1.4,0.5-1.4,1c0,1.9,6.1,0.9,6.1,4.9C45.8,13.5,44,14.9,41.2,14.9z"/>
</svg>
