<svg xmlns="http://www.w3.org/2000/svg" viewBox="0 0 24 24"><path d="M11 18.5H1.5a1 1 0 0 1-1-1v-16a1 1 0 0 1 1-1h15a1 1 0 0 1 1 1v9.965" fill="none" stroke="currentColor" stroke-linecap="round" stroke-linejoin="round"/><rect x="2.5" y="2.5" width="13" height="5" rx=".5" ry=".5" fill="none" stroke="currentColor" stroke-linecap="round" stroke-linejoin="round"/><path d="M2.5 10v6a.5.5 0 0 0 .5.5h6.337a.5.5 0 0 0 .481-.637l-1.714-6a.5.5 0 0 0-.481-.363H3a.5.5 0 0 0-.5.5zM15.5 13.5V10a.5.5 0 0 0-.5-.5h-3.837a.5.5 0 0 0-.481.637L12.5 16.5h.458M15.7 22.3l-4.2 1.2 1.2-4.2 7.179-7.179a2.121 2.121 0 0 1 3 3zM18.979 13.021l3 3M12.7 19.3l3 3" fill="none" stroke="currentColor" stroke-linecap="round" stroke-linejoin="round"/></svg>