<svg xmlns="http://www.w3.org/2000/svg" viewBox="0 0 64 64"><g fill-rule="evenodd"><path d="M8.43 0h47.14C60.21 0 64 3.77 64 8.43v47.15c0 4.64-3.77 8.42-8.43 8.42H8.43C3.79 64 0 60.23 0 55.58V8.41C0 3.77 3.77 0 8.43 0z" fill="#5468ff"/><path d="M38.92 13.97v-2.19c0-.74-.29-1.44-.81-1.96s-1.23-.81-1.96-.81h-6.48c-.74 0-1.44.29-1.96.81s-.81 1.23-.81 1.96v2.25c0 .25.23.43.49.37 1.83-.53 3.73-.8 5.64-.79 1.85 0 3.68.25 5.45.74.23.06.47-.11.47-.37zm-17.75 2.87l-1.11-1.11a2.783 2.783 0 00-3.92 0l-1.32 1.32a2.783 2.783 0 00-.6 3.02c.14.33.35.64.6.9l1.09 1.09c.18.17.43.13.58-.04.64-.88 1.35-1.71 2.12-2.49.78-.78 1.61-1.49 2.51-2.13.19-.12.21-.39.06-.57zm11.82 6.97v9.49c0 .27.29.47.54.33l8.44-4.37c.19-.1.25-.33.15-.52-1.75-3.07-5-5.17-8.75-5.3-.19 0-.39.15-.39.37zm0 22.87c-7.04 0-12.75-5.71-12.75-12.74s5.72-12.73 12.75-12.73 12.76 5.71 12.76 12.73-5.7 12.74-12.76 12.74zm0-30.83c-9.99 0-18.1 8.1-18.1 18.09S23 52.01 32.99 52.01s18.1-8.1 18.1-18.09S43 15.85 32.99 15.85z" fill="#fff"/></g></svg>