<svg xmlns="http://www.w3.org/2000/svg" viewBox="0 0 64 64"><g clip-path="url(#a)"><path fill-rule="evenodd" clip-rule="evenodd" d="M8.43 0h47.14C60.21 0 64 3.77 64 8.43v47.15c0 4.64-3.77 8.42-8.43 8.42H8.43C3.79 64 0 60.23 0 55.58V8.41C0 3.77 3.77 0 8.43 0Z" fill="#F3F5F9"/><path d="M34.284 10.488a15.845 15.845 0 0 0-7.433.791.444.444 0 0 0-.292.418v6.425c0 .192.215.31.375.203a9.37 9.37 0 0 1 5.803-1.595c4.72.271 8.57 4.084 8.86 8.787.337 5.448-4.014 9.988-9.409 9.988-.993 0-1.98-.16-2.924-.471-.981-.323-1.866-.824-2.77-1.412l-.798-.513a.445.445 0 0 0-.6.18l-8.61 16.455a.449.449 0 0 0 .183.609l4.831 2.594a.447.447 0 0 0 .604-.18l5.9-11.463a15.77 15.77 0 0 0 4.184.565c9.29 0 16.736-8.027 15.719-17.488-.77-7.17-6.45-12.958-13.624-13.893h.001Z" fill="#F2522E" stroke="#F2522E" stroke-width=".969"/></g><defs><clipPath id="a"><path fill="#fff" d="M0 0h64v64H0z"/></clipPath></defs></svg>
