<svg xmlns="http://www.w3.org/2000/svg" xmlns:xlink="http://www.w3.org/1999/xlink" viewBox="0 0 64 64"><defs><linearGradient id="a" x1="52.61" y1="53.28" x2="6.61" y2="27.3" gradientTransform="matrix(1 0 0 -1 0 66.71)" gradientUnits="userSpaceOnUse"><stop offset="0" stop-color="#ff5caa"/><stop offset="1" stop-color="#ff4e62"/></linearGradient><linearGradient id="b" x1="55.63" y1="47.94" x2="9.63" y2="21.96" xlink:href="#a"/><linearGradient id="c" x1="58.64" y1="42.61" x2="12.64" y2="16.62" xlink:href="#a"/></defs><path d="M8.43 0h47.14C60.21 0 64 3.77 64 8.43v47.15c0 4.64-3.77 8.42-8.43 8.42H8.43C3.79 64 0 60.23 0 55.58V8.41C0 3.77 3.77 0 8.43 0z" fill="#21004b" fill-rule="evenodd"/><path d="M8.57 45.77l8.5-21.74a7.995 7.995 0 017.44-5.08h5.12l-8.5 21.74a7.995 7.995 0 01-7.44 5.08H8.57z" fill="url(#a)"/><path d="M21.04 45.77l8.5-21.74a7.995 7.995 0 017.44-5.08h5.12l-8.5 21.74a7.995 7.995 0 01-7.44 5.08h-5.12z" fill="url(#b)"/><path d="M33.51 45.77l8.5-21.74a7.995 7.995 0 017.44-5.08h5.12l-8.5 21.74a7.995 7.995 0 01-7.44 5.08h-5.12z" fill="url(#c)"/></svg>