<svg xmlns="http://www.w3.org/2000/svg" viewBox="0 0 64 64"><path d="M8.43 0h47.14C60.21 0 64 3.77 64 8.43v47.15c0 4.64-3.77 8.42-8.43 8.42H8.43C3.79 64 0 60.23 0 55.58V8.41C0 3.77 3.77 0 8.43 0z" fill="#f6f7fa" fill-rule="evenodd"/><path d="M51.51 32.93c0-1.58-.48-3.13-1.39-4.43a7.7 7.7 0 00-3.69-2.82c.14-.69.2-1.39.2-2.1 0-2.33-.74-4.6-2.11-6.49-1.37-1.89-3.3-3.29-5.52-4-2.22-.72-4.61-.71-6.82.01-2.22.73-4.14 2.14-5.51 4.03-1.01-.78-2.24-1.21-3.51-1.23s-2.52.38-3.54 1.14a5.783 5.783 0 00-2.14 3.04 5.92 5.92 0 00.12 3.72 7.792 7.792 0 00-3.7 2.83 7.838 7.838 0 00-1.42 4.44c0 1.59.48 3.14 1.4 4.44.91 1.3 2.21 2.28 3.71 2.82a11.006 11.006 0 001.91 8.58c1.37 1.88 3.3 3.28 5.52 3.99 2.22.71 4.6.7 6.81-.03a10.98 10.98 0 005.49-4.04 5.858 5.858 0 007.05.1 5.797 5.797 0 002.14-3.03c.37-1.22.32-2.52-.12-3.71a7.745 7.745 0 003.7-2.83c.92-1.3 1.41-2.85 1.42-4.44" fill="#fff"/><path d="M27.83 29.31l8.54 3.9 8.62-7.55c.12-.62.19-1.26.18-1.89 0-2.06-.66-4.06-1.88-5.71a9.614 9.614 0 00-4.9-3.48 9.648 9.648 0 00-6.01.1 9.63 9.63 0 00-4.78 3.65l-1.44 7.43 1.67 3.56z" fill="#fec514"/><path d="M18.99 38.35c-.13.63-.19 1.28-.19 1.92a9.654 9.654 0 006.82 9.23 9.6 9.6 0 006.04-.12 9.613 9.613 0 004.79-3.68l1.42-7.41-1.9-3.63-8.57-3.91-8.4 7.59z" fill="#00bfb3"/><path d="M18.94 23.57l5.85 1.38 1.28-6.65c-.8-.6-1.77-.93-2.76-.94a4.634 4.634 0 00-4.46 3.3c-.29.96-.26 1.98.09 2.92z" fill="#f04e98"/><path d="M18.43 24.97c-1.28.43-2.4 1.26-3.2 2.35a6.564 6.564 0 00-1.24 3.77c0 1.31.4 2.59 1.14 3.67.74 1.08 1.8 1.9 3.02 2.37l8.21-7.42-1.51-3.22-6.43-1.52z" fill="#1ba9f5"/><path d="M37.94 45.7c.79.6 1.76.93 2.76.93 1 0 1.97-.31 2.77-.9.8-.59 1.39-1.43 1.68-2.38.29-.95.26-1.97-.08-2.91l-5.85-1.36-1.27 6.62z" fill="#93c90e"/><path d="M39.13 37.54l6.44 1.5a6.53 6.53 0 003.2-2.35c.8-1.1 1.23-2.42 1.24-3.77 0-1.31-.4-2.58-1.14-3.66-.74-1.08-1.8-1.9-3.02-2.36l-8.42 7.37 1.71 3.27z" fill="#07c"/></svg>