<svg xmlns="http://www.w3.org/2000/svg" viewBox="0 0 64 64"><defs><linearGradient id="a" x1="32" y1="64" x2="32" y2="0" gradientUnits="userSpaceOnUse"><stop offset="0" stop-color="#0a0406"/><stop offset=".5" stop-color="#48192f"/></linearGradient></defs><path d="M8.43 0h47.14C60.21 0 64 3.77 64 8.43v47.15c0 4.64-3.77 8.42-8.43 8.42H8.43C3.79 64 0 60.23 0 55.58V8.41C0 3.77 3.77 0 8.43 0z" fill="url(#a)" fill-rule="evenodd"/><path d="M45.46 23.79l-2.43 5.35c-1.88-.49-3.64-1.07-5.44-1.36-1.01-.16-2.12.08-3.15.32-.36.08-.78.69-.82 1.09-.03.31.41.81.77 1 .8.44 1.71.69 2.53 1.11 2.07 1.07 4.27 1.98 6.15 3.33 4.64 3.36 3.18 10.54-1.71 12.63-4.14 1.77-8.35 1.46-12.53.2-1.37-.41-2.65-1.13-4.03-1.73l2.48-5.62c1.71.49 3.34 1.09 5.01 1.41 1.18.23 2.45.22 3.64.04.6-.09 1.46-.74 1.54-1.24.08-.48-.6-1.23-1.13-1.63-.56-.43-1.32-.58-1.98-.89-2.01-.95-4.13-1.73-5.99-2.91-5.3-3.35-3.63-10.18.73-12.4 3.51-1.78 7.17-1.84 10.91-1.01 1.92.43 3.77 1.05 5.46 2.3zM21.36 44.34l1.04 3.33c-2.52 1.24-5.04 1.4-7.56.25-2.58-1.17-3.78-3.36-3.83-6.1-.09-4.96-.04-9.93-.05-14.89v-1.35H7.34v-3.31h3.62c0-1.97.04-3.8-.02-5.63-.02-.75.22-1.11.96-1.27 1.12-.24 2.22-.58 3.45-.91v7.75c1.31 0 2.52.04 3.73-.02.73-.03 1.14.2 1.37.9.26.79.61 1.55.97 2.46h-5.84c-.09.16-.16.22-.16.29 0 5.08-.08 10.16.02 15.23.06 2.97 1.97 4.27 4.84 3.55.33-.08.65-.17 1.07-.29zM54.81 53.69h-2.75V9.38h2.75v44.31z" fill="#fff"/></svg>