<svg xmlns="http://www.w3.org/2000/svg" viewBox="0 0 64 64"><g clip-path="url(#a)"><path fill-rule="evenodd" clip-rule="evenodd" d="M8.43 0h47.14C60.21 0 64 3.77 64 8.43v47.15c0 4.64-3.77 8.42-8.43 8.42H8.43C3.79 64 0 60.23 0 55.58V8.41C0 3.77 3.77 0 8.43 0Z" fill="#F3F5F9"/><path d="M29.786 38.662v-.767c.01-1.497.175-2.713.497-3.65.322-.938.795-1.729 1.42-2.373.635-.653 1.42-1.278 2.358-1.875.701-.454 1.288-.933 1.762-1.435a5.386 5.386 0 0 0 1.093-1.676 5.169 5.169 0 0 0 .384-2.003c0-1.022-.241-1.917-.724-2.684a4.787 4.787 0 0 0-1.932-1.776c-.815-.426-1.719-.639-2.713-.639-.947 0-1.833.208-2.657.625-.814.407-1.482 1.013-2.002 1.818-.512.796-.791 1.78-.838 2.955h-2.685c.047-1.563.436-2.917 1.165-4.063a7.399 7.399 0 0 1 2.926-2.656c1.221-.635 2.585-.952 4.09-.952 1.573 0 2.955.327 4.148.98 1.194.644 2.126 1.53 2.799 2.657.672 1.117 1.008 2.4 1.008 3.849 0 .956-.151 1.828-.454 2.614a6.872 6.872 0 0 1-1.364 2.173c-.596.663-1.345 1.288-2.244 1.875-.852.568-1.53 1.132-2.032 1.69a5.004 5.004 0 0 0-1.079 1.918c-.218.71-.336 1.586-.355 2.628v.767h-2.571Zm1.363 8.55a2.003 2.003 0 0 1-1.448-.596 2.003 2.003 0 0 1-.597-1.449c0-.568.199-1.05.597-1.448.407-.398.89-.597 1.448-.597.56 0 1.037.199 1.435.597.407.397.61.88.61 1.448 0 .37-.094.71-.283 1.023-.18.313-.426.564-.739.753-.303.18-.644.27-1.022.27Z" fill="#000"/></g><defs><clipPath id="a"><path fill="#fff" d="M0 0h64v64H0z"/></clipPath></defs></svg>
