<svg xmlns="http://www.w3.org/2000/svg" width="100" height="100" viewBox="0 0 100 100" class="heroicon-globe heroicon heroicons-lg">
    <circle class="heroicon-globe-water heroicon-component-fill" cx="46" cy="38" r="37" fill="#FFFFFF"></circle>
    <path class="heroicon-globe-stand heroicon-component-accent heroicon-component-fill" fill="#7ACFC0" d="M50 81.82V90l22 4v6H20v-6l22-4v-8.18a43.8 43.8 0 0 1-24.92-10.66l1.42-1.41A42 42 0 0 0 77.75 10.5l1.41-1.42A44 44 0 0 1 50 81.82zm22.82-70.74l-.66-.66 6.37-6.36 1.41 1.41-6.36 6.37-.66-.66-.1-.1zm-54.4 53.08l.58.58.07.07.06.06.06.06.65.65-6.37 6.36-1.41-1.41 6.36-6.37z"></path>
    <path class="heroicon-globe-land heroicon-component-accent heroicon-component-fill" fill="#7ACFC0" d="M71.46 12.54c.94.95 1.82 1.93 2.64 2.95l-1.8 1.8-.3.3v3l-2.3-2.3-.29-.29H62.6l-.3.3L61 19.58V16.4l4.7-4.7.3-.3V8.06a36.17 36.17 0 0 1 5.46 4.48zm10.03 19.39a35.96 35.96 0 0 1-10.03 31.53 35.96 35.96 0 0 1-31.53 10.03l.48-.49h4l.3-.3 2.7-2.7h3l.3-.3 5-5 .7-.7-.7-.7L51 58.58V53.4L56.41 48h6.18L67 52.41v2l.3.3 2 2 .29.29H72.4l.3-.3 2-2 .29-.29V49.6l-.3-.3-3-3-.29-.29h-4L66 44.59v-.18l2-2 1.3 1.3 1.7 1.7v-5l1-1 1.3 1.3.29.29H76.4l.3-.3 2-2 .29-.29v-4l2.49-2.48zM62.5 6H58v5h-1.59L55 9.59V5h-3.59l-1.7-1.7-.3-.3H43v8h6.59L52 13.41v4.18l-2 2-3.3-3.3-.29-.29H33.6l-.3.3L30 19.58V13h-4.41l-.3.3-2 2-.29.29V26.4l.3.3 7.7 7.7v10l.3.3 3.7 3.7v2.18l-.41.41h-4l-.3.3L28 53.58l-1.3-1.3-.7-.7-.7.7L23.58 54H18v6.63a35.94 35.94 0 0 1-2-2.72v-7.5l3.7-3.7.3-.3v-12l2.7-2.7.71-.71-.7-.7L21 28.58v-16.5A36.02 36.02 0 0 1 62.51 6z"></path>
    <path class="heroicon-shadows" fill="#000000" d="M8.33 33a38 38 0 1 0 75.35 0 38 38 0 0 1-75.35 0zM44 84h4v6h-4v-6z" opacity=".2"></path>
    <path class="Combined-Shape" fill="#4A4A4A" fill-rule="nonzero" d="M19.13 11.13A37.89 37.89 0 0 1 46 0a37.89 37.89 0 0 1 24.67 9.1l.08-.1 6.36-6.36 1.42-1.41 1.41 1.41 1.42 1.42 1.41 1.41-1.41 1.42-.78.77A46 46 0 0 1 50 83.83V90l22 4v6H20v-6l22-4v-6.17a45.8 45.8 0 0 1-26.34-11.25l-.77.78-1.42 1.4-1.41-1.4-1.42-1.42-1.41-1.41 1.41-1.42 6.37-6.36.08-.08a38 38 0 0 1 2.04-51.54zm60.03-2.05l-1.41 1.42A42 42 0 0 1 18.5 69.75l-1.42 1.41A44 44 0 0 0 79.16 9.08zm-6.34 2l.1.1.66.66 6.36-6.37-1.41-1.41-6.37 6.36.66.66zm-1.36 1.46c-1.7-1.7-3.53-3.2-5.46-4.48v3.35l-.3.3-4.7 4.7v3.18l1.3-1.3.29-.29h6.82l.3.3L72 20.58v-3l.3-.3 1.8-1.8c-.82-1.02-1.7-2-2.64-2.95zM65 8v-.59L64.32 7H59v5h-3l-2-2V6h-3l-2-2h-5v6h6l3 3v5l-2.3 2.3-.7.7-.7-.7L46 17H34l-3.3 3.3-.7.7-.7-.7-.3-.3v-6h-3l-2 2v10l8 8v10l4 4v3l-1 1h-4l-2.3 2.3-.7.7-.7-.7-.6-.6-.7-.7-.7.7L24 55h-5v6.81c.48.55.98 1.08 1.5 1.6l.04.05.04.04a35.83 35.83 0 0 0 18.16 9.76L40 72h4l3-3h3l4.3-4.3.7-.7-.7-.7L50 59v-6l6-6h7l5 5v2l2 2h2l2-2v-4l-3-3h-4l-2-2v-1l2.3-2.3.7-.7.7.7.3.3 1 1v-3l1.3-1.3.7-.7.7.7L74 40h2l2-2v-4l3.26-3.26a35.79 35.79 0 0 0-6.54-14.46L73 18v3l-.3.3-.7.7-.7-.7L69 19h-6l-1.3 1.3-.7.7-.7-.7-.3-.3v-4l5-5V8zm16.49 23.93L79 34.4v4l-.3.3-2 2-.29.29H73.6l-.3-.3L72 39.42l-1 1v5l-1.7-1.7-1.3-1.3-2 2v.18L67.41 46h4l.3.3 3 3 .29.29v4.82l-.3.3-2 2-.29.29H69.6l-.3-.3-2-2-.29-.29v-2L62.59 48H56.4L51 53.41v5.18l4.7 4.7.71.71-.7.7-5 5-.3.3h-3l-2.7 2.7-.3.3h-4l-.48.49a35.96 35.96 0 0 0 31.53-10.03 35.96 35.96 0 0 0 10.03-31.53zM62.5 6A36.02 36.02 0 0 0 21 12.1v16.49l1.7 1.7.71.71-.7.7L20 34.42v12l-.3.3-3.7 3.7v7.5c.62.93 1.29 1.84 2 2.72V54h5.59l1.7-1.7.71-.71.7.7 1.3 1.3 2.3-2.3.29-.29h4l.41-.41V48.4l-3.7-3.7-.3-.3v-10l-7.7-7.7-.3-.3V15.6l.3-.3 2-2 .29-.29H30v6.59l3.3-3.3.29-.29H46.4l.3.3L50 19.58l2-2V13.4L49.59 11H43V3h6.41l.3.3L51.4 5H55v4.59L56.41 11H58V6h4.51zM15 56.32V50l4-4V34l2.3-2.3.7-.7-.7-.7L20 29V13.1a36.02 36.02 0 0 0-5 43.22zm3.42 7.84l-6.36 6.37 1.41 1.41 6.37-6.36-.65-.65-.06-.06-.06-.06-.07-.07-.58-.58zM44 83.96V90h4v-6.04c-1.33.05-2.67.05-4 0zM49.82 92H42.18l-16.5 3h40.64l-16.5-3zM22 96v2h48v-2H22zm54.4-84.05L75 13.37A38 38 0 0 1 21.4 66.94L20 68.36a40 40 0 0 0 56.42-56.41z"></path>
</svg>
