<svg clip-rule="evenodd" fill-rule="evenodd" viewBox="0 0 1500 962" xmlns="http://www.w3.org/2000/svg" xmlns:xlink="http://www.w3.org/1999/xlink"><clipPath id="a"><path clip-rule="evenodd" d="m0 0h1507v961.955h-1507z"/></clipPath><g fill="none" transform="matrix(.995355 0 0 1 0 -.000042)"><path d="m0 0h1507v961.955h-1507z"/><g clip-path="url(#a)"><g stroke="hsl(0deg 0% 0% / 6%)"><path d="m753.244-11.793v973.748" transform="matrix(1.00467 0 0 1 -3.25914 .000042)"/><path d="m60.744-11.793v973.748" transform="matrix(1.00467 0 0 1 -.777712 .000042)"/><path d="m1456.53-11.793v973.748" transform="matrix(1.00467 0 0 1 -16.6071 .000042)"/><path d="m-22.707 930.265h1528.737" transform="matrix(1.00467 0 0 1 -.03014 .000042)"/><path d="m1043.62-11.793v973.748" transform="matrix(1.00467 0 0 1 -4.64156 .000042)"/><path d="m1121.32-11.793v973.748" transform="matrix(1.00467 0 0 1 -4.64156 .000042)"/><path d="m0-.5h973.747" transform="matrix(-.00000004 1 1.00467 .00000004 463.659 -11.7925)"/><path d="m0-.5h973.747" transform="matrix(-.00000004 .98789 .9925 .00000004 385.594 .000042)"/><path d="m0-.5h823.881" transform="matrix(-.710407 .707107 .710407 .707107 463.512 .353596)"/><path d="m0-.5h1450.93" transform="matrix(-.666084 .66299 .710407 .707107 1122.27 .353638)"/><path d="m101.442-178.635 1490.648 1490.645" stroke-width="1.49" transform="matrix(.680229 -.00707748 -.00711051 .677069 314.824 121.666)"/><path d="m101.442-178.635 1490.648 1490.645" stroke-width="1.49" transform="matrix(.680229 -.00707748 -.00711051 .677069 973.575 121.666)"/><path d="m92.711 45.605c0 25.447-20.659 46.106-46.106 46.106-25.446 0-46.105-20.659-46.105-46.106 0-25.446 20.659-46.105 46.105-46.105 25.447 0 46.106 20.659 46.106 46.105z" transform="matrix(1.00467 0 0 -1 706.677 45.8506)"/><path d="m92.711 45.605c0 25.447-20.659 46.106-46.106 46.106-25.446 0-46.105-20.659-46.105-46.106 0-25.446 20.659-46.105 46.105-46.105 25.447 0 46.106 20.659 46.106 46.105z" transform="matrix(1.00467 0 0 -1 706.677 975.851)"/></g><path d="m767.162 45.465c0 7.682-6.236 13.918-13.917 13.918-7.681 0-13.917-6.236-13.917-13.918 0-7.681 6.236-13.917 13.917-13.917 7.681 0 13.917 6.236 13.917 13.917z" stroke="hsl(0deg 0% 0% / 6%)" transform="matrix(1.00467 0 0 1 -3.26029 .000042)"/><path d="m767.162 930.245c0 7.681-6.236 13.917-13.917 13.917-7.681 0-13.917-6.236-13.917-13.917 0-7.681 6.236-13.917 13.917-13.917 7.681 0 13.917 6.236 13.917 13.917z" stroke="hsl(0deg 0% 0% / 6%)" transform="matrix(1.00467 0 0 1 -3.26029 .000042)"/></g></g></svg>