<svg xmlns="http://www.w3.org/2000/svg" fill="none" viewBox="0 0 14 14"><path fill="currentColor" fill-rule="evenodd" d="M6.25049 0.75c0 -0.414214 0.33578 -0.75 0.75 -0.75 0.41421 0 0.75 0.335787 0.75 0.75l0 1.36838c0.52527 0.03171 1.05327 0.09666 1.58974 0.19485 0.15471 0.02831 0.28707 0.12777 0.35733 0.26848 0.07025 0.14072 0.0702 0.30628 -0.00014 0.44695 -0.49837 0.99676 -1.47683 1.97521 -2.47355 2.47359 -0.14076 0.07038 -0.30644 0.07039 -0.44721 0.00001 -0.99679 -0.49838 -1.97525 -1.47684 -2.47363 -2.4736 -0.07034 -0.14067 -0.07038 -0.30624 -0.00013 -0.44695 0.07025 -0.14071 0.20262 -0.24017 0.35732 -0.26848 0.53665 -0.09822 1.06483 -0.16318 1.59027 -0.19488l0 -1.36835ZM0 6.99805c0 -0.41422 0.335786 -0.75 0.75 -0.75h12.5006c0.4142 0 0.75 0.33578 0.75 0.75 0 0.41421 -0.3358 0.75 -0.75 0.75H0.75c-0.414214 0 -0.75 -0.33579 -0.75 -0.75ZM7.00049 14c-0.41422 0 -0.75 -0.3358 -0.75 -0.75l0 -1.3684c-0.52544 -0.0316 -1.05362 -0.0966 -1.59027 -0.1948 -0.1547 -0.0283 -0.28707 -0.1278 -0.35732 -0.2685 -0.07025 -0.1407 -0.07021 -0.3063 0.00013 -0.447 0.49838 -0.99672 1.47684 -1.97518 2.47363 -2.47356 0.14077 -0.07038 0.30645 -0.07037 0.44721 0.00001 0.99672 0.49838 1.97518 1.47683 2.47355 2.47355 0.07034 0.1407 0.07039 0.3063 0.00014 0.447 -0.07026 0.1407 -0.20262 0.2402 -0.35733 0.2685 -0.53647 0.0982 -1.06447 0.1631 -1.58974 0.1948l0 1.3684c0 0.4142 -0.33579 0.75 -0.75 0.75Z" clip-rule="evenodd"/></svg>