<svg xmlns="http://www.w3.org/2000/svg" fill="none" viewBox="0 0 14 14"><path fill="currentColor" fill-rule="evenodd" d="M6.25024 4.80504c0 0.41421 0.33579 0.75 0.75 0.75 0.41422 0 0.75 -0.33579 0.75 -0.75l0 -1.36838c0.52527 -0.03171 1.05328 -0.09666 1.58975 -0.19485 0.1547 -0.02831 0.28707 -0.12777 0.35732 -0.26848 0.07025 -0.14071 0.07021 -0.30628 -0.00013 -0.44695C9.1988 1.52962 8.22035 0.551168 7.22363 0.0527897c-0.14076 -0.070384 -0.30645 -0.0703864 -0.44721 -0.0000066C5.77962 0.551162 4.80117 1.52962 4.30279 2.52638c-0.07034 0.14067 -0.07039 0.30624 -0.00013 0.44695 0.07025 0.14071 0.20262 0.24017 0.35732 0.26848 0.53665 0.09823 1.06482 0.16318 1.59026 0.19488l0 1.36835ZM-0.000244141 6.9984c0 -0.41421 0.335786141 -0.75 0.750000141 -0.75H13.2503c0.4143 0 0.75 0.33579 0.75 0.75s-0.3357 0.75 -0.75 0.75H0.749756c-0.414214 0 -0.750000141 -0.33579 -0.750000141 -0.75ZM7.00024 8.44567c-0.41421 0 -0.75 0.33578 -0.75 0.75l0 1.36833c-0.52544 0.0317 -1.05361 0.0967 -1.59026 0.1949 -0.1547 0.0283 -0.28707 0.1278 -0.35732 0.2685 -0.07026 0.1407 -0.07021 0.3063 0.00013 0.4469 0.49838 0.9968 1.47683 1.9752 2.47363 2.4736 0.14076 0.0704 0.30645 0.0704 0.44721 0 0.99672 -0.4984 1.97517 -1.4768 2.47355 -2.4736 0.07034 -0.1406 0.07038 -0.3062 0.00013 -0.4469 -0.07025 -0.1407 -0.20262 -0.2402 -0.35732 -0.2685 -0.53647 -0.0982 -1.06448 -0.1631 -1.58975 -0.1949l0 -1.36833c0 -0.41422 -0.33578 -0.75 -0.75 -0.75Z" clip-rule="evenodd"/></svg>