<svg viewBox="0 0 80 66" fill="none" xmlns="http://www.w3.org/2000/svg"><path d="M73.6842 8.8H33.6842C33.1152 8.79854 32.5701 8.56117 32.1684 8.14L26.5263 2.2C25.9489 1.53249 25.2486 0.993597 24.4672 0.615578C23.6859 0.237558 22.8396 0.0281878 21.9789 0H7.53684C5.53795 0 3.62092 0.82979 2.20749 2.30683C0.794058 3.78386 0 5.78715 0 7.876V58.124C0 60.2128 0.794058 62.2161 2.20749 63.6932C3.62092 65.1702 5.53795 66 7.53684 66H72.4632C74.4621 66 76.3791 65.1702 77.7925 63.6932C79.2059 62.2161 80 60.2128 80 58.124V15.4C80 13.6496 79.3346 11.9708 78.1501 10.7331C76.9657 9.49535 75.3593 8.8 73.6842 8.8Z" fill="currentColor"/></svg>