<svg viewBox="0 0 17 12" version="1.1" xmlns="http://www.w3.org/2000/svg" xmlns:xlink="http://www.w3.org/1999/xlink"><g transform="translate(1 1)" stroke="currentColor" stroke-width="1" fill="none" fill-rule="evenodd" stroke-linecap="round" stroke-linejoin="round"><line x1="9.3192" y1="6.60958857" x2="7.22665143" y2="6.60958857"/><path d="M5.72712,3.81738286 C4.72221714,3.62904 3.76478857,3.62904 2.75987429,3.81738286"/><line x1="4.24357714" y1="6.60958857" x2="4.24357714" y2="3.67612571"/><path d="M0.142284571,7.08773714 C0.354773714,8.71394286 1.74609143,9.96491429 3.38112,10.0924571 C4.69653714,10.1952 6.04883429,10.2857143 7.42857143,10.2857143 C8.80830857,10.2857143 10.1606057,10.1952 11.476,10.0924571 C13.1110857,9.96491429 14.5024,8.71394286 14.7148571,7.08773714 C14.7981714,6.44992 14.8571429,5.80091429 14.8571429,5.14285714 C14.8571429,4.4848 14.7981714,3.83579429 14.7148571,3.19797714 C14.5024,1.57179429 13.1110857,0.320845714 11.476,0.193234286 C10.1606057,0.0905714286 8.80830857,0 7.42857143,0 C6.04883429,0 4.69653714,0.0905714286 3.38112,0.193234286 C1.74609143,0.320845714 0.354772571,1.57179429 0.142284571,3.19797714 C0.0589428571,3.83579429 0,4.4848 0,5.14285714 C0,5.80091429 0.058944,6.44992 0.142284571,7.08773714 Z"/></g></svg>