<svg xmlns="http://www.w3.org/2000/svg" viewBox="0 0 16 16"><g fill="none" stroke="currentColor" stroke-linecap="round" stroke-linejoin="round" stroke-width=".667"><path d="M11.326 8.667a1 1 0 0 0-1-1h-6l-.707-.708a1 1 0 0 0-.707-.292H1.326a1 1 0 0 0-1 1v7a1 1 0 0 0 1 1h9a1 1 0 0 0 1-1z"/><path d="M12.493 12.5a1 1 0 0 0 1-1v-6a1 1 0 0 0-1-1h-6l-.707-.707a1 1 0 0 0-.707-.293H3.493a1 1 0 0 0-1 1v.659"/><path d="M14.674 9.333a1 1 0 0 0 1-1v-6a1 1 0 0 0-1-1h-6L7.967.626A1 1 0 0 0 7.26.333H5.674a1 1 0 0 0-1 1v.659"/></g></svg>
