<svg xmlns="http://www.w3.org/2000/svg" viewBox="0 0 24 24"><path d="M23.5 19.5a2 2 0 0 1 -2 2h-19a2 2 0 0 1 -2 -2v-1h23Z" fill="none" stroke="currentColor" stroke-linecap="round" stroke-linejoin="round" stroke-width="1"></path><path d="m2.5 21.5 0 2" fill="none" stroke="currentColor" stroke-linecap="round" stroke-linejoin="round" stroke-width="1"></path><path d="m21.5 21.5 0 2" fill="none" stroke="currentColor" stroke-linecap="round" stroke-linejoin="round" stroke-width="1"></path><path d="M12 18.5H7v-17a1 1 0 0 1 1 -1h3a1 1 0 0 1 1 1Z" fill="none" stroke="currentColor" stroke-linecap="round" stroke-linejoin="round" stroke-width="1"></path><path d="M17.144 18.5 15.156 2.094a1 1 0 0 1 0.872 -1.113L19.006 0.62a1 1 0 0 1 1.113 0.873L22.18 18.5" fill="none" stroke="currentColor" stroke-linecap="round" stroke-linejoin="round" stroke-width="1"></path><path d="M15 18.5h-3v-15h2a1 1 0 0 1 1 1Z" fill="none" stroke="currentColor" stroke-linecap="round" stroke-linejoin="round" stroke-width="1"></path><path d="M7 18.5H2v-17a1 1 0 0 1 1 -1h3a1 1 0 0 1 1 1Z" fill="none" stroke="currentColor" stroke-linecap="round" stroke-linejoin="round" stroke-width="1"></path><path d="m9 15.5 1 0" fill="none" stroke="currentColor" stroke-linecap="round" stroke-linejoin="round" stroke-width="1"></path><path d="m4 15.5 1 0" fill="none" stroke="currentColor" stroke-linecap="round" stroke-linejoin="round" stroke-width="1"></path><path d="m4.5 3.5 0 9" fill="none" stroke="currentColor" stroke-linecap="round" stroke-linejoin="round" stroke-width="1"></path><path d="m9.5 3.5 0 9" fill="none" stroke="currentColor" stroke-linecap="round" stroke-linejoin="round" stroke-width="1"></path><path d="M18 13.5a1 1 0 1 0 2 0 1 1 0 1 0 -2 0" fill="none" stroke="currentColor" stroke-linecap="round" stroke-linejoin="round" stroke-width="1"></path></svg>
