<svg xmlns="http://www.w3.org/2000/svg" fill="none" viewBox="-0.5 -0.5 24 24"><path stroke="currentColor" stroke-linecap="round" stroke-linejoin="round" d="M15.812595833333333 5.270833333333334v-0.9526983333333334c0.0007666666666666667 -0.2504604166666667 -0.0966 -0.49125125000000003 -0.27120833333333333 -0.6708333333333333L12.7411375 0.7665535833333333c-0.08950833333333333 -0.09135695833333334 -0.19645833333333332 -0.163860625 -0.314525 -0.21323779166666668 -0.11797083333333334 -0.049377166666666666 -0.24466250000000003 -0.07462733333333334 -0.3726 -0.07426220833333334h-8.795583333333335c-0.22875416666666668 0 -0.44812625000000006 0.09087012500000001 -0.6098833333333333 0.2526205 -0.16174750000000002 0.16174941666666667 -0.25261666666666666 0.381133 -0.25261666666666666 0.6098775833333334V16.866570833333334c0 0.22875416666666668 0.09086916666666667 0.4481166666666667 0.25261666666666666 0.6098833333333333 0.16175708333333333 0.16176666666666667 0.3811291666666667 0.25261666666666666 0.6098833333333333 0.25261666666666666H7.1875" stroke-width="1"></path><path stroke="currentColor" stroke-linecap="round" stroke-linejoin="round" d="M7.187595833333333 6.133457916666667c0 -0.22875416666666668 0.09086916666666667 -0.44813583333333334 0.25261666666666666 -0.6098833333333333 0.16175708333333333 -0.16174750000000002 0.3811291666666667 -0.25261666666666666 0.6098833333333333 -0.25261666666666666h8.795583333333335c0.1279375 -0.0003641666666666667 0.2546291666666667 0.024878333333333336 0.3726 0.07426125 0.11806666666666668 0.04937333333333334 0.22501666666666667 0.12188083333333333 0.314525 0.21323875000000003l2.80025 2.88075c0.17460833333333334 0.1795725 0.271975 0.42037291666666665 0.27120833333333333 0.6708333333333333V21.658429166666668c0 0.22875416666666668 -0.09085 0.4481166666666667 -0.25261666666666666 0.6098833333333333 -0.16176666666666667 0.16176666666666667 -0.3811291666666667 0.25261666666666666 -0.6098833333333333 0.25261666666666666h-11.691666666666666c-0.22875416666666668 0 -0.44812625000000006 -0.09085 -0.6098833333333333 -0.25261666666666666 -0.16174750000000002 -0.16176666666666667 -0.25261666666666666 -0.3811291666666667 -0.25261666666666666 -0.6098833333333333V6.133457916666667Z" stroke-width="1"></path><path stroke="currentColor" stroke-linecap="round" d="M11.021025 9.104051666666667h3.354166666666667" stroke-width="1"></path><path stroke="currentColor" stroke-linecap="round" d="M11.021025 11.978783333333332h5.75" stroke-width="1"></path><path stroke="currentColor" stroke-linecap="round" d="M11.021025 14.854070833333335h5.75" stroke-width="1"></path><path stroke="currentColor" stroke-linecap="round" d="M11.021025 17.7292625h5.75" stroke-width="1"></path></svg>
