<svg xmlns="http://www.w3.org/2000/svg" viewBox="-0.5 -0.5 24 24"><path d="M1.438.477h20.125s.958 0 .958.959V21.56s0 .958-.959.958H1.438s-.958 0-.958-.958V1.436s0-.959.959-.959M12.938 6.227h6.708M10.063 10.06h9.583M10.063 13.894h9.583M10.063 17.727h6.708" fill="none" stroke="currentColor" stroke-linecap="round" stroke-linejoin="round"/><path d="M3.833 4.31h2.875s.48 0 .48.48v2.875s0 .479-.48.479H3.833s-.479 0-.479-.48V4.79s0-.48.48-.48M3.833 10.06h2.875s.48 0 .48.48v2.875s0 .479-.48.479H3.833s-.479 0-.479-.48V10.54s0-.48.48-.48M3.833 15.81h2.875s.48 0 .48.48v2.875s0 .479-.48.479H3.833s-.479 0-.479-.48V16.29s0-.48.48-.48" fill="none" stroke="currentColor" stroke-linecap="round" stroke-linejoin="round"/></svg>