<svg xmlns="http://www.w3.org/2000/svg" viewBox="0 0 24 24"><g><path d="M.91,12.59a1,1,0,0,1,0-1.18C2.11,9.8,5.9,5.5,12,5.5s9.89,4.3,11.09,5.91a1,1,0,0,1,0,1.18c-1.2,1.61-5,5.91-11.09,5.91S2.11,14.2.91,12.59Z" fill="none" stroke="currentColor" stroke-linecap="round" stroke-linejoin="round"></path><path d="M7.76,13.5A4.38,4.38,0,0,1,7.5,12,4.49,4.49,0,0,1,12,7.5a4.38,4.38,0,0,1,1.5.26" fill="none" stroke="currentColor" stroke-linecap="round" stroke-linejoin="round"></path><path d="M15.18,8.82a4.5,4.5,0,1,1-6.36,6.36" fill="none" stroke="currentColor" stroke-linecap="round" stroke-linejoin="round"></path><line x1="17" y1="7" x2="6.75" y2="17.25" fill="none" stroke="currentColor" stroke-linecap="round" stroke-linejoin="round"></line></g></svg>