<svg xmlns="http://www.w3.org/2000/svg" viewBox="-0.335 -0.335 16 16"><path d="M12.937 8.623h1.435a.639.639 0 00.639-.639v-.638a.639.639 0 00-.64-.64h-1.434a7.537 7.537 0 00-.64-1.866l1.016-1.014a.639.639 0 000-.903l-.906-.903a.639.639 0 00-.903 0l-1.016 1.015a7.517 7.517 0 00-1.865-.639V.958A.639.639 0 007.984.32h-.638a.639.639 0 00-.64.64v1.436a7.523 7.523 0 00-1.865.638L3.825 2.02a.639.639 0 00-.903 0l-.904.904a.639.639 0 000 .903l1.016 1.015a7.55 7.55 0 00-.639 1.866H.958a.639.639 0 00-.639.638v.639a.639.639 0 00.64.639h1.434a7.55 7.55 0 00.639 1.866l-1.016 1.015a.639.639 0 000 .903l.906.904a.639.639 0 00.903 0l1.015-1.016a7.537 7.537 0 001.867.639v1.437a.639.639 0 00.639.639h.638a.639.639 0 00.64-.64v-1.433a7.537 7.537 0 001.864-.639l1.017 1.015a.639.639 0 00.903 0l.903-.903a.639.639 0 000-.903l-1.015-1.016a7.55 7.55 0 00.641-1.869z" fill="none" stroke="currentColor" stroke-linecap="round" stroke-linejoin="round" stroke-width=".67"/><path d="M4.79 7.666a2.874 2.874 0 105.75 0 2.874 2.874 0 10-5.75 0" fill="none" stroke="currentColor" stroke-linecap="round" stroke-linejoin="round" stroke-width=".67"/></svg>
