<svg xmlns="http://www.w3.org/2000/svg" viewBox="0 0 16 16"><g fill="none" stroke="currentColor" stroke-linecap="round" stroke-linejoin="round" stroke-width=".667"><path d="M9 6a3.667 3.667 0 1 0-4.667 3.525v.808L3.667 11l.666.667v.666L3.667 13l.666.667v1l1 1 1-1V9.525A3.667 3.667 0 0 0 9 6z"/><path d="M4 4.999a1.333 1.333 0 1 0 2.667 0 1.333 1.333 0 1 0-2.667 0zm2.333 5.01a3.671 3.671 0 0 0 3.617.022l.717.636v1h1l.333.35V13h.878l.708.667H15v-1.414l-3.636-3.636a3.667 3.667 0 0 0-3.667-5.422"/><path d="M5.333 4.667v-3a1.333 1.333 0 0 1 2.667 0v1.502"/></g></svg>