<svg xmlns="http://www.w3.org/2000/svg" viewBox="0 0 24 24"><circle cx="12" cy="2.75" r="2.25" fill="none" stroke="currentColor" stroke-linecap="round" stroke-linejoin="round"/><path fill="none" stroke="currentColor" stroke-linecap="round" stroke-linejoin="round" d="M16.5 9.5a4.644 4.644 0 0 0-9 0zm-4.5 4v-2m-5.5 2 1.5-2m9.5 2-1.5-2"/><circle cx="12.086" cy="18.35" r="2.35" fill="none" stroke="currentColor" stroke-linecap="round" stroke-linejoin="round"/><circle cx="4.694" cy="18.35" r="2.35" fill="none" stroke="currentColor" stroke-linecap="round" stroke-linejoin="round"/><circle cx="19.314" cy="18.35" r="2.35" fill="none" stroke="currentColor" stroke-linecap="round" stroke-linejoin="round"/><path fill="none" stroke="currentColor" stroke-linecap="round" stroke-linejoin="round" d="M23 23.5a4.683 4.683 0 0 0-7.292 0A4.861 4.861 0 0 0 12 21.76M1 23.5a4.683 4.683 0 0 1 7.292 0A4.861 4.861 0 0 1 12 21.76"/></svg>