<svg xmlns="http://www.w3.org/2000/svg" viewBox="0 0 24 24"><path fill="currentColor" d="M19 14a5 5 0 1 1 0 10 5 5 0 0 1 0-10Zm-2.5 5.938h5a.937.937 0 1 0 0-1.875h-5a.937.937 0 1 0 0 1.875ZM12.29 17H9v5h3.674c.356.75.841 1.426 1.427 2H5a5 5 0 0 1-5-5V5a5 5 0 0 1 5-5h14a5 5 0 0 1 5 5v2.823a.843.843 0 0 1 0 .354V14.1a7.018 7.018 0 0 0-2-1.427V9h-5v3.29a6.972 6.972 0 0 0-2 .965V9H9v6h4.255a6.972 6.972 0 0 0-.965 2ZM17 7h5V5a3 3 0 0 0-3-3h-2v5Zm-2 0V2H9v5h6ZM7 2H5a3 3 0 0 0-3 3v2h5V2ZM2 9v6h5V9H2Zm0 8v2a3 3 0 0 0 3 3h2v-5H2Z"/></svg>