<svg xmlns="http://www.w3.org/2000/svg" viewBox="0 0 24 24"><path fill="currentColor" d="M6.273 23.749h11.454a1.25 1.25 0 0 0 0-2.5H6.273a1.25 1.25 0 0 0 0 2.5zM18.977 1.5c0-.69-.56-1.25-1.25-1.25H6.273a1.25 1.25 0 0 0 0 2.5h11.454c.69 0 1.25-.56 1.25-1.25zm-4.113 6.726a1 1 0 0 0 .707-1.707l-2.864-2.864a1 1 0 0 0-1.414 0L8.429 6.519a1 1 0 0 0 .707 1.707H10.5a.25.25 0 0 1 .25.25v7.045a.25.25 0 0 1-.25.25H9.136a1 1 0 0 0-.707 1.707l2.864 2.865a1 1 0 0 0 1.414 0l2.864-2.865a1 1 0 0 0-.707-1.707H13.5a.25.25 0 0 1-.25-.25V8.476a.25.25 0 0 1 .25-.25h1.364z"/></svg>