<svg xmlns="http://www.w3.org/2000/svg" fill="none" viewBox="0 0 24 24"><path fill="currentColor" fill-rule="evenodd" d="M2.75 2.5C1.23122 2.5 0 3.73122 0 5.25V18.75C0 20.2688 1.23122 21.5 2.75 21.5H21.25C22.7688 21.5 24 20.2688 24 18.75V5.25C24 3.73122 22.7688 2.5 21.25 2.5H2.75ZM4.47432 7.03875C4.90314 6.91577 5.36156 7.0917 5.598 7.47L7.75 10.9132L9.902 7.47C10.1384 7.0917 10.5969 6.91577 11.0257 7.03875C11.4545 7.16174 11.75 7.55389 11.75 8V16C11.75 16.5523 11.3023 17 10.75 17C10.1977 17 9.75 16.5523 9.75 16V11.4868L8.598 13.33C8.41526 13.6224 8.09479 13.8 7.75 13.8C7.40521 13.8 7.08474 13.6224 6.902 13.33L5.75 11.4868V16C5.75 16.5523 5.30228 17 4.75 17C4.19772 17 3.75 16.5523 3.75 16V8C3.75 7.55389 4.0455 7.16174 4.47432 7.03875ZM18.25 7.5C18.25 7.22386 18.0261 7 17.75 7H16.75C16.4739 7 16.25 7.22386 16.25 7.5V12H14.75C14.362 12 14.009 12.2245 13.8444 12.5758C13.6798 12.9272 13.7334 13.3421 13.9818 13.6402L16.4818 16.6402C16.6718 16.8682 16.9532 17 17.25 17C17.5468 17 17.8282 16.8682 18.0182 16.6402L20.5182 13.6402C20.7666 13.3421 20.8202 12.9272 20.6556 12.5758C20.491 12.2245 20.138 12 19.75 12H18.25V7.5Z" clip-rule="evenodd"></path></svg>