<svg xmlns="http://www.w3.org/2000/svg" viewBox="0 0 27 23"><g fill="none" fill-rule="evenodd" stroke="currentColor" stroke-width="2"><path d="m21.121 19.927 2.121-2.121a2 2 0 1 0-2.828-2.829l-2.121 2.122m-1.415 1.414-2.12 2.121a2 2 0 1 0 2.828 2.83l2.121-2.119m1.063-3.89-3.54 3.53M3 6.225h20M6 3.971a.25.25 0 1 0 .25.25.25.25 0 0 0-.25-.25m2 0a.25.25 0 1 0 .25.25.25.25 0 0 0-.25-.25m2 0a.25.25 0 1 0 .25.25.25.25 0 0 0-.25-.25"/><path d="M11 18.221H5a2 2 0 0 1-2-2v-12a2 2 0 0 1 2-2h16a2 2 0 0 1 2 2v6"/></g></svg>