<svg viewBox="0 0 48 48" xmlns="http://www.w3.org/2000/svg">
            <circle stroke="currentColor" fill="none" stroke-width="4" cx="24" cy="24" r="22"></circle>
            <path fill="currentColor" d="M22.942137,12.2500285 C23.6244013,12.2580126 24.206266,12.7116777 24.3334655,13.3349156 L27.4995879,28.8550753 L28.9986494,26.1409513 C29.2442485,25.6962862 29.7367802,25.4166871 30.2745116,25.4166871 L43.8991312,25.4166871 C44.6911285,25.4166871 45.3332596,26.0136184 45.3332596,26.7500159 C45.3332596,27.4864133 44.6911285,28.0833446 43.8991312,28.0833446 L31.150242,28.0833446 L28.144119,33.5257258 C27.8643866,34.0322574 27.2694554,34.317723 26.6633241,34.2362567 C26.0570596,34.1547903 25.5734612,33.7245251 25.4593283,33.1650604 L22.8346707,20.2991048 L19.8445477,33.1975936 C19.7042815,33.8027915 19.1342835,34.2385233 18.4684191,34.2497233 C17.8025548,34.2609232 17.2160234,33.8443914 17.052424,33.2442601 L14.7407253,24.7670894 L13.2563438,27.3738804 C13.0077847,27.8102789 12.5200663,28.0833446 11.9888415,28.0833446 L4.10090878,28.0833446 C3.30883952,28.0833446 2.66674041,27.4864133 2.66674041,26.7500159 C2.66674041,26.0136184 3.30883952,25.4166871 4.10090878,25.4166871 L11.1253512,25.4166871 L13.9482214,20.4595043 C14.2257671,19.9720393 14.7974318,19.6937736 15.3864164,19.7595067 C15.9753611,19.8251065 16.4601594,20.2211051 16.6058922,20.7556366 L18.3294863,27.0760147 L21.5224086,13.302449 C21.6661414,12.6823445 22.2598727,12.2422527 22.942137,12.2500285 Z" />
</svg>