<svg xmlns="http://www.w3.org/2000/svg" viewBox="0 0 24 24" id="Shrink-1--Streamline-Ultimate">
  <desc>
    Shrink 1 Streamline Icon: https://streamlinehq.com
  </desc>
  <g>
    <path d="M23.38 0.62a1.24 1.24 0 0 0 -1.76 0L18.2 4a0.26 0.26 0 0 1 -0.2 0.1 0.29 0.29 0 0 1 -0.15 -0.1l-1.32 -1.3a1 1 0 0 0 -1.71 0.71v4.77a1 1 0 0 0 1 1h4.77a1 1 0 0 0 0.92 -0.62 1 1 0 0 0 -0.21 -1.09L20 6.15a0.25 0.25 0 0 1 0 -0.36l3.41 -3.41a1.24 1.24 0 0 0 -0.03 -1.76Z" fill="#000000" stroke-width="1"></path>
    <path d="M0.62 23.38a1.21 1.21 0 0 0 0.88 0.37 1.21 1.21 0 0 0 0.88 -0.37L5.8 20a0.22 0.22 0 0 1 0.2 -0.1 0.24 0.24 0 0 1 0.18 0.07l1.29 1.33a1 1 0 0 0 0.71 0.29 0.84 0.84 0 0 0 0.38 -0.08 1 1 0 0 0 0.62 -0.92v-4.77a1 1 0 0 0 -1 -1H3.41a1 1 0 0 0 -0.92 0.61 1 1 0 0 0 0.21 1.09L4 17.85a0.24 0.24 0 0 1 0 0.35L0.62 21.62a1.24 1.24 0 0 0 0 1.76Z" fill="#000000" stroke-width="1"></path>
    <path d="M14.82 20.59a1 1 0 0 0 0.62 0.92 0.84 0.84 0 0 0 0.38 0.08 1 1 0 0 0 0.71 -0.29l1.32 -1.3a0.24 0.24 0 0 1 0.15 -0.1 0.22 0.22 0 0 1 0.17 0.07l3.42 3.41a1.23 1.23 0 0 0 1.76 0 1.24 1.24 0 0 0 0 -1.76L20 18.2a0.24 0.24 0 0 1 0 -0.35l1.33 -1.33a1 1 0 0 0 0.21 -1.09 1 1 0 0 0 -0.92 -0.61h-4.8a1 1 0 0 0 -1 1Z" fill="#000000" stroke-width="1"></path>
    <path d="M9.18 3.41a1 1 0 0 0 -1.71 -0.71L6.15 4a0.29 0.29 0 0 1 -0.15 0.1 0.26 0.26 0 0 1 -0.2 -0.1L2.38 0.62A1.24 1.24 0 0 0 0.62 2.38L4 5.79a0.25 0.25 0 0 1 0 0.36L2.7 7.47a1 1 0 0 0 -0.21 1.09 1 1 0 0 0 0.92 0.62h4.77a1 1 0 0 0 1 -1Z" fill="#000000" stroke-width="1"></path>
  </g>
</svg>