<svg xmlns="http://www.w3.org/2000/svg" fill="none" viewBox="0 0 14 14"><g stroke="currentColor" stroke-linecap="round" stroke-linejoin="round"><path d="M11.257 9.084a2.131 2.131 0 0 0 1.873-1.879c.16-1.495.16-2.955 0-4.45a2.131 2.131 0 0 0-1.873-1.88 19.937 19.937 0 0 0-4.474 0c-.98.11-1.768.899-1.873 1.88"/><path d="M4.91 2.755c.105-.981.894-1.77 1.873-1.88a19.937 19.937 0 0 1 4.474 0c.98.11 1.768.899 1.873 1.88.007.06.013.371.02.433H8.063M.87 11.245c.105.981.893 1.77 1.873 1.88a19.93 19.93 0 0 0 4.474 0 2.131 2.131 0 0 0 1.873-1.88c.16-1.495.16-2.955 0-4.45a2.131 2.131 0 0 0-1.873-1.879 19.937 19.937 0 0 0-4.474 0c-.98.11-1.768.898-1.873 1.879a20.703 20.703 0 0 0 0 4.45Z"/><path d="M9.11 7.228H.85c.007-.061.014-.372.02-.433.105-.98.893-1.77 1.873-1.879a19.937 19.937 0 0 1 4.474 0c.98.11 1.768.898 1.873 1.879.006.06.013.372.02.433Z"/></g></svg>