<svg xmlns="http://www.w3.org/2000/svg" viewBox="0 0 15 15"><g fill="none" stroke="currentColor" stroke-linecap="round" stroke-linejoin="round" stroke-width=".938"><path d="M4.934 11.899 2.945 9.91a.938.938 0 0 1 0-1.326L8.58 2.949l3.313 3.313-5.635 5.635a.938.938 0 0 1-1.324.002Z"/><path d="m1.62 11.899 1.657-1.657 1.326 1.326-1.658 1.657zm-.995 2.32 1.658-1.658M7.586 1.955l5.303 5.303M9.574 3.944l2.32-2.32 1.326 1.325-2.32 2.32zM10.9.629l3.315 3.315M8.58 6.927l1.326 1.326m-3.315.663 1.326 1.325"/></g></svg>