<svg xmlns="http://www.w3.org/2000/svg" viewBox="0 0 24 24" id="Light-Mode-Dark-Light--Streamline-Streamline--3.0.svg"><desc>Light Mode Dark Light Streamline Icon: https://streamlinehq.com</desc><defs></defs><title>light-mode-dark-light</title><path d="m12 5.25 0 -4.5" fill="none" stroke="currentColor" stroke-linecap="round" stroke-linejoin="round" stroke-width="1.5"></path><path d="M7.227 7.227 4.045 4.045" fill="none" stroke="currentColor" stroke-linecap="round" stroke-linejoin="round" stroke-width="1.5"></path><path d="m5.25 12 -4.5 0" fill="none" stroke="currentColor" stroke-linecap="round" stroke-linejoin="round" stroke-width="1.5"></path><path d="m7.227 16.773 -3.182 3.182" fill="none" stroke="currentColor" stroke-linecap="round" stroke-linejoin="round" stroke-width="1.5"></path><path d="m12 18.75 0 4.5" fill="none" stroke="currentColor" stroke-linecap="round" stroke-linejoin="round" stroke-width="1.5"></path><path d="m16.773 16.773 3.182 3.182" fill="none" stroke="currentColor" stroke-linecap="round" stroke-linejoin="round" stroke-width="1.5"></path><path d="m18.75 12 4.5 0" fill="none" stroke="currentColor" stroke-linecap="round" stroke-linejoin="round" stroke-width="1.5"></path><path d="m16.773 7.227 3.182 -3.182" fill="none" stroke="currentColor" stroke-linecap="round" stroke-linejoin="round" stroke-width="1.5"></path><path d="M5.25 12a6.75 6.75 0 1 0 13.5 0 6.75 6.75 0 1 0 -13.5 0" fill="none" stroke="currentColor" stroke-linecap="round" stroke-linejoin="round" stroke-width="1.5"></path><path d="M15.75 15a6.752 6.752 0 0 1 -6.265 -9.265 6.751 6.751 0 1 0 8.78 8.78A6.716 6.716 0 0 1 15.75 15Z" fill="none" stroke="currentColor" stroke-linecap="round" stroke-linejoin="round" stroke-width="1.5"></path></svg>