<svg width="183" height="161" viewBox="0 0 183 161" fill="none" xmlns="http://www.w3.org/2000/svg">
<path d="M86.2419 131.332C120.477 131.332 148.233 103.557 148.233 69.1745C148.233 34.7919 120.355 7.01666 86.2419 7.01666C52.0063 7.01666 24.251 34.7919 24.251 69.1745C24.251 103.557 52.0063 131.332 86.2419 131.332Z" fill="#EAEEF9"/>
<path d="M144.198 28.4294C146.967 28.4294 149.211 26.1834 149.211 23.4127C149.211 20.6421 146.967 18.3961 144.198 18.3961C141.429 18.3961 139.185 20.6421 139.185 23.4127C139.185 26.1834 141.429 28.4294 144.198 28.4294Z" fill="#EAEEF9"/>
<path d="M151.533 8.85205C153.424 8.85205 154.957 7.31816 154.957 5.42602C154.957 3.53388 153.424 2 151.533 2C149.643 2 148.11 3.53388 148.11 5.42602C148.11 7.31816 149.643 8.85205 151.533 8.85205Z" fill="#EAEEF9"/>
<path d="M27.552 28.307C29.4428 28.307 30.9755 26.7731 30.9755 24.881C30.9755 22.9888 29.4428 21.455 27.552 21.455C25.6612 21.455 24.1284 22.9888 24.1284 24.881C24.1284 26.7731 25.6612 28.307 27.552 28.307Z" fill="#EAEEF9"/>
<path d="M6.64417 94.3803C10.1556 94.3803 13.0022 91.5316 13.0022 88.0176C13.0022 84.5037 10.1556 81.655 6.64417 81.655C3.13272 81.655 0.286133 84.5037 0.286133 88.0176C0.286133 91.5316 3.13272 94.3803 6.64417 94.3803Z" fill="#EAEEF9"/>
<g filter="url(#filter0_d_67_157)">
<path d="M132.338 39.0745L133.316 117.873C133.316 120.565 131.115 122.645 128.425 122.645H51.6393C48.9494 122.645 46.7485 120.443 46.7485 117.873V16.5607C46.7485 13.8688 48.9494 11.7887 51.6393 11.7887H107.272L132.338 39.0745Z" fill="url(#paint0_linear_67_157)"/>
</g>
<g filter="url(#filter1_d_67_157)">
<path d="M160.729 50.9431H87.0972V106.616H160.729V50.9431Z" fill="url(#paint1_linear_67_157)"/>
</g>
<path d="M119.687 74.6413C119.687 73.0508 120.519 72.5206 121.871 73.3689C125.51 75.5957 129.254 77.9285 132.893 80.1552C134.245 81.0035 134.245 81.9578 132.893 82.9121C129.254 85.1389 125.614 87.4717 121.975 89.6984C120.519 90.5467 119.791 90.1226 119.687 88.6381C119.687 88.0019 119.687 76.1258 119.687 74.6413Z" fill="url(#paint2_linear_67_157)"/>
<path d="M87.0972 61.3136H160.729" stroke="#C2C8D6" stroke-width="2" stroke-miterlimit="10"/>
<path d="M98.8419 50.9431L88.5516 61.7502H87.0972L88.3199 52.8217L90.1607 50.9431H98.8419Z" fill="#C2C8D6"/>
<path d="M118.04 50.9431L107.786 61.7502H96.6597L106.95 50.9431H118.04Z" fill="#C2C8D6"/>
<path d="M137.276 50.9431L126.985 61.7502H115.859L126.149 50.9431H137.276Z" fill="#C2C8D6"/>
<path d="M156.474 50.9431L146.184 61.7502H135.094L145.348 50.9431H156.474Z" fill="#C2C8D6"/>
<path d="M160.62 55.0549V61.7502H154.293L160.62 55.0549Z" fill="#C2C8D6"/>
<path d="M107.651 10.8098V32.5895C107.651 35.6484 110.341 38.0956 113.398 38.0956H132.716" fill="#D5DDEA"/>
<path opacity="0.1" d="M101.495 129.44C96.6153 130.676 91.5053 131.332 86.2421 131.332C67.7722 131.332 51.1885 123.248 39.8315 110.404L39.566 77.6081C39.5494 74.6282 41.9463 72.2011 44.9035 72.1645L96.4821 71.7942C99.4593 71.7809 101.887 74.1827 101.927 77.1425L102.327 126.526C102.333 127.597 102.027 128.597 101.495 129.44Z" fill="#989FB0"/>
<g filter="url(#filter2_d_67_157)">
<path d="M92.631 127.608L41.0524 127.979C38.0752 127.992 35.6475 125.59 35.6077 122.63L35.2079 73.2469C35.1913 70.2671 37.5882 67.8399 40.5454 67.8034L92.124 67.433C95.1012 67.4197 97.5289 69.8215 97.5688 72.7814L97.9685 122.165C97.9851 125.145 95.5882 127.572 92.631 127.608Z" fill="url(#paint3_linear_67_157)"/>
</g>
<path d="M89.7265 120.235L44.3847 120.579C43.1021 120.59 42.0698 119.577 42.0569 118.293L41.713 77.4801C41.7001 76.1964 42.7112 75.1643 43.9938 75.1528L89.3356 74.8094C90.6182 74.798 91.6505 75.8112 91.6634 77.095L92.0074 117.908C92.0202 119.192 91.0091 120.224 89.7265 120.235Z" fill="#EAEEF9"/>
<path d="M67.799 104.918L51.2584 105.033L59.4578 95.5886L67.799 104.918Z" fill="#989FB0"/>
<path d="M81.5146 104.806L57.6708 104.976L69.4794 91.4135L81.5146 104.806Z" fill="#C2C8D6"/>
<path d="M59.4422 91.435C60.7499 90.3095 60.8973 88.3349 59.7712 87.0247C58.6452 85.7146 56.6722 85.5649 55.3645 86.6905C54.0567 87.816 53.9094 89.7906 55.0354 91.1008C56.1615 92.4109 58.1344 92.5606 59.4422 91.435Z" fill="#989FB0"/>
<defs>
<filter id="filter0_d_67_157" x="24.7485" y="0.788696" width="130.567" height="154.856" filterUnits="userSpaceOnUse" color-interpolation-filters="sRGB">
<feFlood flood-opacity="0" result="BackgroundImageFix"/>
<feColorMatrix in="SourceAlpha" type="matrix" values="0 0 0 0 0 0 0 0 0 0 0 0 0 0 0 0 0 0 127 0" result="hardAlpha"/>
<feOffset dy="11"/>
<feGaussianBlur stdDeviation="11"/>
<feColorMatrix type="matrix" values="0 0 0 0 0.397708 0 0 0 0 0.47749 0 0 0 0 0.575 0 0 0 0.27 0"/>
<feBlend mode="normal" in2="BackgroundImageFix" result="effect1_dropShadow_67_157"/>
<feBlend mode="normal" in="SourceGraphic" in2="effect1_dropShadow_67_157" result="shape"/>
</filter>
<filter id="filter1_d_67_157" x="65.0972" y="39.9431" width="117.632" height="99.6729" filterUnits="userSpaceOnUse" color-interpolation-filters="sRGB">
<feFlood flood-opacity="0" result="BackgroundImageFix"/>
<feColorMatrix in="SourceAlpha" type="matrix" values="0 0 0 0 0 0 0 0 0 0 0 0 0 0 0 0 0 0 127 0" result="hardAlpha"/>
<feOffset dy="11"/>
<feGaussianBlur stdDeviation="11"/>
<feColorMatrix type="matrix" values="0 0 0 0 0.397708 0 0 0 0 0.47749 0 0 0 0 0.575 0 0 0 0.27 0"/>
<feBlend mode="normal" in2="BackgroundImageFix" result="effect1_dropShadow_67_157"/>
<feBlend mode="normal" in="SourceGraphic" in2="effect1_dropShadow_67_157" result="shape"/>
</filter>
<filter id="filter2_d_67_157" x="13.208" y="56.433" width="106.761" height="104.546" filterUnits="userSpaceOnUse" color-interpolation-filters="sRGB">
<feFlood flood-opacity="0" result="BackgroundImageFix"/>
<feColorMatrix in="SourceAlpha" type="matrix" values="0 0 0 0 0 0 0 0 0 0 0 0 0 0 0 0 0 0 127 0" result="hardAlpha"/>
<feOffset dy="11"/>
<feGaussianBlur stdDeviation="11"/>
<feColorMatrix type="matrix" values="0 0 0 0 0.397708 0 0 0 0 0.47749 0 0 0 0 0.575 0 0 0 0.27 0"/>
<feBlend mode="normal" in2="BackgroundImageFix" result="effect1_dropShadow_67_157"/>
<feBlend mode="normal" in="SourceGraphic" in2="effect1_dropShadow_67_157" result="shape"/>
</filter>
<linearGradient id="paint0_linear_67_157" x1="90.0039" y1="9.22448" x2="90.0039" y2="123.84" gradientUnits="userSpaceOnUse">
<stop stop-color="#FDFEFF"/>
<stop offset="0.9964" stop-color="#ECF0F5"/>
</linearGradient>
<linearGradient id="paint1_linear_67_157" x1="123.889" y1="49.6553" x2="123.889" y2="107.216" gradientUnits="userSpaceOnUse">
<stop stop-color="#FDFEFF"/>
<stop offset="0.9964" stop-color="#ECF0F5"/>
</linearGradient>
<linearGradient id="paint2_linear_67_157" x1="133.343" y1="72.9676" x2="120.121" y2="73.0058" gradientUnits="userSpaceOnUse">
<stop stop-color="#B0BACC"/>
<stop offset="1" stop-color="#969EAE"/>
</linearGradient>
<linearGradient id="paint3_linear_67_157" x1="38.6669" y1="65.2592" x2="93.8559" y2="129.382" gradientUnits="userSpaceOnUse">
<stop stop-color="#FDFEFF"/>
<stop offset="0.9964" stop-color="#ECF0F5"/>
</linearGradient>
</defs>
</svg>
