<svg xmlns="http://www.w3.org/2000/svg" viewBox="0 0 397 272"><mask id="a" fill="#fff"><path fill-rule="evenodd" d="M.507.168h10.357v64.97H.507z"/></mask><g fill="none" fill-rule="evenodd"><g fill="#e0dfe6"><path d="M117.573 97.605c-.737-1.8-2.206-2.796-4.204-2.386-2.275.467-3.169 2.438-4.679 3.898-.767.743-1.94 1.233-2.999.833-.24-.091-.491.065-.624.254-1.893 2.702 2.27 4.95 4.451 5.122 3.843.302 9.963-3.059 8.055-7.72m-17.427-31.309c-2.674-3.853-5.718-6.627-10.291-8.038-2.015-.622-4.142-.712-6.181-1.24a267.89 267.89 0 0 1-7.813-2.16c-3.5-1.02-4.869 4.232-1.491 5.406 4.43 1.541 9.44 2.535 12.212 6.623a108.322 108.322 0 0 1 3.383 5.357c.5.842 1.57 2.324 2.276 3.55-1.163.598-2.686 1.155-3.32 1.476a948.779 948.779 0 0 0-5.928 3.027c-4.095 2.109-8.278 4.86-12.593 6.456-4.176 1.543-5.893-2.605-7.879-5.605-1.196-1.807-2.293-3.664-3.416-5.515-1.037-1.71-1.996-3.813-3.519-5.118-.496-.426-1.53-.364-1.65.436-.598 3.976 1.632 8.884 2.982 12.558 1.473 4.009 2.882 8.681 6.828 10.958 4.086 2.358 9.157 1.503 13.322-.14 4.827-1.905 9.529-4.227 14.256-6.366 4.094-1.852 9.776-3.366 12.012-7.627 2.416-4.604-.519-10.189-3.19-14.038M55.115 93.455c-5.287-6.645-14.528-9.772-22.608-11.27-1.518-.283-2.568 1.747-1.096 2.597 5.45 3.149 11.591 5.675 14.928 11.358 2.796 4.763 1.936 10.93-.436 15.607-2.63 5.185-8.172 8.334-13.704 9.644-5.406 1.28-10.411.698-15.217-1.99-.601-.336-1.458-.048-1.625.662-2.043 8.705 10.23 12.763 16.657 12.678 9.79-.13 18.867-4.76 24.253-13.019 5.248-8.043 4.826-18.753-1.152-26.267"/><path d="M28.274 92.16c-2.138.45-3.28 2.911-2.78 4.894.615 2.441 2.495 4.137 4.454 5.57.552.404 1.127.75 1.703 1.101-1.705 2.367-3.847 4.507-5.734 6.598-.942 1.043-.377 3.147 1.25 3.017 6-.482 17.39-3.346 17.32-10.98-.068-7.478-9.862-11.536-16.213-10.2m76.871 119.04c-.882-3.801-2.139-7.483-3.713-11.053-1.551-3.514-3.56-6.695-5.583-9.946a41.21 41.21 0 0 1-.724-1.217c-.01-.059-.022-.117-.03-.176-.086-.565-.373-.96-.755-1.213-1.305-2.332-2.676-4.771-4.54-6.446-.217-.195-.579-.124-.66.174-.835 3.056.553 6.583 1.633 9.423.094.245.197.485.293.73.105.695.232 1.387.38 2.072-.457-1.089-1.226-2.04-2.146-2.98a26.813 26.813 0 0 1-1.281-1.396c-.381-5.585-3.03-11.696-4.93-15.974-.27-.608-.733-1.023-1.28-1.28-.04-.12-.076-.243-.117-.363-.558-1.609-1.982-2.386-3.65-2.071-4.972.94-9.806 2.256-14.663 3.668-2.419.702-4.83 1.427-7.235 2.172-2.361.733-4.793 1.82-7.255 2.06-.924.09-1.783.528-2.476 1.154-1.953.148-3.747 1.818-3.017 4.031a414.65 414.65 0 0 1 2.543 8.055 55.141 55.141 0 0 1-.161 1.916c-.176 1.683.732 3.187 2.042 4.186l.031.102c.873 2.794 1.659 6.328 3.807 8.186-.118.057-.238.11-.357.167-1.183.574-.63 2.596.678 2.501 5.572-.402 10.877-1.41 16.3-2.719 4.658-1.125 10.019-1.941 14.238-4.304 1.223-.684 2.204-1.495 2.986-2.4a3.35 3.35 0 0 0 1.005.498l1.39.426c2.072.634 3.84-1.069 3.978-3.029.019-.27.016-.527.002-.78.98 3.83 2.321 7.577 2.71 11.546.242 2.452-.039 4.876-.039 7.306-7.134 1.82-14.788 3.881-21.901 6.102-4.613 1.44-9.137 3.031-13.454 5.212-2.046 1.033-4.13 2.08-6.018 3.385-.653.452-2.476 2.423-3.304 2.328-.931-.107-1.521-1.49-1.966-2.184-.267-.413-.854-.319-1.012.133-1.484 4.258.797 8.09 5.582 7.683 2.922-.249 5.798-1.119 8.666-1.685 3.129-.617 6.269-1.093 9.39-1.743 5.884-1.226 11.958-2.115 17.714-3.869 3.073-.936 6.035-2.223 8.918-3.631 2.44-1.193 4.929-2.18 6.742-4.142.238-.07.462-.196.656-.394 2.568-2.615 1.312-7.074.583-10.221"/><path d="M45.394 218.449c-.544-1.981-.371-4.132-1.158-6.048a7.29 7.29 0 0 0-1.225-2c1.096-.847 1.821-2.17 1.818-3.602-.005-2.103-1.286-4.217-2.272-5.994-1.064-1.92-1.966-3.81-2.91-5.793-1.003-2.106-1.913-4.939-3.589-6.64-.71-.72-2.1-.418-2.331.615-.025.113-.042.23-.062.346a2.94 2.94 0 0 0-1.143.985l-.047-.082c-.866 1.223-.211 3.533.015 4.897.432 2.608 1.069 5.22 1.684 7.79.273 1.135.621 2.554 1.145 3.905a67.67 67.67 0 0 0-1.893-.325c-5.195-.829-10.377-1.46-15.626-1.796-2.548-.162-5.095-.325-7.648-.34-2.25-.014-4.91-.38-6.831.978-.275.194-.343.548-.104.806 1.376 1.484 3.406 1.723 5.304 2.183 2.479.601 4.97 1.12 7.461 1.67 4.645 1.021 9.29 2.02 13.94 3.012 2.066.44 4.309.651 6.303 1.34 1.876.649 2.463 2.158 3.29 3.826 1.297 2.615 3.301 6.667 6.76 6.369.35-.03.552-.25.594-.592.26-2.11-.944-3.568-1.475-5.51m34.751-61.114c-1.064-3.538-3.413-6.783-5.659-9.668-.005-.006-.011-.01-.016-.017a87.896 87.896 0 0 0-.225-.425c-.965-1.82-3.567-1.23-4.167.525-.036-.048-.065-.1-.104-.148-.431-.533-1.296-.304-1.613.208-.968 1.569-.98 3.594-1.263 5.387a70.53 70.53 0 0 1-1.296 6.218c-.514 2.037 1.505 3.16 3 2.59.305.575.887.986 1.721.986 2.459-.002 4.932-1.263 6.151-3.415 1.477 1.18 4.114-.102 3.47-2.24m-8.525 92.063c-.837-2.443-4.106-4.525-6.576-2.675-.772.58-1.497 1.065-2.003 1.93.018-.032-.75 1.688-.376.916-.412.849-.535 1.257-1.093 1.721-.188.156-.65.517-1.035.568-.848.112-.753-.313-.947-1.07-.242-.95-1.614-1.128-2.094-.275-.926 1.65-1.616 3.486-.744 5.311.966 2.022 3.428 2.858 5.512 3.025 4.62.37 11.116-4.312 9.356-9.451m78.623 2.373c.298-.47.604-.943.943-1.399-.005.44-.003.879.005 1.318-.298 0-.616.03-.948.08m103.908-55.047c1.332-1.02 1.202-3.477-.698-3.917-.115-.027-.233-.04-.35-.063-.031-.55-.023-1.113.168-1.523.96-2.075.333-5.063-2.28-5.604-.241-.05-.49-.08-.735-.12-.477-.717-1.03-1.308-1.683-1.678-1.289-.731-2.703-.484-4.033-.071-2.025.628-3.974 1.371-6.045 1.877-.172.042-.345.08-.517.121-4.207.4-8.232 1.244-12.349 2.223-2.293.545-4.58 1.116-6.867 1.692-1.87.352-3.737.706-5.599 1.073-1.659.328-3.319.647-4.978.972-4.169-.334-8.123.308-12.335.868l-13.667 1.815-13.667 1.815c-1.41.188-2.765.35-4.073.59-1.46-.033-2.922-.04-4.378-.107-.87-.04-2.914.014-3.494-.771a2.065 2.065 0 0 0-.976-.74c-.153-3.934 1.093-7.9 1.996-11.665 1.182-4.925 1.838-9.853 1.082-14.899-.722-4.819-2.954-8.722-6.092-12.408-2.25-2.643-5.59.321-5.193 3.022.78 5.312.052 11.309-.733 16.599-.792 5.339-2.481 10.49-2.951 15.883-.446 5.119.487 10.241 2.208 15.058 1.505 4.21 4.122 8.454 4.741 12.916.561 4.034-2.048 7.731-3.657 11.231-2.02 4.396-5 10.395-4.27 15.431-4.72 2.206-9.556 3.788-14.636 4.645-3.173.165-6.328.442-9.538.747-1.016.096-1.714 1.035-1.799 1.935-.57.172-1.101.44-1.572.854-.285.253-.296.811 0 1.06 3.73 3.143 8.59 5.37 13.33 6.423 2.656.59 5.312.809 8.027.895 1.345.043 2.696.1 4.043.095.418-.001 1.37-.057 2.145-.111.04.24.08.472.13.675.344 1.396.803 2.61 1.844 3.652 1.654 1.658 3.659 3.342 5.73 4.458 1.286.693 2.647.24 3.466-.91.072-.08.123-.174.187-.26.22.074.448.138.693.18 1.069.18 2.612-.492 2.433-1.853-.412-3.129.314-5.668.923-8.687.482-2.389.748-4.802 1.303-7.183 1.207-5.17 2.223-10.321 3.71-15.43 2.842-9.77 6.348-20.005.159-29.353a16.413 16.413 0 0 0-.773-1.06c1.325-.112 2.68-.45 3.947-.762 1.026.055 2.038.096 3.013.151 9.099.506 18.348.14 27.445-.294 9.508-.454 18.662-2.384 27.864-4.677 4.618-1.15 9.38-1.988 13.866-3.585 1.155-.41 2.3-.84 3.444-1.278a9.82 9.82 0 0 0 1.583.356 5.934 5.934 0 0 0 .135 2.094c1.33 5.59 2.01 10.852 1.784 16.624-.23 5.909-1.07 11.773-1.855 17.627-.758 5.653-1.537 11.496-.834 17.19.624 5.05 1.692 11.663 5.32 15.536.387.413 1.113.202 1.254-.331.679-2.566.506-5.314.946-7.935.465-2.777.892-5.567 1.329-8.348.916-5.83 1.696-11.69 2.533-17.532 1.621-11.327 3.674-24.094-.154-35.228m-112.077-34.96c-2.207-.561-4.558 1.354-6.082 2.764-2.273 2.102-4.089 4.704-5.935 7.172-1.07 1.43-2.119 2.885-3.012 4.382a26.259 26.259 0 0 0-2.473-2.557c.933-2.949-.475-7.016-1.417-9.58-.962-2.615-2.385-5.031-3.685-7.488.844-3.403 1.548-6.832 1.8-10.363.428-6.046.57-12.204.45-18.261-.012-.656-.914-.926-1.251-.339-3.275 5.702-6.542 11.725-9.032 17.815-2.453 5.996-4.75 13.016-5.108 19.538-.323 5.886 3.15 10.376 7.564 13.813 3.512 2.735 7.247 5.115 10.904 7.606.145.666.35 1.345.631 2.037 1.074 2.645 5.446 4.234 6.959.909.685-1.505.787-2.761.872-4.184.578-.68 1.273-1.33 1.753-2.118.708-1.161 1.376-2.374 2.026-3.568a251.778 251.778 0 0 0 3.587-6.808c.845-1.67 5.184-9.82 1.449-10.77m128.389 53.439c-.712 0-.714 1.106 0 1.106.711 0 .713-1.106 0-1.106"/><path d="m224.914 153.4.342-.528c1.683-2.61-1.398-5.387-3.942-4.329-.742-.16-1.538-.126-2.317-.086-2.571.134-5.146.44-7.712.661-4.785.412-9.555.846-14.324 1.413-3.616.43-7.505.67-11.025 1.772-1.275.009-2.55.018-3.825.03-3.258.03-6.508.095-9.765.217-2.453.091-5.146.074-7.156 1.685-2.425 1.944-2.89 7.347 1.116 7.66.886.068 1.262-.955.936-1.63-1.177-2.44 2.608-2.295 4.02-2.263 2.532.057 5.06.206 7.594.24 5.426.073 10.851.12 16.276.178 7.807.086 17.038.92 24.605-2.084.013.205.027.395.047.557l.574 4.657c.259 2.095 3.713 3.12 4.117.557.355-2.254 1.308-5.83-.325-7.74a1375.32 1375.32 0 0 0-.01-.167c.295-.205.56-.467.774-.8m13.265 84.016c-1.8-2.95-4.72-5.4-7.08-7.887l-3.714-3.916c-1.152-1.214-1.407-1.806-2.18-3.115-.658-1.115-1.989-1.615-3.226-1.312l-.281.068c-1.429.35-2.305 1.718-2.373 3.115-.12 2.426 1.32 4.21 2.6 6.133l4.174 6.272c.794 1.194 1.613 2.375 2.384 3.584.223.325.422.665.621 1.003-.19.186-.515.655-.665.781-.967.816-2.162 1.426-3.22 2.113-4.183 2.715-8.35 5.734-12.94 7.74-1.806.788-3.963 1.684-5.963 1.54-1.791-.129-3.462-.923-5.175-1.387-.74-.2-1.262.353-1.35 1.028-.735 5.598 7.086 7.646 11.255 7.386 3.378-.211 6.585-1.624 9.667-2.915 3.275-1.37 6.587-2.79 9.656-4.584 5.454-3.188 12.043-8.705 7.81-15.647m-31.614-128.003c-1.377-.122-2.298 1.412-1.991 2.612.49 1.92-1.421 4.318-2.694 5.562-2.119 2.068-4.698 3.854-7.462 4.944-3.035 1.195-6.063 1.118-9.267 1.123-1.638.003-3.339.112-4.86-.49-.439-.173-.9-.61-1.419-.501-1.33.276-1.75 1.616-1.47 2.804.572 2.41 2.78 3.3 4.92 3.954 5.434 1.663 10.917 1.93 16.3-.117 4.553-1.733 9.472-4.836 12.21-8.967 2.791-4.208 1.306-10.433-4.267-10.924m-51.248 16.271c-1.714-1.99-5.047-.825-5.697 1.504-.653 2.342-.587 3.347-2.417 5.1-1.427 1.366-3.006 2.59-4.773 3.484a18.084 18.084 0 0 1-5.847 1.759c-.845.097-6.526.123-6.189-.898.166-.505-.504-.838-.859-.5-2.271 2.169.224 4.348 2.315 5.451 3.282 1.73 7.518 2.038 11.092 1.25 6.382-1.41 18.848-9.635 12.375-17.15m116.183-.091c-1.292-4.019-3.788-8.437-6.676-11.539a6.169 6.169 0 0 0-2.006-1.448c-.25-.463-.607-.856-1.087-1.076-1.018-.463-1.918-.712-3.042-.694-.352.005-.61-.047-1.04-.23-.91-.387-1.192-.899-1.56-1.865-.191-.507-.656-.83-1.214-.689a2.56 2.56 0 0 0-1.15.61c-1.379-.105-2.836.876-2.241 2.521.89 2.462 1.972 5.163 2.66 7.881-.99 3.809-4.825 7.316-8.415 8.729-3.64 1.431-7.579 1.94-11.411 2.558-4.071.657-8.043 1.587-11.925 2.972-.325.116-.42.697 0 .761 2.39.366 4.961.665 7.6.814-.546.125-1.093.249-1.637.382-1.005.246-1.105 1.956 0 2.132 4.819.77 9.663 1.184 14.53 1.532 3.307.236 7.125.16 10.093 1.909.03 1.1.068 2.2.118 3.295.104 2.278.278 4.532.62 6.784-1.381-.184-2.868.153-4.424 1.056-.209.121-.2.423 0 .546.39.237.833.476 1.294.72-.62.817-.749 2.066.055 3.023.901 1.072 1.996 2.043 3.171 2.978l.073.124c-.165.584-.092 1.248.362 1.926 1.882 2.813 4.02 5.375 6.541 7.536.113 2.786 2.586 4.072 4.747 3.606 1.77 1.083 4.476-.778 4.02-3.149a13.08 13.08 0 0 0-.434-1.66c2.52-8.985 2.336-18.84 2.954-28.054.31-4.61.864-9.504-.577-13.991m33.369 133.647c-.307-2.554-1.417-4.908-2.213-7.336-1.439-4.388-2.735-8.894-3.63-13.425-.923-4.663-.683-9.376-.475-14.096.226-5.129.46-10.257.659-15.388.779-20.064 2.513-40.076 1.309-60.151-.32-5.343-.856-10.631-1.722-15.914-.291-1.774-.596-3.557-.968-5.325.255-2.432.129-4.88-.651-7.363-.307-.973-1.31-1.747-2.336-1.884-.152-.313-.31-.623-.475-.93-.163-.303-.743-.276-.795.104-.05.367-.088.735-.128 1.103-.192.12-.37.28-.53.482l-.23.296c-.713.909-1.01 2.012-.398 3.075l.187.324c.015.025.03.047.046.07 1.215 7.617-3.475 15.256-3.803 22.86-.366 8.494 1.045 17.225 1.734 25.734a295.16 295.16 0 0 0-.324 5.09c-.498 9.23-1.072 18.454-1.9 27.66-.715 3.533-1.544 7.038-2.405 10.542-.847 3.441-1.44 7.139-2.795 10.419-1.258 3.044-3.807 6.38-6.55 8.24-1.647 1.118-3.524 1.762-5.376 2.433-1.889.685-3.553 1.552-5.544 1.972-.833.176-.745 1.375 0 1.6l.942.277c-.138.02-.274.044-.411.063-.756.106-.674 1.279 0 1.447a79 79 0 0 0 11.172 1.959c3.278.332 7.172-.294 9.884 1.916.16.13.306.277.456.42a94.201 94.201 0 0 0 2.58 8.804c.857 2.494 1.688 5.148 2.95 7.468 1.69 3.106 4.064 4.401 7.21 5.365.394.556.785 1.114 1.193 1.663 1.362 1.832 4.04.306 3.07-1.794-1.101-2.384.583-5.14.267-7.78M211.357 62.501a15.332 15.332 0 0 0-2.164-1.7 69.74 69.74 0 0 1 2.015.323c.16.028.32.049.478.065-.118.438-.224.875-.329 1.312m-4.705-21.236c-.998-.485-2.066-.877-2.935-1.257-.137-.06-.276-.113-.414-.17 1.322-.294 2.608-.669 3.777-1.284.032.696.052 1.394.055 2.092a6.27 6.27 0 0 1-.483.619m24.217 63.849c-3.776-2.231-6.175-6.249-6.905-10.557-.364-2.151-.13-4.4-.37-6.568-.293-2.637-.793-5.264-1.358-7.854-1.105-5.055-2.267-10.307-2.092-15.508.162-4.849 1.204-9.63 1.793-14.434.55-4.496.197-8.878-1.31-13.125-1.673-6.527-5.127-12.338-9.142-17.735a19.918 19.918 0 0 0-2.263-4.804c-1.582-2.825-3.603-5.37-6.108-7.406-.025-.05-.046-.098-.076-.147-1.995-3.332-7.96-3.742-11.479-3.884-4.61-.186-8.952.453-13.437 1.433-.608.132-.4.95.136 1.008 4.077.437 8.256.72 12.277 1.517 1.085.215 2.176.47 3.256.76a56.4 56.4 0 0 1 4.858 3.88c.332.494.666.989 1.01 1.489 1.186 1.73 2.363 3.534 3.359 5.412a27.978 27.978 0 0 1 1.379 8.79c-.01 1.038-.01 2.853-.356 4.239-1.424.14-2.847.291-4.268.463-4.404.532-8.816 1.142-13.156 2.063-8.793 1.864-17.07 4.486-25.313 8.058-.217.094-.054.401.152.361 7.881-1.567 15.872-3 23.842-4.12-.02.013-.04.022-.06.035-.217.138-.315.495-.09.682.134.11.28.2.42.3-.616.135-1.237.274-1.865.413a98.364 98.364 0 0 0-6.748.597c-3.08.375-6.192.8-9.196 1.593-2.695.712-6.373 1.257-8.423 3.28-.104.103-.058.296.087.331.448.11.913.165 1.387.189-6.129 1.526-12.286 3.568-17.955 6.285-4.301 2.061-11.606 6.608-11.969 11.993-.028.426.45.59.774.443 2.422-1.09 4.342-3.405 6.687-4.755a56.465 56.465 0 0 1 8.04-3.795c6.32-2.4 12.975-3.81 19.572-5.206a137.117 137.117 0 0 1 17.035-2.49c-1.17.55-1.948 1.688-2.195 2.89-1.77.357-3.533.753-5.28 1.196-6.035 1.528-11.933 3.35-17.66 5.801-5.365 2.296-11.977 4.875-15.942 9.312-.547.61-.006 1.459.769 1.32 5.549-1 10.856-3.947 16.292-5.515 5.707-1.646 11.614-3.03 17.533-3.589 3.508-.33 7.032-.483 10.555-.47 4.672 1.802 9.998 3.362 13.627 6.913 3.47 3.397 3.86 9.723 4.796 14.245.546 2.635.933 5.282 1.297 7.945.425 3.104 1.732 5.71 2.582 8.665.635 2.21 1.036 4.352 3.255 5.547 1.056.569 2.356.555 3.514.747 1.604.265 3.2.606 4.797.908.123.023.237.026.354.034 1.906 2.263 4.166 4.23 6.829 5.53 3.122 1.525 5.807-2.898 2.752-4.705m-88.648 6.202c1.227-3.747-.881-9.122-1.75-12.68-2.658-10.894-5.097-22.311-9.967-32.43-.037-.077-.141-.032-.147.04-.589 7.547.104 15.153.61 22.718.45 6.697.85 13.435 1.415 20.121-1.992 2.184-4.9 3.167-7.607 4.311-2.14.905-1.08 4.679 1.2 4.43 1.562.104 3.185-.072 4.757-.397 3.896-.245 7.827-.332 11.695-.527 3.867-.193 3.329-5.856-.206-5.586m165.74-28.222c-1.553-4.584-4.013-9.528-9.263-10.085-2.701-.285-4.486 2.401-4.71 4.708-.307 3.171 2.105 5.202 3.612 7.714.587.979 1.073 1.977 1.432 3.062.022.064.06.263.107.528a10.765 10.765 0 0 1-.662-.103c-1.38-.28-2.76-.597-4.148-.842-2.45-.433-5.752-1.254-8.128-.309-.586.234-1.001.896-.614 1.509 1.988 3.146 6.91 4.634 10.166 6.1 3.69 1.663 8.744 4.609 11.573-.118 2.043-3.412 1.867-8.527.635-12.164m13.565-59.422c-1.923-1.394-5.089.955-4.178 3.21 1.654 4.1 3.765 8.356 2.211 12.772-1.667 4.74-4.37 9.884-7.453 13.862-1.022 1.317-1.998 2.368-3.741 2.136-2.344-.31-4.766-1.55-6.998-2.308-4.918-1.669-9.543-4.593-14.553-5.813-.385-.093-.656.3-.49.638 1.468 2.992 4.003 5.331 6.503 7.515 2.67 2.332 5.492 4.63 8.533 6.46 2.921 1.76 6.015 3.437 9.528 3.01 3.317-.404 6.196-2.332 8.362-4.811 4.518-5.167 8.377-12.328 10.343-18.899 2.303-7.699-2.146-13.478-8.067-17.772m1.352 137.317c-.04-.26-.1-.514-.175-.762.196-.13.383-.293.556-.49l-.158.506c-.073.238-.148.49-.223.746m25.655-80.725c-.702-3.364-5.421-2.295-5.665.766-.18 2.25-.411 4.499-.686 6.744-1.097 5.594-3.276 11.044-4.745 16.506-2.015 7.49-3.568 15.17-5.16 22.759a178.775 178.775 0 0 1-.684 3.124c-3.58 9.037-7.968 17.625-12.588 26.303a5.32 5.32 0 0 0-.41-.114c-1.677-.386-3.603.077-4.77 1.37-1.077 1.194-1.718 2.934-1.074 4.502.07.173.152.332.239.485 0 .03-.005.058-.004.088.054 1.348.705 2.455 1.67 3.207.258 2.033 1.756 3.793 3.833 4.478 3.794 1.252 7.542-1.13 9.8-4.038 2.807-3.614 4.227-8.304 5.707-12.574 1.65-4.763 3.198-9.56 4.724-14.366 3.08-9.7 6.053-19.278 8.276-29.22 2.119-9.477 3.539-20.422 1.537-30.02m29.466 109.413c-1.726-9.966-3.895-20.047-7.54-29.509-1.766-4.583-3.827-9.138-6.315-13.378-2.684-4.576-5.728-8.627-7.306-13.773-.582-1.898-3.409-1.116-2.971.818.879 3.898 2.395 7.622 3.534 11.447a95.244 95.244 0 0 1 2.697 11.682c1.365 8.293 2.901 16.54 4.436 24.806 1.502 8.078 2.882 16.137 4.09 24.266.601 4.055 1.136 8.125 1.526 12.205.09.934.64 10.525-.16 10.217-.829-.32-1.7.492-1.699 1.294.006 4.018 4.641 4.782 7.517 3.066 4.183-2.495 5.615-8.038 5.62-12.568.008-10.157-1.702-20.594-3.43-30.573m15.008-46.667c-1.952-3.484-6.624-3.005-8.678 0 .159-.234-.77 1.743-1.037 2.517l-.132.237c-.12.012-.21.015-.1.02-.744-.025-1.419-.07-1.901.72-1.706 2.792 1.812 5.906 4.26 6.486 5.525 1.31 10.374-5.007 7.588-9.98"/><path d="M10.289 15.261c-.193-2.287-.411-4.58-.743-6.853-.335-2.298-.475-5.116-1.87-7.033a.765.765 0 0 0-.26-.22C5.671-.653 1.85.015 1.939 3.214c.214 7.658.363 15.32.377 22.984a153.521 153.521 0 0 0-.79 5.08c-.707 5.182-1.24 10.6-.928 15.84.14 2.359.547 4.677 1.082 6.972-.09 3.669.314 7.57 3.213 10.152 2.486 2.215 5.667-.014 5.231-3.044-.751-5.215.278-10.39.314-15.636.034-5.044.328-10.076.41-15.12.081-5.082-.132-10.116-.56-15.182" mask="url(#a)" transform="translate(385.637 205.171)"/><path d="M329.812 233.298c-.037-.112-.175-.156-.264-.07-1.674 1.624-2.315 4.008-3.14 6.135-1.075 2.776-2.213 5.537-3.23 8.335-1.011 2.786-1.806 5.656-2.675 8.489-.437 1.42-.868 2.832-1.237 4.272l-.518 2.163c-.212.477-.3.819-.268 1.028-1.85 1.146-1.825 4.072-.407 5.51l.304.309c1.068 1.084 3.278 1.579 4.596.593 1.863-1.394 2.554-3.152 3.055-5.155l.01-.016a21.472 21.472 0 0 0 1.527-3.473c.54-1.568 1.084-3.936.267-5.572.21-1.27.418-2.54.639-3.807.547-3.145.801-6.328 1.121-9.504.295-2.921 1.192-6.397.22-9.237M281.562 5.761c-1.397-1.28-3.337-1.553-5.01-.646-1.729.938-2.354 2.467-2.975 4.226-.247.699-.143 1.351-.886 1.638-.752.29-3.92-.699-4.638-1.282-.466-.377-1.183-.502-1.636 0-1.418 1.574-1.29 4.39-.317 6.178 1.455 2.67 4.516 3.976 7.446 3.95 3.167-.029 6.32-1.627 8.065-4.297 1.812-2.776 2.663-7.283-.05-9.767m-26.703 63.663c-1.326-4.005-4.27-5.16-7.62-5.14.06-.14.117-.282.18-.422 1.354-2.968 2.985-5.814 4.16-8.862.54-1.395-1.42-2.975-2.647-2.034-2.7 2.072-4.97 4.6-7.262 7.103-2.377 2.595-5.115 4.904-7.275 7.69-3.599 4.642-.31 10.517 5.591 9.6.186-.028.374-.063.562-.096a11.67 11.67 0 0 0-.524 1.182c-.862 2.305.413 5.235 2.254 6.61 2.183 1.631 4.567 1.568 6.988.492 5.474-2.432 7.343-10.837 5.593-16.123m-69.314 179.438c-.489-1.6-1.939-2.22-3.5-1.986-2.543.38-3.83 2.643-5.027 4.696-.405.696-.824 1.385-1.235 2.077-1.028-.672-2.155-1.175-3.386-1.398-.627-.114-3.878-.259-3.461 1.227.654 2.335 4.119 2.916 4.424 5.642.311 2.777 3.54 4.637 5.782 2.393 1.766-1.77 3.067-4.027 4.489-6.077 1.41-2.032 2.684-4.048 1.914-6.574m195.86-164.609c-3.869 1.452-5.674 4.664-7.822 8-.296.459-.606.918-.92 1.376-1.617-1.379-3.54-2.199-5.69-2.178-1.013.01-1.296 1.309-.497 1.84 1.312.872 2.44 1.927 3.056 3.402.163.39.211.902.317 1.341a16.28 16.28 0 0 0-.806 1.739c-2.116 3.001 1.406 7.925 5.121 6.691 3.531-1.173 6.062-3.878 8.523-6.568 2.673-2.923 5.696-6.137 5.766-10.278.056-3.362-3.643-6.643-7.048-5.365M87.653 79.717c-.393-3.903-4.42-5.571-7.452-3.085-1.43 1.174-2.139 2.812-3.103 4.342-.063.101-.137.196-.203.295-.772-.656-1.646-1.297-2.582-1.665-1.351-.532-2.849-.575-3.8.628-.31.393-.032.975.5.857 1.529-.336 2.511 2.208 2.815 3.903-2.67 3.61 1.585 8.844 5.801 6.452 3.818-2.166 8.503-6.971 8.024-11.727M83.2 50.07c-.315.28-.263.807.105 1.077 2.85 2.092 7.484 2.131 10.894 2.29 4.253.196 8.536-.327 12.749-.864 3.102-.395 6.975-.355 9.66-2.175 2.433-1.648 2.838-4.691 1.361-7.114 0-.962-.275-1.907-.796-2.77-.431-.714-1.018-1.162-1.613-1.714-.702-.651-.477-.063-.76-1.054-.66-2.306-2.069-4.555-4.72-4.74-.5-.035-.848.6-.58 1.01.514.784 1.044 1.466 1.314 2.38.33 1.111.047 1.96.094 3.064.039.875.374 1.593 1.006 2.21.175.173.32.316.446.45-.67.198-1.278.62-1.605 1.237a2.29 2.29 0 0 0-.474.165 227.798 227.798 0 0 1-6.331.975c-2.764.386-5.532.745-8.301 1.09-2.495.312-4.984.738-7.457 1.192-2.71.498-5.46 1.093-8.06-.194-.67-.331-1.208.435-.767.993 1.054 1.33 2.372 2.061 3.835 2.492"/></g><path fill="#525d7d" d="M80.536 39.621c1.631 0 2.54.368 3.014.715.018.085.036.166.056.244.21.84.597 1.267 1.15 1.267.449 0 .924-.352.924-1.006 0-.36-.154-.848-.552-1.323a12.7 12.7 0 0 1-.069-1.43c0-2.945 2.712-6.122 7.094-6.122 2.547 0 2.928 2.625 2.928 4.19v.101a7.615 7.615 0 0 0-.3 2.116c0 .127.004.217.01.275.056.564.483.82.856.82.806 0 .89-.72 1.003-1.714a20.9 20.9 0 0 0 .106-1.24c1.037-3.253 4.67-5.513 7.97-5.513 4.824 0 6.322 4.62 6.322 6.304 0 1.222-.49 1.776-.783 2.106-.18.203-.555.627-.309 1.175.261.578.746.575 1.823.578h.202c1.319 0 3.352 1.522 3.352 3.544 0 3.432-7.126 3.803-10.19 3.803-.46 0-.92-.004-1.38-.007-.468-.004-.936-.008-1.404-.008-2.576 0-5.214.367-7.766.72-2.5.348-5.086.707-7.556.707-9.409 0-10.424-4.388-10.424-6.275 0-2.597 1.393-4.027 3.923-4.027m6.501 11.987c2.586 0 5.23-.367 7.788-.722 2.494-.347 5.074-.705 7.534-.705.464 0 .927.004 1.39.007.466.004.93.008 1.394.008 9.815 0 11.876-2.984 11.876-5.488 0-2.783-2.544-5.045-4.767-5.219.263-.525.482-1.237.482-2.184 0-2.787-2.349-7.99-8.007-7.99-3.08 0-6.397 1.667-8.317 4.275-.651-2.09-2.162-3.31-4.257-3.31-5.423 0-8.78 4.053-8.78 7.807l.002.276c-.786-.283-1.736-.427-2.839-.427-3.46 0-5.609 2.188-5.609 5.712 0 4.984 4.527 7.96 12.11 7.96"/><path fill="#ffcc80" d="M107.76 91.444c-3.149.067-5.234 3.72-3.724 6.476.904 1.65 2.975 2.641 4.82 2.045a3.509 3.509 0 0 0 1.672-1.126 4.1 4.1 0 0 0 .916-.97c1.788-2.673-.545-6.492-3.684-6.425M78.984 69.49c-1.703-1.703-4.038-2.693-6.415-1.868-2.024.7-3.905 2.333-5.672 3.657-1.658.435-2.742 1.986-2.676 3.73.073 1.97 1.387 4.558 3.018 5.7 2.392 1.675 4.612.173 6.794-1.059 1.976-1.116 4.862-2.132 6.326-3.903 1.762-2.131.287-4.594-1.375-6.257m231.375-30.15c-.954-1.983-5.224-2.776-7.284-3.218-.934-.723-1.898-1.371-2.934-1.448a4.343 4.343 0 0 0-1.726.223c.094-.149.18-.29.253-.423.435-.708-.66-1.696-1.334-.783-1.043 1.413-3.972 4.138-3.42 6.163a20.26 20.26 0 0 0-.987.58c-1.894 1.188-.576 3.673 1.433 3.387 3.74-.533 11.09 7.215 13.917 3.133.794-1.146 1.14-2.744 1.623-4.04.413-1.109 1.018-2.413.459-3.575M55.75 156.837c-5.623.48-11.264.587-16.898.234l-1.063-.066c-4.79-1.26-9.576-2.54-14.361-3.818-.865-.231-1.625-.187-2.266.045-2.788-2.07-6.888.398-5.996 3.969 1.049 4.2 1.848 8.477 2.423 12.777-.916 3.816-1.984 7.579-3.126 11.353-.381 1.258.651 2.414 1.884 2.466l.132.007c.47.894 1.375 1.523 2.548 1.551 2.98.071 5.96.124 8.942.177l.117.03c.256.069 1.983.458 2.83.67.254.52.767.934 1.29 1.102.913.291 1.59.006 2.3-.568.732-.59.649-1.653.312-2.403a2.554 2.554 0 0 0-.37-.569c.289-.598.368-1.277.1-1.934a109.851 109.851 0 0 1-3.658-10.508c6.119-.928 12.272-1.771 18.32-3.056 1.308-.278 2.08-1.22 2.375-2.327 1.772-.338 3.517-.781 5.212-1.417 3.831-1.436 3.721-8.124-1.048-7.715"/><g stroke="#525d7d" stroke-linejoin="round" stroke-width="3"><path d="M278.946 6.982c-.88-3.308-4.793-4.795-7.949-3.955-3.337.89-6.694 4.485-5.806 7.826.832 3.127 5.615 4.584 8.538 3.806 2.062-.55 3.509-1.847 4.643-3.565.785-1.188.936-2.75.574-4.112z"/><path stroke-linecap="round" d="M373.99 82.348c0 6.041.589 11.941.991 17.983"/><path stroke-linecap="round" d="M365.94 91.411c1.656-.289 3.31-.375 4.965-.375 2.498 0 4.996.197 7.495.197 2.645 0 2.387-.176 4.645-.628"/><path d="M106.651 89.23c-2.19.96-3.698 3.293-3.698 5.655 0 2.614 1.596 4.615 4.645 4.615 2.773 0 5.751-2.068 5.751-5.294 0-3.874-4.867-5.074-6.092-5.074-.226 0-.443.027-.606.099zm-42.328 3.267c10.08-5.526 20.11-8.943 30.759-13.596-1.862-4.106-3.699-8.25-5.82-12.346-1.037-2-2.127-3.924-3.171-5.869-4.707-.911-9.326-2.359-13.534-4.621-6.655 2.959-13.548 5.308-20.181 8.229 2.882 7.213 8.437 21.003 11.947 28.203z"/><path d="M62.289 71.519a120.807 120.807 0 0 0 14.486-6.189c1.195 2.197 2.036 3.163 4.865 10.775-4.6 2.019-9.304 3.87-14.027 5.81-1.51-3.426-3.706-7.506-5.324-10.396zM24.95 95.37c4.987 2.867 9.971 5.624 15.208 7.912-3.817 2.594-9.404 6.02-14.24 9.019-.319-5.64-.786-11.298-.968-16.932zm34.956 149.84c-2.058.485-2.98 2.314-2.98 4.213 0 2.266 1.337 4.878 3.948 4.878 2.666 0 5.312-2.562 5.312-4.471 0-3.168-3.816-4.687-5.667-4.687-.207 0-.414.02-.613.068z"/><path stroke-linecap="round" d="M104.153 216.873c-12.231 3.3-30.999 8.15-54.925 16.512l-17-62.396c11.811-2.54 44.752-10.436 57.64-14.409.48 1.485.944 2.979 1.402 4.474"/><path stroke-linecap="round" d="M69.681 162.063c.207-1.81.435-3.627.699-5.481.518-3.627.476-7.113.782-10.573-.746.012-1.247.018-1.373.018-19.034 0-46.756-3.906-58.78-5.748-1.032 19.417-5.074 44.389-8.728 64.517 18.013 1.864 30.872 3.28 40.365 4.432"/><path d="M50.935 207.292c6.915-1.724 24.968-6.43 38.527-10.48-2.969-9.213-4.943-18.674-7.24-28.024-13.475 2.914-26.855 6.347-40.349 8.861 3.269 9.812 6.495 19.602 9.062 29.643z"/><path stroke-linecap="round" d="M36.76 187.627c-7.253-.724-14.302-2.178-21.553-3.04 1.264-12.005 2.104-27.267 2.104-33.433v-.596c8.52 2.317 27.11 6.694 39.505 6.694 1.379 0 2.957-.078 4.458-.2-.02 2.41-.214 4.821-.478 7.233"/><path d="M293.2 74.92c3.357 5.023 6.285 10.35 9.2 15.707-4.256-.827-12.106-2.38-17.317-3.777a36.073 36.073 0 0 0 1.494-1.956c2.283-3.242 4.286-6.766 6.624-9.974z"/><path stroke-linecap="round" d="M84.13 124.131c.127 3.688 0 7.248.253 10.936"/><path stroke-linecap="round" d="M79.302 129.472a34.942 34.942 0 0 1 3.366-.145c2.398 0 4.815.166 7.198.166.46 0 .92-.006 1.377-.02m157.284-76.21c-2.922 5.484-6.006 11.13-9.969 15.933.246.002.491.002.737.002 3.401 0 6.803-.107 10.123-.651-1.635 4.616-3.016 9.26-4.396 14.02"/><path d="M297.646 15.435c4.926 2.61 13.747 7.097 22.11 10.732.363 4.233 1.508 10.109 3.308 15.283a290.167 290.167 0 0 0-11.855 17.895c-8.397-4.48-21.842-11.673-28.006-15.073 5.302-7.731 11.078-20.846 14.443-28.837z"/><path d="M297.525 30.136c5.786 2.557 8.378 5.362 15.06 7.705-1.678 3.246-4.092 7.604-5.844 10.412-4.03-1.76-10.667-4.897-15.117-7.75 3.122-4.35 4.756-7.724 5.901-10.367z"/><path stroke-linecap="round" d="M301.777 23.805c.016.094.023.184.023.27 0 1.033-1.07 1.444-1.26 2.206m6.804-.206c-.412.619-.825 1.444-1.237 2.27m6.803 1.032c-.206 1.238-1.236 1.857-1.442 2.889"/><path d="M384.373 139.394a3.766 3.766 0 0 0-.464-.03c-2.452 0-3.941 2.528-3.941 4.908 0 1.792 1.586 4.529 4.406 4.529 2.957 0 4.8-2.728 4.8-4.52 0-2.403-2.325-4.12-3.5-4.56a4.989 4.989 0 0 0-1.301-.327zm-72.514 16.764c4.96-23.282 19.37-63.134 26.181-71.609 2.456-3.055 5.036-5.714 7.525-8.435.13 3.847.343 7.7.343 11.575 0 22.724-11.723 48.335-21.669 72.845-1.109 2.73-3.315 6.58-6.278 6.58-1.324 0-6.286-1.51-6.286-9.083 0-.63.053-1.256.184-1.873z"/><path stroke-linecap="round" d="M337.63 85.085c.26-.009.52-.013.78-.013 2.512 0 5.036.398 7.487 1.101M331.26 97.19a88.75 88.75 0 0 1 4.878-.148c3.059 0 6.106.204 9.06.784m-32.93 63.078a2.11 2.11 0 0 1-.279-1.033c0-1.095.945-3.086 5.316-3.086 3.6 0 5.462 2.559 6.177 5.41m1.817 106.017c.206 0 .62 0 .825-.206l9.267-67.653c6.16.955 16.12 2.437 25.311 3.73m12.291 1.666c4.593.587 8.03.967 9.21.967h6.804c.642 0 1.16-.125 1.747-.278-2.634 19.035-2.984 38.214-2.984 57.414"/><path d="M376.326 225.2c-.311-2.533-1.33-4.938-1.65-7.428-7.79-60.653-22.85-96.518-22.85-84.568 0 4.374-.084 8.712-.084 13.06 0 36.675 16.171 81.442 16.171 81.442 0 .198-.077.37-.077.57 0 .561.69 2.194 3.665 2.194 3.756 0 4.84-4.221 4.84-5.028 0-.082-.005-.163-.015-.241z"/><g stroke-linecap="round"><path d="M368.596 228.797c-.04-.2-.06-.395-.06-.584 0-2.137 2.943-4.435 5.057-4.435.831 0 1.69.191 2.558.332m-24.384-82.65c1.735-.932 3.508-1.785 5.342-2.467m-5.233 13.233c2.837-1.162 5.85-1.951 8.902-2.519m-14.037 66.915c7.004.437 13.846 1.81 18.448 2.894m-18.448 11.551c10.102.826 20 3.508 30.101 4.746m-28.864 9.287c7.423 0 15.1.326 22.523 1.977m-19.431 9.992a27.975 27.975 0 0 1 2.787-.135c5.203 0 10.28 1.322 15.357 2.199M144.787 116.328l-11.149-48.857c-9.238-4.315-10.677-28.042-10.677-36.35 0-21.926 44.142-29.018 64.8-29.018 17.794 0 28.407 20.818 28.407 39.603 0 2.31-.178 4.865-.178 4.871 0 .556.074 1.176.074 1.795 0 2.7-3.792 6.587-5.7 8.495l9.491 45.796"/><path d="M130.853 65.377c-.28-.864-.427-1.84-.427-2.964 0-10.081 33.129-24.092 66.91-24.092 8.314 0 18.186 2.113 18.186 10.659 0 .584-.064 1.199-.195 1.812m-79.496 26.289c12.992-12.41 35.161-19.39 54.799-19.39 8.551 0 15.292 1.123 20.429 2.525"/><path d="M187.92 53.482c3.05-.678 6.115-.97 9.184-.97 5.17 0 10.352.826 15.486 2.018m-74.577 14.299c10.28-6.356 23.798-11.501 23.961-11.6m5.5-.785c1.179 0 2.5-.434 3.72-.434.203 0 .404.012.6.04m5.893-.983c.982-.196 1.658-.289 2.64-.289m-51.146 62.372c-2.392-.798-1.931-1.824-5.82-1.824-1.427 0-2.855.137-4.283.137-1.084 0-1.252-.072-2.392-.072-17.192 0-17.27 22.102-25.027 44.286-1.44 4.119-4.17 8.678-4.17 12.626 0 5.535 7.573 18.03 9.341 21.849 2.667 5.758 8.671 22.682 8.671 33.72 0 .561-2.25 24.954-5.427 40.856"/><path d="M119.695 124.698c0 12.238-9.247 29.54-9.247 38.401 0 12.509 12.067 13.043 18.775 27.365.327.7.732 1.218 1.22 1.218.734 0 .932-1 1.222-1.716 4.204-10.396 8.512-31.91 16.321-31.91 3.594 0 4.526 6.788 4.526 11.14 0 12.4-2.24 22.694-2.24 26.38 0 11.363 7.635 17.544 7.635 29.021 0 14.417-7.154 23.269-7.154 35.893 0 3.135.343 6.273.945 9.405"/><path d="M103.268 248.342c7.747 5.222 17.018 7.536 26.454 7.536 8.282 0 16.056-1.877 22.098-4.08m-33.881-115.974c.029 8.563 3.065 18.75 9.178 50.81m-4.002-65.849c7.51-4.748 21.978-2.69 32.634-6.85 6.126-2.391 6.608-13.02 50.39-13.02 23.104 0 14.605 8.869 24.632 8.869 9.123 0 20.865-1.092 24.992-2.058"/></g><path d="M138.509 122.201c-5.602.935-10.931 4.762-10.931 10.27 0 2.584 3.306 7.226 9.934 7.226 7.008 0 12.21-5.724 12.21-10.3 0-4.827-5.192-7.33-9.537-7.33-.579 0-1.142.045-1.676.134z"/><path stroke-linecap="round" d="M127.586 132.115c.965 1.704 2.911 2.415 5.557 2.415 7.173 0 12.75-3.244 16.09-7.563"/><path d="M185.325 107.418c-4.735 1.354-9.923 5.602-9.923 10.516 0 4.98 4.594 10 12.756 10 8.733 0 20.334-6.752 20.334-13.822 0-5.215-7.297-8.253-13.28-8.253-3.314 0-6.737.658-9.887 1.56z"/><path stroke-linecap="round" d="M175.403 118.059c1.974 1.416 5.327 1.708 8.139 1.708 8.259 0 16.573-4.327 23.715-9.146m-64.862 33.313c37.955-8.058 77.06-8.634 115.59-10.936M155.91 198.904c1.26.09 2.55.129 3.85.129 33.64 0 88.179-13.824 88.748-13.938"/><path d="M162.382 153.394c12.396-1.795 45.773-5.309 62.524-6.49-.299 3.168-.407 6.335-.407 9.502 0 8.269.736 16.537.736 24.804 0 .282 0 .564-.003.845-7.952.93-40.619 4.75-53.924 6.359-3.092-11.637-5.988-23.416-8.926-35.02z"/><path d="M174.832 170.55c-.303-2.377-.634-4.8-1.069-7.193 3.098 1.388 6.637 1.85 10.038 2.45-3.108 1.36-6.216 2.853-8.97 4.743z"/><path stroke-linecap="round" d="M195.59 160.915c-1.233 0-2.676.634-3.968.634-1.093 0-.345-.923-.345 4.833m.575 4.318c.287.575.36 1.079.36 1.582 0 2.034-1.184 1.77 5.103.72m8.338-12.952c.796-.198 1.844-.509 2.62-.509 1.467 0 1.716 1.66 1.716 3.124 0 .49-.022.977-.022 1.416m-4.314 9.209c2.213-2.215 5.248-.091 5.248-3.526 0-.647-.072-1.367-.072-1.942"/><path d="M199.377 236.826c6.672-5.189 15.324-9.725 23.237-15.265 4.16 6.248 8.5 15.548 10.563 20.766-7.46 4.914-15.167 9.186-22.314 14.438-3.863-6.569-7.64-13.241-11.486-19.939z"/><path stroke-linecap="round" d="M199.04 236.03h.288l-7.722-2.243c5.526-3.878 12.882-8.604 19.607-12.65l11.405.215"/><path stroke-linecap="round" d="M191.564 233.44c3.296 6.6 7.097 13.03 9.99 19.806 3.095.889 6.194 2.113 9.287 2.32m-34.804-12.341c0 5.468 0 10.937.863 16.117"/><path stroke-linecap="round" d="M168.85 251.284c4.312-.288 8.337-.288 12.65-.576m68.546 14.179c-.253-.925-.344-1.851-.344-2.776 0-9.82 5.689-57.386 5.689-57.386 0-22.876-17.882-33.636-17.882-47.686 0-4.579 2.62-5.878 3.496-5.878 12.32 0 13.918 14.899 27.844 21.868 3.872-17.925 4.299-43.34 4.299-43.902 0-19.194-19.442-11.52-20.531-31.246a8.187 8.187 0 0 1-.012-.457c0-1.746.694-3.776 2.272-3.776.052 0 .1.01.139.032 6.548 3.727 13.421 10.625 29.997 16.581 9.443 3.393 10.237 14.816 10.237 22.942 0 11.814-1.997 25.234-1.997 33.325 0 10.2 2.024 17.696 2.024 35.601 0 17.418-1.992 21.741-1.992 29.69 0 12.743 6.826 24.303 9.556 36.445"/><path stroke-linecap="round" d="M251.76 237.139c4.56 2.342 9.512 3.381 14.54 3.381 9.406 0 19.045-3.628 26.987-9.183m-32.604-119.222c1.95 7.763 4.106 21.177 4.106 35.427 0 8.49-.856 16.119-1.744 21.65"/><path stroke-linecap="round" d="M263.464 127.372c3.217.554 6.857 1.158 9.682 1.904m-8.91 5.384c2.968.035 5.901.426 8.69 1.39m-8.186 7.73a59.4 59.4 0 0 1 1.612-.023c2.841 0 4.756.113 6.132.324M110.728 160.07c2.982-2.235 6.485-3.745 10.152-4.526m-8.354 15.236c3.389-2.19 6.607-4.69 10.106-6.726"/><path d="M52.603 104.348c0-12.438-10.074-22.522-22.502-22.522-12.427 0-22.502 10.084-22.502 22.522 0 12.44 10.075 22.523 22.502 22.523 12.428 0 22.502-10.084 22.502-22.523z"/></g></g></svg>