<svg height="272" viewBox="0 0 397 272" width="397" xmlns="http://www.w3.org/2000/svg" xmlns:xlink="http://www.w3.org/1999/xlink"><mask id="a" fill="#fff"><path d="m.50726062.1682396h10.35716178v64.9699467h-10.35716178z" fill="#fff" fill-rule="evenodd"/></mask><g fill="none" fill-rule="evenodd"><g transform="translate(3 3)"><g fill="#e0dfe6"><path d="m114.572684 94.6051098c-.736619-1.7998852-2.205361-2.7961399-4.203952-2.38562-2.275033.4666785-3.168415 2.437286-4.678736 3.8979728-.76696.7424176-1.940156 1.2326827-2.998729.8322714-.239921-.090977-.491641.0651441-.624244.2538372-1.892958 2.7023549 2.269415 4.9498248 4.451177 5.1222318 3.843228.302695 9.962613-3.0584009 8.054484-7.7206932"/><path d="m97.1462873 63.2969355c-2.673965-3.8524844-5.7187677-6.6272839-10.2913096-8.0379896-2.0148851-.6216764-4.1415834-.7115302-6.1811911-1.2394217-2.6189011-.6778351-5.216451-1.4045282-7.8128772-2.1609854-3.4999217-1.0192797-4.8686502 4.2321169-1.4912172 5.4069562 4.4298255 1.5409937 9.441192 2.5350021 12.2123614 6.6222296 1.1760052 1.7347412 2.3109935 3.5559666 3.3830517 5.3575366.500631.8412568 1.5693179 2.3238455 2.2761572 3.5492275-1.1630821.5986514-2.6857644 1.1557453-3.3195598 1.4764113-1.9800488 1.001309-3.9556027 2.0121649-5.928909 3.0275136-4.0949478 2.1081962-8.2781101 4.8605323-12.5927511 6.4554384-4.1764198 1.5432401-5.8929491-2.6052004-7.8786167-5.6046347-1.1962326-1.8071858-2.2935753-3.6637912-3.4162023-5.5153424-1.0372219-1.7105929-1.9963432-3.8131732-3.5190255-5.117739-.4966979-.4262443-1.5299867-.3639081-1.650228.4357912-.5978354 3.9760334 1.632248 8.8843007 2.9818726 12.5582005 1.4732373 4.0086054 2.8818589 8.6810062 6.8284716 10.95824 4.0859578 2.3575408 9.1563212 1.5028059 13.3215034-.1403966 4.8270715-1.9049019 9.5288447-4.2270626 14.2564642-6.3661462 4.093824-1.8521127 9.7760698-3.3661503 12.0117721-7.6269081 2.415502-4.6038873-.5186112-10.1888664-3.1897667-14.0379812"/><path d="m52.1150656 90.4546476c-5.2866855-6.6446931-14.5284118-9.7716075-22.6081798-11.2704823-1.5181873-.2819164-2.5683324 1.7476577-1.0962189 2.5978998 5.4507531 3.1488163 11.5914892 5.6753946 14.9279052 11.3575282 2.7964538 4.7633779 1.9367844 10.9307227-.4360153 15.6070547-2.6301387 5.185691-8.1713537 8.334507-13.7035787 9.644689-5.4058031 1.279855-10.410989.69749-15.2167092-1.989702-.6017685-.33639-1.4586285-.048858-1.6249436.660988-2.0429789 8.705154 10.2300651 12.763741 16.6562339 12.67838 9.7906785-.130289 18.8677754-4.76057 24.2539128-13.018702 5.2473542-8.043605 4.8259477-18.7536242-1.1524064-26.2676534"/><path d="m25.2739976 89.1592919c-2.1379359.4498309-3.2802285 2.9118267-2.7801594 4.8947891.6146916 2.4412171 2.4952885 4.1372088 4.4539861 5.5698163.5523235.4043427 1.1271221.7502797 1.7030443 1.1012717-1.7047299 2.366526-3.8465989 4.507294-5.7339383 6.598081-.9417031 1.042305-.3764565 3.14657 1.2496109 3.016282 6.0002672-.481841 17.3900431-3.345933 17.3203706-10.9795804-.067987-7.4775261-9.8614749-11.5355512-16.2129142-10.2006597"/><path d="m102.144506 208.19971c-.881021-3.800818-2.138498-7.483142-3.7128726-11.052586-1.5507761-3.51441-3.5589187-6.694675-5.5827938-9.946261-.2438539-.391426-.4837747-.799138-.7236955-1.216397-.0095519-.058967-.0219132-.117372-.0309032-.176338-.0848432-.564956-.3719615-.959752-.7545986-1.213589-1.3046747-2.331146-2.6756506-4.770678-4.5399531-6.44533-.2168839-.19487-.5787317-.12411-.6602036.174092-.8349468 3.056155.5540091 6.582919 1.6339336 9.422301.0932713.245413.1960945.485772.2921752.730062.1050707.695806.2320546 1.387119.3803897 2.072817-.4568047-1.089478-1.2260121-2.040806-2.1458021-2.979779-.4545572-.463871-.8810206-.925495-1.2816378-1.396666-.3809515-5.584979-3.0290702-11.696165-4.9298946-15.97377-.2702621-.608199-.7326855-1.023211-1.280514-1.28098-.0398931-.120179-.0747294-.242605-.1157463-.362223-.5579423-1.608946-1.9828582-2.386182-3.6499425-2.071131-4.9725972.940096-9.8064111 2.256455-14.6638238 3.668283-2.4183116.701984-4.8298808 1.426431-7.2347074 2.172218-2.3610004.732309-4.792797 1.818979-7.254935 2.059899-.924285.090416-1.7828306.527892-2.4761848 1.153499-1.9525169.148259-3.746585 1.817856-3.0167089 4.031631.8815825 2.672591 1.7148437 5.362591 2.5424861 8.054837-.0443882.641332-.0943951 1.280979-.1606964 1.916134-.175867 1.682513.7321237 3.187004 2.0418552 4.185505.0101137.033695.0207894.068513.031465.102209.8731544 2.793893 1.6586561 6.327958 3.8072676 8.185686-.1185557.057282-.238797.110071-.3573527.166792-1.1833096.574503-.6298623 2.596215.6776217 2.501868 5.5721182-.402096 10.8773455-1.409582 16.3000048-2.719202 4.6585089-1.12542 10.0188-1.941405 14.2384841-4.304562 1.2232028-.684013 2.2042372-1.494382 2.9858058-2.39966.2814996.206103.613568.377948 1.0051951.498128.4635472.142081.9265325.283601 1.3906416.425682 2.0716345.634593 3.8392945-1.068699 3.9769539-3.028636.0191038-.269562.0162944-.52733.0016857-.780044.9799106 3.828897 2.321669 7.576927 2.7110487 11.546221.2410445 2.451326-.0393313 4.875695-.0393313 7.305681-7.1341317 1.81954-14.7885601 3.881125-21.9013406 6.1022-4.6129969 1.44047-9.1366556 3.030883-13.454106 5.211524-2.0457883 1.033319-4.130346 2.079555-6.0176854 3.384683-.6534611.452077-2.4761848 2.423246-3.3038272 2.328338-.9315894-.106702-1.5215586-1.489889-1.9665639-2.183449-.2663289-.413889-.8540506-.318981-1.0113757.132535-1.4844747 4.257949.7967393 8.090778 5.5816701 7.683066 2.9223139-.248783 5.7979921-1.11868 8.665804-1.68476 3.129084-.617183 6.2688437-1.093409 9.3906233-1.743726 5.883959-1.225944 11.9578319-2.114935 17.7131215-3.868209 3.0734583-.936165 6.0356653-2.223321 8.9180861-3.631781 2.4402248-1.192248 4.9293327-2.179517 6.742505-4.141701.237673-.07076.461861-.195994.65627-.394234 2.567771-2.614186 1.311979-7.073184.582103-10.220877"/><path d="m42.3936663 215.448839c-.5433335-1.981278-.3708378-4.131593-1.1580252-6.048288-.3163359-.770497-.7338093-1.427553-1.2243265-1.998687 1.095657-.847434 1.8210381-2.169971 1.8176669-3.60314-.004495-2.103142-1.2855709-4.216392-2.2716622-5.993814-1.064192-1.919503-1.9665638-3.810365-2.9110763-5.793328-1.0023857-2.105388-1.912062-4.938593-3.5881362-6.639077-.7102105-.720516-2.1008521-.418382-2.331221.614937-.0252844.112879-.0415788.230251-.0618063.345938-.4612997.225196-.8647262.571133-1.1428545.985023-.0162944-.027518-.0314651-.054474-.0471976-.081992-.8658499 1.222574-.2112651 3.53238.0146088 4.896474.432644 2.60857 1.0692488 5.219386 1.6845024 7.79033.2725096 1.134405.6208723 2.554096 1.145102 3.904712-.6388523-.12018-1.2743333-.22632-1.8929581-.324597-5.1950998-.828902-10.3772765-1.460687-15.6263163-1.795954-2.5481049-.162299-5.09508601-.325159-7.64824776-.340322-2.25031091-.01404-4.9096671-.379632-6.83071903.977722-.27531894.194309-.34330586.548109-.10394695.806439 1.37547094 1.483712 3.40608858 1.722948 5.30354175 2.182326 2.47899419.601459 4.97091149 1.120926 7.46170509 1.669597 4.6450238 1.022087 9.2889238 2.020588 13.9395664 3.012912 2.0665777.440845 4.3090223.65144 6.303118 1.340507 1.8761019.648071 2.4632617 2.157054 3.2903423 3.824967 1.2962465 2.61587 3.3010179 6.667718 6.7604846 6.369515.3500484-.029764.5511998-.249344.5927785-.591912.2595865-2.110442-.9433887-3.568321-1.4749228-5.510288"/><path d="m77.1448721 154.335128c-1.0636301-3.538558-3.4128311-6.782844-5.658647-9.668276-.0050569-.006177-.0112375-.01067-.0162944-.016847-.0752913-.143205-.1517063-.286971-.225312-.425121-.96474-1.819541-3.5662231-1.230437-4.166306.525083-.03596-.048296-.0651775-.100524-.1039469-.147697-.4315203-.532946-1.2962465-.30438-1.6131442.207787-.9681113 1.568511-.9799107 3.593593-1.2630959 5.386739-.3286971 2.080117-.7804449 4.177643-1.2956846 6.217887-.5146779 2.036875 1.5047022 3.161171 2.9998526 2.591161.3045365.573941.8866394.985584 1.7210243.985023 2.4582048-.002247 4.9321421-1.263009 6.1508499-3.415009 1.4766085 1.179332 4.1134896-.102208 3.4707042-2.24073"/><path d="m68.6185255 246.398609c-.8360705-2.442902-4.1056234-4.524704-6.5750657-2.674276-.7725787.578996-1.4973979 1.064207-2.0036476 1.929612.0185419-.031449-.7506655 1.687568-.3758947.916509-.4124165.848558-.5349053 1.256831-1.0934095 1.720702-.1871045.155559-.648966.517221-1.0349744.568325-.8473081.111195-.7523512-.313365-.9461982-1.070945-.2427301-.949082-1.6142679-1.127105-2.0941095-.274055-.9259706 1.648819-1.6165155 3.485769-.7444849 5.310925.9658638 2.021151 3.4280017 2.857353 5.5119975 3.024706 4.6208632.370647 11.1161426-4.312424 9.355787-9.451503"/><path d="m147.242085 248.771649c.297794-.470048.604016-.942342.942827-1.39835-.005057.43916-.002809.878321.005057 1.317482-.297794-.000562-.615816.029764-.947884.080868m103.908177-55.047284c1.332206-1.020403 1.201851-3.477344-.698411-3.917066-.115185-.026957-.233179-.040435-.348925-.062898-.032027-.549793-.023599-1.113626.166877-1.523585.960245-2.074501.333192-5.062703-2.280652-5.603511-.240483-.049981-.489394-.079746-.734371-.119618-.477033-.717708-1.029918-1.308497-1.682817-1.679144-1.288942-.730624-2.703183-.483526-4.03258-.07076-2.025561.628415-3.974706 1.371394-6.045779 1.877384-.171372.041557-.344991.079745-.516925.121303-4.206199.400411-8.232037 1.243914-12.348336 2.222198-2.293013.545301-4.580408 1.115873-6.867241 1.692622-1.869921.352115-3.737595.705915-5.599088 1.073192-1.658656.327405-3.318998.646948-4.977654.971545-4.169115-.333582-8.123594.308311-12.335412.867651-4.555124.605391-9.111371 1.21022-13.666495 1.815049-4.556247.604828-9.111371 1.21078-13.667057 1.815609-1.410307.18757-2.76555.35043-4.073596.589105-1.460314-.032573-2.921752-.039312-4.378133-.10614-.869221-.040435-2.913886.013478-3.493741-.77162-.277567-.37514-.617501-.613815-.975978-.740172-.15283-3.933914 1.09341-7.898716 1.996343-11.664716 1.182186-4.924553 1.837333-9.853037 1.08161-14.898332-.722009-4.818975-2.953778-8.722563-6.091852-12.408256-2.250311-2.642827-5.590099.321227-5.193415 3.021897.780445 5.312048.052255 11.30867-.732685 16.598817-.791683 5.339004-2.481242 10.489315-2.95097 15.882793-.445567 5.118862.487146 10.241655 2.208171 15.057822 1.504702 4.210777 4.121356 8.454687 4.741104 12.916493.560752 4.034439-2.048598 7.731363-3.657247 11.231171-2.019942 4.395539-5.000691 10.394407-4.270253 15.431278-4.719191 2.205351-9.555814 3.78734-14.63573 4.644883-3.173472.164545-6.32784.441407-9.537834.74691-1.016433.096032-1.714282 1.035004-1.799125 1.934666-.56918.171846-1.101276.439161-1.571566.853612-.285994.253276-.29667.811493 0 1.061399 3.729729 3.142077 8.588827 5.368206 13.32937 6.422305 2.655985.589665 5.312532.808684 8.026952.895169 1.345129.04268 2.69644.100524 4.042693.094908.418597-.001685 1.370414-.057282 2.145802-.111756.039331.240359.079786.472294.129793.675027.343868 1.396105.80292 2.609693 1.843514 3.651998 1.654161 1.658365 3.658932 3.342564 5.729443 4.458436 1.287256.692998 2.648119.239798 3.466771-.909208.07192-.08143.123613-.175215.187104-.2617.219694.075253.448377.139274.693355.18027 1.068687.179707 2.611596-.491389 2.432358-1.852113-.411293-3.129161.31465-5.668656.923723-8.687745.481528-2.388428.747295-4.801566 1.302989-7.182694 1.206909-5.170528 2.222779-10.320839 3.709502-15.429592 2.841965-9.770485 6.348068-20.005401.15901-29.353573-.241606-.365031-.502878-.715461-.772578-1.059713 1.32434-.111756 2.680145-.449831 3.947174-.761512 1.025423.054474 2.03736.096031 3.012776.150505 9.098448.50599 18.347479.140397 27.444803-.29371 9.507494-.453762 18.661567-2.384496 27.863962-4.676893 4.617492-1.150691 9.38051-1.988578 13.865961-3.585169 1.155216-.411082 2.30088-.840695 3.444296-1.278171.509059.165668 1.042279.274615 1.582803.356046-.076415.640208-.04495 1.338261.135412 2.094156 1.329959 5.590595 2.008705 10.8521 1.783393 16.623526-.229807 5.909015-1.070373 11.773103-1.854751 17.627643-.75797 5.65237-1.536729 11.495117-.833823 17.190167.623682 5.048664 1.691807 11.66247 5.319274 15.535171.387132.413328 1.113075.202733 1.254106-.330774.679307-2.565889.506812-5.313733.946198-7.935219.465233-2.776485.891696-5.566447 1.328835-8.347986.915857-5.829269 1.696302-11.688864 2.532935-17.532173 1.621572-11.326641 3.674665-24.093752-.153392-35.227207"/><path d="m139.072979 158.764193c-2.207047-.561587-4.557933 1.353424-6.082301 2.763568-2.272786 2.10258-4.088205 4.704411-5.934528 7.172585-1.069249 1.430361-2.118832 2.88487-3.011652 4.381498-.755161-.892361-1.572689-1.745411-2.473375-2.556903.933275-2.948892-.474785-7.015902-1.417612-9.580107-.961931-2.614747-2.384599-5.031255-3.684217-7.488196.843937-3.402654 1.547967-6.831702 1.799125-10.362958.428711-6.045481.570865-12.203278.450624-18.261113-.012361-.655372-.913609-.926057-1.251296-.338075-3.27461 5.701789-6.541915 11.724244-9.031585 17.814089-2.453148 5.996623-4.749533 13.016456-5.108009 19.538161-.323641 5.88599 3.150435 10.376436 7.563966 13.813347 3.512283 2.734927 7.247069 5.114931 10.904316 7.605568.144963.666603.350048 1.345.630986 2.036874 1.073743 2.645073 5.445134 4.234925 6.958264.909209.684926-1.505052.78775-2.76076.872593-4.18382.57817-.680643 1.272648-1.329838 1.753051-2.118305.707401-1.1608 1.375471-2.373827 2.026123-3.56776 1.223764-2.246347 2.43292-4.525265 3.587012-6.807553.844499-1.670721 5.183862-9.820466 1.448515-10.770109"/><path d="m267.461504 212.203261c-.711896 0-.713582 1.105764 0 1.105764.711896 0 .71302-1.105764 0-1.105764"/><path d="m221.914481 150.399641c.113499-.175777.226997-.352115.341058-.527892 1.683941-2.609693-1.397946-5.386739-3.941556-4.328709-.742237-.160614-1.538415-.126357-2.317174-.085923-2.571142.134219-5.146216.439722-7.712301.660987-4.784369.412205-9.554691.84575-14.323328 1.412952-3.61623.429614-7.505531.669412-11.025118 1.772368-1.275457.008424-2.549791.017409-3.824686.029202-3.258315.029764-6.508765.09547-9.765394.217334-2.452586.091539-5.146217.073568-7.156045 1.68476-2.425054 1.944213-2.890287 7.347238 1.116446 7.660042.886078.068514 1.261972-.954697.936085-1.630286-1.177129-2.439532 2.607663-2.294081 4.019094-2.262633 2.532934.056721 5.061374.206103 7.59487.24036 5.425469.073006 10.850937.119056 16.275844.178022 7.806697.085923 17.037747.920441 24.605085-2.084609.012361.205541.026408.395357.046636.557655.191037 1.551664.382637 3.104451.574236 4.656677.258463 2.094718 3.712873 3.120737 4.116299.557094.355106-2.253647 1.308046-5.830393-.324764-7.739226-.001123-.020778-.002247-.041557-.003371-.062336-.002247-.034257-.004495-.070198-.006181-.105017.294423-.204979.559628-.467801.774265-.800822"/><path d="m235.178898 234.416091c-1.799125-2.950576-4.720315-5.399656-7.080192-7.887485-1.237812-1.305127-2.475623-2.610254-3.713434-3.915382-1.152407-1.214711-1.406936-1.806062-2.180077-3.115682-.657956-1.114188-1.989039-1.614562-3.226288-1.311867-.093834.022464-.187667.045489-.280938.068514-1.428849.349868-2.304813 1.717893-2.373362 3.115121-.119679 2.426054 1.320407 4.209092 2.60036 6.132526 1.391203 2.090787 2.781845 4.181574 4.17361 6.2718.794492 1.193933 1.613706 2.375511 2.384599 3.584046.222503.325158.421407.664918.620872 1.003555-.189914.185885-.515239.65481-.664698.781167-.96755.815424-2.162659 1.425307-3.221232 2.112689-4.182038 2.715271-8.349468 5.734361-12.93999 7.739225-1.804744.788468-3.961783 1.68476-5.962621 1.540433-1.790697-.128604-3.461715-.923249-5.174311-1.387119-.739428-.199925-1.261972.353799-1.350186 1.028265-.735495 5.598457 7.08581 7.646002 11.254925 7.385987 3.377995-.211156 6.58518-1.624108 9.667066-2.914635 3.27461-1.370271 6.587427-2.790524 9.655829-4.584231 5.454124-3.187566 12.043237-8.705155 7.810068-15.646927"/><path d="m203.565204 106.412694c-1.377157-.121865-2.298632 1.41239-1.991286 2.612501.490517 1.918941-1.420983 4.317478-2.694193 5.561392-2.11827 2.068885-4.69784 3.854731-7.461705 4.944209-3.034689 1.195618-6.062635 1.11868-9.267011 1.123173-1.637866.002808-3.338663.111756-4.860784-.490265-.438262-.172969-.898438-.60876-1.418173-.500935-1.330521.2763-1.750804 1.616246-1.469304 2.804002.570865 2.410891 2.780159 3.299321 4.919781 3.954131 5.433335 1.662858 10.916676 1.930735 16.300005-.117371 4.552876-1.732495 9.470971-4.835261 12.210113-8.966293 2.790836-4.207968 1.305799-10.433718-4.267443-10.924544"/><path d="m152.317112 122.684442c-1.714282-1.989702-5.047326-.825533-5.696854 1.503367-.6529 2.341816-.587722 3.347057-2.417188 5.10033-1.426602 1.365779-3.006034 2.588914-4.773132 3.484084-1.74968.885622-3.888177 1.532569-5.846875 1.758327-.845061.097155-6.526183.123549-6.189057-.897415.166315-.504867-.504003-.837887-.858546-.499812-2.271662 2.168286.223627 4.347804 2.314365 5.45076 3.281914 1.73081 7.518454 2.037998 11.091982 1.24953 6.382342-1.409583 18.848671-9.63458 12.375305-17.149171"/><path d="m268.499119 122.592903c-1.290627-4.018714-3.78704-8.436716-6.675079-11.538921-.612444-.657617-1.295685-1.131035-2.005895-1.44777-.250035-.462747-.606826-.85642-1.087229-1.076-1.017557-.463309-1.917681-.712653-3.041432-.694121-.352296.005054-.610758-.047173-1.041155-.23025-.910238-.386934-1.191737-.898539-1.558642-1.864468-.192161-.507113-.656271-.830587-1.214775-.689067-.474223.119618-.852365.331336-1.149597.610445-1.378842-.105579-2.836347.875513-2.241321 2.520401.890011 2.461434 1.971621 5.162666 2.66048 7.881306-.991148 3.808119-4.825947 7.31579-8.415207 8.72818-3.640391 1.431484-7.579137 1.940282-11.411689 2.558589-4.070787.656495-8.042123 1.586482-11.92412 2.971916-.325887.116249-.421406.696368 0 .76095 2.389656.366155 4.960798.664919 7.599365.813739-.546143.124672-1.092848.248783-1.637305.381879-1.004071.245975-1.104085 1.956006 0 2.132345 4.819205.770496 9.663133 1.183824 14.529536 1.532008 3.308322.236428 7.125703.15949 10.093529 1.908833.029779 1.100148.068549 2.199173.118556 3.294829.103385 2.278357.278128 4.532004.62031 6.783966-1.381652-.183639-2.868936.153313-4.424207 1.056345-.209017.121302-.201151.422874 0 .545862.388818.23699.8327.475664 1.293437.720516-.62031.816547-.748418 2.066077.055626 3.022459.900686 1.072069 1.995781 2.043052 3.170663 2.978094.024722.041557.048883.083115.073044.12411-.165192.584051-.091586 1.247846.362409 1.926243 1.881159 2.812426 4.019095 5.374384 6.540792 7.535931.112937 2.78547 2.58575 4.071503 4.746723 3.605386 1.769907 1.083301 4.476461-.777797 4.02078-3.148255-.111813-.582927-.260148-1.133282-.434891-1.66005 2.519449-8.985386 2.336277-18.839547 2.953778-28.05406.309594-4.610065.864165-9.504293-.576484-13.99137"/><path d="m301.868112 256.240078c-.306784-2.554096-1.417612-4.908268-2.213227-7.336007-1.438401-4.387676-2.734648-8.893847-3.630277-13.424728-.9226-4.662854-.682117-9.376251-.474785-14.096386.225874-5.128971.459614-10.25738.65908-15.388036.778759-20.064367 2.512707-40.075946 1.308608-60.150983-.320269-5.342935-.855175-10.631397-1.721587-15.914242-.291051-1.773491-.596149-3.55709-.967549-5.324403.25453-2.432232.128669-4.879627-.651775-7.363524-.306223-.97323-1.30917-1.746535-2.335716-1.883562-.152269-.312804-.310156-.623361-.475347-.929987-.162944-.303257-.742799-.275739-.794492.103332-.050569.367277-.087652.735678-.128107 1.102956-.192162.121302-.370276.280231-.529287.482403-.076977.098839-.154516.197117-.231493.295956-.711896.908647-1.00969 2.012165-.397246 3.075248.062369.108386.124737.216211.187105.324036.014609.025271.030341.046611.045512.07076 1.215336 7.615676-3.474076 15.254939-3.802211 22.858822-.366343 8.49456 1.044527 17.224986 1.733386 25.734146-.120242 1.694869-.233179 3.391422-.324202 5.08966-.497822 9.2308-1.071497 18.454299-1.898577 27.66095-.71583 3.532941-1.544596 7.037804-2.405951 10.541543-.847308 3.441403-1.440086 7.138889-2.79533 10.418555-1.257477 3.044361-3.806144 6.380747-6.549219 8.241284-1.647419 1.117557-3.524644 1.761136-5.376024 2.432232-1.889025.685135-3.553862 1.551664-5.544586 1.972292-.833261.175777-.744485 1.374764 0 1.599399.319707.095469.629862.185885.941703.276862-.137098.019655-.273071.044365-.410731.063459-.755722.10614-.673688 1.278733 0 1.447209 3.676913.917633 7.400461 1.575812 11.17233 1.958253 3.277419.332459 7.171778-.293149 9.88395 1.916695.159573.129726.306222.276862.455681.420628.706839 2.968547 1.581117 5.895537 2.580694 8.803432.85686 2.493445 1.687311 5.148065 2.949284 7.467418 1.690121 3.106136 4.064606 4.401716 7.209984 5.364837.394437.556532.785502 1.114188 1.193424 1.66342 1.361424 1.831895 4.040446.306064 3.070087-1.793708-1.101276-2.384497.583227-5.140764.266891-7.780221"/><path d="m208.357046 59.5012837c-.666946-.6301002-1.391204-1.1956179-2.164344-1.6993612.672003.0977161 1.344006.2032944 2.015447.3217892.159572.0280793.319145.048858.478156.0657056-.118556.437476-.224189.874952-.329259 1.3118664m-4.704583-21.2363987c-.998452-.4852109-2.066577-.8771984-2.935799-1.2568309-.137097-.0600898-.27588-.1128789-.414102-.1695992 1.322655-.294833 2.608788-.6694113 3.777488-1.2849102.031465.696929.051693 1.3944196.054502 2.0924718-.144402.2190188-.311841.4200668-.482089.6188685m24.216267 63.849031c-3.775802-2.2311834-6.174448-6.2487742-6.904886-10.5567054-.364095-2.1514384-.129793-4.4011544-.370276-6.5677557-.292175-2.6377724-.792244-5.2648747-1.358053-7.8543507-1.104085-5.0548414-2.266605-10.3073612-2.091862-15.5082151.162382-4.848739 1.204099-9.6306492 1.792944-14.4338997.550638-4.4960627.197781-8.8781232-1.309169-13.1248414-1.673265-6.5267599-5.127113-12.33862-9.142275-17.7354676-.537152-1.6870063-1.289504-3.3015679-2.263234-4.8032505-1.581679-2.82534243-3.602745-5.36989149-6.108147-7.40620464-.024722-.04941962-.046074-.09827766-.075853-.14769729-1.994658-3.33189352-7.960089-3.74185177-11.478552-3.88393319-4.61075-.18588518-8.952361.45320042-13.437812 1.4331691-.607387.13253445-.399493.95076618.136536 1.00804802 4.076967.43747599 8.255635.72051566 12.276977 1.5174071 1.084981.21452609 2.176143.46948643 3.256068.75982672 1.685626 1.20909603 3.317874 2.49400626 4.857974 3.8794405.332069.49475783.665823.98951566 1.009128 1.48932778 1.186681 1.7296868 2.36381 3.5346263 3.359453 5.412572.955189 2.9163194 1.403003 5.9949374 1.378843 8.7899541-.00899 1.0372505-.010114 2.8528601-.355106 4.2382943-1.424354.1409583-2.847584.2914635-4.268567.463309-4.403417.5318226-8.815825 1.1422672-13.15575 2.0627077-8.792788 1.8639061-17.069212 4.4859541-25.313048 8.0582067-.216884.093785-.05394.4015345.151706.3611002 7.881426-1.5673883 15.872418-2.9994342 23.84262-4.1197995-.019665.0129164-.041017.0219018-.061244.0348183-.21576.1381503-.314088.4947579-.088215.6817662.132603.110071.279252.2004864.418598.2998873-.615816.1353424-1.236688.2740543-1.864303.4133277-2.256491.1173716-4.511297.3251587-6.748123.5969666-3.080763.3745783-6.192429.8008226-9.196215 1.5932213-2.695316.7115303-6.373352 1.2568309-8.422512 3.2807892-.103947.1022087-.058435.294833.086529.3302129.448377.1089478.913048.1651065 1.386709.1886931-6.128375 1.5258309-12.285406 3.5677599-17.954728 6.2852777-4.301156 2.061023-11.606098 6.60819-11.968508 11.9932442-.028656.4256827.448939.5891044.773141.4430919 2.422806-1.0911628 4.342734-3.4054614 6.68744-4.7555157 2.54361-1.4646179 5.297362-2.7528977 8.039875-3.7946409 6.320537-2.4007829 12.974827-3.8109269 19.571806-5.2059081 5.62381-1.1894405 11.311675-2.0155345 17.035499-2.4906368-1.169262.5497934-1.948022 1.6886911-2.195247 2.8910481-1.770469.3566075-3.533072.7519645-5.280505 1.1950563-6.033979 1.5286389-11.931985 3.3504259-17.658619 5.80119-5.365348 2.2957662-11.977498 4.874572-15.943214 9.3116681-.546143.6110062-.005619 1.4590021.769207 1.3197286 5.549081-.9990627 10.856556-3.9462693 16.292701-5.5142192 5.706968-1.6460105 11.613964-3.02976 17.532197-3.5891002 3.50835-.3307746 7.031871-.4829646 10.555391-.4694865 4.671994 1.80157 9.998011 3.3610961 13.627164 6.91257 3.46958 3.3970375 3.860084 9.7227494 4.796168 14.2446451.545581 2.6349645.932151 5.2817223 1.296809 7.9453277.424777 3.1033278 1.732261 5.7090898 2.581817 8.6652819.634919 2.210405 1.036098 4.3517348 3.254944 5.5462296 1.055764.5688871 2.355944.5554091 3.514531.7469101 1.603592.265069 3.199318.605952 4.796168.908647.123051.023025.237673.025833.354543.033696 1.90532 2.263194 4.165744 4.22987 6.828472 5.530505 3.122341 1.524707 5.807544-2.89891 2.752065-4.705535"/><path d="m139.221145 108.316304c1.226574-3.746906-.881582-9.121852-1.74968-12.6795034-2.658232-10.8947808-5.097895-22.3118371-9.967669-32.4310668-.036522-.0769373-.141031-.0314488-.147211.0398727-.588284 7.5477244.103947 15.1538538.61132 22.7184259.448939 6.6969206.848994 13.4348371 1.414241 20.1210876-1.991849 2.18401-4.899554 3.167349-7.607231 4.311301-2.13906.904154-1.080487 4.678578 1.200727 4.429233 1.56089.104456 3.18471-.071883 4.756837-.39648 3.895482-.244851 7.826363-.332459 11.694875-.526768 3.866826-.193747 3.328549-5.856225-.206209-5.586102"/><path d="m304.961179 80.0938234c-1.553023-4.5842318-4.013475-9.5278789-9.263639-10.0844113-2.700935-.2858476-4.486013 2.4007829-4.709639 4.7072192-.307346 3.1718414 2.104785 5.2025386 3.612296 7.7145157.586598.9788455 1.073182 1.9767849 1.432221 3.0623319.021351.0640209.06012.2628226.106756.5273299-.233178-.0314489-.4613-.0623361-.661889-.1027704-1.38109-.2807933-2.760494-.5969666-4.148326-.8423799-2.450339-.4329833-5.751918-1.2534614-8.128089-.3083111-.586036.23362-1.001262.8951691-.613568 1.5084217 1.987915 3.1465699 6.909381 4.6342129 10.165449 6.1005157 3.690398 1.6622964 8.743905 4.6083799 11.572947-.1184948 2.043541-3.4122004 1.867674-8.52657.635481-12.1639666"/><path d="m318.526312 20.672285c-1.923299-1.3944197-5.088905.9546973-4.178667 3.2105908 1.654161 4.0995824 3.765127 8.3547244 2.211541 12.7710417-1.667646 4.7403529-4.370266 9.8844865-7.453277 13.861643-1.021489 1.3174823-1.998028 2.3682109-3.740966 2.1368372-2.343582-.311119-4.766389-1.5511023-6.997596-2.3081211-4.918657-1.6690355-9.542891-4.5932171-14.553134-5.8135449-.384885-.0932233-.656271.3010105-.490517.638524 1.468742 2.9915721 4.003362 5.331142 6.503145 7.5145909 2.66947 2.3322693 5.49177 4.6297202 8.533202 6.4610542 2.92119 1.7588894 6.015438 3.4363487 9.528282 3.0089812 3.316189-.4037807 6.195238-2.3322693 8.36183-4.8111127 4.517478-5.1665971 8.376438-12.3273883 10.34244-18.8985136 2.303689-7.6987912-2.14524-13.4780793-8.066283-17.7719707"/><path d="m319.878297 157.988754c-.039893-.259453-.100014-.51329-.175305-.762073.196094-.129165.382637-.293148.556256-.489703-.052816.168476-.105071.337513-.157887.505989-.073605.238113-.148335.489704-.223064.745787m25.654668-80.7247095c-.701783-3.363904-5.420974-2.2952046-5.664828.7660041-.179238 2.2508393-.411293 4.4988706-.68605 6.744094-1.09678 5.5934029-3.275733 11.0441628-4.745037 16.5055924-2.015447 7.48932-3.568471 15.169579-5.15914 22.758861-.218008 1.043428-.448377 2.085171-.684926 3.124106-3.580832 9.037614-7.967955 17.625397-12.587694 26.303033-.13485-.04268-.270824-.081991-.409607-.114002-1.677199-.385248-3.603307.076938-4.770884 1.370833-1.076554 1.193372-1.717653 2.933167-1.073744 4.501117.070796.172969.152268.33246.238797.485211-.000562.029203-.004495.058405-.003371.088169.053378 1.34837.704591 2.454695 1.670455 3.20666.257339 2.033505 1.754737 3.792956 3.83199 4.478092 3.793783 1.252338 7.542053-1.129351 9.800792-4.037808 2.806006-3.61381 4.226427-8.304182 5.705845-12.574487 1.651352-4.762816 3.198757-9.56045 4.724248-14.365386 3.080763-9.700286 6.053084-19.278146 8.275863-29.219353 2.118832-9.4773357 3.539253-20.4232209 1.537291-30.0207365"/><path d="m374.998609 186.676846c-1.725519-9.965355-3.89492-20.046958-7.539806-29.50857-1.765974-4.58367-3.826933-9.138138-6.314355-13.378117-2.684641-4.576369-5.72832-8.627094-7.306628-13.773474-.582103-1.898162-3.408336-1.115311-2.971197.818794.879335 3.897973 2.395837 7.621292 3.534196 11.44682 1.140607 3.832829 2.047474 7.735295 2.697564 11.682125 1.364795 8.292389 2.900963 16.540412 4.436006 24.805282 1.501331 8.077862 2.881859 16.137754 4.088767 24.266721.602331 4.054093 1.136674 8.125035 1.526616 12.204962.089338.933919.639976 10.524134-.159011 10.216946-.829328-.319543-1.701359.49195-1.699673 1.293895.005619 4.017591 4.641091 4.781911 7.516769 3.066263 4.183162-2.495691 5.614821-8.038551 5.619351-12.56887.008955-10.156295-1.700832-20.593944-3.428599-30.572777"/><path d="m390.005739 140.009165c-1.951956-3.48296-6.623387-3.003927-8.678166 0 .159011-.233059-.769769 1.744288-1.036098 2.517593-.043826.079184-.087653.158367-.132041.236989-.120803.011794-.210703.015725-.100013.019656-.743924-.02471-1.419298-.069075-1.901387.721077-1.705853 2.791086 1.811486 5.905084 4.260701 6.485764 5.524359 1.30962 10.372782-5.007668 7.587004-9.981079"/><path d="m10.2888373 15.2612854c-.1932852-2.2873424-.41129281-4.5808622-.74279928-6.85304177-.33543961-2.29857411-.47534658-5.11661586-1.8693594-7.03331106-.0685488-.09322338-.15957261-.16735282-.26071018-.22070355-1.74518494-1.80606263-5.56593755-1.13777453-5.47659937 2.06102296.21407453 7.65779542.3629715 15.32064512.37645651 22.98349482-.2876802 1.6864446-.55794225 3.377382-.78999679 5.0795511-.70683923 5.1828831-1.23893522 10.601071-.92765626 15.8406743.14046885 2.3586639.54726663 4.6774551 1.08217199 6.9715366-.08990006 3.6694071.31352647 7.5707494 3.21224157 10.1523632 2.48629857 2.2148977 5.66763701-.0140396 5.23162171-3.0443611-.7512274-5.2148936.2775664-10.3887913.3135265-15.6356952.0342743-5.0441712.328697-10.0759875.4096071-15.1190355.0820338-5.0823591-.1314788-10.1164217-.5585041-15.1824948" mask="url(#a)" transform="translate(382.637136 202.17119)"/><path d="m326.812345 230.297976c-.037646-.111756-.175306-.156121-.264082-.069637-1.673827 1.624109-2.315488 4.007483-3.139759 6.134773-1.075992 2.775922-2.213789 5.536682-3.230784 8.335069-1.010814 2.785469-1.805306 5.655739-2.674527 8.488382-.437139 1.420814-.868659 2.832643-1.237249 4.271989-.172496.721077-.344992 1.442716-.517488 2.163794-.212388.476787-.300603.818231-.268576 1.027703-1.849132 1.146198-1.824409 4.072065-.406798 5.510288.101138.103332.202837.206102.303975.308311 1.067563 1.084424 3.277981 1.579182 4.59614.593036 1.863179-1.393858 2.554286-3.151625 3.054355-5.154242.002809-.005055.006743-.010671.010114-.016286.613568-1.097902 1.119256-2.285097 1.527739-3.472852.5394-1.568512 1.083296-3.936723.266329-5.572624.210703-1.269748.418597-2.540618.638852-3.806435.547829-3.145446.801796-6.327958 1.121503-9.504292.294985-2.921374 1.191738-6.396472.220256-9.236977"/><path d="m278.561802 2.76104071c-1.396822-1.27985595-3.336978-1.55278706-5.009119-.64582463-1.729453.93784968-2.354258 2.4670501-2.975692 4.22593945-.246664.69861378-.143279 1.35117746-.885516 1.63814823-.752913.29034029-3.920205-.69917537-4.638843-1.2821023-.465233-.37738622-1.182748-.50205845-1.635619 0-1.418174 1.57412735-1.289504 4.39048434-.316898 6.17745304 1.454695 2.670906 4.516354 3.976595 7.445972 3.9502004 3.167292-.0286409 6.320537-1.6269165 8.06516-4.297261 1.812048-2.77536112 2.662727-7.2820939-.049445-9.76655319"/><path d="m251.857944 66.4240745c-1.325464-4.0046743-4.270253-5.1609812-7.620716-5.1396409.061244-.1403966.117432-.2824781.180924-.4223131 1.354119-2.968547 2.984682-5.8141065 4.160687-8.8623988.538277-1.3944196-1.420421-2.9747244-2.647557-2.0340668-2.700373 2.0722547-4.969788 4.5999562-7.262239 7.1029478-2.376733 2.5950919-5.114752 4.9043361-7.275163 7.690929-3.598811 4.6415136-.310717 10.5162714 5.591222 9.599762.185419-.0280793.374209-.0634593.561876-.0960313-.193285.3824405-.372524.7755512-.52423 1.1821399-.861917 2.30419.412978 5.2345491 2.254244 6.6098747 2.183448 1.6308476 4.567485 1.5673883 6.988044.4913883 5.47379-2.4316701 7.342588-10.8363757 5.592908-16.1225908"/><path d="m182.543704 245.861676c-.48827-1.600522-1.93847-2.219391-3.499922-1.985771-2.542486.380756-3.82918 2.642827-5.027099 4.696549-.405112.695245-.823709 1.384873-1.235002 2.076748-1.02767-.672219-2.154792-1.174839-3.385861-1.398351-.627053-.11344-3.878064-.258891-3.461152 1.227067.654585 2.335077 4.119108 2.915758 4.424206 5.641699.311279 2.777608 3.540377 4.637021 5.781698 2.392921 1.766536-1.770121 3.067278-4.026576 4.489384-6.076367 1.410308-2.031821 2.684079-4.047917 1.913748-6.574495"/><path d="m378.404473 81.2526574c-3.869074 1.4522631-5.67438 4.6645386-7.822429 7.9998017-.295547.4593779-.605702.9181941-.919228 1.3770104-1.61764-1.3792568-3.541501-2.1991733-5.690112-2.1783946-1.014186.009547-1.296809 1.3084969-.497822 1.8397579 1.312541.872144 2.439663 1.9273653 3.056602 3.4026534.162944.3891796.210703.9019082.316898 1.3405073-.301727.5666409-.575361 1.1445136-.806853 1.7386723-2.115461 3.0016805 1.406374 7.9256722 5.121494 6.6913052 3.531387-1.173155 6.062073-3.8777562 8.523088-6.5683178 2.672841-2.9224968 5.696292-6.1364572 5.765965-10.277597.056187-3.3616577-3.6432-6.6430084-7.047603-5.3653988"/><path d="m84.6528195 76.7171714c-.3927509-3.9030271-4.4202736-5.571501-7.4515913-3.0847954-1.4299729 1.1737161-2.1390596 2.8113027-3.1032377 4.3416263-.0629301.1010856-.1370976.1959937-.2033989.294833-.7720168-.6559332-1.645733-1.2972652-2.5812555-1.6651044-1.3513103-.531261-2.8492701-.5750647-3.7999633.6278539-.3112789.3936722-.0325887.975476.5000691.8575428 1.5283011-.3363904 2.5110211 2.2081586 2.8144338 3.9024655-2.6694699 3.6110021 1.5850505 8.844428 5.8013634 6.4520689 3.8173813-2.1660397 8.5022983-6.9709749 8.0235804-11.7264906"/><path d="m80.2000695 47.0704511c-.3146502.2802318-.2629577.807.1050707 1.0765616 2.8498319 2.0924719 7.4841801 2.1312213 10.8942018 2.2895888 4.2522729.1965553 8.5360108-.3262819 12.748391-.8631587 3.102114-.395357 6.975121-.3554843 9.660323-2.1750251 2.43292-1.6482567 2.837471-4.6914947 1.361424-7.1141795 0-.9625595-.275319-1.9071482-.796177-2.7703069-.431521-.7143382-1.01868-1.1619227-1.613145-1.7139624-.702344-.6514405-.477032-.0628977-.760779-1.0535365-.65908-2.3064364-2.068263-4.5550293-4.718629-4.7409144-.500069-.0348184-.848432.5997745-.579856 1.0102943.512993.783975 1.042841 1.4663027 1.313103 2.3800042.329821 1.11138.046636 1.9610605.094395 3.0640167.038208.8755136.373647 1.5932213 1.005195 2.210405.175867.1724071.319707.3156117.446129.4503925-.669193.1976785-1.277704.6188685-1.604716 1.2360522-.09889.016286-.252282.0690751-.473661.165668-.702344.1179332-1.404688.2324969-2.107594.3442526-1.405813.2229499-2.813872.4341065-4.223618.6306618-2.7638646.3858101-5.5316627.7452255-8.3011465 1.0906013-2.4952886.311119-4.9838347.7373633-7.4572101 1.1911253-2.709925.4975657-5.4597431 1.0934091-8.0606642-.1937474-.6686318-.3313361-1.2069084.4352296-.7658362.9923236 1.0535163 1.3298371 2.371676 2.0615845 3.8347995 2.492883"/></g><path d="m77.5361059 36.6210647c1.6311243 0 2.5408005.3678393 3.0138996.7148998.01798.0853612.03596.1662297.0556256.2442902.2112652.8406952.5978355 1.2669395 1.150159 1.2669395.4489384 0 .924285-.3526765.924285-1.0058017 0-.3611002-.1545158-.8485574-.5517617-1.3230981-.0398931-.3476222-.0691106-.8137391-.0691106-1.4309228 0-2.9443987 2.7116106-6.1218559 7.0942386-6.1218559 2.5469811 0 2.9279326 2.6254175 2.9279326 4.1905595 0 .0320104-.0005619.0657056-.0011238.1010856-.1944089.6739039-.2994795 1.3820647-.2994795 2.1160584 0 .126357.0039331.2167724.0101137.2751775.0556257.5632714.482651.8193549.8562981.8193549.8062912 0 .8888869-.7188309 1.0023857-1.7134009.0427025-.3723319.0870907-.8474342.1067563-1.2399833 1.0366601-3.2532714 4.6691844-5.5136576 7.9702025-5.5136576 4.8237 0 6.32166 4.6201733 6.32166 6.30381 0 1.2225741-.489956 1.7762986-.783255 2.1065115-.180362.2032944-.555132.6272923-.308469 1.1754009.26071.5778726.745609.5750647 1.822724.577311h.202275c1.318159 0 3.351586 1.5224614 3.351586 3.5447349 0 3.4318559-7.126265 3.8025031-10.190172 3.8025031-.459052 0-.91979-.0039311-1.380527-.0073006-.467481-.0039311-.934961-.0073006-1.403565-.0073006-2.5756368 0-5.2142036.3661544-7.7662416.7205156-2.5003455.3470606-5.0855341.7059144-7.5555383.7059144-9.4086033 0-10.4239121-4.388238-10.4239121-6.2751691 0-2.5967766 1.3928891-4.0265762 3.9230139-4.0265762m6.5008982 11.9865052c2.5863124 0 5.230498-.366716 7.7875928-.7216388 2.4947267-.3464989 5.0748585-.7047912 7.5341871-.7047912.4646709 0 .927094.0033695 1.39008.0073006.465794.0033695.929903.0073006 1.394012.0073006 9.815402 0 11.875799-2.9837098 11.875799-5.487263 0-2.7832234-2.54361-5.045856-4.766951-5.2193862.262958-.5250835.482089-1.2371754.482089-2.1845721 0-2.7860313-2.348639-7.9885699-8.007286-7.9885699-3.0790773 0-6.3969514 1.665666-8.3163177 4.2742359-.6512136-2.0896639-2.1620965-3.3094301-4.2567679-3.3094301-5.4237831 0-8.7798648 4.0518476-8.7798648 7.8066159 0 .093785.0005619.1858852.0016856.275739-.7866255-.2836012-1.7361949-.4268058-2.8391563-.4268058-3.4594667 0-5.60864 2.1879415-5.60864 5.7113361 0 4.984643 4.526468 7.959929 12.1095382 7.959929" fill="#525d7d"/></g><g fill="#ffcc80" transform="translate(14 33)"><path d="m93.7604858 58.4438412c-3.1490983.067148-5.2348355 3.7194404-3.7240094 6.4764259.903913 1.6490434 2.9744915 2.6411553 4.8193724 2.0452167.7141474-.2305416 1.2699697-.6311914 1.6725198-1.1269676.3435993-.264675.6568809-.5819494.9157032-.9686101 1.7881758-2.6741696-.545155-6.4926534-3.683586-6.4260649"/><path d="m64.9836 36.489574c-1.7028374-1.7027617-4.0378526-2.6920758-6.4149754-1.8678339-2.0234178.7011372-3.9042306 2.3333935-5.6716333 3.6567689-1.6579225.4359026-2.7420567 1.9864621-2.6763686 3.7300722.0735482 1.9707943 1.38731 4.5582311 3.0182835 5.7003069 2.3922817 1.6753429 4.6122023.1729061 6.7945067-1.0587004 1.9756956-1.1157761 4.8614801-2.132509 6.3257069-3.9035379 1.7617883-2.1308303.2868942-4.5940433-1.3755198-6.2570758"/><path d="m296.358559 6.3391083c-.953881-1.98254512-5.223607-2.77545126-7.283518-3.21750902-.934231-.72240072-1.898218-1.37093863-2.934068-1.44759928-.614774-.04588448-1.193053.04252708-1.725857.22270758.094322-.1482852.17966-.29041516.253208-.42303249.435114-.70729242-.660811-1.69548736-1.334535-.78227437-1.042588 1.41234657-3.971603 4.13743683-3.420272 6.16250903-.33237.1835379-.661934.37490974-.987006.57915162-1.893726 1.18907942-.575472 3.67411553 1.433348 3.38761733 3.740291-.5327076 11.089497 7.2150542 13.916892 3.1330144.793872-1.1454332 1.139717-2.7435559 1.623114-4.04063173.412656-1.10794224 1.017885-2.41173285.458694-3.57395307"/><path d="m41.749217 123.836662c-5.6222268.481228-11.2629811.586986-16.8969981.233899-.3520208-.021823-.7068488-.043646-1.0633611-.065469-4.7901776-1.259585-9.5758638-2.539314-14.36098861-3.817924-.86461248-.231661-1.62535917-.186895-2.26539698.044765-2.78809452-2.069278-6.88826654.397852-5.99614367 3.969007 1.04820227 4.199549 1.8476881 8.477437 2.42316068 12.776589-.91626465 3.816805-1.9841172 7.579332-3.12664083 11.35305-.3812155 1.258466.65126654 2.413972 1.88418148 2.466011.04379206.002239.08814556.005036.13193762.007275.46936105.894187 1.37495841 1.52314 2.54836105 1.551119 2.97954443.071065 5.96021176.124224 8.94144046.176823.0381777.010632.0774783.019025.1167788.029657.2565766.069386 1.9829944.458845 2.8302023.670361.2537694.520957.7674839.934476 1.2907429 1.102346.9123346.290975 1.5888658.006156 2.2996446-.56796.731552-.590343.6484594-1.65352.3115974-2.40278-.0931985-.20648-.2240133-.392256-.3699868-.569079.2891399-.598177.3683025-1.276931.1010586-1.933863-1.4024688-3.446931-2.6162949-6.953177-3.6583214-10.508105 6.1185369-.92888 12.2718828-1.771588 18.3196787-3.056353 1.3081474-.278105 2.0806843-1.220415 2.3748771-2.326679 1.7718941-.337978 3.5174008-.781715 5.2118166-1.417383 3.8312439-1.435848 3.7212023-8.12379-1.0476408-7.715307"/></g><g stroke="#525d7d" stroke-linejoin="round" stroke-width="3" transform="translate(2 2)"><path d="m276.945547 4.98170985c-.879039-3.30758071-4.792053-4.79478406-7.948398-3.95426415-3.337093.88883858-6.693832 4.4846457-5.806373 7.82537526.831888 3.12722854 5.615521 4.58409224 8.538354 3.80593714 2.061756-.5489225 3.508858-1.8467841 4.643301-3.56490569.784736-1.18774004.935172-2.74966876.573116-4.11214256z"/><path d="m371.989754 80.347917c0 6.0415178.588833 11.9414507.991305 17.9835304" stroke-linecap="round"/><path d="m363.940934 89.4109803c1.654794-.2887883 3.309588-.3747505 4.964381-.3747505 2.497908 0 4.995816.1972075 7.494285.1972075 2.644975 0 2.387887-.1764193 4.644985-.6287044" stroke-linecap="round"/><path d="m104.651441 87.2305166c-2.1903.9590691-3.698026 3.2929727-3.698026 5.6549685 0 2.6137023 1.595293 4.6144319 4.644985 4.6144319 2.772958 0 5.750801-2.068151 5.750801-5.2937023 0-3.8739204-4.86671-5.0745828-6.092649-5.0745828-.225093 0-.442326.0275304-.605111.0988847z"/><path d="m62.323301 90.4973635c10.0791977-5.5263061 20.1095599-8.9428847 30.7585051-13.5966457-1.8619236-4.1054004-3.6985873-8.2490063-5.8204055-12.3454172-1.036772-2.0007295-2.1268702-3.9239245-3.1703781-5.8690314-4.7067316-.9113124-9.3258961-2.3591866-13.5341688-4.6217359-6.6550996 2.9592369-13.548202 5.3088722-20.1808485 8.2293418 2.8818557 7.2135262 8.4367532 21.0034465 11.9472958 28.2034884z"/><path d="m60.2890499 69.5189753c4.9699943-1.7557652 9.8221097-3.8182977 14.4861804-6.1887212 1.1945051 2.1962516 2.0353737 3.1626247 4.865026 10.7750608-4.6000794 2.0187086-9.3045657 3.8705493-14.0275758 5.8100377-1.5099711-3.4266918-3.7058845-7.5068092-5.3236306-10.3963773z"/><path d="m22.9503264 93.3691212c4.9862727 2.868218 9.9708615 5.6246289 15.2074863 7.9124608-3.8170274 2.5946-9.4033593 6.019606-14.2403189 9.019296-.3182727-5.639799-.7858586-11.2975765-.9671674-16.9317568z"/><path d="m57.9061022 243.210506c-2.0578269.48431-2.9800881 2.313677-2.9800881 4.212712 0 2.265359 1.3370823 4.877938 3.9478168 4.877938 2.6663059 0 5.312404-2.562575 5.312404-4.471162 0-3.168243-3.8164661-4.687472-5.6677244-4.687472-.2065685 0-.4131371.020789-.6124083.067984z"/><path d="m102.153421 214.873017c-12.2318891 3.299715-30.9993148 8.150122-54.9253408 16.511497l-17.0009278-62.395681c11.8120159-2.540101 44.7524011-10.436269 57.6416046-14.408512.4799351 1.484956.9430303 2.97834 1.4016349 4.473971" stroke-linecap="round"/><path d="m67.6811165 160.062972c.2065685-1.810826.4344675-3.627271.6988528-5.481359.517544-3.626146.4760057-7.112956.7819293-10.572796-.7460044.011799-1.2467086.017979-1.3724459.017979-19.0340563 0-46.7569019-3.905384-58.7810996-5.748235-1.03115873 19.417358-5.0732785 44.389115-8.72752092 64.517769 18.01356272 1.86364 30.87189322 3.278927 40.36562622 4.431271" stroke-linecap="round"/><path d="m48.9347405 205.291989c6.9155556-1.724302 24.9684113-6.430876 38.5272785-10.480092-2.9688614-9.21257-4.9430505-18.674038-7.2405642-28.02426-13.4741067 2.914289-26.8544718 6.347723-40.3482251 8.861417 3.2686104 9.811497 6.4951212 19.602206 9.0615108 29.642935z"/><path d="m34.7606583 185.626913c-7.2534748-.723656-14.3026263-2.17771-21.5538557-3.039019 1.2641097-12.006063 2.104417-27.267455 2.104417-33.434264 0-.198893-.0005613-.397224-.0011226-.595555 8.5215137 2.316486 27.1104372 6.693819 39.5062337 6.693819 1.3786205 0 2.9565123-.078096 4.4575022-.200578-.0202078 2.410876-.2138658 4.821752-.4782511 7.23319" stroke-linecap="round"/><path d="m291.200741 72.9196537c3.356739 5.0228931 6.284062 10.3497442 9.198475 15.706935-4.254863-.8270357-12.10559-2.3805367-17.315833-3.7767212.522035-.6433124 1.026668-1.292805 1.493693-1.9563438 2.282919-3.241283 4.285736-6.7657359 6.623665-9.97387z"/><path d="m82.1292949 122.131308c.1274214 3.687388 0 7.247799.2537201 10.935749" stroke-linecap="round"/><path d="m77.3015411 127.472093c1.1142352-.107874 2.238013-.144956 3.3668427-.144956 2.3979914 0 4.8150679.165744 7.197342.165744.46085 0 .9200159-.00618 1.3774979-.020788" stroke-linecap="round"/><path d="m246.526982 51.2625568c-2.922271 5.4841677-6.006205 11.1301468-9.968616 15.9339203.245861.0011237.4906.0016856.736461.0016856 3.401645 0 6.80329-.1073124 10.122982-.6511782-1.635148 4.6155555-3.015452 9.260327-4.395756 14.019153" stroke-linecap="round"/><path d="m295.646455 13.4348906c4.925088 2.610893 13.746351 7.0972243 22.10957 10.7317987.363179 4.2329392 1.508287 10.1092746 3.308465 15.283304-4.162244 5.8100377-8.142618 11.8037987-11.8558 17.8947589-8.396337-4.4801509-21.841255-11.672327-28.005193-15.073174 5.301739-7.7309853 11.0778-20.8455681 14.442958-28.8366876z"/><path d="m295.525265 28.1358423c5.785603 2.5575179 8.377252 5.3622474 15.059857 7.7051405-1.677808 3.2457778-4.092078 7.6040084-5.843981 10.412109-4.030894-1.7608218-10.667469-4.8970398-15.117113-7.7495262 3.122104-4.3498029 4.755567-7.724805 5.901237-10.3677233z"/><path d="m299.777433 21.8046935c.015156.0943899.023015.1842851.023015.2696855 0 1.0337946-1.069891 1.4445032-1.260181 2.2069267" stroke-linecap="round"/><path d="m305.344119 24.0745468c-.412576.619153-.825152 1.4445031-1.237166 2.270415" stroke-linecap="round"/><path d="m310.910804 27.376509c-.206569 1.2383061-1.237166 1.8574591-1.443173 2.8890063" stroke-linecap="round"/><path d="m382.37263 137.394386c-.158294-.019665-.313221-.029778-.463657-.029778-2.451878 0-3.94108 2.527178-3.94108 4.907153 0 1.792285 1.586311 4.529031 4.406421 4.529031 2.957074 0 4.799912-2.727756 4.799912-4.520041 0-2.402449-2.325019-4.120009-3.499877-4.560495-.481619-.180914-.791472-.262382-1.301719-.32587z"/><path d="m309.858876 154.157533c4.961013-23.281728 19.370853-63.1333837 26.18144-71.6082517 2.455247-3.0553123 5.03567-5.7139622 7.524596-8.4349769.13079 3.8469518.342971 7.7000839.342971 11.574566 0 22.7238156-11.722764 48.3349516-21.668927 72.8454336-1.108622 2.730566-3.31464 6.579204-6.278449 6.579204-1.323611 0-6.285185-1.510239-6.285185-9.082222 0-.630952.052765-1.256286.183554-1.873753z"/><path d="m335.629537 83.0852813c.260456-.0089895.520912-.0129224.781368-.0129224 2.510818 0 5.035108.3977862 7.486425 1.1006541" stroke-linecap="round"/><path d="m329.260321 95.1896109c1.621114-.0893333 3.25121-.1472034 4.877376-.1472034 3.059235 0 6.106121.2039497 9.060949.7832118" stroke-linecap="round"/><path d="m310.268365 158.903605c-.193658-.349467-.27898-.696688-.27898-1.032671 0-1.094474.944714-3.085652 5.315211-3.085652 3.599793 0 5.462839 2.558642 6.177409 5.410004" stroke-linecap="round"/><path d="m323.298967 266.212153c.206007 0 .619144 0 .825151-.206197l9.266395-67.652863c6.160009.954574 16.120205 2.436721 25.311944 3.730088" stroke-linecap="round"/><path d="m370.993173 203.748601c4.592782.58769 8.029791.967497 9.209701.967497h6.803852c.64272 0 1.160264-.125291 1.747413-.278113-2.634311 19.035304-2.984579 38.213878-2.984579 57.414365" stroke-linecap="round"/><path d="m374.326056 223.200794c-.311537-2.53392-1.329224-4.939178-1.649181-7.429275-7.791226-60.652276-22.851645-96.517081-22.851645-84.567765 0 4.373963-.083076 8.712529-.083076 13.060084 0 36.675547 16.171285 81.442222 16.171285 81.442222 0 .19777-.077463.369132-.077463.569149 0 .561845.68931 2.195128 3.664908 2.195128 3.756404 0 4.839205-4.221702 4.839205-5.028511 0-.08203-.00393-.162374-.014033-.241032z"/><g stroke-linecap="round"><path d="m366.595733 226.796826c-.039854-.200017-.058939-.394977-.058939-.584319 0-2.136696 2.941917-4.434641 5.056438-4.434641.830765 0 1.690158.191589 2.55797.332612"/><path d="m349.767413 139.459053c1.734503-.931539 3.507175-1.784419 5.341593-2.466499"/><path d="m349.876479 150.226304c2.83695-1.161895 5.849595-1.951287 8.901533-2.519312"/><path d="m344.74123 214.621704c7.003684.437677 13.846267 1.810264 18.448031 2.894625"/><path d="m344.74123 229.066735c10.102212.825912 19.998979 3.50816 30.101191 4.746466"/><path d="m345.978452 243.099654c7.422435 0 15.099712.32587 22.522146 1.977132"/><path d="m349.070694 255.068522c.932926-.093266 1.861362-.134842 2.785868-.134842 5.202946 0 10.280153 1.322582 15.357361 2.19906"/><path d="m142.787193 114.328013-11.149088-48.8569052c-9.237767-4.3149686-10.677573-28.0416772-10.677573-36.3508009 0-21.92543394 44.1428-29.01703981 64.799654-29.01703981 17.795206 0 28.408227 20.81803771 28.408227 39.60275891 0 2.3108679-.177941 4.8650147-.177941 4.871195 0 .5556645.073534 1.1759413.073534 1.7950943 0 2.6996646-3.792329 6.5865073-5.69972 8.4950943l9.490926 45.7959744"/><path d="m128.852686 63.376831c-.27898-.8635555-.426609-1.8389182-.426609-2.9637316 0-10.0811824 33.12843-24.0919078 66.910806-24.0919078 8.313261 0 18.185329 2.1130985 18.185329 10.6587589 0 .5837568-.063991 1.198977-.195342 1.8119497"/><path d="m133.831156 75.0811832c12.991926-12.4094675 35.160997-19.3903899 54.79848-19.3903899 8.551826 0 15.292247 1.1236897 20.428956 2.5249308"/><path d="m185.920052 51.4817887c3.049131-.6781468 6.114541-.9691824 9.184442-.9691824 5.169265 0 10.351441.8253501 15.485343 2.0170231"/><path d="m136.012868 66.8285249c10.279591-6.3555891 23.798043-11.5009643 23.961389-11.5987253"/><path d="m165.473808 54.4435539c1.178788 0 2.500714-.4331824 3.72104-.4331824.20264 0 .403595.0117987.599498.039891"/><path d="m175.68677 53.0674273c.981762-.1966457 1.658162-.2893502 2.640485-.2893502"/><path d="m127.181277 115.149374c-2.391817-.797819-1.931529-1.823186-5.820406-1.823186-1.426895 0-2.854912.13709-4.282929.13709-1.083924 0-1.251761-.071916-2.391817-.071916-17.1923404 0-17.2692423 22.101291-25.0267892 44.285736-1.4403665 4.118884-4.1695411 8.678255-4.1695411 12.626339 0 5.534172 7.5723088 18.02904 9.3404906 21.848462 2.6663059 5.758348 8.6708267 22.682239 8.6708267 33.719681 0 .561845-2.249801 24.954339-5.4274761 40.856235"/><path d="m117.694616 122.698097c0 12.237543-9.246749 29.540118-9.246749 38.400973 0 12.508914 12.066859 13.042667 18.774723 27.365216.327816.700059.731971 1.21808 1.220888 1.21808.733094 0 .931804-.999522 1.221449-1.716436 4.203782-10.396378 8.511971-31.909418 16.32116-31.909418 3.59418 0 4.525984 6.787086 4.525984 11.139698 0 12.399917-2.239136 22.694038-2.239136 26.379179 0 11.363874 7.634055 17.544167 7.634055 29.022096 0 14.416377-7.15412 23.268243-7.15412 35.892897 0 3.135095.343533 6.272998.945276 9.40416"/><path d="m101.26759 246.341779c7.747443 5.221787 17.018329 7.536587 26.454245 7.536587 8.282388 0 16.056214-1.877123 22.098343-4.079555"/><path d="m115.93884 133.823581c.029189 8.563077 3.064848 18.749887 9.178267 50.81044"/><path d="m121.115234 118.784904c7.510563-4.747589 21.977658-2.690675 32.633901-6.850013 6.126329-2.391211 6.607948-13.0196306 50.390375-13.0196306 23.10312 0 14.604059 8.8687216 24.631615 8.8687216 9.122695 0 20.865106-1.092227 24.991987-2.058038"/></g><path d="m136.508969 120.201034c-5.601488.93491-10.931293 4.761635-10.931293 10.2694 0 2.585049 3.306219 7.227011 9.934375 7.227011 7.008175 0 12.210559-5.724637 12.210559-10.300864 0-4.826247-5.19228-7.328704-9.538078-7.328704-.578168 0-1.141741.044385-1.675563.133157z"/><path d="m125.585591 130.115068c.965483 1.704075 2.911606 2.414809 5.557143 2.414809 7.173205 0 12.751117-3.243531 16.089332-7.562994" stroke-linecap="round"/><path d="m183.325035 105.418053c-4.73536 1.354046-9.922588 5.602155-9.922588 10.51605 0 4.979631 4.593344 10.000277 12.755608 10.000277 8.733134 0 20.33353-6.752252 20.33353-13.822507 0-5.215044-7.296136-8.252378-13.280449-8.252378-3.312955 0-6.736492.657921-9.886101 1.558558z"/><path d="m173.403121 116.058552c1.973628 1.416411 5.326999 1.708008 8.138688 1.708008 8.258813 0 16.573197-4.326767 23.715529-9.145149" stroke-linecap="round"/><path d="m140.395489 141.934148c37.954724-8.05854 77.059609-8.63387 115.589694-10.93631" stroke-linecap="round"/><path d="m153.910123 196.904376c1.260742.089895 2.550111.128662 3.850146.128662 33.6398 0 88.178385-13.823631 88.748133-13.937685" stroke-linecap="round"/><path d="m160.381837 151.394436c12.396358-1.795094 45.773456-5.309434 62.524032-6.490432-.298626 3.167682-.406963 6.335363-.406963 9.502482 0 8.268109.735901 16.536218.735901 24.803766 0 .282046 0 .56353-.002807.845014-7.951766.929292-40.618785 4.749837-53.924493 6.358399-3.091792-11.636931-5.98712-23.415447-8.92567-35.019229z"/><path d="m172.831914 168.549863c-.302555-2.377165-.633739-4.79984-1.068768-7.192738 3.097967 1.387757 6.637138 1.849032 10.038221 2.450206-3.108632 1.360226-6.216141 2.853048-8.969453 4.742532z"/><path d="m193.589527 158.914561c-1.232114 0-2.675849.634323-3.968025.634323-1.092905 0-.344655-.923111-.344655 4.833551" stroke-linecap="round"/><path d="m189.852096 168.699651c.287399.575329.359249 1.079304.359249 1.582717 0 2.033317-1.18384 1.768688 5.10359.719723" stroke-linecap="round"/><path d="m203.6534 158.050949c.795963-.198893 1.8434-.509593 2.620277-.509593 1.466188 0 1.715417 1.65969 1.715417 3.123857 0 .490491-.022453.977049-.022453 1.415288" stroke-linecap="round"/><path d="m203.6534 171.289981c2.212753-2.214793 5.247852-.091019 5.247852-3.525577 0-.647807-.07185-1.366968-.07185-1.942298" stroke-linecap="round"/><path d="m197.37686 234.826207c6.671939-5.189199 15.323681-9.725534 23.236716-15.265325 4.160559 6.248277 8.500183 15.548495 10.563062 20.766348-7.458921 4.913334-15.167071 9.186164-22.313894 14.437728-3.863056-6.568529-7.639668-13.240998-11.485884-19.938751z"/><path d="m197.040288 234.030579h.2874l-7.721622-2.244009c5.525708-3.877853 12.881906-8.60353 19.60661-12.649375l11.405615.215187" stroke-linecap="round"/><path d="m189.564303 231.440305c3.296115 6.598868 7.096864 13.029183 9.988824 19.806155 3.096283.888277 6.194811 2.112537 9.288287 2.318734" stroke-linecap="round"/><path d="m174.037365 241.225395c0 5.467875 0 10.936873.862761 16.117082" stroke-linecap="round"/><path d="m166.849173 249.283824c4.313241-.287665 8.337959-.287665 12.6512-.575329" stroke-linecap="round"/><path d="m248.04599 262.887156c-.252597-.925359-.344093-1.851279-.344093-2.776638 0-9.819924 5.689054-57.38571 5.689054-57.38571 0-22.875514-17.88165-33.635405-17.88165-47.686021 0-4.578474 2.619715-5.878021 3.495386-5.878021 12.320579 0 13.918117 14.899002 27.844654 21.868687 3.872037-17.92566 4.298646-43.340713 4.298646-43.902557 0-19.193745-19.44158-11.520067-20.531116-31.2458788-.00842-.1505744-.01235-.3028344-.01235-.4573417 0-1.745652.694924-3.7755975 2.272816-3.7755975.051642 0 .098793.0089895.138648.0320251 6.548447 3.7272789 13.421342 10.6250479 29.997344 16.5811659 9.442653 3.392981 10.236931 14.815849 10.236931 22.941249 0 11.814474-1.997203 25.2347-1.997203 33.325828 0 10.199732 2.023586 17.695304 2.023586 35.600738 0 17.418315-1.991591 21.741149-1.991591 29.689568 0 12.743766 6.826305 24.303724 9.556041 36.445753" stroke-linecap="round"/><path d="m249.759555 235.13893c4.560786 2.342331 9.512818 3.381182 14.540629 3.381182 9.405605 0 19.044722-3.628394 26.986945-9.182792" stroke-linecap="round"/><path d="m258.682699 110.115301c1.950613 7.76301 4.106111 21.176494 4.106111 35.426566 0 8.490599-.855464 16.118767-1.743484 21.65013" stroke-linecap="round"/><path d="m261.464133 125.37231c3.216407.553979 6.857177 1.157963 9.681778 1.904093" stroke-linecap="round"/><path d="m262.236463 132.659831c2.967739.035397 5.900676.425879 8.689912 1.390566" stroke-linecap="round"/><path d="m262.739694 141.779978c.537751-.014608 1.075503-.023035 1.612694-.023035 2.840878 0 4.755567.113492 6.131381.324184" stroke-linecap="round"/><path d="m108.728194 158.070726c2.981772-2.236142 6.485018-3.745258 10.151609-4.526784" stroke-linecap="round"/><path d="m110.525677 168.77977c3.389296-2.190071 6.607387-4.689719 10.106703-6.725845" stroke-linecap="round"/><path d="m50.6028377 102.348245c0-12.4386836-10.0741458-22.5226752-22.501938-22.5226752-12.4272309 0-22.50193794 10.0839916-22.50193794 22.5226752 0 12.439245 10.07470704 22.522675 22.50193794 22.522675 12.4277922 0 22.501938-10.08343 22.501938-22.522675z"/></g></g></svg>