<svg xmlns="http://www.w3.org/2000/svg" viewBox="0 0 408.88 283.44"><path d="M158.43,102.17c1.29-7.1-3.17-13.61-9.76-15.93a4.58,4.58,0,0,0-4.46.54c-1.85-2.69-6-4.16-8.43-1.15-3.8,4.78-5.72,10.84-4.19,16.92A13.7,13.7,0,0,0,145,113.19C151.36,113,157.28,108.51,158.43,102.17Zm-14.9,0c-2.62-1.41-1.89-5-.66-7.69a5.32,5.32,0,0,0,2.91,2.3C149.76,98.13,147,104,143.53,102.12Z" fill="#ffcc80"/><path d="M201.41,91.08A17.16,17.16,0,0,0,205.15,109c5,5,12.53,5.7,17.63.47a19.31,19.31,0,0,0,3.84-20,13.43,13.43,0,0,0-16.13-7.92,5.28,5.28,0,0,0-3.81,5.9A5.53,5.53,0,0,0,201.41,91.08Zm10.3,2.84a5.68,5.68,0,0,0,.35-1.47,5.9,5.9,0,0,0,1.37-.24c4.71-1.41,4.25,7.68,1.65,9.56-1.44,1-2.69-.54-3.44-2.07A6.87,6.87,0,0,1,211.71,93.92Z" fill="#ffcc80"/><path d="M337,90.81c.56,11.2,24.34,4.89,30.29,3.3a5,5,0,0,0,3.9-4.82,5.79,5.79,0,0,0,2.24-7.52C367.09,67,344,73.29,334.25,80.57,329.68,84,332.64,91,337,90.81Z" fill="#ffcc80"/><path d="M361.11,202.65a1.47,1.47,0,0,0,0-.21,4.38,4.38,0,0,0-.61-2.26c-.27-.61-.57-1.2-.87-1.8a4.38,4.38,0,0,0-2.62-2,4.6,4.6,0,0,0-2.86.22,4.21,4.21,0,0,0-2.1,1.8,4.28,4.28,0,0,0-.45,3.38c.24.63.48,1.25.74,1.87a4.43,4.43,0,0,0,1.15,2l.9.7a4.34,4.34,0,0,0,4,.22,4.7,4.7,0,0,0,.77-.41,6,6,0,0,0,1.48-2.48A3.6,3.6,0,0,1,361.11,202.65Z" fill="#ffcc80"/><path d="M78.56,61.58a4.38,4.38,0,0,0,.32-4.91,4.54,4.54,0,0,0-6.1-1.6l-.16.1-.07,0a4.35,4.35,0,0,0-2.64-.94A4.47,4.47,0,0,0,66.8,55.5c-1.48,1.62-1.91,4.68,0,6.24a9.22,9.22,0,0,0,8.5,1.92c.22-.29.42-.58.64-.86A2.8,2.8,0,0,1,78.56,61.58Z" fill="#ffcc80"/><path d="M103.35,78.58A5.46,5.46,0,0,0,96,80.51c-.19.35-.42.65-.63,1a.88.88,0,0,0-.07.13c-.39.34-.38.36-.07.12l-.83.65-.12.09L94,82.6c-.11.06-1.06.56-.64.35s-1.16.6-1.38.79a3.34,3.34,0,0,0-1.39,3.42c.63,3,4.12,4.07,6.82,3.9a9.47,9.47,0,0,0,7.87-5.12C106.49,83.4,106.07,80,103.35,78.58Z" fill="#e0dfe6"/><path d="M118.06,253.5a3.9,3.9,0,0,0-1-2.72,2.42,2.42,0,0,0,1.35-.74,2.84,2.84,0,0,0,0-3.94l-.59-.59a2.82,2.82,0,0,0-3.94,0,2.86,2.86,0,0,0-.29,3.59,3.37,3.37,0,0,0-1.78.57c-6.5,4.24-17.84-.81-22.32-6.3-4.33-5.31-6.86-12.14-9.72-18.47a19.4,19.4,0,0,0,7.3-6.77c3.52-5.24-5.55-10.56-8.45-4.94-.9,1.74-2,3.76-4,4.5-1.61.61-3.89-.08-3.33-2.18.8-3-3.62-5-5.15-2.17A8.7,8.7,0,0,0,72,225.77a11,11,0,0,0,4.4.2c2.22,9.84,5,20.81,13.09,27.17,5.55,4.36,16.43,8.77,23.63,5.59-.81,1.28-1.59,2.58-2.41,3.85-1.47,2.3,2.14,5.21,3.87,3,2-2.59,4.3-5.11,5.91-8A2.85,2.85,0,0,0,118.06,253.5Z" fill="#e0dfe6"/><path d="M56.82,154.41c-.22.21-.42.44-.63.66a4.41,4.41,0,0,0-.95-.24c-1.91-.24-3.57,1.21-4.4,2.81a2.4,2.4,0,0,0-1.05.34,3.19,3.19,0,0,0-1.45,2.89l-.55-.57c-1.12-1.05-2.21-2.1-3.41-3.06a1.78,1.78,0,0,0-2.79,2.15c1.42,2.6,3.14,5.21,4.8,7.67a4.82,4.82,0,0,0,4.23,2.54c2.36,0,3.91-1.85,5.5-3.34,2.16-2,4.42-4,6.42-6.13C66.07,156.32,60.51,150.7,56.82,154.41Z" fill="#e0dfe6"/><path d="M68.29,69.69c.95,1.13,2,3,3.59,3.38s2.78-.72,3.8-1.79c1.58-1.64,3.06-3.44,4.52-5.19a2.67,2.67,0,0,0-1.64-4.51,2.8,2.8,0,0,0-2.62,1.22c-.22.28-.42.57-.64.86l-2,2.69c-.33.45-.87,1.32-1.33,2-1-.66-2-1.79-2.7-2.34a16.14,16.14,0,0,0-3.43-2.37.92.92,0,0,0-1.25,1.26A24.6,24.6,0,0,0,68.29,69.69Z" fill="#e0dfe6"/><path d="M271,52.72a11.39,11.39,0,0,0,9.61-10.92c.06-3.59-5.1-5.07-6.84-1.86-1,1.9-1.82,5.94-4.6,6.06-2.23.09-2.43-3-4.83-2.67l-.14,0a2.2,2.2,0,0,0-1.58,1.58C261.55,49.79,266.62,53.24,271,52.72Z" fill="#e0dfe6"/><path d="M313.66,11c3.1-3-.84-7.67-4.48-5.8-2,1.05-3.15,2.77-4.56,4.5a5.42,5.42,0,0,1-1.7,1.64c-.16.07-.89.28-.81.11.8-1.67-.92-3.87-2.73-2.72-4,2.53-2,8.22,2.19,9.15C306.91,19,310.31,14.22,313.66,11Z" fill="#e0dfe6"/><path d="M196,91.11c-5.28.2-10.55.63-15.83.89s-10.67.14-15.76,1.44c-1.7.43-1.36,2.56,0,3.13,9.32,3.85,21.66,3.66,31.59,3.33C201.64,99.71,201.66,90.89,196,91.11Z" fill="#e0dfe6"/><path d="M231.19,86.87a1.88,1.88,0,0,0,.49-2.46,20.62,20.62,0,0,0-1.85-2.21A1.84,1.84,0,0,0,227,84.43a21.47,21.47,0,0,0,1.73,2.29A1.89,1.89,0,0,0,231.19,86.87Z" fill="#e0dfe6"/><path d="M245.37,94.4c-1.38-15.92-4-31.93-6.65-47.67-.33-1.94-3.21-1.36-3.3.45-.73,15.62-.74,31.65,1,47.22C237,100.05,245.88,100.21,245.37,94.4Z" fill="#e0dfe6"/><path d="M262.18,110.86c-.27-1.56-2.74-1.17-2.73.37.05,5.08.54,10.44,0,15.5-.47,4.09-1.79,4.4-5.25,5.17a9.11,9.11,0,0,0-4.38,1.69,11.35,11.35,0,0,0-3.47,6.37c-.23-3-.55-6-.89-9,2.17,1.53,6-.14,6.35-3.29.55-5.28-.8-11.25-1.62-16.49-.52-3.3-.33-8-3.69-9.79a1.31,1.31,0,0,0-1.89,1.46c.46,3.41-.3,7.26-.66,10.84-.19-2.71-.44-5.4-.89-8-.2-1.17-1.88-1-2.18,0-2.71,8.91-1.23,19.41-1.13,28.61,0,3.35.83,19.51-1.88,26.44a4.38,4.38,0,0,0-1,1.5,6.27,6.27,0,0,1-.51,1,2.45,2.45,0,0,1-1.74.72,3.55,3.55,0,0,0-3.72,2.87,41.25,41.25,0,0,1-5.43,1.23A114.54,114.54,0,0,1,209,169.4c-11.62.36-23.24.27-34.86.23-11.35,0-22.69,0-34,.27-10.69.26-23-.82-29-11.11-.49-.85-2-.27-1.64.7,3.89,9.77,13.42,14.14,23.32,15.54a162.75,162.75,0,0,0,18.52,1.39l-1.8.19a1.4,1.4,0,0,0-.37,2.73c6.73,2,14,2.7,21,3.63,7.68,1,15.41,1.88,23.15,2.25,15.11.74,30-1.91,44.8-4.63,4.53-.84,2.59-7.67-1.9-6.9l-2.12.36a20.08,20.08,0,0,0,6.06-3.51c3-1.89,4.67-5.59,5.55-9.73-1,8.91-5,17.26-4.38,26.3.36,5.27,1.2,10.39,1,15.69-.19,4.25-.1,13.53-5.43,14.48a3.23,3.23,0,0,0-2.64,3.86c-9.55,7.11-21.94,6.86-33.71,7.3a480.27,480.27,0,0,1-48.74-.78,1.47,1.47,0,0,0-.39,2.88,256.28,256.28,0,0,0,54.88,5.7c12.37-.08,28.74-.61,36.59-11.79,6.21-2.68,7.68-13.87,8.16-19.88.49-6.27-.63-12.21-.92-18.43-.31-6.72,2.86-12.67,3.9-19.2.92-5.82.6-11.58.41-17.44-.07-2.45-.82-6.49.15-8.77.88-2.11,3.38-1.61,5.29-2.56C269.27,133.52,263.47,118.4,262.18,110.86Zm-69.79,66.82c-5.67-.2-11.43-.69-17.22-1.09,11.59.15,23.32.9,35,.61A153.84,153.84,0,0,1,192.39,177.68Z" fill="#e0dfe6"/><path d="M203.6,199.43c4.4-1.44,1.81-8-2.5-5.92-1.84.87-3.35,2.46-5.22,3.21-1.44.58-2.45.14-3.85-.14a1.26,1.26,0,0,0-1.56,1.19c-.26,2.39,2.5,3.8,4.51,4C198.12,202.17,200.74,200.37,203.6,199.43Z" fill="#e0dfe6"/><path d="M228.53,198.1c4.82.11,4.09-7.8-.9-6.68-3.15.71-6.29,1.42-9.45,2.08-2.52.53-1.89,4.39.6,4.42C222,198,225.28,198,228.53,198.1Z" fill="#e0dfe6"/><path d="M213.81,219.18c1.44,1.86,3.93,1,5.85.51,2.55-.67,5.38-1.12,7.72-2.36,3.29-1.76.94-6.5-2.44-5.79a25.09,25.09,0,0,0-5.19,2.19c-1.37.63-2.9,1.73-4.41,1.75C213.29,215.51,212.7,217.76,213.81,219.18Z" fill="#e0dfe6"/><path d="M156.11,220.32c6.17,3.52,14.41,4.22,21.38,4.92a135.38,135.38,0,0,0,24.49.41c3.62-.29,4.65-4.46,3-6.62,2.21-1.72,1.53-6.27-1.94-6-7,.48-13.94.85-20.91,1.06-3.32.1-6.65.18-10,.27-2.92.07-7.55.85-10-1.11-1.19-.95-3.28.26-2.3,1.78a7.43,7.43,0,0,0,1.89,1.94,38.23,38.23,0,0,0-4.8.18C155.39,217.29,154.5,219.41,156.11,220.32Z" fill="#e0dfe6"/><path d="M179.11,200.57c3.95-.24,4-6.41,0-6.18-4.51.27-9,.83-13.49,1-3,.08-2.87,4.27,0,4.57A85.7,85.7,0,0,0,179.11,200.57Z" fill="#e0dfe6"/><path d="M151.74,192.67c-2.55.78-4.81.88-7.13-.58-2.54-1.58-4.55,2.21-2.29,3.92a12.48,12.48,0,0,0,10.94,2.2C156.78,197.12,155.28,191.58,151.74,192.67Z" fill="#e0dfe6"/><path d="M129.7,194.7c3.48.82,4.91-4.68,1.46-5.31-1.36-.25-2.66-.11-4-.23s-2.56-.29-3.83-.43c-2.13-.24-2.39,3-.49,3.61,1.16.35,2.31.7,3.47,1.07S128.49,194.42,129.7,194.7Z" fill="#e0dfe6"/><path d="M137.89,212.19c-3.44.83-6.86,1.7-10.31,2.46-2.39.52-1.91,4.63.58,4.33,3.5-.42,7-.72,10.5-1.07C142.88,217.49,142,211.21,137.89,212.19Z" fill="#e0dfe6"/><path d="M234.59,110c3.26-3.85-2-9.34-5.62-5.63-5.48,5.61-14.45,14.61-22.78,8.12-1.55-1.22-4.15.3-2.94,2.27,3.18,5.22,7.57,6.75,12.18,6.24a66.3,66.3,0,0,1-6.58,6.51,40,40,0,0,1-13.51,7.25c-1.12.27-2.25.5-3.37.71-.13-8-.62-15.9-.58-23.88,0-2.39-3.47-2.32-3.67,0a233.73,233.73,0,0,0-1.28,24.67,63.82,63.82,0,0,1-11.14.15c-.06-.91-.15-1.83-.24-2.75,1.46,1,3.95.35,3.77-1.84l-1.56-18.35c-.2-2.47-4-2.54-3.9,0l.39,10.33c-1.17-6.85-2.79-13.67-4.5-20.22-1-3.87-7.38-4.2-8.19,0a13.81,13.81,0,0,1-6.89,10c-4.26,2.33-8.69,1.48-13.27,1.29a1.92,1.92,0,0,0-1.34,3.24c7.06,7.4,17,4.34,23.52-2,1.13,6.31,2.11,12.63,3.23,18.94a59,59,0,0,1-22.93-10.78c-1.45-1.12-3.15,1.24-1.92,2.48a58.37,58.37,0,0,0,33.92,16.75,3.61,3.61,0,0,0,3.7,3.05c11.48-.53,23.6-4.1,32.83-11.1S227.24,118.66,234.59,110Z" fill="#e0dfe6"/><path d="M177.35,103.05c-2.3-.34-3.37,3-1,3.58,6.49,1.47,13.24,2.25,19.85,1.28,2.66-.38,2-4.83-.63-4.68C189.42,103.58,183.5,104,177.35,103.05Z" fill="#e0dfe6"/><path d="M100.61,106.36c-1.85,4.48-1.32,10.56-1.59,15.34-.24,4.25,7,4.14,6.52,0-.52-4.92-.32-11.13-2.47-15.66C102.52,104.86,101,105.41,100.61,106.36Z" fill="#e0dfe6"/><path d="M169.74,160.28a1.89,1.89,0,0,0,0,3.78c5,.33,10.11.32,15.17.61s10.12,1.09,15.15,1c3.25,0,4.26-5.42.8-5.9C190.92,158.42,179.69,159.05,169.74,160.28Z" fill="#e0dfe6"/><path d="M327.63,219.91c-9.45,12.62-22.5,22.26-35.05,31.56-6,4.47-12.16,8.83-17.92,13.64-5.27,4.41-12,9.27-14.5,15.86a1.86,1.86,0,0,0,2.28,2.28c6.88-2.83,12.72-9.11,18.71-13.48,6.41-4.67,12.92-9.19,19.32-13.88q2.47-1.83,4.9-3.67c-.42,1.48-.8,3-1.13,4.5-.61,2.76-1.08,5.56-1.48,8.36-.22,1.54-.05,4.15-.36,6.07a4.05,4.05,0,0,0-1.44,5.48l.27.49a4.33,4.33,0,0,0,4.74,1.93c5.8-1.07,4-9.88,4.22-13.92a177.4,177.4,0,0,1,1.8-18.2c8.18-6.85,15.58-14.39,21.51-23.59C335.92,219.58,330.19,216.5,327.63,219.91Z" fill="#e0dfe6"/><path d="M321.21,177.37c-1.56,4.81-2.14,9.92-3.6,14.78s6.59,6.39,7.1,1c.48-5.12,1-10.72-.41-15.74A1.62,1.62,0,0,0,321.21,177.37Z" fill="#e0dfe6"/><path d="M360.38,260.55h-.26A4.11,4.11,0,0,0,356,264a9.79,9.79,0,0,1-.78.79,28.45,28.45,0,0,0-2.36,2.64,43.25,43.25,0,0,0-4.2,4.79l-.1.13-1.17-.66c-1.46-1-2.64-2.29-4.15-3.2-2-1.22-3.72.91-3.36,2.62.89,4.46,7.23,11.68,12.26,8.85,3-1.69,5.43-5,7.81-7.44s5.58-4.73,4.72-8.68A4.48,4.48,0,0,0,360.38,260.55Z" fill="#e0dfe6"/><path d="M361.11,202.65a3.6,3.6,0,0,0-.49,1,6,6,0,0,1-1.48,2.48,5,5,0,0,1-2.74,1.41c-2.15.36-3.93-.86-5.82-1.63-1.06-.44-1.94.79-1.73,1.73.87,3.84,5.51,5.74,9.11,5.59,4.55-.2,8.08-3.59,9.55-7.68C368.93,201.6,363.17,199.6,361.11,202.65Z" fill="#e0dfe6"/><path d="M398,171.16a5.38,5.38,0,0,0-4.67-2.8,6.14,6.14,0,0,0-2.08.35c-.79.26-1.42.93-2.08,1.2a4.47,4.47,0,0,0-3,4.22,6,6,0,0,1-.78-1.25c-.88-1.94-4.29-1-4.07,1.1a8.57,8.57,0,0,0,13.29,6.33C397.25,178.44,399.77,174.43,398,171.16Z" fill="#e0dfe6"/><path d="M190,270.94c-1.74-1.25-3.21-2.26-5.46-2a11.88,11.88,0,0,0-6.14,3.19,10,10,0,0,0-2.62,3,4.41,4.41,0,0,0-.72.85l-1.13-.62c-3.65-2-8.83-6.62-13.06-3.76a16.13,16.13,0,0,0-2.83,3.06c-.55.64-1.09,1.28-1.64,1.91q-.82,2.26-2.1.53c-2.7-.81-6.36-5.53-8.18-7.54a2.12,2.12,0,0,0-2.52-.33,53.18,53.18,0,0,0-11.39,9.26,1.26,1.26,0,0,0,1.52,2c3.58-2,7.16-4.3,10.56-6.66,2.87,3.46,7.28,9.12,11.27,9.27,1.67.06,2.83-1.21,3.86-2.29s2-3,3.29-3.81c1.79-1.15,2-.69,3.83.57,3.28,2.23,8.08,7.44,12.28,4.46,3-2.14,2.82-7.22,8.2-5.33,2.93,1,5.44,4.91,8.33,6.4a3,3,0,0,0,3.65-4.72C196.49,275.42,193,273.16,190,270.94Z" fill="#e0dfe6"/><path d="M391.83,131a3.4,3.4,0,0,0,.78-.36c9.79-5.8,18.17-18.14,14.79-30a1.49,1.49,0,0,0-.21-.44,24.57,24.57,0,0,0-4.39-25.09,23.18,23.18,0,0,0-14.55-7.81c-2-.28-2.44-.16-4.09-1.43-1.13-.87-2-2.16-3.16-3a15.44,15.44,0,0,0-6.35-2.79c-1.72-.37-2.95,2.06-1.25,3a12.18,12.18,0,0,1,5.5,5.12c.82,1.61,1.16,3.46,2.68,4.62a8.69,8.69,0,0,0,3.88,1.27,27,27,0,0,1,7.91,2.64c9.58,5.33,11.61,16.75,6.38,26a2.63,2.63,0,0,0,3.09,3.83c-2.21,6.37-5.42,11.87-11.22,15.74a35.19,35.19,0,0,0-.81-3.68c-.68-2.5-3.81-3-5.64-1.89-.13-1.89-.34-3.78-.51-5.66a4.47,4.47,0,0,0,3.12.6c5.76-.8,7.12-10.77,5.92-15.28A5.61,5.61,0,0,0,388.48,92a3.64,3.64,0,0,0-3.85,3.24,1.59,1.59,0,0,0,2,1.52c1.56-.5.74,2.13.56,2.93-.25,1.06-.69,3.55-1.65,4.36a4.23,4.23,0,0,0-1.26.69,48.13,48.13,0,0,0-1.19-10.27,1.58,1.58,0,0,0-3,0c-2.08,5.33-2.13,11.73-2.34,17.39-.18,4.84,1.31,15-5.47,15.86a4.94,4.94,0,0,0-4,4.61,36.8,36.8,0,0,1-38.26-3c-1.08-.75-2.09.83-1.33,1.72a36.6,36.6,0,0,0,17.64,11.26c-1.86-.18-3.72-.35-5.63-.41-1.17,0-2.06,1.7-1,2.5,5.07,3.94,12.34,4.43,18.56,4.51,6.49.08,13.83-.34,20.08-2.25C386.66,144.08,390.83,138.17,391.83,131Zm-8,3.11c-2.15,4.36-7.24,5.68-11.62,6.58l-.85.15a36.2,36.2,0,0,0,13.39-9.71A10.84,10.84,0,0,1,383.83,134.14Z" fill="#e0dfe6"/><path d="M329.25,83.22c4.08-7.8,10.84-11.55,19.1-13.64,2.76-.7,2.28-5.4-.69-5.11-9.88,1-17.91,8.48-21.59,17.41C325.32,83.7,328.35,85,329.25,83.22Z" fill="#e0dfe6"/><path d="M333.2,32.23c-3.13.47-4.67,4.05-4.59,7,.12,4.58,3.91,7.54,3.38,12.34-.52,4.61,7.48,4.82,7.34,0a15.43,15.43,0,0,0-3.05-9.12c-.88-1.18-2.11-2.32-2.58-3.73-.66-2,.19-3.45.6-5.34A.9.9,0,0,0,333.2,32.23Z" fill="#e0dfe6"/><path d="M356.12,51.23A13.61,13.61,0,0,0,355.5,41c-1.55-3.08-5.19-4.88-5.9-8.33-.4-1.94-3.52-1.5-3.45.47.17,5.5,6.21,9.64,3.37,15.31C347.17,53.14,354.56,56.23,356.12,51.23Z" fill="#e0dfe6"/><path d="M362.94,40c1.27,1.92,3.26,4.49,1.78,6.76-2.26,3.45,3.39,6.78,5.53,3.24,2.87-4.77-.08-9.49-3.41-13C364.93,34.93,361.37,37.58,362.94,40Z" fill="#e0dfe6"/><path d="M305.38,117.4a3,3,0,0,0-1.05-4l-.19-.14a2.35,2.35,0,0,0-2.19-.17c-.17-1.14-.33-2.27-.48-3.42-.36-2.69-4.53-2.89-4.38,0,.08,1.49.15,3,.21,4.46a5.29,5.29,0,0,0-.63,0,46.6,46.6,0,0,0-5.39.76c-1.89.44-2,3.67,0,4a50.28,50.28,0,0,0,6.13.47c0,.41,0,.82,0,1.23,0,4.09,6.53,3.49,5.68-.77,0-.2-.07-.39-.11-.58A3.79,3.79,0,0,0,305.38,117.4Z" fill="#e0dfe6"/><path d="M56.65,188.7c-.24-1.66-2.72-1.15-2.8.37-.19,3.7.53,40.37-2.21,40.49a3.44,3.44,0,0,0-3.36,3c-2.63,2.2-5,4.77-8.18,6.05-3.45,1.37-7.36,1.27-11,1.4-7.81.29-15.78-.43-23.55.42a1.2,1.2,0,0,0-.32,2.34c8.76,3.54,19.29,4.13,28.64,4.28,8.17.14,14.44-2.89,20-8.88a4,4,0,0,0,1.12-2.29c5.09-2.59,3.93-11.48,3.88-16.57A225.53,225.53,0,0,0,56.65,188.7Z" fill="#e0dfe6"/><path d="M42,232.3a2.13,2.13,0,0,0-2.62,2.62,2.08,2.08,0,0,0,1.49,1.48l.48.07a1.83,1.83,0,0,0,2.21-2.21c0-.16,0-.32-.07-.47A2.1,2.1,0,0,0,42,232.3Z" fill="#e0dfe6"/><path d="M66.58,63c1.8,2,3.65,4.13,5.58,6.11a1.53,1.53,0,0,0,1.08.45h.13a1.54,1.54,0,0,0,1.11-.65,130.94,130.94,0,0,1,9.51-12,1.5,1.5,0,0,0-1.09-2.5l-4.18-.09c-2.2-.05-4.49-.1-6.73-.1a82.22,82.22,0,0,0-9.78.49,1.49,1.49,0,0,0-1.24,1,1.47,1.47,0,0,0,.37,1.55C62.92,58.85,64.7,60.86,66.58,63ZM72,57.25c2.21,0,4.47,0,6.66.1l1,0c-2.38,2.81-4.72,5.76-6.57,8.33-1.44-1.54-2.86-3.14-4.23-4.7-1.11-1.25-2.17-2.45-3.2-3.56C67.54,57.31,69.62,57.25,72,57.25Z" fill="#525d7d"/><path d="M53.47,183.66a1.51,1.51,0,0,0-1.57-1.42c-10.52.47-19.94.69-28.79.69-7.49,0-14.74-.17-21.54-.5a1.46,1.46,0,0,0-1.15.46A1.52,1.52,0,0,0,0,184.07c1.56,16.9,2.4,34.1,3.2,50.74l.18,3.69A1.53,1.53,0,0,0,5,239.93c1.49-.07,3.08-.11,4.86-.11,2.26,0,4.57.06,6.8.11s4.62.11,7,.11H27c4.57,0,9.21.3,13.57.61h.1a1.48,1.48,0,0,0,1-.37,145.08,145.08,0,0,1,13.55-10.17,1.52,1.52,0,0,0,.65-1.33c-.56-9.19-1-18.53-1.5-27.57Q53.94,192.43,53.47,183.66Zm2.39,44.77a1.49,1.49,0,0,1-1.5,1.47c-1.28,0-2.56-.08-3.89-.16-2.92,2-5.88,4.23-8.75,6.59.1.88.21,1.76.3,2.64a1.49,1.49,0,0,1-1.33,1.64h-.16A1.5,1.5,0,0,1,39,239.28c-.06-.59-.14-1.18-.21-1.78C35,237.24,31,237,27,237H23.58c-2.3,0-4.63,0-6.88-.11s-4.58-.11-6.88-.11c-1.24,0-2.4,0-3.5.05l-.11-2.21c-.78-16.1-1.59-32.74-3.06-49.15,6.34.28,13.05.42,20,.42,8.48,0,17.47-.2,27.44-.63q.44,8,.84,16c.43,8.37.87,17,1.38,25.51.55,0,1.09,0,1.62.05A1.5,1.5,0,0,1,55.86,228.43Z" fill="#525d7d"/><path d="M39.42,225.53a1.5,1.5,0,0,0-1.7,1.6c.19,2.62.51,5.23.81,7.76.11.88.2,1.74.3,2.61.07.6.15,1.19.21,1.78a1.5,1.5,0,0,0,1.49,1.34h.16A1.49,1.49,0,0,0,42,239c-.09-.88-.2-1.76-.3-2.64l-.21-1.8c-.23-1.89-.46-3.83-.64-5.77,3.6.49,6.71.8,9.6,1,1.33.08,2.61.14,3.86.16a1.5,1.5,0,1,0,.06-3c-.53,0-1.07,0-1.62-.05A124.2,124.2,0,0,1,39.42,225.53Z" fill="#525d7d"/><path d="M10.88,198.13H11c9.82-.58,19.67-.87,28.36-1.13a1.5,1.5,0,0,0,1.46-1.54A1.52,1.52,0,0,0,39.24,194c-8.71.26-18.58.55-28.45,1.13a1.5,1.5,0,0,0,.09,3Z" fill="#525d7d"/><path d="M40.89,206.28a1.5,1.5,0,0,0,.17-3c-2.77-.16-5.64-.24-8.79-.24-7.24,0-14.65.42-21.19.8a1.5,1.5,0,0,0,.08,3h.09c6.5-.37,13.87-.79,21-.79C35.36,206.05,38.18,206.13,40.89,206.28Z" fill="#525d7d"/><path d="M26.9,211.19a37.52,37.52,0,0,1-12.44,0,1.5,1.5,0,1,0-.4,3,54.87,54.87,0,0,0,7.3.55,30.82,30.82,0,0,0,6.13-.56,1.5,1.5,0,0,0-.59-2.94Z" fill="#525d7d"/><path d="M42.47,212.94a1.5,1.5,0,0,0-1.5-1.5,52.51,52.51,0,0,1-6.56-.27,1.5,1.5,0,0,0-.37,3,56.12,56.12,0,0,0,6.93.29A1.5,1.5,0,0,0,42.47,212.94Z" fill="#525d7d"/><path d="M32.4,221.85c-1.35.12-2.75.18-4.28.18-2.81,0-5.54-.2-8.42-.41-1.75-.12-3.56-.25-5.37-.34a1.5,1.5,0,0,0-.14,3c1.77.08,3.56.21,5.29.34,2.81.2,5.72.41,8.64.41,1.62,0,3.11-.06,4.55-.19a1.5,1.5,0,1,0-.27-3Z" fill="#525d7d"/><path d="M36.8,78.22H34.59c-8.94,0-14.47,8.34-14.47,16.07,0,10.48,10,16.9,15.36,16.9,8.67,0,17.63-6.1,17.63-16.3C53.11,85.23,46.25,78.22,36.8,78.22Zm-1.32,30c-4.24,0-12.36-5.41-12.36-13.9,0-8.07,6-13.07,11.47-13.07H36.8c7.84,0,13.31,5.62,13.31,13.68C50.11,103.22,42.67,108.2,35.48,108.2Z" fill="#525d7d"/><path d="M36.82,92.13c0-.29,0-.58,0-.86A25.71,25.71,0,0,1,37,87.62a1.5,1.5,0,1,0-3-.43,28.91,28.91,0,0,0-.27,4.08c0,.28,0,.55,0,.83h.82C35.37,92.09,36.1,92.11,36.82,92.13Z" fill="#525d7d"/><path d="M34,95.1c.05.81.12,1.62.19,2.41s.14,1.64.2,2.46a1.5,1.5,0,0,0,1.49,1.4H36a1.49,1.49,0,0,0,1.39-1.6c-.06-.83-.13-1.67-.2-2.51S37,95.85,37,95.14c-.78,0-1.56,0-2.34,0Z" fill="#525d7d"/><path d="M42.77,92.44l-.26,0c-1.95-.12-3.82-.24-5.69-.29-.72,0-1.45,0-2.18,0h-.82a48,48,0,0,0-5.27.35,1.5,1.5,0,0,0,.18,3h.19a44.09,44.09,0,0,1,5-.32h.67c.78,0,1.56,0,2.34,0,1.74,0,3.51.16,5.34.27l.27,0a1.5,1.5,0,1,0,.18-3Z" fill="#525d7d"/><path d="M359.76,194.32c-.05.39-.12.78-.15,1.16a1.49,1.49,0,0,1-1.47,1.36,5.31,5.31,0,0,1,3.21,4.57c0,1.79-2.23,4.77-4.6,4.77-2,0-4.92-1.45-4.92-4.56a5.23,5.23,0,0,1,3-5.05,3.41,3.41,0,0,1,1.28-.28,4,4,0,0,1,1,.16,1.48,1.48,0,0,1-.49-1.24q.09-.93.24-1.86a7,7,0,0,0-.78-.06,6.21,6.21,0,0,0-2.39.5,8.08,8.08,0,0,0-4.86,7.83c0,4.67,4.11,7.56,7.92,7.56,4.41,0,7.6-4.64,7.6-7.77A8.21,8.21,0,0,0,359.76,194.32Z" fill="#525d7d"/><path d="M394.73,170.92c0-2.45-2.81-6-4.83-6.74l-.49-.19a8.84,8.84,0,0,0-3.6-.8c-4.62,0-7,4.1-7,8.16,0,5.91,4.9,8.06,8.19,8.06C389.12,179.41,394.73,177.88,394.73,170.92ZM387,176.41c-.21,0-5.19-.06-5.19-5.06,0-2.49,1.27-5.16,4-5.16a6.16,6.16,0,0,1,2.5.59l.54.2c.92.35,2.88,2.88,2.88,3.94C391.73,176.34,387,176.41,387,176.41Z" fill="#525d7d"/><path d="M350.62,255.86a1.51,1.51,0,0,0-2.19.08c-1.38,1.59-2.88,3.15-4.32,4.65-1.62,1.68-3.3,3.42-4.84,5.23a1.5,1.5,0,0,0,.22,2.16c2.48,1.93,4.91,4,7.25,6,1.13.95,2.25,1.92,3.39,2.87a1.56,1.56,0,0,0,1,.35l.24,0a1.52,1.52,0,0,0,1-.7c1.32-2.17,2.81-4.29,4.25-6.35,1-1.44,2.07-2.94,3.06-4.45a1.51,1.51,0,0,0-.32-2A114.68,114.68,0,0,1,350.62,255.86Zm3.56,12.55c-1.15,1.63-2.33,3.3-3.44,5l-2.05-1.75c-2-1.69-4-3.42-6.11-5.1,1.19-1.33,2.46-2.64,3.69-3.92s2.26-2.35,3.37-3.57c2.25,2.16,4.52,4.2,6.79,6.06C355.69,266.26,354.92,267.35,354.18,268.41Z" fill="#525d7d"/><path d="M298.44,112.65c0-.57,0-1.15,0-1.73,0-1.66,0-3-.13-4.16a1.5,1.5,0,1,0-3,.22c.08,1.13.12,2.35.12,3.94,0,.57,0,1.13,0,1.7l2.16,0Z" fill="#525d7d"/><path d="M295.43,115.62a42.88,42.88,0,0,0,.37,5.79,1.5,1.5,0,0,0,1.48,1.28h.21a1.52,1.52,0,0,0,1.28-1.7,38.45,38.45,0,0,1-.34-5.33h-.89Z" fill="#525d7d"/><path d="M304.69,115.37a1.5,1.5,0,1,0-.45-3,28.57,28.57,0,0,1-4.3.26l-1.5,0h-.84l-2.16,0h-.25a31.67,31.67,0,0,0-4.75.3,1.5,1.5,0,0,0,.22,3l.24,0a28.17,28.17,0,0,1,4.29-.27h.24l2.11,0h.89l1.51,0A30.39,30.39,0,0,0,304.69,115.37Z" fill="#525d7d"/><path d="M383.34,82.4a1.5,1.5,0,0,1,1.93-.88,1.46,1.46,0,0,1,.49.31,47.4,47.4,0,0,0-2.08-7.74,11.32,11.32,0,0,0-1.59.35A1.5,1.5,0,0,1,380.5,74a41.91,41.91,0,0,1,2.57,9.31A8.06,8.06,0,0,1,383.34,82.4Z" fill="#525d7d"/><path d="M317.81,81.71c0,27.23,4.45,44.89,13.6,54,8,7.92,18,8,26.22,8h.49c11.57,0,19.47-2.28,24.15-7,4.13-4.14,5.15-9.46,5.4-14.7-.27.08-.52.19-.79.27a1.54,1.54,0,0,1-1.86-1,1.51,1.51,0,0,1,1-1.86,15.92,15.92,0,0,0,1.68-.58v-3.25c0-8.89-.14-16.63-.65-23.31H387c-.27,0-.54,0-.8,0a1.5,1.5,0,1,1-.22-3q.4,0,.81,0c-.2-2-.44-3.84-.73-5.62-.11.35-.23.83-.37,1.38A36.59,36.59,0,0,1,384,90.48c.61,6.91.75,15.21.75,25.09v1.25c0,6.46,0,13.14-4.59,17.78-4.09,4.11-11.3,6.1-22,6.1h-.5c-8,0-17-.07-24.09-7.12-7.6-7.56-11.73-21.8-12.56-43.36a20.75,20.75,0,0,1-2-8.85,19.36,19.36,0,0,1,1.41-7.21,1.5,1.5,0,0,1,2.81,0c4.91-7.36,16-11.43,19.76-12a79.18,79.18,0,0,1,12.5-1.11c13.43,0,20.75,3.54,24.71,12.12a1.51,1.51,0,0,1,1.06-1.62c.41-.12.83-.22,1.24-.3-4.42-9.1-12.47-13.2-27-13.2a81.58,81.58,0,0,0-13,1.15A42.48,42.48,0,0,0,328.67,65C321.56,69.57,317.81,75.35,317.81,81.71Z" fill="#525d7d"/><path d="M385.76,81.83a1.46,1.46,0,0,0-.49-.31,1.5,1.5,0,0,0-1.93.88,8.06,8.06,0,0,0-.27.86c-.09.31-.17.65-.27,1-1.4,5.61-4.69,18.75-28.76,18.75C331.9,103.05,322,92.16,322,81.37a16.36,16.36,0,0,1,1.2-6.1,1.55,1.55,0,0,0,0-1.06,1.5,1.5,0,0,0-2.81,0A19.36,19.36,0,0,0,319,81.37a20.75,20.75,0,0,0,2,8.85c4.12,8.75,14.78,15.83,33.07,15.83,20.06,0,27.09-8.82,29.94-15.57A36.59,36.59,0,0,0,385.71,85c.14-.55.26-1,.37-1.38,0-.07.05-.14.07-.2A1.48,1.48,0,0,0,385.76,81.83Z" fill="#525d7d"/><path d="M350.83,99.59c17,0,27.21-6.48,27.21-17.32,0-6-3.48-10.86-10.07-14-6.8-3.18-14.57-3.52-17.6-3.52a53,53,0,0,0-7.58.56c-8.67,1.27-17.41,6.32-17.41,14.76C325.38,89.79,334.12,99.59,350.83,99.59Zm-7.61-31.26a50,50,0,0,1,7.15-.53c19.47,0,24.67,9.09,24.67,14.47,0,13.29-18.53,14.32-24.21,14.32-14.74,0-22.45-8.29-22.45-16.47C328.38,72.52,337.71,69.13,343.22,68.33Z" fill="#525d7d"/><path d="M380.18,73.18a1.11,1.11,0,0,0,.05.25,1.36,1.36,0,0,0,.27.52,1.5,1.5,0,0,0,1.59.49,11.32,11.32,0,0,1,1.59-.35A11,11,0,0,1,385.3,74c9.5,0,17.22,12.85,17.22,21.24,0,10.26-6.37,20.24-14.78,23.61a15.92,15.92,0,0,1-1.68.58,1.51,1.51,0,0,0-1,1.86,1.54,1.54,0,0,0,1.86,1c.27-.08.52-.19.79-.27,10.07-3.35,17.85-14.92,17.85-26.81,0-9.54-8.68-24.24-20.22-24.24a14.21,14.21,0,0,0-2.82.29c-.41.08-.83.18-1.24.3A1.51,1.51,0,0,0,380.18,73.18Z" fill="#525d7d"/><path d="M396.25,98.75a1.48,1.48,0,0,0,1.49,1.41h.09a1.5,1.5,0,0,0,1.41-1.59c-.36-6.11-6.42-9.31-12.22-9.31h-.21q-.4,0-.81,0a1.5,1.5,0,1,0,.22,3c.26,0,.53,0,.8,0h.06C390.63,92.28,396,94,396.25,98.75Z" fill="#525d7d"/><path d="M328.63,36.49c0,2.3,1.92,4.22,4,6.25,2.3,2.29,4.9,4.88,4.9,8.12a5.73,5.73,0,0,1-.05.82,1.51,1.51,0,0,0,1.32,1.67h.18A1.5,1.5,0,0,0,340.42,52a9.34,9.34,0,0,0,.07-1.18c0-4.48-3.2-7.68-5.78-10.24-1.52-1.51-3.08-3.07-3.08-4.13s.9-2.07,1.86-3.25c1.34-1.63,2.85-3.48,2.85-6a12.94,12.94,0,0,0-1.86-5.76,9.7,9.7,0,0,1-1.43-4,3.11,3.11,0,0,1,.84-2.06,1.5,1.5,0,0,0-2.29-1.93,6.06,6.06,0,0,0-1.55,4,11.94,11.94,0,0,0,1.76,5.34,10.38,10.38,0,0,1,1.53,4.39c0,1.43-1,2.72-2.17,4.08C329.92,32.87,328.63,34.45,328.63,36.49Z" fill="#525d7d"/><path d="M349.93,17.6a1.5,1.5,0,0,0-2.12-.1,9.64,9.64,0,0,0-3,7.27c0,5.42,2.92,8.3,5.26,10.62,1.93,1.91,3.46,3.42,3.46,6a15.35,15.35,0,0,1-.73,3.87,18.2,18.2,0,0,0-.84,4.77c0,.25,0,.51,0,.77a1.5,1.5,0,0,0,1.49,1.37h.13a1.51,1.51,0,0,0,1.37-1.63,4.35,4.35,0,0,1,0-.51,15.32,15.32,0,0,1,.73-4,17.67,17.67,0,0,0,.84-4.67c0-3.78-2.21-6-4.35-8.08s-4.37-4.32-4.37-8.49a6.68,6.68,0,0,1,2.06-5.05A1.5,1.5,0,0,0,349.93,17.6Z" fill="#525d7d"/><path d="M369,20.64A1.5,1.5,0,0,0,367.65,18C365,19.26,362,22.07,362,25.64c0,3,2,4.89,3.54,6.44,1.23,1.2,2.29,2.24,2.29,3.46A8.2,8.2,0,0,1,366.42,39a11.62,11.62,0,0,0-1.94,5.58,6.54,6.54,0,0,0,.83,3.16,1.51,1.51,0,0,0,1.32.79,1.4,1.4,0,0,0,.71-.19,1.49,1.49,0,0,0,.6-2,3.59,3.59,0,0,1-.46-1.73A9,9,0,0,1,369,40.44a10.41,10.41,0,0,0,1.75-4.9c0-2.48-1.69-4.14-3.19-5.61S365,27.35,365,25.64C365,23.58,367,21.64,369,20.64Z" fill="#525d7d"/><path d="M57.42,149c-1.12-1.64-2.27-3.34-3.46-5a1.58,1.58,0,0,0-1-.61,1.5,1.5,0,0,0-1.15.34c-3.87,3.2-7.59,6.46-10.71,9.22a1.5,1.5,0,0,0-.15,2.1c2.93,3.45,5.88,6.93,8.81,10.43a1.51,1.51,0,0,0,1.15.53,1.49,1.49,0,0,0,1.15-.53,117.18,117.18,0,0,1,8.9-9.25,1.5,1.5,0,0,0,.18-2C59.85,152.54,58.62,150.74,57.42,149ZM50.89,162.2q-3.36-4-6.73-8c2.51-2.22,5.35-4.69,8.3-7.16.84,1.2,1.67,2.42,2.49,3.61,1,1.41,1.95,2.87,3,4.29C55.48,157.33,53.11,159.68,50.89,162.2Z" fill="#525d7d"/><path d="M80,219.66a1.5,1.5,0,0,1,1.76,1.18c.08.38.16.75.25,1.13a7.85,7.85,0,0,0,4.2-7.19c0-4.84-4.63-10-9-10-.32,0-.62,0-.93,0s-.56,0-.88,0l-.23,0c-.24,0-.49-.05-.73-.05-2.23,0-7,4.51-7,9.53,0,5.69,6.52,8.67,10,8.67a11,11,0,0,0,1.65-.12c-.11-.49-.22-1-.32-1.48A1.49,1.49,0,0,1,80,219.66Zm-9.52-5.31c0-3.35,3.11-6.18,4.07-6.52l.31,0c.21,0,.4,0,.55,0,.39,0,.74,0,1.07-.05s.49,0,.74,0c2.5,0,6,3.51,6,7C83.2,218,81,220,77.48,220,75.07,220,70.47,217.81,70.47,214.35Z" fill="#525d7d"/><path d="M116.36,252c-17.43,0-30.2-11.21-34.36-30-.09-.38-.17-.75-.25-1.13a1.5,1.5,0,1,0-2.94.58c.1.5.21,1,.32,1.48C83.68,243,97.53,255,116.42,255h.13c.36-.34.73-.7,1.11-1C117.18,253.27,116.76,252.62,116.36,252Z" fill="#525d7d"/><path d="M116.33,243.27a1.5,1.5,0,0,0-3,.2,19.11,19.11,0,0,0,3,8.49c.4.66.82,1.31,1.3,2-.38.32-.75.68-1.11,1a29.19,29.19,0,0,0-5.07,6.47,1.5,1.5,0,0,0,2.59,1.51,24.82,24.82,0,0,1,6.55-7.51,1.54,1.54,0,0,0,.6-1,1.53,1.53,0,0,0-.3-1.13C118.07,249.61,116.52,246.23,116.33,243.27Z" fill="#525d7d"/><path d="M196.22,276a106,106,0,0,1-8.57-7.84,1.5,1.5,0,0,0-2-.18c-1.58,1.17-3.29,2.24-4.94,3.27-1.87,1.17-3.8,2.37-5.62,3.76a41.77,41.77,0,0,1-8.77-7,1.51,1.51,0,0,0-1.84-.23,124.11,124.11,0,0,0-10.88,7.26c-2.24-2.06-4.33-4.36-6.36-6.59l-1-1.16a1.49,1.49,0,0,0-1.83-.3,61.8,61.8,0,0,0-12.09,9.08,1.5,1.5,0,0,0,2,2.21,61.81,61.81,0,0,1,10.48-8.08l.24.27a95,95,0,0,0,7.52,7.65,1.51,1.51,0,0,0,1.91.05A113,113,0,0,1,165.05,271a42.1,42.1,0,0,0,9.49,7.12,1.5,1.5,0,0,0,1.66-.15,60.89,60.89,0,0,1,6.12-4.18c1.34-.84,2.72-1.7,4.06-2.63,2.5,2.54,5.24,4.87,7.9,7.13l1.68,1.43a1.5,1.5,0,0,0,1.95-2.28Z" fill="#525d7d"/><path d="M220.54,128.06c0,.73,0,1.47.09,2.19,8.91-8.82,15.86-19.66,18.47-29.49a10.18,10.18,0,0,0-2.94-.59c-2.25,8.37-7.86,17.67-15.54,25.84C220.57,126.7,220.54,127.38,220.54,128.06Z" fill="#525d7d"/><path d="M241.72,100.36a1.48,1.48,0,0,1-.79.71,5.24,5.24,0,0,1,1.7,3.44q.26,3.18.53,6.36c.54,6.44,1.09,13,1.45,19.6a1.67,1.67,0,0,1,.63-.1l1.35.09,1,.06c-.37-6.7-.92-13.37-1.47-19.9q-.27-3.18-.53-6.36a8.27,8.27,0,0,0-.22-1.32l-1.61.17a1.5,1.5,0,0,1-.33-3l.59-.07a8.25,8.25,0,0,0-5.72-3.32,1.46,1.46,0,0,0-1.29.5,11.68,11.68,0,0,1,4,1.1A1.51,1.51,0,0,1,241.72,100.36Z" fill="#525d7d"/><path d="M112,170a1.51,1.51,0,0,1,1.6,1.4c0,.36.06.71.08,1.08a13.1,13.1,0,0,0,3.33,1.2c16.23,3.38,30.72,4.88,73.72,4.88,19.24,0,33.82-1.32,47.27-4.29a11.45,11.45,0,0,0,2.27-.77c0-.55,0-1.09,0-1.63a1.49,1.49,0,0,1,1.47-1.53,1.52,1.52,0,0,1,1.49,1.2,11.37,11.37,0,0,0,3.58-6.7c.34-2.28.6-4.72.8-7.35l-1.68-.36a1.5,1.5,0,1,1,.62-2.94l1.26.27c.16-3.09.25-6.41.25-10s-.11-7.29-.27-10.93l-1.38-.09-1.33-.08-.3-.05c.17,3.72.28,7.44.28,11.15a137.17,137.17,0,0,1-1.22,20,8.44,8.44,0,0,1-6.47,6.94c-13.24,2.92-27.62,4.22-46.63,4.22-42.74,0-57.09-1.48-73.11-4.82a9.8,9.8,0,0,1-7.6-7.62,162,162,0,0,1-3.25-32.63c0-1.4,0-2.82.08-4.23a1.48,1.48,0,0,1-1.66.46,7.72,7.72,0,0,0-1.34-.34c0,1.37-.08,2.75-.08,4.11a165.23,165.23,0,0,0,3.31,33.24,12.77,12.77,0,0,0,3.87,6.82A1.47,1.47,0,0,1,112,170Z" fill="#525d7d"/><path d="M108.82,104.07a1.33,1.33,0,0,1-.09.49,4.88,4.88,0,0,1,4.19-3.27c2.24-.19,4.71-.38,7.22-.57C129,129.88,154,147.94,185.6,147.94c11,0,23-6.55,33-15.75a1.47,1.47,0,0,1-.91-1.23c-.06-.61-.09-1.23-.12-1.86a74.8,74.8,0,0,1-7.72,6.47c0,.71,0,1.42,0,2.13a1.5,1.5,0,0,1-1.45,1.55h-.05a1.49,1.49,0,0,1-1.5-1.44c0-.07,0-.14,0-.21a50.33,50.33,0,0,1-11.38,5.6,1.45,1.45,0,0,1-1.15.58l-.21,0a2.14,2.14,0,0,1-.27-.06,30.4,30.4,0,0,1-8.27,1.24,75.19,75.19,0,0,1-9.71-.63,1.49,1.49,0,0,1-1.11.54,1.5,1.5,0,0,1-1.41-.91c-2-.32-3.93-.73-5.83-1.21l.09.51a1.51,1.51,0,0,1-1.25,1.72h-.24a1.5,1.5,0,0,1-1.48-1.26c-.1-.63-.21-1.25-.32-1.88a64.74,64.74,0,0,1-9.32-3.68c0,.13.09.25.13.38a1.51,1.51,0,0,1-1,1.89,1.77,1.77,0,0,1-.46.07,1.49,1.49,0,0,1-1.42-1.05c-.37-1.14-.8-2.28-1.25-3.42-13.13-7.66-23-20-27.87-35.66l-1.32.13h-.19a1.49,1.49,0,0,1-.61-2.86l-8.38.66a7.89,7.89,0,0,0-6.36,4.28h1A1.5,1.5,0,0,1,108.82,104.07Z" fill="#525d7d"/><path d="M108.69,104.68a1.5,1.5,0,0,1-1.37.89c-.61,0-1.23,0-1.85,0-.8,5.94-1.32,11.9-1.55,17.78a11.41,11.41,0,0,1,2.27.53,1.5,1.5,0,0,1,.68.5,188.54,188.54,0,0,1,1.64-19A5.19,5.19,0,0,1,108.69,104.68Z" fill="#525d7d"/><path d="M131.37,97.35c0-6.5,5.5-12.19,11.74-12.19h.44c4.42.19,7.81.58,11.14,1.94,3.71,1.52,6,5.24,6,9.71,0,7.83-7.5,15.24-15.44,15.24-7.31,0-12.9-6.53-13.77-13a1.52,1.52,0,0,1-1.09.71c-.6.07-1.21.12-1.83.17a18,18,0,0,0,11.79,14.2,1.49,1.49,0,0,1,2.85-.75c.24.51.49,1,.74,1.55a11.66,11.66,0,0,0,1.31.08,17.08,17.08,0,0,0,6.26-1.24,1.5,1.5,0,0,1,2.42-1.76l.33.41a19.44,19.44,0,0,0,9.07-12.3H163a1.5,1.5,0,0,1,0-3h.63c0-.12,0-.23,0-.35,0-5.71-3-10.49-7.89-12.49a35.73,35.73,0,0,0-12.13-2.16,14.26,14.26,0,0,0-10.42,4.12c0,.44,0,.88.08,1.33A1.49,1.49,0,0,1,132,89.21,1.52,1.52,0,0,1,131,89a15.15,15.15,0,0,0-2.63,8c.56,0,1.12-.09,1.65-.16A1.51,1.51,0,0,1,131.37,97.35Z" fill="#525d7d"/><path d="M214.78,80.26a15.6,15.6,0,0,0-7.08,1.55c-5.26,2.62-8.52,8.33-8.52,14.9,0,.46,0,.93.07,1.39.62,0,1.25.05,1.87.09a1.49,1.49,0,0,1,1.28.87,13.35,13.35,0,0,1-.22-2.35c0-5.34,2.69-10.14,6.86-12.22a12.77,12.77,0,0,1,5.74-1.23c9.78,0,15.06,6.59,15.06,12.79,0,7.47-7.56,15.08-15,15.08-6.19,0-11-5.53-12.32-11.39a1.51,1.51,0,0,1-1.5,1.45H201l-1.16-.05a18.9,18.9,0,0,0,1.37,3.57,1.58,1.58,0,0,1,.42.09,1.49,1.49,0,0,1,.84,1.95s0,.05,0,.08a16.32,16.32,0,0,0,8.75,6.76c.16-.39.31-.79.49-1.17a1.5,1.5,0,1,1,2.73,1.24c-.07.14-.12.29-.19.44.23,0,.44,0,.67,0a15.64,15.64,0,0,0,6.44-1.46c.53-1.07,1.09-2.12,1.72-3.16a1.5,1.5,0,0,1,2.72.37,20,20,0,0,0,6.49-9.73h-.75a1.5,1.5,0,0,1,0-3l1.22,0c-.1-1.47-.18-2.93-.27-4.39C230.89,86.23,224.82,80.26,214.78,80.26Z" fill="#525d7d"/><path d="M145.36,106c3.45,0,7.3-2.82,7.3-6.58A7.57,7.57,0,0,0,145.23,92a5.84,5.84,0,0,0-2.46.56,7.82,7.82,0,0,0-4,6.83A6.74,6.74,0,0,0,145.36,106Zm-1.25-10.8a2.71,2.71,0,0,1,1.12-.25,4.6,4.6,0,0,1,4.43,4.47c0,2.07-2.57,3.58-4.3,3.58a3.74,3.74,0,0,1-3.63-3.66A4.84,4.84,0,0,1,144.11,95.2Z" fill="#525d7d"/><path d="M212.54,102.87a7.16,7.16,0,0,0,6.75-7c0-4-3.68-7-6.07-7h-.33a7.12,7.12,0,0,0-6.62,7.29C206.27,100.18,208.79,102.87,212.54,102.87Zm.58-11h.1a4.5,4.5,0,0,1,3.07,4,4.2,4.2,0,0,1-3.75,4c-2.08,0-3.27-1.34-3.27-3.69A4.13,4.13,0,0,1,213.12,91.88Z" fill="#525d7d"/><path d="M214.39,226.53a1.5,1.5,0,0,1,2.12.09c.71.77,1.41,1.55,2.11,2.32q6.36-.42,11.38-1.11a12.69,12.69,0,0,0,10.94-11.46c1.19-12.91,2.35-26.65,2.35-40.29,0-1.41,0-2.83,0-4.24a1.17,1.17,0,0,0,0-.27,1.52,1.52,0,0,0-1.49-1.2,1.49,1.49,0,0,0-1.47,1.53c0,.54,0,1.08,0,1.63,0,.85,0,1.7,0,2.55,0,13.51-1.16,27.18-2.34,40a9.7,9.7,0,0,1-8.36,8.76c-8.37,1.15-19.69,1.74-33.65,1.74-32.5,0-46.89-1.16-70-5.66a8.13,8.13,0,0,1-6.39-6.22,284.07,284.07,0,0,1-5.89-42.21c0-.37,0-.72-.08-1.08A1.51,1.51,0,0,0,112,170a1.47,1.47,0,0,0-1,.55,1.44,1.44,0,0,0-.34,1,288.23,288.23,0,0,0,6,43.74,11.11,11.11,0,0,0,8.74,8.51c23.33,4.54,37.84,5.72,70.57,5.72,6.93,0,13.22-.14,18.83-.43l-.47-.52A1.5,1.5,0,0,1,214.39,226.53Z" fill="#525d7d"/><path d="M120.18,99.19a1.51,1.51,0,0,0,1.49,1.31h.19l1.32-.13c.94-.08,1.9-.15,2.86-.2l2.54-.18c.62,0,1.23-.1,1.83-.17a1.52,1.52,0,0,0,1.09-.71,1.47,1.47,0,0,0,.21-1,1.46,1.46,0,0,0-.34-.78,1.51,1.51,0,0,0-1.33-.52c-.53.07-1.09.11-1.65.16-.84.07-1.69.12-2.53.17-1.45.09-3,.18-4.37.35a1.44,1.44,0,0,0-.43.13A1.51,1.51,0,0,0,120.18,99.19Z" fill="#525d7d"/><path d="M170.48,99.9a1.49,1.49,0,0,1,1.17.45l4,.08,7.16.13a1.51,1.51,0,0,1,1.27-1,1.49,1.49,0,0,1,1.58,1.07c4.69.11,9.41.26,14.09.5l1.16.05H201a1.51,1.51,0,0,0,1.5-1.42,1.76,1.76,0,0,0-.14-.71,1.49,1.49,0,0,0-1.28-.87c-.62,0-1.25-.06-1.87-.09-7.86-.38-15.79-.53-23.49-.67-4-.08-8-.15-12.07-.26h-.58a1.51,1.51,0,0,0-1.54,1.46,1.49,1.49,0,0,0,1.45,1.54h.33l6.22.14A1.48,1.48,0,0,1,170.48,99.9Z" fill="#525d7d"/><path d="M234.29,98.52h-.1a1.49,1.49,0,0,1-1.49-1.38l-1.22,0a1.5,1.5,0,0,0,0,3h1.58l1.49,0c.53,0,1.07,0,1.61,0a10.18,10.18,0,0,1,2.94.59,6.65,6.65,0,0,1,.61.27,1.44,1.44,0,0,0,.67.16,1.51,1.51,0,0,0,.55-.12,1.48,1.48,0,0,0,.79-.71,1.51,1.51,0,0,0-.67-2,11.68,11.68,0,0,0-4-1.1c-.45,0-.91-.08-1.36-.1A1.5,1.5,0,0,1,234.29,98.52Z" fill="#525d7d"/><path d="M144,115c-.25-.51-.5-1-.74-1.55a1.49,1.49,0,0,0-2.85.75,1.46,1.46,0,0,0,.12.5c1.39,3,3,6.1,4.59,9.06a128.51,128.51,0,0,1,6,12.28c.45,1.14.88,2.28,1.25,3.42a1.49,1.49,0,0,0,1.42,1.05,1.77,1.77,0,0,0,.46-.07,1.51,1.51,0,0,0,1-1.89c0-.13-.09-.25-.13-.38a104.5,104.5,0,0,0-7.29-15.82C146.45,119.92,145.14,117.44,144,115Z" fill="#525d7d"/><path d="M154,112.06a1.5,1.5,0,0,0-2.42,1.76l.12.17a60.91,60.91,0,0,1,12.69,27.84c.11.63.22,1.25.32,1.88a1.5,1.5,0,0,0,1.48,1.26h.24a1.51,1.51,0,0,0,1.25-1.72l-.09-.51a64.53,64.53,0,0,0-13.26-30.26Z" fill="#525d7d"/><path d="M174,118.79c-.73-5.73-1.47-11.66-1.9-17.5a1.46,1.46,0,0,0-.44-.94,1.46,1.46,0,0,0-2.08,0,1.47,1.47,0,0,0-.47,1.2c.43,5.91,1.18,11.88,1.91,17.66a241.07,241.07,0,0,1,2.23,24.22,1.43,1.43,0,0,0,.13.55,1.49,1.49,0,0,0,1.37.91,1.51,1.51,0,0,0,1.5-1.53A245.08,245.08,0,0,0,174,118.79Z" fill="#525d7d"/><path d="M184.13,99.56a1.51,1.51,0,0,0-1.35,1.64c.81,8.3.88,16.85.94,25.11,0,5.63.09,11.44.37,17.14a1.49,1.49,0,0,0,1.49,1.42h.08a1.5,1.5,0,0,0,1.42-1.57c-.27-5.63-.32-11.42-.36-17-.06-8.33-.13-17-.95-25.38a1.27,1.27,0,0,0-.06-.28A1.49,1.49,0,0,0,184.13,99.56Z" fill="#525d7d"/><path d="M196.93,133.79c1.07-9.13,2.18-18.57,5.48-27,0,0,0-.06,0-.08a1.49,1.49,0,0,0-.84-1.95,1.58,1.58,0,0,0-.42-.09,1.49,1.49,0,0,0-1.53.94c-3.46,8.78-4.59,18.45-5.69,27.8-.34,2.85-.68,5.79-1.09,8.62a1.52,1.52,0,0,0,1,1.64,2.14,2.14,0,0,0,.27.06l.21,0a1.45,1.45,0,0,0,1.15-.58,1.41,1.41,0,0,0,.33-.71C196.24,139.62,196.59,136.65,196.93,133.79Z" fill="#525d7d"/><path d="M214.19,114.09c.07-.15.12-.3.19-.44a1.5,1.5,0,1,0-2.73-1.24c-.18.38-.33.78-.49,1.17a56.18,56.18,0,0,0-4.32,21.85c0,.72,0,1.45,0,2.17,0,.07,0,.14,0,.21a1.49,1.49,0,0,0,1.5,1.44h.05a1.5,1.5,0,0,0,1.45-1.55c0-.71,0-1.42,0-2.13v-.14A53.14,53.14,0,0,1,214.19,114.09Z" fill="#525d7d"/><path d="M219.31,132.31a1.5,1.5,0,0,0,1.35-1.64l0-.42c0-.72-.09-1.46-.09-2.19s0-1.36.08-2a33.42,33.42,0,0,1,5-14.94,1.5,1.5,0,0,0-.5-2.06,1.5,1.5,0,0,0-2.06.5c-.63,1-1.19,2.09-1.72,3.16a34.81,34.81,0,0,0-3.76,15.39c0,.35,0,.7,0,1,0,.63.06,1.25.12,1.86a1.47,1.47,0,0,0,.91,1.23,1.41,1.41,0,0,0,.58.13Z" fill="#525d7d"/><path d="M203.68,158.06l-1.78.12c-5.61.37-11.42.77-17.11.77-10.7,0-19-1.45-26.26-4.54a1.5,1.5,0,0,0-1.19,2.76c7.61,3.26,16.33,4.78,27.45,4.78,5.79,0,11.65-.4,17.31-.78l1.77-.12a1.5,1.5,0,1,0-.19-3Z" fill="#525d7d"/><path d="M131.48,194.34H132a1.55,1.55,0,0,0,1.09-.48,1.49,1.49,0,0,0,.4-1.12c-.12-1.75-.14-3.47-.14-4.92,0-.63,0-1.25,0-1.88s0-1.27,0-1.91v-1a1.52,1.52,0,0,0-1.19-1.46c-3.21-.69-7.19-1.84-8.83-2.82a1.49,1.49,0,0,0-1.51,0A1.51,1.51,0,0,0,121,180l0,3.68a63.92,63.92,0,0,0,.51,9.1,1.5,1.5,0,0,0,1.44,1.28l2.84.1C127.66,194.26,129.58,194.34,131.48,194.34ZM124,183.71v-1.34a53.52,53.52,0,0,0,6.3,1.86c0,.56,0,1.13,0,1.69s0,1.27,0,1.9c0,1.06,0,2.25.06,3.51-1.48,0-3-.08-4.45-.14l-1.58-.06A68.76,68.76,0,0,1,124,183.71Z" fill="#525d7d"/><path d="M155.23,194.88V184.24a1.5,1.5,0,0,0-1.43-1.5c-1.38-.06-2.81-.2-4.19-.34-1.92-.19-3.9-.39-5.87-.39h-.45a1.5,1.5,0,0,0-1.44,1.2,20.9,20.9,0,0,0-.39,4.24c0,1.31.09,2.63.17,3.9,0,.7.09,1.4.12,2.09a1.5,1.5,0,0,0,1.25,1.42l2.44.43a54.92,54.92,0,0,0,8.25,1.08,1.5,1.5,0,0,0,1.55-1.49ZM146,192.34l-1.3-.23-.06-1c-.08-1.23-.16-2.49-.16-3.71a20,20,0,0,1,.13-2.43c1.56,0,3.16.21,4.72.36,1,.1,1.94.2,2.92.27v7.63C150.18,193.11,148.12,192.73,146,192.34Z" fill="#525d7d"/><path d="M165.71,196.79a1.46,1.46,0,0,0,1.08.42c.94,0,1.88,0,2.82,0,3.27,0,7,.29,8.46.42h.13a1.5,1.5,0,0,0,1.47-1.8,48.64,48.64,0,0,1-.74-7.3c-.07-1.37-.15-2.79-.28-4.19a1.5,1.5,0,0,0-1.52-1.36c-1.32,0-2.63,0-3.94,0l-2.76,0c-1.67,0-3,.05-4.32.17a1.51,1.51,0,0,0-1.35,1.63c.29,3.24.45,6.74.49,11A1.52,1.52,0,0,0,165.71,196.79Zm7.43-10.87,2.64,0c.06.9.11,1.81.16,2.7.09,1.9.2,3.86.46,5.8-1.92-.14-4.44-.28-6.79-.28h-1.38c0-3.07-.17-5.74-.35-8.24C169.39,185.87,171.29,185.88,173.14,185.92Z" fill="#525d7d"/><path d="M204.79,186.76c0-.88,0-1.77,0-2.65a1.48,1.48,0,0,0-.48-1.07,1.5,1.5,0,0,0-1.1-.4c-1.74.1-3.59.15-5.83.15-1.56,0-3.12,0-4.68,0l-2.25,0a1.67,1.67,0,0,0-1.08.44,1.52,1.52,0,0,0-.44,1.07c0,6.67.36,9.93,2.14,11.66,1.23,1.2,2.84,1.42,5.07,1.42l1.85,0c1.72,0,3.92,0,6-.09a1.49,1.49,0,0,0,1.43-1.82A39.9,39.9,0,0,1,204.79,186.76Zm-6.89,7.51c-2.48.06-4.11.09-4.76-.54-.88-.86-1.15-3.68-1.21-8h.71c1.57,0,3.15,0,4.72,0s3.09,0,4.43-.08v1a52.31,52.31,0,0,0,.38,7.46C200.65,194.24,199.14,194.24,197.9,194.27Z" fill="#525d7d"/><path d="M229.56,192.15a86,86,0,0,1-1-9.72,1.51,1.51,0,0,0-.56-1.13,1.48,1.48,0,0,0-1.23-.3c-3.87.76-7.8,1.45-11.68,2a1.5,1.5,0,0,0-1.26,1.68c.21,1.59.38,3.25.55,4.86s.35,3.4.57,5.1a1.51,1.51,0,0,0,1.49,1.3h.14c2.49-.24,5.06-.32,7.55-.39,1.41-.05,2.82-.09,4.22-.16a1.5,1.5,0,0,0,1.41-1.71Zm-5.52.44c-2.06.06-4.17.13-6.28.28-.14-1.2-.27-2.41-.39-3.59s-.24-2.33-.37-3.5c2.87-.45,5.77-1,8.65-1.51.16,2.78.55,5.54.93,8.23Z" fill="#525d7d"/><path d="M204.08,216.59a125.46,125.46,0,0,1-1-12.82,1.55,1.55,0,0,0-.45-1.06,1.58,1.58,0,0,0-1.07-.43c-16.52.19-32.46,1-45.87,1.82a1.51,1.51,0,0,0-1.41,1.53c0,1.48,0,3,0,4.45,0,2.31,0,4.69.11,7a1.49,1.49,0,0,0,1.42,1.45l4.45.23c10.92.57,22.21,1.16,33.31,1.16,3.24,0,6.25-.05,9.2-.15a1.48,1.48,0,0,0,1.09-.52,1.52,1.52,0,0,0,.36-1.14Zm-10.47.38c-11,0-22.27-.59-33.15-1.16l-3.07-.16c0-1.87,0-3.75-.07-5.59,0-1,0-2,0-3.05,12.66-.74,27.47-1.5,42.81-1.71.12,3.94.56,7.81,1,11.57C198.69,216.93,196.23,217,193.61,217Z" fill="#525d7d"/><path d="M228.64,204a1.49,1.49,0,0,0-.55-1.09,1.45,1.45,0,0,0-1.17-.32,73.33,73.33,0,0,1-10.51.58h-1a1.5,1.5,0,0,0-1.09.46,1.52,1.52,0,0,0-.41,1.11A61.09,61.09,0,0,0,215.34,216a1.51,1.51,0,0,0,1.46,1.16h.14c4.06-.39,8-.69,11.37-.93a1.48,1.48,0,0,0,1.08-.58,1.54,1.54,0,0,0,.29-1.19A75.31,75.31,0,0,1,228.64,204ZM218,214a59.25,59.25,0,0,1-1-7.89,80.76,80.76,0,0,0,8.71-.41c.13,2.48.33,5.05.72,7.61C223.85,213.53,221,213.76,218,214Z" fill="#525d7d"/><path d="M139.93,203.34a1.55,1.55,0,0,0-.43-1.14,1.5,1.5,0,0,0-1.14-.44c-1.5.06-3,0-4.5,0-1,0-1.94-.06-2.91-.06a29.9,29.9,0,0,0-4.41.28,1.48,1.48,0,0,0-1.28,1.53c0,.82,0,1.64,0,2.46a61.68,61.68,0,0,0,.47,7.71,1.5,1.5,0,0,0,1.48,1.29h.08c3.49-.18,7.38-.22,11.2-.15a1.42,1.42,0,0,0,1.11-.46,1.51,1.51,0,0,0,.41-1.14c-.15-2.26-.23-4.3-.23-6.26C139.83,205.69,139.86,204.48,139.93,203.34Zm-11.35,8.55c-.2-2-.23-3.94-.27-6,0-.37,0-.74,0-1.11a54.42,54.42,0,0,1,5.48-.05c1,0,2.06.06,3.09.06,0,.7,0,1.42,0,2.15,0,1.54,0,3.14.14,4.84C134.11,211.75,131.25,211.78,128.58,211.89Z" fill="#525d7d"/><path d="M105.69,126.84a1.51,1.51,0,0,0,1.15-.55,1.43,1.43,0,0,0,.26-.45,1.52,1.52,0,0,0-.91-1.92,11.41,11.41,0,0,0-2.27-.53,15.83,15.83,0,0,0-2-.13c-.93,0-1.85.07-2.75.13a25.14,25.14,0,0,1-3.64.07c0-1.15,0-2.31,0-3.46q0-3.42,0-6.84c0-2.28,0-4.57,0-6.86v-.68c1.07.07,2.21.11,3.51.11s2.81,0,4.21-.08l2.19,0c.62,0,1.24,0,1.85,0a1.5,1.5,0,0,0,1.37-.89.56.56,0,0,0,0-.12,1.33,1.33,0,0,0,.09-.49,1.5,1.5,0,0,0-1.5-1.5h-1l-3.12.07c-1.37,0-2.76.08-4.13.08a45.73,45.73,0,0,1-4.85-.23,1.48,1.48,0,0,0-1.17.38,1.44,1.44,0,0,0-.49,1.12v2.3q0,3.42,0,6.84c0,2.29,0,4.57,0,6.86,0,1.59,0,3.19,0,4.78a1.51,1.51,0,0,0,1.18,1.45,13.72,13.72,0,0,0,2.92.28c.92,0,1.84-.07,2.73-.13s1.71-.12,2.54-.12a11.5,11.5,0,0,1,1.94.15,7.72,7.72,0,0,1,1.34.34A1.52,1.52,0,0,0,105.69,126.84Z" fill="#525d7d"/><path d="M242.14,101.78a1.5,1.5,0,0,0,1.65,1.33l1.61-.17c1.2-.12,2.45-.22,3.69-.22,7.08,0,9.53,1,9.53,19.51,0,6.46,0,8.41-8,8.41-1,0-2,0-3-.12l-1-.06-1.35-.09a1.67,1.67,0,0,0-.63.1,1.5,1.5,0,0,0,.15,2.85l.3.05,1.33.08,1.38.09c.95.05,1.91.1,2.9.1,10.05,0,10.9-4,11-10.66a1.52,1.52,0,0,1-1.31-.71,1.49,1.49,0,0,1,.48-2.06c.28-.18.55-.34.81-.49a67.74,67.74,0,0,0-.75-10.32c-.13.13-.25.28-.39.41a1.5,1.5,0,1,1-2-2.2,10.74,10.74,0,0,0,1.52-1.78c-1.71-4.7-5-6.11-10.85-6.11a48.55,48.55,0,0,0-5,.34l-.59.07A1.49,1.49,0,0,0,242.14,101.78Z" fill="#525d7d"/><path d="M258.34,109.73a1.51,1.51,0,0,0,2.12.08c.14-.13.26-.28.39-.41A14.28,14.28,0,0,0,265,99.06c0-.4,0-.79,0-1.17.77,6.83,1.34,13.92,1.37,15.29,0,4.15-.29,4.3-2.55,5.42-.6.3-1.31.65-2.13,1.12-.26.15-.53.31-.81.49a1.49,1.49,0,0,0-.48,2.06,1.51,1.51,0,0,0,1.28.71,1.55,1.55,0,0,0,.79-.23,29.86,29.86,0,0,1,2.68-1.46c3.12-1.55,4.22-2.59,4.22-8.11,0-.66-.59-8.42-1.38-15.54-1.76-16-3-16-4.47-16-2,0-5,1.62-5,4.54a12.2,12.2,0,0,0,1.58,5.49,15.72,15.72,0,0,1,1.9,7.36,12,12,0,0,1-2,6.77,10.74,10.74,0,0,1-1.52,1.78A1.5,1.5,0,0,0,258.34,109.73Zm3.13-23.52c0-.7.73-1.18,1.34-1.4.62,1.69,1.3,6.26,1.89,11.27a20.48,20.48,0,0,0-1.94-5.65A9.82,9.82,0,0,1,261.47,86.21Z" fill="#525d7d"/><path d="M133.35,87.62c0-.45,0-.89-.08-1.33-.74-11.54-1.1-23.35-1.1-36.06,0-2.88,0-5.85.06-8.83,5.72.1,11.53-.1,17.15-.29,4.55-.15,9.25-.31,13.88-.31,6.05,0,13.29.57,21.67,1.24,11.9.94,26.72,2.11,44.42,2.11.75,0,1.46,0,2.14,0v4c0,14.35.09,29.54.94,44.59.09,1.46.17,2.92.26,4.37a1.51,1.51,0,0,0,1.5,1.4h.1a1.5,1.5,0,0,0,1.39-1.38,1.55,1.55,0,0,0,0-.22c-1.11-16.38-1.2-33.07-1.2-48.76V42.53a1.49,1.49,0,0,0-1.6-1.49c-1.09.07-2.25.11-3.54.11C211.77,41.15,197,40,185.16,39c-8.44-.66-15.73-1.24-21.9-1.24-4.68,0-9.41.16-14,.31-6.07.21-12.34.42-18.49.25a1.45,1.45,0,0,0-1.08.42,1.48,1.48,0,0,0-.46,1.06c-.06,3.51-.08,7-.08,10.39,0,13.26.39,25.56,1.19,37.59A1.49,1.49,0,0,0,131,89a1.52,1.52,0,0,0,.94.26A1.49,1.49,0,0,0,133.35,87.62Z" fill="#525d7d"/><path d="M150.28,52.25c3.38.24,6.87.49,10.29.49.9,0,1.81,0,2.7-.06a1.5,1.5,0,0,0,1.44-1.56,1.48,1.48,0,0,0-1.57-1.43,114.09,114.09,0,0,1-12.64-.43c-2.08-.15-4.22-.3-6.31-.39a1.47,1.47,0,0,0-1.56,1.43,1.5,1.5,0,0,0,1.43,1.57C146.1,52,148.23,52.11,150.28,52.25Z" fill="#525d7d"/><path d="M171.47,53.5c5.45-.29,10.84-.43,16-.43a249.1,249.1,0,0,1,30.34,1.79H218a1.5,1.5,0,0,0,.19-3,253.29,253.29,0,0,0-30.71-1.81c-5.22,0-10.67.15-16.17.44a1.5,1.5,0,1,0,.16,3Z" fill="#525d7d"/><path d="M160.35,59.29c-4.32,0-9,.06-13.63.49a1.5,1.5,0,0,0,.13,3H147c4.55-.42,9.11-.48,13.36-.48h6.74c2.74,0,4.83,0,6.79-.08a1.5,1.5,0,0,0,0-3c-2,.06-4,.08-6.75.08h-6.74Z" fill="#525d7d"/><path d="M195.92,63.32a1.5,1.5,0,1,0,0-3H185.83a1.5,1.5,0,0,0,0,3Z" fill="#525d7d"/><path d="M209.52,64c1.4.09,2.84.18,4.28.18a24.39,24.39,0,0,0,4.19-.33,1.5,1.5,0,1,0-.52-3,21.49,21.49,0,0,1-3.67.28c-1.35,0-2.74-.09-4.09-.17a49.27,49.27,0,0,0-6-.13,1.49,1.49,0,0,0-1.41,1.58,1.51,1.51,0,0,0,1.58,1.41A45.65,45.65,0,0,1,209.52,64Z" fill="#525d7d"/><path d="M155.61,73.88c1.83.06,3.72.13,5.58.13,1,0,1.93,0,2.9-.06a1.5,1.5,0,0,0,1.43-1.57A1.48,1.48,0,0,0,164,71c-2.74.12-5.53,0-8.24-.07-1.83-.06-3.72-.12-5.58-.12s-3.53.06-5,.19a1.5,1.5,0,1,0,.26,3c1.44-.12,3-.18,4.79-.18S153.81,73.82,155.61,73.88Z" fill="#525d7d"/><path d="M182,73.38a1.1,1.1,0,0,0,.25,0,1.5,1.5,0,0,0,.25-3,30.28,30.28,0,0,0-5-.36c-.79,0-1.57,0-2.37,0s-1.59,0-2.4,0a1.5,1.5,0,0,0,0,3c.84,0,1.66,0,2.47,0s1.54,0,2.3,0A26.9,26.9,0,0,1,182,73.38Z" fill="#525d7d"/><path d="M196.4,71.31q-2.72.1-5.43.18a1.5,1.5,0,0,0,.09,3c1.82,0,3.63-.12,5.45-.18,3.72-.14,7.56-.28,11.33-.28a102.44,102.44,0,0,1,11.53.58h.17a1.5,1.5,0,0,0,.17-3,106,106,0,0,0-11.87-.6C204,71,200.14,71.17,196.4,71.31Z" fill="#525d7d"/><path d="M170,81a1.5,1.5,0,0,0,.13-3,110.41,110.41,0,0,0-19.07,0,1.5,1.5,0,0,0,.26,3,108.41,108.41,0,0,1,18.55,0Z" fill="#525d7d"/><path d="M200.72,80c-5-.55-10-.61-14.87-.67-2.4,0-4.89-.06-7.32-.15a1.5,1.5,0,0,0-.11,3c2.47.09,5,.12,7.39.15,4.79.06,9.75.12,14.58.66h.17a1.5,1.5,0,0,0,.16-3Z" fill="#525d7d"/><path d="M192.16,88.94a1.49,1.49,0,0,0,1.44-1.55,1.52,1.52,0,0,0-1.55-1.45c-1.78.07-3.55.16-5.33.24-3.88.19-7.89.38-11.82.38-1.42,0-2.73,0-4-.07a1.5,1.5,0,1,0-.12,3c1.32.05,2.66.07,4.12.07,4,0,8-.19,12-.38Z" fill="#525d7d"/><path d="M318.22,192.61c-.05.24-.09.47-.14.71a1.51,1.51,0,0,1-1.47,1.19l-.31,0a1.49,1.49,0,0,1-1.16-1.77l.63-3.08c-4.9-5.93-9.87-12-14.78-18.11l-.93-.26-3.58-1a1.5,1.5,0,0,1-.7-.44c5.94,7.52,12,14.9,18,22.11,6.33,7.67,12.86,15.59,19.11,23.56-13.09,11.22-15.69,14-17.43,15.85-3,3.25-3.61,3.86-56.45,44.81l-7.13-8.53q-2.74-3.29-5.51-6.59a1.5,1.5,0,0,1-1.16,2.45,1.9,1.9,0,0,1-.4-.05l-.45-.13,5.22,6.24q4,4.83,8.06,9.64a1.5,1.5,0,0,0,1.15.54,1.48,1.48,0,0,0,.92-.31l11.3-8.76-.74-.23a1.5,1.5,0,1,1,.87-2.87l2.76.86c14.44-11.21,23.78-18.49,30-23.35.31-1.38.62-2.77.92-4.13a1.5,1.5,0,1,1,2.93.65c0,.17-.08.35-.11.52,7.48-6,8.44-7,10.05-8.71S322,228.7,335.9,216.8a1.5,1.5,0,0,0,.21-2.06C330.27,207.26,324.18,199.84,318.22,192.61Z" fill="#525d7d"/><path d="M279.52,163.9a1.52,1.52,0,0,1-1.45,1.1,1.41,1.41,0,0,1-.4-.05l-2.75-.74c-2.19,1.86-4.37,3.72-6.5,5.55-7.73,6.63-15.72,13.49-24,19.63a1.5,1.5,0,1,0,1.78,2.42c8.41-6.22,16.44-13.11,24.21-19.77,5.36-4.6,10.89-9.35,16.5-13.83q4.32,5.79,8.82,11.47a1.5,1.5,0,0,1,1.62-2.33l.47.13c-3.2-4.06-6.36-8.16-9.42-12.3a1.5,1.5,0,0,0-2.14-.29c-2.86,2.27-5.7,4.61-8.51,7l.75.21A1.5,1.5,0,0,1,279.52,163.9Z" fill="#525d7d"/><path d="M246.31,261c-9-10.71-18.19-21.58-27.69-32-.7-.77-1.4-1.55-2.11-2.32a1.5,1.5,0,1,0-2.21,2l.47.52c8.95,9.75,17.65,19.92,26.14,30,1.56.45,3.11.89,4.67,1.32A1.53,1.53,0,0,1,246.31,261Z" fill="#525d7d"/><path d="M244.75,155.38a1.5,1.5,0,0,0,1.16,1.78l1.68.36c8.2,1.77,17.18,4,27.33,6.69l2.75.74a1.41,1.41,0,0,0,.4.05,1.49,1.49,0,0,0,.39-2.94l-.75-.21c-11.21-3-21-5.45-29.92-7.36l-1.26-.27A1.51,1.51,0,0,0,244.75,155.38Z" fill="#525d7d"/><path d="M295.45,168.38a1.49,1.49,0,0,0,.24,1.3l.09.11a1.5,1.5,0,0,0,.7.44l3.58,1,.93.26c6.65,1.91,12.5,3.59,17.48,4.9q-1.34,6.62-2.7,13.21l-.63,3.08a1.49,1.49,0,0,0,1.16,1.77l.31,0a1.51,1.51,0,0,0,1.47-1.19c.05-.24.09-.47.14-.71q1.75-8.48,3.47-17a1.5,1.5,0,0,0-1.1-1.75c-5.46-1.41-12.06-3.3-19.7-5.5l-3.11-.89-.47-.13A1.5,1.5,0,0,0,295.45,168.38Z" fill="#525d7d"/><path d="M306.55,239.76a1.51,1.51,0,0,0-1.8,1.14c-.3,1.36-.61,2.75-.92,4.13-2.23,9.91-4.56,20.08-7,30.35-5.71-1.6-11.47-3.4-17.05-5.15l-5.95-1.85-2.76-.86a1.5,1.5,0,1,0-.87,2.87l.74.23c2.66.81,5.3,1.64,7.94,2.47,6.1,1.91,12.4,3.89,18.66,5.6a1.33,1.33,0,0,0,.4.05,1.48,1.48,0,0,0,.76-.21,1.54,1.54,0,0,0,.7-.94c2.81-12,5.55-24,8.13-35.52,0-.17.07-.35.11-.52A1.5,1.5,0,0,0,306.55,239.76Z" fill="#525d7d"/><path d="M245.18,263.45a1.5,1.5,0,0,0,1.16-2.45l0,0a1.53,1.53,0,0,0-.73-.45c-1.56-.43-3.11-.87-4.67-1.32-3.55-1-7.08-2-10.53-3.05-4.4-1.29-8.94-2.62-13.53-3.9a72.39,72.39,0,0,0,2.73-13.59A1.5,1.5,0,0,0,218.2,237a1.52,1.52,0,0,0-1.61,1.38,77.58,77.58,0,0,1-3,14.51,1.49,1.49,0,0,0,.17,1.2,1.54,1.54,0,0,0,1,.68,6.91,6.91,0,0,1,.76.17c4.76,1.33,9.49,2.71,14.06,4,4.82,1.41,9.8,2.87,14.79,4.25l.45.13A1.9,1.9,0,0,0,245.18,263.45Z" fill="#525d7d"/><path d="M278.21,187.41c5.06,1.13,5.65,3.34,5.65,4.9a9.68,9.68,0,0,1-.26,1.85,11.6,11.6,0,0,0-.31,2.36c0,2.9,1.84,4,3.19,4.89a7.34,7.34,0,0,1,1.63,1.23,6,6,0,0,1,1.07,3.46,12.54,12.54,0,0,0,.8,3.62,1.49,1.49,0,0,0,1.38.91,1.59,1.59,0,0,0,.59-.12,1.49,1.49,0,0,0,.78-2,9.86,9.86,0,0,1-.57-2.78,8.49,8.49,0,0,0-1.82-5.13,10.56,10.56,0,0,0-2.27-1.77c-1.32-.82-1.78-1.16-1.78-2.34a8.87,8.87,0,0,1,.25-1.76,12,12,0,0,0,.32-2.45c0-2.76-1.39-6.36-8-7.83a1.5,1.5,0,1,0-.65,2.93Z" fill="#525d7d"/><path d="M304.31,222.62a12.37,12.37,0,0,1,4.07,3.83,1.49,1.49,0,0,0,1.27.7,1.46,1.46,0,0,0,.8-.23,1.49,1.49,0,0,0,.47-2.06,15.22,15.22,0,0,0-4.94-4.73c-2.13-1.43-3.41-2.29-3.41-5.57a1.5,1.5,0,0,0-3,0C299.57,219.45,302,221.06,304.31,222.62Z" fill="#525d7d"/><path d="M257.07,195c6,0,6,1.83,6,2.43,0,6.49,5.85,9.4,10.12,11.53l.37.19a1.5,1.5,0,1,0,1.34-2.68l-.38-.19c-4.15-2.07-8.45-4.22-8.45-8.85s-4.9-5.43-9-5.43a1.5,1.5,0,0,0,0,3Z" fill="#525d7d"/><path d="M290.37,228.71c-1.14-2.22-2.32-4.53-5-6.25a1.06,1.06,0,0,1-.57-1,7.6,7.6,0,0,1,.71-2.45l.13-.32a1.5,1.5,0,0,0-2.79-1.12l-.12.31a9.89,9.89,0,0,0-.93,3.58,4,4,0,0,0,1.94,3.51c2,1.29,2.9,3.05,3.95,5.1a20.5,20.5,0,0,0,2.85,4.5,1.52,1.52,0,0,0,1.13.5,1.49,1.49,0,0,0,1-.37,1.5,1.5,0,0,0,.13-2.12A17.6,17.6,0,0,1,290.37,228.71Z" fill="#525d7d"/><path d="M254.94,218a6.49,6.49,0,0,1,1.43.88,20.81,20.81,0,0,1,2.4,3.08,15.26,15.26,0,0,0,4.3,4.65,1.56,1.56,0,0,0,.8.22,1.5,1.5,0,0,0,.79-2.77,12.41,12.41,0,0,1-3.42-3.8,23.93,23.93,0,0,0-2.75-3.5,8.42,8.42,0,0,0-2.16-1.42c-1.77-.92-2.77-1.54-2.77-3.52a3.67,3.67,0,0,1,.25-1.31,1.5,1.5,0,1,0-2.78-1.11,6.44,6.44,0,0,0-.47,2.42C250.56,215.67,253.2,217.05,254.94,218Z" fill="#525d7d"/><path d="M272.78,237.27a1.5,1.5,0,0,0-2.8,1.08,19.59,19.59,0,0,0,3.69,5.57c1.72,2,3.2,3.78,3.37,6.16a1.49,1.49,0,0,0,1.49,1.39h.11a1.5,1.5,0,0,0,1.39-1.6c-.24-3.36-2.19-5.66-4.07-7.89A16.87,16.87,0,0,1,272.78,237.27Z" fill="#525d7d"/><path d="M261.47,248.75c-2-1.52-4.23-3.23-8.06-10.89a8.77,8.77,0,0,0-4.73-3.92c-1.61-.72-1.91-1-1.91-1.49a1.5,1.5,0,0,0-3,0c0,2.57,2,3.49,3.68,4.23,1.34.6,2.6,1.18,3.27,2.52,4.14,8.28,6.68,10.22,8.93,11.93,1.62,1.25,3,2.32,5,6.31a1.5,1.5,0,0,0,2.69-1.34C265.05,251.49,263.31,250.16,261.47,248.75Z" fill="#525d7d"/><path d="M98.46,76.58a7.09,7.09,0,0,1-1.17-.37,1.5,1.5,0,0,0-1.14-.08,5.78,5.78,0,0,0-4,5.34,5.16,5.16,0,0,0,4.81,5.23,5.69,5.69,0,0,0,5.76-5.48,4.91,4.91,0,0,0-.72-2.56A5.19,5.19,0,0,0,98.46,76.58ZM96.93,83.7a2.18,2.18,0,0,1-1.81-2.23,2.66,2.66,0,0,1,1.51-2.29c.36.12.74.22,1.1.31.72.18,1.46.36,1.66.71a1.94,1.94,0,0,1,.3,1A2.73,2.73,0,0,1,96.93,83.7Z" fill="#525d7d"/><path d="M310.73,10c1.9-5.1-2.12-9-4.12-9.69-2.78-1-8.34.83-10.05,5.42a5.69,5.69,0,0,0,2.37,7.17,1.5,1.5,0,0,1,2.84.84c0,.18-.07.36-.09.55l.07,0c.6.22,1.24.43,1.95.62a1.94,1.94,0,0,0,.46.06,2.11,2.11,0,0,0,1.51-.78A6.33,6.33,0,0,0,310.73,10Zm-2.81-1.05A3.39,3.39,0,0,1,305,11.24a2,2,0,0,0-1.21.57l-1-.33c-4.56-1.7-3.77-3.82-3.43-4.73A6.27,6.27,0,0,1,304.91,3a1.91,1.91,0,0,1,.65.09C306.06,3.27,309.22,5.44,307.92,8.92Z" fill="#525d7d"/><path d="M274.08,33.78l-.95-.31-.61-.19a5.93,5.93,0,0,0-4.57.49,7.62,7.62,0,0,0-3.72,4.14c-1.66,4.46,1.53,8.46,4.38,9.52a5.06,5.06,0,0,0,1.82.34,4.84,4.84,0,0,0,1.35-.19,8.56,8.56,0,0,0,5.53-5.27,7.24,7.24,0,0,0,.05-5.24A5.77,5.77,0,0,0,274.08,33.78Zm.42,7.48A5.59,5.59,0,0,1,271,44.69a2.07,2.07,0,0,1-1.32-.07c-1.45-.54-3.63-3-2.62-5.66a4.58,4.58,0,0,1,2.26-2.5A3.78,3.78,0,0,1,271,36a1.49,1.49,0,0,1,.51.07c.23.09.5.17.79.26s.51.15.76.24a2.72,2.72,0,0,1,1.54,1.59A4.16,4.16,0,0,1,274.5,41.26Z" fill="#525d7d"/><path d="M286.56,34.08a25.54,25.54,0,0,1-3.22,2,1.5,1.5,0,0,0,.69,2.83,1.44,1.44,0,0,0,.69-.17,29.51,29.51,0,0,0,3.59-2.2,1.5,1.5,0,1,0-1.75-2.44Z" fill="#525d7d"/><path d="M293.86,30.55a1.51,1.51,0,0,0,1.19-.59,35.07,35.07,0,0,0,2.32-3.48A1.5,1.5,0,1,0,294.78,25a31.81,31.81,0,0,1-2.12,3.17,1.5,1.5,0,0,0,.29,2.1A1.47,1.47,0,0,0,293.86,30.55Z" fill="#525d7d"/><path d="M300.48,12a1.5,1.5,0,0,0-1.55.85,1.89,1.89,0,0,0-.14.44,28.42,28.42,0,0,1-.74,3.74,1.5,1.5,0,0,0,1.07,1.83,1.31,1.31,0,0,0,.39.05A1.5,1.5,0,0,0,301,17.81a36,36,0,0,0,.72-3.55c0-.19.06-.37.09-.55A1.51,1.51,0,0,0,300.48,12Z" fill="#525d7d"/><path d="M374.77,171.29a22.47,22.47,0,0,0-3.93,1.66,1.5,1.5,0,0,0,.71,2.82,1.53,1.53,0,0,0,.71-.18,20,20,0,0,1,3.42-1.44,1.51,1.51,0,0,0,1-1.89A1.49,1.49,0,0,0,374.77,171.29Z" fill="#525d7d"/><path d="M363.47,179a29.1,29.1,0,0,0-2.49,3.4,1.51,1.51,0,0,0,.48,2.07,1.54,1.54,0,0,0,.79.23,1.51,1.51,0,0,0,1.28-.71,25.92,25.92,0,0,1,2.23-3.05,1.5,1.5,0,0,0-2.29-1.94Z" fill="#525d7d"/><path d="M357.11,196.45a1.43,1.43,0,0,0,.87.39h.14a1.52,1.52,0,0,0,1.49-1.37c0-.38.1-.77.15-1.16a25.53,25.53,0,0,1,.47-2.56,1.5,1.5,0,0,0-2.91-.71c-.19.76-.34,1.53-.46,2.3s-.18,1.24-.24,1.86A1.48,1.48,0,0,0,357.11,196.45Z" fill="#525d7d"/></svg>