<svg xmlns="http://www.w3.org/2000/svg" viewBox="0 0 371.48 281.01"><path d="M75.26,31.25c-6.7-5.64-17.36,3.22-19.82,9.86C53.55,46.23,54,52,58.06,55.82a14.57,14.57,0,0,0,.64,1.79,16.07,16.07,0,0,0,13.5,9.83,15,15,0,0,0,15.89-.72c7-4.68,10.85-14.94,8.17-23C93.5,35.49,83.46,31.73,75.26,31.25Z" fill="#ffcc80"/><path d="M70.32,71.43a2.79,2.79,0,0,0-2.86,0c-3,1.7-2,4.41-3.17,7.06-1.1,2.46-3.79,4.13-6.24,4.94a1,1,0,0,0,.26,1.9c3.8.11,7.57-1.08,10-4.15,1.21-1.54,1.48-3.4,2.46-5C71.83,74.37,72.27,72.78,70.32,71.43Z" fill="#e0dfe6"/><path d="M90,24.91A33.27,33.27,0,0,0,68.82,20.1c-8,.87-14.49,4.5-18.18,10.24-8.49,13.19-2.15,23.07,2,29.61,1.48,2.3,2.87,4.47,2.9,5.82A23.69,23.69,0,0,1,54,73.4c-1.55,4.82-3.3,10.29,3.07,14.39a8.23,8.23,0,0,0,4.52,1.39c3.27,0,6.55-2.08,9.06-6a40.78,40.78,0,0,0,2.15-3.92c.66-1.29,1.27-2.51,2-3.66a14,14,0,0,1,1.75-2.23c.81-.82,2.23-1.08,3.87-1.37.52-.09,1-.19,1.59-.31A22.48,22.48,0,0,0,96.28,61.46c4-6.21,5.76-13.13,5-19.48C100.36,35,96.48,29.06,90,24.91Zm3.72,34.93a19.5,19.5,0,0,1-12.33,8.94c-.5.11-1,.2-1.48.29a12.51,12.51,0,0,0-4.35,1.33l.76.31a1.5,1.5,0,0,1-.56,2.89,1.65,1.65,0,0,1-.57-.11l-2-.79a14.9,14.9,0,0,0-.92,1.3,38.28,38.28,0,0,0-2,3.64l1.32.57a1,1,0,0,1-.4,1.92.89.89,0,0,1-.39-.09l-1.45-.62c-.39.74-.79,1.47-1.23,2.15A14.51,14.51,0,0,1,66,84.2l1.11.48a1,1,0,0,1-.4,1.92,1.1,1.1,0,0,1-.4-.08l-2.21-1a5.08,5.08,0,0,1-5.36-.29,6.54,6.54,0,0,1-2.85-3.17l-2.18-.88a1,1,0,0,1,.74-1.86l1.14.46a23.68,23.68,0,0,1,1.31-5.51l0-.11-1.46-.58a1,1,0,0,1,.73-1.86l1.33.53a24.85,24.85,0,0,0,1-5.31l-2.14-.81a1.5,1.5,0,1,1,1-2.81l.68.26a28.72,28.72,0,0,0-2.93-5.29c-4-6.24-9.5-14.8-2-26.37,3.19-5,8.86-8.11,16-8.87a28,28,0,0,1,3.18-.17,30.39,30.39,0,0,1,16.09,4.51c5.68,3.66,9.09,8.82,9.85,14.93C99,48,97.37,54.22,93.75,59.84Z" fill="#525d7d"/><path d="M57.47,63.36a1.5,1.5,0,1,0-1,2.81l2.14.81c4.66,1.75,9.5,3.64,14.68,5.72l2,.79a1.65,1.65,0,0,0,.57.11,1.5,1.5,0,0,0,.56-2.89l-.76-.31c-6.21-2.5-11.93-4.73-17.44-6.78Z" fill="#525d7d"/><path d="M56.2,71.76a1,1,0,0,0-.73,1.86l1.46.58c4.16,1.66,8.29,3.41,12.47,5.22l1.45.62a.89.89,0,0,0,.39.09,1,1,0,0,0,.4-1.92l-1.32-.57C66,75.79,61.8,74,57.53,72.29Z" fill="#525d7d"/><path d="M54.44,79.36a1,1,0,0,0-.74,1.86l2.18.88c2.43,1,5.14,2.14,8.21,3.46l2.21,1a1.1,1.1,0,0,0,.4.08,1,1,0,0,0,.4-1.92L66,84.2c-4-1.72-7.42-3.17-10.41-4.38Z" fill="#525d7d"/><path d="M88.57,46.43a77.5,77.5,0,0,0-6.78,3.84l-1.86,1.14c-.36-2.1-.83-4.19-1.28-6.22l-.24-1.07a1,1,0,0,0-.64-.73,1,1,0,0,0-1,.16c-.7.56-1.42,1.11-2.14,1.66S73.13,46.38,72.36,47l-.24-.93a39.49,39.49,0,0,0-2.71-8,1,1,0,0,0-.75-.54,1,1,0,0,0-.87.3c-1.23,1.3-2.53,2.57-3.78,3.8-1.63,1.59-3.31,3.24-4.85,4.94a1,1,0,1,0,1.48,1.34c1.5-1.65,3.16-3.28,4.77-4.85.92-.91,1.87-1.85,2.81-2.8a44.9,44.9,0,0,1,2,6.32c.21.81.43,1.63.66,2.45a1,1,0,0,0,.67.69,1,1,0,0,0,.94-.2c1.1-1,2.29-1.85,3.43-2.72l.92-.7c.52,2.32,1,4.71,1.39,7.06a1,1,0,0,0,.55.76,1.13,1.13,0,0,0,.44.1,1,1,0,0,0,.5-.14c1.06-.62,2.11-1.26,3.16-1.9a74.19,74.19,0,0,1,6.6-3.75,1,1,0,0,0,.47-1.33A1,1,0,0,0,88.57,46.43Z" fill="#525d7d"/><path d="M59.13,15.34a1,1,0,0,0,.9.58.94.94,0,0,0,.43-.1,1,1,0,0,0,.48-1.33c-.4-.84-.73-1.74-1-2.6a14.89,14.89,0,0,0-3.47-6.13A1,1,0,0,0,55,7.2a13.19,13.19,0,0,1,3,5.37C58.35,13.48,58.69,14.42,59.13,15.34Z" fill="#525d7d"/><path d="M74.78,12.5a1,1,0,0,0,1,1,1,1,0,0,0,1-1,14.54,14.54,0,0,1,.29-2.76,11.5,11.5,0,0,0,.14-4.43,1,1,0,1,0-2,.42,9.79,9.79,0,0,1-.15,3.68A16.41,16.41,0,0,0,74.78,12.5Z" fill="#525d7d"/><path d="M90.61,19.39a1,1,0,0,0,.91-.58c.26-.57.55-1.13.85-1.71a19.75,19.75,0,0,0,2.14-5.59,1,1,0,0,0-2-.33,17.93,17.93,0,0,1-2,5c-.3.6-.61,1.2-.87,1.78a1,1,0,0,0,.49,1.33A1,1,0,0,0,90.61,19.39Z" fill="#525d7d"/><path d="M109.8,23.27a21.1,21.1,0,0,1-4.52,3.61l-1,.65a1,1,0,0,0-.27,1.39,1,1,0,0,0,.83.44,1,1,0,0,0,.56-.17l1-.64a23.34,23.34,0,0,0,4.93-4,1,1,0,0,0-.1-1.41A1,1,0,0,0,109.8,23.27Z" fill="#525d7d"/><path d="M147.77,158.25a74.81,74.81,0,0,0-7.75,2.93c-.06-.53-.12-1.07-.19-1.62a.93.93,0,0,0-1.71-.46c-.86,1.48-1.74,3.08-2.56,4.73a15.78,15.78,0,0,0-1.76,1.59,5.07,5.07,0,0,0-.81,5.35c-.05.22-.11.45-.15.67-1,5.17,4.28,5.65,8,6s9.67,2.21,11.78-1.8c.87-1.67.67-3.8.74-5.64.1-2.43.19-4.86.3-7.29A4.66,4.66,0,0,0,147.77,158.25Z" fill="#ffcc80"/><path d="M146.14,206.53l.18-1.15.15-.87a1.51,1.51,0,0,1,1.11-1.2,41,41,0,0,1-17.24-1.08,1.49,1.49,0,0,1,1,1.77c-.11.5-.22,1-.34,1.49a42.63,42.63,0,0,0,15.15,1Z" fill="#525d7d"/><path d="M130.16,202.18a46.36,46.36,0,0,1-9.72-4c-11.56-6.27-19.67-17-21.7-28.71a42.51,42.51,0,0,1-.89-8.64,54.63,54.63,0,0,1,3.27-16.77c5.09-12.94,17.78-22.7,33.14-25.47a47.64,47.64,0,0,1,8.5-.77c11.48,0,22,4.32,29.1,12.27a43.47,43.47,0,0,1,5.3,6.42,43,43,0,0,1,5.45,11.34,41.25,41.25,0,0,1,1.43,6.26,38.27,38.27,0,0,1,.38,6.5,39.35,39.35,0,0,1-1.15,8.55c-2.36,10.84-9.38,20.85-19.25,27.46a46.28,46.28,0,0,1-7.57,4.1,37.35,37.35,0,0,1-8.6,2.5,1,1,0,0,1,.35,0,1.49,1.49,0,0,1,1.23,1.73l-.15.87,0,.17a39.93,39.93,0,0,0,5.49-1.44c.33-1,.63-1.92.88-2.86a1.5,1.5,0,1,1,2.9.76c-.06.23-.13.46-.2.7a48.57,48.57,0,0,0,7.36-4.06c10.52-7,18-17.72,20.52-29.27a42.77,42.77,0,0,0,1.22-9.15c0-.73,0-1.47,0-2.2l-1.89-.39a1.5,1.5,0,1,1,.61-2.94l1.08.22c-.05-.56-.12-1.13-.2-1.69a44.46,44.46,0,0,0-1.53-6.73,46,46,0,0,0-5.84-12.13,45.14,45.14,0,0,0-5.6-6.8c-9.51-10.6-24.58-15.23-40.31-12.39-16.37,3-29.94,13.42-35.4,27.32a58.07,58.07,0,0,0-3.48,17.78,45,45,0,0,0,1,9.29,40.62,40.62,0,0,0,7,16.48l.78-.87a1.5,1.5,0,0,1,2.23,2L104.63,189A48.05,48.05,0,0,0,117,199.7l1.34-1.37a1.5,1.5,0,1,1,2.15,2.09l-.78.8a49.79,49.79,0,0,0,8.41,3.48c.1-.47.21-.93.32-1.4A1.51,1.51,0,0,1,130.16,202.18Z" fill="#525d7d"/><path d="M155.19,197.25a41.34,41.34,0,0,0,6.88-3.73,41.76,41.76,0,0,0,16.64-21.76,1.54,1.54,0,0,1-.64.15h-.23l-1.21-.2A39.84,39.84,0,0,1,161,191.86a40.39,40.39,0,0,1-6.55,3.55c-9.65,4.13-21,3.33-31.19-2.19A39.41,39.41,0,0,1,117,189a1.49,1.49,0,0,1-1,.42l-.3,0a1.51,1.51,0,0,1-1.17-1.77c.05-.23.1-.46.14-.69a34.19,34.19,0,0,1-10.2-18.59,37,37,0,0,1-.77-7.49,47.08,47.08,0,0,1,2.83-14.5c4.4-11.21,15.4-19.67,28.69-22.06a41.18,41.18,0,0,1,7.35-.67c9.95,0,19,3.74,25.21,10.62a39.3,39.3,0,0,1,4.59,5.56,38,38,0,0,1,2.22,3.8l.71.06-.07,1.2a37.71,37.71,0,0,1,1.86,4.77,34.72,34.72,0,0,1,1.23,5.42,33.73,33.73,0,0,1-.66,13c-.05.24-.11.47-.17.7l.85.14a1.53,1.53,0,0,1,1,.66c.08-.35.17-.7.25-1a36.7,36.7,0,0,0,1.05-7.81,35.2,35.2,0,0,0-.36-6A36.42,36.42,0,0,0,179,149a39.37,39.37,0,0,0-5-10.35,39,39,0,0,0-4.79-5.81c-8.1-9-20.95-13-34.36-10.55-14,2.52-25.55,11.45-30.2,23.29a49.22,49.22,0,0,0-3,15.18,38.44,38.44,0,0,0,.81,7.93c1.85,10.71,9.25,20.52,19.79,26.25a40.34,40.34,0,0,0,19.21,5A34.82,34.82,0,0,0,155.19,197.25Z" fill="#525d7d"/><path d="M94,198.5l1.12,1L104.63,189l1.17-1.29a1.5,1.5,0,0,0-2.23-2l-.78.87L91.88,198.61A1.51,1.51,0,0,1,94,198.5Z" fill="#525d7d"/><path d="M120.44,198.3a1.49,1.49,0,0,0-2.12,0L117,199.7l-10.11,10.37,1.07,1a1.5,1.5,0,0,1-1,2.62,1.54,1.54,0,0,1-1-.38l-1.16-1.05L69.45,248.46a5.57,5.57,0,0,1-7.78.23l-1.94-1.78a5.6,5.6,0,0,1-.37-7.88l33.74-37.3-1.11-1a1.5,1.5,0,0,1-.11-2.12L57.13,237a8.63,8.63,0,0,0,.57,12.11l1.94,1.77a8.56,8.56,0,0,0,12-.34l48.09-49.34.78-.8A1.49,1.49,0,0,0,120.44,198.3Z" fill="#525d7d"/><path d="M92,200.73l1.11,1q5.59,5.06,11.19,10.06l.49.43,1.16,1.05a1.54,1.54,0,0,0,1,.38,1.5,1.5,0,0,0,1-2.62l-1.07-1-.57-.51q-5.6-5-11.18-10.05l-1.12-1a1.5,1.5,0,0,0-2,2.23Z" fill="#525d7d"/><path d="M121.5,169.26c2.35-10.74,4.78-21.83,6.73-33,3.71.79,7.43,1.51,11.05,2.2,9.22,1.77,18.74,3.59,27.95,6.82a30.14,30.14,0,0,0,7.84,1.35l.12-1.79.07-1.2-.71-.06a25.25,25.25,0,0,1-6.33-1.13c-9.42-3.3-19.05-5.15-28.37-6.93-4.1-.79-8.34-1.6-12.51-2.53a1.49,1.49,0,0,0-1.16.22,1.51,1.51,0,0,0-.64,1c-2,11.6-4.52,23.18-7,34.38-1.32,6-2.67,12.17-3.94,18.33,0,.23-.09.46-.14.69a1.51,1.51,0,0,0,1.17,1.77l.3,0a1.49,1.49,0,0,0,1-.42,1.4,1.4,0,0,0,.45-.78C118.73,181.86,120.14,175.45,121.5,169.26Z" fill="#525d7d"/><path d="M224.4,163.14l-37.19-7.71-1.08-.22a1.5,1.5,0,1,0-.61,2.94l1.89.39,35,7.24-15.59,86.68,1.57.49a1,1,0,0,1-.6,1.91l-2.16-.67-22.87,10.18-.48,2.4a1,1,0,0,1-1,.8.68.68,0,0,1-.2,0,1,1,0,0,1-.78-1.17l.29-1.48-57.93-11.67c1.15-6.18,2.13-12.45,3.07-18.53,1.5-9.6,3.06-19.51,5.29-29.21.12-.49.23-1,.34-1.49a1.49,1.49,0,0,0-1-1.77l-.12,0h-.06a1.51,1.51,0,0,0-1.74,1.12c-.11.47-.22.93-.32,1.4-2.28,9.83-3.85,19.84-5.36,29.54-1,6.53-2.07,13.29-3.33,19.88a1.51,1.51,0,0,0,1.18,1.76l60.49,12.19.3,0A1.42,1.42,0,0,0,182,268l26.5-11.8a1.47,1.47,0,0,0,.86-1.1l16.22-90.2A1.48,1.48,0,0,0,224.4,163.14Z" fill="#525d7d"/><path d="M146.47,204.51l-.15.87-.18,1.15c-.16.91-.32,1.81-.45,2.73a1.51,1.51,0,0,0,1.39,1.71,31.09,31.09,0,0,1,5.27,1l1.87.44a1.12,1.12,0,0,0,.32,0,1.49,1.49,0,0,0,.84-.26,1.44,1.44,0,0,0,.64-1,34.48,34.48,0,0,1,1.43-5.17c.3-.9.6-1.83.87-2.77.07-.24.14-.47.2-.7a1.5,1.5,0,1,0-2.9-.76c-.25.94-.55,1.88-.88,2.86-.05.14-.09.28-.14.42-.43,1.32-.88,2.67-1.22,4.06l-.32-.08c-1.35-.33-2.74-.66-4.16-.87.11-.7.23-1.39.35-2.09l0-.17.15-.87a1.49,1.49,0,0,0-1.23-1.73,1,1,0,0,0-.35,0l-.27,0A1.51,1.51,0,0,0,146.47,204.51Z" fill="#525d7d"/><path d="M154.48,215.93a80.65,80.65,0,0,1-9.16-2,1.53,1.53,0,0,0-1.26.23,1.45,1.45,0,0,0-.63,1.11,57.18,57.18,0,0,1-1,6.63c-.12.61-.24,1.21-.35,1.82a1.5,1.5,0,0,0,1.18,1.74l3.08.65c1.84.4,3.74.82,5.63,1.12a1.1,1.1,0,0,0,.25,0,1.5,1.5,0,0,0,1.46-1.17c.27-1.21.6-2.46.91-3.66.41-1.53.83-3.12,1.14-4.71a1.49,1.49,0,0,0-1.24-1.77Zm-2.8,5.71c-.2.78-.41,1.58-.61,2.38-1.37-.25-2.75-.56-4.1-.85l-1.67-.36.06-.35c.33-1.68.66-3.41.88-5.19,2.2.56,4.25,1,6.21,1.36C152.21,219.64,152,220.65,151.68,221.64Z" fill="#525d7d"/><path d="M151.53,231.25a85.9,85.9,0,0,1-9.17-2,1.49,1.49,0,0,0-1.26.22,1.55,1.55,0,0,0-.63,1.12,55.25,55.25,0,0,1-1,6.62c-.11.6-.23,1.21-.34,1.82a1.5,1.5,0,0,0,1.18,1.75c1,.2,2.06.43,3.09.65,1.84.4,3.73.81,5.62,1.12l.24,0a1.49,1.49,0,0,0,1.46-1.18c.27-1.21.6-2.45.92-3.66.4-1.53.82-3.12,1.14-4.7a1.51,1.51,0,0,0-.24-1.15A1.49,1.49,0,0,0,151.53,231.25Zm-2.8,5.71c-.21.78-.42,1.57-.62,2.37-1.36-.25-2.74-.55-4.08-.84l-1.69-.36c0-.12,0-.24.07-.36.32-1.69.66-3.41.88-5.19,2.19.57,4.24,1,6.21,1.37C149.26,235,149,236,148.73,237Z" fill="#525d7d"/><path d="M190.71,180.13c3.07.36,6.09,1,9,1.59,1.36.28,2.71.56,4.06.81a1.33,1.33,0,0,0,.28,0,1.5,1.5,0,0,0,.27-3c-1.33-.25-2.66-.52-4-.8-3-.62-6.06-1.25-9.26-1.63a1.5,1.5,0,1,0-.35,3Z" fill="#525d7d"/><path d="M185.1,191.77a1.5,1.5,0,0,0,1.72,1.25,8.33,8.33,0,0,1,1.33-.11,19.41,19.41,0,0,1,5.47,1.1,22.09,22.09,0,0,0,6.38,1.23,10.59,10.59,0,0,0,1.25-.07,1.5,1.5,0,1,0-.32-3,16.22,16.22,0,0,1-6.45-1.05,21.49,21.49,0,0,0-6.33-1.23,11.92,11.92,0,0,0-1.8.14A1.5,1.5,0,0,0,185.1,191.77Z" fill="#525d7d"/><path d="M199.73,204.3,178,200.53l-.31,0a1.83,1.83,0,0,0-.58-.1,1.7,1.7,0,0,0-1.67,1.87,1.48,1.48,0,0,0,1.48,1.48,1.24,1.24,0,0,0,.74-.19l.19,0,21.4,3.7a1.18,1.18,0,0,0,.26,0,1.49,1.49,0,0,0,.25-3Z" fill="#525d7d"/><path d="M197.84,215l-27.67-4.57a1.5,1.5,0,0,0-1.59,2.15l.27.54a1.5,1.5,0,0,0,2,.67,1.13,1.13,0,0,0,.26-.16L197.35,218l.25,0a1.5,1.5,0,0,0,.24-3Z" fill="#525d7d"/><path d="M197.3,226.86l-32.2-5.19a1.5,1.5,0,0,0-2.15,0l-.26.27a1.5,1.5,0,0,0,.82,2.54l33.31,5.37a1,1,0,0,0,.24,0,1.5,1.5,0,0,0,.24-3Z" fill="#525d7d"/><path d="M195.72,240.57l-34-6.16a5.3,5.3,0,0,0-1.77-.36,3.3,3.3,0,0,0-1.85.56,1.5,1.5,0,1,0,1.66,2.5.3.3,0,0,1,.19-.06,3.48,3.48,0,0,1,.92.24l.21.05,34.12,6.18a1.23,1.23,0,0,0,.27,0,1.5,1.5,0,0,0,.27-3Z" fill="#525d7d"/><path d="M184.69,245.92a1,1,0,0,0-.47.67l-3.66,18.31-.29,1.48a1,1,0,0,0,.78,1.17.68.68,0,0,0,.2,0,1,1,0,0,0,1-.8l.48-2.4,3.26-16.3,19.61,6.12,2.16.67a1,1,0,0,0,.6-1.91l-1.57-.49-21.27-6.63A1,1,0,0,0,184.69,245.92Z" fill="#525d7d"/><path d="M157.4,156A80.17,80.17,0,0,1,146,153.61c-2.95-.78-6-1.59-9.09-2.11a1.5,1.5,0,0,0-1.72,1.23c-.56,3.3-1.27,6.64-1.95,9.87-.82,3.93-1.68,8-2.29,12a1.5,1.5,0,0,0,1.2,1.7c7.32,1.38,14.53,3,20,4.29a1.27,1.27,0,0,0,.34,0,1.52,1.52,0,0,0,.8-.23,1.47,1.47,0,0,0,.66-.95c.52-2.38,1-4.79,1.43-7.12.93-4.77,1.88-9.7,3.26-14.44a1.5,1.5,0,0,0-.2-1.25A1.49,1.49,0,0,0,157.4,156Zm-4.92,15.78c-.35,1.82-.72,3.7-1.1,5.57-4.91-1.14-11-2.5-17.2-3.71.58-3.49,1.32-7,2-10.44.58-2.77,1.19-5.63,1.7-8.49,2.47.48,5,1.14,7.36,1.78a94,94,0,0,0,10,2.26C154.16,163.11,153.31,167.52,152.48,171.8Z" fill="#525d7d"/><path d="M139.38,163.39a1.5,1.5,0,1,0-2.85,1,35.93,35.93,0,0,0,3.33,6.75l.49.84a1.49,1.49,0,0,0,1,.72,1.1,1.1,0,0,0,.26,0,1.48,1.48,0,0,0,1-.33,56.3,56.3,0,0,1,9.23-6.35,1.5,1.5,0,0,0-1.41-2.65,55.5,55.5,0,0,0-8.35,5.57A29.27,29.27,0,0,1,139.38,163.39Z" fill="#525d7d"/><path d="M178.3,168.93l-.85-.14c-2-.32-4-.67-5.91-1-3.26-.6-6.63-1.22-10-1.63a1.5,1.5,0,0,0-.36,3c3.31.4,6.63,1,9.85,1.6,1.84.34,3.73.68,5.63,1l1.21.2h.23a1.54,1.54,0,0,0,.64-.15,1.49,1.49,0,0,0,.61-2.17A1.53,1.53,0,0,0,178.3,168.93Z" fill="#525d7d"/><path d="M326.51,146.81c-2.64.47-4.84,2.71-7.12,4-1.72,1-3.55,1.74-5.33,2.58a9,9,0,0,0-.77-2.22l-1.24-2.88a1.42,1.42,0,0,0-1.8-.59,1.47,1.47,0,0,0-.83,1.7l.48,3a5,5,0,0,0,1.09,3,1.51,1.51,0,0,0,.28.22,1.38,1.38,0,0,0,1.31,1.36c3.05.1,6.3-.87,9.18-1.79s6-1.82,7.84-4.39C331.15,148.69,328.61,146.43,326.51,146.81Z" fill="#e0dfe6"/><path d="M342.8,136c-2.1-.17-3.72,1.42-5.44,2.44s-3.43,1.91-5.2,2.75-.42,3.28,1.27,3c2.09-.31,4.17-.71,6.22-1.22s4.24-.9,5.52-2.87S344.75,136.11,342.8,136Z" fill="#e0dfe6"/><path d="M317,135.63a1.5,1.5,0,0,1,.86,1.94c-.17.42-.32.84-.46,1.26A8.3,8.3,0,0,0,319,139a10.07,10.07,0,0,0,4.74-1.26c-.24-.41-.48-.82-.75-1.21a1.5,1.5,0,0,1,2.47-1.7c.25.36.49.72.71,1.1a8.37,8.37,0,0,0,2.53-5.92c0-4.43-3.29-7.52-8-7.52a8.93,8.93,0,0,0-1.55.13c-4.32.76-7.83,4.59-7.83,8.52a8.69,8.69,0,0,0,3.31,6.45c.13-.37.26-.73.4-1.1A1.5,1.5,0,0,1,317,135.63Zm2.7-10a5.89,5.89,0,0,1,1-.09c2.3,0,5,1.18,5,4.52,0,3.71-3.9,6-6.7,6-3.55,0-4.67-3.79-4.67-4.86C314.3,128.68,316.8,126.08,319.65,125.58Z" fill="#525d7d"/><path d="M326.14,135.93c-.22-.38-.46-.74-.71-1.1a1.5,1.5,0,0,0-2.47,1.7c.27.39.51.8.75,1.21a24.67,24.67,0,0,1,2.81,7,97.35,97.35,0,0,0-10.82,4.32c0-.2,0-.4,0-.6a29.06,29.06,0,0,1,1.67-9.62c.14-.42.29-.84.46-1.26a1.5,1.5,0,0,0-2.8-1.08c-.14.37-.27.73-.4,1.1a32.06,32.06,0,0,0-1.93,10.88,27.91,27.91,0,0,0,.2,3.06,1.51,1.51,0,0,0,1.49,1.31,1.52,1.52,0,0,0,.66-.15,95.28,95.28,0,0,1,13.69-5.51,1.51,1.51,0,0,0,1-1.72A28.17,28.17,0,0,0,326.14,135.93Z" fill="#525d7d"/><path d="M336,129.42a1.49,1.49,0,0,1,.64,2,8.94,8.94,0,0,0-.47,1.09,4.63,4.63,0,0,0,.54,0,5.27,5.27,0,0,0,3.07-1c-.3-.3-.61-.6-.94-.89a1.5,1.5,0,0,1,1.95-2.28c.36.31.69.62,1,.94a5.66,5.66,0,0,0,.85-2.84,4.26,4.26,0,0,0-2.18-3.49,6.72,6.72,0,0,0-3.57-1.12,5,5,0,0,0-2.25.53,7.88,7.88,0,0,0-1.87,1.55,4.42,4.42,0,0,0-1.3,3.21,5.69,5.69,0,0,0,1.48,3.67,5.55,5.55,0,0,0,.49.48c.17-.42.33-.85.53-1.24A1.49,1.49,0,0,1,336,129.42ZM334.87,126a6.35,6.35,0,0,1,1.1-1,2,2,0,0,1,.9-.2,4,4,0,0,1,1.91.63c.5.33.82.72.82,1a3.44,3.44,0,0,1-.9,2,2.84,2.84,0,0,1-2,1.12,2,2,0,0,1-1.53-.75,2.8,2.8,0,0,1-.71-1.69A1.47,1.47,0,0,1,334.87,126Z" fill="#525d7d"/><path d="M341.75,129.3c-.32-.32-.65-.63-1-.94a1.5,1.5,0,0,0-1.95,2.28c.33.29.64.59.94.89a13.84,13.84,0,0,1,2.55,3.42,52.88,52.88,0,0,0-7.06,2.5,15.25,15.25,0,0,1,.9-4.92,8.94,8.94,0,0,1,.47-1.09,1.5,1.5,0,0,0-2.66-1.39c-.2.39-.36.82-.53,1.24a18.62,18.62,0,0,0-1.19,6.9c0,.59,0,1.17.05,1.74a1.51,1.51,0,0,0,.76,1.22,1.49,1.49,0,0,0,1.44,0,48.52,48.52,0,0,1,10.24-3.76,1.51,1.51,0,0,0,1-1.92A15.44,15.44,0,0,0,341.75,129.3Z" fill="#525d7d"/><path d="M222.5,39.42c4.14-1.86,8.92-3.65,11.41,1.26,1.15,2.27,5.14,1.27,4.92-1.34-.32-3.74-3.4-6.33-7-7.16a10.61,10.61,0,0,0-3.31-.22,1,1,0,0,0-.26-.33c-4.31-4-11.21.76-9.59,6.25A2.61,2.61,0,0,0,222.5,39.42Z" fill="#ffcc80"/><path d="M229.4,130.42a.65.65,0,0,0-1,.13c-4.63,7.21,10.74,9.08,14.6,9.44h.27c-.36,2,2.64,3.38,4.5,3.63,4.57.62,10.23,1,14.51-.92,1.8-.8,1.39-3.29,0-4.19a2.08,2.08,0,0,0,.43-.19c7.58-.36,18.23-1.6,18.75-10.88,0-.53-.66-.62-.91-.25-4.24,6.09-13.14,4.22-19.24,5.91a2.5,2.5,0,0,0-.41.16,1.33,1.33,0,0,0-.59.33,2.83,2.83,0,0,0-.23.28l-.05.06-.07.1a3.88,3.88,0,0,0-.24.45,2.4,2.4,0,0,0-1.6-.63,56.7,56.7,0,0,0-10.8.87c-1.36.21-.85,2.08.3,2.21,3.32.38,6.57,1.06,9.87,1.55a3.77,3.77,0,0,0,.47,0,47.47,47.47,0,0,1-4.9.59c-1.06,0-7.16.68-7.37-.09a.31.31,0,0,0-.05-.1c1.33-1.73.88-5-1.68-5.68a58,58,0,0,0-8-1.42C234.17,131.56,230.77,131.79,229.4,130.42Zm30.26,7.36a2.15,2.15,0,0,0,.5.45c-.5,0-1,.11-1.5.17A2.18,2.18,0,0,0,259.66,137.78Z" fill="#e0dfe6"/><path d="M317.14,92.81c0-.6-.77-.6-1-.13-4.7,11.46-13.4,21.77-26.8,21.79-1-1.91-1.9-3.83-2.95-5.7a9.42,9.42,0,0,0,8.83-1,11.72,11.72,0,0,0,8.48-5.1,1.8,1.8,0,0,0,.32-1,15.75,15.75,0,0,0,2.42-14,.53.53,0,0,0-1,0c-1.36,3.75-2.55,7.72-5.3,10.73s-5.81,3.43-9.65,4a1.42,1.42,0,0,0-1.2,1.23,17.19,17.19,0,0,1-7.43-2.53c-3.26-2-5.47-5.06-7.79-8-.25-.33-.87,0-.84.35.45,5.33,5.86,12.09,11.88,14.77a1.22,1.22,0,0,0-.81,1,36.54,36.54,0,0,0,.55,8.49c0,.24-.08.48-.13.7a40.58,40.58,0,0,0-1,5.22c-.18,2.3,2.62,2.92,4,1.78a6.81,6.81,0,0,0,.7.59c2.06,1.5,4.24-.6,4.5-2.58a7.76,7.76,0,0,0-1.27-4.68c6.37-1.73,13.31-3.39,18.15-8C315.07,105.79,316.75,99.79,317.14,92.81Z" fill="#e0dfe6"/><path d="M285,95.17a8.47,8.47,0,0,0,3.85,2.41,6.91,6.91,0,0,0,7.95-3.24,2.38,2.38,0,0,0,.28-1.49,6.59,6.59,0,0,0,.15-1.57c0-1.32-.51-2.86-1.83-3.41a.64.64,0,0,0-.71.29,9.79,9.79,0,0,0-1,2.48,6.43,6.43,0,0,1-.47,1,2.52,2.52,0,0,0-.42.44c-2.32,3.12-6.78,1.19-8.84-1.2a.5.5,0,0,0-.83.48A8.77,8.77,0,0,0,285,95.17Z" fill="#e0dfe6"/><path d="M312.73,123l.79-.62c4.62-3.7,8.62-6.88,11.61-12.64a40.94,40.94,0,0,0,4.21-9.94,43,43,0,0,0,1.55-11.14,41.91,41.91,0,0,0-11.21-29l-2.08,2.18a38.91,38.91,0,0,1,10.29,26.78A40,40,0,0,1,326.45,99a38.39,38.39,0,0,1-3.94,9.28c-2.74,5.27-6.32,8.13-10.87,11.75l-.69.56a41,41,0,0,1-26.34,4.75v3a47.56,47.56,0,0,0,6.28.43,43.21,43.21,0,0,0,21.66-5.68Z" fill="#525d7d"/><path d="M250.81,88.84a38.51,38.51,0,0,1,1.35-10.2,41.45,41.45,0,0,1,17.35-23.46c6.71-2.88,13.64-5.83,20.29-5.83a37.34,37.34,0,0,1,25.7,10.38l2.07-2.18a40.33,40.33,0,0,0-27.77-11.2c-7.31,0-14.57,3.11-21.59,6.12l-.25.13a44.3,44.3,0,0,0-18.29,24l1.57.69a1.51,1.51,0,0,1-.63,2.87A1.56,1.56,0,0,1,250,80c-.37-.18-.74-.33-1.1-.49a40.67,40.67,0,0,0-1.07,9.31,35.33,35.33,0,0,0,1,9,22.39,22.39,0,0,1,2.94-.6A32.2,32.2,0,0,1,250.81,88.84Z" fill="#525d7d"/><path d="M252.61,100.14a21.58,21.58,0,0,0-3,.56,37.67,37.67,0,0,0,2.88,6.54l3.37-.15c-.07-.12-.14-.24-.22-.36A34.52,34.52,0,0,1,252.61,100.14Z" fill="#525d7d"/><path d="M281.61,126.76v-.16A.85.85,0,0,0,281.61,126.76Z" fill="#525d7d"/><path d="M245.33,134c0-.17,0-.34,0-.5q0-.76,0-1.5C233.75,132,230,131,228.55,126.7c.06,1.34.11,2.69.17,4C231.3,133.28,236.1,134,245.33,134Z" fill="#525d7d"/><path d="M275.07,63.88a.8.8,0,0,0-.16.08,30,30,0,0,0-12.62,17,27.54,27.54,0,0,0-1,7.43,23.77,23.77,0,0,0,.37,4.68,1,1,0,1,0,2-.36,22.06,22.06,0,0,1-.34-4.31,25.76,25.76,0,0,1,.91-6.89,28,28,0,0,1,11.73-15.86c4.53-1.94,9.22-3.94,13.71-3.94a25.22,25.22,0,0,1,17.24,6.88l1.4-1.43a27.25,27.25,0,0,0-18.64-7.45C284.72,59.74,279.81,61.84,275.07,63.88Z" fill="#525d7d"/><path d="M305,111.6a.57.57,0,0,0,.13-.08l.53-.43c3.12-2.49,5.82-4.64,7.84-8.53a28,28,0,0,0,2.85-6.71,29.28,29.28,0,0,0,1-7.52,28.26,28.26,0,0,0-7-19L309,70.78A26.24,26.24,0,0,1,315.4,88.3a27,27,0,0,1-1,7,25.81,25.81,0,0,1-2.67,6.28c-1.85,3.56-4.27,5.49-7.34,7.94l-.47.38a28.12,28.12,0,0,1-19.28,3c0,.68,0,1.35,0,2A30,30,0,0,0,305,111.6Z" fill="#525d7d"/><path d="M260.54,131.59c0,.67.06,1.33.09,2,12.31-1,18.18-3.44,21-7.06,0-1.59,0-3.19,0-4.79C280.32,127.07,275.83,130.42,260.54,131.59Z" fill="#525d7d"/><path d="M280.77,73.23a.51.51,0,0,0-.16.09A18,18,0,0,0,273,83.59a16.62,16.62,0,0,0-.6,4.48,14.52,14.52,0,0,0,.53,4.19A15.36,15.36,0,0,0,274.56,96,17.92,17.92,0,0,0,290,104.41a17.52,17.52,0,0,0,8.8-2.31.57.57,0,0,0,.13-.08l.31-.25A15.53,15.53,0,0,0,304,96.62a16.74,16.74,0,0,0,1.72-4.05A17.33,17.33,0,0,0,306.3,88a17.08,17.08,0,0,0-3.8-10.94L301,78.45A15.05,15.05,0,0,1,304.3,88a15.51,15.51,0,0,1-.56,4,14.78,14.78,0,0,1-1.54,3.62,13.67,13.67,0,0,1-4.22,4.56l-.25.2c-7.28,4.16-17.29,1.65-21.45-5.41a13.41,13.41,0,0,1-1.42-3.28,12.71,12.71,0,0,1-.46-3.64,14.45,14.45,0,0,1,.52-3.94A16.1,16.1,0,0,1,281.64,75c2.74-1.17,5.33-2.27,7.89-2.27a14.43,14.43,0,0,1,9.41,3.53l1.47-1.36a16.4,16.4,0,0,0-10.88-4.17C286.53,70.76,283.6,72,280.77,73.23Z" fill="#525d7d"/><path d="M285.74,81.25a1.19,1.19,0,0,0-.25.13,7.94,7.94,0,0,0-3.27,4.43,7.59,7.59,0,0,0-.26,1.93,6.58,6.58,0,0,0,.24,1.87,6.69,6.69,0,0,0,.72,1.67,7.76,7.76,0,0,0,6.69,3.64,7.52,7.52,0,0,0,3.79-1,1.22,1.22,0,0,0,.19-.12l.11-.1a6.73,6.73,0,0,0,2-2.2,7.09,7.09,0,0,0,.75-1.77,7.68,7.68,0,0,0,.28-2,7.42,7.42,0,0,0-1.27-4.22c-.75.69-1.5,1.4-2.25,2.1a4.36,4.36,0,0,1,.52,2.08,4.54,4.54,0,0,1-.65,2.32,4,4,0,0,1-1.26,1.32,4.89,4.89,0,0,1-6.34-1.62,4,4,0,0,1-.4-.93,3.53,3.53,0,0,1-.13-1,4.19,4.19,0,0,1,.15-1.14A4.78,4.78,0,0,1,287.05,84a6.7,6.7,0,0,1,2.36-.71,4.1,4.1,0,0,1,1.63.34c.76-.73,1.53-1.44,2.3-2.16a7.19,7.19,0,0,0-3.93-1.18A9.44,9.44,0,0,0,285.74,81.25Z" fill="#525d7d"/><path d="M330.46,46.35c.66,0,1.32,0,2,0,2.55-2.57,5.48-5.46,9.18-9l-.25,0A1.51,1.51,0,0,1,340.05,36c0-.4-.06-.79-.1-1.19-4.18,4-7.41,7.22-10.18,10,0,.53,0,1,0,1.54Z" fill="#525d7d"/><path d="M308.29,67.19l-1.4,1.43-1.16,1.18c-1.74,1.76-3.53,3.46-5.32,5.13l-1.47,1.36c-.82.75-1.63,1.5-2.44,2.23l-3.16,2.9c-.77.72-1.54,1.43-2.3,2.16-1,1-2,1.9-3,2.88a1.49,1.49,0,0,0,0,2.12,1.5,1.5,0,0,0,2.12,0c1-1,2-2,3-2.94.75-.7,1.5-1.41,2.25-2.1,1-1,2-1.88,3.06-2.8L301,78.45l1.48-1.36c1.8-1.68,3.61-3.4,5.36-5.19.39-.38.74-.74,1.1-1.12l1.41-1.43c2.8-2.86,5.15-5.3,7.23-7.48l2.08-2.18,2.81-3c2.39-2.52,4.57-4.83,7-7.34-.38,0-.76,0-1.14,0a1.49,1.49,0,0,1-1.08-.41,1.53,1.53,0,0,1-.47-1.07v-.07c-2.23,2.31-4.28,4.47-6.5,6.81l-2.74,2.9-2.07,2.18C313.42,61.9,311.08,64.34,308.29,67.19Z" fill="#525d7d"/><path d="M343.29,34.54A1.46,1.46,0,0,0,343,34s0,0-.07,0c0,.19,0,.37,0,.56Z" fill="#525d7d"/><path d="M327.28,49a1.49,1.49,0,0,0,1.08.41c.38,0,.76,0,1.14,0,3.38,0,6.8.17,10.13.4l1.34.09h.11a1.51,1.51,0,0,0,1.2-.6c2.57-3.44,5.36-6.57,8.3-9.89L351.79,38a1.48,1.48,0,0,0,.27-1.53,1.5,1.5,0,0,0-1.23-1c-1.74-.19-3.52-.44-5.24-.68l-2.3-.32-.36,0c0-.19,0-.37,0-.56q-.28-3.32-.54-6.63l0-.28a1.49,1.49,0,0,0-.91-1.26,1.51,1.51,0,0,0-1.54.22l-3.21,2.63c-3.11,2.53-6.31,5.15-9.43,7.83a1.5,1.5,0,0,0-.52,1.14c0,4,0,7.23.09,10.26v.07A1.53,1.53,0,0,0,327.28,49Zm2.44-10.72c2.92-2.49,5.93-4.95,8.85-7.33l1-.81c.12,1.55.26,3.11.39,4.66,0,.4.07.79.1,1.19a1.51,1.51,0,0,0,1.31,1.35l.25,0c1.19.15,2.38.31,3.56.48l2.48.34c-2.47,2.78-5,5.64-7.28,8.65l-.54,0c-2.42-.17-4.91-.33-7.4-.4-.65,0-1.31,0-2,0h-.67c0-.5,0-1,0-1.54C329.74,42.82,329.73,40.67,329.72,38.26Z" fill="#525d7d"/><path d="M217.33,29l.11-.09Z" fill="#525d7d"/><path d="M217.56,28.81l.13-.07Z" fill="#525d7d"/><path d="M217.83,28.7l.14-.05Z" fill="#525d7d"/><path d="M218.77,40.38c.48,0,1,0,1.46,0-.19-2.9-.33-5.8-.4-8.72h-1.56a1.51,1.51,0,0,1-1.49-1.49c.06,3.93.27,7.85.53,11.76A1.5,1.5,0,0,1,218.77,40.38Z" fill="#525d7d"/><path d="M218.26,28.62l-.14,0Z" fill="#525d7d"/><path d="M217.13,29.17a.81.81,0,0,1,.09-.1A.81.81,0,0,0,217.13,29.17Z" fill="#525d7d"/><path d="M216.85,29.68s0-.09.05-.14S216.87,29.64,216.85,29.68Z" fill="#525d7d"/><path d="M216.8,30a.86.86,0,0,1,0-.16A.86.86,0,0,0,216.8,30Z" fill="#525d7d"/><path d="M217,29.41a.75.75,0,0,1,.07-.12A.75.75,0,0,0,217,29.41Z" fill="#525d7d"/><path d="M221.32,54.14c-.32-3.67-.63-7.24-.89-10.79l-1.57,0A1.5,1.5,0,0,1,217.32,42c.29,4.18.65,8.34,1,12.42l0,.49c1,0,2,0,3,0Z" fill="#525d7d"/><path d="M220.09,57.87h0Z" fill="#525d7d"/><path d="M218.86,43.37l1.57,0c4-.07,8,0,11.93.13,2.16.06,4.33.11,6.48.14a1.52,1.52,0,0,0,1.11-.46,1.5,1.5,0,0,0,.41-1.13c-.24-3.8-.4-7.89-.49-12.16a1.52,1.52,0,0,0-.48-1.07,1.46,1.46,0,0,0-1.1-.39c-3.26.19-6.7.27-11.13.27-2.15,0-4.3,0-6.45,0l-2.42,0-.17,0H218l-.14.05-.14,0-.13.07-.12.07-.11.09a.52.52,0,0,0-.11.1.81.81,0,0,0-.09.1.94.94,0,0,0-.09.12.75.75,0,0,0-.07.12l-.07.13c0,.05,0,.1-.05.14s0,.1,0,.14a.86.86,0,0,0,0,.16.51.51,0,0,0,0,.13,1.51,1.51,0,0,0,1.49,1.51h2.41c2.16,0,4.32,0,6.48,0,3.8,0,6.88-.06,9.75-.2.08,3.16.2,6.21.36,9.12l-4.83-.12c-4-.1-8.14-.2-12.21-.13-.49,0-1,0-1.46,0a1.5,1.5,0,0,0-1.46,1.51.78.78,0,0,0,0,.09A1.5,1.5,0,0,0,218.86,43.37Z" fill="#525d7d"/><path d="M213.07,64.27c1,0,1.9.07,2.86.07,3.63,0,7.29-.29,10.72-.59A1.5,1.5,0,0,0,228,62.17c-.05-.93-.13-1.87-.21-2.82-.09-1.1-.19-2.24-.23-3.34a1.49,1.49,0,0,0-1.64-1.43c-1.5.14-3,.22-4.55.26-1,0-2,0-3,0h-1.92c-1.12,0-2.25,0-3.36,0a1.5,1.5,0,0,0-1.48,1.48l0,1.5c0,.77,0,1.53,0,2.3,0,1,0,1.87.08,2.68A1.49,1.49,0,0,0,213.07,64.27ZM214.59,58V57.9h1.88c1.16,0,2.34,0,3.53,0h.09c1.52,0,3-.07,4.58-.18l.15,1.92c0,.42.08.85.11,1.27a101.38,101.38,0,0,1-10.35.44c0-.35,0-.72,0-1.12C214.56,59.45,214.58,58.71,214.59,58Z" fill="#525d7d"/><path d="M284.61,125.36c0-3.48,0-7,0-10.46,0-.68,0-1.35,0-2,0-1.69,0-3.4,0-5.08a1.5,1.5,0,0,0-1.49-1.52h-1.56c-2.92,0-7.49.11-13.68.33.11.42.21.84.29,1.27a1.5,1.5,0,1,1-2.95.55,12.43,12.43,0,0,0-.44-1.7c-2.73.1-5.72.23-9,.37l-3.37.15-10,.46c-.15.6-.26,1.21-.36,1.83a1.5,1.5,0,0,1-1.48,1.26l-.24,0a1.49,1.49,0,0,1-1.24-1.72c.06-.4.14-.8.22-1.2l-7.76.38-2.56.13a22.58,22.58,0,0,1-2.46-.17,1.44,1.44,0,0,0-1.18.38,1.5,1.5,0,0,0-.49,1.14c.34,14.13,1,28.32,2,42.19a1.51,1.51,0,0,0,1.46,1.39c3.11.08,6.3.12,9.73.12,9,0,18.18-.27,27-.53,5.94-.18,12.08-.36,18.1-.45a1.51,1.51,0,0,0,1.47-1.53c-.1-7.41-.16-15-.17-22.5v-3Zm-19.49,24.52c-8.85.26-18,.53-27,.53-2.91,0-5.64,0-8.29-.08-.45-6.48-.83-13-1.15-19.6-.06-1.34-.11-2.69-.17-4-.22-5.12-.41-10.25-.54-15.38.38,0,.74,0,1.09,0l2.71-.13c26-1.3,42.81-2,49.85-2,0,4.13,0,8.31,0,12.47,0,1.6,0,3.2,0,4.79v.23c0,7.58.05,15.21.15,22.69C276.21,149.55,270.58,149.72,265.12,149.88Z" fill="#525d7d"/><path d="M260.48,129v-.39a1.52,1.52,0,0,0-.47-1.1,1.49,1.49,0,0,0-1.12-.41,54.59,54.59,0,0,1-8.14-.32c-1.34-.11-2.73-.23-4.12-.31a1.5,1.5,0,0,0-1.57,1.67c.15,1.31.21,2.61.23,3.95q0,.74,0,1.5c0,.16,0,.33,0,.5,0,1.3,0,2.64.14,4a1.5,1.5,0,0,0,1.5,1.39c1.88,0,3.79-.1,5.64-.18,2-.08,4.12-.17,6.15-.17h.61a1.43,1.43,0,0,0,1.11-.47,1.5,1.5,0,0,0,.4-1.13l-.05-.74c-.07-1-.14-2.08-.2-3.12,0-.67-.07-1.33-.09-2C260.5,130.71,260.48,129.82,260.48,129Zm-8,7.28c-1.35.05-2.74.11-4.11.15,0-1,0-1.93-.06-2.88,0-1.3,0-2.63-.12-4l2.29.19c2.28.2,4.64.4,7,.38,0,2,.16,4,.29,6C256,136.08,254.22,136.15,252.49,136.23Z" fill="#525d7d"/><path d="M240.44,110.77l.24,0a1.5,1.5,0,0,0,1.48-1.26c.1-.62.21-1.23.36-1.83.75-3,2.36-5.7,7.12-7a21.58,21.58,0,0,1,3-.56,36,36,0,0,1,4.26-.24c3.05,0,6.56,2.34,8,6.82a12.43,12.43,0,0,1,.44,1.7,1.5,1.5,0,1,0,2.95-.55c-.08-.43-.18-.85-.29-1.27-1.55-5.69-6.05-9.7-11.11-9.7a35.42,35.42,0,0,0-5.1.34,22.39,22.39,0,0,0-2.94.6c-6.42,1.77-8.52,5.82-9.41,10-.08.4-.16.8-.22,1.2A1.49,1.49,0,0,0,240.44,110.77Z" fill="#525d7d"/><path d="M198.87,84.05a1.44,1.44,0,0,0,.84-.26c1-.71,2.15-1.39,3.29-2a1.5,1.5,0,0,0-1.46-2.63c-1.22.68-2.4,1.41-3.52,2.18a1.5,1.5,0,0,0,.85,2.73Z" fill="#525d7d"/><path d="M188.81,92.85a1.46,1.46,0,0,0,.84.26,1.51,1.51,0,0,0,1.25-.66,29.83,29.83,0,0,1,2.33-3,1.5,1.5,0,0,0-2.24-2,33.51,33.51,0,0,0-2.58,3.31A1.51,1.51,0,0,0,188.81,92.85Z" fill="#525d7d"/><path d="M202.19,145.74a1.5,1.5,0,0,0-.62,2c.66,1.24,1.22,2.38,1.71,3.5a1.51,1.51,0,0,0,1.38.89,1.41,1.41,0,0,0,.6-.13,1.5,1.5,0,0,0,.77-2c-.53-1.18-1.12-2.39-1.81-3.69A1.51,1.51,0,0,0,202.19,145.74Z" fill="#525d7d"/><path d="M195.33,137.47l1.7,2.66a1.51,1.51,0,0,0,1.27.7,1.51,1.51,0,0,0,1.27-2.31l-1.71-2.67-.45-.7a1.5,1.5,0,1,0-2.53,1.61Z" fill="#525d7d"/><path d="M190.12,129a1.51,1.51,0,0,0,1.3.76,1.59,1.59,0,0,0,.75-.2,1.5,1.5,0,0,0,.55-2c-.7-1.22-1.31-2.35-1.88-3.45a1.5,1.5,0,0,0-2.67,1.36C188.76,126.6,189.4,127.77,190.12,129Z" fill="#525d7d"/><path d="M210.51,78.35a1.55,1.55,0,0,0,.47-.08c1.22-.41,2.48-.78,3.73-1.1a1.5,1.5,0,0,0-.74-2.91c-1.33.34-2.66.73-3.94,1.17a1.5,1.5,0,0,0-.95,1.9A1.52,1.52,0,0,0,210.51,78.35Z" fill="#525d7d"/><path d="M234.68,74.1A1.49,1.49,0,0,0,236,75.78c1.28.18,2.56.4,3.8.68a1.24,1.24,0,0,0,.33,0,1.5,1.5,0,0,0,.33-3c-1.33-.29-2.7-.54-4.07-.72A1.51,1.51,0,0,0,234.68,74.1Z" fill="#525d7d"/><path d="M223.05,72.65a1.5,1.5,0,0,0,.14,3h.15c1.29-.13,2.6-.22,3.9-.26a1.5,1.5,0,0,0-.1-3C225.78,72.43,224.4,72.52,223.05,72.65Z" fill="#525d7d"/><path d="M184.91,111.09a1.5,1.5,0,0,0-1.22,1.73,34.51,34.51,0,0,0,1,4.06,1.49,1.49,0,0,0,1.44,1.08,1.23,1.23,0,0,0,.42-.07,1.49,1.49,0,0,0,1-1.86,32.68,32.68,0,0,1-.87-3.72A1.51,1.51,0,0,0,184.91,111.09Z" fill="#525d7d"/><path d="M184.82,105.1l.2,0a1.51,1.51,0,0,0,1.49-1.3,25.47,25.47,0,0,1,.78-3.69,1.52,1.52,0,0,0-1-1.86,1.5,1.5,0,0,0-1.86,1,31.59,31.59,0,0,0-.87,4.11A1.5,1.5,0,0,0,184.82,105.1Z" fill="#525d7d"/><path d="M250.61,80.14a1.51,1.51,0,0,0,.63-2.87l-1.57-.69-.44-.2a1.5,1.5,0,0,0-1.16,2.77l.81.36c.36.16.73.31,1.1.49A1.56,1.56,0,0,0,250.61,80.14Z" fill="#525d7d"/><path d="M359.06,186.78a32.45,32.45,0,0,1-6.16,1.53q0-.24.09-.51c1.53-9,3.28-19.79,3.28-22.85a1.5,1.5,0,0,0-3,0c0,3.2-2.35,17.11-3.24,22.35-.51,3-.51,3-.06,3.58a1.51,1.51,0,0,0,1.15.53,28.7,28.7,0,0,0,8.85-1.77,31.74,31.74,0,0,1,8-1.76,50,50,0,0,1-3.32,6.57,40.3,40.3,0,0,0-4.43,9.71,1.49,1.49,0,0,0,1.07,1.83,1.58,1.58,0,0,0,.38,0,1.51,1.51,0,0,0,1.45-1.12,38.09,38.09,0,0,1,4.13-9,42.69,42.69,0,0,0,4.12-8.71,2.33,2.33,0,0,0,.07-.53c0-.43-.17-1.84-2.45-1.84A31.55,31.55,0,0,0,359.06,186.78Z" fill="#525d7d"/><path d="M248.15,226.45a1.5,1.5,0,1,0,1.7-2.47,35.24,35.24,0,0,1-3-2.35,1.5,1.5,0,0,0-2,2.27A37.83,37.83,0,0,0,248.15,226.45Z" fill="#525d7d"/><path d="M256.71,230.49a22.11,22.11,0,0,0,4.22.69h.1a1.5,1.5,0,0,0,.09-3,19.07,19.07,0,0,1-3.64-.6,1.5,1.5,0,1,0-.77,2.9Z" fill="#525d7d"/><path d="M238.5,217.15a1.53,1.53,0,0,0,1.18.57,1.48,1.48,0,0,0,.93-.32,1.51,1.51,0,0,0,.25-2.11c-.78-1-1.56-2-2.3-3.15a1.5,1.5,0,0,0-2.48,1.69C236.86,215,237.68,216.09,238.5,217.15Z" fill="#525d7d"/><path d="M231.43,205.9a1.47,1.47,0,0,0,2,.66,1.49,1.49,0,0,0,.66-2c-.58-1.16-1.14-2.35-1.66-3.55a1.5,1.5,0,1,0-2.75,1.21C230.23,203.45,230.82,204.7,231.43,205.9Z" fill="#525d7d"/><path d="M225,189a1.5,1.5,0,0,0-.77,2c.54,1.22,1.13,2.46,1.76,3.7a1.51,1.51,0,0,0,1.61.79,1.53,1.53,0,0,0,.41-.14,1.5,1.5,0,0,0,.65-2c-.61-1.18-1.17-2.37-1.68-3.53A1.5,1.5,0,0,0,225,189Z" fill="#525d7d"/><path d="M300.11,257.66c5.51-1.09,11.06-1.92,16.56-3,3.59-.73,7.18-1.45,10.79-2,3.42-.52,7.19-.33,10.4-1.66a5.06,5.06,0,0,0,1.25-.75,10.45,10.45,0,0,0,5.68-6.83c1.2-4.42,0-9.15-.91-13.5-2.45-11.37-2.73-23.52-8.71-33.81a1.16,1.16,0,0,0-2.12.89c1.74,6,2,12.32,2,18.61a32.13,32.13,0,0,0-1.4-5.8,5.91,5.91,0,0,0-.88-1.61c.26-.41.52-.82.75-1.23,2.41-4.41-3.41-9.2-7.07-5.46-5.46,5.59-10.73,11.26-16.45,16.61-2.74,2.57-5.52,5.54-9.2,6.73a10.85,10.85,0,0,1-2.9.51c-.66-1.44-2.64-2.4-4-.91l-.51.56c-1.25-.2-2.5-.43-3.75-.59-.71-.09-.95.88-.54,1.32a18.17,18.17,0,0,0,1.93,1.81c-5,5.3-10,10.59-13.27,17.13a1,1,0,0,0,1.76,1c4.33-6,10-10.83,15.55-15.71,5.18,2.17,11.06,1.31,16.28-2.2.31-.2.6-.43.91-.64a33.33,33.33,0,0,1,8.72,9.31c-1.84.51-3.77,1.28-5.18,1.64-6.63,1.67-13.27,3.29-19.88,5.05-3.88,1-11.29,1.61-14.1,4.71a1.18,1.18,0,0,0,.24,1.83c2.25,1.18,5.15.47,7.59.24,3.59-.34,7.17-.67,10.75-1-7.93,2.22-16.84,6.24-24.95,4.69a1.17,1.17,0,0,0-1.13,1.94C280.53,262,292.47,259.18,300.11,257.66Zm34.55-21.48c.25-1.75.47-3.61.64-5.53.1,1.46.21,2.92.25,4.38,0,1.3.3,3.53-.38,4.74-.26.44-.9.67-1.64,1.06A20,20,0,0,0,334.66,236.18Zm-19.82-10.91c2.88-2.18,5.68-4.57,8.32-6.94l.44-.39c.34,5,1,10.07.55,15.18a.77.77,0,0,0,0,.15A40.3,40.3,0,0,0,314.84,225.27Z" fill="#e0dfe6"/><path d="M271.89,243.71c-.19,5.32-.29,8.26,1.61,9.95a6,6,0,0,0,4.3,1.25,80.23,80.23,0,0,0,10.39-1.22A429.35,429.35,0,0,1,333.93,249a1.5,1.5,0,0,0,1.42-1.55c-.09-3.08-.22-6.69-.35-10.46-.33-9.49-.71-20.23-.71-25.79,0-3.71.18-6.53.32-8.59.23-3.59.33-5.23-.94-6.24s-2.83-.53-6.23.52c-6.76,2.08-20.8,6.41-51.31,6.41l-3.09,0a1.5,1.5,0,0,0-.05,3l3.14,0c28.48,0,42.88-3.73,50.38-6,1.15-1.14,2.31-2.26,3.5-3.32a1.5,1.5,0,0,1,2,2.24l-.25.23c0,.77-.07,1.87-.14,3-.13,2.1-.32,5-.32,8.78,0,5.61.38,16.38.71,25.89.11,3.19.22,6.26.31,9-2.2.12-4.3.25-6.35.39v0a1.5,1.5,0,1,1-2.68,1.34l-.58-1.13c-16.54,1.22-27.77,2.91-35,4-6.94,1.06-11.13,1.69-12.24.7,0,0-.05-.07-.08-.1a1.52,1.52,0,0,1-1,.43,1.67,1.67,0,0,1-.44-.06,1.5,1.5,0,0,1-1-1.87,39.52,39.52,0,0,1,1.9-5c0-.33,0-.65,0-1a152.54,152.54,0,0,0-2.1-33.12v0a1.78,1.78,0,0,1-.19-.5,1.47,1.47,0,0,0-1.53-.71,1.49,1.49,0,0,0-1.23,1.72A149.55,149.55,0,0,1,271.89,243.71Z" fill="#525d7d"/><path d="M273,211c1,1,2.06,2.13,3.14,3.28,3.81,4.07,8,8.51,13.09,10.72.49-.56,1-1.12,1.47-1.69a1.51,1.51,0,0,1,1.17-.51c-5.13-1.61-9.39-6.15-13.54-10.57-1.1-1.17-2.14-2.28-3.21-3.35a1.51,1.51,0,0,0-2.12,0,1.48,1.48,0,0,0-.39,1.32,1.78,1.78,0,0,0,.19.5A1.57,1.57,0,0,0,273,211Z" fill="#525d7d"/><path d="M293,225.26l-.65.74a16,16,0,0,0,3.49.4,20.55,20.55,0,0,0,10-2.79,1.51,1.51,0,0,1-.08-2,1.49,1.49,0,0,1,2.11-.2l.65.56c5-3.39,9.54-8.3,14-13.12,3-3.21,6.09-6.51,9.26-9.37l.25-.23a1.5,1.5,0,0,0-2-2.24c-1.19,1.06-2.35,2.18-3.5,3.32-2.12,2.11-4.19,4.31-6.21,6.48-8,8.53-15.48,16.59-24.51,16.59a12.63,12.63,0,0,1-3.22-.42,1.24,1.24,0,0,1,.23.17A1.49,1.49,0,0,1,293,225.26Z" fill="#525d7d"/><path d="M290.68,223.29c-.48.57-1,1.13-1.47,1.69l-.47.54c-5.2,5.92-10.54,12-13.89,19.29a39.52,39.52,0,0,0-1.9,5,1.5,1.5,0,0,0,1,1.87,1.67,1.67,0,0,0,.44.06,1.52,1.52,0,0,0,1-.43,1.42,1.42,0,0,0,.4-.64c2.69-9,9-16.19,15.17-23.18l1.31-1.5.65-.74a1.49,1.49,0,0,0-.15-2.11,1.24,1.24,0,0,0-.23-.17,1.56,1.56,0,0,0-.72-.2A1.51,1.51,0,0,0,290.68,223.29Z" fill="#525d7d"/><path d="M308.46,222l-.65-.56a1.49,1.49,0,0,0-2.11.2,1.51,1.51,0,0,0,.08,2l.12.11c7.65,6.33,13,15.45,16.81,23l.58,1.13a1.5,1.5,0,0,0,2.68-1.34v0C322.06,238.69,316.56,228.94,308.46,222Z" fill="#525d7d"/><path d="M75.65,111.56A7.86,7.86,0,0,0,82.24,113a22.72,22.72,0,0,0,6.63-1.87c4.11-2.21,1.26-9.51-3.25-7.71-1.86.74-2.86,2-4.39,3.09a7.5,7.5,0,0,1-4,1.23C75.58,107.9,73.92,110.21,75.65,111.56Z" fill="#e0dfe6"/><path d="M139.82,83.57a30.23,30.23,0,0,0,4.42-.43,26.76,26.76,0,0,1,4-.41h1c-.41.75-1.09,1.84-1.83,3-1.34,2.15-3.18,5.11-5.57,9.28a1.5,1.5,0,0,0,.56,2,1.5,1.5,0,0,0,2.05-.56c2.35-4.12,4.17-7,5.51-9.19,2.45-3.93,3.19-5.12,2.45-6.44s-2-1.18-3.79-1.17h-.42a28.9,28.9,0,0,0-4.41.44,26.7,26.7,0,0,1-4,.4h-.08c.29-.45.7-1,1.06-1.52a30.55,30.55,0,0,0,5-9.41,1.52,1.52,0,0,0-1-1.86,1.5,1.5,0,0,0-1.86,1,27.21,27.21,0,0,1-4.55,8.49c-1.51,2.1-2.51,3.49-1.78,4.91S139.06,83.57,139.82,83.57Z" fill="#525d7d"/><path d="M79.09,110.33a6.7,6.7,0,0,0,6.65-6.88,3.16,3.16,0,0,0-.35-1.51C84,99.43,80.91,98.1,76.57,98.1c-2.21,0-3.81,2.24-3.81,5.32A7.59,7.59,0,0,0,74.19,108,5.86,5.86,0,0,0,79.09,110.33Zm-2.52-9.23c1.8,0,5,.3,6.17,2.24v.11a3.69,3.69,0,0,1-3.65,3.88,2.93,2.93,0,0,1-2.51-1.16,4.67,4.67,0,0,1-.82-2.75C75.76,102,76.32,101.1,76.57,101.1Z" fill="#525d7d"/><path d="M148,106.63a1.54,1.54,0,0,0,.85.26,1.5,1.5,0,0,0,1.23-.65c.79-1.15,1.55-2.18,2.31-3.15a1.5,1.5,0,0,0-2.36-1.86c-.8,1-1.59,2.1-2.42,3.31A1.51,1.51,0,0,0,148,106.63Z" fill="#525d7d"/><path d="M105.31,249a1.51,1.51,0,0,0-2.12,0c-3.1,3-5.27,4.83-6.71,6-1.91,1.61-2.71,2.27-2.34,3.48s1.45,1.29,2.72,1.44a27.41,27.41,0,0,1,5.06,1c-.41.45-.94,1-1.52,1.63-1.21,1.28-2.88,3-5.07,5.49a1.49,1.49,0,0,0,1.11,2.5,1.51,1.51,0,0,0,1.12-.5c2.17-2.42,3.82-4.16,5-5.43,2.63-2.78,3.33-3.53,3-4.77s-1.32-1.38-2.22-1.63l-.48-.14a30.55,30.55,0,0,0-4.26-.95c1.4-1.18,3.64-3.08,6.66-6A1.49,1.49,0,0,0,105.31,249Z" fill="#525d7d"/><path d="M161.9,54.89c9.44,2.21,21.32-1.87,27-9.73a2.42,2.42,0,0,0,.5-1.55c.21-.27.42-.53.61-.81,2.33-3.28,2.26-7.15,3.58-10.8.39-1.08-1.25-2.08-2-1.15-1.93,2.44-2.83,5.44-4.71,7.89a14.79,14.79,0,0,1-3.66,3.36l-3.05,1.73-.4.19a2.16,2.16,0,0,0-.49.31c-4.93,2.75-9.72,5-16.07,4.31-7.41-.8-12.18-5.55-16.91-10.79a.63.63,0,0,0-1.06.44C146.17,46.66,154.1,53.06,161.9,54.89Z" fill="#e0dfe6"/><path d="M169.92,28.83a25,25,0,0,0,5.68-5.61,3.15,3.15,0,0,0,3,0c3.06-1.69,8.34-5,8.69-9a4.39,4.39,0,0,0-1.95-3.9c-2.51-1.75-4.67-2.31-6.6-4.94s-6.06-.39-5,2.13c-.52.84-1.14,1.8-1.26,2q-1.43,2.72-2.92,5.4A67.1,67.1,0,0,0,165,25C164,27.75,167.53,30.42,169.92,28.83Zm6-18.58a23,23,0,0,0,1.61,1.67l.07.06a18.27,18.27,0,0,0-2.36,1.73C175.47,12.49,175.71,11.31,175.87,10.25Z" fill="#e0dfe6"/><path d="M190.23,27.13c-1.63,9.54-10.91,19.08-23.71,19.08A21.3,21.3,0,0,1,144.91,25.3c0-6.95,3.78-13.48,9.45-17.65-.23-.53-.47-1.07-.7-1.61a1,1,0,0,1,.53-1.31,1,1,0,0,1,1.31.53c.18.42.36.84.55,1.26a23.13,23.13,0,0,1,10.62-3.45c.73,0,1.39-.07,2-.07a22.77,22.77,0,0,1,3.84.33c.15-.5.29-1,.44-1.52a1,1,0,1,1,1.92.56c-.14.46-.27.93-.4,1.39A21.9,21.9,0,0,1,188,14.61l1.14-.76a1,1,0,0,1,1.12,1.66l-1.39.93a20,20,0,0,1,1.63,7.75,16.93,16.93,0,0,1-.25,2.92,1.49,1.49,0,0,1,1.66-1.3c.5.05,1,.13,1.5.21.05-.61.09-1.22.09-1.83A24.83,24.83,0,0,0,168.7,0c-.71,0-1.44,0-2.23.08C153.16,1,141.91,12.5,141.91,25.3a24.3,24.3,0,0,0,24.61,23.91A27.18,27.18,0,0,0,192.89,29c-.45-.07-.9-.14-1.34-.19A1.51,1.51,0,0,1,190.23,27.13Z" fill="#525d7d"/><path d="M164.36,30.32a1,1,0,0,0,.6.55,1.19,1.19,0,0,0,.32.05,1,1,0,0,0,.49-.13c7.14-4,14.71-8.74,23.08-14.35l1.39-.93a1,1,0,0,0-1.12-1.66l-1.14.76C180.7,19.5,174,23.7,167.73,27.36L167,29.75a1,1,0,0,1-1,.72,1.26,1.26,0,0,1-.28,0,1,1,0,0,1-.68-1.24c.12-.43.24-.85.37-1.28L162.4,21c-2.1-4.73-4.27-9.61-6.35-14.45-.19-.42-.37-.84-.55-1.26a1,1,0,0,0-1.31-.53A1,1,0,0,0,153.66,6c.23.54.47,1.08.7,1.61,2,4.75,4.16,9.51,6.22,14.14C161.84,24.63,163.11,27.47,164.36,30.32Z" fill="#525d7d"/><path d="M165.49,27.91c-.13.43-.25.85-.37,1.28a1,1,0,0,0,.68,1.24,1.26,1.26,0,0,0,.28,0,1,1,0,0,0,1-.72l.69-2.39q1.88-6.43,3.7-12.88,1.51-5.35,3.07-10.72c.13-.46.26-.93.4-1.39A1,1,0,1,0,173,1.81c-.15.51-.29,1-.44,1.52q-1.53,5.31-3,10.61Q167.52,20.93,165.49,27.91Z" fill="#525d7d"/><path d="M55.84,142.49a12.65,12.65,0,0,0,3.74-1.09,39.59,39.59,0,0,1,4.29-1.08,5.08,5.08,0,0,0,3.9-3.14,30.58,30.58,0,0,0,2-9.38c0-1.75-2.63-2.61-3.43-.93-1.3,2.74-1,8.54-3.93,9.86-1.16.53-2.55.72-3.75,1.23-1.76.76-3.85,2.45-5.86,1.72a.57.57,0,0,0-.63.83A3.89,3.89,0,0,0,55.84,142.49Z" fill="#e0dfe6"/><path d="M53.14,171.63a1.1,1.1,0,0,0,.29,2.15c4.71.51,9.63-1.72,14.05-3.15,5.6-1.79,11.33-3.3,16.85-5.33a2.28,2.28,0,0,0,1.5-2.71,1.86,1.86,0,0,0,1.42-2.4c-1.73-5.41-5.25-11-8.56-15.57-.6-.84-2.12-.38-1.77.74,1.59,5.09,3.54,10.9,6.23,15.6C72.68,163.36,63.12,168,53.14,171.63Z" fill="#e0dfe6"/><path d="M83.79,159.53c-2.31-6.35-4.24-12.94-6.11-19.32-1.56-5.32-3.17-10.83-5-16.21a1.49,1.49,0,0,0-1.87-.94C61.53,126,52.48,129,41.48,132.8a1.5,1.5,0,0,0-.93,1.88c4.07,12.67,8.11,25.64,11.57,36.79a1.48,1.48,0,0,0,.75.89,1.51,1.51,0,0,0,.68.16,1.36,1.36,0,0,0,.49-.08c6.52-2.25,12.41-4.57,18.65-7,3.3-1.3,6.72-2.64,10.23-4A1.51,1.51,0,0,0,83.79,159.53Zm-12.2,3.1c-5.74,2.25-11.17,4.39-17.07,6.47-3.23-10.41-6.92-22.26-10.67-33.94l2.86-1c-.22-.24-.45-.47-.66-.71a1.5,1.5,0,1,1,2.23-2c.5.56,1,1.1,1.54,1.65,4.61-1.57,8.93-3,13.15-4.39.1-.7.21-1.4.31-2.09A1.49,1.49,0,0,1,65,125.35a1.52,1.52,0,0,1,1.28,1.7c0,.21-.07.43-.1.64l4.15-1.33c1.63,4.88,3.09,9.86,4.5,14.69,1.75,6,3.55,12.12,5.68,18.12C77.43,160.33,74.47,161.5,71.59,162.63Z" fill="#525d7d"/><path d="M52.15,140.42a1.5,1.5,0,0,0,1.23.64,1.49,1.49,0,0,0,.47-.07q2.44-.81,4.87-1.57,2.58-.81,5.14-1.65a1.52,1.52,0,0,0,1-1.23q.38-2.81.8-5.58c.16-1.09.32-2.18.47-3.27,0-.21.07-.43.1-.64a1.52,1.52,0,0,0-1.28-1.7,1.49,1.49,0,0,0-1.69,1.28c-.1.69-.21,1.39-.31,2.09s-.17,1.2-.26,1.8c-.23,1.56-.46,3.12-.68,4.69-1.4.46-2.81.9-4.21,1.35L54,137.8a50.87,50.87,0,0,0-3.78-4.31c-.12-.12-.23-.25-.35-.38-.52-.55-1-1.09-1.54-1.65a1.5,1.5,0,1,0-2.23,2c.21.24.44.47.66.71.43.46.85.93,1.28,1.38A43.49,43.49,0,0,1,52.15,140.42Z" fill="#525d7d"/><path d="M63.38,146.85l4.54-1.41a1.5,1.5,0,1,0-.92-2.86c-1.5.48-3,.94-4.5,1.4-3,.91-6.07,1.85-9.14,3a1.5,1.5,0,0,0,.52,2.9,1.58,1.58,0,0,0,.52-.09C57.39,148.67,60.43,147.74,63.38,146.85Z" fill="#525d7d"/><path d="M63.46,153.76a57.09,57.09,0,0,1,8-2.64,1.5,1.5,0,0,0,1.14-1.79,1.51,1.51,0,0,0-1.8-1.14A60.87,60.87,0,0,0,62.39,151a71.41,71.41,0,0,1-6.91,2.39,1.5,1.5,0,0,0,.38,3,1.74,1.74,0,0,0,.39-.05A71.12,71.12,0,0,0,63.46,153.76Z" fill="#525d7d"/><path d="M73,154.19c-2.4.6-4.73,1.43-7,2.23A52.49,52.49,0,0,1,57.2,159a1.5,1.5,0,0,0,.24,3,1.14,1.14,0,0,0,.26,0,56.07,56.07,0,0,0,9.35-2.72c2.18-.78,4.44-1.58,6.7-2.15a1.52,1.52,0,0,0,1.09-1.83A1.49,1.49,0,0,0,73,154.19Z" fill="#525d7d"/><path d="M254.09,265.09c1.7-2.4-1.66-5.73-4.06-4.06-2,1.39-4,3.79-6.43,4.27-2.76.55-4.86-1.82-5.71-4.22a1.1,1.1,0,0,0-2.15.29,8.68,8.68,0,0,0,5.81,9.52C246.53,272.46,251.37,269,254.09,265.09Z" fill="#e0dfe6"/><path d="M245.75,261c-.06-1.42-.11-2.84-.11-4.29a1,1,0,0,0-2,0c0,1.43,0,2.81.11,4.2H244Z" fill="#525d7d"/><path d="M243.85,262.89c0,.52.05,1,.08,1.57l.15,2.67a1,1,0,0,0,1,.95h0a1,1,0,0,0,1-1.05l-.15-2.69c0-.46-.05-.9-.07-1.36Z" fill="#525d7d"/><path d="M250.15,260.82a20.7,20.7,0,0,1-3,.19l-1.43,0L244,260.9h-.22a43.74,43.74,0,0,0-4.45-.08,1,1,0,0,0-1,1.05,1,1,0,0,0,1,.95c1.5-.07,3,0,4.46.08l2,.09,1.32,0a23.3,23.3,0,0,0,3.26-.21,1,1,0,1,0-.29-2Z" fill="#525d7d"/><path d="M245,250.05a23,23,0,0,0-2.5.18c-5.77.78-8.79,6.44-8.79,11.63a10.89,10.89,0,0,0,10.83,11.19,11.59,11.59,0,0,0,11.77-11.93A11,11,0,0,0,245,250.05Zm-.46,20a7.93,7.93,0,0,1-7.83-8.19c0-3.79,2.17-8.11,6.19-8.65a17.71,17.71,0,0,1,2.1-.16c4,0,8.31,2.82,8.31,8.07A8.67,8.67,0,0,1,244.5,270.05Z" fill="#525d7d"/><path d="M300.75,275.49c2.53-1.36,5.78-5.3,8.75-4.79,1.55.27,4.52,3.94,5.74,5,1.43,1.24,2.79,2.64,4.31,3.76,5.51,4.07,9.59-.89,14.57-3.79.52-.3,3-2.31,3.49-2.31,1,0,4.08,4,4.92,4.79,1.92,1.72,3.79,3,6.5,2.59,3-.45,5.4-3,7.69-4.81,3.52-2.83,7.08-5.63,10.46-8.62,2.87-2.54-1-7.76-4.17-5.4-3.33,2.51-6.53,5.18-9.75,7.83-1.3,1.07-3.5,3.77-5.2,3.66s-3.27-2.5-4.46-3.61c-1.88-1.75-3.46-3.41-6.23-3.07-3,.37-6.21,2.92-8.7,4.51-.9.58-3.79,3.33-4.74,3.27s-3.49-2.65-4.23-3.26c-2.41-2-5.13-5.31-8.17-6.43-4.92-1.82-11,4.76-12.84,8.61A1.52,1.52,0,0,0,300.75,275.49Z" fill="#e0dfe6"/><path d="M300.52,273.7c3.49-2.83,7.13-5.58,10.85-8.36,3.45,3.4,7,6.9,10.36,10.43a1.49,1.49,0,0,0,1.92.21c2.67-1.77,5.51-3.43,8.27-5,2.39-1.39,4.85-2.83,7.23-4.35l2.25,2.27a104.74,104.74,0,0,0,8.06,7.65,1.5,1.5,0,0,0,1.81.07c2.8-2,5.54-4,8.19-6.05,3-2.23,6-4.54,9.1-6.66a1.5,1.5,0,0,0-1.7-2.48c-3.17,2.17-6.24,4.5-9.21,6.75-2.33,1.77-4.73,3.59-7.16,5.32-2.43-2.1-4.73-4.43-6.95-6.7-1-1.06-2.09-2.12-3.14-3.16a1.5,1.5,0,0,0-1.88-.18c-2.62,1.73-5.41,3.36-8.11,4.93-2.44,1.42-5,2.89-7.37,4.45-3.33-3.45-6.78-6.86-10.13-10.16l-.35-.34a1.5,1.5,0,0,0-1.94-.13c-4.12,3.06-8.14,6.07-12,9.2a1.5,1.5,0,0,0,1.9,2.33Z" fill="#525d7d"/><path d="M4.47,245.64c-.83,3.22-.23,9,3,10.85s8.05-.65,10.33-3c2.6-2.66,4.13-8.26.31-10.53a2.61,2.61,0,0,0-.54-.24,8.75,8.75,0,0,0-5.67-3.09C8.19,239.41,5.35,242.25,4.47,245.64Zm8.84.54c0,.32,0,.66-.06,1.07a2.17,2.17,0,0,1-.37,1.12,3.81,3.81,0,0,1-1.65,1.3c-.08-.34-.15-.67-.21-1s-.09-.65-.12-1a11.93,11.93,0,0,1,2-1.87A2.1,2.1,0,0,1,13.31,246.18Z" fill="#ffcc80"/><path d="M12.75,261.84a1.46,1.46,0,0,0,.61.13,1.5,1.5,0,0,0,1.21-.6,74.82,74.82,0,0,1,6.67-7.5l2.29-2.39a1.5,1.5,0,0,0,.37-1.36c-.24-1.12-.49-2.23-.73-3.35-.62-2.89-1.27-5.87-2-8.8a1.52,1.52,0,0,0-1.19-1.1c-1.87-.33-3.78-.57-5.62-.8s-3.91-.5-5.82-.85a1.51,1.51,0,0,0-1.39.46c-1.68,1.87-3.32,3.79-4.91,5.65L.36,243.49a1.51,1.51,0,0,0-.31,1.37c.36,1.35.74,2.69,1.13,4,.76,2.69,1.55,5.47,2.14,8.2a1.47,1.47,0,0,0,.94,1.09c2.3.86,5.2,2.17,7.74,3.33Zm-6.67-6.18c-.59-2.56-1.31-5.11-2-7.59-.19-.66-.37-1.32-.55-2L1.34,245a1,1,0,0,1,.88-1.79l1.63.79.65-.76c1.4-1.64,2.84-3.33,4.31-5,1.72.3,3.46.52,5.16.73,1.28.16,2.6.34,3.9.54.43-.43.86-.85,1.27-1.28a1,1,0,0,1,1.41,0,1,1,0,0,1,0,1.42c-.56.57-1.12,1.14-1.69,1.7.47,2,.92,4,1.35,6,.19.87.37,1.73.56,2.6l-1.72,1.78c-1.87,1.93-3.78,3.92-5.53,6,0,.16.1.32.16.47l.61,1.88a1,1,0,0,1-.65,1.26,1.06,1.06,0,0,1-.31.05,1,1,0,0,1-.95-.7l-.61-1.87-.3-.92C9.67,257.16,7.77,256.32,6.08,255.66Z" fill="#525d7d"/><path d="M8.67,248.14a1,1,0,0,1,2-.43c.11.54.26,1.08.39,1.62a1,1,0,0,0,.41-.28c1.8-2.12,3.83-4.11,5.8-6,.55-.53,1.11-1.07,1.66-1.62s1.13-1.13,1.69-1.7a1,1,0,0,0,0-1.42,1,1,0,0,0-1.41,0c-.41.43-.84.85-1.27,1.28-.68.67-1.36,1.35-2,2-1.83,1.79-3.71,3.62-5.43,5.6-2.16-1-4.37-2.08-6.56-3.14l-1.63-.79A1,1,0,0,0,1.34,245l2.17,1.05c1.76.86,3.53,1.7,5.28,2.53Z" fill="#525d7d"/><path d="M12.41,260.78a1,1,0,0,0,.95.7,1.06,1.06,0,0,0,.31-.05,1,1,0,0,0,.65-1.26l-.61-1.88c-.06-.15-.11-.31-.16-.47-.91-2.77-1.81-5.62-2.53-8.49-.13-.54-.28-1.08-.39-1.62a1,1,0,0,0-2,.43l.12.48c.73,3.19,1.72,6.32,2.71,9.37l.3.92Z" fill="#525d7d"/><path d="M353.15,68c-5.49,1-7.67,9-3.48,12.65a6.81,6.81,0,0,0,7,1.23l.3-.36c1.13-1.36,2.3-2.69,3.47-4a3.18,3.18,0,0,1,1-.75,6.9,6.9,0,0,0,0-3.35,4.49,4.49,0,0,0-3.23-3.11A4.51,4.51,0,0,0,353.15,68Z" fill="#ffcc80"/><path d="M357,81.53l-.3.36-1.4,1.7q-.54,1.6-1.89.75c-1.18-.14-3-1.83-4-2.53a32.47,32.47,0,0,0-3.76-2.67c-.88-.47-2.31.33-1.87,1.43,1.48,3.62,5.79,8.39,9.56,9.71,4.67,1.63,9.14-5.35,11.73-8.16s-.9-6.74-3.64-5.36a3.18,3.18,0,0,0-1,.75C359.3,78.84,358.13,80.17,357,81.53Z" fill="#e0dfe6"/><path d="M356,65.73a1.51,1.51,0,0,0-2.09.07c-.89.91-2,1.88-3.37,3A87,87,0,0,0,342.75,76a1.49,1.49,0,0,0-.41,1.13,1.53,1.53,0,0,0,.56,1.08c1.38,1.1,2.74,2.22,4.09,3.34,2.1,1.73,4.28,3.53,6.49,5.21a1.49,1.49,0,0,0,2.07-.25c1.65-2,3.5-3.95,5.28-5.81,1.45-1.51,2.95-3.07,4.35-4.69a1.5,1.5,0,0,0-.18-2.14c-2.28-1.87-4.5-3.92-6.65-5.9Zm2.71,12.85c-1.5,1.56-3.05,3.17-4.51,4.87-1.78-1.39-3.54-2.85-5.26-4.27l-2.84-2.33c2.45-2.46,4.6-4.26,6.37-5.76.94-.78,1.79-1.5,2.55-2.19l1.34,1.23c1.81,1.67,3.66,3.38,5.58,5C360.85,76.31,359.74,77.46,358.67,78.58Z" fill="#525d7d"/><path d="M11.77,92.66a1.5,1.5,0,1,0,.13,3c.51,0,1,0,1.54,0,14.7,0,27.87,8.8,32.46,21.52.65.08,1.17.18,1.57.25l.48.08c.11-.28.24-.68.38-1.07.07-.22.16-.47.25-.74-5.17-13.65-19.36-23-35.14-23C12.88,92.62,12.32,92.63,11.77,92.66Z" fill="#525d7d"/><path d="M48,117.47l-.48-.08c-.4-.07-.92-.17-1.57-.25a31.16,31.16,0,0,0-4.08-.25c-1.82,0-3.65.1-5.42.19s-3.61.18-5.43.18a1.5,1.5,0,0,0,0,3c1.9,0,3.77-.09,5.58-.19s3.53-.18,5.27-.18a26.39,26.39,0,0,1,5.13.45,7.71,7.71,0,0,0,1.31.14c1.68,0,2.17-.94,2.91-3.11a81.64,81.64,0,0,1,6.08-13.62,1.5,1.5,0,0,0-2.65-1.42,88.49,88.49,0,0,0-6,13.33c-.09.27-.18.52-.25.74C48.19,116.79,48.06,117.19,48,117.47Z" fill="#525d7d"/></svg>