<svg width="127" height="126" viewBox="0 0 127 126" fill="none" xmlns="http://www.w3.org/2000/svg">
<path d="M63.7285 125C98.2215 125 126.184 97.0178 126.184 62.5C126.184 27.9822 98.2215 0 63.7285 0C29.2355 0 1.27344 27.9822 1.27344 62.5C1.27344 97.0178 29.2355 125 63.7285 125Z" fill="#EAEEF9"/>
<mask id="mask0_29_1149" style="mask-type:alpha" maskUnits="userSpaceOnUse" x="0" y="-1" width="128" height="127">
<path d="M63.7285 125C98.2215 125 126.184 97.0178 126.184 62.5C126.184 27.9822 98.2215 0 63.7285 0C29.2355 0 1.27344 27.9822 1.27344 62.5C1.27344 97.0178 29.2355 125 63.7285 125Z" fill="#F1F3F9" stroke="#D6DCE8" stroke-width="2" stroke-miterlimit="10"/>
</mask>
<g mask="url(#mask0_29_1149)">
<g filter="url(#filter0_d_29_1149)">
<path d="M104.562 22.3283V129.341C104.562 132.021 102.357 134.228 99.6792 134.228H26.4904C23.8126 134.228 21.6074 132.021 21.6074 129.341V22.3283C21.6074 19.6486 23.8126 17.4418 26.4904 17.4418H99.6792C102.357 17.4418 104.562 19.6486 104.562 22.3283Z" fill="url(#paint0_linear_29_1149)"/>
</g>
<path d="M104.562 22.3283V25.875H21.6074V22.3283C21.6074 19.6486 23.8126 17.4418 26.4904 17.4418H99.6792C102.357 17.4418 104.562 19.6486 104.562 22.3283Z" fill="url(#paint1_linear_29_1149)"/>
<path d="M26.4017 23.1953C27.2281 23.1953 27.8981 22.5249 27.8981 21.6979C27.8981 20.8708 27.2281 20.2004 26.4017 20.2004C25.5752 20.2004 24.9053 20.8708 24.9053 21.6979C24.9053 22.5249 25.5752 23.1953 26.4017 23.1953Z" fill="#EAEEF9"/>
<path opacity="0.6" d="M31.0486 23.1953C31.8751 23.1953 32.545 22.5249 32.545 21.6979C32.545 20.8708 31.8751 20.2004 31.0486 20.2004C30.2222 20.2004 29.5522 20.8708 29.5522 21.6979C29.5522 22.5249 30.2222 23.1953 31.0486 23.1953Z" fill="#EAEEF9"/>
<path opacity="0.4" d="M35.7742 23.1953C36.6007 23.1953 37.2706 22.5249 37.2706 21.6979C37.2706 20.8708 36.6007 20.2004 35.7742 20.2004C34.9478 20.2004 34.2778 20.8708 34.2778 21.6979C34.2778 22.5249 34.9478 23.1953 35.7742 23.1953Z" fill="#EAEEF9"/>
<rect opacity="0.6" x="32.0391" y="33.5029" width="20.3488" height="3.87597" rx="1.93798" fill="#C2C8D6"/>
<rect opacity="0.6" x="32.0391" y="58.6967" width="20.3488" height="3.87597" rx="1.93798" fill="#C2C8D6"/>
<rect opacity="0.6" x="32.0391" y="83.8905" width="20.3488" height="3.87597" rx="1.93798" fill="#C2C8D6"/>
<rect x="32.0391" y="41.6666" width="62.9845" height="9.68992" rx="2" fill="white" stroke="#989FB0" stroke-width="1.5"/>
<rect x="36.8838" y="45.5426" width="20.3488" height="1.93798" rx="0.968992" fill="#989FB0"/>
<rect opacity="0.6" x="32.0391" y="67.4177" width="62.9845" height="9.68992" rx="2" fill="#C2C8D6"/>
<rect opacity="0.6" x="32.0391" y="92.6115" width="62.9845" height="9.68992" rx="2" fill="#C2C8D6"/>
<rect opacity="0.6" x="48.5117" y="109.496" width="30.0388" height="9.68992" rx="2" fill="#C2C8D6"/>
<rect opacity="0.6" x="55.2949" y="113.372" width="16.4729" height="1.93798" rx="0.968992" fill="#989FB0"/>
<path d="M103.818 56.2105C103.663 56.4422 103.586 56.5967 103.276 56.7512L99.7165 58.2188C99.1749 58.4506 98.6332 58.7595 98.2463 59.1457C97.8594 59.532 97.5499 59.9182 97.4725 60.4589L96.0023 64.012C95.8475 64.5527 95.2285 64.7845 94.8416 64.5527C94.6868 64.3983 94.4546 64.321 94.4546 64.1665L87.5677 49.0269C87.413 48.7952 87.413 48.4862 87.5677 48.3317C87.7225 48.1 88.1094 47.9455 88.4963 48.1L103.663 54.9746C103.818 55.2836 103.972 55.8243 103.818 56.2105Z" fill="#989FB0"/>
<path d="M106.449 65.4797C106.294 65.4797 106.217 65.4797 106.062 65.3252L101.11 60.3044C100.878 60.0727 100.878 59.6092 101.11 59.532C101.342 59.3002 101.806 59.3002 101.883 59.532L106.836 64.4755C107.068 64.7072 107.068 65.1707 106.836 65.2479C106.836 65.4797 106.604 65.4797 106.449 65.4797Z" fill="#989FB0"/>
<path d="M101.419 65.4796C101.265 65.4796 101.187 65.4796 101.032 65.3251L98.7884 63.0851C98.5562 62.8534 98.5562 62.3899 98.7884 62.3127C99.0205 62.0809 99.4848 62.0809 99.5622 62.3127L101.806 64.5527C102.038 64.7844 102.038 65.2479 101.806 65.3251C101.806 65.4796 101.729 65.4796 101.419 65.4796Z" fill="#989FB0"/>
</g>
<defs>
<filter id="filter0_d_29_1149" x="-0.392578" y="6.44183" width="126.955" height="160.786" filterUnits="userSpaceOnUse" color-interpolation-filters="sRGB">
<feFlood flood-opacity="0" result="BackgroundImageFix"/>
<feColorMatrix in="SourceAlpha" type="matrix" values="0 0 0 0 0 0 0 0 0 0 0 0 0 0 0 0 0 0 127 0" result="hardAlpha"/>
<feOffset dy="11"/>
<feGaussianBlur stdDeviation="11"/>
<feColorMatrix type="matrix" values="0 0 0 0 0.397708 0 0 0 0 0.47749 0 0 0 0 0.575 0 0 0 0.27 0"/>
<feBlend mode="normal" in2="BackgroundImageFix" result="effect1_dropShadow_29_1149"/>
<feBlend mode="normal" in="SourceGraphic" in2="effect1_dropShadow_29_1149" result="shape"/>
</filter>
<linearGradient id="paint0_linear_29_1149" x1="63.0578" y1="14.7405" x2="63.0578" y2="135.487" gradientUnits="userSpaceOnUse">
<stop stop-color="#FDFEFF"/>
<stop offset="0.9964" stop-color="#ECF0F5"/>
</linearGradient>
<linearGradient id="paint1_linear_29_1149" x1="101.272" y1="17.4419" x2="24.2264" y2="20.0805" gradientUnits="userSpaceOnUse">
<stop stop-color="#B0BACC"/>
<stop offset="1" stop-color="#969EAE"/>
</linearGradient>
</defs>
</svg>
