<svg xmlns="http://www.w3.org/2000/svg" viewBox="0 0 384.83 272.66"><path fill="#525d7d" d="M89.69 183a120.6 120.6 0 0 0 13.1.54h4.48a1.5 1.5 0 0 0 0-3h-4.48A116.14 116.14 0 0 1 90 180a1.5 1.5 0 0 0-.34 3Zm-.21 9.89c3.39-.12 6.89-.25 10.34-.25 2.75 0 5.21.08 7.5.25h.11a1.5 1.5 0 0 0 .1-3c-2.36-.16-4.88-.25-7.71-.25-3.5 0-7 .13-10.44.25a1.5 1.5 0 1 0 .1 3Zm8.79 8.45c-2.7.16-5.48.34-8.2.34a1.5 1.5 0 0 0 0 3c2.81 0 5.64-.18 8.38-.35 3.36-.2 6.82-.41 10.21-.3a1.48 1.48 0 0 0 1.55-1.45 1.5 1.5 0 0 0-1.45-1.55c-3.51-.12-7.07.1-10.49.31Zm-25.59-15.73a3.72 3.72 0 0 0 3.89-3.34 2.85 2.85 0 0 0 .06-.52c0-1.9-2.61-2.52-3.88-2.71a1.53 1.53 0 0 0-.89-.29c-1.49 0-2.89 1.93-2.89 3.42a3.63 3.63 0 0 0 3.71 3.44Zm-.62-3.61a6.21 6.21 0 0 1 1.44.34 1.26 1.26 0 0 1-.82.31c-.38 0-.71-.29-.71-.42a.76.76 0 0 1 .09-.23Zm2.29 8.12a1.51 1.51 0 0 0-.9-.14 1.5 1.5 0 0 0-.52-.09 3.3 3.3 0 0 0-3.05 3.54c0 2 1.65 3.47 4 3.47 1.85 0 3.24-2.06 3.24-3.4.01-1.99-1.73-2.86-2.77-3.38Zm-.57 3.78c-.38 0-.9-.1-.9-.47a1 1 0 0 1 .15-.54h.12a3.9 3.9 0 0 1 1 .59 1.63 1.63 0 0 1-.37.42Zm1.61 7.63a1 1 0 0 1-.29 0 1.31 1.31 0 0 0-.63-.16 1.43 1.43 0 0 0-1.26-.26 4 4 0 0 0-2.8 3.62 3.11 3.11 0 0 0 3.34 2.9c1.83 0 3.76-1.12 3.76-3.2a3.47 3.47 0 0 0-1-2.43 1.77 1.77 0 0 0-1.12-.47Zm-1.64 3.07a.74.74 0 0 1-.28 0 2 2 0 0 1 .25-.39 3 3 0 0 0 .72.27 1.48 1.48 0 0 1-.69.12Zm17.94 10.74a118.25 118.25 0 0 0 13.1.55h4.48a1.5 1.5 0 0 0 0-3h-4.48a116.14 116.14 0 0 1-12.79-.53 1.5 1.5 0 0 0-.34 3Zm-.21 9.87c3.39-.12 6.89-.25 10.34-.25 2.75 0 5.21.08 7.5.24h.11a1.5 1.5 0 0 0 .1-3c-2.36-.17-4.88-.25-7.71-.25-3.5 0-7 .13-10.44.25a1.5 1.5 0 0 0 .1 3Zm8.79 8.45c-2.7.16-5.48.33-8.2.33a1.5 1.5 0 0 0 0 3c2.81 0 5.64-.17 8.38-.34 3.36-.2 6.82-.42 10.21-.3a1.48 1.48 0 0 0 1.55-1.45 1.5 1.5 0 0 0-1.45-1.55c-3.51-.12-7.07.1-10.49.31Zm-25.59-15.73a3.72 3.72 0 0 0 3.89-3.34 2.85 2.85 0 0 0 .06-.52c0-1.9-2.61-2.52-3.88-2.71a1.46 1.46 0 0 0-.89-.29c-1.49 0-2.89 1.93-2.89 3.42a3.63 3.63 0 0 0 3.71 3.44Zm-.62-3.65a5.74 5.74 0 0 1 1.44.34 1.32 1.32 0 0 1-.82.31c-.38 0-.71-.29-.71-.42a.76.76 0 0 1 .09-.23Zm2.29 8.16a42.16 42.16 0 0 1-1.42-.23 3.3 3.3 0 0 0-3.05 3.53c0 2 1.65 3.48 4 3.48 1.85 0 3.24-2.06 3.24-3.4.01-1.99-1.73-2.82-2.77-3.38Zm-.57 3.78c-.38 0-.9-.1-.9-.48a1 1 0 0 1 .15-.53h.12a4.21 4.21 0 0 1 1 .6 1.63 1.63 0 0 1-.37.41Zm1.61 7.63a.75.75 0 0 1-.29 0 1.42 1.42 0 0 0-.63-.15 1.47 1.47 0 0 0-1.26-.27 4.06 4.06 0 0 0-2.8 3.63 3.11 3.11 0 0 0 3.34 2.9c1.83 0 3.76-1.12 3.76-3.2a3.47 3.47 0 0 0-1-2.43 1.77 1.77 0 0 0-1.12-.48Zm-1.64 3.07a.74.74 0 0 1-.28 0 2 2 0 0 1 .25-.39 4.1 4.1 0 0 0 .72.27 1.48 1.48 0 0 1-.69.12Z"/><path fill="#e0dfe6" d="M255 198.63c-3.47-2.13-8.31-2.14-12.69-2 2.14-8.23-.42-17.52-.78-26.11 0-.49-.81-.66-.89-.12-1.49 9.46-6.46 17.73-9.43 26.72-4.32.24-8.63.57-12.94.89-3.12.23-6.27.45-9.4.43-2.45 0-5.3-1.1-7.64-.62-2.61.52-4.06 3.45-4.42 6-.83.22-1.67.46-2.51.71a9.09 9.09 0 0 0 1.4-2.41 2.25 2.25 0 0 0 .13-.42c1.1-1.26 2.17-2.48 3.16-3.85.77-1.09-.68-2.07-1.64-1.64a19 19 0 0 0-3.09 1.77 3.6 3.6 0 0 0-2.32-.8c-2.21.11-4.08 1.25-6.28 1.23-2.93 0-5.22-1.78-7-4a34.32 34.32 0 0 1-7.36-17.25c-.05-.43-.7-.61-.82-.11-2 8.66-1.84 18.3 4.41 25.23a17.3 17.3 0 0 0 12.49 5.4 13.73 13.73 0 0 0-1.94 1.63 1.29 1.29 0 0 0 .56 2.12c5.37 1.29 11.23-.33 16.69-.37 6.11-.06 12.2.16 18.3.42 9.94.42 24.95 2.53 32.86-5a4.65 4.65 0 0 0 1-5.15l.15-.07a1.59 1.59 0 0 0 0-2.63Zm-54.54 4.28a2.61 2.61 0 0 1 .27-.22 4 4 0 0 1 3-.53c-1.09.22-2.17.48-3.24.75ZM144 114.36a6.39 6.39 0 0 1 1-1 1.13 1.13 0 0 0 .89.91 80.54 80.54 0 0 0 12 1.22c2.74.09 6 .69 8.73-.17a11.86 11.86 0 0 0 1.08.5c2.74 1 4.5-3.32 2-4.69-.23-.13-.45-.27-.67-.41a4.26 4.26 0 0 0-4.28-4.84 4.33 4.33 0 0 0-2.11.52c-2.5-.75-5.37-.2-7.87.15-4.41.62-11.22 1.61-12.22 6.94-.14.8.82 1.57 1.45.87Z"/><path fill="#525d7d" d="M172.71 118c2.51 3.83 3.78 8.88 3.78 15 0 9.05-2.42 17.46-4.76 25.59-2.29 8-4.66 16.17-4.66 24.83 0 14.5 5.91 24.44 17.54 29.53a1.69 1.69 0 0 0 .54.12c19.82.87 44.47 1.51 45.32 1.51 23 0 28.23-9.87 30.18-17.3a1.5 1.5 0 0 0-1.48-1.88l-3.91.07c-3.28.07-6.67.14-10 .1v-16.79a208.06 208.06 0 0 1 1-23.43 111.73 111.73 0 0 0 .66-12.19c0-15.61-2.74-25.29-8.89-31.38-7.46-7.4-19.2-8.71-36-8.83a7 7 0 0 1-.81 2 1 1 0 0 1-.86.5 1 1 0 0 1-.5-.14 1 1 0 0 1-.36-1.37 5.52 5.52 0 0 0 .44-1c-3.34 0-6.84 0-10.57.06s-7.72.07-11.87.07h-6.8c-17.29-.18-28.71-.3-31.86 12.49a1.52 1.52 0 0 0 .29 1.3 1.47 1.47 0 0 0 1.2.56c6.29-.13 12.65.07 18.82.27 4.39.11 8.99.31 13.56.31Zm-30.44-3.62c2.53-6.73 8.82-8.13 20.16-8.32a19.1 19.1 0 0 0-5.09-.66 27.91 27.91 0 0 0-8.82 1.55 1 1 0 0 1-.63-1.9 30.11 30.11 0 0 1 9.45-1.65 18.2 18.2 0 0 1 10.06 2.6h10.03c4.16 0 8.13 0 11.9-.07 23-.21 38.23-.35 46.56 7.9 5.46 5.41 8 14.7 8 29.25a107.12 107.12 0 0 1-.65 11.9 212.78 212.78 0 0 0-1 23.72v17.41c2.05-.13 4-.31 5.88-.55a1 1 0 1 1 .26 2c-1.82.24-3.72.41-5.69.54a1.53 1.53 0 0 0 1 .43c3.89.09 7.82 0 11.61-.07h1.85c-2.25 6.49-7.89 13.15-26.7 13.15-.88 0-25.47-.65-44.9-1.49-.25-.11-.48-.24-.72-.35a24.91 24.91 0 0 1-4 .49 1 1 0 0 1-.09-2c.39 0 .77-.05 1.15-.08-7.88-5-11.87-13.28-11.87-24.73 0-8.23 2.21-15.89 4.54-24 2.4-8.32 4.88-16.93 4.88-26.41 0-7-1.58-12.83-4.67-17.23.61 1.44 1.12 2.87 1.59 4.21a34.8 34.8 0 0 0 2.13 5.16 1 1 0 0 1-.37 1.36 1 1 0 0 1-1.36-.37 35.81 35.81 0 0 1-2.28-5.48 57.14 57.14 0 0 0-2.26-5.67c-4.38 0-8.8-.17-13.1-.3-5.47-.24-11.2-.42-16.85-.37Z"/><path fill="#525d7d" d="M221.13 195.79c-4.78-.25-9.72-.51-14.61-.51-2.78 0-5.63.12-7.54.22a1 1 0 0 0-.84.57c-3.6 7.55-8.76 11.4-16.2 12.06-.38 0-.76.07-1.15.08a1 1 0 0 0 .05 2 24.85 24.85 0 0 0 4-.49c6.53-1.35 11.42-5.38 14.83-12.25 1.85-.09 4.37-.19 6.84-.19 4.84 0 9.75.26 14.5.51s9.69.52 14.57.52c2.51 0 4.86-.08 7.11-.22 2-.13 3.87-.3 5.69-.54a1 1 0 1 0-.26-2c-1.88.24-3.83.42-5.88.55s-4.32.19-6.66.19c-4.81.02-9.71-.24-14.45-.5ZM172.27 115a57.14 57.14 0 0 1 2.26 5.67 35.81 35.81 0 0 0 2.28 5.48 1 1 0 0 0 1.73-1 34.8 34.8 0 0 1-2.13-5.16c-.47-1.34-1-2.77-1.59-4.21-1.53-3.65-3.67-7.35-7.42-9.75a18.2 18.2 0 0 0-10.06-2.63 30.11 30.11 0 0 0-9.45 1.65 1 1 0 0 0 .63 1.9 27.91 27.91 0 0 1 8.82-1.55 19.1 19.1 0 0 1 5.09.66c5.16 1.38 7.95 4.94 9.84 8.94Zm28.54 6.94c6.6.44 13.35.66 20.09.66a1.5 1.5 0 0 0 0-3c-6.67 0-13.36-.22-19.89-.65a1.5 1.5 0 0 0-.2 3Zm.8 17.83a1.5 1.5 0 0 0 1.5 1.5h22.18a1.5 1.5 0 0 0 0-3h-22.18a1.5 1.5 0 0 0-1.5 1.5Zm15.02 18.8c-4.47.09-9.08.18-13.65.56a1.5 1.5 0 0 0 .13 3h.12c4.47-.37 9-.46 13.46-.55 3.34-.06 6.8-.13 10.22-.32a1.5 1.5 0 0 0 1.41-1.58 1.48 1.48 0 0 0-1.58-1.42c-3.36.18-6.74.25-10.11.31Zm9.27 17.92-2.21-.27A133.73 133.73 0 0 0 207.8 175c-1.77 0-3.42.06-5 .2a1.5 1.5 0 0 0 .26 3c1.53-.13 3.1-.19 4.78-.19a131.28 131.28 0 0 1 15.53 1.24l2.22.27h.18a1.51 1.51 0 0 0 1.49-1.33 1.49 1.49 0 0 0-1.36-1.7Zm-2.46 12.94c-2.47.16-5 .18-7.51.19a77.52 77.52 0 0 0-14 .94 1.5 1.5 0 0 0 .27 3h.28a76.3 76.3 0 0 1 13.43-.88c2.53 0 5.13 0 7.69-.19a1.5 1.5 0 0 0-.19-3Zm-40.57-65.9a6.29 6.29 0 0 0 1.81-1.88 8.69 8.69 0 0 1 1.61-1.81c.11.06 1 .72 1.63 6.91a1 1 0 0 0 1 .9h.1a1 1 0 0 0 .9-1.1c-.57-5.68-1.45-8.18-3-8.63s-2.73 1.14-3.77 2.52a7.89 7.89 0 0 1-1.11 1.3 1 1 0 1 0 .89 1.79Zm7.28 15.21c0-1.86-1-3.06-2.66-3.06a2.6 2.6 0 0 0-2.73 2.77 1 1 0 0 0 2 0c0-.56.2-.77.73-.77.2 0 .66 0 .66 1.06 0 1.22-1.63 2.34-2.72 3.09s-1.9 1.3-1.59 2.27 1.3 1.22 5.57 1.22a9.58 9.58 0 0 1 1.07.05h.11a1 1 0 0 0 .11-2c-.41 0-.83-.06-1.29-.06h-2.54c1.41-1.02 3.28-2.45 3.28-4.57ZM188.12 159a4.57 4.57 0 0 0 .39-1.91 2.64 2.64 0 0 0-2.48-2.38 6.35 6.35 0 0 0-3.7 2.21 1 1 0 0 0 1.6 1.2 5.56 5.56 0 0 1 2.07-1.41.94.94 0 0 1 .51.38 1.86 1.86 0 0 1-1 1.89 1 1 0 0 0-.58 1.22 1.13 1.13 0 0 0 1.3.74h1c.57 0 1.52.23 1.52 1.1a2.41 2.41 0 0 1-2.45 2 4.42 4.42 0 0 1-1.88-.61 1 1 0 0 0-1.34.45 1 1 0 0 0 .45 1.34 6.09 6.09 0 0 0 2.77.82c2.11 0 4.45-1.66 4.45-4a3.08 3.08 0 0 0-2.63-3.04Zm-1.96 17.9h.26a1 1 0 0 0 .42-1.9c-.19.59-.39 1.16-.61 1.72a1.34 1.34 0 0 1-.07.18Zm-2.16-.01.33-.88c.15-.37.28-.74.41-1.11h-1.55a12.44 12.44 0 0 0 1.17-3.29 1 1 0 0 0-.78-1.17 1 1 0 0 0-1.18.78 10.18 10.18 0 0 1-1 2.79c-.36.72-.69 1.4-.27 2.09s1.02.76 2.87.79Z"/><path fill="#525d7d" d="M184 176.89a14.62 14.62 0 0 0-.7 2.45 1 1 0 0 0 .81 1.16h.18a1 1 0 0 0 1-.82 15.87 15.87 0 0 1 .86-2.79 1.34 1.34 0 0 0 .07-.18c.22-.56.42-1.13.61-1.72a10 10 0 0 0 .58-3.16 1 1 0 0 0-2 0 9.08 9.08 0 0 1-.65 3.06c-.13.37-.26.74-.41 1.11Zm-3.51 16.37.51 1.5a1 1 0 0 0 .62.62 1 1 0 0 0 .88-.12 5 5 0 0 1 2.63-1c.42 0 1.4.09 1.4.89 0 1.77-2.08 3.06-3.8 2.79a1 1 0 0 0-1.15.83 1 1 0 0 0 .84 1.14 4.77 4.77 0 0 0 .76.06c2.53 0 5.35-2 5.35-4.82 0-1.73-1.37-2.89-3.4-2.89a6.06 6.06 0 0 0-2.63.67c0-.1-.07-.21-.11-.32l-.39-1.16c1.21-.63 2.52-1.25 4.06-1.92a1 1 0 1 0-.79-1.83c-1.92.83-3.5 1.59-5 2.39a1 1 0 0 0-.47 1.21c.26.7.48 1.32.69 1.96Zm19.3-87.95a1 1 0 0 0 .5.14 1 1 0 0 0 .86-.5 7 7 0 0 0 .81-2 9.57 9.57 0 0 0 .28-2.42c0-6.76-3.37-10.33-9.74-10.33a50.89 50.89 0 0 0-10.66 1.55 49.19 49.19 0 0 1-10.15 1.49c-4.17 0-10.61-2-10.61-4.65 0-3.66 12.25-6 31.22-6h12.74c24.58 0 24.58-2.89 24.58-4.13 0-1.91-5.14-7-16.73-7-12.63 0-29.61 1.67-44.59 3.14-11.12 1.09-20.72 2-26 2s-11.94-.47-15.64-4.17a1 1 0 0 0-1.42 0 1 1 0 0 0 0 1.41c4.22 4.22 11.33 4.76 17.06 4.76 5.38 0 15-.94 26.19-2 14.94-1.47 31.87-3.13 44.4-3.13 9.84 0 14.27 3.81 14.71 4.89-.76.79-6.31 2.19-22.56 2.19H192.3c-15.16 0-33.22 1.39-33.22 8 0 4.64 8.35 6.65 12.61 6.65a50.23 50.23 0 0 0 10.58-1.54 49.09 49.09 0 0 1 10.23-1.5c5.28 0 7.74 2.64 7.74 8.33a7.41 7.41 0 0 1-.37 2.42 5.52 5.52 0 0 1-.44 1 1 1 0 0 0 .36 1.4Z"/><path fill="#e0dfe6" d="M99 76.41c4.5 3.89 11.49 5.4 16.5 2.56 5.75-.39 10.93-5.92 11-11.72a1.48 1.48 0 0 0-2.73-.74 10.94 10.94 0 0 1-4.77 4.76 3.48 3.48 0 0 0-4.68-1c-3.88 2.5-8.33 1.52-11.69-1.4-3.61-3.13-4.16-7.15-6.06-11.19a1.22 1.22 0 0 0-1.91-.25C90 63.12 94.2 72.3 99 76.41Zm-37.53 77.52a2.48 2.48 0 0 0 .65-4.85 12.55 12.55 0 0 0-5.24-.53 13 13 0 0 0-4.56.66 1.26 1.26 0 0 0-.25 2 12.85 12.85 0 0 0 4.21 1.79 12.64 12.64 0 0 0 5.19.93Zm8.14.48a1.53 1.53 0 0 0 .4 3 37.51 37.51 0 0 1 8.63 2.34c3.93 1.42 5.79-5.48 1.71-6.2a21.9 21.9 0 0 0-10.74.86Zm27.17-1.58a99.21 99.21 0 0 1-10.13 1.59c-1.66.17-2.31 2.71-.42 3.13a51.68 51.68 0 0 0 11.36 1.3c4.35 0 3.67-6.93-.81-6.02Zm-30.02-24.01c3.6 1.09 7.16 2 10.84 2.79 3.41.73 6.93 1.86 10.43 1.71 3.85-.16 4.78-5.72.92-6.81-6.59-1.87-15-1-21.8-.57a1.47 1.47 0 0 0-.39 2.88Z"/><path fill="#525d7d" d="m77.26 124.23-1.69-.09c-2.68-.13-5.43-.26-8.16-.5.9-4.67 1.5-9.43 2-14l16.92 1.41c-.31 2-.59 4-.86 6-.35 2.5-.7 5.07-1.11 7.61-2.34-.23-4.68-.36-7-.47a1.5 1.5 0 0 1 1.34 1.6c0 .48-.07 1-.12 1.46 2.16.12 4.33.26 6.47.49h.55a1.49 1.49 0 0 0 1.48-1.25c.51-3 .94-6.1 1.35-9.08.34-2.48.7-5.06 1.1-7.56a1.58 1.58 0 0 0 0-.65c-.64.51-1.29 1-2 1.5a1.44 1.44 0 0 1-.88.3 1.52 1.52 0 0 1-1.21-.61 1.5 1.5 0 0 1 .32-2.1l.44-.34-18-1.49a1.5 1.5 0 0 0-1.61 1.34c-.43 4-.93 8.14-1.61 12.28A1.5 1.5 0 0 1 66 123l-1.67.78c-.06.3-.11.6-.17.89a1.56 1.56 0 0 0 .33 1.2 1.64 1.64 0 0 0 1.12.61c3.29.36 6.61.51 9.83.67h.17l.12-1.54a1.5 1.5 0 0 1 1.53-1.38Zm21.56 18.18c-.89-.12-1.77-.23-2.66-.32-.34 0-.71-.06-1-.09 0 .49-.1 1-.15 1.49a1.5 1.5 0 0 1-1.49 1.35h-.15a1.5 1.5 0 0 1-1.37-1.65c0-.5.09-1 .14-1.45-1.48-.09-3-.16-4.5-.2a1.51 1.51 0 0 0-1.54 1.4c-.08 1.28-.19 2.59-.34 4-.18 1.64-.41 3.43-.72 5.62a1.51 1.51 0 0 0 .29 1.12 1.48 1.48 0 0 0 1 .58l1.72.2c2.44.26 4.92.42 7.32.58l1.92.12h.1a1.5 1.5 0 0 0 1.48-1.3c.18-1.34.34-2.67.49-4 .22-1.88.45-3.83.76-5.74a1.54 1.54 0 0 0-.28-1.13 1.49 1.49 0 0 0-1.02-.58Zm-2.46 7.12c-.09.85-.19 1.7-.3 2.56h-.52c-2.37-.15-4.82-.31-7.19-.56h-.15c.21-1.56.38-2.92.52-4.21.1-.93.18-1.82.25-2.68 2.36.09 4.66.25 6.87.49l1.06.12c-.2 1.4-.37 2.86-.54 4.28ZM75.61 142h-.2a1.49 1.49 0 0 1-1.29-1.68c.07-.51.13-1 .19-1.48l-2.74-.34a1.56 1.56 0 0 0-1.14.34 1.47 1.47 0 0 0-.53 1c-.05.74-.12 1.47-.2 2.21-.22 2.1-.56 4.25-.88 6.33-.13.83-.26 1.66-.38 2.49a1.5 1.5 0 0 0 1.26 1.7l1.61.23c2.55.37 5.18.75 7.73 1.3a1.63 1.63 0 0 0 .31 0 1.49 1.49 0 0 0 1.47-1.1c.75-3.56 1.21-7.2 1.65-10.73l.1-.75a1.5 1.5 0 0 0-1.25-1.67c-1.29-.21-2.62-.41-4-.61-.06.48-.13 1-.19 1.48a1.51 1.51 0 0 1-1.52 1.28Zm2.56 8.89c-2.15-.41-4.32-.72-6.43-1h-.11l.15-1c.33-2.11.67-4.3.91-6.47 0-.25 0-.5.07-.75 2.46.3 4.62.59 6.65.9-.35 2.76-.72 5.59-1.24 8.34Zm-18.24-10.21h-.18a1.5 1.5 0 0 1-1.31-1.68c.07-.49.12-1 .17-1.47l-1.53-.17-2.46-.25a1.49 1.49 0 0 0-1.62 1.28c-.39 2.77-.91 5.77-1.64 9.45a1.51 1.51 0 0 0 .26 1.18 1.48 1.48 0 0 0 1 .6 96.91 96.91 0 0 1 10 1.48 1.66 1.66 0 0 0 .32 0 1.5 1.5 0 0 0 1.52-1.1 58.94 58.94 0 0 0 1.44-8.43c.06-.57.12-1.15.17-1.72a1.49 1.49 0 0 0-1.32-1.63l-2.47-.22-.68-.08-.18 1.5a1.49 1.49 0 0 1-1.49 1.26Zm3 .36v.22a60.34 60.34 0 0 1-1 6.61c-2.49-.47-5-.79-7.28-1.05.47-2.44.85-4.58 1.15-6.59l1 .11c1.72.19 3.44.38 5.17.59Z"/><path fill="#525d7d" d="M78.59 127.3c0-.49.08-1 .12-1.46a1.5 1.5 0 0 0-1.34-1.6h-.11a1.5 1.5 0 0 0-1.54 1.38l-.12 1.54c-.11 1.26-.23 2.57-.38 3.94l3 .49c.12-1.5.26-2.92.37-4.29Zm-4.28 11.54c-.06.48-.12 1-.19 1.48a1.49 1.49 0 0 0 1.29 1.68h.2a1.51 1.51 0 0 0 1.49-1.31c.06-.51.13-1 .19-1.48.22-1.72.41-3.24.57-4.67-1-.15-2-.32-3-.48-.13 1.47-.32 3.02-.55 4.78Zm-15.14-9a1.52 1.52 0 0 1 1.74-1.22l.42.08a1.37 1.37 0 0 0-.75-.22 1.47 1.47 0 0 0-1.51 1.52c0 2.52-.18 5-.45 7.54-.06.52-.11 1-.18 1.5a1.5 1.5 0 0 0 1.31 1.67h.18a1.49 1.49 0 0 0 1.49-1.31l.18-1.5v-.05c.21-2 .33-4 .4-6l-1.61-.28a1.51 1.51 0 0 1-1.22-1.73Z"/><path fill="#525d7d" d="M93.32 144.83h.15a1.5 1.5 0 0 0 1.53-1.34c.05-.52.1-1 .15-1.49.23-2.41.4-4.52.52-6.49a1.49 1.49 0 0 0-1.31-1.58c-5.35-.67-10.72-1.47-16.13-2.35l-3-.49c-4.59-.76-9.22-1.57-13.89-2.39l-.42-.08a1.5 1.5 0 1 0-.52 3l1.61.28q6.5 1.15 12.9 2.22c1 .16 2 .33 3 .48 4.92.8 9.81 1.54 14.68 2.17-.11 1.54-.25 3.18-.42 5-.05.48-.09.95-.14 1.45a1.5 1.5 0 0 0 1.29 1.61Zm15.1-82.14-.65.46c-2 1.46-4.12 3-6.2 4.3a1.5 1.5 0 0 0 .81 2.76 1.56 1.56 0 0 0 .82-.24c2.13-1.38 4.26-2.9 6.32-4.38l.64-.46c-.37-.5-.73-1-1.08-1.52Zm7.91-5.32c-1.87 1.12-3.68 2.34-5.46 3.58l.66.94 1.07 1.51c1.73-1.21 3.48-2.39 5.27-3.46a1.5 1.5 0 0 0-1.54-2.57Z"/><path fill="#525d7d" d="M110.87 61a50.92 50.92 0 0 0-4-5.09 1.5 1.5 0 1 0-2.21 2 46.78 46.78 0 0 1 3.74 4.8l.66.92c.35.51.71 1 1.08 1.52a37.06 37.06 0 0 0 5.34 6.29 1.48 1.48 0 0 0 2.11-.11 1.49 1.49 0 0 0-.11-2.12 34.55 34.55 0 0 1-4.9-5.79l-1.07-1.51Z"/><path fill="#525d7d" d="M118.09 45.47c-.4-.25-.81-.49-1.21-.7a14.41 14.41 0 0 0-3.13-1.18 1.49 1.49 0 0 1-1.4 1.55h-.09a1.5 1.5 0 0 1-1.5-1.41v-.57C103.64 43 96.81 48 93.52 54.34a18.82 18.82 0 0 0 7.64 25.44 20.85 20.85 0 0 0 9.58 2.32A20.46 20.46 0 0 0 129 71.39a15.74 15.74 0 0 0 1.73-7.3c-.02-6.9-4.38-13.34-12.64-18.62ZM126.3 70c-4.3 8.29-15.18 11.55-23.76 7.1a15.81 15.81 0 0 1-6.36-21.39c3.37-6.5 9.07-9.49 14.12-9.49a11.28 11.28 0 0 1 5.2 1.21c.32.17.65.35 1 .56 5.13 3.28 11.24 8.73 11.23 16.09A12.76 12.76 0 0 1 126.3 70Zm-98.56 82.77a1.5 1.5 0 0 0-1.84 1.06c-.34 1.3-.63 2.66-.86 4a1.5 1.5 0 0 0 1.25 1.72h.24a1.5 1.5 0 0 0 1.47-1.19 36.22 36.22 0 0 1 .79-3.76 1.49 1.49 0 0 0-1.05-1.83Zm6.11-11.38a1.51 1.51 0 0 0-2.1.3 35.56 35.56 0 0 0-2.31 3.48 1.51 1.51 0 0 0 .55 2.05 1.48 1.48 0 0 0 .75.2 1.5 1.5 0 0 0 1.3-.75 33 33 0 0 1 2.1-3.18 1.5 1.5 0 0 0-.29-2.1Zm7.66-8.89c-1.17.82-2.27 1.65-3.28 2.49a1.49 1.49 0 0 0-.2 2.11 1.48 1.48 0 0 0 1.15.55 1.51 1.51 0 0 0 1-.35c1-.78 2-1.57 3.09-2.34a1.5 1.5 0 0 0-1.72-2.46ZM55 126.55a1.51 1.51 0 0 0-2-.67c-1.21.61-2.41 1.22-3.59 1.86a1.5 1.5 0 1 0 1.42 2.64c1.15-.62 2.33-1.22 3.52-1.82a1.5 1.5 0 0 0 .65-2.01ZM66.7 121a1.5 1.5 0 0 0-1.72-.81 1 1 0 0 0-.27.1l-3 1.42-.59.27a1.5 1.5 0 0 0 .64 2.86 1.44 1.44 0 0 0 .63-.14l.59-.28 1.37-.64L66 123a1.5 1.5 0 0 0 .7-2Zm39.7-35.48a1.5 1.5 0 0 0-2 .7c-.56 1.18-1.17 2.34-1.8 3.46a1.5 1.5 0 1 0 2.61 1.47c.66-1.17 1.3-2.39 1.9-3.63a1.5 1.5 0 0 0-.71-2Zm-6.58 11.19a1.5 1.5 0 0 0-2.11.24c-.8 1-1.64 2-2.51 3a1.5 1.5 0 0 0 1.11 2.51 1.48 1.48 0 0 0 1.11-.5c.92-1 1.81-2.06 2.65-3.13a1.5 1.5 0 0 0-.25-2.12Zm-14.38 13.78a1.52 1.52 0 0 0 1.21.61 1.44 1.44 0 0 0 .88-.3c.68-.49 1.33-1 2-1.5.42-.33.85-.67 1.26-1a1.5 1.5 0 0 0-1.95-2.3c-.84.7-1.73 1.39-2.64 2.07l-.44.34a1.5 1.5 0 0 0-.32 2.08Z"/><path fill="#ffcc80" d="M259 96.1c-6 6.46-7.92 15.64-8.2 24.27-.19 6.25 8.73 5.86 9.47 0 .05-.36.08-.72.11-1.08 7.75 7.34 11.23 22.14 24.79 19l.85-.21a5.89 5.89 0 0 1 5.69-4.75c1.38 0 2.84.11 4.31.24 6.6-4.21 11.93-10.59 8.4-17.6a5.34 5.34 0 0 0-2-2.16 5.39 5.39 0 0 0 3.57-2.17 5.42 5.42 0 0 1-.32-.69 11.92 11.92 0 0 1-.36-7.26 4.79 4.79 0 0 1 1-2.08c-1.28-4.4-3.73-8.89-6.42-11.47-3.58-3.43-8.59-4.3-13.32-3.39-.35.06-.7.16-1 .24.86-3-.83-6.84-4.6-6.57a20.07 20.07 0 0 0-9.1 3 5.22 5.22 0 0 0-3.15.25c-3.35 1.45-6.75 2.8-10.17 4.09-2.45.93-4.94 1.53-6.85 3.4a2.18 2.18 0 0 0 .95 3.6c2.8.8 5.68-.12 8.46-.7.72-.15 1.43-.32 2.15-.48a4.18 4.18 0 0 0 .32 3.13q-.64.36-1.26.75A1.88 1.88 0 0 0 259 96.1Zm7.87 3.15a4.34 4.34 0 0 0 4.64-1.69 84.37 84.37 0 0 1 10.93-2.84c3.22-.59 7.6-1.71 9.81 1.28 3 4.06 1.77 9.46 3.56 13.84a6.49 6.49 0 0 0 2.5 3.06 6 6 0 0 0-3.83 1.79c-3.94 4.18-6.77 10.61-13.37 12.38-3.06.82-5.61-1.25-8-3-3.51-2.62-6.72-5.6-10.63-7.62a1.81 1.81 0 0 0-2 .22c0-5.1-1-10 .31-15 2.06-.62 4.08-1.57 6.09-2.42Z"/><path fill="#e0dfe6" d="M305.66 111a5.42 5.42 0 0 0 .32.69c.78 1.47 2 2.58 2.72 4.06 1.54 3.07-.32 7.57-.69 10.9s-.3 6.25-3.85 7a30.29 30.29 0 0 1-8.13 0c-1.47-.13-2.93-.25-4.31-.24a5.89 5.89 0 0 0-5.69 4.75 7.19 7.19 0 0 0-.11 1c0 2.47-.43 2.5-2.95 2.74-3.23.3-6.62-.28-9.84-.54-2.71-.22-6.5-.09-8.7-2-2.63-2.25-2.8-7.27-3.08-10.37a2.62 2.62 0 0 0-3.89-2.23 35.66 35.66 0 0 0-3.58 1.86 1.13 1.13 0 0 0 .57 2.08 13.55 13.55 0 0 1 1.55.3c-.46 4.91-.3 10 2.73 14.1 3.39 4.65 8.72 5.56 14 6.67 8.85 1.84 21.55 2.09 24.3-7.16 8.29-.41 17-.92 20.12-10.16 1.57-4.66 2.22-11.29 2.48-16.23a12.52 12.52 0 0 0-1.61-7.08c-1.31-2.26-3-3.43-3.26-6.14-.48-4.19-6.07-6.33-8.49-3.36a4.79 4.79 0 0 0-1 2.08 11.92 11.92 0 0 0 .39 7.28Z"/><path fill="#e0dfe6" d="M276.85 116.36c1.12-1.7.9-4 1.65-5.87a2.43 2.43 0 0 1 .63-1.07 10.54 10.54 0 0 1 2.45-1.37c5.08-2.39 1.42-11.34-3.88-9.19-3.92 1.6-6.63 4.45-7 8.83-.19 2.5.22 6.55 1.67 8.67a2.61 2.61 0 0 0 4.48 0Z"/><path fill="#525d7d" d="M248.55 94c2.39.27 4.65.52 4.65 12 0 4-.75 4.08-1.89 4.15-2.52.15-4.2 1.15-4.2 5.56 0 3.82 2.22 11.27 6.3 11.27a10.82 10.82 0 0 0 4.84-1.61 35 35 0 0 0 5 5.89c1.38 1.4 3.47 3.51 3.47 4.3a7.53 7.53 0 0 1-.37 1.6 8.62 8.62 0 0 0-.47 2.33c0 4.14 8.5 4.26 8.58 4.26 1.44 0 2.9-.14 4.32-.27s2.86-.26 4.26-.26a15.7 15.7 0 0 1 2.38.17 2.38 2.38 0 0 0 2.07-.37 2.52 2.52 0 0 0 .64-2.18v-.49c0-.81-.06-1.58-.11-2.34s-.09-1.43-.09-2.13v-.11a14.88 14.88 0 0 0 5.67-1.65 10 10 0 0 1 3.68-1.18c.83 0 1.9.92 3 1.9a16.87 16.87 0 0 0 3.32 2.39 1.49 1.49 0 0 0 1.9-.48c.79-1.14 1.71-2.25 2.69-3.43 2.68-3.23 5.45-6.58 5.45-10.7v-.48c-.1-2-2.26-2.44-4.34-2.89-.54-.12-1.08-.24-1.57-.38a45 45 0 0 0 1.21-9.19 21.76 21.76 0 0 0-.19-3c2.49-.46 5.6-1.5 5.6-4.74 0-9-5.26-15.35-8.12-15.35A6.41 6.41 0 0 0 303 88a5.71 5.71 0 0 1-2.12 1c-1-.09-7.95-2.46-7.95-6.39a11.36 11.36 0 0 1 .82-3.79c.52-1.47 1.05-3 .09-4.34-1.22-1.73-4.17-2.25-12.63-2.25a23.42 23.42 0 0 0-3.65.22c-2.87.47-3.47 1.82-3.47 2.86 0 .46.05 1 .1 1.49a12.31 12.31 0 0 1 .1 1.3c-.57 1-4.89 3.35-9.82 3.46-3 .09-7-.71-9-4.81a1.49 1.49 0 0 0-1.3-.83 1.46 1.46 0 0 0-1.34.75c-1.07 1.87-2.28 3.69-3.45 5.44a66.13 66.13 0 0 0-5.15 8.69 1.49 1.49 0 0 0 .39 1.78 7 7 0 0 0 3.93 1.42Zm3.25-10.2c.76-1.14 1.54-2.31 2.3-3.52 3.1 3.84 8.41 5.23 14.71 3.75 3.4-.8 8.45-3 8.45-5.78a16.57 16.57 0 0 0-.12-1.72c0-.3-.06-.6-.08-.86a12.11 12.11 0 0 1 4.12-.41c8.11 0 9.86.62 10.15.93a5.94 5.94 0 0 1-.45 1.66 14 14 0 0 0-1 4.79c0 6.23 9.06 9.39 10.91 9.39a7.26 7.26 0 0 0 3.78-1.52 7.2 7.2 0 0 1 1.6-.87c1.15.41 5.18 4.91 5.18 12.34 0 1-1.23 1.54-4.55 2a1.49 1.49 0 0 0-1 .63 1.51 1.51 0 0 0-.23 1.17 18.59 18.59 0 0 1 .39 3.89 47.3 47.3 0 0 1-1.42 9.83 1.52 1.52 0 0 0 .8 1.66 14.79 14.79 0 0 0 3.34 1 15 15 0 0 1 2 .52c0 3-2.34 5.78-4.76 8.71-.67.81-1.36 1.63-2 2.48-.55-.4-1.1-.87-1.63-1.33-1.5-1.29-3.05-2.62-5-2.62a12.41 12.41 0 0 0-4.91 1.44 11.94 11.94 0 0 1-4.69 1.4 2.84 2.84 0 0 1-.47 0 1.94 1.94 0 0 0-1.63.41c-.65.57-.65 1.25-.65 2.61v.12c0 .8.05 1.58.1 2.33s.09 1.42.1 2.12a18.51 18.51 0 0 0-2.09-.11c-1.54 0-3.06.14-4.53.27s-2.75.26-4.05.26c-2.27 0-5.06-.78-5.57-1.36a8.3 8.3 0 0 1 .34-1.38 9 9 0 0 0 .49-2.45c0-2-1.91-4-4.33-6.41-2-2-4.22-4.28-5.17-6.49A1.5 1.5 0 0 0 258 122a10.56 10.56 0 0 1-4.59 2c-1 0-3.3-4.24-3.3-8.27 0-2.49.32-2.51 1.38-2.57 2.91-.17 4.71-1.43 4.71-7.14 0-13.12-3.17-14.51-7.32-15a11.68 11.68 0 0 1-1.38-.21 72 72 0 0 1 4.3-6.98Z"/><path fill="#525d7d" d="M279.7 122.83c7.37 0 14.33-6.92 14.33-14.24 0-3.9-2.48-9.36-6.48-11.36a25 25 0 0 0-6.9-2.53 12.62 12.62 0 0 0-2.3-.21c-7.43 0-13.94 6.14-13.94 13.15 0 11.36 10.5 15.19 15.29 15.19Zm-1.35-25.34a10.29 10.29 0 0 1 1.76.16 22.35 22.35 0 0 1 6.1 2.26c2.84 1.42 4.82 5.72 4.82 8.68 0 5.67-5.61 11.24-11.33 11.24-3.85 0-12.29-3.07-12.29-12.19 0-5.41 5.11-10.15 10.94-10.15Z"/><path fill="#e0dfe6" d="M141 16.54h-.26a4.12 4.12 0 0 0-4.16 3.41 9.79 9.79 0 0 1-.78.79 28.29 28.29 0 0 0-2.36 2.64 43.12 43.12 0 0 0-4.2 4.79l-.11.13c-.49-.28-1.07-.59-1.17-.66-1.45-1-2.63-2.28-4.15-3.2-2-1.22-3.72.91-3.36 2.62.89 4.46 7.24 11.68 12.27 8.85 3-1.68 5.43-5 7.81-7.44s5.58-4.73 4.72-8.68a4.47 4.47 0 0 0-4.25-3.25Z"/><path fill="#525d7d" d="M131.25 11.84a1.52 1.52 0 0 0-1.11-.43 1.49 1.49 0 0 0-1.08.52c-1.39 1.59-2.88 3.14-4.33 4.64-1.62 1.68-3.29 3.42-4.83 5.24a1.44 1.44 0 0 0-.35 1.12 1.49 1.49 0 0 0 .57 1c2.48 1.93 4.91 4 7.25 6 1.13 1 2.25 1.92 3.39 2.87a1.48 1.48 0 0 0 1 .35h.25a1.48 1.48 0 0 0 1-.7c1.33-2.17 2.82-4.29 4.26-6.34 1-1.45 2.07-2.95 3.05-4.45a1.51 1.51 0 0 0-.31-2 110.78 110.78 0 0 1-8.76-7.82Zm3.55 12.55c-1.14 1.63-2.32 3.31-3.43 5l-2.05-1.74c-2-1.69-4-3.43-6.11-5.1 1.19-1.34 2.45-2.65 3.68-3.93s2.26-2.34 3.38-3.57c2.25 2.17 4.52 4.2 6.78 6.07-.73 1.12-1.5 2.21-2.25 3.27Z"/><path fill="#ffcc80" d="M129.72 172.43v-.21a4.42 4.42 0 0 0-.61-2.25c-.28-.61-.57-1.21-.87-1.81a4.45 4.45 0 0 0-2.63-2 4.53 4.53 0 0 0-2.86.23 4.18 4.18 0 0 0-2.1 1.79 4.3 4.3 0 0 0-.44 3.39c.24.62.47 1.24.73 1.86a4.47 4.47 0 0 0 1.15 2l.91.7a4.29 4.29 0 0 0 4 .23 5.08 5.08 0 0 0 .77-.41 6 6 0 0 0 1.49-2.48 3.66 3.66 0 0 1 .46-1.04Z"/><path fill="#e0dfe6" d="M129.72 172.43a3.66 3.66 0 0 0-.49 1 6 6 0 0 1-1.49 2.48 5 5 0 0 1-2.73 1.4c-2.15.37-3.93-.86-5.82-1.63-1.07-.43-2 .8-1.73 1.73.87 3.85 5.51 5.75 9.11 5.59 4.55-.2 8.08-3.58 9.55-7.67 1.42-3.95-4.34-5.94-6.4-2.9Zm36.87-31.49a5.42 5.42 0 0 0-4.67-2.8 6.4 6.4 0 0 0-2.08.35c-.79.27-1.43.93-2.08 1.21a4.44 4.44 0 0 0-3 4.22 5.5 5.5 0 0 1-.78-1.26c-.89-1.94-4.29-1-4.08 1.1a8.58 8.58 0 0 0 13.3 6.34c2.65-1.87 5.18-5.88 3.39-9.16Z"/><path fill="#525d7d" d="M128.36 164.11c-.05.38-.11.77-.14 1.16a1.51 1.51 0 0 1-1.48 1.36 5.3 5.3 0 0 1 3.22 4.56c0 1.8-2.23 4.77-4.6 4.77-2 0-4.92-1.45-4.92-4.56a5.24 5.24 0 0 1 3-5.05 3.59 3.59 0 0 1 1.28-.27 3.53 3.53 0 0 1 1 .16 1.5 1.5 0 0 1-.48-1.24c0-.62.14-1.24.24-1.87a7.11 7.11 0 0 0-.78 0 6.35 6.35 0 0 0-2.39.49 8.1 8.1 0 0 0-4.86 7.83c0 4.67 4.11 7.56 7.92 7.56 4.41 0 7.6-4.64 7.6-7.77a8.2 8.2 0 0 0-4.61-7.13Zm34.98-23.4c0-2.45-2.81-6-4.83-6.75l-.5-.19a9 9 0 0 0-3.59-.8c-4.62 0-7 4.11-7 8.16 0 5.92 4.9 8.06 8.19 8.06 2.12 0 7.73-1.52 7.73-8.48Zm-7.77 5.48c-.22 0-5.19-.06-5.19-5.06 0-2.48 1.26-5.16 4-5.16a6.16 6.16 0 0 1 2.5.59l.54.21c.91.34 2.88 2.87 2.88 3.94.04 5.42-4.69 5.48-4.73 5.48Zm-12.19-5.12a22.15 22.15 0 0 0-3.93 1.66 1.5 1.5 0 0 0 .71 2.82 1.45 1.45 0 0 0 .7-.17 20.05 20.05 0 0 1 3.42-1.45 1.5 1.5 0 0 0-.9-2.86Zm-11.3 7.66a28.1 28.1 0 0 0-2.49 3.41 1.49 1.49 0 0 0 .48 2.06 1.42 1.42 0 0 0 .79.23 1.49 1.49 0 0 0 1.27-.7 25.11 25.11 0 0 1 2.23-3 1.5 1.5 0 1 0-2.28-2Z"/><path fill="#525d7d" d="M125.71 166.24a1.54 1.54 0 0 0 .88.39h.13a1.52 1.52 0 0 0 1.5-1.36c0-.39.09-.78.14-1.16a24.56 24.56 0 0 1 .48-2.56 1.5 1.5 0 1 0-2.92-.71c-.18.76-.33 1.53-.45 2.29s-.19 1.25-.24 1.87a1.5 1.5 0 0 0 .48 1.24Z"/><path fill="#e0dfe6" d="M103.58 260.17c-1.74-1.25-3.21-2.26-5.46-2a12 12 0 0 0-6.12 3.2 9.94 9.94 0 0 0-2.62 3 3.89 3.89 0 0 0-.72.85l-1.13-.62c-3.64-2-8.83-6.63-13.06-3.76a15.77 15.77 0 0 0-2.83 3.05L70 265.78q-.83 2.27-2.1.52c-2.7-.81-6.36-5.53-8.18-7.54a2.1 2.1 0 0 0-2.52-.32 53.18 53.18 0 0 0-11.39 9.26 1.26 1.26 0 0 0 1.52 2c3.58-2 7.16-4.29 10.56-6.66 2.88 3.46 7.28 9.13 11.27 9.28 1.67.06 2.83-1.22 3.86-2.3s2-3 3.3-3.81c1.78-1.15 2-.69 3.82.57 3.28 2.23 8.09 7.44 12.28 4.46 3-2.14 2.82-7.21 8.2-5.32 2.94 1 5.44 4.91 8.33 6.4a3 3 0 0 0 3.65-4.73c-2.48-2.94-5.94-5.21-9.02-7.42Z"/><path fill="#525d7d" d="M109.85 265.25a104.34 104.34 0 0 1-8.57-7.85 1.49 1.49 0 0 0-2-.17c-1.58 1.16-3.29 2.23-4.94 3.26-1.87 1.17-3.8 2.37-5.62 3.76A41.71 41.71 0 0 1 80 257.3a1.49 1.49 0 0 0-1.84-.23 119.78 119.78 0 0 0-10.88 7.26c-2.24-2.07-4.33-4.37-6.36-6.6l-1-1.16a1.51 1.51 0 0 0-1.83-.3A62.1 62.1 0 0 0 46 265.35a1.5 1.5 0 0 0 2 2.21 62.34 62.34 0 0 1 10.48-8.08l.24.27a93.41 93.41 0 0 0 7.52 7.65 1.5 1.5 0 0 0 1.91.06 111.1 111.1 0 0 1 10.58-7.22 42.47 42.47 0 0 0 9.49 7.13 1.52 1.52 0 0 0 1.66-.16A59.2 59.2 0 0 1 96 263c1.34-.84 2.72-1.7 4.06-2.63 2.51 2.54 5.24 4.86 7.9 7.12l1.68 1.43a1.45 1.45 0 0 0 1 .36 1.46 1.46 0 0 0 1.14-.52 1.49 1.49 0 0 0-.16-2.11Z"/><path fill="#ffcc80" d="M216.74 37.16a4.37 4.37 0 0 0 .31-4.91 4.52 4.52 0 0 0-6.09-1.6 1.29 1.29 0 0 1-.16.09h-.07a4.35 4.35 0 0 0-2.64-.94 4.51 4.51 0 0 0-3.09 1.28c-1.48 1.61-1.91 4.68 0 6.23a9.23 9.23 0 0 0 8.51 1.93l.64-.87a2.81 2.81 0 0 1 2.59-1.21Z"/><path fill="#e0dfe6" d="M241.53 54.16a5.46 5.46 0 0 0-7.36 1.93c-.19.35-.43.65-.63 1a.56.56 0 0 0-.07.13c-.39.34-.38.36-.07.12l-.84.65-.11.09-.27.12c-.11 0-1.06.55-.64.35s-1.17.6-1.39.78a3.37 3.37 0 0 0-1.38 3.43c.63 3 4.11 4.06 6.82 3.9a9.49 9.49 0 0 0 7.87-5.12c1.2-2.54.78-5.95-1.93-7.38Zm-35.06-8.89c.95 1.13 2 3 3.58 3.37s2.78-.71 3.81-1.78c1.58-1.65 3-3.45 4.52-5.2a2.67 2.67 0 0 0-1.64-4.5 2.81 2.81 0 0 0-2.62 1.21l-.64.87c-.67.89-1.33 1.79-2 2.69-.34.45-.88 1.32-1.33 2-1-.67-2-1.8-2.7-2.34a16.4 16.4 0 0 0-3.45-2.42.93.93 0 0 0-1.26 1.25 24.72 24.72 0 0 0 3.73 4.85Z"/><path fill="#525d7d" d="M204.76 38.56c1.79 2 3.65 4.14 5.58 6.12a1.51 1.51 0 0 0 1.08.45h.13a1.5 1.5 0 0 0 1.1-.65 131.21 131.21 0 0 1 9.52-12 1.5 1.5 0 0 0-1.09-2.5l-4.18-.08c-2.21-.05-4.49-.11-6.73-.11a82 82 0 0 0-9.78.5 1.5 1.5 0 0 0-.88 2.56c1.59 1.58 3.36 3.59 5.25 5.71Zm5.41-5.74c2.21 0 4.47.06 6.66.11h1c-2.39 2.8-4.72 5.76-6.57 8.33-1.44-1.54-2.86-3.14-4.24-4.7-1.1-1.25-2.17-2.46-3.19-3.57 1.89-.1 3.97-.17 6.34-.17Z"/><path fill="#ffcc80" d="M31.22 102.17a4.38 4.38 0 0 0-4.87-.73 4.52 4.52 0 0 0-2.1 5.94c0 .06.05.12.08.17a.31.31 0 0 1 0 .07 4.31 4.31 0 0 0-1.16 2.55 4.51 4.51 0 0 0 1 3.21c1.49 1.61 4.51 2.3 6.22.52a9.22 9.22 0 0 0 2.61-8.31c-.27-.24-.55-.47-.81-.71a2.78 2.78 0 0 1-.97-2.71Z"/><path fill="#e0dfe6" d="M38.44 113.08c1.2-.85 3.16-1.74 3.66-3.29s-.48-2.83-1.46-3.94c-1.51-1.71-3.17-3.33-4.79-4.94a2.67 2.67 0 0 0-4.63 1.26 2.78 2.78 0 0 0 1 2.71c.26.24.54.47.81.71l2.51 2.21c.42.37 1.24 1 1.83 1.49-.74.91-2 1.86-2.55 2.49a16.7 16.7 0 0 0-2.67 3.22.93.93 0 0 0 1.15 1.36 24.62 24.62 0 0 0 5.14-3.28Z"/><path fill="#525d7d" d="M31.61 114.23c2.18-1.62 4.43-3.3 6.57-5.06a1.54 1.54 0 0 0 .54-1V108a1.5 1.5 0 0 0-.55-1.16A128.94 128.94 0 0 1 27 96.36a1.5 1.5 0 0 0-2.58.89c-.14 1.38-.28 2.77-.43 4.15-.24 2.2-.48 4.46-.67 6.7a81.92 81.92 0 0 0-.33 9.79 1.5 1.5 0 0 0 2.52 1.11c1.67-1.47 3.83-3.08 6.1-4.77Zm-5.26-5.88c.18-2.2.42-4.45.66-6.63 0-.32.07-.65.1-1 2.6 2.61 5.35 5.19 7.75 7.24-1.66 1.31-3.37 2.59-5 3.83-1.33 1-2.63 2-3.82 2.88-.04-1.88.11-3.96.31-6.32Zm210.29-56.19a6.79 6.79 0 0 1-1.17-.37 1.46 1.46 0 0 0-1.14-.08 5.78 5.78 0 0 0-4 5.34 5.17 5.17 0 0 0 4.82 5.23 5.71 5.71 0 0 0 5.76-5.49 5 5 0 0 0-.73-2.56 5.13 5.13 0 0 0-3.54-2.07Zm-1.53 7.12a2.2 2.2 0 0 1-1.82-2.23 2.7 2.7 0 0 1 1.52-2.3 10.57 10.57 0 0 0 1.1.31c.71.18 1.45.37 1.66.72a1.94 1.94 0 0 1 .3 1 2.73 2.73 0 0 1-2.76 2.5Z"/><path fill="#ffcc80" d="M277.88 196.05c-.83 3.21-.23 9 3 10.84s8.06-.65 10.33-3c2.6-2.66 4.13-8.26.31-10.53a2.4 2.4 0 0 0-.54-.24 8.75 8.75 0 0 0-5.67-3.09c-3.7-.21-6.55 2.62-7.43 6.02Zm8.84.53c0 .33 0 .66-.06 1.07a2.15 2.15 0 0 1-.36 1.12 3.9 3.9 0 0 1-1.66 1.3c-.07-.33-.15-.67-.21-1s-.09-.64-.12-1a11.93 11.93 0 0 1 2-1.87 2.1 2.1 0 0 1 .41.38Z"/><path fill="#e0dfe6" d="M355.29 171.83c-1.26 3.89-3.06 8-4 12.08-1.94.2-3.89.57-5.75.82a107.24 107.24 0 0 0-11.05 1.76 1 1 0 0 0 0 2c3.61.72 7.38 1 11.05 1.32s7.93 1.22 11.56.11c2.73-.83 2.89-4.93 0-5.69a7.92 7.92 0 0 0-1-.19c.74-3.78.93-7.85 1.45-11.55a1.19 1.19 0 0 0-2.26-.66Zm.41 89.17c-5.72 1.56-12.57.39-18.46.38-6.54 0-13.09.11-19.63.28-11.56.3-25.13-.75-36 3.62-.86.34-1.15 1.83 0 2 12.38 2.24 25.49 1.06 38 .76 6.54-.16 13.09-.26 19.64-.23 6 0 12.38 1 18.21-.61 3.97-1.04 2.27-7.28-1.76-6.2Zm-50.16-20.5c-.56.16-.65 1.12 0 1.22 8 1.25 15.92 2.82 24.07 3.24 7.94.42 17.49 1.38 25.21-.66 3.33-.88 2.25-5.23-.76-5.59-4.12-.49-8.57.45-12.71.79s-8.47.59-12.72.64c-7.63.08-15.63-1.8-23.09.36Z"/><path fill="#525d7d" d="M286.16 212.24a1.47 1.47 0 0 0 1.82-.47 75.94 75.94 0 0 1 6.67-7.5c.77-.79 1.53-1.59 2.29-2.39a1.49 1.49 0 0 0 .37-1.35c-.24-1.12-.49-2.24-.73-3.36-.62-2.89-1.27-5.87-2-8.79a1.49 1.49 0 0 0-1.19-1.1c-1.87-.34-3.78-.58-5.62-.81s-3.91-.5-5.82-.85a1.46 1.46 0 0 0-1.38.47c-1.69 1.86-3.33 3.78-4.92 5.64l-1.85 2.16a1.49 1.49 0 0 0-.32 1.37c.36 1.35.75 2.69 1.13 4 .76 2.68 1.55 5.47 2.14 8.2a1.52 1.52 0 0 0 .95 1.09c2.3.85 5.19 2.16 7.74 3.32Zm-6.67-6.17c-.59-2.56-1.31-5.12-2-7.59l-.55-2c-.73-.35-1.45-.69-2.17-1.05a1 1 0 0 1 .89-1.79l1.62.79.65-.76c1.4-1.64 2.84-3.33 4.31-5 1.72.29 3.46.51 5.16.72 1.28.17 2.6.34 3.9.54.43-.43.86-.85 1.27-1.28a1 1 0 0 1 1.41 0 1 1 0 0 1 0 1.42c-.55.57-1.12 1.14-1.69 1.7.47 2 .92 4 1.35 6 .19.86.37 1.72.56 2.59l-1.71 1.78c-1.87 1.93-3.79 3.92-5.54 6 .06.15.11.31.16.47l.61 1.87a1 1 0 0 1-.65 1.26 1 1 0 0 1-.3 0 1 1 0 0 1-1-.69l-.61-1.87-.3-.93c-1.78-.69-3.68-1.52-5.37-2.18Z"/><path fill="#525d7d" d="M282.08 198.54a1 1 0 0 1 2-.43c.12.54.26 1.08.39 1.62a.89.89 0 0 0 .41-.28c1.8-2.12 3.84-4.11 5.81-6l1.65-1.63c.57-.56 1.14-1.13 1.69-1.7a1 1 0 0 0 0-1.42 1 1 0 0 0-1.41 0c-.41.43-.84.85-1.27 1.28l-2 2c-1.83 1.78-3.71 3.61-5.43 5.59-2.16-1-4.37-2.08-6.56-3.14l-1.62-.79a1 1 0 0 0-.89 1.79c.72.36 1.44.7 2.17 1.05 1.76.86 3.53 1.7 5.28 2.53-.13-.15-.18-.31-.22-.47Z"/><path fill="#525d7d" d="M285.82 211.19a1 1 0 0 0 1 .69 1 1 0 0 0 .3 0 1 1 0 0 0 .65-1.26l-.61-1.87c-.05-.16-.1-.32-.16-.47-.9-2.78-1.81-5.63-2.53-8.5-.13-.54-.27-1.08-.39-1.62a1 1 0 0 0-2 .43c0 .16.09.32.12.48.73 3.19 1.72 6.32 2.71 9.37l.3.93Zm17.18 6.99a1.47 1.47 0 0 0-.41 1.09c.15 4 .23 8.44.23 13.83v5.24h.67l-.15-3.5v-.95a1 1 0 0 1 .95-1.05 1 1 0 0 1 1.05 1v.95c.05 1.21.11 2.41.16 3.61h.31v-5.27c0-4.75-.06-8.73-.18-12.38h23.56c0-.48-.07-.95-.11-1.42a1 1 0 0 1 .91-1.08 1 1 0 0 1 1.08.91l.12 1.59h22.73v2.04c.1 5.48.26 11.12.47 16.89H356a1 1 0 1 1 0 2h-1.46q.45 12 1.2 24.69l-21.64.17c0 .48.05 1 .08 1.46a1 1 0 0 1-.95 1h-.05a1 1 0 0 1-1-.95c0-.51 0-1-.08-1.54l-25.58.2v1.49a1 1 0 1 1-2 0v-1.51l-22.62.18-.09-3.23c-.2-7.3-.4-14.83-.54-22.25 7.22 0 14.86.05 22.39.24l-.06-1.34h-2.76c-4 0-7.61.06-11.15.19a1 1 0 0 1-1-1 1 1 0 0 1 1-1h1-10.85a1.5 1.5 0 0 0-1.5 1.52c.14 7.93.36 16 .57 23.81l.13 4.7a1.5 1.5 0 0 0 1.5 1.46l76.9-.61a1.55 1.55 0 0 0 1.09-.48 1.51 1.51 0 0 0 .4-1.11c-.95-15.78-1.57-30.93-1.83-45v-3.53a1.49 1.49 0 0 0-1.5-1.46h-51.51a1.5 1.5 0 0 0-1.09.4Z"/><path fill="#525d7d" d="M305.78 240.37h-.2v.56a1.42 1.42 0 0 0 .2-.56Zm-.45-5.61v-.95a1 1 0 0 0-1.05-1 1 1 0 0 0-.95 1.05v.95l.15 3.5h2c-.04-1.14-.1-2.31-.15-3.55Z"/><path fill="#525d7d" d="M305.58 240.37h-2l.06 1.34c.37 8.46.69 16.68.86 25.06v1.51a1 1 0 0 0 2 0v-1.49c-.18-8.62-.51-17.08-.89-25.8Zm25.07.72c.53 8.58 1 17.08 1.42 25.44 0 .51.05 1 .08 1.54a1 1 0 0 0 1 .95h.05a1 1 0 0 0 .95-1c0-.48 0-1-.08-1.46-.43-8.33-.89-16.8-1.41-25.35Zm1.88-1.94q-.58-9.18-1.32-18.43l-.12-1.59a1 1 0 0 0-1.08-.91 1 1 0 0 0-.91 1.08c0 .47.07.94.11 1.42.5 6.14.92 12.26 1.31 18.36Z"/><path fill="#525d7d" d="M288.62 239.55a1 1 0 0 0 1 1c3.54-.13 7.19-.19 11.15-.19h4.96c7.44.09 14.92.35 22.2.62l2.67.1 2 .07c7.21.26 14.56.48 21.85.49H356a1 1 0 1 0 0-2h-1.53c-7.31 0-14.68-.24-21.91-.5l-2-.07-2.47-.09c-7.29-.26-14.78-.53-22.25-.62h-4.98c-3.62 0-7 0-10.25.16h-1a1 1 0 0 0-.99 1.03Zm56.28-76.06h-.18a1.5 1.5 0 0 1-1.48-1.32c0-.36-.08-.7-.12-1-3.91-.2-7.9-.37-11.88-.33a1.56 1.56 0 0 0-1.08.47 1.52 1.52 0 0 0-.41 1.1c.41 9.51.68 19.06.9 28a1.5 1.5 0 0 0 1.35 1.39l4.87.44 5.4.47v-1.39a1.49 1.49 0 0 1 1.5-1.49 1.51 1.51 0 0 1 1.5 1.51v1.6c2.94.21 5.9.35 8.83.35 1.48 0 2.91 0 4.27-.1a1.51 1.51 0 0 0 1.42-1.54c-.06-2.21-.08-4.55-.08-7.37v-13.5c0-2.91 0-5.32-.09-7.6a1.49 1.49 0 0 0-1.49-1.46c-4 0-8.1-.22-12.06-.42 0 .17 0 .34.06.52a1.51 1.51 0 0 1-1.23 1.67Zm11.9 7.29v13.5c0 2.23 0 4.16.05 6h-2.66c-5.62 0-11.38-.53-16.95-1l-3.56-.32c-.21-8-.45-16.58-.8-25.12 4.2 0 8.46.24 12.59.45 3.71.2 7.53.4 11.34.45-.02 1.8-.01 3.76-.01 6.04Zm13.3-28.72a1.49 1.49 0 0 1-.33.51 1.51 1.51 0 0 1-1.06.44.7.7 0 0 1-.14 0h-.09a1.5 1.5 0 0 1-1.1-.49 1.36 1.36 0 0 1-.3-.5c-.74-.73-1.49-1.46-2.25-2.18-3.81-.18-7.53-.34-11-.49l-2.93 2.48a1.54 1.54 0 0 1-1 .35 1.5 1.5 0 0 1-1-2.65l.44-.37-5.93-.25a1.49 1.49 0 0 1 1.49 1.47v1.59c10 .42 24.45 1 37.3 1.72v-3l-10.1-.51Z"/><path fill="#525d7d" d="M352.06 123.14a1.47 1.47 0 0 0-.93.37c-2.45 2.11-5 4.2-7.48 6.22-3.6 2.94-7.32 6-10.81 9.18a1.51 1.51 0 0 0 1 2.61l8.19.32v-1.41a1.5 1.5 0 0 1 1.47-1.53l-5.8-.24c2.6-2.26 5.29-4.46 7.92-6.6 2-1.62 4-3.28 6-5l-1-1a1.5 1.5 0 0 1 2.17-2.08c.66.7 1.34 1.38 2 2.06 3.54-.09 7.1-.15 10.65-.18 1.16-.92 2.33-1.84 3.51-2.73a1.65 1.65 0 0 1 2.16.23c.7.84 1.42 1.65 2.14 2.46h9.09v-3h-3.14c-8.97.01-18.1.02-27.14.32Z"/><path fill="#525d7d" d="m359.37 134.67-2.2-2.07c-1.65 1.37-3.28 2.75-4.89 4.11l-2.88 2.44-.44.37a1.5 1.5 0 0 0 1 2.65 1.54 1.54 0 0 0 1-.35l2.93-2.48.4-.34Zm2.32-1.94c2.62-2.16 5.29-4.3 8-6.37-.3-.35-.62-.69-.92-1a1.5 1.5 0 0 1 1.07-2.46 1.52 1.52 0 0 0-.93.3c-1.18.89-2.35 1.81-3.51 2.73q-3 2.36-5.9 4.77Z"/><path fill="#525d7d" d="m357.17 132.6 2.2 2.07.75.7c1.56 1.46 3.14 2.95 4.71 4.46.76.72 1.51 1.45 2.25 2.18a1.49 1.49 0 0 1 .39-1.62l1.16-1c-2.13-2.1-4.32-4.16-6.46-6.16l-.48-.45-2.2-2.07c-1.6-1.5-3.19-3-4.75-4.59-.68-.68-1.36-1.36-2-2.06a1.5 1.5 0 0 0-2.17 2.08l1 1c1.8 1.86 3.7 3.67 5.6 5.46Zm11.4 10.4a.7.7 0 0 0 .14 0 1.51 1.51 0 0 0 1.06-.44 1.49 1.49 0 0 0 .33-.51l-.6.55a1.52 1.52 0 0 1-.93.4Zm9.52-12 2.14 2.11 2.06-1.78v-4l-1.83 1.59Z"/><path fill="#525d7d" d="M367.47 140.39a1.49 1.49 0 0 0-.39 1.62 1.36 1.36 0 0 0 .3.5 1.5 1.5 0 0 0 1.1.49h.09a1.52 1.52 0 0 0 .93-.37l.6-.55 2.09-1.89c1.91-1.71 3.85-3.41 5.78-5.1-.72-.7-1.44-1.4-2.15-2.11-2.4 2.1-4.81 4.23-7.19 6.38Zm10.62-9.39a131.88 131.88 0 0 1-4.89-5.14c-.72-.81-1.44-1.62-2.14-2.46a1.52 1.52 0 0 0-1.23-.53 1.5 1.5 0 0 0-1.07 2.46c.3.35.62.69.92 1 2 2.28 4 4.48 6.14 6.6.71.71 1.43 1.41 2.15 2.11 1.44 1.41 2.88 2.79 4.32 4.16v-4.15c-.69-.65-1.37-1.31-2.06-2Zm-34.62 7.9a1.51 1.51 0 0 0-1.51 1.53v1.41a185.59 185.59 0 0 0 1.13 19.3c0 .34.08.68.12 1a1.5 1.5 0 0 0 1.48 1.32h.18a1.51 1.51 0 0 0 1.32-1.67c0-.18 0-.35-.06-.52-.41-3.52-.67-6.5-.83-9.48h-.48a1.49 1.49 0 0 1-1.4-1.59 1.47 1.47 0 0 1 1.59-1.4h.14c-.08-2.12-.13-4.33-.19-6.83v-1.59a1.49 1.49 0 0 0-1.49-1.48Zm.53 74.74h-.16a1.54 1.54 0 0 1-.42-.07 1.56 1.56 0 0 0 .67.18h.1a1.49 1.49 0 0 0 1.39-1.39l-.56.71a1.45 1.45 0 0 1-1.02.57Zm-.18-23.81a1.49 1.49 0 0 0-1.51 1.49v11.03c0 2.56 0 4.74.11 6.71l1.19 1c.6-.76 1.19-1.45 1.77-2.13 0-1.65-.07-3.46-.07-5.54v-11.01a1.51 1.51 0 0 0-1.49-1.55Z"/><path fill="#525d7d" d="M342.38 209.06c-1.76-1.43-3.52-2.82-5.34-4.11a1.5 1.5 0 0 0-1.73 2.46c2.54 1.79 5 3.81 7.53 5.9a1.61 1.61 0 0 0 .54.27 1.54 1.54 0 0 0 .42.07h.2a1.45 1.45 0 0 0 1-.57l.56-.71a55.89 55.89 0 0 1 5.83-6.43 1.5 1.5 0 0 0-2-2.2 55.32 55.32 0 0 0-4 4.16c-.58.68-1.17 1.37-1.77 2.13Zm-42.49 46.62c-2.57-2-5.25-4.33-8.45-7.26a1 1 0 0 0-.77-.26 1 1 0 0 0-.71.4c-1.61 2.17-3.12 4.45-4.59 6.65l-.19.3a1 1 0 0 0 .17 1.3 48.31 48.31 0 0 0 6.39 4.65 1 1 0 0 0 .53.16 1 1 0 0 0 .74-.33c.65-.71 1.34-1.39 2-2.07.89-.88 1.8-1.78 2.64-2.75.33.27.65.53 1 .78a1 1 0 0 0 1.4-.16 1 1 0 0 0-.16-1.41Zm-6.27 2.12c-.51.51-1 1-1.51 1.53a47.81 47.81 0 0 1-4.78-3.45c1.16-1.74 2.34-3.52 3.58-5.24 1.88 1.71 3.59 3.21 5.21 4.56-.77.89-1.61 1.73-2.5 2.6Zm29.82-6.03-1 .44a5.15 5.15 0 0 1 .21 1.43 4.46 4.46 0 0 1-4.46 4.47c-3.3 0-5.27-1.81-5.27-4.84 0-2 1.27-4.17 3.35-4.48v-1a1 1 0 0 1 1-1 1 1 0 0 1 1 .95l.06 1.18a5.82 5.82 0 0 1 2.55 1 3.84 3.84 0 0 1 .64.57l1.08-.5a1 1 0 0 1 1.31.46 6.23 6.23 0 0 0-1.86-2.16 9.05 9.05 0 0 0-4.87-1.52c-3.83-.26-6.21 3.28-6.21 6.53 0 4.15 2.85 6.84 7.27 6.84a6.42 6.42 0 0 0 6.46-6.47 6.88 6.88 0 0 0-.76-3.18 1 1 0 0 1-.5 1.28Z"/><path fill="#525d7d" d="m322.59 250-1.08.5-3 1.4c-.07-1-.11-2-.15-3l-.06-1.19a1 1 0 0 0-1-.95 1 1 0 0 0-1 1V249c.06 1.46.12 3 .27 4.47a1 1 0 0 0 .5.77 1 1 0 0 0 .91 0c1.49-.67 3-1.36 4.48-2l1-.44a1 1 0 0 0 .49-1.31 1 1 0 0 0-1.36-.49Zm13.87-19.36a33.65 33.65 0 0 1 3.47 3.06l.87.84a1 1 0 0 0 .69.27h.09a1 1 0 0 0 .71-.4c1.22-1.63 2.57-3.2 3.86-4.72.57-.67 1.14-1.33 1.7-2a1 1 0 0 0-.13-1.41 1 1 0 0 0-1.41.13c-.55.66-1.12 1.32-1.68 2-1.08 1.27-2.19 2.57-3.25 3.93l-.06-.06a34.77 34.77 0 0 0-3.69-3.24 1 1 0 0 0-1.17 1.62Zm1.7 28.5a1 1 0 0 0 1 .91h2.9c2.08 0 4.23 0 6.39-.18a1 1 0 0 0 .71-.37 1 1 0 0 0 .21-.78 75.84 75.84 0 0 1-.77-8.85 1 1 0 0 0-1-1c-1.2 0-2.41-.09-3.6-.15-1.68-.08-3.41-.17-5.13-.17h-.46a1 1 0 0 0-.72.31 1 1 0 0 0-.27.75 540 540 0 0 0 .74 9.53Zm5.76-8.41c.9 0 1.81.09 2.72.12.12 2.69.31 5 .6 7.06-1.74.09-3.49.1-5.19.11h-2c-.19-2.31-.4-4.89-.57-7.47 1.52.03 2.99.11 4.44.18Zm-20.92-23h-3.22v-3.14a1 1 0 0 0-1-1c-1.77 0-4.12 0-6.5-.12a1 1 0 0 0-.76.3 1 1 0 0 0-.28.77c.06.85.09 1.76.09 2.79s0 2.28-.07 3.42-.07 2.17-.07 3.26a1 1 0 0 0 .29.71 1.06 1.06 0 0 0 .72.29h4.72c1.19 0 2.37.05 3.56.05h2.57a1 1 0 0 0 1-1v-5.34a1 1 0 0 0-1.05-.99Zm-1 4.13v1.21h-8.82c0-.73 0-1.46.06-2.18 0-1.17.07-2.33.07-3.49v-1.82c1.6.05 3.15.07 4.48.08 0 1.06 0 2.16.08 3.26a1 1 0 0 0 .35.72 1 1 0 0 0 .77.23 13 13 0 0 1 1.66-.09H322a2.44 2.44 0 0 1 0 .27c.05.57 0 1.19 0 1.81Zm8.87-78.8a1.5 1.5 0 0 0 1.38.91 1.56 1.56 0 0 0 .59-.12 28 28 0 0 1 3.58-1.23 1.5 1.5 0 0 0-.78-2.9 29.69 29.69 0 0 0-4 1.37 1.51 1.51 0 0 0-.77 1.97Zm28.51 43.81a1.49 1.49 0 0 0 .76-.2 21.56 21.56 0 0 0 3.46-2.54 1.5 1.5 0 1 0-2-2.22 18 18 0 0 1-3 2.17 1.5 1.5 0 0 0 .76 2.79ZM318 166.5a1.49 1.49 0 0 0-1.9.94 25.28 25.28 0 0 0-1 4.12 1.5 1.5 0 0 0 1.24 1.72h.24A1.51 1.51 0 0 0 318 172a21.61 21.61 0 0 1 .89-3.63 1.5 1.5 0 0 0-.89-1.87Zm3.6 24.5a1.49 1.49 0 0 0 0 2.12 22.48 22.48 0 0 0 3.36 2.64 1.5 1.5 0 1 0 1.62-2.52 20 20 0 0 1-2.91-2.29 1.5 1.5 0 0 0-2.07.05Zm45.45-4a1.52 1.52 0 0 0 .55.1 1.5 1.5 0 0 0 1.4-.94 27.21 27.21 0 0 0 1.24-4 1.5 1.5 0 0 0-2.93-.67 24 24 0 0 1-1.1 3.6 1.5 1.5 0 0 0 .84 1.91Zm-50.62-7.73a1.51 1.51 0 0 0-1.2 1.75 24.24 24.24 0 0 0 1.14 4.1 1.5 1.5 0 0 0 1.4 1 1.6 1.6 0 0 0 .53-.09 1.51 1.51 0 0 0 .88-1.94 21.28 21.28 0 0 1-1-3.59 1.5 1.5 0 0 0-1.75-1.23Zm7.24-23.15a27.2 27.2 0 0 0-2.94 3 1.5 1.5 0 1 0 2.31 1.91 26.68 26.68 0 0 1 2.62-2.7 1.5 1.5 0 0 0-2-2.25Zm44.47 16.78a1.49 1.49 0 0 0 1.5 1.49 1.51 1.51 0 0 0 1.5-1.51 34.61 34.61 0 0 0-.22-4.17 1.5 1.5 0 0 0-3 .38 32.79 32.79 0 0 1 .22 3.81Zm-3.67-11.12a1.5 1.5 0 1 0 2.36-1.85 25.46 25.46 0 0 0-2.88-3.11 1.5 1.5 0 0 0-2 2.21 22.65 22.65 0 0 1 2.52 2.75Zm-30.75 37.64a35 35 0 0 0 4.1.76h.18a1.5 1.5 0 0 0 .19-3 33.39 33.39 0 0 1-3.76-.7 1.5 1.5 0 1 0-.72 2.91Zm18.71-1.32a1.5 1.5 0 0 0-1.75-1.2c-1.2.22-2.48.38-3.8.49a1.5 1.5 0 0 0 .11 3h.12a39.34 39.34 0 0 0 4.11-.53 1.5 1.5 0 0 0 1.21-1.76Zm-8.98-47.92a1.49 1.49 0 0 0 1.4 1.59h.48a25.34 25.34 0 0 1 3.26.47 1.51 1.51 0 0 0 1.63-.73 1.48 1.48 0 0 0 1 1.44 29.26 29.26 0 0 1 3.55 1.37 1.58 1.58 0 0 0 .63.13 1.5 1.5 0 0 0 .62-2.86 32.72 32.72 0 0 0-3.9-1.5 1.5 1.5 0 0 0-1.77.7 1.49 1.49 0 0 0-1.18-1.48 28.68 28.68 0 0 0-4-.57H345a1.47 1.47 0 0 0-1.55 1.44Z"/><path fill="#e0dfe6" d="M56.65 167.09c-.24-1.66-2.72-1.14-2.8.38-.19 3.69.53 40.36-2.21 40.48a3.45 3.45 0 0 0-3.36 3c-2.63 2.2-5 4.77-8.18 6-3.45 1.38-7.36 1.27-11 1.41-7.81.28-15.78-.43-23.55.42a1.2 1.2 0 0 0-.32 2.34c8.76 3.54 19.29 4.12 28.64 4.28 8.17.14 14.44-2.9 20-8.88a4 4 0 0 0 1.12-2.29c5.09-2.6 3.93-11.48 3.88-16.57a225.68 225.68 0 0 0-2.22-30.57Z"/><path fill="#e0dfe6" d="M42 210.69a2.13 2.13 0 0 0-2.62 2.62 2.08 2.08 0 0 0 1.49 1.49l.48.07a1.83 1.83 0 0 0 2.21-2.21c0-.16 0-.32-.07-.48a2.1 2.1 0 0 0-1.49-1.49Z"/><path fill="#525d7d" d="M53.47 162.05a1.5 1.5 0 0 0-1.57-1.41c-10.52.46-19.94.69-28.79.69-7.49 0-14.74-.17-21.54-.5a1.43 1.43 0 0 0-1.15.46 1.49 1.49 0 0 0-.42 1.17c1.56 16.91 2.4 34.11 3.2 50.74l.18 3.7A1.52 1.52 0 0 0 5 218.32c1.49-.07 3.08-.1 4.86-.1 2.26 0 4.57.06 6.8.11s4.62.11 7 .11h3.45c4.57 0 9.21.31 13.57.62h.1a1.48 1.48 0 0 0 1-.37 141.66 141.66 0 0 1 13.55-10.17 1.52 1.52 0 0 0 .65-1.33c-.56-9.19-1-18.54-1.5-27.58q-.54-8.79-1.01-17.56Zm2.39 44.78a1.5 1.5 0 0 1-1.5 1.47c-1.28 0-2.56-.08-3.89-.16-2.92 2-5.88 4.22-8.75 6.59.1.88.21 1.76.3 2.63a1.5 1.5 0 0 1-1.33 1.64h-.16a1.5 1.5 0 0 1-1.53-1.33c-.06-.59-.14-1.18-.21-1.77-3.82-.26-7.82-.49-11.8-.49h-3.41c-2.3 0-4.63-.06-6.88-.11s-4.58-.11-6.88-.11c-1.24 0-2.4 0-3.5.05l-.11-2.21c-.78-16.03-1.59-32.71-3.06-49.12 6.34.28 13.05.42 20 .42 8.48 0 17.47-.21 27.44-.63q.44 8 .84 16c.43 8.36.87 17 1.38 25.51l1.62.05a1.49 1.49 0 0 1 1.43 1.57Z"/><path fill="#525d7d" d="M39.42 203.93a1.5 1.5 0 0 0-1.7 1.6c.19 2.62.51 5.23.81 7.76.11.87.2 1.74.3 2.61.07.59.15 1.18.21 1.77a1.5 1.5 0 0 0 1.49 1.33h.16a1.5 1.5 0 0 0 1.31-1.64c-.09-.87-.2-1.75-.3-2.63l-.21-1.8c-.23-1.89-.46-3.83-.64-5.77 3.6.48 6.71.8 9.6 1 1.33.08 2.61.13 3.86.16a1.5 1.5 0 1 0 .06-3l-1.62-.05a129.56 129.56 0 0 1-13.33-1.34Zm-28.54-27.41H11c9.82-.58 19.67-.87 28.36-1.12a1.5 1.5 0 1 0-.09-3c-8.71.25-18.58.55-28.45 1.13a1.5 1.5 0 0 0 .09 3Zm30.01 8.16a1.5 1.5 0 0 0 .17-3c-2.77-.16-5.64-.23-8.79-.23-7.24 0-14.65.42-21.19.79a1.5 1.5 0 0 0 .08 3h.09c6.5-.37 13.87-.79 21-.79 3.11 0 5.93.07 8.64.23Zm-13.99 4.9c-3.38.68-7.2.68-12.44 0a1.5 1.5 0 1 0-.4 3 54.87 54.87 0 0 0 7.3.55 30.79 30.79 0 0 0 6.13-.57 1.5 1.5 0 0 0-.59-2.94Zm15.57 1.75a1.5 1.5 0 0 0-1.5-1.5 52.51 52.51 0 0 1-6.56-.27 1.5 1.5 0 0 0-.37 3 56.12 56.12 0 0 0 6.93.29 1.5 1.5 0 0 0 1.5-1.52Zm-10.07 8.92c-1.35.12-2.75.18-4.28.18-2.81 0-5.54-.2-8.42-.41-1.75-.13-3.56-.26-5.37-.34a1.5 1.5 0 0 0-.14 3c1.77.08 3.56.21 5.29.33 2.81.21 5.72.42 8.64.42 1.62 0 3.11-.07 4.55-.2a1.5 1.5 0 1 0-.27-3Zm115.78 6.98H146c-8.93 0-14.47 8.34-14.47 16.06 0 10.49 9.95 16.91 15.36 16.91 8.67 0 17.64-6.1 17.64-16.31-.03-9.64-6.9-16.66-16.35-16.66Zm-1.32 30c-4.24 0-12.36-5.42-12.36-13.91 0-8.07 6-13.06 11.47-13.06h2.21c7.84 0 13.32 5.63 13.32 13.68 0 8.3-7.44 13.28-14.64 13.28Z"/><path fill="#525d7d" d="M148.2 221.14v-.85a26 26 0 0 1 .23-3.66 1.5 1.5 0 0 0-3-.42 28.87 28.87 0 0 0-.26 4.08v.83h.83c.75-.01 1.48 0 2.2.02Zm-2.85 2.98c.06.81.12 1.61.19 2.41s.14 1.64.2 2.46a1.5 1.5 0 0 0 1.49 1.39h.11a1.5 1.5 0 0 0 1.39-1.6c-.06-.84-.13-1.67-.2-2.51s-.12-1.41-.17-2.12h-2.34Z"/><path fill="#525d7d" d="M154.16 221.45h-.27c-1.94-.13-3.81-.24-5.69-.3h-3a45.77 45.77 0 0 0-5.27.34 1.5 1.5 0 0 0 .18 3h.19a44.24 44.24 0 0 1 5-.32h3.04c1.75.06 3.51.17 5.35.28h.26a1.49 1.49 0 0 0 1.59-1.41 1.51 1.51 0 0 0-1.38-1.59Z"/><path fill="#e0dfe6" d="M287.73 54.63c1-1.07.8-3.4-1.05-3.42s-3.19.95-4.77 1.85a30 30 0 0 0-4.36 2.77 1 1 0 0 0-.35.94v.17a.76.76 0 0 0 .49.77l.13.06a.65.65 0 0 0 .7-.14 14.25 14.25 0 0 0 3.8-.89c1.78-.5 4.08-.74 5.41-2.11Zm9.14-9.48a24.84 24.84 0 0 1-4.87 2.79 1.51 1.51 0 0 0 .86 2.85c3.53-.5 9.59-1.58 11.08-5.26a2.36 2.36 0 0 0-2.58-3.11c-1.9.22-3.04 1.63-4.49 2.73Zm18.92-12.26c-2.91 1.19-5.5 3.46-8.18 5.11-1.13.69-.79 2.61.72 2.37 3.44-.55 7.21-1.21 10.15-3.17 2.52-1.66-.13-5.36-2.69-4.31Zm-34.94-5.47c6.07-.26 15.21-1.4 19.33-6.31 1.45-1.73-.12-4.39-2.07-4.71a1.32 1.32 0 0 0 0-1.28 14.16 14.16 0 0 0-2.87-3.91 1.38 1.38 0 0 0-1.89-.18 1.35 1.35 0 0 0-.17 1.89 11.88 11.88 0 0 1 2.13 3.46 1.47 1.47 0 0 0 .58.7 62.12 62.12 0 0 1-7.18 4.16 68.4 68.4 0 0 0-8.52 4 1.13 1.13 0 0 0 .66 2.18Z"/><path fill="#525d7d" d="M284 19.92c-2.12.92-4.27 1.87-6.38 2.91-1.27-2.22-2.51-4.5-3.72-6.72-.9-1.75-1.9-3.56-2.9-5.34l15.32-7.29c2.08 4.07 4.32 8.3 6.81 12.36-2.46 1.19-5 2.29-7.46 3.36l-1.54.67a1.5 1.5 0 0 1 1.93.75l.65 1.4.16-.07c2.95-1.28 6-2.61 8.95-4.1l.13-.06a1.81 1.81 0 0 0 .29-.19 1.5 1.5 0 0 0 .48-.75 1.48 1.48 0 0 0-.18-1.21c-3-4.79-5.74-9.95-8.2-14.82a1.5 1.5 0 0 0-2-.67l-18.1 8.61a1.53 1.53 0 0 0-.79.9 1.57 1.57 0 0 0 .13 1.2c1.27 2.2 2.51 4.48 3.71 6.69 1.44 2.64 2.92 5.37 4.47 8a1.5 1.5 0 0 0 2 .58l.35-.18c1.92-1 3.9-1.87 5.87-2.74-.21-.45-.42-.89-.62-1.33a1.49 1.49 0 0 1 .64-1.96Zm-7.33 24.72a1.75 1.75 0 0 1-.29.18 1.51 1.51 0 0 1-2-.67c-.23-.47-.44-.91-.66-1.35l-.95.46c-.8.4-1.59.81-2.37 1.24a1.48 1.48 0 0 0-.73.91 1.52 1.52 0 0 0 .14 1.16c1 1.66 1.86 3.41 2.73 5.09.61 1.2 1.23 2.39 1.88 3.58a1.5 1.5 0 0 0 1.94.65l1.75-.79c2.19-1 4.45-2 6.64-3.13l1.54-.8a1.38 1.38 0 0 0 .25-.17 1.42 1.42 0 0 0 .48-.72 1.56 1.56 0 0 0-.12-1.16 149.48 149.48 0 0 1-2.66-5c-.65-1.28-1.22-2.46-1.74-3.62a1.5 1.5 0 0 0-1.93-.78c-1.41.58-2.79 1.17-4.14 1.79l.64 1.3a1.51 1.51 0 0 1-.4 1.83Zm4.87.83a87.95 87.95 0 0 0 2 3.76l-.14.06c-2.12 1.08-4.36 2.09-6.52 3.07l-.47.22c-.41-.77-.8-1.53-1.2-2.3-.65-1.27-1.32-2.57-2-3.86l1-.48c2-1 4.08-2 6.25-2.89.26.78.65 1.58 1.08 2.42Zm10.84-9.79a2.2 2.2 0 0 1-.25.17 1.5 1.5 0 0 1-2-.62c-.25-.45-.48-.89-.71-1.31-1.25.68-2.42 1.34-3.55 2a1.5 1.5 0 0 0-.58 2l.36.69C287.28 41.73 289 45 291 48a1.52 1.52 0 0 0 .95.65 1.5 1.5 0 0 0 1.13-.2c2.19-1.41 4.52-2.7 6.77-3.94l1.42-.79a1.82 1.82 0 0 0 .23-.15 1.59 1.59 0 0 0 .49-.75 1.52 1.52 0 0 0-.14-1.14c-.4-.73-.81-1.45-1.23-2.18-1-1.84-2.12-3.74-3.07-5.62-.33-.66-.65-1.33-1-2a1.5 1.5 0 0 0-2.05-.71L292 32.5l.7 1.32a1.51 1.51 0 0 1-.32 1.86Zm2.44-.41c1 1.95 2.09 3.88 3.15 5.75l.48.85-.1.05c-1.86 1-3.78 2.09-5.66 3.24-1.46-2.4-2.8-4.91-4.1-7.37 1.79-1 3.71-2 5.9-3.19Zm15.03-11.35L307.64 25l-1.38.71c.22.44.45.87.68 1.31a1.48 1.48 0 0 1-.37 1.85.9.9 0 0 1-.26.17 1.49 1.49 0 0 1-2-.62l-.7-1.34-.58.3-2.24 1.15a1.49 1.49 0 0 0-.66 2c.25.52.51 1 .77 1.55a58.79 58.79 0 0 0 4.32 7.37 1.51 1.51 0 0 0 2.05.4 98 98 0 0 1 8.86-4.93 1.27 1.27 0 0 0 .27-.18 1.45 1.45 0 0 0 .49-.75 1.53 1.53 0 0 0-.17-1.2c-2-3.18-3.53-5.8-4.87-8.26a1.5 1.5 0 0 0-2-.61Zm3.44 9.08c-2 1-4.26 2.23-6.43 3.56a61.25 61.25 0 0 1-3.31-5.82 1.86 1.86 0 0 0-.1-.2l.93-.48L309 27.7l.9-.46c.99 1.76 2.1 3.65 3.39 5.76Z"/><path fill="#525d7d" d="m286.7 22-.65-1.4a1.5 1.5 0 0 0-1.93-.75h-.07a1.51 1.51 0 0 0-.72 2c.2.44.41.88.62 1.33.59 1.24 1.22 2.52 1.9 3.86l2.6-1.51c-.62-1.19-1.2-2.37-1.75-3.53Zm2.69 11.92c.23.42.46.86.71 1.31a1.5 1.5 0 0 0 2 .62 2.2 2.2 0 0 0 .25-.17 1.51 1.51 0 0 0 .36-1.86L292 32.5c-.84-1.57-1.56-3-2.23-4.25l-2.6 1.5c.69 1.25 1.41 2.63 2.22 4.17Zm16.92-4.86a.9.9 0 0 0 .26-.17 1.48 1.48 0 0 0 .37-1.85c-.23-.44-.46-.87-.68-1.31a80.91 80.91 0 0 1-3.1-6.93 1.5 1.5 0 0 0-1.94-.85 1.41 1.41 0 0 0-.62.47l.36-.21a1.5 1.5 0 1 1 1.54 2.57l-1.41.84c.77 1.84 1.58 3.66 2.48 5.43v.05l.7 1.34a1.49 1.49 0 0 0 2.04.62Z"/><path fill="#525d7d" d="M303 18.73a1.5 1.5 0 0 0-2.06-.52l-.36.21q-6.12 3.64-12.15 7.15l-2.6 1.51c-4.75 2.73-9.5 5.38-14.27 7.9a1.49 1.49 0 0 0-.66 1.94c.81 1.8 1.72 3.71 2.78 5.88.22.44.43.88.66 1.35a1.51 1.51 0 0 0 2 .67 1.75 1.75 0 0 0 .29-.18 1.51 1.51 0 0 0 .38-1.83l-.64-1.3c-.81-1.65-1.53-3.14-2.17-4.54 4.34-2.32 8.65-4.74 13-7.22l2.6-1.5a1264 1264 0 0 0 11.28-6.63l1.41-.84a1.5 1.5 0 0 0 .51-2.05ZM181.2 41.76l-.44-.35a1.53 1.53 0 0 0-2.07.19 61.54 61.54 0 0 1-5.42 5.08 25.06 25.06 0 0 1-3.62-3.27c-.66-.68-1.35-1.39-2.07-2a1.5 1.5 0 0 0-2.06 0 31.72 31.72 0 0 1-3.72 3c-.6.43-1.21.88-1.81 1.34-2.12-1.8-4.38-3.67-6.8-5.42a1.5 1.5 0 0 0-1.72 0c-1.16.79-2.29 1.66-3.38 2.51a52.14 52.14 0 0 1-4.41 3.16 1.5 1.5 0 0 0 1.57 2.56 54.43 54.43 0 0 0 4.67-3.35c.81-.63 1.59-1.23 2.37-1.79 2.38 1.76 4.61 3.64 6.7 5.43a1.49 1.49 0 0 0 1.93 0c.84-.69 1.71-1.33 2.64-2s2-1.45 3-2.28c.32.31.64.64 1 1a23 23 0 0 0 5.18 4.35 1.51 1.51 0 0 0 1.71-.17l.18-.16c1.83-1.57 3.72-3.19 5.4-4.91 3 2.39 5.84 4.68 8.59 7.25a1.5 1.5 0 0 0 2.05-2.19c-3.1-2.91-6.34-5.49-9.47-7.98ZM61.47 68.63a1.51 1.51 0 0 0-2.12 0c-3.1 3-5.28 4.83-6.72 6-1.91 1.61-2.7 2.27-2.34 3.48s1.45 1.29 2.71 1.44a27.72 27.72 0 0 1 5.06 1c-.41.45-.95 1-1.52 1.63-1.22 1.28-2.88 3-5.08 5.49a1.5 1.5 0 0 0 .12 2.12 1.46 1.46 0 0 0 1 .38 1.51 1.51 0 0 0 1.12-.5c2.17-2.42 3.81-4.16 5-5.43 2.62-2.78 3.33-3.53 3-4.77s-1.32-1.38-2.22-1.63L59 77.7a31.19 31.19 0 0 0-4.26-1c1.4-1.18 3.64-3.08 6.66-6a1.5 1.5 0 0 0 .07-2.07Zm283.44 18.25c0 1.31-.1 2.63-.2 3.91a1.5 1.5 0 0 0 2.88.7 1.47 1.47 0 0 0 .11-.47c.1-1.33.17-2.7.2-4.07a1.5 1.5 0 1 0-3-.07Zm.56-14.42a1.5 1.5 0 0 0-1.29 1.69c.18 1.3.32 2.62.44 3.9a1.5 1.5 0 0 0 1.62 1.37 1.52 1.52 0 0 0 1.26-.92 1.54 1.54 0 0 0 .11-.71c-.12-1.33-.27-2.69-.46-4.05a1.49 1.49 0 0 0-1.68-1.28Zm-24.96-36.14a1.49 1.49 0 0 0 2.06-.5 1.28 1.28 0 0 0 .11-.2 1.51 1.51 0 0 0-.61-1.86c-1.14-.7-2.34-1.38-3.55-2a1.5 1.5 0 0 0-1.41 2.65c1.16.59 2.3 1.25 3.4 1.91Zm7.17 5.07c1 .83 2 1.7 2.93 2.58a1.5 1.5 0 0 0 2.05-2.19c-1-.92-2-1.83-3.08-2.71a1.5 1.5 0 1 0-1.9 2.32Zm12.94 12.8a1.5 1.5 0 0 0 .61-.71 1.48 1.48 0 0 0-.1-1.35c-.69-1.15-1.47-2.31-2.3-3.44a1.5 1.5 0 0 0-2.42 1.78c.78 1.06 1.51 2.14 2.15 3.21a1.5 1.5 0 0 0 2.06.51Zm4.87 11.47a1.54 1.54 0 0 0 .08-.88c-.21-1.07-.43-2.17-.47-2.78a1.1 1.1 0 0 0 0-.18c-.07-.34-.14-.69-.23-1a1.5 1.5 0 0 0-2.91.71q.09.42.18.81a26.32 26.32 0 0 0 .51 3.07 1.51 1.51 0 0 0 1.77 1.18 1.52 1.52 0 0 0 1.07-.93Zm-23.4 80.6c-.55 1.33-1 2.6-1.48 3.77a1.5 1.5 0 0 0 2.79 1.1.14.14 0 0 1 0-.06c.42-1.13.91-2.37 1.44-3.67a1.5 1.5 0 0 0-2.77-1.15Zm6.51-6.87c.59-1.1 1.22-2.22 1.93-3.43l.09-.18a1.5 1.5 0 0 0-2.68-1.34c-.73 1.25-1.38 2.4-2 3.54a1.5 1.5 0 1 0 2.64 1.41Zm14.91-39.86c-.25 1.26-.54 2.55-.86 3.82a1.5 1.5 0 0 0 2.83 1 .86.86 0 0 0 .07-.21c.34-1.32.64-2.66.9-4a1.5 1.5 0 1 0-2.94-.58ZM340 111.75c-.47 1.22-1 2.47-1.5 3.63a1.49 1.49 0 0 0 .78 2 1.51 1.51 0 0 0 2-.78c.22-.52.45-1.06.69-1.61.3-.72.58-1.43.86-2.14a1.51 1.51 0 0 0-.86-1.94 1.49 1.49 0 0 0-1.97.84Zm-7.38 15.01a1.5 1.5 0 0 0 2.58 1.53c.74-1.24 1.39-2.39 2-3.51l.07-.15a1.5 1.5 0 0 0-2.7-1.29c-.57 1.09-1.23 2.2-1.95 3.42Z"/><path fill="#e0dfe6" d="M250.83 244.29a3.86 3.86 0 0 0-2.23-1.82 2.49 2.49 0 0 0 .77-1.34 2.83 2.83 0 0 0-2.06-3.36l-.81-.2a2.82 2.82 0 0 0-3.36 2.06 2.87 2.87 0 0 0 1.63 3.22 3.34 3.34 0 0 0-1.23 1.41c-3.32 7-15.64 8.62-22.32 6.27-6.46-2.27-12.19-6.76-17.93-10.67a19.5 19.5 0 0 0 2.69-9.59c.27-6.3-10.24-6.11-9.79.2.14 2 .23 4.27-1.05 5.92-1.06 1.36-3.36 2-4-.12-.89-3-5.73-2.42-5.53.84a8.71 8.71 0 0 0 11.47 7.56 11 11 0 0 0 3.85-2.13c7 7.23 15.13 15.15 25.35 16.34 7 .82 18.59-1.09 23.08-7.57v4.54c-.05 2.74 4.54 3.34 4.85.53a69.76 69.76 0 0 0 .89-9.88 2.85 2.85 0 0 0-4.27-2.21Z"/><path fill="#525d7d" d="M200.69 235.3a1.51 1.51 0 0 1 2.12.08l.8.84a7.82 7.82 0 0 0-.17-8.32c-2.52-4.13-9.14-6.08-12.86-3.8-.27.16-.52.33-.77.51s-.46.33-.73.49l-.22.11c-.21.1-.44.21-.64.33-1.91 1.17-3.6 7.49-1 11.77 3 4.86 10.09 4 13.07 2.17a11.51 11.51 0 0 0 1.34-1c-.35-.36-.7-.72-1-1.09a1.5 1.5 0 0 1 .06-2.09Zm-10.89.44c-1.75-2.86-.56-6.89.07-7.69l.28-.13a4.25 4.25 0 0 0 .49-.26c.33-.2.62-.4.89-.59s.4-.28.61-.41c2.14-1.31 6.94-.14 8.74 2.8 1.69 2.76.87 5.62-2.13 7.46-2.06 1.26-7.14 1.78-8.95-1.18Z"/><path fill="#525d7d" d="M248.58 243.87c-14.88 9.07-31.61 6.2-45-7.65l-.8-.84a1.5 1.5 0 1 0-2.2 2c.34.37.69.73 1 1.09 14.38 14.78 32.43 17.75 48.55 7.88l.11-.06c.13-.49.25-1 .41-1.45-.65-.28-1.39-.62-2.07-.97Z"/><path fill="#525d7d" d="M244 236.47a1.5 1.5 0 1 0-2.45 1.73 19.17 19.17 0 0 0 7 5.67c.68.35 1.39.69 2.14 1-.16.47-.28 1-.41 1.45a28.92 28.92 0 0 0-.95 8.16 1.5 1.5 0 0 0 1.53 1.46 1.37 1.37 0 0 0 .75-.22 1.51 1.51 0 0 0 .72-1.31 24.75 24.75 0 0 1 1.67-9.81 1.5 1.5 0 0 0-.85-2c-4.34-1.6-7.42-3.7-9.15-6.13Zm137.86-113.38c.12.76-.73 19.59-.68 20.37 0 .49.73.95 1.55 1s1.33-.2 1.41-.62a.49.49 0 0 0 0-.12c-.06-.81.79-19.67.66-20.47-.08-.49-.8-.93-1.62-1s-1.4.35-1.32.84Z"/></svg>