<svg width="147" height="159" viewBox="0 0 147 159" fill="none" xmlns="http://www.w3.org/2000/svg">
<path d="M73 131C107.493 131 135.455 103.018 135.455 68.5C135.455 33.9822 107.493 6 73 6C38.507 6 10.5449 33.9822 10.5449 68.5C10.5449 103.018 38.507 131 73 131Z" fill="#EAEEF9"/>
<g filter="url(#filter0_d_20_6414)">
<path d="M119.66 125.562H27.3553C24.52 125.562 22.1572 123.276 22.1572 120.36V16.6399C22.1572 13.8026 24.4412 11.517 27.3553 11.517H119.66C122.495 11.517 124.858 13.8026 124.858 16.7187V120.36C124.858 123.197 122.574 125.562 119.66 125.562Z" fill="url(#paint0_linear_20_6414)"/>
</g>
<path d="M113.91 42.8064H32.4739C31.5288 42.8064 30.7412 42.0182 30.7412 41.0725V25.6248C30.7412 24.679 31.5288 23.8909 32.4739 23.8909H113.91C114.855 23.8909 115.642 24.679 115.642 25.6248V40.9936C115.721 42.0182 114.933 42.8064 113.91 42.8064Z" fill="#EAEEF9"/>
<path d="M39.2475 35.7131C40.5524 35.7131 41.6102 34.6545 41.6102 33.3487C41.6102 32.0428 40.5524 30.9843 39.2475 30.9843C37.9426 30.9843 36.8848 32.0428 36.8848 33.3487C36.8848 34.6545 37.9426 35.7131 39.2475 35.7131Z" fill="#AAB2C5"/>
<path d="M97.3704 34.9249H49.5643C49.1705 34.9249 48.8555 34.6096 48.8555 34.2156V32.4028C48.8555 32.0087 49.1705 31.6935 49.5643 31.6935H97.3704C97.7642 31.6935 98.0792 32.0087 98.0792 32.4028V34.2156C98.0792 34.6096 97.7642 34.9249 97.3704 34.9249Z" fill="#AAB2C5"/>
<path d="M113.91 67.0812H32.4739C31.5288 67.0812 30.7412 66.2931 30.7412 65.3473V49.9784C30.7412 49.0327 31.5288 48.2445 32.4739 48.2445H113.91C114.855 48.2445 115.642 49.0327 115.642 49.9784V65.3473C115.721 66.2931 114.933 67.0812 113.91 67.0812Z" fill="#EAEEF9"/>
<path d="M39.2475 59.9879C40.5524 59.9879 41.6102 58.9293 41.6102 57.6235C41.6102 56.3176 40.5524 55.259 39.2475 55.259C37.9426 55.259 36.8848 56.3176 36.8848 57.6235C36.8848 58.9293 37.9426 59.9879 39.2475 59.9879Z" fill="#AAB2C5"/>
<path d="M97.3704 59.2785H49.5643C49.1705 59.2785 48.8555 58.9633 48.8555 58.5692V56.7565C48.8555 56.3624 49.1705 56.0471 49.5643 56.0471H97.3704C97.7642 56.0471 98.0792 56.3624 98.0792 56.7565V58.5692C98.0792 58.9633 97.7642 59.2785 97.3704 59.2785Z" fill="#AAB2C5"/>
<path d="M113.91 115.71H32.4739C31.5288 115.71 30.7412 114.922 30.7412 113.976V98.6071C30.7412 97.6613 31.5288 96.8732 32.4739 96.8732H113.91C114.855 96.8732 115.642 97.6613 115.642 98.6071V113.976C115.721 114.922 114.933 115.71 113.91 115.71Z" fill="#EAEEF9"/>
<path d="M39.2475 108.616C40.5524 108.616 41.6102 107.558 41.6102 106.252C41.6102 104.946 40.5524 103.888 39.2475 103.888C37.9426 103.888 36.8848 104.946 36.8848 106.252C36.8848 107.558 37.9426 108.616 39.2475 108.616Z" fill="#AAB2C5"/>
<path d="M97.3704 107.828H49.5643C49.1705 107.828 48.8555 107.513 48.8555 107.119V105.306C48.8555 104.912 49.1705 104.597 49.5643 104.597H97.3704C97.7642 104.597 98.0792 104.912 98.0792 105.306V107.119C98.0792 107.513 97.7642 107.828 97.3704 107.828Z" fill="#AAB2C5"/>
<path d="M132.102 90.3562H50.6668C50.2746 90.3562 49.9341 90.0165 49.9341 89.6223V74.2535C49.9341 73.8593 50.2746 73.5195 50.6668 73.5195H132.102C132.495 73.5195 132.835 73.8593 132.835 74.2535V89.6223C132.835 90.0165 132.495 90.3562 132.102 90.3562Z" fill="#D6DCE8" stroke="#AAB2C5" stroke-width="2" stroke-miterlimit="10"/>
<path d="M57.4404 84.3417C58.7453 84.3417 59.8031 83.2831 59.8031 81.9772C59.8031 80.6714 58.7453 79.6128 57.4404 79.6128C56.1355 79.6128 55.0776 80.6714 55.0776 81.9772C55.0776 83.2831 56.1355 84.3417 57.4404 84.3417Z" fill="#AAB2C5"/>
<path d="M115.563 83.5537H67.7572C67.3634 83.5537 67.0483 83.2384 67.0483 82.8443V81.0316C67.0483 80.6375 67.3634 80.3223 67.7572 80.3223H115.563C115.957 80.3223 116.272 80.6375 116.272 81.0316V82.8443C116.272 83.2384 115.957 83.5537 115.563 83.5537Z" fill="#AAB2C5"/>
<defs>
<filter id="filter0_d_20_6414" x="0.157227" y="0.516968" width="146.7" height="158.045" filterUnits="userSpaceOnUse" color-interpolation-filters="sRGB">
<feFlood flood-opacity="0" result="BackgroundImageFix"/>
<feColorMatrix in="SourceAlpha" type="matrix" values="0 0 0 0 0 0 0 0 0 0 0 0 0 0 0 0 0 0 127 0" result="hardAlpha"/>
<feOffset dy="11"/>
<feGaussianBlur stdDeviation="11"/>
<feColorMatrix type="matrix" values="0 0 0 0 0.397708 0 0 0 0 0.47749 0 0 0 0 0.575 0 0 0 0.27 0"/>
<feBlend mode="normal" in2="BackgroundImageFix" result="effect1_dropShadow_20_6414"/>
<feBlend mode="normal" in="SourceGraphic" in2="effect1_dropShadow_20_6414" result="shape"/>
</filter>
<linearGradient id="paint0_linear_20_6414" x1="73.474" y1="8.879" x2="73.474" y2="126.791" gradientUnits="userSpaceOnUse">
<stop stop-color="#FDFEFF"/>
<stop offset="0.9964" stop-color="#ECF0F5"/>
</linearGradient>
</defs>
</svg>
