<svg xmlns="http://www.w3.org/2000/svg" viewBox="0 0 384.83 272.66"><path d="M89.69,183a120.6,120.6,0,0,0,13.1.54h4.48a1.5,1.5,0,0,0,0-3h-4.48A116.14,116.14,0,0,1,90,180a1.5,1.5,0,0,0-.34,3Z" fill="#525d7d"/><path d="M89.48,192.89c3.39-.12,6.89-.25,10.34-.25,2.75,0,5.21.08,7.5.25h.11a1.5,1.5,0,0,0,.1-3c-2.36-.16-4.88-.25-7.71-.25-3.5,0-7,.13-10.44.25a1.5,1.5,0,1,0,.1,3Z" fill="#525d7d"/><path d="M98.27,201.34c-2.7.16-5.48.34-8.2.34a1.5,1.5,0,0,0,0,3c2.81,0,5.64-.18,8.38-.35,3.36-.2,6.82-.41,10.21-.3a1.48,1.48,0,0,0,1.55-1.45,1.5,1.5,0,0,0-1.45-1.55C105.25,200.91,101.69,201.13,98.27,201.34Z" fill="#525d7d"/><path d="M72.68,185.61a3.72,3.72,0,0,0,3.89-3.34,2.85,2.85,0,0,0,.06-.52c0-1.9-2.61-2.52-3.88-2.71a1.53,1.53,0,0,0-.89-.29c-1.49,0-2.89,1.93-2.89,3.42A3.63,3.63,0,0,0,72.68,185.61ZM72.06,182a6.21,6.21,0,0,1,1.44.34,1.26,1.26,0,0,1-.82.31c-.38,0-.71-.29-.71-.42A.76.76,0,0,1,72.06,182Z" fill="#525d7d"/><path d="M74.35,190.12a1.51,1.51,0,0,0-.9-.14,1.5,1.5,0,0,0-.52-.09,3.3,3.3,0,0,0-3.05,3.54c0,2,1.65,3.47,4,3.47,1.85,0,3.24-2.06,3.24-3.4C77.13,191.51,75.39,190.64,74.35,190.12Zm-.57,3.78c-.38,0-.9-.1-.9-.47a1,1,0,0,1,.15-.54h.12a3.9,3.9,0,0,1,1,.59A1.63,1.63,0,0,1,73.78,193.9Z" fill="#525d7d"/><path d="M75.39,201.53a1,1,0,0,1-.29,0,1.31,1.31,0,0,0-.63-.16,1.43,1.43,0,0,0-1.26-.26,4,4,0,0,0-2.8,3.62,3.11,3.11,0,0,0,3.34,2.9c1.83,0,3.76-1.12,3.76-3.2a3.47,3.47,0,0,0-1-2.43A1.77,1.77,0,0,0,75.39,201.53Zm-1.64,3.07a.74.74,0,0,1-.28,0,2,2,0,0,1,.25-.39,3,3,0,0,0,.72.27A1.48,1.48,0,0,1,73.75,204.6Z" fill="#525d7d"/><path d="M91.69,215.34a118.25,118.25,0,0,0,13.1.55h4.48a1.5,1.5,0,0,0,0-3h-4.48A116.14,116.14,0,0,1,92,212.36a1.5,1.5,0,0,0-.34,3Z" fill="#525d7d"/><path d="M91.48,225.21c3.39-.12,6.89-.25,10.34-.25,2.75,0,5.21.08,7.5.24h.11a1.5,1.5,0,0,0,.1-3c-2.36-.17-4.88-.25-7.71-.25-3.5,0-7,.13-10.44.25a1.5,1.5,0,0,0,.1,3Z" fill="#525d7d"/><path d="M100.27,233.66c-2.7.16-5.48.33-8.2.33a1.5,1.5,0,0,0,0,3c2.81,0,5.64-.17,8.38-.34,3.36-.2,6.82-.42,10.21-.3a1.48,1.48,0,0,0,1.55-1.45,1.5,1.5,0,0,0-1.45-1.55C107.25,233.23,103.69,233.45,100.27,233.66Z" fill="#525d7d"/><path d="M74.68,217.93a3.72,3.72,0,0,0,3.89-3.34,2.85,2.85,0,0,0,.06-.52c0-1.9-2.61-2.52-3.88-2.71a1.46,1.46,0,0,0-.89-.29c-1.49,0-2.89,1.93-2.89,3.42A3.63,3.63,0,0,0,74.68,217.93Zm-.62-3.65a5.74,5.74,0,0,1,1.44.34,1.32,1.32,0,0,1-.82.31c-.38,0-.71-.29-.71-.42A.76.76,0,0,1,74.06,214.28Z" fill="#525d7d"/><path d="M76.35,222.44a42.16,42.16,0,0,1-1.42-.23,3.3,3.3,0,0,0-3.05,3.53c0,2,1.65,3.48,4,3.48,1.85,0,3.24-2.06,3.24-3.4C79.13,223.83,77.39,223,76.35,222.44Zm-.57,3.78c-.38,0-.9-.1-.9-.48a1,1,0,0,1,.15-.53l.12,0a4.21,4.21,0,0,1,1,.6A1.63,1.63,0,0,1,75.78,226.22Z" fill="#525d7d"/><path d="M77.39,233.85a.75.75,0,0,1-.29,0,1.42,1.42,0,0,0-.63-.15,1.47,1.47,0,0,0-1.26-.27,4.06,4.06,0,0,0-2.8,3.63,3.11,3.11,0,0,0,3.34,2.9c1.83,0,3.76-1.12,3.76-3.2a3.47,3.47,0,0,0-1-2.43A1.77,1.77,0,0,0,77.39,233.85Zm-1.64,3.07a.74.74,0,0,1-.28,0,2,2,0,0,1,.25-.39,4.1,4.1,0,0,0,.72.27A1.48,1.48,0,0,1,75.75,236.92Z" fill="#525d7d"/><path d="M255,198.63c-3.47-2.13-8.31-2.14-12.69-2,2.14-8.23-.42-17.52-.78-26.11,0-.49-.81-.66-.89-.12-1.49,9.46-6.46,17.73-9.43,26.72-4.32.24-8.63.57-12.94.89-3.12.23-6.27.45-9.4.43-2.45,0-5.3-1.1-7.64-.62-2.61.52-4.06,3.45-4.42,6-.83.22-1.67.46-2.51.71a9.09,9.09,0,0,0,1.4-2.41,2.25,2.25,0,0,0,.13-.42c1.1-1.26,2.17-2.48,3.16-3.85.77-1.09-.68-2.07-1.64-1.64a19,19,0,0,0-3.09,1.77,3.6,3.6,0,0,0-2.32-.8c-2.21.11-4.08,1.25-6.28,1.23-2.93,0-5.22-1.78-7-4a34.32,34.32,0,0,1-7.36-17.25c-.05-.43-.7-.61-.82-.11-2,8.66-1.84,18.3,4.41,25.23a17.3,17.3,0,0,0,12.49,5.4,13.73,13.73,0,0,0-1.94,1.63,1.29,1.29,0,0,0,.56,2.12c5.37,1.29,11.23-.33,16.69-.37,6.11-.06,12.2.16,18.3.42,9.94.42,24.95,2.53,32.86-5a4.65,4.65,0,0,0,1-5.15l.15-.07A1.59,1.59,0,0,0,255,198.63Zm-54.54,4.28a2.61,2.61,0,0,1,.27-.22,4,4,0,0,1,3-.53C202.64,202.38,201.56,202.64,200.49,202.91Z" fill="#e0dfe6"/><path d="M144,114.36a6.39,6.39,0,0,1,1-1,1.13,1.13,0,0,0,.89.91,80.54,80.54,0,0,0,12,1.22c2.74.09,6,.69,8.73-.17a11.86,11.86,0,0,0,1.08.5c2.74,1,4.5-3.32,2-4.69-.23-.13-.45-.27-.67-.41a4.26,4.26,0,0,0-4.28-4.84,4.33,4.33,0,0,0-2.11.52c-2.5-.75-5.37-.2-7.87.15-4.41.62-11.22,1.61-12.22,6.94C142.41,114.29,143.37,115.06,144,114.36Z" fill="#e0dfe6"/><path d="M172.71,118c2.51,3.83,3.78,8.88,3.78,15,0,9.05-2.42,17.46-4.76,25.59-2.29,8-4.66,16.17-4.66,24.83,0,14.5,5.91,24.44,17.54,29.53a1.69,1.69,0,0,0,.54.12c19.82.87,44.47,1.51,45.32,1.51,23,0,28.23-9.87,30.18-17.3a1.5,1.5,0,0,0-1.48-1.88l-3.91.07c-3.28.07-6.67.14-10,.1,0-1,0-1.9,0-2.84,0-2.33,0-4.65,0-7s0-4.63,0-6.95a208.06,208.06,0,0,1,1-23.43,111.73,111.73,0,0,0,.66-12.19c0-15.61-2.74-25.29-8.89-31.38-7.46-7.4-19.2-8.71-36-8.83a7,7,0,0,1-.81,2,1,1,0,0,1-.86.5,1,1,0,0,1-.5-.14,1,1,0,0,1-.36-1.37,5.52,5.52,0,0,0,.44-1c-3.34,0-6.84,0-10.57.06s-7.72.07-11.87.07c-2.37,0-4.63,0-6.8,0-17.29-.18-28.71-.3-31.86,12.49a1.52,1.52,0,0,0,.29,1.3,1.47,1.47,0,0,0,1.2.56c6.29-.13,12.65.07,18.82.27C163.54,117.8,168.14,118,172.71,118Zm-30.44-3.62c2.53-6.73,8.82-8.13,20.16-8.32a19.1,19.1,0,0,0-5.09-.66,27.91,27.91,0,0,0-8.82,1.55,1,1,0,0,1-.63-1.9,30.11,30.11,0,0,1,9.45-1.65A18.2,18.2,0,0,1,167.4,106l3.2,0c2.18,0,4.45,0,6.83,0,4.16,0,8.13,0,11.9-.07,23-.21,38.23-.35,46.56,7.9,5.46,5.41,8,14.7,8,29.25a107.12,107.12,0,0,1-.65,11.9,212.78,212.78,0,0,0-1,23.72c0,2.32,0,4.65,0,7s0,4.64,0,7c0,1.13,0,2.27,0,3.41,2.05-.13,4-.31,5.88-.55a1,1,0,1,1,.26,2c-1.82.24-3.72.41-5.69.54a1.53,1.53,0,0,0,1,.43c3.89.09,7.82,0,11.61-.07l1.85,0c-2.25,6.49-7.89,13.15-26.7,13.15-.88,0-25.47-.65-44.9-1.49-.25-.11-.48-.24-.72-.35a24.91,24.91,0,0,1-4,.49,1,1,0,0,1-.09-2c.39,0,.77-.05,1.15-.08-7.88-5-11.87-13.28-11.87-24.73,0-8.23,2.21-15.89,4.54-24,2.4-8.32,4.88-16.93,4.88-26.41,0-7-1.58-12.83-4.67-17.23.61,1.44,1.12,2.87,1.59,4.21a34.8,34.8,0,0,0,2.13,5.16,1,1,0,0,1-.37,1.36,1,1,0,0,1-1.36-.37,35.81,35.81,0,0,1-2.28-5.48,57.14,57.14,0,0,0-2.26-5.67c-4.38,0-8.8-.17-13.1-.3C153.65,114.48,147.92,114.3,142.27,114.35Z" fill="#525d7d"/><path d="M221.13,195.79c-4.78-.25-9.72-.51-14.61-.51-2.78,0-5.63.12-7.54.22a1,1,0,0,0-.84.57c-3.6,7.55-8.76,11.4-16.2,12.06-.38,0-.76.07-1.15.08a1,1,0,0,0,.05,2,24.85,24.85,0,0,0,4-.49c6.53-1.35,11.42-5.38,14.83-12.25,1.85-.09,4.37-.19,6.84-.19,4.84,0,9.75.26,14.5.51s9.69.52,14.57.52c2.51,0,4.86-.08,7.11-.22,2-.13,3.87-.3,5.69-.54a1,1,0,1,0-.26-2c-1.88.24-3.83.42-5.88.55s-4.32.19-6.66.19C230.77,196.31,225.87,196.05,221.13,195.79Z" fill="#525d7d"/><path d="M172.27,115a57.14,57.14,0,0,1,2.26,5.67,35.81,35.81,0,0,0,2.28,5.48,1,1,0,0,0,1.73-1,34.8,34.8,0,0,1-2.13-5.16c-.47-1.34-1-2.77-1.59-4.21-1.53-3.65-3.67-7.35-7.42-9.75a18.2,18.2,0,0,0-10.06-2.63,30.11,30.11,0,0,0-9.45,1.65,1,1,0,0,0,.63,1.9,27.91,27.91,0,0,1,8.82-1.55,19.1,19.1,0,0,1,5.09.66C167.59,107.44,170.38,111,172.27,115Z" fill="#525d7d"/><path d="M200.81,121.94c6.6.44,13.35.66,20.09.66a1.5,1.5,0,0,0,0-3c-6.67,0-13.36-.22-19.89-.65a1.5,1.5,0,0,0-.2,3Z" fill="#525d7d"/><path d="M201.61,139.77a1.5,1.5,0,0,0,1.5,1.5h22.18a1.5,1.5,0,0,0,0-3H203.11A1.5,1.5,0,0,0,201.61,139.77Z" fill="#525d7d"/><path d="M216.63,158.57c-4.47.09-9.08.18-13.65.56a1.5,1.5,0,0,0,.13,3h.12c4.47-.37,9-.46,13.46-.55,3.34-.06,6.8-.13,10.22-.32a1.5,1.5,0,0,0,1.41-1.58,1.48,1.48,0,0,0-1.58-1.42C223.38,158.44,220,158.51,216.63,158.57Z" fill="#525d7d"/><path d="M225.9,176.49l-2.21-.27A133.73,133.73,0,0,0,207.8,175c-1.77,0-3.42.06-5,.2a1.5,1.5,0,0,0,.26,3c1.53-.13,3.1-.19,4.78-.19a131.28,131.28,0,0,1,15.53,1.24l2.22.27h.18a1.51,1.51,0,0,0,1.49-1.33A1.49,1.49,0,0,0,225.9,176.49Z" fill="#525d7d"/><path d="M223.44,189.43c-2.47.16-5,.18-7.51.19a77.52,77.52,0,0,0-14,.94,1.5,1.5,0,0,0,.27,3l.28,0a76.3,76.3,0,0,1,13.43-.88c2.53,0,5.13,0,7.69-.19a1.5,1.5,0,0,0-.19-3Z" fill="#525d7d"/><path d="M182.87,123.53a6.29,6.29,0,0,0,1.81-1.88,8.69,8.69,0,0,1,1.61-1.81c.11.06,1,.72,1.63,6.91a1,1,0,0,0,1,.9h.1a1,1,0,0,0,.9-1.1c-.57-5.68-1.45-8.18-3-8.63s-2.73,1.14-3.77,2.52a7.89,7.89,0,0,1-1.11,1.3,1,1,0,1,0,.89,1.79Z" fill="#525d7d"/><path d="M190.15,138.74c0-1.86-1-3.06-2.66-3.06a2.6,2.6,0,0,0-2.73,2.77,1,1,0,0,0,2,0c0-.56.2-.77.73-.77.2,0,.66,0,.66,1.06,0,1.22-1.63,2.34-2.72,3.09s-1.9,1.3-1.59,2.27,1.3,1.22,5.57,1.22a9.58,9.58,0,0,1,1.07.05h.11a1,1,0,0,0,.11-2c-.41,0-.83-.06-1.29-.06-1.13,0-1.95,0-2.54,0C188.28,142.29,190.15,140.86,190.15,138.74Z" fill="#525d7d"/><path d="M188.12,159a4.57,4.57,0,0,0,.39-1.91,2.64,2.64,0,0,0-2.48-2.38,6.35,6.35,0,0,0-3.7,2.21,1,1,0,0,0,1.6,1.2,5.56,5.56,0,0,1,2.07-1.41.94.94,0,0,1,.51.38,1.86,1.86,0,0,1-1,1.89,1,1,0,0,0-.58,1.22,1.13,1.13,0,0,0,1.3.74l1,0c.57,0,1.52.23,1.52,1.1a2.41,2.41,0,0,1-2.45,2,4.42,4.42,0,0,1-1.88-.61,1,1,0,0,0-1.34.45,1,1,0,0,0,.45,1.34,6.09,6.09,0,0,0,2.77.82c2.11,0,4.45-1.66,4.45-4A3.08,3.08,0,0,0,188.12,159Z" fill="#525d7d"/><path d="M186.16,176.9h.26a1,1,0,0,0,.42-1.9c-.19.59-.39,1.16-.61,1.72A1.34,1.34,0,0,1,186.16,176.9Z" fill="#525d7d"/><path d="M184,176.89l.33-.88c.15-.37.28-.74.41-1.11-.62,0-1.17,0-1.55,0a12.44,12.44,0,0,0,1.17-3.29,1,1,0,0,0-.78-1.17,1,1,0,0,0-1.18.78,10.18,10.18,0,0,1-1,2.79c-.36.72-.69,1.4-.27,2.09S182.15,176.86,184,176.89Z" fill="#525d7d"/><path d="M184,176.89a14.62,14.62,0,0,0-.7,2.45,1,1,0,0,0,.81,1.16h.18a1,1,0,0,0,1-.82,15.87,15.87,0,0,1,.86-2.79,1.34,1.34,0,0,0,.07-.18c.22-.56.42-1.13.61-1.72a10,10,0,0,0,.58-3.16,1,1,0,0,0-2,0,9.08,9.08,0,0,1-.65,3.06c-.13.37-.26.74-.41,1.11Z" fill="#525d7d"/><path d="M180.49,193.26l.51,1.5a1,1,0,0,0,.62.62,1,1,0,0,0,.88-.12,5,5,0,0,1,2.63-1c.42,0,1.4.09,1.4.89,0,1.77-2.08,3.06-3.8,2.79a1,1,0,0,0-1.15.83,1,1,0,0,0,.84,1.14,4.77,4.77,0,0,0,.76.06c2.53,0,5.35-2,5.35-4.82,0-1.73-1.37-2.89-3.4-2.89a6.06,6.06,0,0,0-2.63.67c0-.1-.07-.21-.11-.32l-.39-1.16c1.21-.63,2.52-1.25,4.06-1.92a1,1,0,1,0-.79-1.83c-1.92.83-3.5,1.59-5,2.39a1,1,0,0,0-.47,1.21C180.06,192,180.28,192.62,180.49,193.26Z" fill="#525d7d"/><path d="M199.79,105.31a1,1,0,0,0,.5.14,1,1,0,0,0,.86-.5,7,7,0,0,0,.81-2,9.57,9.57,0,0,0,.28-2.42c0-6.76-3.37-10.33-9.74-10.33a50.89,50.89,0,0,0-10.66,1.55,49.19,49.19,0,0,1-10.15,1.49c-4.17,0-10.61-2-10.61-4.65,0-3.66,12.25-6,31.22-6,2.11,0,4.22,0,6.34,0s4.26,0,6.4,0c24.58,0,24.58-2.89,24.58-4.13,0-1.91-5.14-7-16.73-7-12.63,0-29.61,1.67-44.59,3.14-11.12,1.09-20.72,2-26,2s-11.94-.47-15.64-4.17a1,1,0,0,0-1.42,0,1,1,0,0,0,0,1.41c4.22,4.22,11.33,4.76,17.06,4.76,5.38,0,15-.94,26.19-2,14.94-1.47,31.87-3.13,44.4-3.13,9.84,0,14.27,3.81,14.71,4.89-.76.79-6.31,2.19-22.56,2.19-2.14,0-4.26,0-6.39,0s-4.23,0-6.35,0c-15.16,0-33.22,1.39-33.22,8,0,4.64,8.35,6.65,12.61,6.65a50.23,50.23,0,0,0,10.58-1.54,49.09,49.09,0,0,1,10.23-1.5c5.28,0,7.74,2.64,7.74,8.33a7.41,7.41,0,0,1-.37,2.42,5.52,5.52,0,0,1-.44,1A1,1,0,0,0,199.79,105.31Z" fill="#525d7d"/><path d="M99,76.41c4.5,3.89,11.49,5.4,16.5,2.56,5.75-.39,10.93-5.92,11-11.72a1.48,1.48,0,0,0-2.73-.74,10.94,10.94,0,0,1-4.77,4.76,3.48,3.48,0,0,0-4.68-1c-3.88,2.5-8.33,1.52-11.69-1.4-3.61-3.13-4.16-7.15-6.06-11.19a1.22,1.22,0,0,0-1.91-.25C90,63.12,94.2,72.3,99,76.41Z" fill="#e0dfe6"/><path d="M61.47,153.93a2.48,2.48,0,0,0,.65-4.85,12.55,12.55,0,0,0-5.24-.53,13,13,0,0,0-4.56.66,1.26,1.26,0,0,0-.25,2A12.85,12.85,0,0,0,56.28,153,12.64,12.64,0,0,0,61.47,153.93Z" fill="#e0dfe6"/><path d="M69.61,154.41a1.53,1.53,0,0,0,.4,3,37.51,37.51,0,0,1,8.63,2.34c3.93,1.42,5.79-5.48,1.71-6.2A21.9,21.9,0,0,0,69.61,154.41Z" fill="#e0dfe6"/><path d="M96.78,152.83a99.21,99.21,0,0,1-10.13,1.59c-1.66.17-2.31,2.71-.42,3.13a51.68,51.68,0,0,0,11.36,1.3C101.94,158.85,101.26,151.92,96.78,152.83Z" fill="#e0dfe6"/><path d="M66.76,128.82c3.6,1.09,7.16,2,10.84,2.79,3.41.73,6.93,1.86,10.43,1.71,3.85-.16,4.78-5.72.92-6.81-6.59-1.87-15-1-21.8-.57A1.47,1.47,0,0,0,66.76,128.82Z" fill="#e0dfe6"/><path d="M77.26,124.23l-1.69-.09c-2.68-.13-5.43-.26-8.16-.5.9-4.67,1.5-9.43,2-14l16.92,1.41c-.31,2-.59,4-.86,6-.35,2.5-.7,5.07-1.11,7.61-2.34-.23-4.68-.36-7-.47a1.5,1.5,0,0,1,1.34,1.6c0,.48-.07,1-.12,1.46,2.16.12,4.33.26,6.47.49l.38,0h.17a1.49,1.49,0,0,0,1.48-1.25c.51-3,.94-6.1,1.35-9.08.34-2.48.7-5.06,1.1-7.56a1.58,1.58,0,0,0,0-.65c-.64.51-1.29,1-2,1.5a1.44,1.44,0,0,1-.88.3,1.52,1.52,0,0,1-1.21-.61,1.5,1.5,0,0,1,.32-2.1l.44-.34-18-1.49a1.5,1.5,0,0,0-1.61,1.34c-.43,4-.93,8.14-1.61,12.28A1.5,1.5,0,0,1,66,123l-1.67.78c-.06.3-.11.6-.17.89a1.56,1.56,0,0,0,.33,1.2,1.64,1.64,0,0,0,1.12.61c3.29.36,6.61.51,9.83.67h.17l.12-1.54A1.5,1.5,0,0,1,77.26,124.23Z" fill="#525d7d"/><path d="M98.82,142.41c-.89-.12-1.77-.23-2.66-.32-.34,0-.71-.06-1-.09,0,.49-.1,1-.15,1.49a1.5,1.5,0,0,1-1.49,1.35h-.15A1.5,1.5,0,0,1,92,143.19c0-.5.09-1,.14-1.45-1.48-.09-3-.16-4.5-.2a1.51,1.51,0,0,0-1.54,1.4c-.08,1.28-.19,2.59-.34,4-.18,1.64-.41,3.43-.72,5.62a1.51,1.51,0,0,0,.29,1.12,1.48,1.48,0,0,0,1,.58l1.72.2c2.44.26,4.92.42,7.32.58l1.92.12h.1a1.5,1.5,0,0,0,1.48-1.3c.18-1.34.34-2.67.49-4,.22-1.88.45-3.83.76-5.74a1.54,1.54,0,0,0-.28-1.13A1.49,1.49,0,0,0,98.82,142.41Zm-2.46,7.12c-.09.85-.19,1.7-.3,2.56l-.52,0c-2.37-.15-4.82-.31-7.19-.56l-.15,0c.21-1.56.38-2.92.52-4.21.1-.93.18-1.82.25-2.68,2.36.09,4.66.25,6.87.49l1.06.12C96.7,146.65,96.53,148.11,96.36,149.53Z" fill="#525d7d"/><path d="M75.61,142l-.2,0a1.49,1.49,0,0,1-1.29-1.68c.07-.51.13-1,.19-1.48l-2.74-.34a1.56,1.56,0,0,0-1.14.34,1.47,1.47,0,0,0-.53,1c-.05.74-.12,1.47-.2,2.21-.22,2.1-.56,4.25-.88,6.33-.13.83-.26,1.66-.38,2.49a1.5,1.5,0,0,0,1.26,1.7l1.61.23c2.55.37,5.18.75,7.73,1.3a1.63,1.63,0,0,0,.31,0A1.49,1.49,0,0,0,80.82,153c.75-3.56,1.21-7.2,1.65-10.73l.1-.75a1.5,1.5,0,0,0-1.25-1.67c-1.29-.21-2.62-.41-4-.61-.06.48-.13,1-.19,1.48A1.51,1.51,0,0,1,75.61,142Zm2.56,8.89c-2.15-.41-4.32-.72-6.43-1l-.11,0,.15-1c.33-2.11.67-4.3.91-6.47,0-.25,0-.5.07-.75,2.46.3,4.62.59,6.65.9C79.06,145.33,78.69,148.16,78.17,150.91Z" fill="#525d7d"/><path d="M59.93,140.68h-.18A1.5,1.5,0,0,1,58.44,139c.07-.49.12-1,.17-1.47l-1.53-.17-2.46-.25A1.49,1.49,0,0,0,53,138.39c-.39,2.77-.91,5.77-1.64,9.45a1.51,1.51,0,0,0,.26,1.18,1.48,1.48,0,0,0,1,.6,96.91,96.91,0,0,1,10,1.48,1.66,1.66,0,0,0,.32,0A1.5,1.5,0,0,0,64.46,150a58.94,58.94,0,0,0,1.44-8.43c.06-.57.12-1.15.17-1.72a1.49,1.49,0,0,0-1.32-1.63L62.28,138l-.68-.08-.18,1.5A1.49,1.49,0,0,1,59.93,140.68Zm3,.36,0,.22a60.34,60.34,0,0,1-1,6.61c-2.49-.47-5-.79-7.28-1.05.47-2.44.85-4.58,1.15-6.59l1,.11c1.72.19,3.44.38,5.17.59Z" fill="#525d7d"/><path d="M78.59,127.3c0-.49.08-1,.12-1.46a1.5,1.5,0,0,0-1.34-1.6h-.11a1.5,1.5,0,0,0-1.54,1.38l-.12,1.54c-.11,1.26-.23,2.57-.38,3.94l3,.49C78.34,130.09,78.48,128.67,78.59,127.3Z" fill="#525d7d"/><path d="M74.31,138.84c-.06.48-.12,1-.19,1.48A1.49,1.49,0,0,0,75.41,142l.2,0a1.51,1.51,0,0,0,1.49-1.31c.06-.51.13-1,.19-1.48.22-1.72.41-3.24.57-4.67-1-.15-2-.32-3-.48C74.73,135.53,74.54,137.08,74.31,138.84Z" fill="#525d7d"/><path d="M59.17,129.84a1.52,1.52,0,0,1,1.74-1.22l.42.08a1.37,1.37,0,0,0-.75-.22A1.47,1.47,0,0,0,59.07,130c0,2.52-.18,5-.45,7.54-.06.52-.11,1-.18,1.5a1.5,1.5,0,0,0,1.31,1.67h.18a1.49,1.49,0,0,0,1.49-1.31l.18-1.5v-.05c.21-2,.33-4,.4-6l-1.61-.28A1.51,1.51,0,0,1,59.17,129.84Z" fill="#525d7d"/><path d="M93.32,144.83h.15A1.5,1.5,0,0,0,95,143.49c.05-.52.1-1,.15-1.49.23-2.41.4-4.52.52-6.49a1.49,1.49,0,0,0-1.31-1.58c-5.35-.67-10.72-1.47-16.13-2.35l-3-.49c-4.59-.76-9.22-1.57-13.89-2.39l-.42-.08a1.5,1.5,0,1,0-.52,3l1.61.28q6.5,1.15,12.9,2.22c1,.16,2,.33,3,.48,4.92.8,9.81,1.54,14.68,2.17-.11,1.54-.25,3.18-.42,5-.05.48-.09.95-.14,1.45A1.5,1.5,0,0,0,93.32,144.83Z" fill="#525d7d"/><path d="M108.42,62.69l-.65.46c-2,1.46-4.12,3-6.2,4.3a1.5,1.5,0,0,0,.81,2.76,1.56,1.56,0,0,0,.82-.24c2.13-1.38,4.26-2.9,6.32-4.38l.64-.46c-.37-.5-.73-1-1.08-1.52Z" fill="#525d7d"/><path d="M116.33,57.37c-1.87,1.12-3.68,2.34-5.46,3.58l.66.94,1.07,1.51c1.73-1.21,3.48-2.39,5.27-3.46a1.5,1.5,0,0,0-1.54-2.57Z" fill="#525d7d"/><path d="M110.87,61a50.92,50.92,0,0,0-4-5.09,1.5,1.5,0,1,0-2.21,2,46.78,46.78,0,0,1,3.74,4.8l.66.92c.35.51.71,1,1.08,1.52a37.06,37.06,0,0,0,5.34,6.29,1.48,1.48,0,0,0,2.11-.11,1.49,1.49,0,0,0-.11-2.12,34.55,34.55,0,0,1-4.9-5.79l-1.07-1.51Z" fill="#525d7d"/><path d="M118.09,45.47c-.4-.25-.81-.49-1.21-.7a14.41,14.41,0,0,0-3.13-1.18,1.49,1.49,0,0,1-1.4,1.55h-.09a1.5,1.5,0,0,1-1.5-1.41c0-.19,0-.38,0-.57C103.64,43,96.81,48,93.52,54.34a18.82,18.82,0,0,0,7.64,25.44,20.85,20.85,0,0,0,9.58,2.32A20.46,20.46,0,0,0,129,71.39a15.74,15.74,0,0,0,1.73-7.3C130.71,57.19,126.35,50.75,118.09,45.47ZM126.3,70c-4.3,8.29-15.18,11.55-23.76,7.1a15.81,15.81,0,0,1-6.36-21.39c3.37-6.5,9.07-9.49,14.12-9.49a11.28,11.28,0,0,1,5.2,1.21c.32.17.65.35,1,.56,5.13,3.28,11.24,8.73,11.23,16.09A12.76,12.76,0,0,1,126.3,70Z" fill="#525d7d"/><path d="M27.74,152.77a1.5,1.5,0,0,0-1.84,1.06c-.34,1.3-.63,2.66-.86,4a1.5,1.5,0,0,0,1.25,1.72l.24,0A1.5,1.5,0,0,0,28,158.36a36.22,36.22,0,0,1,.79-3.76A1.49,1.49,0,0,0,27.74,152.77Z" fill="#525d7d"/><path d="M33.85,141.39a1.51,1.51,0,0,0-2.1.3,35.56,35.56,0,0,0-2.31,3.48,1.51,1.51,0,0,0,.55,2.05,1.48,1.48,0,0,0,.75.2,1.5,1.5,0,0,0,1.3-.75,33,33,0,0,1,2.1-3.18A1.5,1.5,0,0,0,33.85,141.39Z" fill="#525d7d"/><path d="M41.51,132.5c-1.17.82-2.27,1.65-3.28,2.49a1.49,1.49,0,0,0-.2,2.11,1.48,1.48,0,0,0,1.15.55,1.51,1.51,0,0,0,1-.35c1-.78,2-1.57,3.09-2.34a1.5,1.5,0,0,0-1.72-2.46Z" fill="#525d7d"/><path d="M55,126.55a1.51,1.51,0,0,0-2-.67c-1.21.61-2.41,1.22-3.59,1.86a1.5,1.5,0,1,0,1.42,2.64c1.15-.62,2.33-1.22,3.52-1.82A1.5,1.5,0,0,0,55,126.55Z" fill="#525d7d"/><path d="M66.7,121a1.5,1.5,0,0,0-1.72-.81,1,1,0,0,0-.27.1l-3,1.42-.59.27a1.5,1.5,0,0,0,.64,2.86,1.44,1.44,0,0,0,.63-.14l.59-.28,1.37-.64L66,123A1.5,1.5,0,0,0,66.7,121Z" fill="#525d7d"/><path d="M106.4,85.52a1.5,1.5,0,0,0-2,.7c-.56,1.18-1.17,2.34-1.8,3.46a1.5,1.5,0,1,0,2.61,1.47c.66-1.17,1.3-2.39,1.9-3.63A1.5,1.5,0,0,0,106.4,85.52Z" fill="#525d7d"/><path d="M99.82,96.71a1.5,1.5,0,0,0-2.11.24c-.8,1-1.64,2-2.51,3a1.5,1.5,0,0,0,1.11,2.51,1.48,1.48,0,0,0,1.11-.5c.92-1,1.81-2.06,2.65-3.13A1.5,1.5,0,0,0,99.82,96.71Z" fill="#525d7d"/><path d="M85.44,110.49a1.52,1.52,0,0,0,1.21.61,1.44,1.44,0,0,0,.88-.3c.68-.49,1.33-1,2-1.5.42-.33.85-.67,1.26-1A1.5,1.5,0,0,0,88.84,106c-.84.7-1.73,1.39-2.64,2.07l-.44.34A1.5,1.5,0,0,0,85.44,110.49Z" fill="#525d7d"/><path d="M259,96.1c-6,6.46-7.92,15.64-8.2,24.27-.19,6.25,8.73,5.86,9.47,0,.05-.36.08-.72.11-1.08,7.75,7.34,11.23,22.14,24.79,19l.85-.21a5.89,5.89,0,0,1,5.69-4.75c1.38,0,2.84.11,4.31.24,6.6-4.21,11.93-10.59,8.4-17.6a5.34,5.34,0,0,0-2-2.16,5.39,5.39,0,0,0,3.57-2.17,5.42,5.42,0,0,1-.32-.69,11.92,11.92,0,0,1-.36-7.26,4.79,4.79,0,0,1,1-2.08c-1.28-4.4-3.73-8.89-6.42-11.47-3.58-3.43-8.59-4.3-13.32-3.39-.35.06-.7.16-1,.24.86-3-.83-6.84-4.6-6.57a20.07,20.07,0,0,0-9.1,3,5.22,5.22,0,0,0-3.15.25c-3.35,1.45-6.75,2.8-10.17,4.09-2.45.93-4.94,1.53-6.85,3.4a2.18,2.18,0,0,0,.95,3.6c2.8.8,5.68-.12,8.46-.7.72-.15,1.43-.32,2.15-.48a4.18,4.18,0,0,0,.32,3.13q-.64.36-1.26.75A1.88,1.88,0,0,0,259,96.1Zm7.87,3.15a4.34,4.34,0,0,0,4.64-1.69,84.37,84.37,0,0,1,10.93-2.84c3.22-.59,7.6-1.71,9.81,1.28,3,4.06,1.77,9.46,3.56,13.84a6.49,6.49,0,0,0,2.5,3.06,6,6,0,0,0-3.83,1.79c-3.94,4.18-6.77,10.61-13.37,12.38-3.06.82-5.61-1.25-8-3-3.51-2.62-6.72-5.6-10.63-7.62a1.81,1.81,0,0,0-2,.22c0-5.1-1-10,.31-15C262.85,101.05,264.87,100.1,266.88,99.25Z" fill="#ffcc80"/><path d="M305.66,111a5.42,5.42,0,0,0,.32.69c.78,1.47,2,2.58,2.72,4.06,1.54,3.07-.32,7.57-.69,10.9s-.3,6.25-3.85,7a30.29,30.29,0,0,1-8.13,0c-1.47-.13-2.93-.25-4.31-.24a5.89,5.89,0,0,0-5.69,4.75,7.19,7.19,0,0,0-.11,1c0,2.47-.43,2.5-2.95,2.74-3.23.3-6.62-.28-9.84-.54-2.71-.22-6.5-.09-8.7-2-2.63-2.25-2.8-7.27-3.08-10.37a2.62,2.62,0,0,0-3.89-2.23,35.66,35.66,0,0,0-3.58,1.86,1.13,1.13,0,0,0,.57,2.08A13.55,13.55,0,0,1,256,131c-.46,4.91-.3,10,2.73,14.1,3.39,4.65,8.72,5.56,14,6.67,8.85,1.84,21.55,2.09,24.3-7.16,8.29-.41,17-.92,20.12-10.16,1.57-4.66,2.22-11.29,2.48-16.23a12.52,12.52,0,0,0-1.61-7.08c-1.31-2.26-3-3.43-3.26-6.14-.48-4.19-6.07-6.33-8.49-3.36a4.79,4.79,0,0,0-1,2.08A11.92,11.92,0,0,0,305.66,111Z" fill="#e0dfe6"/><path d="M276.85,116.36c1.12-1.7.9-4,1.65-5.87a2.43,2.43,0,0,1,.63-1.07,10.54,10.54,0,0,1,2.45-1.37c5.08-2.39,1.42-11.34-3.88-9.19-3.92,1.6-6.63,4.45-7,8.83-.19,2.5.22,6.55,1.67,8.67A2.61,2.61,0,0,0,276.85,116.36Z" fill="#e0dfe6"/><path d="M248.55,94c2.39.27,4.65.52,4.65,12,0,4-.75,4.08-1.89,4.15-2.52.15-4.2,1.15-4.2,5.56,0,3.82,2.22,11.27,6.3,11.27a10.82,10.82,0,0,0,4.84-1.61,35,35,0,0,0,5,5.89c1.38,1.4,3.47,3.51,3.47,4.3a7.53,7.53,0,0,1-.37,1.6,8.62,8.62,0,0,0-.47,2.33c0,4.14,8.5,4.26,8.58,4.26,1.44,0,2.9-.14,4.32-.27s2.86-.26,4.26-.26a15.7,15.7,0,0,1,2.38.17,2.38,2.38,0,0,0,2.07-.37,2.52,2.52,0,0,0,.64-2.18v-.49c0-.81-.06-1.58-.11-2.34s-.09-1.43-.09-2.13v-.11a14.88,14.88,0,0,0,5.67-1.65,10,10,0,0,1,3.68-1.18c.83,0,1.9.92,3,1.9a16.87,16.87,0,0,0,3.32,2.39,1.49,1.49,0,0,0,1.9-.48c.79-1.14,1.71-2.25,2.69-3.43,2.68-3.23,5.45-6.58,5.45-10.7,0-.16,0-.32,0-.48-.1-2-2.26-2.44-4.34-2.89-.54-.12-1.08-.24-1.57-.38a45,45,0,0,0,1.21-9.19,21.76,21.76,0,0,0-.19-3c2.49-.46,5.6-1.5,5.6-4.74,0-9-5.26-15.35-8.12-15.35A6.41,6.41,0,0,0,303,88a5.71,5.71,0,0,1-2.12,1c-1-.09-7.95-2.46-7.95-6.39a11.36,11.36,0,0,1,.82-3.79c.52-1.47,1.05-3,.09-4.34-1.22-1.73-4.17-2.25-12.63-2.25h0a23.42,23.42,0,0,0-3.65.22c-2.87.47-3.47,1.82-3.47,2.86,0,.46.05,1,.1,1.49a12.31,12.31,0,0,1,.1,1.3c-.57,1-4.89,3.35-9.82,3.46-3,.09-7-.71-9-4.81a1.49,1.49,0,0,0-1.3-.83,1.46,1.46,0,0,0-1.34.75c-1.07,1.87-2.28,3.69-3.45,5.44a66.13,66.13,0,0,0-5.15,8.69,1.49,1.49,0,0,0,.39,1.78A7,7,0,0,0,248.55,94Zm3.25-10.2c.76-1.14,1.54-2.31,2.3-3.52,3.1,3.84,8.41,5.23,14.71,3.75,3.4-.8,8.45-3,8.45-5.78a16.57,16.57,0,0,0-.12-1.72c0-.3-.06-.6-.08-.86a12.11,12.11,0,0,1,4.12-.41c8.11,0,9.86.62,10.15.93a5.94,5.94,0,0,1-.45,1.66,14,14,0,0,0-1,4.79c0,6.23,9.06,9.39,10.91,9.39a7.26,7.26,0,0,0,3.78-1.52,7.2,7.2,0,0,1,1.6-.87c1.15.41,5.18,4.91,5.18,12.34,0,1-1.23,1.54-4.55,2a1.49,1.49,0,0,0-1,.63,1.51,1.51,0,0,0-.23,1.17,18.59,18.59,0,0,1,.39,3.89,47.3,47.3,0,0,1-1.42,9.83,1.52,1.52,0,0,0,.8,1.66,14.79,14.79,0,0,0,3.34,1,15,15,0,0,1,2,.52c0,3-2.34,5.78-4.76,8.71-.67.81-1.36,1.63-2,2.48-.55-.4-1.1-.87-1.63-1.33-1.5-1.29-3.05-2.62-5-2.62a12.41,12.41,0,0,0-4.91,1.44,11.94,11.94,0,0,1-4.69,1.4,2.84,2.84,0,0,1-.47,0,1.94,1.94,0,0,0-1.63.41c-.65.57-.65,1.25-.65,2.61v.12c0,.8.05,1.58.1,2.33s.09,1.42.1,2.12a18.51,18.51,0,0,0-2.09-.11c-1.54,0-3.06.14-4.53.27s-2.75.26-4.05.26c-2.27,0-5.06-.78-5.57-1.36a8.3,8.3,0,0,1,.34-1.38,9,9,0,0,0,.49-2.45c0-2-1.91-4-4.33-6.41-2-2-4.22-4.28-5.17-6.49A1.5,1.5,0,0,0,258,122a10.56,10.56,0,0,1-4.59,2c-1,0-3.3-4.24-3.3-8.27,0-2.49.32-2.51,1.38-2.57,2.91-.17,4.71-1.43,4.71-7.14,0-13.12-3.17-14.51-7.32-15a11.68,11.68,0,0,1-1.38-.21A72,72,0,0,1,251.8,83.83Z" fill="#525d7d"/><path d="M279.7,122.83c7.37,0,14.33-6.92,14.33-14.24,0-3.9-2.48-9.36-6.48-11.36a25,25,0,0,0-6.9-2.53,12.62,12.62,0,0,0-2.3-.21c-7.43,0-13.94,6.14-13.94,13.15C264.41,119,274.91,122.83,279.7,122.83Zm-1.35-25.34a10.29,10.29,0,0,1,1.76.16,22.35,22.35,0,0,1,6.1,2.26c2.84,1.42,4.82,5.72,4.82,8.68,0,5.67-5.61,11.24-11.33,11.24-3.85,0-12.29-3.07-12.29-12.19C267.41,102.23,272.52,97.49,278.35,97.49Z" fill="#525d7d"/><path d="M141,16.54l-.26,0a4.12,4.12,0,0,0-4.16,3.41,9.79,9.79,0,0,1-.78.79,28.29,28.29,0,0,0-2.36,2.64,43.12,43.12,0,0,0-4.2,4.79l-.11.13c-.49-.28-1.07-.59-1.17-.66-1.45-1-2.63-2.28-4.15-3.2-2-1.22-3.72.91-3.36,2.62.89,4.46,7.24,11.68,12.27,8.85,3-1.68,5.43-5,7.81-7.44s5.58-4.73,4.72-8.68A4.47,4.47,0,0,0,141,16.54Z" fill="#e0dfe6"/><path d="M131.25,11.84a1.52,1.52,0,0,0-1.11-.43,1.49,1.49,0,0,0-1.08.52c-1.39,1.59-2.88,3.14-4.33,4.64-1.62,1.68-3.29,3.42-4.83,5.24a1.44,1.44,0,0,0-.35,1.12,1.49,1.49,0,0,0,.57,1c2.48,1.93,4.91,4,7.25,6,1.13,1,2.25,1.92,3.39,2.87a1.48,1.48,0,0,0,1,.35l.25,0a1.48,1.48,0,0,0,1-.7c1.33-2.17,2.82-4.29,4.26-6.34,1-1.45,2.07-2.95,3.05-4.45a1.51,1.51,0,0,0-.31-2A110.78,110.78,0,0,1,131.25,11.84Zm3.55,12.55c-1.14,1.63-2.32,3.31-3.43,5l-2.05-1.74c-2-1.69-4-3.43-6.11-5.1,1.19-1.34,2.45-2.65,3.68-3.93s2.26-2.34,3.38-3.57c2.25,2.17,4.52,4.2,6.78,6.07C136.32,22.24,135.55,23.33,134.8,24.39Z" fill="#525d7d"/><path d="M129.72,172.43v-.21a4.42,4.42,0,0,0-.61-2.25c-.28-.61-.57-1.21-.87-1.81a4.45,4.45,0,0,0-2.63-2,4.53,4.53,0,0,0-2.86.23,4.18,4.18,0,0,0-2.1,1.79,4.3,4.3,0,0,0-.44,3.39c.24.62.47,1.24.73,1.86a4.47,4.47,0,0,0,1.15,2l.91.7a4.29,4.29,0,0,0,4,.23,5.08,5.08,0,0,0,.77-.41,6,6,0,0,0,1.49-2.48A3.66,3.66,0,0,1,129.72,172.43Z" fill="#ffcc80"/><path d="M129.72,172.43a3.66,3.66,0,0,0-.49,1,6,6,0,0,1-1.49,2.48,5,5,0,0,1-2.73,1.4c-2.15.37-3.93-.86-5.82-1.63-1.07-.43-2,.8-1.73,1.73.87,3.85,5.51,5.75,9.11,5.59,4.55-.2,8.08-3.58,9.55-7.67C137.54,171.38,131.78,169.39,129.72,172.43Z" fill="#e0dfe6"/><path d="M166.59,140.94a5.42,5.42,0,0,0-4.67-2.8,6.4,6.4,0,0,0-2.08.35c-.79.27-1.43.93-2.08,1.21a4.44,4.44,0,0,0-3,4.22,5.5,5.5,0,0,1-.78-1.26c-.89-1.94-4.29-1-4.08,1.1a8.58,8.58,0,0,0,13.3,6.34C165.85,148.23,168.38,144.22,166.59,140.94Z" fill="#e0dfe6"/><path d="M128.36,164.11c-.05.38-.11.77-.14,1.16a1.51,1.51,0,0,1-1.48,1.36,5.3,5.3,0,0,1,3.22,4.56c0,1.8-2.23,4.77-4.6,4.77-2,0-4.92-1.45-4.92-4.56a5.24,5.24,0,0,1,3-5.05,3.59,3.59,0,0,1,1.28-.27,3.53,3.53,0,0,1,1,.16,1.5,1.5,0,0,1-.48-1.24c0-.62.14-1.24.24-1.87a7.11,7.11,0,0,0-.78,0,6.35,6.35,0,0,0-2.39.49,8.1,8.1,0,0,0-4.86,7.83c0,4.67,4.11,7.56,7.92,7.56,4.41,0,7.6-4.64,7.6-7.77A8.2,8.2,0,0,0,128.36,164.11Z" fill="#525d7d"/><path d="M163.34,140.71c0-2.45-2.81-6-4.83-6.75l-.5-.19a9,9,0,0,0-3.59-.8c-4.62,0-7,4.11-7,8.16,0,5.92,4.9,8.06,8.19,8.06C157.73,149.19,163.34,147.67,163.34,140.71Zm-7.77,5.48c-.22,0-5.19-.06-5.19-5.06,0-2.48,1.26-5.16,4-5.16a6.16,6.16,0,0,1,2.5.59l.54.21c.91.34,2.88,2.87,2.88,3.94C160.34,146.13,155.61,146.19,155.57,146.19Z" fill="#525d7d"/><path d="M143.38,141.07a22.15,22.15,0,0,0-3.93,1.66,1.5,1.5,0,0,0,.71,2.82,1.45,1.45,0,0,0,.7-.17,20.05,20.05,0,0,1,3.42-1.45,1.5,1.5,0,0,0-.9-2.86Z" fill="#525d7d"/><path d="M132.08,148.73a28.1,28.1,0,0,0-2.49,3.41,1.49,1.49,0,0,0,.48,2.06,1.42,1.42,0,0,0,.79.23,1.49,1.49,0,0,0,1.27-.7,25.11,25.11,0,0,1,2.23-3,1.5,1.5,0,1,0-2.28-2Z" fill="#525d7d"/><path d="M125.71,166.24a1.54,1.54,0,0,0,.88.39h.13a1.52,1.52,0,0,0,1.5-1.36c0-.39.09-.78.14-1.16a24.56,24.56,0,0,1,.48-2.56,1.5,1.5,0,1,0-2.92-.71c-.18.76-.33,1.53-.45,2.29s-.19,1.25-.24,1.87A1.5,1.5,0,0,0,125.71,166.24Z" fill="#525d7d"/><path d="M103.58,260.17c-1.74-1.25-3.21-2.26-5.46-2A12,12,0,0,0,92,261.37a9.94,9.94,0,0,0-2.62,3,3.89,3.89,0,0,0-.72.85l-1.13-.62c-3.64-2-8.83-6.63-13.06-3.76a15.77,15.77,0,0,0-2.83,3.05L70,265.78q-.83,2.27-2.1.52c-2.7-.81-6.36-5.53-8.18-7.54a2.1,2.1,0,0,0-2.52-.32,53.18,53.18,0,0,0-11.39,9.26,1.26,1.26,0,0,0,1.52,2c3.58-2,7.16-4.29,10.56-6.66,2.88,3.46,7.28,9.13,11.27,9.28,1.67.06,2.83-1.22,3.86-2.3s2-3,3.3-3.81c1.78-1.15,2-.69,3.82.57,3.28,2.23,8.09,7.44,12.28,4.46,3-2.14,2.82-7.21,8.2-5.32,2.94,1,5.44,4.91,8.33,6.4a3,3,0,0,0,3.65-4.73C110.12,264.65,106.66,262.38,103.58,260.17Z" fill="#e0dfe6"/><path d="M109.85,265.25a104.34,104.34,0,0,1-8.57-7.85,1.49,1.49,0,0,0-2-.17c-1.58,1.16-3.29,2.23-4.94,3.26-1.87,1.17-3.8,2.37-5.62,3.76A41.71,41.71,0,0,1,80,257.3a1.49,1.49,0,0,0-1.84-.23,119.78,119.78,0,0,0-10.88,7.26c-2.24-2.07-4.33-4.37-6.36-6.6l-1-1.16a1.51,1.51,0,0,0-1.83-.3,62.1,62.1,0,0,0-12.09,9.08,1.5,1.5,0,0,0,2,2.21,62.34,62.34,0,0,1,10.48-8.08l.24.27a93.41,93.41,0,0,0,7.52,7.65,1.5,1.5,0,0,0,1.91.06,111.1,111.1,0,0,1,10.58-7.22,42.47,42.47,0,0,0,9.49,7.13,1.52,1.52,0,0,0,1.66-.16A59.2,59.2,0,0,1,96,263c1.34-.84,2.72-1.7,4.06-2.63,2.51,2.54,5.24,4.86,7.9,7.12l1.68,1.43a1.45,1.45,0,0,0,1,.36,1.46,1.46,0,0,0,1.14-.52,1.49,1.49,0,0,0-.16-2.11Z" fill="#525d7d"/><path d="M216.74,37.16a4.37,4.37,0,0,0,.31-4.91,4.52,4.52,0,0,0-6.09-1.6,1.29,1.29,0,0,1-.16.09h-.07a4.35,4.35,0,0,0-2.64-.94A4.51,4.51,0,0,0,205,31.08c-1.48,1.61-1.91,4.68,0,6.23a9.23,9.23,0,0,0,8.51,1.93l.64-.87A2.81,2.81,0,0,1,216.74,37.16Z" fill="#ffcc80"/><path d="M241.53,54.16a5.46,5.46,0,0,0-7.36,1.93c-.19.35-.43.65-.63,1a.56.56,0,0,0-.07.13c-.39.34-.38.36-.07.12l-.84.65-.11.09-.27.12c-.11,0-1.06.55-.64.35s-1.17.6-1.39.78a3.37,3.37,0,0,0-1.38,3.43c.63,3,4.11,4.06,6.82,3.9a9.49,9.49,0,0,0,7.87-5.12C244.66,59,244.24,55.59,241.53,54.16Z" fill="#e0dfe6"/><path d="M206.47,45.27c.95,1.13,2,3,3.58,3.37s2.78-.71,3.81-1.78c1.58-1.65,3-3.45,4.52-5.2a2.67,2.67,0,0,0-1.64-4.5,2.81,2.81,0,0,0-2.62,1.21l-.64.87c-.67.89-1.33,1.79-2,2.69-.34.45-.88,1.32-1.33,2-1-.67-2-1.8-2.7-2.34A16.4,16.4,0,0,0,204,39.17a.93.93,0,0,0-1.26,1.25A24.72,24.72,0,0,0,206.47,45.27Z" fill="#e0dfe6"/><path d="M204.76,38.56c1.79,2,3.65,4.14,5.58,6.12a1.51,1.51,0,0,0,1.08.45h.13a1.5,1.5,0,0,0,1.1-.65,131.21,131.21,0,0,1,9.52-12,1.5,1.5,0,0,0-1.09-2.5l-4.18-.08c-2.21-.05-4.49-.11-6.73-.11a82,82,0,0,0-9.78.5,1.5,1.5,0,0,0-.88,2.56C201.1,34.43,202.87,36.44,204.76,38.56Zm5.41-5.74c2.21,0,4.47.06,6.66.11l1,0c-2.39,2.8-4.72,5.76-6.57,8.33-1.44-1.54-2.86-3.14-4.24-4.7-1.1-1.25-2.17-2.46-3.19-3.57C205.72,32.89,207.8,32.82,210.17,32.82Z" fill="#525d7d"/><path d="M31.22,102.17a4.38,4.38,0,0,0-4.87-.73,4.52,4.52,0,0,0-2.1,5.94c0,.06.05.12.08.17a.31.31,0,0,1,0,.07,4.31,4.31,0,0,0-1.16,2.55,4.51,4.51,0,0,0,1,3.21c1.49,1.61,4.51,2.3,6.22.52A9.22,9.22,0,0,0,33,105.59c-.27-.24-.55-.47-.81-.71A2.78,2.78,0,0,1,31.22,102.17Z" fill="#ffcc80"/><path d="M38.44,113.08c1.2-.85,3.16-1.74,3.66-3.29s-.48-2.83-1.46-3.94c-1.51-1.71-3.17-3.33-4.79-4.94a2.67,2.67,0,0,0-4.63,1.26,2.78,2.78,0,0,0,1,2.71c.26.24.54.47.81.71l2.51,2.21c.42.37,1.24,1,1.83,1.49-.74.91-2,1.86-2.55,2.49A16.7,16.7,0,0,0,32.15,115a.93.93,0,0,0,1.15,1.36A24.62,24.62,0,0,0,38.44,113.08Z" fill="#e0dfe6"/><path d="M31.61,114.23c2.18-1.62,4.43-3.3,6.57-5.06a1.54,1.54,0,0,0,.54-1V108a1.5,1.5,0,0,0-.55-1.16A128.94,128.94,0,0,1,27,96.36a1.5,1.5,0,0,0-2.58.89c-.14,1.38-.28,2.77-.43,4.15-.24,2.2-.48,4.46-.67,6.7a81.92,81.92,0,0,0-.33,9.79A1.5,1.5,0,0,0,25.51,119C27.18,117.53,29.34,115.92,31.61,114.23Zm-5.26-5.88c.18-2.2.42-4.45.66-6.63,0-.32.07-.65.1-1,2.6,2.61,5.35,5.19,7.75,7.24-1.66,1.31-3.37,2.59-5,3.83-1.33,1-2.63,2-3.82,2.88C26,112.79,26.15,110.71,26.35,108.35Z" fill="#525d7d"/><path d="M236.64,52.16a6.79,6.79,0,0,1-1.17-.37,1.46,1.46,0,0,0-1.14-.08,5.78,5.78,0,0,0-4,5.34,5.17,5.17,0,0,0,4.82,5.23,5.71,5.71,0,0,0,5.76-5.49,5,5,0,0,0-.73-2.56A5.13,5.13,0,0,0,236.64,52.16Zm-1.53,7.12a2.2,2.2,0,0,1-1.82-2.23,2.7,2.7,0,0,1,1.52-2.3,10.57,10.57,0,0,0,1.1.31c.71.18,1.45.37,1.66.72a1.94,1.94,0,0,1,.3,1A2.73,2.73,0,0,1,235.11,59.28Z" fill="#525d7d"/><path d="M277.88,196.05c-.83,3.21-.23,9,3,10.84s8.06-.65,10.33-3c2.6-2.66,4.13-8.26.31-10.53a2.4,2.4,0,0,0-.54-.24,8.75,8.75,0,0,0-5.67-3.09C281.61,189.82,278.76,192.65,277.88,196.05Zm8.84.53c0,.33,0,.66-.06,1.07a2.15,2.15,0,0,1-.36,1.12,3.9,3.9,0,0,1-1.66,1.3c-.07-.33-.15-.67-.21-1s-.09-.64-.12-1a11.93,11.93,0,0,1,2-1.87A2.1,2.1,0,0,1,286.72,196.58Z" fill="#ffcc80"/><path d="M355.29,171.83c-1.26,3.89-3.06,8-4,12.08-1.94.2-3.89.57-5.75.82a107.24,107.24,0,0,0-11.05,1.76,1,1,0,0,0,0,2c3.61.72,7.38,1,11.05,1.32s7.93,1.22,11.56.11c2.73-.83,2.89-4.93,0-5.69a7.92,7.92,0,0,0-1-.19c.74-3.78.93-7.85,1.45-11.55A1.19,1.19,0,0,0,355.29,171.83Z" fill="#e0dfe6"/><path d="M355.7,261c-5.72,1.56-12.57.39-18.46.38-6.54,0-13.09.11-19.63.28-11.56.3-25.13-.75-36,3.62-.86.34-1.15,1.83,0,2,12.38,2.24,25.49,1.06,38,.76,6.54-.16,13.09-.26,19.64-.23,6,0,12.38,1,18.21-.61C361.43,266.16,359.73,259.92,355.7,261Z" fill="#e0dfe6"/><path d="M305.54,240.5c-.56.16-.65,1.12,0,1.22,8,1.25,15.92,2.82,24.07,3.24,7.94.42,17.49,1.38,25.21-.66,3.33-.88,2.25-5.23-.76-5.59-4.12-.49-8.57.45-12.71.79s-8.47.59-12.72.64C321,240.22,313,238.34,305.54,240.5Z" fill="#e0dfe6"/><path d="M286.16,212.24a1.47,1.47,0,0,0,1.82-.47,75.94,75.94,0,0,1,6.67-7.5c.77-.79,1.53-1.59,2.29-2.39a1.49,1.49,0,0,0,.37-1.35c-.24-1.12-.49-2.24-.73-3.36-.62-2.89-1.27-5.87-2-8.79a1.49,1.49,0,0,0-1.19-1.1c-1.87-.34-3.78-.58-5.62-.81s-3.91-.5-5.82-.85a1.46,1.46,0,0,0-1.38.47c-1.69,1.86-3.33,3.78-4.92,5.64l-1.85,2.16a1.49,1.49,0,0,0-.32,1.37c.36,1.35.75,2.69,1.13,4,.76,2.68,1.55,5.47,2.14,8.2a1.52,1.52,0,0,0,.95,1.09c2.3.85,5.19,2.16,7.74,3.32Zm-6.67-6.17c-.59-2.56-1.31-5.12-2-7.59l-.55-2c-.73-.35-1.45-.69-2.17-1.05a1,1,0,0,1,.89-1.79l1.62.79.65-.76c1.4-1.64,2.84-3.33,4.31-5,1.72.29,3.46.51,5.16.72,1.28.17,2.6.34,3.9.54.43-.43.86-.85,1.27-1.28a1,1,0,0,1,1.41,0,1,1,0,0,1,0,1.42c-.55.57-1.12,1.14-1.69,1.7.47,2,.92,4,1.35,6,.19.86.37,1.72.56,2.59l-1.71,1.78c-1.87,1.93-3.79,3.92-5.54,6,.06.15.11.31.16.47l.61,1.87a1,1,0,0,1-.65,1.26,1,1,0,0,1-.3,0,1,1,0,0,1-1-.69l-.61-1.87-.3-.93C283.08,207.56,281.18,206.73,279.49,206.07Z" fill="#525d7d"/><path d="M282.08,198.54a1,1,0,0,1,2-.43c.12.54.26,1.08.39,1.62a.89.89,0,0,0,.41-.28c1.8-2.12,3.84-4.11,5.81-6l1.65-1.63c.57-.56,1.14-1.13,1.69-1.7a1,1,0,0,0,0-1.42,1,1,0,0,0-1.41,0c-.41.43-.84.85-1.27,1.28l-2,2c-1.83,1.78-3.71,3.61-5.43,5.59-2.16-1-4.37-2.08-6.56-3.14l-1.62-.79a1,1,0,0,0-.89,1.79c.72.36,1.44.7,2.17,1.05,1.76.86,3.53,1.7,5.28,2.53C282.17,198.86,282.12,198.7,282.08,198.54Z" fill="#525d7d"/><path d="M285.82,211.19a1,1,0,0,0,1,.69,1,1,0,0,0,.3,0,1,1,0,0,0,.65-1.26l-.61-1.87c-.05-.16-.1-.32-.16-.47-.9-2.78-1.81-5.63-2.53-8.5-.13-.54-.27-1.08-.39-1.62a1,1,0,0,0-2,.43c0,.16.09.32.12.48.73,3.19,1.72,6.32,2.71,9.37l.3.93Z" fill="#525d7d"/><path d="M303,218.18a1.47,1.47,0,0,0-.41,1.09c.15,4,.23,8.44.23,13.83,0,1.75,0,3.5,0,5.24h.67c-.05-1.16-.1-2.32-.15-3.5l0-.95a1,1,0,0,1,.95-1.05,1,1,0,0,1,1.05,1l0,.95c.05,1.21.11,2.41.16,3.61h.31c0-1.76,0-3.51,0-5.27,0-4.75-.06-8.73-.18-12.38h23.56c0-.48-.07-.95-.11-1.42a1,1,0,0,1,.91-1.08,1,1,0,0,1,1.08.91l.12,1.59h22.73c0,.19,0,.39,0,.58l0,1.46c.1,5.48.26,11.12.47,16.89H356a1,1,0,1,1,0,2h-1.46q.45,12,1.2,24.69l-21.64.17c0,.48.05,1,.08,1.46a1,1,0,0,1-.95,1h-.05a1,1,0,0,1-1-.95c0-.51,0-1-.08-1.54l-25.58.2,0,1.49a1,1,0,1,1-2,0l0-1.51-22.62.18-.09-3.23c-.2-7.3-.4-14.83-.54-22.25,7.22,0,14.86.05,22.39.24l-.06-1.34-2.76,0c-4,0-7.61.06-11.15.19a1,1,0,0,1-1-1,1,1,0,0,1,1-1l1,0c-3.68,0-7.32,0-10.85,0a1.5,1.5,0,0,0-1.5,1.52c.14,7.93.36,16,.57,23.81l.13,4.7a1.5,1.5,0,0,0,1.5,1.46l76.9-.61a1.55,1.55,0,0,0,1.09-.48,1.51,1.51,0,0,0,.4-1.11c-.95-15.78-1.57-30.93-1.83-45l0-1.45c0-.68,0-1.38,0-2.08a1.49,1.49,0,0,0-1.5-1.46H304.09A1.5,1.5,0,0,0,303,218.18Z" fill="#525d7d"/><path d="M305.78,240.37h-.2l0,.56A1.42,1.42,0,0,0,305.78,240.37Z" fill="#525d7d"/><path d="M305.33,234.76l0-.95a1,1,0,0,0-1.05-1,1,1,0,0,0-.95,1.05l0,.95c.05,1.18.1,2.34.15,3.5l2,0C305.44,237.17,305.38,236,305.33,234.76Z" fill="#525d7d"/><path d="M305.58,240.37l-2,0,.06,1.34c.37,8.46.69,16.68.86,25.06l0,1.51a1,1,0,0,0,2,0l0-1.49c-.18-8.62-.51-17.08-.89-25.8Z" fill="#525d7d"/><path d="M330.65,241.09c.53,8.58,1,17.08,1.42,25.44,0,.51.05,1,.08,1.54a1,1,0,0,0,1,.95h.05a1,1,0,0,0,.95-1c0-.48,0-1-.08-1.46-.43-8.33-.89-16.8-1.41-25.35Z" fill="#525d7d"/><path d="M332.53,239.15q-.58-9.18-1.32-18.43l-.12-1.59a1,1,0,0,0-1.08-.91,1,1,0,0,0-.91,1.08c0,.47.07.94.11,1.42.5,6.14.92,12.26,1.31,18.36Z" fill="#525d7d"/><path d="M288.62,239.55a1,1,0,0,0,1,1c3.54-.13,7.19-.19,11.15-.19l2.76,0,2,0h.2c7.44.09,14.92.35,22.2.62l2.67.1,2,.07c7.21.26,14.56.48,21.85.49H356a1,1,0,1,0,0-2h-1.53c-7.31,0-14.68-.24-21.91-.5l-2-.07-2.47-.09c-7.29-.26-14.78-.53-22.25-.62h-.31l-2,0h-2.67c-3.62,0-7,0-10.25.16l-1,0A1,1,0,0,0,288.62,239.55Z" fill="#525d7d"/><path d="M344.9,163.49h-.18a1.5,1.5,0,0,1-1.48-1.32c0-.36-.08-.7-.12-1-3.91-.2-7.9-.37-11.88-.33a1.56,1.56,0,0,0-1.08.47,1.52,1.52,0,0,0-.41,1.1c.41,9.51.68,19.06.9,28A1.5,1.5,0,0,0,332,191.8l4.87.44,5.4.47c0-.57,0-1.06,0-1.39a1.49,1.49,0,0,1,1.5-1.49,1.51,1.51,0,0,1,1.5,1.51c0,.38,0,.94,0,1.6,2.94.21,5.9.35,8.83.35,1.48,0,2.91,0,4.27-.1a1.51,1.51,0,0,0,1.42-1.54c-.06-2.21-.08-4.55-.08-7.37q0-3.37,0-6.75c0-2.25,0-4.51,0-6.75,0-2.91,0-5.32-.09-7.6a1.49,1.49,0,0,0-1.49-1.46c-4,0-8.1-.22-12.06-.42,0,.17,0,.34.06.52A1.51,1.51,0,0,1,344.9,163.49Zm11.9,7.29q0,3.36,0,6.73t0,6.77c0,2.23,0,4.16.05,6-.86,0-1.75,0-2.66,0-5.62,0-11.38-.53-16.95-1l-3.56-.32c-.21-8-.45-16.58-.8-25.12,4.2,0,8.46.24,12.59.45,3.71.2,7.53.4,11.34.45C356.79,166.54,356.8,168.5,356.8,170.78Z" fill="#525d7d"/><path d="M370.1,142.06a1.49,1.49,0,0,1-.33.51,1.51,1.51,0,0,1-1.06.44.7.7,0,0,1-.14,0l-.09,0a1.5,1.5,0,0,1-1.1-.49,1.36,1.36,0,0,1-.3-.5c-.74-.73-1.49-1.46-2.25-2.18-3.81-.18-7.53-.34-11-.49l-2.93,2.48a1.54,1.54,0,0,1-1,.35,1.5,1.5,0,0,1-1-2.65l.44-.37-5.93-.25a1.49,1.49,0,0,1,1.49,1.47l0,1.59c10,.42,24.45,1,37.3,1.72v-3l-10.1-.51Z" fill="#525d7d"/><path d="M352.06,123.14a1.47,1.47,0,0,0-.93.37c-2.45,2.11-5,4.2-7.48,6.22-3.6,2.94-7.32,6-10.81,9.18a1.51,1.51,0,0,0,1,2.61l8.19.32,0-1.41a1.5,1.5,0,0,1,1.47-1.53l-5.8-.24c2.6-2.26,5.29-4.46,7.92-6.6,2-1.62,4-3.28,6-5l-1-1a1.5,1.5,0,0,1,2.17-2.08c.66.7,1.34,1.38,2,2.06,3.54-.09,7.1-.15,10.65-.18,1.16-.92,2.33-1.84,3.51-2.73a1.65,1.65,0,0,1,2.16.23c.7.84,1.42,1.65,2.14,2.46h9.09v-3h-3.14C370.23,122.83,361.1,122.84,352.06,123.14Z" fill="#525d7d"/><path d="M359.37,134.67l-2.2-2.07c-1.65,1.37-3.28,2.75-4.89,4.11l-2.88,2.44-.44.37a1.5,1.5,0,0,0,1,2.65,1.54,1.54,0,0,0,1-.35l2.93-2.48.4-.34Z" fill="#525d7d"/><path d="M361.69,132.73c2.62-2.16,5.29-4.3,8-6.37-.3-.35-.62-.69-.92-1a1.5,1.5,0,0,1,1.07-2.46,1.52,1.52,0,0,0-.93.3c-1.18.89-2.35,1.81-3.51,2.73q-3,2.36-5.9,4.77Z" fill="#525d7d"/><path d="M357.17,132.6l2.2,2.07.75.7c1.56,1.46,3.14,2.95,4.71,4.46.76.72,1.51,1.45,2.25,2.18a1.49,1.49,0,0,1,.39-1.62l1.16-1c-2.13-2.1-4.32-4.16-6.46-6.16l-.48-.45-2.2-2.07c-1.6-1.5-3.19-3-4.75-4.59-.68-.68-1.36-1.36-2-2.06a1.5,1.5,0,0,0-2.17,2.08l1,1C353.37,129,355.27,130.81,357.17,132.6Z" fill="#525d7d"/><path d="M368.57,143a.7.7,0,0,0,.14,0,1.51,1.51,0,0,0,1.06-.44,1.49,1.49,0,0,0,.33-.51l-.6.55A1.52,1.52,0,0,1,368.57,143Z" fill="#525d7d"/><path d="M378.09,131l2.14,2.11,2.06-1.78v-4l-1.83,1.59Z" fill="#525d7d"/><path d="M367.47,140.39a1.49,1.49,0,0,0-.39,1.62,1.36,1.36,0,0,0,.3.5,1.5,1.5,0,0,0,1.1.49l.09,0a1.52,1.52,0,0,0,.93-.37l.6-.55,2.09-1.89c1.91-1.71,3.85-3.41,5.78-5.1-.72-.7-1.44-1.4-2.15-2.11-2.4,2.1-4.81,4.23-7.19,6.38Z" fill="#525d7d"/><path d="M378.09,131c-1.67-1.67-3.31-3.38-4.89-5.14-.72-.81-1.44-1.62-2.14-2.46a1.52,1.52,0,0,0-1.23-.53,1.5,1.5,0,0,0-1.07,2.46c.3.35.62.69.92,1,2,2.28,4,4.48,6.14,6.6.71.71,1.43,1.41,2.15,2.11,1.44,1.41,2.88,2.79,4.32,4.16v-4.15c-.69-.65-1.37-1.31-2.06-2Z" fill="#525d7d"/><path d="M343.47,138.9a1.51,1.51,0,0,0-1.51,1.53l0,1.41a185.59,185.59,0,0,0,1.13,19.3c0,.34.08.68.12,1a1.5,1.5,0,0,0,1.48,1.32h.18a1.51,1.51,0,0,0,1.32-1.67c0-.18,0-.35-.06-.52-.41-3.52-.67-6.5-.83-9.48l-.48,0a1.49,1.49,0,0,1-1.4-1.59,1.47,1.47,0,0,1,1.59-1.4h.14c-.08-2.12-.13-4.33-.19-6.83l0-1.59A1.49,1.49,0,0,0,343.47,138.9Z" fill="#525d7d"/><path d="M344,213.64h-.16a1.54,1.54,0,0,1-.42-.07,1.56,1.56,0,0,0,.67.18h.1a1.49,1.49,0,0,0,1.39-1.39l-.56.71A1.45,1.45,0,0,1,344,213.64Z" fill="#525d7d"/><path d="M343.82,189.83a1.49,1.49,0,0,0-1.51,1.49c0,.33,0,.82,0,1.39,0,2.83,0,8,0,9.64,0,2.56,0,4.74.11,6.71l1.19,1c.6-.76,1.19-1.45,1.77-2.13,0-1.65-.07-3.46-.07-5.54,0-1.63,0-6.54,0-9.41,0-.66,0-1.22,0-1.6A1.51,1.51,0,0,0,343.82,189.83Z" fill="#525d7d"/><path d="M342.38,209.06c-1.76-1.43-3.52-2.82-5.34-4.11a1.5,1.5,0,0,0-1.73,2.46c2.54,1.79,5,3.81,7.53,5.9a1.61,1.61,0,0,0,.54.27,1.54,1.54,0,0,0,.42.07H344a1.45,1.45,0,0,0,1-.57l.56-.71a55.89,55.89,0,0,1,5.83-6.43,1.5,1.5,0,0,0-2-2.2,55.32,55.32,0,0,0-4,4.16c-.58.68-1.17,1.37-1.77,2.13Z" fill="#525d7d"/><path d="M299.89,255.68c-2.57-2-5.25-4.33-8.45-7.26a1,1,0,0,0-.77-.26,1,1,0,0,0-.71.4c-1.61,2.17-3.12,4.45-4.59,6.65l-.19.3a1,1,0,0,0,.17,1.3,48.31,48.31,0,0,0,6.39,4.65,1,1,0,0,0,.53.16,1,1,0,0,0,.74-.33c.65-.71,1.34-1.39,2-2.07.89-.88,1.8-1.78,2.64-2.75.33.27.65.53,1,.78a1,1,0,0,0,1.4-.16A1,1,0,0,0,299.89,255.68Zm-6.27,2.12c-.51.51-1,1-1.51,1.53a47.81,47.81,0,0,1-4.78-3.45c1.16-1.74,2.34-3.52,3.58-5.24,1.88,1.71,3.59,3.21,5.21,4.56C295.35,256.09,294.51,256.93,293.62,257.8Z" fill="#525d7d"/><path d="M323.44,251.77l-1,.44a5.15,5.15,0,0,1,.21,1.43,4.46,4.46,0,0,1-4.46,4.47c-3.3,0-5.27-1.81-5.27-4.84,0-2,1.27-4.17,3.35-4.48l0-1a1,1,0,0,1,1-1,1,1,0,0,1,1,.95l.06,1.18a5.82,5.82,0,0,1,2.55,1,3.84,3.84,0,0,1,.64.57l1.08-.5a1,1,0,0,1,1.31.46,6.23,6.23,0,0,0-1.86-2.16,9.05,9.05,0,0,0-4.87-1.52c-3.83-.26-6.21,3.28-6.21,6.53,0,4.15,2.85,6.84,7.27,6.84a6.42,6.42,0,0,0,6.46-6.47,6.88,6.88,0,0,0-.76-3.18A1,1,0,0,1,323.44,251.77Z" fill="#525d7d"/><path d="M322.59,250l-1.08.5-3,1.4c-.07-1-.11-2-.15-3l-.06-1.19a1,1,0,0,0-1-.95,1,1,0,0,0-1,1l0,1V249c.06,1.46.12,3,.27,4.47a1,1,0,0,0,.5.77,1,1,0,0,0,.91,0c1.49-.67,3-1.36,4.48-2l1-.44a1,1,0,0,0,.49-1.31A1,1,0,0,0,322.59,250Z" fill="#525d7d"/><path d="M336.46,230.64a33.65,33.65,0,0,1,3.47,3.06l.87.84a1,1,0,0,0,.69.27h.09a1,1,0,0,0,.71-.4c1.22-1.63,2.57-3.2,3.86-4.72.57-.67,1.14-1.33,1.7-2a1,1,0,0,0-.13-1.41,1,1,0,0,0-1.41.13c-.55.66-1.12,1.32-1.68,2-1.08,1.27-2.19,2.57-3.25,3.93l-.06-.06a34.77,34.77,0,0,0-3.69-3.24,1,1,0,0,0-1.17,1.62Z" fill="#525d7d"/><path d="M338.16,259.14a1,1,0,0,0,1,.91l2.9,0c2.08,0,4.23,0,6.39-.18a1,1,0,0,0,.71-.37,1,1,0,0,0,.21-.78,75.84,75.84,0,0,1-.77-8.85,1,1,0,0,0-1-1c-1.2,0-2.41-.09-3.6-.15-1.68-.08-3.41-.17-5.13-.17h-.46a1,1,0,0,0-.72.31,1,1,0,0,0-.27.75C337.64,252.93,337.92,256.29,338.16,259.14Zm5.76-8.41c.9,0,1.81.09,2.72.12.12,2.69.31,5,.6,7.06-1.74.09-3.49.1-5.19.11l-2,0c-.19-2.31-.4-4.89-.57-7.47C341,250.58,342.47,250.66,343.92,250.73Z" fill="#525d7d"/><path d="M323,227.73h-.46l-.94,0c-.63,0-1.28,0-1.82,0,0-1.07,0-2.13,0-3.14a1,1,0,0,0-1-1c-1.77,0-4.12,0-6.5-.12a1,1,0,0,0-.76.3,1,1,0,0,0-.28.77c.06.85.09,1.76.09,2.79s0,2.28-.07,3.42-.07,2.17-.07,3.26a1,1,0,0,0,.29.71,1.06,1.06,0,0,0,.72.29c1.58,0,3.15,0,4.72,0,1.19,0,2.37.05,3.56.05.85,0,1.71,0,2.57,0a1,1,0,0,0,1-1v-.28c0-.62,0-1.25,0-1.87s0-1.26,0-1.89c0-.44,0-.87,0-1.3A1,1,0,0,0,323,227.73Zm-1,4.13c0,.4,0,.81,0,1.21-1.7,0-3.38,0-5.06,0-1.19,0-2.37,0-3.56,0h-.2c0-.73,0-1.46.06-2.18,0-1.17.07-2.33.07-3.49,0-.65,0-1.25,0-1.82,1.6.05,3.15.07,4.48.08,0,1.06,0,2.16.08,3.26a1,1,0,0,0,.35.72,1,1,0,0,0,.77.23,13,13,0,0,1,1.66-.09H322a2.44,2.44,0,0,1,0,.27C322.05,230.62,322,231.24,322,231.86Z" fill="#525d7d"/><path d="M330.87,153.06a1.5,1.5,0,0,0,1.38.91,1.56,1.56,0,0,0,.59-.12,28,28,0,0,1,3.58-1.23,1.5,1.5,0,0,0-.78-2.9,29.69,29.69,0,0,0-4,1.37A1.51,1.51,0,0,0,330.87,153.06Z" fill="#525d7d"/><path d="M359.38,196.87a1.49,1.49,0,0,0,.76-.2,21.56,21.56,0,0,0,3.46-2.54,1.5,1.5,0,1,0-2-2.22,18,18,0,0,1-3,2.17,1.5,1.5,0,0,0,.76,2.79Z" fill="#525d7d"/><path d="M318,166.5a1.49,1.49,0,0,0-1.9.94,25.28,25.28,0,0,0-1,4.12,1.5,1.5,0,0,0,1.24,1.72l.24,0A1.51,1.51,0,0,0,318,172a21.61,21.61,0,0,1,.89-3.63A1.5,1.5,0,0,0,318,166.5Z" fill="#525d7d"/><path d="M321.6,191a1.49,1.49,0,0,0,0,2.12,22.48,22.48,0,0,0,3.36,2.64,1.5,1.5,0,1,0,1.62-2.52,20,20,0,0,1-2.91-2.29A1.5,1.5,0,0,0,321.6,191Z" fill="#525d7d"/><path d="M367.05,187a1.52,1.52,0,0,0,.55.1,1.5,1.5,0,0,0,1.4-.94,27.21,27.21,0,0,0,1.24-4,1.5,1.5,0,0,0-2.93-.67,24,24,0,0,1-1.1,3.6A1.5,1.5,0,0,0,367.05,187Z" fill="#525d7d"/><path d="M316.43,179.27a1.51,1.51,0,0,0-1.2,1.75,24.24,24.24,0,0,0,1.14,4.1,1.5,1.5,0,0,0,1.4,1,1.6,1.6,0,0,0,.53-.09,1.51,1.51,0,0,0,.88-1.94,21.28,21.28,0,0,1-1-3.59A1.5,1.5,0,0,0,316.43,179.27Z" fill="#525d7d"/><path d="M323.67,156.12a27.2,27.2,0,0,0-2.94,3,1.5,1.5,0,1,0,2.31,1.91,26.68,26.68,0,0,1,2.62-2.7,1.5,1.5,0,0,0-2-2.25Z" fill="#525d7d"/><path d="M368.14,172.9a1.49,1.49,0,0,0,1.5,1.49,1.51,1.51,0,0,0,1.5-1.51,34.61,34.61,0,0,0-.22-4.17,1.5,1.5,0,0,0-3,.38A32.79,32.79,0,0,1,368.14,172.9Z" fill="#525d7d"/><path d="M364.47,161.78a1.5,1.5,0,1,0,2.36-1.85,25.46,25.46,0,0,0-2.88-3.11,1.5,1.5,0,0,0-2,2.21A22.65,22.65,0,0,1,364.47,161.78Z" fill="#525d7d"/><path d="M333.72,199.42a35,35,0,0,0,4.1.76H338a1.5,1.5,0,0,0,.19-3,33.39,33.39,0,0,1-3.76-.7,1.5,1.5,0,1,0-.72,2.91Z" fill="#525d7d"/><path d="M352.43,198.1a1.5,1.5,0,0,0-1.75-1.2c-1.2.22-2.48.38-3.8.49a1.5,1.5,0,0,0,.11,3h.12a39.34,39.34,0,0,0,4.11-.53A1.5,1.5,0,0,0,352.43,198.1Z" fill="#525d7d"/><path d="M343.45,150.18a1.49,1.49,0,0,0,1.4,1.59l.48,0a25.34,25.34,0,0,1,3.26.47,1.51,1.51,0,0,0,1.63-.73,1.48,1.48,0,0,0,1,1.44,29.26,29.26,0,0,1,3.55,1.37,1.58,1.58,0,0,0,.63.13,1.5,1.5,0,0,0,.62-2.86,32.72,32.72,0,0,0-3.9-1.5,1.5,1.5,0,0,0-1.77.7,1.49,1.49,0,0,0-1.18-1.48,28.68,28.68,0,0,0-4-.57H345A1.47,1.47,0,0,0,343.45,150.18Z" fill="#525d7d"/><path d="M56.65,167.09c-.24-1.66-2.72-1.14-2.8.38-.19,3.69.53,40.36-2.21,40.48a3.45,3.45,0,0,0-3.36,3c-2.63,2.2-5,4.77-8.18,6-3.45,1.38-7.36,1.27-11,1.41-7.81.28-15.78-.43-23.55.42a1.2,1.2,0,0,0-.32,2.34c8.76,3.54,19.29,4.12,28.64,4.28,8.17.14,14.44-2.9,20-8.88a4,4,0,0,0,1.12-2.29c5.09-2.6,3.93-11.48,3.88-16.57A225.68,225.68,0,0,0,56.65,167.09Z" fill="#e0dfe6"/><path d="M42,210.69a2.13,2.13,0,0,0-2.62,2.62,2.08,2.08,0,0,0,1.49,1.49l.48.07a1.83,1.83,0,0,0,2.21-2.21c0-.16,0-.32-.07-.48A2.1,2.1,0,0,0,42,210.69Z" fill="#e0dfe6"/><path d="M53.47,162.05a1.5,1.5,0,0,0-1.57-1.41c-10.52.46-19.94.69-28.79.69-7.49,0-14.74-.17-21.54-.5a1.43,1.43,0,0,0-1.15.46A1.49,1.49,0,0,0,0,162.46c1.56,16.91,2.4,34.11,3.2,50.74l.18,3.7A1.52,1.52,0,0,0,5,218.32c1.49-.07,3.08-.1,4.86-.1,2.26,0,4.57.06,6.8.11s4.62.11,7,.11h1.91l1.54,0c4.57,0,9.21.31,13.57.62h.1a1.48,1.48,0,0,0,1-.37,141.66,141.66,0,0,1,13.55-10.17,1.52,1.52,0,0,0,.65-1.33c-.56-9.19-1-18.54-1.5-27.58Q53.94,170.82,53.47,162.05Zm2.39,44.78a1.5,1.5,0,0,1-1.5,1.47c-1.28,0-2.56-.08-3.89-.16-2.92,2-5.88,4.22-8.75,6.59.1.88.21,1.76.3,2.63A1.5,1.5,0,0,1,40.69,219h-.16A1.5,1.5,0,0,1,39,217.67c-.06-.59-.14-1.18-.21-1.77-3.82-.26-7.82-.49-11.8-.49l-1.58,0H23.58c-2.3,0-4.63-.06-6.88-.11s-4.58-.11-6.88-.11c-1.24,0-2.4,0-3.5.05l-.11-2.21C5.43,197,4.62,180.32,3.15,163.91c6.34.28,13.05.42,20,.42,8.48,0,17.47-.21,27.44-.63q.44,8,.84,16c.43,8.36.87,17,1.38,25.51l1.62.05A1.49,1.49,0,0,1,55.86,206.83Z" fill="#525d7d"/><path d="M39.42,203.93a1.5,1.5,0,0,0-1.7,1.6c.19,2.62.51,5.23.81,7.76.11.87.2,1.74.3,2.61.07.59.15,1.18.21,1.77A1.5,1.5,0,0,0,40.53,219h.16A1.5,1.5,0,0,0,42,217.36c-.09-.87-.2-1.75-.3-2.63l-.21-1.8c-.23-1.89-.46-3.83-.64-5.77,3.6.48,6.71.8,9.6,1,1.33.08,2.61.13,3.86.16a1.5,1.5,0,1,0,.06-3l-1.62-.05A129.56,129.56,0,0,1,39.42,203.93Z" fill="#525d7d"/><path d="M10.88,176.52H11c9.82-.58,19.67-.87,28.36-1.12a1.5,1.5,0,1,0-.09-3c-8.71.25-18.58.55-28.45,1.13a1.5,1.5,0,0,0,.09,3Z" fill="#525d7d"/><path d="M40.89,184.68a1.5,1.5,0,0,0,.17-3c-2.77-.16-5.64-.23-8.79-.23-7.24,0-14.65.42-21.19.79a1.5,1.5,0,0,0,.08,3h.09c6.5-.37,13.87-.79,21-.79C35.36,184.45,38.18,184.52,40.89,184.68Z" fill="#525d7d"/><path d="M26.9,189.58c-3.38.68-7.2.68-12.44,0a1.5,1.5,0,1,0-.4,3,54.87,54.87,0,0,0,7.3.55,30.79,30.79,0,0,0,6.13-.57,1.5,1.5,0,0,0-.59-2.94Z" fill="#525d7d"/><path d="M42.47,191.33a1.5,1.5,0,0,0-1.5-1.5,52.51,52.51,0,0,1-6.56-.27,1.5,1.5,0,0,0-.37,3,56.12,56.12,0,0,0,6.93.29A1.5,1.5,0,0,0,42.47,191.33Z" fill="#525d7d"/><path d="M32.4,200.25c-1.35.12-2.75.18-4.28.18-2.81,0-5.54-.2-8.42-.41-1.75-.13-3.56-.26-5.37-.34a1.5,1.5,0,0,0-.14,3c1.77.08,3.56.21,5.29.33,2.81.21,5.72.42,8.64.42,1.62,0,3.11-.07,4.55-.2a1.5,1.5,0,1,0-.27-3Z" fill="#525d7d"/><path d="M148.18,207.23H146c-8.93,0-14.47,8.34-14.47,16.06,0,10.49,9.95,16.91,15.36,16.91,8.67,0,17.64-6.1,17.64-16.31C164.5,214.25,157.63,207.23,148.18,207.23Zm-1.32,30c-4.24,0-12.36-5.42-12.36-13.91,0-8.07,6-13.06,11.47-13.06h2.21c7.84,0,13.32,5.63,13.32,13.68C161.5,232.24,154.06,237.22,146.86,237.22Z" fill="#525d7d"/><path d="M148.2,221.14c0-.28,0-.57,0-.85a26,26,0,0,1,.23-3.66,1.5,1.5,0,0,0-3-.42,28.87,28.87,0,0,0-.26,4.08c0,.27,0,.55,0,.83H146C146.75,221.11,147.48,221.12,148.2,221.14Z" fill="#525d7d"/><path d="M145.35,224.12c.06.81.12,1.61.19,2.41s.14,1.64.2,2.46a1.5,1.5,0,0,0,1.49,1.39h.11a1.5,1.5,0,0,0,1.39-1.6c-.06-.84-.13-1.67-.2-2.51s-.12-1.41-.17-2.12c-.78,0-1.56,0-2.34,0Z" fill="#525d7d"/><path d="M154.16,221.45h-.27c-1.94-.13-3.81-.24-5.69-.3-.72,0-1.45,0-2.18,0h-.82a45.77,45.77,0,0,0-5.27.34,1.5,1.5,0,0,0,.18,3h.19a44.24,44.24,0,0,1,5-.32H146c.78,0,1.56,0,2.34,0,1.75.06,3.51.17,5.35.28l.26,0a1.49,1.49,0,0,0,1.59-1.41A1.51,1.51,0,0,0,154.16,221.45Z" fill="#525d7d"/><path d="M287.73,54.63c1-1.07.8-3.4-1.05-3.42s-3.19.95-4.77,1.85a30,30,0,0,0-4.36,2.77,1,1,0,0,0-.35.94v.17a.76.76,0,0,0,.49.77l.13.06a.65.65,0,0,0,.7-.14,14.25,14.25,0,0,0,3.8-.89C284.1,56.24,286.4,56,287.73,54.63Z" fill="#e0dfe6"/><path d="M296.87,45.15A24.84,24.84,0,0,1,292,47.94a1.51,1.51,0,0,0,.86,2.85c3.53-.5,9.59-1.58,11.08-5.26a2.36,2.36,0,0,0-2.58-3.11C299.46,42.64,298.32,44.05,296.87,45.15Z" fill="#e0dfe6"/><path d="M315.79,32.89c-2.91,1.19-5.5,3.46-8.18,5.11-1.13.69-.79,2.61.72,2.37,3.44-.55,7.21-1.21,10.15-3.17C321,35.54,318.35,31.84,315.79,32.89Z" fill="#e0dfe6"/><path d="M280.85,27.42c6.07-.26,15.21-1.4,19.33-6.31,1.45-1.73-.12-4.39-2.07-4.71a1.32,1.32,0,0,0,0-1.28,14.16,14.16,0,0,0-2.87-3.91,1.38,1.38,0,0,0-1.89-.18,1.35,1.35,0,0,0-.17,1.89,11.88,11.88,0,0,1,2.13,3.46,1.47,1.47,0,0,0,.58.7,62.12,62.12,0,0,1-7.18,4.16,68.4,68.4,0,0,0-8.52,4A1.13,1.13,0,0,0,280.85,27.42Z" fill="#e0dfe6"/><path d="M284,19.92c-2.12.92-4.27,1.87-6.38,2.91-1.27-2.22-2.51-4.5-3.72-6.72C273,14.36,272,12.55,271,10.77l15.32-7.29c2.08,4.07,4.32,8.3,6.81,12.36-2.46,1.19-5,2.29-7.46,3.36l-1.54.67a1.5,1.5,0,0,1,1.93.75l.65,1.4.16-.07c2.95-1.28,6-2.61,8.95-4.1l.13-.06a1.81,1.81,0,0,0,.29-.19,1.5,1.5,0,0,0,.48-.75,1.48,1.48,0,0,0-.18-1.21c-3-4.79-5.74-9.95-8.2-14.82a1.5,1.5,0,0,0-2-.67L268.24,8.76a1.53,1.53,0,0,0-.79.9,1.57,1.57,0,0,0,.13,1.2c1.27,2.2,2.51,4.48,3.71,6.69,1.44,2.64,2.92,5.37,4.47,8a1.5,1.5,0,0,0,2,.58l.35-.18c1.92-1,3.9-1.87,5.87-2.74-.21-.45-.42-.89-.62-1.33A1.49,1.49,0,0,1,284,19.92Z" fill="#525d7d"/><path d="M276.67,44.64a1.75,1.75,0,0,1-.29.18,1.51,1.51,0,0,1-2-.67c-.23-.47-.44-.91-.66-1.35l-.95.46c-.8.4-1.59.81-2.37,1.24a1.48,1.48,0,0,0-.73.91,1.52,1.52,0,0,0,.14,1.16c1,1.66,1.86,3.41,2.73,5.09.61,1.2,1.23,2.39,1.88,3.58a1.5,1.5,0,0,0,1.94.65l1.75-.79c2.19-1,4.45-2,6.64-3.13l1.54-.8a1.38,1.38,0,0,0,.25-.17,1.42,1.42,0,0,0,.48-.72,1.56,1.56,0,0,0-.12-1.16c-1.07-1.93-1.91-3.52-2.66-5-.65-1.28-1.22-2.46-1.74-3.62a1.5,1.5,0,0,0-1.93-.78c-1.41.58-2.79,1.17-4.14,1.79l.64,1.3A1.51,1.51,0,0,1,276.67,44.64Zm4.87.83c.58,1.16,1.22,2.37,2,3.76l-.14.06c-2.12,1.08-4.36,2.09-6.52,3.07l-.47.22c-.41-.77-.8-1.53-1.2-2.3-.65-1.27-1.32-2.57-2-3.86l1-.48c2-1,4.08-2,6.25-2.89C280.72,43.83,281.11,44.63,281.54,45.47Z" fill="#525d7d"/><path d="M292.38,35.68a2.2,2.2,0,0,1-.25.17,1.5,1.5,0,0,1-2-.62c-.25-.45-.48-.89-.71-1.31-1.25.68-2.42,1.34-3.55,2a1.5,1.5,0,0,0-.58,2l.36.69C287.28,41.73,289,45,291,48a1.52,1.52,0,0,0,.95.65,1.5,1.5,0,0,0,1.13-.2c2.19-1.41,4.52-2.7,6.77-3.94l1.42-.79a1.82,1.82,0,0,0,.23-.15,1.59,1.59,0,0,0,.49-.75,1.52,1.52,0,0,0-.14-1.14c-.4-.73-.81-1.45-1.23-2.18-1-1.84-2.12-3.74-3.07-5.62-.33-.66-.65-1.33-1-2a1.5,1.5,0,0,0-2.05-.71L292,32.5l.7,1.32A1.51,1.51,0,0,1,292.38,35.68Zm2.44-.41c1,1.95,2.09,3.88,3.15,5.75l.48.85-.1.05c-1.86,1-3.78,2.09-5.66,3.24-1.46-2.4-2.8-4.91-4.1-7.37,1.79-1,3.71-2,5.9-3.19Z" fill="#525d7d"/><path d="M309.85,23.92,307.64,25l-1.38.71c.22.44.45.87.68,1.31a1.48,1.48,0,0,1-.37,1.85.9.9,0,0,1-.26.17,1.49,1.49,0,0,1-2-.62l-.7-1.34-.58.3-2.24,1.15a1.49,1.49,0,0,0-.66,2c.25.52.51,1,.77,1.55a58.79,58.79,0,0,0,4.32,7.37,1.51,1.51,0,0,0,2.05.4,98,98,0,0,1,8.86-4.93,1.27,1.27,0,0,0,.27-.18,1.45,1.45,0,0,0,.49-.75,1.53,1.53,0,0,0-.17-1.2c-2-3.18-3.53-5.8-4.87-8.26A1.5,1.5,0,0,0,309.85,23.92ZM313.29,33c-2,1-4.26,2.23-6.43,3.56a61.25,61.25,0,0,1-3.31-5.82,1.86,1.86,0,0,0-.1-.2l.93-.48L309,27.7l.9-.46C310.89,29,312,30.89,313.29,33Z" fill="#525d7d"/><path d="M286.7,22l-.65-1.4a1.5,1.5,0,0,0-1.93-.75l-.07,0a1.51,1.51,0,0,0-.72,2c.2.44.41.88.62,1.33.59,1.24,1.22,2.52,1.9,3.86l2.6-1.51C287.83,24.34,287.25,23.16,286.7,22Z" fill="#525d7d"/><path d="M289.39,33.92c.23.42.46.86.71,1.31a1.5,1.5,0,0,0,2,.62,2.2,2.2,0,0,0,.25-.17,1.51,1.51,0,0,0,.36-1.86L292,32.5c-.84-1.57-1.56-3-2.23-4.25l-2.6,1.5C287.86,31,288.58,32.38,289.39,33.92Z" fill="#525d7d"/><path d="M306.31,29.06a.9.9,0,0,0,.26-.17,1.48,1.48,0,0,0,.37-1.85c-.23-.44-.46-.87-.68-1.31-1.14-2.26-2.18-4.58-3.1-6.93a1.5,1.5,0,0,0-1.94-.85,1.41,1.41,0,0,0-.62.47l.36-.21a1.5,1.5,0,1,1,1.54,2.57l-1.41.84c.77,1.84,1.58,3.66,2.48,5.43l0,.05.7,1.34A1.49,1.49,0,0,0,306.31,29.06Z" fill="#525d7d"/><path d="M303,18.73a1.5,1.5,0,0,0-2.06-.52l-.36.21q-6.12,3.64-12.15,7.15l-2.6,1.51c-4.75,2.73-9.5,5.38-14.27,7.9a1.49,1.49,0,0,0-.66,1.94c.81,1.8,1.72,3.71,2.78,5.88.22.44.43.88.66,1.35a1.51,1.51,0,0,0,2,.67,1.75,1.75,0,0,0,.29-.18,1.51,1.51,0,0,0,.38-1.83l-.64-1.3c-.81-1.65-1.53-3.14-2.17-4.54,4.34-2.32,8.65-4.74,13-7.22l2.6-1.5c3.75-2.17,7.5-4.39,11.28-6.63l1.41-.84A1.5,1.5,0,0,0,303,18.73Z" fill="#525d7d"/><path d="M181.2,41.76l-.44-.35a1.53,1.53,0,0,0-2.07.19,61.54,61.54,0,0,1-5.42,5.08,25.06,25.06,0,0,1-3.62-3.27c-.66-.68-1.35-1.39-2.07-2a1.5,1.5,0,0,0-2.06,0,31.72,31.72,0,0,1-3.72,3c-.6.43-1.21.88-1.81,1.34-2.12-1.8-4.38-3.67-6.8-5.42a1.5,1.5,0,0,0-1.72,0c-1.16.79-2.29,1.66-3.38,2.51A52.14,52.14,0,0,1,143.68,46a1.5,1.5,0,0,0,1.57,2.56,54.43,54.43,0,0,0,4.67-3.35c.81-.63,1.59-1.23,2.37-1.79,2.38,1.76,4.61,3.64,6.7,5.43a1.49,1.49,0,0,0,1.93,0c.84-.69,1.71-1.33,2.64-2s2-1.45,3-2.28c.32.31.64.64,1,1a23,23,0,0,0,5.18,4.35,1.51,1.51,0,0,0,1.71-.17l.18-.16c1.83-1.57,3.72-3.19,5.4-4.91,3,2.39,5.84,4.68,8.59,7.25a1.5,1.5,0,0,0,2.05-2.19C187.57,46.83,184.33,44.25,181.2,41.76Z" fill="#525d7d"/><path d="M61.47,68.63a1.51,1.51,0,0,0-2.12,0c-3.1,3-5.28,4.83-6.72,6-1.91,1.61-2.7,2.27-2.34,3.48S51.74,79.4,53,79.55a27.72,27.72,0,0,1,5.06,1c-.41.45-.95,1-1.52,1.63-1.22,1.28-2.88,3-5.08,5.49a1.5,1.5,0,0,0,.12,2.12,1.46,1.46,0,0,0,1,.38,1.51,1.51,0,0,0,1.12-.5c2.17-2.42,3.81-4.16,5-5.43,2.62-2.78,3.33-3.53,3-4.77s-1.32-1.38-2.22-1.63L59,77.7a31.19,31.19,0,0,0-4.26-1c1.4-1.18,3.64-3.08,6.66-6A1.5,1.5,0,0,0,61.47,68.63Z" fill="#525d7d"/><path d="M344.91,86.88c0,1.31-.1,2.63-.2,3.91a1.5,1.5,0,0,0,2.88.7,1.47,1.47,0,0,0,.11-.47c.1-1.33.17-2.7.2-4.07a1.5,1.5,0,1,0-3-.07Z" fill="#525d7d"/><path d="M345.47,72.46a1.5,1.5,0,0,0-1.29,1.69c.18,1.3.32,2.62.44,3.9a1.5,1.5,0,0,0,1.62,1.37,1.52,1.52,0,0,0,1.26-.92,1.54,1.54,0,0,0,.11-.71c-.12-1.33-.27-2.69-.46-4.05A1.49,1.49,0,0,0,345.47,72.46Z" fill="#525d7d"/><path d="M320.51,36.32a1.49,1.49,0,0,0,2.06-.5,1.28,1.28,0,0,0,.11-.2,1.51,1.51,0,0,0-.61-1.86c-1.14-.7-2.34-1.38-3.55-2a1.5,1.5,0,0,0-1.41,2.65C318.27,35,319.41,35.66,320.51,36.32Z" fill="#525d7d"/><path d="M327.68,41.39c1,.83,2,1.7,2.93,2.58a1.5,1.5,0,0,0,2.05-2.19c-1-.92-2-1.83-3.08-2.71a1.5,1.5,0,1,0-1.9,2.32Z" fill="#525d7d"/><path d="M340.62,54.19a1.5,1.5,0,0,0,.61-.71,1.48,1.48,0,0,0-.1-1.35c-.69-1.15-1.47-2.31-2.3-3.44a1.5,1.5,0,0,0-2.42,1.78c.78,1.06,1.51,2.14,2.15,3.21A1.5,1.5,0,0,0,340.62,54.19Z" fill="#525d7d"/><path d="M345.49,65.66a1.54,1.54,0,0,0,.08-.88c-.21-1.07-.43-2.17-.47-2.78a1.1,1.1,0,0,0,0-.18c-.07-.34-.14-.69-.23-1a1.5,1.5,0,0,0-2.91.71q.09.42.18.81a26.32,26.32,0,0,0,.51,3.07,1.51,1.51,0,0,0,1.77,1.18A1.52,1.52,0,0,0,345.49,65.66Z" fill="#525d7d"/><path d="M322.09,146.26c-.55,1.33-1,2.6-1.48,3.77a1.5,1.5,0,0,0,2.79,1.1.14.14,0,0,1,0-.06c.42-1.13.91-2.37,1.44-3.67a1.5,1.5,0,0,0-2.77-1.15Z" fill="#525d7d"/><path d="M328.6,139.39c.59-1.1,1.22-2.22,1.93-3.43l.09-.18a1.5,1.5,0,0,0-2.68-1.34c-.73,1.25-1.38,2.4-2,3.54a1.5,1.5,0,1,0,2.64,1.41Z" fill="#525d7d"/><path d="M343.51,99.53c-.25,1.26-.54,2.55-.86,3.82a1.5,1.5,0,0,0,2.83,1,.86.86,0,0,0,.07-.21c.34-1.32.64-2.66.9-4a1.5,1.5,0,1,0-2.94-.58Z" fill="#525d7d"/><path d="M340,111.75c-.47,1.22-1,2.47-1.5,3.63v0a1.49,1.49,0,0,0,.78,2,1.51,1.51,0,0,0,2-.78c.22-.52.45-1.06.69-1.61.3-.72.58-1.43.86-2.14a1.51,1.51,0,0,0-.86-1.94A1.49,1.49,0,0,0,340,111.75Z" fill="#525d7d"/><path d="M332.62,126.76a1.5,1.5,0,0,0,2.58,1.53c.74-1.24,1.39-2.39,2-3.51l.07-.15a1.5,1.5,0,0,0-2.7-1.29C334,124.43,333.34,125.54,332.62,126.76Z" fill="#525d7d"/><path d="M250.83,244.29a3.86,3.86,0,0,0-2.23-1.82,2.49,2.49,0,0,0,.77-1.34,2.83,2.83,0,0,0-2.06-3.36l-.81-.2a2.82,2.82,0,0,0-3.36,2.06,2.87,2.87,0,0,0,1.63,3.22,3.34,3.34,0,0,0-1.23,1.41c-3.32,7-15.64,8.62-22.32,6.27-6.46-2.27-12.19-6.76-17.93-10.67a19.5,19.5,0,0,0,2.69-9.59c.27-6.3-10.24-6.11-9.79.2.14,2,.23,4.27-1.05,5.92-1.06,1.36-3.36,2-4-.12-.89-3-5.73-2.42-5.53.84a8.71,8.71,0,0,0,11.47,7.56,11,11,0,0,0,3.85-2.13c7,7.23,15.13,15.15,25.35,16.34,7,.82,18.59-1.09,23.08-7.57,0,1.52,0,3,0,4.54-.05,2.74,4.54,3.34,4.85.53a69.76,69.76,0,0,0,.89-9.88A2.85,2.85,0,0,0,250.83,244.29Z" fill="#e0dfe6"/><path d="M200.69,235.3a1.51,1.51,0,0,1,2.12.08l.8.84a7.82,7.82,0,0,0-.17-8.32c-2.52-4.13-9.14-6.08-12.86-3.8-.27.16-.52.33-.77.51s-.46.33-.73.49l-.22.11c-.21.1-.44.21-.64.33-1.91,1.17-3.6,7.49-1,11.77,3,4.86,10.09,4,13.07,2.17a11.51,11.51,0,0,0,1.34-1c-.35-.36-.7-.72-1-1.09A1.5,1.5,0,0,1,200.69,235.3Zm-10.89.44c-1.75-2.86-.56-6.89.07-7.69l.28-.13a4.25,4.25,0,0,0,.49-.26c.33-.2.62-.4.89-.59s.4-.28.61-.41c2.14-1.31,6.94-.14,8.74,2.8,1.69,2.76.87,5.62-2.13,7.46C196.69,238.18,191.61,238.7,189.8,235.74Z" fill="#525d7d"/><path d="M248.58,243.87c-14.88,9.07-31.61,6.2-45-7.65l-.8-.84a1.5,1.5,0,1,0-2.2,2c.34.37.69.73,1,1.09,14.38,14.78,32.43,17.75,48.55,7.88l.11-.06c.13-.49.25-1,.41-1.45C250,244.56,249.26,244.22,248.58,243.87Z" fill="#525d7d"/><path d="M244,236.47a1.5,1.5,0,1,0-2.45,1.73,19.17,19.17,0,0,0,7,5.67c.68.35,1.39.69,2.14,1-.16.47-.28,1-.41,1.45a28.92,28.92,0,0,0-.95,8.16,1.5,1.5,0,0,0,1.53,1.46,1.37,1.37,0,0,0,.75-.22,1.51,1.51,0,0,0,.72-1.31A24.75,24.75,0,0,1,254,244.6a1.5,1.5,0,0,0-.85-2C248.81,241,245.73,238.9,244,236.47Z" fill="#525d7d"/><path d="M381.86,123.09c.12.76-.73,19.59-.68,20.37,0,.49.73.95,1.55,1s1.33-.2,1.41-.62a.49.49,0,0,0,0-.12c-.06-.81.79-19.67.66-20.47-.08-.49-.8-.93-1.62-1S381.78,122.6,381.86,123.09Z" fill="#525d7d"/></svg>