<svg xmlns="http://www.w3.org/2000/svg" width="100" height="100" viewBox="0 0 100 100" class="heroicon-shield-lock heroicon heroicons-lg">
    <path class="heroicon-shield-lock-edge heroicon-component-accent heroicon-component-fill" fill="#7ACFC0" d="M50 2A85.6 85.6 0 0 0 8 12.94v47.05c0 10.26 7.7 22.22 17.04 26.47L50 97.8l24.96-11.34C84.3 82.2 92 70.26 92 59.99V12.94A85.6 85.6 0 0 0 50 2z"></path>
    <path class="heroicon-shield-lock-background heroicon-component-fill" fill="#FFFFFF" d="M71.23 78.27C77.37 75.47 83 66.73 83 59.99V18.41A76.67 76.67 0 0 0 50 11a76.67 76.67 0 0 0-33 7.4V60c0 6.73 5.64 15.48 11.77 18.27L50 87.92l21.23-9.65z"></path>
    <path class="heroicon-shield-lock-circle heroicon-component-accent heroicon-component-fill" fill="#7ACFC0" d="M50 62a16 16 0 1 0 0-32 16 16 0 0 0 0 32z"></path>
    <path class="heroicon-shield-lock-symbol heroicon-component-fill" fill="#FFFFFF" d="M56 44h3v10H41V44h3v-2a6 6 0 0 1 12 0v2zm-4 0v-2a2 2 0 1 0-4 0v2h4z"></path>
    <path class="heroicon-shadows" fill="#000000" d="M67.97 47a18 18 0 1 1-35.95 0 18 18 0 0 0 35.95 0zM12 15.4v-.08A81.62 81.62 0 0 1 50 6a81.62 81.62 0 0 1 38 9.32v.08l-2.97 1.78A78.5 78.5 0 0 0 50 9a78.5 78.5 0 0 0-35.03 8.18L12 15.4zm71 5.01v-2A76.67 76.67 0 0 0 50 11a76.67 76.67 0 0 0-33 7.4v2.01A76.62 76.62 0 0 1 50 13c11.5 0 22.72 2.52 33 7.4v.01z" opacity=".2"></path>
    <path class="heroicon-outline" fill="#4A4A4A" fill-rule="nonzero" d="M94 60c0 11.04-8.15 23.7-18.21 28.28L50 100 24.21 88.28C14.15 83.7 6 71.04 6 59.99V11.77A87.6 87.6 0 0 1 50 0a87.6 87.6 0 0 1 44 11.77V60zM50 2A85.6 85.6 0 0 0 8 12.94v47.05c0 10.26 7.7 22.22 17.04 26.47L50 97.8l24.96-11.34C84.3 82.2 92 70.26 92 59.99V12.94A85.6 85.6 0 0 0 50 2zm0 4a81.62 81.62 0 0 1 38 9.32v44.67c0 8.7-6.77 19.23-14.7 22.83L50 93.4 26.7 82.8C18.78 79.22 12 68.7 12 60V15.32A81.62 81.62 0 0 1 50 6zM27.11 81.9L50 92.32l22.89-10.4C80.45 78.47 87 68.3 87 59.99V15.92A80.62 80.62 0 0 0 50 7a80.62 80.62 0 0 0-37 8.92V60c0 8.3 6.55 18.48 14.11 21.92zM15 60V17.14A78.64 78.64 0 0 1 50 9a78.64 78.64 0 0 1 35 8.15V60c0 7.53-6.09 16.98-12.94 20.1L50 90.1 27.94 80.1C21.09 76.98 15 67.5 15 59.99zm68 0V18.4A76.67 76.67 0 0 0 50 11a76.67 76.67 0 0 0-33 7.4V60c0 6.73 5.64 15.48 11.77 18.27L50 87.92l21.23-9.65C77.37 75.47 83 66.73 83 59.99zm-33 4a18 18 0 1 1 0-36 18 18 0 0 1 0 36zm16-18a16 16 0 1 0-32 0 16 16 0 0 0 32 0zm-29.04 5.11A14 14 0 0 1 50 32v1a13 13 0 0 0-12.13 17.69l-.9.42zM56 44h3v10H41V44h3v-2a6 6 0 0 1 12 0v2zm-14 9h16v-6H42v6zm16-8H42v1h16v-1zm-3-1v-2a5 5 0 1 0-10 0v2h2v-2a3 3 0 0 1 6 0v2h2zm-3 0v-2a2 2 0 0 0-4 0v2h4z"></path>
</svg>
