<svg xmlns="http://www.w3.org/2000/svg" width="100" height="100" viewBox="0 0 100 100" class="heroicon-load-balancer heroicon heroicons-lg rotate-90">
    <rect class="heroicon-load-balancer-box-bottom heroicon-component-accent heroicon-component-fill" width="28" height="28" x="36" y="72" fill="#7ACFC0"></rect>
    <path class="heroicon-load-balancer-boxes-top heroicon-component-accent heroicon-component-fill" fill="#7ACFC0" fill-rule="nonzero" d="M0 0h28v28H0V0zm36 0h28v28H36V0zm64 0H72v28h28V0z"></path>
    <path class="heroicon-load-balancer-cords heroicon-component-fill" fill="#FFFFFF" fill-rule="nonzero" d="M10 27a4 4 0 1 1 8 0v13a4 4 0 0 0 4 4h14c4.17 0 7.85 2.13 10 5.36V27a4 4 0 1 1 8 0v22.36A11.99 11.99 0 0 1 64 44h14a4 4 0 0 0 4-4V27a4 4 0 1 1 8 0v13a12 12 0 0 1-12 12H64a4 4 0 0 0-4 4v16H40V56a4 4 0 0 0-4-4H22a12 12 0 0 1-12-12V27z"></path>
    <path class="heroicon-shadows" fill="#000000" d="M18 27h9v-8H1v8h9a4 4 0 1 1 8 0zm36 0h9v-8H37v8h9a4 4 0 1 1 8 0zm36 0a4 4 0 1 0-8 0h-9v-8h26v8h-9zM37 93h26v6H37v-6z" opacity=".2"></path>
    <path class="heroicon-outline" fill="#4A4A4A" fill-rule="nonzero" d="M10 28H0V0h28v28H18v12a4 4 0 0 0 4 4h14c4.17 0 7.85 2.13 10 5.36V28H36V0h28v28H54v21.36A11.99 11.99 0 0 1 64 44h14a4 4 0 0 0 4-4V28H72V0h28v28H90v12a12 12 0 0 1-12 12H64a4 4 0 0 0-4 4v16h4v28H36V72h4V56a4 4 0 0 0-4-4H22a12 12 0 0 1-12-12V28zM26 2H2v17h24V2zm-1 18H2v6h8.13a4 4 0 0 1 7.74 0H26v-6h-1zm13 74v4h24v-4H38zm24-1V74H38v19h24zm-4-37a6 6 0 0 1 6-6h14a10 10 0 0 0 10-10V27a2 2 0 1 0-4 0v13a6 6 0 0 1-6 6H64a10 10 0 0 0-10 10v16h4V56zm-6 0V27a2 2 0 1 0-4 0v45h4V56zm-6 0a10 10 0 0 0-10-10H22a6 6 0 0 1-6-6V27a2 2 0 1 0-4 0v13a10 10 0 0 0 10 10h14a6 6 0 0 1 6 6v16h4V56zm43.87-30H98v-6H74v6h8.13a4 4 0 0 1 7.74 0zm-36 0H62v-6H38v6h8.13a4 4 0 0 1 7.74 0zM97 19h1V2H74v17h23zm-59 0h24V2H38v17z"></path>
</svg>
