<svg width="167" height="125" viewBox="0 0 167 125" fill="none" xmlns="http://www.w3.org/2000/svg">
<path d="M102.594 125C137.087 125 165.049 97.0178 165.049 62.5C165.049 27.9822 137.087 0 102.594 0C68.1008 0 40.1387 27.9822 40.1387 62.5C40.1387 97.0178 68.1008 125 102.594 125Z" fill="#EAEEF9"/>
<mask id="mask0_80_1511" style="mask-type:alpha" maskUnits="userSpaceOnUse" x="0" y="0" width="167" height="125">
<path d="M166.752 62.5C166.752 97.0178 138.77 125 104.252 125C89.8218 125 76.5335 120.109 65.9545 111.895H0V13.1048H65.9545C76.5335 4.89069 89.8218 0 104.252 0C138.77 0 166.752 27.9822 166.752 62.5Z" fill="#D9D9D9"/>
</mask>
<g mask="url(#mask0_80_1511)">
<g filter="url(#filter0_d_80_1511)">
<rect x="23.751" y="22.9993" width="85.563" height="19.014" rx="9.507" fill="#989FB0"/>
</g>
<path d="M36.8232 32.5063H53.4605" stroke="#EAEEF9" stroke-width="3" stroke-linecap="round"/>
<path d="M60.5908 32.5063H96.2421" stroke="#EAEEF9" stroke-width="3" stroke-linecap="round"/>
<rect x="117.751" y="22.9993" width="64.563" height="19.014" rx="9.507" fill="white" stroke="#C2C8D6" stroke-width="2" stroke-miterlimit="10"/>
<path d="M132.591 32.5063H168.242" stroke="#C2C8D6" stroke-width="3" stroke-linecap="round"/>
<rect x="26.251" y="53.0133" width="64.563" height="19.014" rx="9.507" fill="white" stroke="#C2C8D6" stroke-width="2" stroke-miterlimit="10"/>
<path d="M41.0908 62.5203H76.7421" stroke="#C2C8D6" stroke-width="3" stroke-linecap="round"/>
<g filter="url(#filter1_d_80_1511)">
<rect x="99.251" y="53.0133" width="80.563" height="19.014" rx="9.507" fill="#989FB0"/>
</g>
<path d="M165.742 62.5203H154.091" stroke="#EAEEF9" stroke-width="3" stroke-linecap="round"/>
<path d="M146.742 62.5203H114.091" stroke="#EAEEF9" stroke-width="3" stroke-linecap="round"/>
<rect x="96.251" y="83.0273" width="64.563" height="19.014" rx="9.507" fill="white" stroke="#C2C8D6" stroke-width="2" stroke-miterlimit="10"/>
<path d="M111.091 92.5343H146.742" stroke="#C2C8D6" stroke-width="3" stroke-linecap="round"/>
<rect x="45.251" y="83.0273" width="42.563" height="19.014" rx="9.507" fill="white" stroke="#C2C8D6" stroke-width="2" stroke-miterlimit="10"/>
<path d="M60.0908 92.5343H73.7421" stroke="#C2C8D6" stroke-width="3" stroke-linecap="round"/>
</g>
<defs>
<filter id="filter0_d_80_1511" x="1.75098" y="11.9993" width="129.563" height="63.014" filterUnits="userSpaceOnUse" color-interpolation-filters="sRGB">
<feFlood flood-opacity="0" result="BackgroundImageFix"/>
<feColorMatrix in="SourceAlpha" type="matrix" values="0 0 0 0 0 0 0 0 0 0 0 0 0 0 0 0 0 0 127 0" result="hardAlpha"/>
<feOffset dy="11"/>
<feGaussianBlur stdDeviation="11"/>
<feColorMatrix type="matrix" values="0 0 0 0 0.397708 0 0 0 0 0.47749 0 0 0 0 0.575 0 0 0 0.27 0"/>
<feBlend mode="normal" in2="BackgroundImageFix" result="effect1_dropShadow_80_1511"/>
<feBlend mode="normal" in="SourceGraphic" in2="effect1_dropShadow_80_1511" result="shape"/>
</filter>
<filter id="filter1_d_80_1511" x="77.251" y="42.0133" width="124.563" height="63.014" filterUnits="userSpaceOnUse" color-interpolation-filters="sRGB">
<feFlood flood-opacity="0" result="BackgroundImageFix"/>
<feColorMatrix in="SourceAlpha" type="matrix" values="0 0 0 0 0 0 0 0 0 0 0 0 0 0 0 0 0 0 127 0" result="hardAlpha"/>
<feOffset dy="11"/>
<feGaussianBlur stdDeviation="11"/>
<feColorMatrix type="matrix" values="0 0 0 0 0.397708 0 0 0 0 0.47749 0 0 0 0 0.575 0 0 0 0.27 0"/>
<feBlend mode="normal" in2="BackgroundImageFix" result="effect1_dropShadow_80_1511"/>
<feBlend mode="normal" in="SourceGraphic" in2="effect1_dropShadow_80_1511" result="shape"/>
</filter>
</defs>
</svg>
