<svg xmlns="http://www.w3.org/2000/svg" viewBox="0 0 399.8 276.57"><path fill="#ffcc80" d="M149.36 95.3c1.29-7.1-3.17-13.61-9.76-15.93a4.58 4.58 0 0 0-4.46.54c-1.85-2.7-6-4.17-8.43-1.16-3.8 4.79-5.72 10.84-4.19 16.93A13.68 13.68 0 0 0 136 106.31c6.29-.16 12.21-4.68 13.36-11.01Zm-14.91 0c-2.61-1.41-1.88-5-.66-7.69a5.47 5.47 0 0 0 2.92 2.3c3.98 1.35 1.22 7.21-2.26 5.34Zm57.89-11.1a17.17 17.17 0 0 0 3.74 17.93c5 5 12.53 5.7 17.63.47 4.87-5 6.55-13.57 3.84-20a13.44 13.44 0 0 0-16.13-7.92 5.28 5.28 0 0 0-3.81 5.9 5.51 5.51 0 0 0-5.27 3.62Zm10.3 2.8a5.61 5.61 0 0 0 .35-1.46 6.28 6.28 0 0 0 1.36-.24c4.72-1.41 4.26 7.68 1.66 9.56-1.44 1-2.69-.54-3.44-2.08a6.87 6.87 0 0 1 .07-5.78Zm125.29-3.06c.56 11.2 24.33 4.89 30.29 3.29a5 5 0 0 0 3.9-4.81 5.8 5.8 0 0 0 2.24-7.52C358 60.11 335 66.41 325.18 73.7c-4.57 3.39-1.61 10.45 2.75 10.24Z"/><path fill="#e0dfe6" d="M186.93 84.23c-5.28.21-10.56.63-15.83.9s-10.68.14-15.76 1.44c-1.7.43-1.37 2.56 0 3.12 9.32 3.86 21.66 3.67 31.59 3.33 5.64-.19 5.66-9.02 0-8.79ZM222.12 80a1.9 1.9 0 0 0 .49-2.47 22.9 22.9 0 0 0-1.85-2.2 1.83 1.83 0 0 0-2.88 2.22 22.65 22.65 0 0 0 1.73 2.3 1.91 1.91 0 0 0 2.51.15Zm14.18 7.52c-1.39-15.92-4-31.92-6.65-47.66-.33-2-3.21-1.36-3.3.44-.74 15.63-.75 31.65 1 47.22.59 5.65 9.46 5.82 8.95 0ZM253.11 104c-.27-1.56-2.74-1.16-2.73.37.05 5.09.54 10.45 0 15.51-.47 4.09-1.79 4.4-5.25 5.16a9 9 0 0 0-4.38 1.7 11.36 11.36 0 0 0-3.48 6.37c-.22-3-.54-6-.88-9 2.17 1.53 6-.14 6.35-3.29.55-5.28-.8-11.25-1.62-16.5-.52-3.3-.33-8-3.69-9.78a1.31 1.31 0 0 0-1.92 1.46c.46 3.41-.3 7.27-.67 10.84-.19-2.7-.43-5.39-.88-8-.2-1.16-1.88-1-2.18 0-2.71 8.92-1.23 19.42-1.13 28.62 0 3.34.83 19.5-1.88 26.44a4.07 4.07 0 0 0-1 1.5 5.55 5.55 0 0 1-.52 1 2.46 2.46 0 0 1-1.73.72 3.55 3.55 0 0 0-3.72 2.87 41.12 41.12 0 0 1-5.43 1.22 113.13 113.13 0 0 1-16.44 1.38c-11.62.36-23.24.27-34.86.24-11.35 0-22.69 0-34 .27-10.69.25-23-.82-29-11.11-.49-.85-2-.28-1.64.69 3.89 9.78 13.42 14.14 23.32 15.54a160.16 160.16 0 0 0 18.52 1.4l-1.8.19a1.39 1.39 0 0 0-.37 2.72c6.73 2 14 2.7 21 3.63 7.68 1 15.41 1.89 23.15 2.26 15.1.73 30-1.92 44.79-4.64 4.54-.83 2.6-7.66-1.9-6.89l-2.11.36a20.08 20.08 0 0 0 6.06-3.51c3-1.9 4.67-5.59 5.55-9.73-1 8.91-5 17.26-4.38 26.3.36 5.27 1.2 10.38 1 15.69-.19 4.24-.1 13.53-5.43 14.47a3.24 3.24 0 0 0-2.64 3.87c-9.55 7.11-21.94 6.86-33.71 7.3a480.27 480.27 0 0 1-48.74-.78 1.47 1.47 0 0 0-.39 2.88 256.2 256.2 0 0 0 54.88 5.69c12.36-.07 28.74-.61 36.59-11.78 6.21-2.68 7.68-13.88 8.16-19.89.49-6.26-.63-12.21-.92-18.43-.31-6.72 2.86-12.67 3.89-19.19.93-5.82.61-11.58.42-17.44-.08-2.45-.82-6.5.14-8.78.89-2.11 3.39-1.61 5.3-2.55 9.39-4.72 3.59-19.85 2.3-27.37Zm-69.79 66.8c-5.67-.19-11.44-.68-17.22-1.08 11.59.14 23.32.9 34.94.61a151.4 151.4 0 0 1-17.72.47Z"/><path fill="#e0dfe6" d="M194.52 192.56c4.4-1.44 1.81-8-2.49-5.93-1.84.88-3.35 2.47-5.22 3.22-1.45.58-2.45.14-3.86-.14a1.25 1.25 0 0 0-1.55 1.19c-.26 2.39 2.5 3.8 4.51 4 3.09.4 5.76-1.4 8.61-2.34Zm24.94-1.33c4.81.11 4.09-7.81-.9-6.68-3.15.71-6.29 1.42-9.45 2.08-2.52.53-1.89 4.39.6 4.41 3.29.03 6.5.11 9.75.19Zm-14.73 21.08c1.45 1.86 3.94 1 5.86.5 2.55-.67 5.38-1.11 7.71-2.36 3.3-1.76.95-6.49-2.43-5.78a25 25 0 0 0-5.19 2.18c-1.37.64-2.9 1.74-4.41 1.76-2.05.02-2.64 2.28-1.54 3.7ZM147 213.45c6.17 3.51 14.41 4.22 21.38 4.91a135.39 135.39 0 0 0 24.49.42 4.22 4.22 0 0 0 3-6.62c2.21-1.72 1.53-6.27-1.94-6-7 .48-13.94.85-20.92 1.06l-10 .26c-2.92.07-7.55.85-10-1.1-1.19-1-3.28.26-2.3 1.77a7.32 7.32 0 0 0 1.89 1.95 38.24 38.24 0 0 0-4.8.17c-1.49.14-2.37 2.26-.8 3.18Zm23-19.76c4-.23 4-6.4 0-6.17-4.51.27-9 .82-13.49.94-3 .08-2.88 4.28 0 4.57a83.36 83.36 0 0 0 13.49.66Zm-27.34-7.89c-2.54.78-4.8.88-7.12-.58-2.54-1.59-4.55 2.2-2.29 3.91a12.48 12.48 0 0 0 10.94 2.2c3.52-1.08 2.02-6.63-1.53-5.53Zm-22.04 2.03c3.48.81 4.92-4.68 1.47-5.31-1.36-.25-2.66-.11-4-.23s-2.56-.29-3.83-.43c-2.13-.24-2.39 3-.49 3.6l3.47 1.07c1.15.37 2.18 1.02 3.38 1.3Zm8.2 17.49c-3.44.83-6.86 1.7-10.32 2.45-2.38.52-1.91 4.64.59 4.34 3.49-.42 7-.73 10.5-1.07 4.22-.42 3.34-6.71-.77-5.72Zm96.7-102.21c3.26-3.85-2-9.34-5.63-5.62-5.47 5.61-14.44 14.6-22.77 8.11-1.55-1.21-4.15.3-2.94 2.28 3.18 5.21 7.57 6.75 12.18 6.23a63.29 63.29 0 0 1-6.59 6.51 39.82 39.82 0 0 1-13.51 7.26c-1.11.27-2.24.5-3.36.71-.14-8-.62-15.91-.58-23.88 0-2.39-3.48-2.32-3.67 0a236.45 236.45 0 0 0-1.29 24.67 63.69 63.69 0 0 1-11.13.15c-.06-.92-.15-1.84-.24-2.75 1.45 1 3.95.34 3.77-1.84l-1.56-18.35c-.21-2.47-4-2.55-3.9 0l.39 10.33c-1.17-6.85-2.79-13.68-4.51-20.22-1-3.88-7.37-4.21-8.18 0a13.86 13.86 0 0 1-6.89 10c-4.26 2.32-8.69 1.48-13.27 1.29a1.91 1.91 0 0 0-1.34 3.23c7.06 7.41 17 4.34 23.52-2 1.13 6.3 2.11 12.62 3.23 18.94a59 59 0 0 1-22.93-10.78c-1.45-1.12-3.15 1.24-1.92 2.48a58.43 58.43 0 0 0 33.92 16.75 3.59 3.59 0 0 0 3.7 3c11.48-.52 23.6-4.09 32.83-11.09s15.32-16.73 22.67-25.41Z"/><path fill="#e0dfe6" d="M168.28 96.17c-2.3-.34-3.37 3-1 3.58 6.49 1.47 13.24 2.26 19.85 1.29 2.65-.39 2-4.83-.63-4.68-6.15.35-12.08.72-18.22-.19Zm-76.74 3.32C89.69 104 90.22 110 90 114.82c-.24 4.26 7 4.14 6.52 0-.52-4.91-.37-11.12-2.52-15.66-.55-1.16-2.07-.62-2.46.33Zm69.13 53.91a1.9 1.9 0 0 0 0 3.79c5 .33 10.11.31 15.16.61s10.13 1.08 15.16 1c3.25 0 4.26-5.43.8-5.91-9.95-1.34-21.17-.72-31.12.51ZM318.56 213c-9.46 12.61-22.5 22.25-35.05 31.56-6 4.47-12.16 8.82-17.92 13.64-5.27 4.41-12 9.26-14.5 15.86a1.86 1.86 0 0 0 2.28 2.28c6.88-2.83 12.72-9.11 18.71-13.48 6.4-4.68 12.92-9.2 19.31-13.89q2.49-1.81 4.9-3.67c-.41 1.49-.79 3-1.12 4.51-.61 2.76-1.08 5.55-1.48 8.35-.22 1.54-.05 4.16-.36 6.07a4.07 4.07 0 0 0-1.44 5.49l.27.48a4.32 4.32 0 0 0 4.74 1.93c5.8-1.06 4-9.88 4.22-13.91a177.37 177.37 0 0 1 1.79-18.2c8.19-6.85 15.59-14.39 21.52-23.59 2.42-3.72-3.31-6.8-5.87-3.43Zm-6.42-42.51c-1.56 4.81-2.14 9.93-3.6 14.79s6.59 6.38 7.1 1c.48-5.12.95-10.73-.42-15.75a1.61 1.61 0 0 0-3.08-.04Zm39.17 83.19h-.26a4.12 4.12 0 0 0-4.16 3.41 7.94 7.94 0 0 1-.78.8 29.66 29.66 0 0 0-2.36 2.63 43.12 43.12 0 0 0-4.2 4.79l-.11.14-1.17-.66c-1.45-1-2.63-2.29-4.14-3.21-2-1.22-3.72.91-3.37 2.62.9 4.46 7.24 11.68 12.27 8.85 3-1.68 5.43-5 7.81-7.44s5.58-4.72 4.72-8.67a4.48 4.48 0 0 0-4.25-3.26Zm36.6-101.4a5.41 5.41 0 0 0-4.67-2.8 6.41 6.41 0 0 0-2.08.36c-.79.26-1.43.93-2.08 1.2a4.44 4.44 0 0 0-3.05 4.22 5.11 5.11 0 0 1-.78-1.26c-.88-1.93-4.29-1-4.08 1.11a8.58 8.58 0 0 0 13.3 6.33c2.71-1.87 5.23-5.88 3.44-9.16ZM180.88 264.07c-1.74-1.25-3.21-2.26-5.46-2a12 12 0 0 0-6.15 3.18 10.17 10.17 0 0 0-2.61 3 3.89 3.89 0 0 0-.72.85l-1.13-.62c-3.65-2-8.83-6.63-13.06-3.76a15.54 15.54 0 0 0-2.83 3.06c-.55.63-1.09 1.27-1.64 1.91q-.83 2.26-2.1.52c-2.7-.81-6.36-5.53-8.18-7.54a2.1 2.1 0 0 0-2.52-.32 52.93 52.93 0 0 0-11.39 9.26 1.25 1.25 0 0 0 1.51 2c3.59-2 7.17-4.29 10.57-6.66 2.87 3.46 7.27 9.13 11.27 9.28 1.67.06 2.83-1.22 3.86-2.3s2-3 3.29-3.81c1.79-1.15 2-.68 3.83.57 3.28 2.23 8.08 7.45 12.28 4.46 3-2.13 2.82-7.21 8.2-5.32 2.93 1 5.44 4.91 8.33 6.4a3 3 0 0 0 3.65-4.73c-2.46-2.95-5.88-5.22-9-7.43Zm201.88-139.91a4.52 4.52 0 0 0 .78-.36c9.79-5.8 18.17-18.15 14.79-30a1.44 1.44 0 0 0-.21-.43 24.57 24.57 0 0 0-4.39-25.09 23.2 23.2 0 0 0-14.55-7.82c-2-.27-2.45-.16-4.09-1.42-1.13-.88-2-2.17-3.16-3a15.65 15.65 0 0 0-6.35-2.8c-1.72-.37-3 2.07-1.25 3a12.15 12.15 0 0 1 5.5 5.11c.82 1.62 1.16 3.46 2.68 4.63a8.82 8.82 0 0 0 3.87 1.27 27 27 0 0 1 7.92 2.63c9.57 5.34 11.61 16.76 6.38 26a2.63 2.63 0 0 0 3.09 3.83c-2.21 6.38-5.42 11.88-11.22 15.74-.21-1.21-.47-2.44-.81-3.67-.68-2.51-3.81-3-5.64-1.89-.13-1.89-.35-3.78-.52-5.66a4.5 4.5 0 0 0 3.12.6c5.77-.8 7.13-10.77 5.93-15.28a5.61 5.61 0 0 0-5.22-4.38 3.61 3.61 0 0 0-3.85 3.23 1.59 1.59 0 0 0 2 1.53c1.56-.51.74 2.13.55 2.92-.24 1.06-.68 3.55-1.64 4.36a4.24 4.24 0 0 0-1.26.7A48 48 0 0 0 374 87.56a1.58 1.58 0 0 0-3 0c-2.07 5.32-2.12 11.73-2.33 17.38-.18 4.85 1.31 15-5.47 15.86a4.94 4.94 0 0 0-4 4.61 36.76 36.76 0 0 1-38.26-3c-1.08-.75-2.09.84-1.33 1.72a36.45 36.45 0 0 0 17.64 11.26c-1.86-.17-3.72-.34-5.63-.41-1.17 0-2.06 1.71-1 2.51 5.07 3.94 12.34 4.42 18.56 4.5 6.49.09 13.82-.34 20.08-2.25 8.33-2.53 12.5-8.44 13.5-15.58Zm-8 3.11c-2.14 4.36-7.23 5.68-11.61 6.57l-.86.16a36.26 36.26 0 0 0 13.4-9.71 10.53 10.53 0 0 1-.94 2.98Zm-54.58-50.92c4.08-7.8 10.84-11.55 19.1-13.65 2.76-.7 2.28-5.4-.69-5.1-9.88 1-17.91 8.47-21.59 17.41-.75 1.82 2.28 3.06 3.18 1.34Zm3.95-51c-3.13.48-4.67 4.06-4.59 7 .12 4.57 3.91 7.54 3.37 12.33-.51 4.62 7.49 4.83 7.35 0a15.4 15.4 0 0 0-3.05-9.11c-.88-1.18-2.11-2.32-2.58-3.73-.66-2 .19-3.45.6-5.34a.91.91 0 0 0-1.1-1.15Zm22.92 19.01a13.61 13.61 0 0 0-.62-10.24c-1.55-3.08-5.2-4.88-5.9-8.33-.4-1.95-3.52-1.5-3.45.47.17 5.5 6.21 9.64 3.37 15.31-2.35 4.7 5.04 7.79 6.6 2.79Zm6.82-11.28c1.27 1.93 3.26 4.49 1.78 6.77-2.26 3.45 3.39 6.77 5.53 3.23 2.87-4.76-.08-9.48-3.41-13-1.91-2.02-5.47.62-3.9 3ZM56.64 131.89c-.24-1.66-2.72-1.16-2.8.37-.2 3.69.44 40.36-2.3 40.48a3.43 3.43 0 0 0-3.37 3c-2.64 2.2-5 4.76-8.19 6-3.46 1.37-7.37 1.25-11 1.38-7.82.26-15.78-.47-23.55.36a1.2 1.2 0 0 0-.33 2.34c8.75 3.56 19.28 4.17 28.63 4.35 8.18.16 14.45-2.86 20-8.84a4 4 0 0 0 1.12-2.28c5.1-2.59 4-11.47 3.92-16.56a227.24 227.24 0 0 0-2.13-30.6Z"/><path fill="#e0dfe6" d="M41.92 175.42a2.17 2.17 0 0 0-2.07.55 2.14 2.14 0 0 0-.55 2.03 2.08 2.08 0 0 0 1.49 1.49l.48.07a1.83 1.83 0 0 0 2.21-2.21c0-.16 0-.32-.07-.48a2.1 2.1 0 0 0-1.49-1.45Z"/><path fill="#525d7d" d="M53.47 126.84a1.5 1.5 0 0 0-1.56-1.42c-10.53.44-19.94.65-28.8.62-7.49 0-14.74-.2-21.53-.55a1.47 1.47 0 0 0-1.16.51 1.51 1.51 0 0 0-.42 1.13c1.53 16.87 2.33 34.11 3.1 50.74l.17 3.7A1.52 1.52 0 0 0 4.83 183c1.49-.07 3.08-.1 4.86-.09 2.26 0 4.57.06 6.8.12s4.62.12 7 .13h3.41c4.57 0 9.21.32 13.57.64h.1a1.5 1.5 0 0 0 1-.37 141.48 141.48 0 0 1 13.57-10.14 1.49 1.49 0 0 0 .65-1.33c-.54-9.19-1-18.54-1.43-27.58q-.44-8.77-.89-17.54Zm2.29 44.78a1.5 1.5 0 0 1-1.5 1.47c-1.29 0-2.57-.09-3.89-.17-2.93 2-5.9 4.21-8.77 6.57.1.88.2 1.76.29 2.63a1.5 1.5 0 0 1-1.34 1.65h-.15a1.5 1.5 0 0 1-1.49-1.34c-.06-.59-.14-1.19-.2-1.78-3.83-.27-7.82-.5-11.81-.51h-3.44c-2.3 0-4.63-.07-6.89-.13s-4.57-.12-6.87-.12H6.19l-.1-2.22c-.74-16.1-1.51-32.74-2.94-49.15 6.34.29 13 .45 20 .46 8.48 0 17.47-.16 27.44-.56q.42 8 .8 16c.41 8.36.83 17 1.32 25.52l1.62.05a1.49 1.49 0 0 1 1.43 1.63Z"/><path fill="#525d7d" d="M39.35 168.66a1.47 1.47 0 0 0-1.23.39 1.49 1.49 0 0 0-.48 1.21c.2 2.62.52 5.23.82 7.76.11.87.2 1.74.3 2.61l.21 1.78a1.5 1.5 0 0 0 1.49 1.34h.15a1.5 1.5 0 0 0 1.39-1.66c-.09-.87-.2-1.75-.3-2.63l-.21-1.8c-.23-1.89-.46-3.83-.65-5.77 3.61.48 6.72.8 9.61 1 1.33.08 2.61.13 3.86.16a1.5 1.5 0 0 0 .06-3L52.7 170a126.82 126.82 0 0 1-13.35-1.34Zm-28.5-27.45h.09c9.82-.56 19.67-.82 28.36-1.06a1.5 1.5 0 0 0-.08-3c-8.71.24-18.58.51-28.45 1.06a1.5 1.5 0 0 0 .08 3Zm29.99 8.22a1.48 1.48 0 0 0 1.58-1.4 1.5 1.5 0 0 0-1.4-1.59c-2.77-.17-5.65-.25-8.8-.26-7.23 0-14.65.39-21.19.75a1.5 1.5 0 0 0 .08 3h.09c6.5-.36 13.87-.76 21-.75 3.11.01 5.93.09 8.64.25Zm-14 4.88a37.7 37.7 0 0 1-12.45-.05 1.5 1.5 0 0 0-.4 3 56.77 56.77 0 0 0 7.3.56 31.68 31.68 0 0 0 6.13-.55 1.5 1.5 0 0 0-.58-2.94Zm15.56 1.76a1.5 1.5 0 0 0-1.5-1.5 52.51 52.51 0 0 1-6.56-.27 1.5 1.5 0 1 0-.37 3 54.26 54.26 0 0 0 6.93.3 1.5 1.5 0 0 0 1.5-1.53ZM32.31 165c-1.35.12-2.75.18-4.28.18-2.8 0-5.53-.22-8.42-.43-1.75-.13-3.56-.27-5.37-.36a1.5 1.5 0 0 0-.14 3c1.77.09 3.56.22 5.28.35 2.82.21 5.73.43 8.64.44 1.62 0 3.11-.06 4.56-.19a1.5 1.5 0 0 0-.27-3Zm60.41 52.35h-2.2c-8.94 0-14.47 8.34-14.47 16.07 0 10.48 10 16.9 15.36 16.9 8.67 0 17.63-6.1 17.63-16.31-.04-9.65-6.86-16.66-16.32-16.66Zm-1.31 30c-4.24 0-12.36-5.42-12.36-13.9 0-8.08 6-13.07 11.47-13.07h2.2C100.57 220.35 106 226 106 234c0 8.35-7.4 13.33-14.59 13.33Z"/><path fill="#525d7d" d="M92.75 231.25v-.85a26 26 0 0 1 .24-3.66 1.5 1.5 0 0 0-3-.42 28.8 28.8 0 0 0-.27 4.08v.83h.82c.76-.01 1.46 0 2.21.02Zm-2.86 2.98c.06.81.13 1.61.2 2.41s.14 1.64.2 2.46a1.49 1.49 0 0 0 1.49 1.39h.11a1.5 1.5 0 0 0 1.39-1.6c-.06-.84-.13-1.67-.2-2.51l-.18-2.12h-2.33Z"/><path fill="#525d7d" d="M98.7 231.56h-.26c-2-.13-3.82-.24-5.69-.3h-3a45.77 45.77 0 0 0-5.27.34 1.5 1.5 0 0 0 .18 3h.19a43.91 43.91 0 0 1 5-.32h3.01c1.75.06 3.52.17 5.35.28h.26a1.5 1.5 0 0 0 .19-3Zm285.96-79.51c0-2.45-2.81-6-4.83-6.75l-.49-.19a9 9 0 0 0-3.6-.79c-4.62 0-7 4.1-7 8.15 0 5.92 4.9 8.06 8.19 8.06 2.12 0 7.73-1.53 7.73-8.48Zm-7.77 5.48c-.21 0-5.19-.05-5.19-5.06 0-2.48 1.27-5.15 4-5.15a6 6 0 0 1 2.5.59l.54.2c.92.35 2.88 2.88 2.88 3.94.04 5.42-4.68 5.48-4.73 5.48ZM341.55 249a1.49 1.49 0 0 0-2.19.08c-1.38 1.59-2.88 3.14-4.33 4.64-1.62 1.69-3.29 3.42-4.83 5.24a1.49 1.49 0 0 0-.35 1.13 1.51 1.51 0 0 0 .57 1c2.48 1.92 4.91 4 7.25 6 1.13 1 2.25 1.92 3.39 2.87a1.49 1.49 0 0 0 1 .35 1.06 1.06 0 0 0 .25 0 1.49 1.49 0 0 0 1-.7c1.32-2.17 2.81-4.29 4.25-6.34 1-1.45 2.07-2.95 3.06-4.45a1.5 1.5 0 0 0-.32-2 112.8 112.8 0 0 1-8.75-7.82Zm3.55 12.55c-1.14 1.63-2.32 3.3-3.43 5l-2.05-1.75c-2-1.69-4-3.43-6.11-5.1 1.19-1.34 2.46-2.65 3.68-3.92s2.27-2.35 3.38-3.58q3.38 3.25 6.79 6.07c-.74 1.11-1.51 2.2-2.26 3.27Zm29.17-186.03a1.49 1.49 0 0 1 1.93-.87 1.44 1.44 0 0 1 .49.3 48.71 48.71 0 0 0-2.08-7.74 11.37 11.37 0 0 0-1.59.36 1.53 1.53 0 0 1-1.59-.49 41.81 41.81 0 0 1 2.57 9.3 8.86 8.86 0 0 1 .27-.86Z"/><path fill="#525d7d" d="M308.74 74.84c0 27.23 4.45 44.89 13.6 54 8 7.91 18.05 8 26.22 8h.49c11.57 0 19.47-2.28 24.15-7 4.13-4.14 5.15-9.46 5.39-14.71-.26.09-.52.2-.78.27a1.52 1.52 0 0 1-.42.06 1.5 1.5 0 0 1-.41-2.94 16.66 16.66 0 0 0 1.68-.58v-3.25c0-8.89-.14-16.63-.66-23.3h-.8a1.5 1.5 0 1 1-.22-3h.81q-.3-3-.73-5.61c-.11.34-.23.82-.37 1.38a35.24 35.24 0 0 1-1.74 5.44c.61 6.92.76 15.22.76 25.09V110c0 6.46 0 13.13-4.58 17.78-4.1 4.1-11.3 6.1-22 6.1h-.5c-8 0-17-.07-24.09-7.12-7.6-7.56-11.73-21.8-12.56-43.36a20.82 20.82 0 0 1-2-8.85 19.41 19.41 0 0 1 1.41-7.22 1.5 1.5 0 0 1 1.95-.83 1.46 1.46 0 0 1 .85.89c4.92-7.37 16-11.43 19.77-12.05a79 79 0 0 1 12.49-1.1c13.44 0 20.76 3.53 24.72 12.12a1.48 1.48 0 0 1 1.06-1.62c.41-.12.83-.22 1.24-.3-4.42-9.1-12.47-13.2-27-13.2a82.66 82.66 0 0 0-13 1.14 42.79 42.79 0 0 0-13.82 5.79c-7.16 4.53-10.91 10.31-10.91 16.67Z"/><path fill="#525d7d" d="M376.69 75a1.44 1.44 0 0 0-.49-.3 1.49 1.49 0 0 0-1.93.87 8.86 8.86 0 0 0-.27.86c-.09.31-.17.66-.27 1.05C372.32 83 369 96.17 345 96.17c-22.13 0-32-10.88-32-21.67a16.32 16.32 0 0 1 1.2-6.1 1.49 1.49 0 0 0 0-1.06 1.46 1.46 0 0 0-.85-.89 1.5 1.5 0 0 0-1.95.83 19.41 19.41 0 0 0-1.41 7.22 20.82 20.82 0 0 0 2 8.85C316 92.1 326.67 99.17 345 99.17c20.07 0 27.09-8.81 29.94-15.57a35.24 35.24 0 0 0 1.74-5.44c.14-.56.26-1 .37-1.38a.93.93 0 0 1 .07-.2 1.51 1.51 0 0 0-.43-1.58Z"/><path fill="#525d7d" d="M341.76 92.72c17 0 27.21-6.48 27.21-17.33 0-6-3.49-10.85-10.08-13.94-6.79-3.18-14.57-3.52-17.59-3.52a53 53 0 0 0-7.58.56c-8.67 1.26-17.42 6.31-17.42 14.75 0 9.68 8.75 19.48 25.46 19.48Zm-7.61-31.26a48.59 48.59 0 0 1 7.15-.53c19.47 0 24.7 9.07 24.7 14.46 0 13.29-18.53 14.33-24.21 14.33-14.74 0-22.46-8.29-22.46-16.48-.03-7.59 9.31-10.98 14.82-11.78Zm36.96 4.85a2 2 0 0 0 0 .24 1.58 1.58 0 0 0 .28.53 1.53 1.53 0 0 0 1.59.49 11.37 11.37 0 0 1 1.59-.36 11 11 0 0 1 1.61-.12c9.51 0 17.23 12.86 17.23 21.25 0 10.25-6.37 20.24-14.79 23.61a16.66 16.66 0 0 1-1.68.58 1.5 1.5 0 1 0 .83 2.88c.26-.07.52-.18.78-.27 10.07-3.34 17.86-14.92 17.86-26.8 0-9.54-8.69-24.25-20.23-24.25a13.49 13.49 0 0 0-2.81.3c-.41.08-.83.18-1.24.3a1.48 1.48 0 0 0-1.02 1.62Z"/><path fill="#525d7d" d="M387.17 91.87a1.51 1.51 0 0 0 1.5 1.42h.09a1.49 1.49 0 0 0 1.41-1.58c-.36-6.11-6.42-9.31-12.22-9.31h-1.02a1.5 1.5 0 1 0 .22 3h.85c3.56.01 8.9 1.74 9.17 6.47Zm-67.61-62.26c0 2.31 1.92 4.23 4 6.26 2.3 2.29 4.9 4.88 4.9 8.12a5.82 5.82 0 0 1-.05.82 1.49 1.49 0 0 0 1.31 1.66h.18a1.5 1.5 0 0 0 1.49-1.33 9.08 9.08 0 0 0 .07-1.17c0-4.49-3.2-7.68-5.78-10.25-1.52-1.51-3.08-3.07-3.08-4.13s.9-2.07 1.86-3.24c1.34-1.63 2.85-3.48 2.85-6a12.86 12.86 0 0 0-1.87-5.77 9.83 9.83 0 0 1-1.42-4 3.11 3.11 0 0 1 .84-2.06 1.5 1.5 0 0 0-2.29-1.94 6.09 6.09 0 0 0-1.55 4 11.86 11.86 0 0 0 1.72 5.42 10.56 10.56 0 0 1 1.53 4.4c0 1.42-1.06 2.71-2.17 4.08-1.25 1.52-2.54 3.1-2.54 5.13Zm21.3-18.88a1.49 1.49 0 0 0-2.12-.1 9.64 9.64 0 0 0-3 7.27c0 5.42 2.92 8.3 5.26 10.62 1.93 1.91 3.45 3.42 3.45 5.94a15.31 15.31 0 0 1-.72 3.88 17.72 17.72 0 0 0-.84 4.76 6.78 6.78 0 0 0 0 .78 1.49 1.49 0 0 0 1.49 1.37h.13a1.5 1.5 0 0 0 1.37-1.62 4.52 4.52 0 0 1 0-.52 15.48 15.48 0 0 1 .73-4 17.59 17.59 0 0 0 .83-4.67c0-3.77-2.2-6-4.34-8.07s-4.37-4.33-4.37-8.49a6.67 6.67 0 0 1 2.06-5 1.5 1.5 0 0 0 .07-2.15Zm19.06 3.03a1.5 1.5 0 0 0-1.34-2.68c-2.62 1.31-5.69 4.11-5.69 7.69 0 3 2 4.89 3.54 6.43 1.23 1.21 2.29 2.25 2.29 3.47a8.3 8.3 0 0 1-1.37 3.43 11.6 11.6 0 0 0-2 5.58 6.48 6.48 0 0 0 .84 3.16 1.48 1.48 0 0 0 1.31.78 1.54 1.54 0 0 0 .72-.18 1.5 1.5 0 0 0 .6-2 3.57 3.57 0 0 1-.47-1.72 9.12 9.12 0 0 1 1.65-4.16 10.34 10.34 0 0 0 1.75-4.89c0-2.48-1.7-4.14-3.19-5.61s-2.64-2.58-2.64-4.29c-.03-2.07 2-4 4-5.01ZM187.15 269.15a106 106 0 0 1-8.57-7.84 1.5 1.5 0 0 0-2-.18c-1.58 1.16-3.29 2.23-4.95 3.27-1.87 1.16-3.79 2.37-5.61 3.75a41.14 41.14 0 0 1-8.77-6.95 1.5 1.5 0 0 0-1.84-.23 122.62 122.62 0 0 0-10.88 7.26c-2.24-2.06-4.33-4.36-6.36-6.6l-1.05-1.15a1.52 1.52 0 0 0-1.84-.31 62.16 62.16 0 0 0-12.08 9.09 1.5 1.5 0 1 0 2 2.2 62.87 62.87 0 0 1 10.48-8.08l.24.27a93.52 93.52 0 0 0 7.52 7.66 1.51 1.51 0 0 0 1.91.05 112.15 112.15 0 0 1 10.65-7.22 42.43 42.43 0 0 0 9.5 7.13 1.52 1.52 0 0 0 1.65-.15 59.85 59.85 0 0 1 6.12-4.18c1.35-.84 2.72-1.7 4.07-2.63 2.5 2.54 5.24 4.87 7.9 7.12l1.68 1.44a1.5 1.5 0 0 0 2-2.28Zm24.32-147.97q0 1.11.09 2.19c8.91-8.81 15.86-19.66 18.47-29.48a10.18 10.18 0 0 0-2.94-.59c-2.25 8.36-7.86 17.67-15.54 25.84-.05.68-.08 1.37-.08 2.04Z"/><path fill="#525d7d" d="M232.65 93.48a1.44 1.44 0 0 1-.79.71 5.24 5.24 0 0 1 1.7 3.44q.25 3.2.53 6.36c.54 6.44 1.09 13 1.45 19.61a1.44 1.44 0 0 1 .63-.1l1.35.09 1 .06c-.37-6.71-.92-13.37-1.47-19.91q-.27-3.17-.53-6.35a8.27 8.27 0 0 0-.22-1.32l-1.61.17a1.5 1.5 0 0 1-.33-3l.58-.06a8.18 8.18 0 0 0-5.71-3.32 1.48 1.48 0 0 0-1.29.49 11.48 11.48 0 0 1 4 1.11 1.5 1.5 0 0 1 .71 2.02Zm-129.73 69.68a1.5 1.5 0 0 1 1.6 1.39c0 .37.06.72.08 1.09a12.71 12.71 0 0 0 3.33 1.19c16.22 3.38 30.72 4.89 73.71 4.89 19.25 0 33.83-1.32 47.28-4.3a11 11 0 0 0 2.27-.77v-1.63a1.5 1.5 0 0 1 1.47-1.53 1.54 1.54 0 0 1 1.49 1.2 11.37 11.37 0 0 0 3.58-6.7c.34-2.27.6-4.72.8-7.34l-1.68-.37a1.5 1.5 0 1 1 .62-2.93l1.25.27c.17-3.09.26-6.41.26-10s-.11-7.29-.27-10.93l-1.38-.08-1.33-.09a1.12 1.12 0 0 1-.31 0c.18 3.72.29 7.44.29 11.15a137 137 0 0 1-1.22 20 8.42 8.42 0 0 1-6.47 6.94c-13.24 2.93-27.62 4.23-46.64 4.23-42.73 0-57.08-1.49-73.1-4.82a9.8 9.8 0 0 1-7.6-7.62 161.43 161.43 0 0 1-3.25-32.63c0-1.41 0-2.82.08-4.24a1.5 1.5 0 0 1-1.16.55 1.8 1.8 0 0 1-.5-.08 8 8 0 0 0-1.34-.34c0 1.37-.08 2.74-.08 4.11a165.06 165.06 0 0 0 3.3 33.11 12.78 12.78 0 0 0 3.86 6.83 1.48 1.48 0 0 1 1.06-.55Z"/><path fill="#525d7d" d="M99.75 97.2a1.37 1.37 0 0 1-.09.49 4.91 4.91 0 0 1 4.19-3.28l7.22-.56c8.85 29.16 33.82 47.22 65.45 47.22 11 0 23-6.55 33-15.75a1.51 1.51 0 0 1-.92-1.23c0-.61-.09-1.24-.11-1.86a74.8 74.8 0 0 1-7.72 6.47v2.12a1.49 1.49 0 0 1-1.44 1.56h-.06a1.63 1.63 0 0 1-1.5-1.65 50.06 50.06 0 0 1-11.38 5.59 1.48 1.48 0 0 1-1.15.58h-.21l-.27-.07a30.43 30.43 0 0 1-8.28 1.25 75.15 75.15 0 0 1-9.7-.63 1.49 1.49 0 0 1-1.11.54 1.51 1.51 0 0 1-1.42-.91c-2-.33-3.92-.73-5.82-1.22l.09.52a1.51 1.51 0 0 1-1.25 1.71h-.24a1.51 1.51 0 0 1-1.48-1.27c-.1-.62-.21-1.25-.32-1.87a63.64 63.64 0 0 1-9.32-3.69l.13.39a1.49 1.49 0 0 1-1 1.88 1.47 1.47 0 0 1-.46.07 1.51 1.51 0 0 1-1.43-1c-.36-1.14-.79-2.29-1.24-3.43-13.13-7.66-23-19.94-27.87-35.65-.44 0-.9.07-1.32.13h-.19a1.51 1.51 0 0 1-1.49-1.32 1.49 1.49 0 0 1 .88-1.54l-8.39.65a7.9 7.9 0 0 0-6.35 4.29h1a1.5 1.5 0 0 1 1.57 1.47Z"/><path fill="#525d7d" d="M99.62 97.81a1.51 1.51 0 0 1-1.37.89H96.4c-.8 6-1.32 11.9-1.55 17.79a11.41 11.41 0 0 1 2.27.53 1.5 1.5 0 0 1 .68.5 188.29 188.29 0 0 1 1.64-19 4.92 4.92 0 0 1 .18-.71Zm22.68-7.33c0-6.5 5.49-12.19 11.74-12.19h.44c4.41.19 7.81.58 11.13 1.94 3.72 1.52 6 5.24 6 9.7 0 7.84-7.5 15.24-15.44 15.24-7.31 0-12.91-6.53-13.77-13a1.49 1.49 0 0 1-1.09.71c-.6.08-1.21.13-1.83.18a18 18 0 0 0 11.82 14.24 1.47 1.47 0 0 1 .86-1.48 1.49 1.49 0 0 1 2 .74c.23.51.49 1 .74 1.55.44 0 .88.07 1.31.07a16.91 16.91 0 0 0 6.26-1.24 1.5 1.5 0 0 1 2.42-1.75l.33.4a19.4 19.4 0 0 0 9.06-12.3H154a1.5 1.5 0 0 1-1.45-1.54 1.49 1.49 0 0 1 1.45-1.46h.63v-.36c0-5.7-3-10.49-7.89-12.48a35.49 35.49 0 0 0-12.13-2.16 14.29 14.29 0 0 0-10.42 4.11c0 .45 0 .89.08 1.33a1.5 1.5 0 0 1-1.39 1.6 1.45 1.45 0 0 1-.94-.27 15.18 15.18 0 0 0-2.63 8c.56 0 1.12-.09 1.65-.15a1.5 1.5 0 0 1 1.34.57Zm83.41-17.09a15.72 15.72 0 0 0-7.08 1.54c-5.26 2.63-8.52 8.34-8.52 14.91 0 .46 0 .92.07 1.39l1.87.08a1.53 1.53 0 0 1 1.28.88 13.44 13.44 0 0 1-.22-2.35c0-5.34 2.69-10.14 6.86-12.22a12.61 12.61 0 0 1 5.74-1.23c9.78 0 15 6.59 15 12.78 0 7.48-7.55 15.09-15 15.09-6.19 0-11-5.54-12.33-11.39a1.5 1.5 0 0 1-1.38 1.44h-1.24a19.17 19.17 0 0 0 1.37 3.57 1.27 1.27 0 0 1 .42.09 1.49 1.49 0 0 1 .84 1.94v.08a16.35 16.35 0 0 0 8.75 6.76c.17-.39.32-.78.5-1.17a1.5 1.5 0 0 1 2.73 1.24c-.07.15-.13.3-.19.45h.67a15.83 15.83 0 0 0 6.44-1.46 37.3 37.3 0 0 1 1.72-3.16 1.5 1.5 0 0 1 2.06-.5 1.46 1.46 0 0 1 .66.87 20 20 0 0 0 6.49-9.73h-.75a1.5 1.5 0 0 1 0-3h1.22c-.11-1.48-.19-2.94-.27-4.4-1.6-6.53-7.67-12.5-17.71-12.5Z"/><path fill="#525d7d" d="M136.29 99.12c3.44 0 7.3-2.81 7.3-6.58a7.57 7.57 0 0 0-7.43-7.46 5.8 5.8 0 0 0-2.46.56 7.81 7.81 0 0 0-4 6.82 6.73 6.73 0 0 0 6.59 6.66ZM135 88.32a2.87 2.87 0 0 1 1.12-.24 4.59 4.59 0 0 1 4.43 4.46c0 2.08-2.57 3.58-4.3 3.58a3.74 3.74 0 0 1-3.63-3.66 4.84 4.84 0 0 1 2.38-4.14ZM203.47 96a7.16 7.16 0 0 0 6.75-7c0-4-3.68-7-6.07-7h-.33a7.1 7.1 0 0 0-6.62 7.29c0 4.02 2.52 6.71 6.27 6.71Zm.58-11h.1a4.51 4.51 0 0 1 3.07 4 4.21 4.21 0 0 1-3.75 4c-2.08 0-3.27-1.35-3.27-3.69a4.13 4.13 0 0 1 3.85-4.31Zm1.27 134.66a1.5 1.5 0 0 1 2.12.09c.71.77 1.41 1.55 2.11 2.32 4.23-.28 8-.65 11.38-1.11a12.71 12.71 0 0 0 10.94-11.46c1.19-12.91 2.34-26.65 2.34-40.29v-4.24a2.36 2.36 0 0 0 0-.28 1.54 1.54 0 0 0-1.49-1.2 1.5 1.5 0 0 0-1.47 1.53v4.19c0 13.51-1.15 27.17-2.33 40a9.7 9.7 0 0 1-8.36 8.76c-8.37 1.16-19.69 1.75-33.65 1.75-32.5 0-46.9-1.17-70-5.67a8.11 8.11 0 0 1-6.38-6.21 284.07 284.07 0 0 1-5.89-42.21c0-.37-.06-.72-.08-1.09a1.5 1.5 0 0 0-1.6-1.39 1.48 1.48 0 0 0-1.06.55 1.46 1.46 0 0 0-.33 1 286.94 286.94 0 0 0 6 43.75 11.13 11.13 0 0 0 8.73 8.55c23.33 4.54 37.84 5.72 70.57 5.72q10.4 0 18.83-.43l-.47-.52a1.5 1.5 0 0 1 .09-2.11ZM111.11 92.31a1.51 1.51 0 0 0 1.49 1.32h.19c.42-.06.88-.09 1.32-.13.94-.08 1.9-.15 2.86-.21s1.69-.1 2.54-.17c.62 0 1.23-.1 1.83-.18a1.49 1.49 0 0 0 1.09-.71 1.44 1.44 0 0 0 .21-1A1.49 1.49 0 0 0 121 90c-.53.06-1.09.11-1.65.15-.84.07-1.69.13-2.53.18-1.45.08-3 .17-4.38.35a1.47 1.47 0 0 0-.42.13 1.49 1.49 0 0 0-.91 1.5Zm50.3.69a1.52 1.52 0 0 1 1.17.45l4 .07 7.16.14a1.51 1.51 0 0 1 1.27-1 1.48 1.48 0 0 1 1.58 1.07c4.69.11 9.41.26 14.09.5H192a1.51 1.51 0 0 0 1.5-1.42 1.75 1.75 0 0 0-.14-.7 1.53 1.53 0 0 0-1.28-.88l-1.87-.08c-7.86-.38-15.8-.54-23.5-.68-4-.07-8-.14-12.06-.25H154a1.5 1.5 0 0 0-.09 3h.32c2.08.06 4.15.11 6.23.15a1.42 1.42 0 0 1 .95-.37Zm63.81-1.35h-.1a1.49 1.49 0 0 1-1.49-1.38h-1.22a1.5 1.5 0 0 0 0 3h4.7a10.18 10.18 0 0 1 2.94.59c.2.08.41.16.61.26a1.44 1.44 0 0 0 .67.16 1.51 1.51 0 0 0 .55-.12 1.44 1.44 0 0 0 .79-.71 1.5 1.5 0 0 0-.67-2 11.48 11.48 0 0 0-4-1.11c-.46 0-.91-.07-1.36-.09a1.5 1.5 0 0 1-1.42 1.4Zm-90.33 16.46c-.25-.52-.51-1-.74-1.55a1.49 1.49 0 0 0-2-.74 1.47 1.47 0 0 0-.86 1.48 1.58 1.58 0 0 0 .12.51c1.39 3 3 6.09 4.59 9.06a130.78 130.78 0 0 1 6 12.27c.45 1.14.88 2.29 1.24 3.43a1.51 1.51 0 0 0 1.43 1 1.47 1.47 0 0 0 .46-.07 1.49 1.49 0 0 0 1-1.88l-.13-.39a104.85 104.85 0 0 0-7.29-15.81c-1.33-2.37-2.64-4.86-3.82-7.31Zm9.99-2.92a1.5 1.5 0 0 0-2.42 1.75l.12.18A60.91 60.91 0 0 1 155.27 135c.11.62.22 1.25.32 1.87a1.51 1.51 0 0 0 1.48 1.27h.24a1.51 1.51 0 0 0 1.25-1.71l-.09-.52a64.62 64.62 0 0 0-13.26-30.26Z"/><path fill="#525d7d" d="M164.92 111.92c-.73-5.74-1.48-11.67-1.9-17.51a1.48 1.48 0 0 0-.44-.93 1.52 1.52 0 0 0-1.17-.45 1.42 1.42 0 0 0-.91.41 1.49 1.49 0 0 0-.48 1.19c.44 5.92 1.19 11.89 1.92 17.67 1 7.94 2 16.14 2.23 24.22a1.69 1.69 0 0 0 .12.55 1.5 1.5 0 0 0 2.53.37 1.52 1.52 0 0 0 .35-1 244.88 244.88 0 0 0-2.25-24.52Zm10.14-19.23a1.51 1.51 0 0 0-1.35 1.64c.81 8.29.88 16.84.94 25.11 0 5.62.09 11.44.36 17.13a1.51 1.51 0 0 0 1.5 1.43h.08a1.5 1.5 0 0 0 1.42-1.57c-.27-5.64-.32-11.42-.36-17-.06-8.34-.13-17-1-25.38a1.27 1.27 0 0 0-.06-.28 1.48 1.48 0 0 0-1.53-1.08Zm12.8 34.22c1.07-9.13 2.18-18.57 5.47-27v-.08a1.49 1.49 0 0 0-.84-1.94 1.27 1.27 0 0 0-.42-.09 1.49 1.49 0 0 0-1.53.93c-3.46 8.79-4.59 18.45-5.69 27.8-.34 2.85-.68 5.8-1.09 8.63a1.5 1.5 0 0 0 1 1.63l.27.07h.21a1.59 1.59 0 0 0 1.48-1.28c.45-2.83.8-5.8 1.14-8.67Zm17.26-19.69c.06-.15.12-.3.19-.45a1.5 1.5 0 0 0-2.73-1.24c-.18.39-.33.78-.5 1.17a56.39 56.39 0 0 0-4.31 21.85v2.18a1.63 1.63 0 0 0 1.5 1.65h.06a1.49 1.49 0 0 0 1.44-1.56v-2.27a53.12 53.12 0 0 1 4.35-21.33Zm5.12 18.22a1.5 1.5 0 0 0 1.35-1.64v-.43q-.09-1.08-.09-2.19c0-.67 0-1.36.08-2a33.26 33.26 0 0 1 5-14.94 1.48 1.48 0 0 0 .16-1.19 1.46 1.46 0 0 0-.66-.87 1.5 1.5 0 0 0-2.06.5c-.63 1-1.2 2.09-1.72 3.16a34.76 34.76 0 0 0-3.76 15.38v1c0 .62.06 1.25.11 1.86a1.51 1.51 0 0 0 .92 1.23 1.4 1.4 0 0 0 .58.12Zm-15.64 25.74-1.77.12c-5.62.38-11.42.77-17.11.77-10.7 0-19.05-1.44-26.27-4.53a1.5 1.5 0 1 0-1.18 2.75c7.61 3.26 16.33 4.78 27.45 4.78 5.79 0 11.65-.39 17.31-.78l1.77-.11a1.5 1.5 0 1 0-.2-3Zm-72.19 36.28h.48A1.47 1.47 0 0 0 124 187a1.52 1.52 0 0 0 .4-1.12c-.12-1.75-.14-3.46-.14-4.91v-4.79a1.5 1.5 0 0 0-1.18-1.46c-3.21-.7-7.19-1.84-8.83-2.82a1.5 1.5 0 0 0-2.28 1.28v3.69a62.35 62.35 0 0 0 .51 9.09 1.5 1.5 0 0 0 1.44 1.28l2.83.11c1.84.04 3.76.11 5.66.11ZM115 176.84v-1.35a53.52 53.52 0 0 0 6.3 1.86v3.6c0 1.05 0 2.25.06 3.51-1.49 0-3-.08-4.45-.14l-1.58-.06a68.76 68.76 0 0 1-.33-7.42ZM146.15 188v-10.63a1.49 1.49 0 0 0-1.43-1.5c-1.38-.06-2.81-.21-4.2-.35-1.91-.19-3.89-.38-5.86-.38h-.45a1.5 1.5 0 0 0-1.44 1.19 21 21 0 0 0-.39 4.25c0 1.31.09 2.62.17 3.9 0 .7.08 1.39.11 2.09a1.5 1.5 0 0 0 1.25 1.41l2.45.44a54.92 54.92 0 0 0 8.25 1.08 1.54 1.54 0 0 0 1.09-.42 1.5 1.5 0 0 0 .45-1.08Zm-9.26-2.53-1.29-.24-.06-.94c-.08-1.23-.16-2.5-.16-3.71a19.92 19.92 0 0 1 .13-2.43c1.56 0 3.16.2 4.71.36 1 .1 1.95.19 2.93.27v7.63c-2.04-.17-4.1-.55-6.26-.94Zm19.75 4.44a1.42 1.42 0 0 0 1.08.42h2.82c3.27 0 7 .29 8.46.41h.13a1.51 1.51 0 0 0 1.47-1.81 48.37 48.37 0 0 1-.74-7.29c-.07-1.38-.15-2.8-.28-4.2a1.51 1.51 0 0 0-1.53-1.35h-6.69c-1.67 0-3.05.06-4.32.18a1.51 1.51 0 0 0-1.35 1.63c.29 3.23.45 6.74.49 11a1.5 1.5 0 0 0 .46 1.01Zm7.42-10.91h2.65c.06.9.11 1.81.15 2.69.1 1.91.2 3.87.47 5.8-1.92-.14-4.44-.27-6.79-.27h-1.38c0-3.07-.17-5.75-.36-8.24 1.52.02 3.42.02 5.26.02Zm31.66.88v-2.64a1.52 1.52 0 0 0-.48-1.08 1.55 1.55 0 0 0-1.11-.39c-1.73.1-3.58.14-5.82.14h-6.94a1.61 1.61 0 0 0-1.07.44 1.52 1.52 0 0 0-.44 1.07c0 6.66.36 9.93 2.14 11.66 1.23 1.2 2.84 1.42 5.07 1.42h1.85c1.71-.05 3.92 0 6-.09a1.48 1.48 0 0 0 1.14-.57 1.52 1.52 0 0 0 .29-1.25 40 40 0 0 1-.63-8.71Zm-6.89 7.52c-2.48 0-4.11.09-4.76-.54-.88-.86-1.15-3.69-1.22-8h5.44c1.57 0 3.09 0 4.43-.07v1a52.29 52.29 0 0 0 .37 7.46c-1.51.12-3.02.12-4.26.15Zm31.65-2.12a86.25 86.25 0 0 1-1-9.72 1.5 1.5 0 0 0-.56-1.13 1.52 1.52 0 0 0-1.23-.31c-3.87.77-7.8 1.45-11.68 2a1.49 1.49 0 0 0-1.26 1.68c.21 1.6.38 3.26.55 4.87s.35 3.4.57 5.1a1.5 1.5 0 0 0 1.49 1.3h.14c2.49-.23 5.06-.31 7.54-.39 1.42 0 2.83-.09 4.23-.16a1.5 1.5 0 0 0 1.41-1.7Zm-5.51.43c-2.06.07-4.17.13-6.28.29-.14-1.2-.27-2.42-.39-3.6s-.24-2.32-.37-3.5c2.87-.45 5.77-1 8.64-1.5.17 2.77.56 5.54.93 8.23ZM195 209.72a128.6 128.6 0 0 1-1-12.82 1.47 1.47 0 0 0-.45-1.06 1.54 1.54 0 0 0-1.06-.43c-16.52.19-32.46 1-45.87 1.82a1.5 1.5 0 0 0-1.41 1.52v4.46c0 2.3 0 4.69.11 7a1.49 1.49 0 0 0 1.42 1.45l4.45.24c10.92.56 22.21 1.15 33.31 1.15 3.24 0 6.25-.05 9.2-.14a1.53 1.53 0 0 0 1.09-.52 1.5 1.5 0 0 0 .35-1.15Zm-10.47.37c-11 0-22.27-.58-33.16-1.15l-3.06-.16c0-1.87 0-3.76-.07-5.59v-3.05c12.66-.74 27.46-1.5 42.81-1.71.12 3.93.56 7.81 1 11.57-2.43.06-4.89.09-7.51.09Zm35.04-13a1.51 1.51 0 0 0-1.72-1.41 73.35 73.35 0 0 1-10.51.59h-1a1.5 1.5 0 0 0-1.5 1.57 61.19 61.19 0 0 0 1.39 11.29 1.5 1.5 0 0 0 1.46 1.15h.14c4.06-.38 8-.68 11.37-.92a1.54 1.54 0 0 0 1.08-.58 1.51 1.51 0 0 0 .28-1.2 76.54 76.54 0 0 1-.99-10.49Zm-10.66 10.07a59.39 59.39 0 0 1-1-7.9 78.34 78.34 0 0 0 8.71-.4c.13 2.48.33 5 .72 7.61-2.56.19-5.45.42-8.43.69Zm-78.06-10.7a1.45 1.45 0 0 0-.43-1.13 1.51 1.51 0 0 0-1.13-.45c-1.5.07-3 0-4.51 0-1 0-1.94-.05-2.9-.05a31.48 31.48 0 0 0-4.41.27 1.5 1.5 0 0 0-1.28 1.53v2.46a60 60 0 0 0 .47 7.72 1.49 1.49 0 0 0 1.48 1.28h.08c3.48-.17 7.37-.21 11.2-.14a1.4 1.4 0 0 0 1.11-.47 1.47 1.47 0 0 0 .41-1.13c-.15-2.26-.23-4.31-.23-6.26.05-1.27.08-2.48.14-3.63ZM119.51 205c-.2-2-.23-3.93-.27-6v-1.12c1.54-.12 3.54-.09 5.48 0 1 0 2.06.06 3.09 0v2.16c0 1.54 0 3.13.14 4.84-2.95-.01-5.77.03-8.44.12Zm-22.9-85a1.5 1.5 0 0 0 1.16-.55A1.39 1.39 0 0 0 98 119a1.52 1.52 0 0 0-.91-1.92 11.41 11.41 0 0 0-2.27-.53 15.83 15.83 0 0 0-2-.13c-.93 0-1.86.06-2.75.12a25.24 25.24 0 0 1-3.64.08V98.78c1.07.07 2.21.1 3.5.1s2.82 0 4.22-.08h4.04a1.51 1.51 0 0 0 1.37-.89.56.56 0 0 0 0-.12 1.37 1.37 0 0 0 .09-.49 1.5 1.5 0 0 0-1.5-1.5h-1c-1 0-2.08 0-3.12.07-1.38 0-2.76.07-4.14.07a43.15 43.15 0 0 1-4.84-.23A1.55 1.55 0 0 0 84 96a1.52 1.52 0 0 0-.5 1.12v20.79a1.5 1.5 0 0 0 1.19 1.44 13.65 13.65 0 0 0 2.92.28c.92 0 1.84-.06 2.73-.12s1.71-.12 2.54-.12a11.5 11.5 0 0 1 1.94.15 8 8 0 0 1 1.34.34 1.8 1.8 0 0 0 .45.12Zm136.46-25.09a1.51 1.51 0 0 0 1.65 1.33l1.61-.17c1.2-.12 2.45-.22 3.69-.22 7.08 0 9.53.94 9.53 19.51 0 6.46 0 8.41-8 8.41-1 0-2-.06-3-.12l-1-.06-1.35-.09a1.44 1.44 0 0 0-.63.1 1.5 1.5 0 0 0 .14 2.84 1.12 1.12 0 0 0 .31 0l1.33.09 1.38.08c1 .06 1.91.11 2.9.11 10.05 0 10.9-4 11-10.67a1.48 1.48 0 0 1-1.31-.7 1.51 1.51 0 0 1 .48-2.07l.81-.48a67.74 67.74 0 0 0-.75-10.32c-.13.13-.25.27-.39.4a1.5 1.5 0 1 1-2-2.2 10 10 0 0 0 1.4-1.68c-1.71-4.69-5-6.1-10.85-6.1a46.3 46.3 0 0 0-5.05.34l-.58.06a1.5 1.5 0 0 0-1.32 1.61Z"/><path fill="#525d7d" d="M249.27 102.85a1.49 1.49 0 0 0 2.12.08c.14-.13.26-.27.39-.4a14.3 14.3 0 0 0 4.1-10.34v-1.17c.76 6.83 1.34 13.92 1.36 15.28 0 4.16-.29 4.31-2.55 5.43-.59.29-1.3.65-2.12 1.12l-.81.48a1.5 1.5 0 0 0 .79 2.78 1.56 1.56 0 0 0 .8-.23 26.73 26.73 0 0 1 2.68-1.47c3.12-1.55 4.21-2.58 4.21-8.11 0-.65-.58-8.42-1.37-15.54-1.76-16-3-16-4.47-16-2 0-5 1.62-5 4.54a12.4 12.4 0 0 0 1.6 5.53 15.56 15.56 0 0 1 1.91 7.36 11.9 11.9 0 0 1-2 6.76 10 10 0 0 1-1.52 1.78 1.5 1.5 0 0 0-.12 2.12Zm3.12-23.51c0-.7.74-1.18 1.35-1.4.62 1.69 1.3 6.26 1.89 11.26a21.06 21.06 0 0 0-1.94-5.65 9.8 9.8 0 0 1-1.3-4.21Zm-128.11 1.4c0-.44 0-.88-.08-1.33-.74-11.54-1.1-23.35-1.1-36 0-2.89 0-5.85.05-8.84 5.73.11 11.54-.09 17.16-.28 4.55-.15 9.25-.31 13.87-.31 6.06 0 13.29.57 21.67 1.23 11.91.94 26.73 2.11 44.43 2.11h2.14v4c0 14.35.08 29.53.94 44.58.08 1.46.16 2.92.26 4.38a1.51 1.51 0 0 0 1.5 1.4h.1a1.5 1.5 0 0 0 1.39-1.38 1.62 1.62 0 0 0 0-.22c-1.11-16.38-1.2-33.07-1.2-48.76v-5.66a1.49 1.49 0 0 0-1.6-1.5c-1.09.08-2.25.11-3.54.11-17.59 0-32.34-1.16-44.19-2.1-8.44-.67-15.73-1.24-21.91-1.24-4.68 0-9.4.16-14 .31-6.07.21-12.35.42-18.49.25a1.41 1.41 0 0 0-1.08.42 1.44 1.44 0 0 0-.46 1.06c-.06 3.51-.08 7-.08 10.39 0 13.26.39 25.55 1.19 37.58a1.47 1.47 0 0 0 .66 1.13 1.45 1.45 0 0 0 .94.27 1.5 1.5 0 0 0 1.43-1.6Z"/><path fill="#525d7d" d="M141.21 45.38c3.38.24 6.87.49 10.29.49.9 0 1.81 0 2.7-.06a1.51 1.51 0 0 0 1.44-1.56 1.5 1.5 0 0 0-1.57-1.44 114.25 114.25 0 0 1-12.65-.42c-2.07-.15-4.22-.3-6.3-.39a1.48 1.48 0 0 0-1.57 1.43A1.5 1.5 0 0 0 135 45c2 .08 4.16.23 6.21.38Zm21.18 1.25c5.46-.29 10.85-.43 16-.43a251.16 251.16 0 0 1 30.36 1.8h.18a1.5 1.5 0 0 0 .18-3 253 253 0 0 0-30.7-1.8c-5.23 0-10.67.14-16.17.43a1.5 1.5 0 0 0 .15 3Zm-11.12 5.79c-4.31 0-9 .06-13.63.48a1.5 1.5 0 0 0 .14 3h.14c4.55-.41 9.11-.47 13.35-.47H158c2.74 0 4.83 0 6.79-.09a1.5 1.5 0 0 0 0-3c-2 .06-4.05.09-6.75.09h-6.75Zm35.58 4.02a1.5 1.5 0 0 0 0-3h-10.09a1.5 1.5 0 0 0 0 3Zm13.6.68c1.4.09 2.84.18 4.28.18a24.39 24.39 0 0 0 4.19-.33 1.5 1.5 0 1 0-.52-3 20.46 20.46 0 0 1-3.67.29c-1.35 0-2.74-.09-4.09-.18a51.39 51.39 0 0 0-6-.13 1.5 1.5 0 0 0 .17 3 45.65 45.65 0 0 1 5.64.17ZM146.54 67c1.83.06 3.72.12 5.58.12 1 0 1.93 0 2.9-.06a1.5 1.5 0 0 0-.13-3c-2.74.12-5.53 0-8.25-.07-1.82-.06-3.71-.13-5.58-.13s-3.52.07-5.05.2a1.5 1.5 0 0 0 .26 3c1.45-.13 3-.19 4.79-.19s3.68.13 5.48.13Zm26.46-.49h.25a1.5 1.5 0 0 0 .25-3 30.28 30.28 0 0 0-5-.36h-4.77a1.5 1.5 0 1 0 0 3h4.77a27 27 0 0 1 4.5.36Zm14.33-2.07-5.43.18a1.5 1.5 0 1 0 .09 3c1.82-.05 3.63-.12 5.45-.19 3.72-.13 7.56-.28 11.32-.28a102.34 102.34 0 0 1 11.54.59h.17a1.5 1.5 0 0 0 .17-3 103.67 103.67 0 0 0-11.88-.61c-3.82.02-7.69.17-11.43.31ZM161 74.16a1.5 1.5 0 0 0 .13-3 110.41 110.41 0 0 0-19.07 0 1.5 1.5 0 0 0 .26 3 106.41 106.41 0 0 1 18.55 0Zm30.65-1.08c-5-.55-10-.61-14.87-.67-2.4 0-4.89-.06-7.32-.15a1.5 1.5 0 1 0-.11 3c2.47.09 5 .13 7.39.16 4.79 0 9.74.12 14.58.65h.17a1.5 1.5 0 0 0 .16-3Zm-8.56 8.99a1.5 1.5 0 0 0-.11-3c-1.78.07-3.55.15-5.33.24-3.88.19-7.89.38-11.82.38-1.42 0-2.73 0-4-.07a1.5 1.5 0 1 0-.12 3c1.32 0 2.66.08 4.12.08 4 0 8-.2 12-.38Zm126.06 103.67c0 .23-.1.47-.14.7a1.51 1.51 0 0 1-1.47 1.2h-.31a1.5 1.5 0 0 1-1.16-1.78l.63-3.07c-4.9-5.93-9.87-12-14.78-18.11l-.93-.27-3.58-1a1.47 1.47 0 0 1-.71-.45c5.94 7.53 12 14.9 18 22.12 6.33 7.67 12.86 15.59 19.11 23.55-13.09 11.23-15.69 14-17.43 15.86-3 3.25-3.61 3.85-56.45 44.81l-7.13-8.53-5.51-6.59a1.5 1.5 0 0 1-1.16 2.45 1.9 1.9 0 0 1-.4-.05l-.45-.13 5.22 6.24 8.06 9.64a1.49 1.49 0 0 0 2.07.22l11.3-8.76-.74-.23a1.49 1.49 0 1 1 .87-2.86l2.76.85c14.44-11.2 23.78-18.48 29.95-23.35.31-1.37.63-2.76.93-4.13a1.5 1.5 0 0 1 2.93.66l-.12.51c7.49-6 8.44-7 10.06-8.7s4.37-4.66 18.28-16.56a1.5 1.5 0 0 0 .21-2.06c-5.86-7.53-11.95-14.92-17.91-22.18ZM270.44 157a1.49 1.49 0 0 1-1.44 1.11 1.83 1.83 0 0 1-.4 0l-2.75-.74c-2.19 1.85-4.37 3.71-6.51 5.55-7.72 6.63-15.71 13.48-24 19.63a1.5 1.5 0 1 0 1.78 2.41c8.41-6.21 16.44-13.1 24.21-19.77 5.36-4.6 10.89-9.34 16.5-13.82q4.32 5.79 8.82 11.46a1.49 1.49 0 0 1-.24-1.3 1.5 1.5 0 0 1 1.85-1l.48.14c-3.2-4.06-6.36-8.16-9.42-12.3a1.49 1.49 0 0 0-1-.6 1.53 1.53 0 0 0-1.13.31c-2.87 2.27-5.71 4.6-8.51 7l.75.2a1.49 1.49 0 0 1 1.01 1.72Z"/><path fill="#525d7d" d="M237.23 254.09c-9-10.72-18.18-21.58-27.68-32-.7-.77-1.4-1.55-2.11-2.32a1.5 1.5 0 0 0-2.21 2l.47.52c8.94 9.75 17.65 19.92 26.14 30l4.67 1.31a1.47 1.47 0 0 1 .72.49Zm-1.55-105.58a1.49 1.49 0 0 0 1.16 1.77l1.68.37c8.2 1.77 17.18 4 27.33 6.69l2.75.74a1.83 1.83 0 0 0 .4 0 1.5 1.5 0 0 0 .39-2.95l-.75-.2c-11.21-3-21-5.45-29.93-7.36l-1.25-.27a1.49 1.49 0 0 0-1.78 1.21Zm50.7 12.99a1.49 1.49 0 0 0 .24 1.3 1 1 0 0 0 .08.11 1.47 1.47 0 0 0 .71.45l3.58 1 .93.27c6.64 1.91 12.49 3.58 17.48 4.9-.89 4.41-1.8 8.81-2.7 13.21l-.63 3.07a1.5 1.5 0 0 0 1.16 1.78h.31a1.51 1.51 0 0 0 1.47-1.2c0-.23.09-.47.14-.7q1.75-8.48 3.47-17a1.5 1.5 0 0 0-1.1-1.75c-5.46-1.41-12.06-3.3-19.7-5.5l-3.11-.89-.48-.14a1.5 1.5 0 0 0-1.85 1.09Zm11.09 71.39a1.49 1.49 0 0 0-1.79 1.13c-.3 1.37-.62 2.76-.93 4.13-2.22 9.92-4.55 20.09-6.95 30.36-5.71-1.6-11.47-3.41-17.05-5.16l-5.95-1.85-2.76-.85a1.49 1.49 0 1 0-.87 2.86l.74.23 7.94 2.47c6.1 1.92 12.4 3.9 18.66 5.61a1.74 1.74 0 0 0 .39.05 1.49 1.49 0 0 0 1.46-1.16c2.82-12 5.56-24 8.13-35.52l.12-.51a1.5 1.5 0 0 0-1.14-1.79Z"/><path fill="#525d7d" d="M236.11 256.58a1.5 1.5 0 0 0 1.16-2.45 1.47 1.47 0 0 0-.72-.46l-4.67-1.31c-3.55-1-7.08-2-10.53-3-4.4-1.29-8.94-2.62-13.53-3.9a73.3 73.3 0 0 0 2.73-13.6 1.49 1.49 0 0 0-1.38-1.61 1.51 1.51 0 0 0-1.61 1.37 76.9 76.9 0 0 1-3.05 14.52 1.51 1.51 0 0 0 .18 1.19 1.45 1.45 0 0 0 1 .68l.76.18c4.76 1.33 9.49 2.71 14.06 4.05 4.82 1.41 9.8 2.86 14.79 4.25l.45.13a1.9 1.9 0 0 0 .36-.04Zm33.03-76.04c5.06 1.12 5.64 3.33 5.64 4.9a9.43 9.43 0 0 1-.25 1.84 11.8 11.8 0 0 0-.31 2.37c0 2.9 1.84 4 3.19 4.89a7.34 7.34 0 0 1 1.63 1.23 6 6 0 0 1 1.07 3.45 12.53 12.53 0 0 0 .8 3.63 1.49 1.49 0 0 0 1.38.91 1.59 1.59 0 0 0 .59-.12 1.5 1.5 0 0 0 .78-2 9.86 9.86 0 0 1-.57-2.78 8.53 8.53 0 0 0-1.82-5.13A10.25 10.25 0 0 0 279 192c-1.32-.82-1.78-1.17-1.78-2.34a8.87 8.87 0 0 1 .25-1.76 12 12 0 0 0 .31-2.45c0-2.76-1.38-6.36-8-7.83a1.5 1.5 0 1 0-.65 2.93Zm26.1 35.21a12.34 12.34 0 0 1 4.07 3.82 1.48 1.48 0 0 0 1.27.71 1.57 1.57 0 0 0 .8-.23 1.5 1.5 0 0 0 .47-2.07 15.28 15.28 0 0 0-4.94-4.72c-2.13-1.43-3.41-2.29-3.41-5.57a1.5 1.5 0 0 0-3 0c0 4.88 2.41 6.5 4.74 8.06ZM248 188.09c6 0 6 1.83 6 2.43 0 6.49 5.85 9.4 10.11 11.53l.38.19a1.59 1.59 0 0 0 .67.15 1.5 1.5 0 0 0 .67-2.84l-.38-.19c-4.15-2.07-8.45-4.21-8.45-8.84s-4.9-5.43-9-5.43a1.5 1.5 0 0 0 0 3Zm33.3 33.75c-1.14-2.23-2.32-4.53-5-6.26a1 1 0 0 1-.57-1 7.55 7.55 0 0 1 .71-2.44l.13-.33a1.5 1.5 0 0 0-2.79-1.11l-.12.31a9.64 9.64 0 0 0-.93 3.57 4 4 0 0 0 1.94 3.51c2 1.29 2.9 3.06 3.95 5.11a20.73 20.73 0 0 0 2.85 4.5 1.51 1.51 0 0 0 1.12.5 1.47 1.47 0 0 0 1-.38 1.49 1.49 0 0 0 .12-2.12 17.87 17.87 0 0 1-2.41-3.86Zm-35.43-10.76a6.88 6.88 0 0 1 1.43.89 20.81 20.81 0 0 1 2.4 3.08 15 15 0 0 0 4.3 4.64 1.46 1.46 0 0 0 .8.23 1.5 1.5 0 0 0 .79-2.77 12.41 12.41 0 0 1-3.42-3.8 23.41 23.41 0 0 0-2.75-3.5 8.63 8.63 0 0 0-2.16-1.43c-1.77-.92-2.77-1.54-2.77-3.51a3.59 3.59 0 0 1 .25-1.31 1.5 1.5 0 0 0-2.78-1.12 6.49 6.49 0 0 0-.47 2.43c0 3.89 2.63 5.26 4.38 6.17Zm17.84 19.32a1.5 1.5 0 0 0-2.8 1.08 19.38 19.38 0 0 0 3.69 5.57c1.71 2 3.2 3.77 3.37 6.16a1.49 1.49 0 0 0 1.49 1.39h.11A1.5 1.5 0 0 0 271 243c-.24-3.36-2.19-5.66-4.07-7.88a16.87 16.87 0 0 1-3.22-4.72Zm-11.32 11.47c-2-1.51-4.23-3.23-8-10.89a8.75 8.75 0 0 0-4.73-3.91c-1.61-.73-1.91-1-1.91-1.5a1.5 1.5 0 0 0-3 0c0 2.57 2 3.49 3.68 4.23 1.34.61 2.6 1.18 3.27 2.53 4.14 8.27 6.68 10.22 8.92 11.93 1.63 1.24 3 2.32 5 6.31a1.5 1.5 0 0 0 1.34.83 1.44 1.44 0 0 0 .67-.16 1.5 1.5 0 0 0 .67-2c-2.3-4.62-4.06-5.96-5.91-7.37Z"/><path fill="#e0dfe6" d="M179.28 236.71a5.46 5.46 0 0 0-7.36 1.93c-.19.34-.43.65-.63 1l-.07.12c-.39.35-.38.37-.07.13l-.83.64-.12.1-.27.12c-.11.05-1.06.55-.64.35s-1.16.6-1.39.78a3.37 3.37 0 0 0-1.38 3.43c.63 3 4.12 4.06 6.82 3.9a9.49 9.49 0 0 0 7.87-5.12c1.21-2.56.79-5.95-1.93-7.38Z"/><path fill="#525d7d" d="M174.39 234.7a6.08 6.08 0 0 1-1.17-.36 1.46 1.46 0 0 0-1.14-.08 5.77 5.77 0 0 0-4 5.34 5.17 5.17 0 0 0 4.81 5.23 5.71 5.71 0 0 0 5.76-5.49 4.86 4.86 0 0 0-.73-2.56 5.19 5.19 0 0 0-3.53-2.08Zm-1.53 7.13a2.19 2.19 0 0 1-1.81-2.23 2.69 2.69 0 0 1 1.51-2.3 10.57 10.57 0 0 0 1.1.31c.71.18 1.45.37 1.66.72a1.94 1.94 0 0 1 .3 1 2.73 2.73 0 0 1-2.76 2.5Z"/><path fill="#e0dfe6" d="M308.4 2.39C307-1.7 301.1-.13 301.24 4c.08 2.29 1.16 4 2.13 6a5.51 5.51 0 0 1 .75 2.24c0 .18-.13.93-.24.78-1.18-1.44-3.9-.82-3.63 1.3.59 4.69 6.56 5.36 9.21 1.92 3.34-4.31.44-9.44-1.06-13.85Z"/><path fill="#525d7d" d="M294.35 9a2 2 0 0 0-.07 1.69 1.56 1.56 0 0 0 .25.4c.48.55.94 1 1.4 1.49l.06.06.45-.32a1.5 1.5 0 0 1 2 2.2 5.69 5.69 0 0 0 7.49-.9c3.42-3.52 2.73-9.34.61-11.41-1.54-1.5-6.74-3.5-10.54.4A6.33 6.33 0 0 0 294.35 9Zm10.08-4.64a1.94 1.94 0 0 1 .36.55 6.27 6.27 0 0 1-1 6.61c-.68.69-2.25 2.31-5.74-1.09-.24-.23-.48-.48-.72-.74a2 2 0 0 0 0-1.34 3.38 3.38 0 0 1 .85-3.64c2.57-2.71 5.87-.71 6.25-.36ZM284.5 34.75a28.25 28.25 0 0 0-.41 3.76 1.5 1.5 0 1 1-3-.11 29.51 29.51 0 0 1 .45-4.18 1.5 1.5 0 1 1 2.95.53Zm.09-8.1a1.48 1.48 0 0 1 0-1.33 33.4 33.4 0 0 1 2.15-3.59 1.5 1.5 0 0 1 2.47 1.7 31.07 31.07 0 0 0-2 3.27 1.5 1.5 0 0 1-2.69-.05Z"/><path fill="#525d7d" d="M298.52 12.75a1.5 1.5 0 0 1-.1 1.76 1.53 1.53 0 0 1-.35.32 30.55 30.55 0 0 0-3.07 2.26 1.51 1.51 0 0 1-2.12-.18 1.38 1.38 0 0 1-.2-.33 1.5 1.5 0 0 1 .39-1.79 35.9 35.9 0 0 1 2.93-2.16l.45-.32a1.51 1.51 0 0 1 2.07.44Zm66.18 139.66a24.1 24.1 0 0 0-3.93 1.66 1.51 1.51 0 0 0 .71 2.83 1.53 1.53 0 0 0 .71-.18 20.05 20.05 0 0 1 3.42-1.45 1.5 1.5 0 1 0-.91-2.86Zm-11.3 7.67a29.1 29.1 0 0 0-2.49 3.4 1.5 1.5 0 0 0 .48 2.07 1.52 1.52 0 0 0 .79.22 1.49 1.49 0 0 0 1.27-.7 27.44 27.44 0 0 1 2.23-3 1.5 1.5 0 1 0-2.28-1.94Zm-6.4 17.5a1.49 1.49 0 0 0 .87.39h.14a1.51 1.51 0 0 0 1.49-1.36c0-.39.09-.77.15-1.16a25 25 0 0 1 .47-2.56 1.5 1.5 0 0 0-2.92-.71c-.18.76-.33 1.53-.45 2.3s-.18 1.24-.24 1.86a1.49 1.49 0 0 0 .49 1.24Z"/><path fill="#ffcc80" d="M359.45 184.65a2.21 2.21 0 0 1 1.24-.64h.27a2.25 2.25 0 0 1 2.32 1.35l.16.3a2.27 2.27 0 0 1-.66 2.59 10.07 10.07 0 0 1 1.48 1.39c1.64 1.9.68 4.7-1.28 5.85a6.54 6.54 0 0 1 2.82 3.29 4.38 4.38 0 0 1-.33 4.21 3.66 3.66 0 0 1-3.19 3.88 66.62 66.62 0 0 1-10.93.81 58.73 58.73 0 0 1-9.05 1.58 3.81 3.81 0 0 1-4.32-3.73c-2.72-1.48-3.5-4.35-5.91-6.09-2.87-2.08-.87-5.9 1.9-6.16a4.39 4.39 0 0 1 3.41-5.23c3.82-.77 7.66-1.38 11.5-2 1.91-.33 3.82-.73 5.75-1 1.37-.28 3.31-.14 4.82-.4Z"/><path fill="#525d7d" d="M363.8 179.49c-9.36 1.36-18.77 3.09-28.77 5.28a1.5 1.5 0 0 0-1 .77c-1.19 2.27-2.52 4.51-3.8 6.68s-2.48 4.2-3.65 6.38a1.52 1.52 0 0 0 .3 1.8c3.78 3.56 7.22 7.39 11 11.67a1.51 1.51 0 0 0 1.4.49c2-.38 4.35-.93 7-1.56 5.17-1.22 12.25-2.9 22.63-4.56a1.48 1.48 0 0 0 .68-.29 1.56 1.56 0 0 0 .33-.35 1.54 1.54 0 0 0 .22-1.18c-2.15-9.3-3.64-16.89-4.68-23.87a1.49 1.49 0 0 0-1.66-1.26Zm-1 3.18c1 6.26 2.31 13 4.14 21.06-9.64 1.59-16.32 3.18-21.28 4.35-2.27.54-4.27 1-6.05 1.37-3.34-3.77-6.44-7.21-9.8-10.44 1-1.78 2-3.54 3-5.26 1.19-2 2.42-4.08 3.55-6.19 9.14-2 17.8-3.56 26.4-4.89Z"/><path fill="#525d7d" d="M357.53 193.58a103.41 103.41 0 0 0-10.81 2.18c-1.8.43-3.65.88-5.5 1.27a1.5 1.5 0 0 1-.62-2.94c1.81-.38 3.64-.82 5.42-1.24a105.38 105.38 0 0 1 11.13-2.25 1.5 1.5 0 0 1 1.11 2.68 1.53 1.53 0 0 1-.73.3Zm-.04 2.02a1.5 1.5 0 0 1 1.27 2.64 1.57 1.57 0 0 1-.55.27c-1.21.29-2.41.6-3.6.9-4.07 1-8.27 2.1-12.55 2.79a1.5 1.5 0 0 1-.48-3c4.15-.67 8.1-1.67 12.29-2.74 1.2-.26 2.41-.57 3.62-.86Z"/><path fill="#ffcc80" d="M278 47.32a2.12 2.12 0 0 0-1-1l-.25-.12a2.27 2.27 0 0 0-2.62.62l-.23.24a2.25 2.25 0 0 0-.12 2.67 9.6 9.6 0 0 0-1.82.9c-2.13 1.34-2 4.3-.47 6a6.5 6.5 0 0 0-3.61 2.37 4.34 4.34 0 0 0-.91 4.12 3.66 3.66 0 0 0 1.92 4.64 69.34 69.34 0 0 0 10.23 4 58.83 58.83 0 0 0 8.2 4.13 3.81 3.81 0 0 0 5.22-2.32c3-.62 4.61-3.14 7.42-4.1 3.36-1.16 2.55-5.4 0-6.45a4.38 4.38 0 0 0-1.74-6c-3.43-1.85-6.93-3.55-10.41-5.3-1.73-.88-3.45-1.81-5.21-2.63-1.33-.67-3.18-1.09-4.6-1.77Z"/><path fill="#525d7d" d="M273.39 41.83c-3 6.38-6.65 13.2-11.41 21.48a1.46 1.46 0 0 0-.13 1.19 1.32 1.32 0 0 0 .21.43 1.44 1.44 0 0 0 .56.48c9.46 4.6 15.75 8.27 20.34 10.94 2.38 1.38 4.43 2.58 6.28 3.53a1.49 1.49 0 0 0 1.47-.06c4.87-3 9.28-5.66 13.93-8a1.5 1.5 0 0 0 .8-1.63c-.48-2.43-1.06-4.84-1.63-7.17s-1.22-5-1.7-7.49a1.48 1.48 0 0 0-.74-1c-8.92-5-17.42-9.39-26-13.41a1.51 1.51 0 0 0-1.98.71Zm25.91 15c.47 2.35 1 4.69 1.59 6.95.48 1.94 1 3.93 1.38 5.92-4.15 2.12-8.11 4.5-12.41 7.14-1.59-.85-3.37-1.89-5.39-3.06-4.4-2.56-10.33-6-19.09-10.34 4.08-7.16 7.32-13.25 10.07-19a414.4 414.4 0 0 1 23.85 12.37Z"/><path fill="#525d7d" d="M277.29 56.42a105.28 105.28 0 0 1 9.71 5.23c1.6.94 3.24 1.9 4.9 2.81a1.5 1.5 0 0 0 1.44-2.63c-1.62-.89-3.25-1.84-4.82-2.77a109.68 109.68 0 0 0-10-5.38 1.51 1.51 0 0 0-2 .76 1.52 1.52 0 0 0 .15 1.49 1.49 1.49 0 0 0 .62.49Zm-.55 1.94a1.5 1.5 0 0 0-2 2.17 1.61 1.61 0 0 0 .45.41l3.18 1.91c3.59 2.17 7.31 4.41 11.2 6.31a1.5 1.5 0 1 0 1.32-2.69c-3.78-1.84-7.27-3.95-11-6.19Z"/><path fill="#ffcc80" d="m114 59.63-.78-.7a3.39 3.39 0 0 0-2.07-4.51 11.87 11.87 0 0 0-5.89-.05 10.56 10.56 0 0 0-1.8-.17c-4.74-.06-9.89 2.63-14.52 3.66-4.21.93-4.07 6.18-1.17 7.86.08 1 .16 1.9.18 2.86a3.36 3.36 0 0 0 5.45 2.72c2.47-1.68 6.16-2.07 9-2.84 3.08-.82 6.18-1.53 9.3-2.19 2.75-.58 4.62-4.5 2.3-6.64Z"/><path fill="#e0dfe6" d="M111.09 68.19A77.84 77.84 0 0 0 88.94 75c-.85.4-.33 1.53.5 1.46a94.54 94.54 0 0 0 22.87-4.71c2.14-.75.79-3.83-1.22-3.56Z"/><path fill="#525d7d" d="M117.31 56.75a98.44 98.44 0 0 1-10.53-7 1.5 1.5 0 0 0-1.26-.28c-5.14 1.17-10.53 1.88-15.75 2.58-2.06.27-4.11.55-6.17.85a1.49 1.49 0 0 0-1 .59 1.53 1.53 0 0 0-.27 1.12c.6 3.91 1.57 7.79 2.51 11.55.62 2.49 1.26 5.07 1.78 7.6a1.49 1.49 0 0 0 .66 1A1.53 1.53 0 0 0 88 75a1.41 1.41 0 0 0 .46 0c3.56-.86 7.16-1.67 10.65-2.46 4.42-1 9-2 13.46-3.16a1.49 1.49 0 0 0 1-.89c1.23-3.07 2.64-6.13 4-9.09l.31-.67a1.49 1.49 0 0 0-.57-1.98Zm-6.23 9.85c-4.19 1.06-8.48 2-12.64 3-3 .67-6.11 1.37-9.2 2.11-.46-2.09-1-4.18-1.48-6.21-.8-3.2-1.62-6.5-2.21-9.78l4.61-.63c5.06-.67 10.27-1.36 15.33-2.47a98.34 98.34 0 0 0 9.12 6.05c-1.19 2.56-2.42 5.23-3.53 7.93Z"/><path fill="#ffcc80" d="M88.93 150.08c.06-2.36-2-5.6-3.45-7.27a3.46 3.46 0 0 0-3.37-.89c-2.38.53-4.58 2.18-6.88 3a47.5 47.5 0 0 1-8 2c-2.52.44-3.07 2.87-2.29 4.78a2.82 2.82 0 0 0 .9 3.68c2.34 1.55 5.61 3 8.46 2.73 3.41-.36 7.07-2.38 10.23-3.65 2.04-.83 4.33-1.73 4.4-4.38Z"/><path fill="#e0dfe6" d="M71.81 165.45c2 .35 4.32-.8 6.14-1.37a46.47 46.47 0 0 0 6.63-2.32c2.33-1.12.56-4.25-1.64-3.88-3.19.53-6.14 2-9.27 2.8-2.84.7-5.42-1.1-7.93-2.3-.4-.2-1 .13-.83.63 1.09 2.88 3.73 5.88 6.9 6.44Z"/><path fill="#525d7d" d="M67.72 141.87a1.49 1.49 0 0 0-.85.65c-2.11 3.41-4 6.69-6.24 10.62a1.5 1.5 0 0 0 .45 2c3.13 2.16 6.43 4.3 10.09 6.53a1.56 1.56 0 0 0 .78.22 1.37 1.37 0 0 0 .49-.09l4.68-1.6c4.29-1.46 8.71-3 13-4.69a1.5 1.5 0 0 0 .86-1.88c-1.7-4.94-4.06-12.08-5.13-16a1.49 1.49 0 0 0-.76-.94 1.48 1.48 0 0 0-1.2-.07c-5.3 1.95-10.53 3.53-16.08 5.21ZM83.44 140c1.09 3.7 2.84 9 4.28 13.25-3.84 1.48-7.76 2.82-11.56 4.11l-4 1.38c-2.94-1.8-5.64-3.54-8.21-5.29 1.83-3.21 3.45-6 5.21-8.85 4.84-1.51 9.56-2.93 14.28-4.6Z"/><path fill="#e0dfe6" d="M308.09 112.71c-.26-2.63-2.06-5-5-5-7.45.15-7.64 8.38-9.42 13.83a36.76 36.76 0 0 1-2 4.93c-.64 1.3-2.25 3-2.56 4.41a5.3 5.3 0 0 0-.53.51c-2.93-1.05-4.91 2.44-4.68 5 .42 4.76 5.41 6.52 9.39 4.76 5-2.21 8.28-8.8 10.4-13.52a47.33 47.33 0 0 0 2.69-7.86c.62-2.27 1.95-4.68 1.71-7.06Z"/><path fill="none" stroke="#525d7d" stroke-linecap="round" stroke-linejoin="round" stroke-width="3" d="M289.15 102.84c-1.4 9.24-6.45 17.72-6.45 27 0 3.53.32 6.56 5 6.56 8 0 15.89-21.53 15.89-25.69a2.94 2.94 0 0 0-3.2-3.28c-5.1 0-8.78 9.13-10 14.1"/><path fill="#525d7d" d="M53 84.3a1.48 1.48 0 0 0 1-.43c1-.87 2-1.78 3-2.62a1.48 1.48 0 0 0 .18-2.11A1.5 1.5 0 0 0 55 79c-1.05.89-2.07 1.82-3 2.77a1.5 1.5 0 0 0 1 2.57Zm10.31-7.92a1.57 1.57 0 0 0 .77-.21c1.11-.67 2.26-1.3 3.4-1.87a1.5 1.5 0 1 0-1.34-2.68c-1.21.6-2.42 1.27-3.6 2a1.5 1.5 0 0 0 .77 2.79ZM44.17 94.22a1.46 1.46 0 0 0 .77.22 1.5 1.5 0 0 0 1.29-.73c.66-1.09 1.38-2.18 2.14-3.23a1.5 1.5 0 0 0-2.44-1.76 53.69 53.69 0 0 0-2.27 3.44 1.5 1.5 0 0 0 .51 2.06Zm31.01-23.05a1.4 1.4 0 0 0 .41-.06c.81-.23 1.63-.44 2.43-.62a1.5 1.5 0 1 0-.66-2.92c-.86.19-1.73.41-2.59.66a1.5 1.5 0 0 0 .41 2.94Zm-35.52 35.19a1.32 1.32 0 0 0 .34 0 1.5 1.5 0 0 0 1.46-1.16c.29-1.23.65-2.47 1.07-3.69a1.5 1.5 0 1 0-2.83-1 37.79 37.79 0 0 0-1.16 4 1.5 1.5 0 0 0 1.12 1.85Zm-.38 12.01a1.33 1.33 0 0 0 1.41-1.07 5.07 5.07 0 0 0 .14-1.36 1.52 1.52 0 0 0-.21-.76c0-.43 0-.92-.06-1.4a1.5 1.5 0 1 0-3 .08 18.37 18.37 0 0 0 .25 3.26c.19.88.6 1.25 1.47 1.25Z"/><path fill="#e0dfe6" d="M36.43 241.47c-2.64.47-4.84 2.71-7.12 4-1.72 1-3.55 1.75-5.33 2.58a9 9 0 0 0-.77-2.22L22 243a1.42 1.42 0 0 0-1.8-.59 1.47 1.47 0 0 0-.83 1.7l.48 3a5 5 0 0 0 1.09 3 1.51 1.51 0 0 0 .28.22 1.37 1.37 0 0 0 1.31 1.36c3.05.1 6.3-.87 9.18-1.79s6-1.81 7.84-4.38c1.52-2.16-1.02-4.42-3.12-4.05Zm16.29-10.85c-2.1-.17-3.72 1.42-5.44 2.44s-3.43 1.91-5.2 2.75-.42 3.28 1.27 3a62.69 62.69 0 0 0 6.22-1.22c2.16-.54 4.24-.89 5.52-2.87s-.42-3.95-2.37-4.1Z"/><path fill="#525d7d" d="M26.87 230.29a1.5 1.5 0 0 1 .86 1.94c-.17.42-.32.84-.46 1.26a7.59 7.59 0 0 0 1.62.17 10.07 10.07 0 0 0 4.74-1.26c-.25-.41-.48-.82-.75-1.21a1.5 1.5 0 0 1 2.47-1.7c.25.36.48.73.71 1.1a8.37 8.37 0 0 0 2.53-5.92c0-4.43-3.29-7.52-8-7.52a8.93 8.93 0 0 0-1.55.13c-4.32.76-7.83 4.59-7.83 8.53a8.68 8.68 0 0 0 3.31 6.44c.13-.36.26-.73.4-1.1a1.51 1.51 0 0 1 1.95-.86Zm2.7-10a5.89 5.89 0 0 1 1-.09c2.3 0 5 1.18 5 4.52 0 3.71-3.9 6-6.7 6-3.55 0-4.67-3.78-4.67-4.85.02-2.53 2.52-5.13 5.37-5.63Z"/><path fill="#525d7d" d="M36.06 230.59c-.23-.37-.46-.74-.71-1.1a1.5 1.5 0 0 0-2.47 1.7c.27.39.5.8.75 1.21a24.91 24.91 0 0 1 2.81 7 97.35 97.35 0 0 0-10.82 4.32v-.6a29.06 29.06 0 0 1 1.67-9.62c.14-.42.29-.84.46-1.26a1.5 1.5 0 1 0-2.8-1.08c-.14.37-.27.74-.4 1.1a32.06 32.06 0 0 0-1.93 10.88 27.75 27.75 0 0 0 .2 3.06 1.51 1.51 0 0 0 1.49 1.31 1.52 1.52 0 0 0 .66-.15 95.28 95.28 0 0 1 13.69-5.51 1.51 1.51 0 0 0 1-1.72 28.17 28.17 0 0 0-3.6-9.54Zm9.81-6.51a1.5 1.5 0 0 1 .64 2 8.94 8.94 0 0 0-.47 1.09 3.12 3.12 0 0 0 .54 0 5.35 5.35 0 0 0 3.07-1c-.3-.3-.61-.6-.94-.89a1.5 1.5 0 1 1 1.95-2.28c.36.3.69.61 1 .93a5.66 5.66 0 0 0 .85-2.84 4.29 4.29 0 0 0-2.18-3.49 6.72 6.72 0 0 0-3.57-1.12 5.17 5.17 0 0 0-2.25.53 7.88 7.88 0 0 0-1.87 1.55 4.44 4.44 0 0 0-1.3 3.21 5.67 5.67 0 0 0 1.48 3.67 5.55 5.55 0 0 0 .49.48c.17-.42.33-.85.53-1.24a1.49 1.49 0 0 1 2.03-.6Zm-1.08-3.39a5.84 5.84 0 0 1 1.1-1 1.9 1.9 0 0 1 .9-.21 4 4 0 0 1 1.91.63c.5.33.82.72.82 1a3.44 3.44 0 0 1-.9 1.95 2.89 2.89 0 0 1-2 1.13 2 2 0 0 1-1.53-.76 2.72 2.72 0 0 1-.71-1.69 1.49 1.49 0 0 1 .41-1.05Z"/><path fill="#525d7d" d="M51.67 224c-.32-.32-.65-.63-1-.93a1.5 1.5 0 1 0-1.95 2.27c.33.29.64.59.94.89a13.84 13.84 0 0 1 2.55 3.42 51.63 51.63 0 0 0-7.06 2.51 15.31 15.31 0 0 1 .9-4.93 8.94 8.94 0 0 1 .47-1.09 1.5 1.5 0 0 0-2.66-1.39c-.2.39-.36.82-.53 1.24a18.67 18.67 0 0 0-1.2 6.91c0 .58 0 1.16.06 1.73a1.51 1.51 0 0 0 .76 1.22 1.49 1.49 0 0 0 1.44 0 48.52 48.52 0 0 1 10.24-3.76 1.51 1.51 0 0 0 1-1.92 15.44 15.44 0 0 0-3.96-6.17Zm22.63-55.47c-.36 1.31-.67 2.66-.93 4a1.49 1.49 0 0 0 1.19 1.76 1.54 1.54 0 0 0 .8-.06 1.51 1.51 0 0 0 1-1.13c.25-1.26.54-2.53.88-3.77a1.5 1.5 0 1 0-2.89-.79Zm.52 24.61a1.5 1.5 0 0 0-1.2 1.75c.25 1.3.54 2.64.87 4A1.51 1.51 0 0 0 76.3 200l.17-.05a1.5 1.5 0 0 0 .93-1.77c-.31-1.28-.59-2.57-.83-3.82a1.49 1.49 0 0 0-1.75-1.22Zm-.31-6.02a1.49 1.49 0 0 0 1-1.49c-.07-1.31-.09-2.61-.07-3.88a1.5 1.5 0 0 0-3-.05c0 1.34 0 2.71.08 4.09a1.5 1.5 0 0 0 2 1.33Zm5.9 25.15a1.52 1.52 0 0 0 .87-2c-.2-.51-.4-1-.59-1.56a2.33 2.33 0 0 1-.11-.28c-.23-.62-.45-1.23-.66-1.84a1.5 1.5 0 0 0-1.91-.93 1.47 1.47 0 0 0-.92 1.91c.21.63.44 1.26.67 1.9l.26.66c.15.41.31.83.48 1.25a1.5 1.5 0 0 0 1.91.89Z"/><path fill="#e0dfe6" d="M374.1 239.84c2.19-1.77-.69-5.53-3-3.92-1.49 1-3.68 2.92-5.63 2.77-2.33-.18-4-2.4-4.58-4.44-.37-1.21-2.35-1-2.28.31a9 9 0 0 0 5.05 8c3.82 1.72 7.47-.33 10.44-2.72Z"/><path fill="#525d7d" d="M367.7 233.63c-.07-1.42-.12-2.84-.12-4.29a1 1 0 1 0-2 0c0 1.43.05 2.81.11 4.2h.22Zm-1.91 1.91c0 .52 0 1 .08 1.57q.08 1.32.15 2.67a1 1 0 0 0 1 .95h.05a1 1 0 0 0 .95-1c0-.9-.1-1.8-.15-2.68 0-.47-.05-.91-.07-1.37q-1.01-.08-2.01-.14Z"/><path fill="#525d7d" d="M372.09 233.47a20.6 20.6 0 0 1-3 .19h-1.42l-1.79-.08h-.22a43.88 43.88 0 0 0-4.46-.08 1 1 0 0 0 .1 2c1.5-.07 3 0 4.46.08q1 .06 2 .09h1.32a23.3 23.3 0 0 0 3.26-.21 1 1 0 0 0 .85-1.13 1 1 0 0 0-1.1-.86Z"/><path fill="#525d7d" d="M366.9 222.69a22.08 22.08 0 0 0-2.49.19c-5.78.77-8.8 6.44-8.8 11.63a10.9 10.9 0 0 0 10.83 11.19 11.59 11.59 0 0 0 11.77-11.93 11 11 0 0 0-11.31-11.08Zm-.46 20a7.93 7.93 0 0 1-7.83-8.19c0-3.79 2.17-8.12 6.19-8.65a18 18 0 0 1 2.1-.17c4 0 8.31 2.83 8.31 8.08a8.67 8.67 0 0 1-8.77 8.94Z"/></svg>