<svg xmlns="http://www.w3.org/2000/svg" viewBox="0 0 388.97 279.85"><path d="M184.31,68.94c-2.41,3.79,1.56,7.74,5.6,7a1,1,0,0,0,.47.36,1.08,1.08,0,0,0,1.35-.68l.13-.42A4.73,4.73,0,0,0,193.09,74l1.44.14a31.14,31.14,0,0,1,7.23,2,27.41,27.41,0,0,0,3.37.78,5.72,5.72,0,0,0,.11,2.4c.86,3,4.07,3.89,6.83,3.91,3,0,4.61-3.92,1.94-5.73.07,0,5.68-3.56,6.46-4.17a18.45,18.45,0,0,0,3.92-4.22,20.5,20.5,0,0,1,2.45,1.43c2.06,1.41,4.3.19,5.26-1.79L233.92,65a3.42,3.42,0,0,0-2.16-4.31L228.11,60a79.31,79.31,0,0,0-1.84-10.05A10.29,10.29,0,0,0,230,47.29a3.48,3.48,0,0,0,.36-4.76c-2.68-3.33-6.15-9.18-10.65-4.62a8.51,8.51,0,0,0-1.17,1.35A25.18,25.18,0,0,0,215.41,38a28.13,28.13,0,0,0-4.21-1,9.81,9.81,0,0,0-.18-3.43c-.4-1.74-2.25-3.3-4.13-2.77-1.59.45-3.2,1.05-4.8,1.46s-3.06,2-2.53,3.78c.2.66,1.6,3,1.53,3.45.12-.75-3.39,1.31-3.7,1.54a15.11,15.11,0,0,0-3.59,3.72l-.15.24-1.93-1.51A3,3,0,0,0,187.2,45a4,4,0,0,1-2.3,3c-1.34.92-1.3,3.14-.32,4.26a11.38,11.38,0,0,0,3.65,2.9,18.48,18.48,0,0,0,.84,9.68,2.79,2.79,0,0,0-1.75,1.67,5.54,5.54,0,0,0-.1,3.63,1.64,1.64,0,0,1-.71-1A1.29,1.29,0,0,0,184.31,68.94ZM197,66.42a12.43,12.43,0,0,1-2.25-12.35,2.77,2.77,0,0,0-.12-2.17l.31,0c3-.5,3.83-4.47,6.1-6,1.43-1,3.14-1.37,4.47-2.27a28.21,28.21,0,0,1,7.63,1.21c1.73.54,3.62,1.78,5.47,2,0,.08,0,.16.06.25a54.24,54.24,0,0,1,3.1,14.31,3.74,3.74,0,0,0-2.25,2.22,13.16,13.16,0,0,1-6.16,7.17c-.9.52-1.83,1-2.67,1.58a7.37,7.37,0,0,0-2.49-1.14c-2.65-.76-5.34-1.5-8-2.25-.27-.08-1.28-.25-2.48-.42A3,3,0,0,0,197,66.42Z" fill="#ffcc80"/><path d="M191.23,198.81a18.22,18.22,0,0,0,9.57-.93,4.57,4.57,0,0,0,1.85-1.26,3.78,3.78,0,0,0,3.34.62c3.24-.83,7.76-2,9.15-5.47s-.7-9.43-1.59-12.93c-1.27-5-8.19-2.75-7.54,2.07.27,2,1.08,4.17,1.09,6.15a.88.88,0,0,0,.78,1.17l-.66.28c-4.38-3.32-13.69-4.87-16.8-5.79a3.78,3.78,0,0,0-2.55.07c-.77-.85-1.57-1.09-2.32-.27-2.86,3.15-.07,9.66.42,13.44A3.5,3.5,0,0,0,191.23,198.81Z" fill="#ffcc80"/><path d="M231.56,110.85a1.88,1.88,0,0,0-.41,0l-.27,0h-.28a2.42,2.42,0,0,0-2.28,1.35,2.16,2.16,0,0,0-.21.65.94.94,0,0,0,0,.5,2,2,0,0,0,.56,1.46l.15.12c-.42.12-.84.24-1.27.32a39.21,39.21,0,0,1-5.09.36c-.47,0-.47.66-.18.89,3.07,2.43,7.76,2,11.3.73a1.81,1.81,0,0,0,1.91.22c3.91-1.68,7.28-4.76,8.11-9.12a6.64,6.64,0,0,0-.39-4.06,3.3,3.3,0,0,0,.85-2.34c.22-3.93-3.49-7.47-5.67-10.25-.29-.37-1-.06-.86.42.82,2.52.63,5.29,1.48,7.73a8.79,8.79,0,0,0,.33,1.24l-1.31.17c-2.09.58-2.78,3.94-.29,4.59,2,.53-.54,4.87-.95,5.38a15.13,15.13,0,0,1-2.09,2.14,9.2,9.2,0,0,0-1-.6,2.17,2.17,0,0,0-.07-.24A2.37,2.37,0,0,0,231.56,110.85Z" fill="#e0dfe6"/><path d="M268.07,81.17c1.45-3,.72-5.72-.69-8.35a1.63,1.63,0,0,0,0-.49c-.39-2.3-2.81-4-4.75-5.09a1.16,1.16,0,0,0-1.13.05,1.38,1.38,0,0,0-.58.48c-.1.16-.5.78-.17.33s-.11.15-.29.43a1.35,1.35,0,0,0-1.2.79,1.51,1.51,0,0,0,.49,1.88,2.74,2.74,0,0,0,3.4-.14,1.57,1.57,0,0,1,.12.21,1.56,1.56,0,0,0-.16,1.37c.87,3.08.85,4.8-.85,7.41a5.84,5.84,0,0,0-1.32,3.16c-.18,1.33.42,1-.21,2.89s-1.82,2.7-3.75,3.38a9,9,0,0,1-2.41.48,2,2,0,0,0-.66-1.11,3.18,3.18,0,0,0-2.23-.53c-.49,0-.89.72-.35,1a1.08,1.08,0,0,1,.18.11,2.2,2.2,0,0,0-.26.45,14.43,14.43,0,0,0-3.4.15A.88.88,0,0,0,248,91.8c4.33.4,7.32,3,11.82,1.61,3-.94,6.55-3.44,7-6.78a7,7,0,0,0-.05-1.71c-.12-1.15-.09-1.76-.31-1.77A5.59,5.59,0,0,0,268.07,81.17Z" fill="#e0dfe6"/><path d="M237,49.46A4,4,0,0,0,238,48a2.68,2.68,0,0,0-.08-1.68c.42-2.44-2.26-5.55-4.43-6.39a.85.85,0,0,0-1,1.17c.44,1,1.1,1.88,1.47,2.92.17.49.28,1,.41,1.5a3.79,3.79,0,0,0,.27.74l0,0a8.83,8.83,0,0,0-.39,1c-.11.21-.21.31-.6.39a1.64,1.64,0,0,0-.92.55,1.91,1.91,0,0,0-1.49,1.94c0,1.82-.22,4.22.47,5.93a1.93,1.93,0,0,0,.59.8,1,1,0,0,0,.54.86,26.66,26.66,0,0,0,4.2,2.12,40.64,40.64,0,0,1-.7,7.29,32.15,32.15,0,0,1-3,7.38,3,3,0,0,0-3.87-1.59,3.74,3.74,0,0,0-1.71,1.2,4.22,4.22,0,0,0-3.07-.89c-2.28.48-4.17,2.71-5.89,4.09a2,2,0,0,0-.65,1.87c.6,2,1.58,2.91-.68,4.93-1.45,1.28-5.11,1.77-7,1.78a.53.53,0,0,0-.2,1c3.35,1.36,7.91,1.28,11-.91,2.49-1.8,1.94-3.95,1.17-6.27a3.38,3.38,0,0,1,3.1-.47c1.21.54,1.71,1.55,3.28,1.54a4.7,4.7,0,0,0,4.26-3.38,1,1,0,0,0,.91-.17c5.54-4.15,9.65-12.86,7.08-19.7a3.43,3.43,0,0,0-.65-2.67C239.26,53.14,238.26,51.12,237,49.46Z" fill="#e0dfe6"/><path d="M110.16,198.7c2.56,1.71,6.6-.51,6.35-3.64a9.26,9.26,0,0,0-2.1-5,18,18,0,0,0,8.58-7.71c3.54-6.51,2-13.76-.84-20.2,0,0,0,0-.05-.06,4.27-2.76,3.22-11-3.18-11-4.63,0-6.46,4.35-5.49,7.8-3.12,2.93-6.1,6-9.24,8.93a4.68,4.68,0,0,0-4.92-.47c-2.76,1.24-4.92,2.71-8.06,2.92A16,16,0,0,1,82,168.43a1.27,1.27,0,0,0-1.53,2c5.11,5.62,14.32,9.07,21.61,5.68a4.38,4.38,0,0,0,2.87,1,2.83,2.83,0,0,0,.6,4.45l-1.31,1.86c-1.44,2-.31,4.88,1.55,6.1C106.4,193.14,107,196.56,110.16,198.7Zm7.25-35.93a7.27,7.27,0,0,0,1.51.17,6.13,6.13,0,0,0,1.88-.28c-.18,1.16-.39,2.33-.63,3.49a3.34,3.34,0,0,0-3.36.95l-.5.47A18.74,18.74,0,0,0,117.41,162.77Z" fill="#e0dfe6"/><path d="M114.86,138.35a41,41,0,0,1,14.66-.32,49.44,49.44,0,0,0-7,1.48c-2-1.45-5.81.05-5.39,2.8,0,.22-.07.45-.1.67-.4,2.54,1.53,5.18,4.35,4.35a45.74,45.74,0,0,1,21.28-1.07c7.22,1.35,12.9,4.65,19,8.51,3.93,2.48,8.47-3.3,5-6.48a38.63,38.63,0,0,0-9.35-6.26,3.27,3.27,0,0,0-.71-.73c-6-4.62-15.35-7.85-22.78-9.13-6.57-1.14-14.42-.09-19.9,4A1.21,1.21,0,0,0,114.86,138.35Z" fill="#e0dfe6"/><path d="M119.7,217.37c.18.46.34.92.49,1.39a4.07,4.07,0,0,0,2.71,3.75c5.48,2.23,14.08-.12,19.4-2,4-1.42,4.07-7.26.32-8.42a7.46,7.46,0,0,0-3.29-1.51,67,67,0,0,0-20.14-.34c-.72.1-.52,1.08,0,1.28,1.09.42,2.2.77,3.31,1.08h-.06a3.89,3.89,0,0,0-1.28.34,1.71,1.71,0,0,0-1.76,2l0,.1A3.59,3.59,0,0,0,119.7,217.37Z" fill="#e0dfe6"/><path d="M130.07,231.45c-4.71-4.39-9.69-8.61-13.6-13.72a1.06,1.06,0,0,0-1.82,1.07c3,6.55,5.52,13,9.77,18.91a75.48,75.48,0,0,0,14.77,14.78c10.54,8.33,22.76,14.57,36,17.25,16.24,3.28,33.56,2.06,50,.81,8.25-.63,16.7-1.06,24.92-2.05,5.94-.72,12.09-2.59,14.65-8.52,6.68-3.64,11.89-9.9,11.53-17.72a2.38,2.38,0,0,0,1.61.35c14.78-2,17.81-20.83,12.66-32.11-.49-1.08-2.22-.52-2.18.59.18,5.64-1.61,10.27-4.41,15.07-2.5,4.29-6.18,7.5-8.86,11.58a2.61,2.61,0,0,0-.26.53A3.28,3.28,0,0,0,271,238c-2.54,1.87-4,4.26-6,6.69a18.53,18.53,0,0,1-8.54,5.68c-5.57,1.94-16,2.08-18.81-4.37-.73-1.64-3.55-.83-3.41.93a20.34,20.34,0,0,0,2.42,8.26c-3.24.38-5.65,2.48-8.84,3.54-4.5,1.51-9.41-1.77-13.54-3.2-.64-.22-1,.53-.8,1a16.14,16.14,0,0,0,2.91,4.23c-13.52.84-27.59,1.76-40.82-1.28a81.91,81.91,0,0,1-32-15.74C138.83,240,134.53,235.61,130.07,231.45Z" fill="#e0dfe6"/><path d="M257.63,196.06c-1.34-.48-2.48,1-2.19,2.19,1.05,4.35,5.45,6.44,9.05,8.29a17.28,17.28,0,0,1,5.61,4c1.93,2.32,2.69,4.09,6.12,4.25a4.14,4.14,0,0,0,3.61-2.07l.28-.49a5.11,5.11,0,0,0,0-5.18,19.29,19.29,0,0,0-10.62-8.33C265.53,197.55,261.5,197.45,257.63,196.06Z" fill="#e0dfe6"/><path d="M231.65,160.89c-.61,8.67,9.73,13.63,17.18,13.14a12.56,12.56,0,0,0,9.51-5.47c3-3.91,6.58-9.24,7.42-14.12.46-2.71-3-5.73-5.23-3-3.52,4.33-5.32,14-11.19,15.72-6.29,1.85-12-3.71-16.87-6.71A.55.55,0,0,0,231.65,160.89Z" fill="#e0dfe6"/><path d="M244.44,159.78c2.3.58,4.44-.46,6.15-1.93a11.68,11.68,0,0,0,3.91-9.62,3.92,3.92,0,0,0-4.93-3.75c-2.23-2.81-6.78-2.24-9.26.18a7.33,7.33,0,0,0-2.2,5.13,5.29,5.29,0,0,0-.5,1.45c-.52,2.68,1.12,5,3.42,6.17A6.58,6.58,0,0,0,244.44,159.78Z" fill="#525d7d"/><path d="M225.08,182.5a29.33,29.33,0,0,0-2.08-10c-1.13-3.08-2.76-5.4-2.43-8.73.69-6.9,1.38-13.7.13-20.57-.2-1.11-1.72-.89-2,0-2.57,7.24-5.14,14.47-7.77,21.66-1.25,3.43.24,5.05,1.62,8.19,1.53,3.46,2.06,7.12,3.2,10.7a4.65,4.65,0,0,0,2.93,3,16.66,16.66,0,0,0-.6,4.16,1.88,1.88,0,0,0,3.75,0c0-1.37-.06-2.7-.05-4A4.4,4.4,0,0,0,225.08,182.5Z" fill="#e0dfe6"/><path d="M220.88,64.7a14,14,0,0,0-4.17-19C211.15,42,203,42,197.2,50.64a27.23,27.23,0,0,0-1.8,3.15c-2.6,5.35-.51,12.3,4.75,15.83C206.67,74,216.16,71.74,220.88,64.7Zm-23.68-10a24,24,0,0,1,1.66-2.91c5.34-8,12.35-7.35,16.73-4.41,4.74,3.18,7.4,10.63,3.63,16.25-4.12,6.13-12.34,8.14-17.95,4.37C196.82,65,195,59.13,197.2,54.66Z" fill="#525d7d"/><path d="M179.91,67.24a27.66,27.66,0,0,0,10.78,14.7,1.53,1.53,0,0,0,1.21.22,1.48,1.48,0,0,0,1-.75c.72-1.33,1.45-2.69,2.25-4a21.79,21.79,0,0,0,9,3.16c-.14,1.52-.25,3-.35,4.49a1.5,1.5,0,0,0,.38,1.11,1.47,1.47,0,0,0,1.06.49,32.05,32.05,0,0,0,13.14-2.38,1.49,1.49,0,0,0,.86-1.84c-.17-.54-.33-1.09-.49-1.63-.26-.87-.52-1.76-.83-2.64A27.05,27.05,0,0,0,225.22,73c.78.6,1.56,1.23,2.31,1.84l1.17.94a1.5,1.5,0,0,0,2.05-.17,31,31,0,0,0,2.93-3.75A25.68,25.68,0,0,0,238,59.35a1.49,1.49,0,0,0-1.37-1.61l-1.52-.12c-1-.09-2.06-.17-3.09-.27a23.31,23.31,0,0,0-1.5-8.15c1.5-.85,2.94-1.73,4.21-2.52a1.51,1.51,0,0,0,.58-1.91,29.53,29.53,0,0,0-10.26-12.16c-.82-.55-1.68-1.07-2.54-1.53a1.49,1.49,0,0,0-1.15-.11,1.52,1.52,0,0,0-.89.74c-.73,1.41-1.52,2.83-2.3,4.22a22,22,0,0,0-4.85-1.52c.2-1.65.42-3.24.64-4.75A1.51,1.51,0,0,0,212.64,28a26,26,0,0,0-16.27,3.6,1.5,1.5,0,0,0-.53,2.05c.75,1.29,1.56,2.59,2.41,3.86a26.48,26.48,0,0,0-4.43,3.6l-3.13-2.65-.29-.24a1.49,1.49,0,0,0-2.09.15,50.11,50.11,0,0,0-7.26,11.13,24.32,24.32,0,0,0-1.49,4,1.5,1.5,0,0,0,1,1.82c1.54.5,3.09,1.11,4.6,1.69a19.93,19.93,0,0,0,.48,7.27c-1.14.33-2.31.6-3.51.88l-1.12.26a1.51,1.51,0,0,0-1,.71A1.54,1.54,0,0,0,179.91,67.24Zm3.39.64c1.53-.36,3.11-.74,4.66-1.27a1.5,1.5,0,0,0,.94-1.88,17.11,17.11,0,0,1-.61-8.48,1.5,1.5,0,0,0-.93-1.68l-1-.37c-1.16-.45-2.34-.91-3.53-1.33a19.32,19.32,0,0,1,.87-2.1,48.07,48.07,0,0,1,5.87-9.34q1.66,1.4,3.31,2.83a1.49,1.49,0,0,0,2.1-.12,23.16,23.16,0,0,1,6.08-4.88,1.51,1.51,0,0,0,.74-1,1.5,1.5,0,0,0-.23-1.2c-.84-1.21-1.65-2.45-2.41-3.69a23,23,0,0,1,11.56-2.59c-.21,1.51-.41,3.08-.6,4.69a1.47,1.47,0,0,0,.31,1.11,1.54,1.54,0,0,0,1,.56,18.61,18.61,0,0,1,6.6,2,1.5,1.5,0,0,0,2-.59l.46-.84c.61-1.08,1.23-2.19,1.84-3.32l1,.63A26.46,26.46,0,0,1,232,44.84c-1.28.78-2.67,1.61-4.08,2.37a1.5,1.5,0,0,0-.67,1.92A20.3,20.3,0,0,1,229,58.61a1.5,1.5,0,0,0,1.34,1.59c1.51.16,3,.28,4.53.41a22.63,22.63,0,0,1-3.66,9.56c-.54.8-1.12,1.59-1.74,2.34-1.15-.93-2.31-1.86-3.5-2.74a1.5,1.5,0,0,0-2,.2,23.92,23.92,0,0,1-8.51,6,1.5,1.5,0,0,0-.82,2c.48,1.19.85,2.43,1.23,3.73l.1.33a29.53,29.53,0,0,1-9.06,1.69c.1-1.43.22-2.88.37-4.32a1.45,1.45,0,0,0-.35-1.13,1.48,1.48,0,0,0-1.07-.53,18.75,18.75,0,0,1-9.56-3.11q-.36-.24-.72-.51a1.48,1.48,0,0,0-1.17-.27,1.43,1.43,0,0,0-1,.66c-.85,1.34-1.64,2.73-2.36,4A24.69,24.69,0,0,1,183.3,67.88Z" fill="#525d7d"/><path d="M221.28,102.4a8.54,8.54,0,0,0,.36,1.12,4.51,4.51,0,0,0,5.23,2.56,4.67,4.67,0,0,0,2.82-2c.09-.14.18-.28.26-.43a5.54,5.54,0,0,0,.52-3.93,4.58,4.58,0,0,0-2.28-2.93,5,5,0,0,0-3.56-.49C222.44,96.83,220.45,99,221.28,102.4Zm7.25-2.21a3.57,3.57,0,0,1-.33,2.5,2.83,2.83,0,0,1-1.8,1.45,2.51,2.51,0,0,1-2.9-1.36,5.57,5.57,0,0,1-.27-.85,3.27,3.27,0,0,1,.29-2.64,2.68,2.68,0,0,1,1.58-1.05,3,3,0,0,1,2.13.31A2.56,2.56,0,0,1,228.53,100.19Z" fill="#525d7d"/><path d="M234.25,90.78l-.54.49-.57.53a11.57,11.57,0,0,0-2.42-1.51c.13-.59.24-1.16.34-1.69a1.51,1.51,0,0,0-1-1.71,14.81,14.81,0,0,0-8-.33,12.27,12.27,0,0,0-1.43.42,1.55,1.55,0,0,0-.86.77,1.48,1.48,0,0,0,0,1.15c.18.49.34,1,.51,1.49a9.75,9.75,0,0,0-1,.57l-1-1.2a1.5,1.5,0,0,0-2.15-.19,13.21,13.21,0,0,0-4.23,7.3A1.5,1.5,0,0,0,213,98.65l1.41.28a12.12,12.12,0,0,0-.08,1.36l-1.24.16-.18,0a1.52,1.52,0,0,0-1.3,1.65,22.39,22.39,0,0,0,.49,2.81,26.68,26.68,0,0,0,1.13,3.53,10.94,10.94,0,0,0,1,1.93,1.49,1.49,0,0,0,2,.5c.49-.27,1-.53,1.51-.78a10,10,0,0,0,1.84,1.5l-.47.83-.27.48a1.5,1.5,0,0,0,.67,2.09,14,14,0,0,0,9.14,1,1.51,1.51,0,0,0,1-.74,1.47,1.47,0,0,0,.11-1.21c-.15-.42-.3-.87-.45-1.32a11.17,11.17,0,0,0,2.94-1.59l1,1a1.56,1.56,0,0,0,1.08.47,1.51,1.51,0,0,0,1.08-.45,15.28,15.28,0,0,0,1.83-2.24,17.14,17.14,0,0,0,1.75-3.41,1.51,1.51,0,0,0-.77-1.88l-.72-.35-.6-.29a14.27,14.27,0,0,0,.41-3.12l.7-.11.72-.11a1.49,1.49,0,0,0,1.26-1.61,15.16,15.16,0,0,0-.39-2.35,13,13,0,0,0-3.17-5.89A1.49,1.49,0,0,0,234.25,90.78Zm2.37,6.67c0,.17.08.35.11.52l-1.33.23a1.5,1.5,0,0,0-1.2,1.61,10.8,10.8,0,0,1-.61,4.57,1.5,1.5,0,0,0,.88,1.92,11.55,11.55,0,0,1,1.09.47,12.53,12.53,0,0,1-1.33,2.16c-.25-.28-.51-.56-.76-.85a1.51,1.51,0,0,0-1.07-.51,1.53,1.53,0,0,0-1.11.44,8.13,8.13,0,0,1-3.8,2.14l-.37.08a1.51,1.51,0,0,0-1,.67,1.56,1.56,0,0,0-.18,1.19c.12.42.24.85.37,1.26a11,11,0,0,1-4-.47c.22-.41.44-.84.64-1.29a1.51,1.51,0,0,0-.75-2,7.18,7.18,0,0,1-2.86-2.27,1.51,1.51,0,0,0-1.87-.45l-.44.22-.9.44c0-.07-.05-.14-.08-.2a23.7,23.7,0,0,1-1-3.14q-.12-.48-.21-1l1.24-.15a1.49,1.49,0,0,0,1.33-1.63,10.15,10.15,0,0,1,.23-3.43,1.52,1.52,0,0,0-.22-1.21,1.49,1.49,0,0,0-1-.65L215.21,96A10,10,0,0,1,217,92.94l.88,1a1.52,1.52,0,0,0,1,.52,1.46,1.46,0,0,0,1.09-.37,8.27,8.27,0,0,1,2.6-1.5,1.5,1.5,0,0,0,.92-1.88l-.14-.43c-.1-.31-.2-.61-.31-.92a11.89,11.89,0,0,1,4.79,0c-.1.47-.21,1-.32,1.41a1.49,1.49,0,0,0,1,1.79,9,9,0,0,1,3.57,2.25,1.5,1.5,0,0,0,2.07.09l1-.88A10.13,10.13,0,0,1,236.62,97.45Z" fill="#525d7d"/><path d="M249.4,73.77a8.7,8.7,0,0,0-1,.57A4.52,4.52,0,0,0,246.92,80a5.25,5.25,0,0,0,7,2.25,4.44,4.44,0,0,0,1.8-1.55,4.78,4.78,0,0,0,.6-1.27,5,5,0,0,0-.22-3.59C255.1,73.78,252.6,72.26,249.4,73.77Zm4.85,2.9a3,3,0,0,1,.12,2.15,2.54,2.54,0,0,1-1.34,1.6,3.27,3.27,0,0,1-4.3-1.29,2.63,2.63,0,0,1,.17-2.54,2,2,0,0,1,.57-.58,7.55,7.55,0,0,1,.78-.43C252.35,74.59,253.69,75.5,254.25,76.67Z" fill="#525d7d"/><path d="M251.42,64.9c0,.48,0,1,0,1.45a13.07,13.07,0,0,0-1.36.19c-.13-.4-.27-.79-.41-1.19l0-.16a1.5,1.5,0,0,0-1.87-.94,22.34,22.34,0,0,0-2.65,1,27.54,27.54,0,0,0-3.24,1.81,12.2,12.2,0,0,0-1.69,1.35,1.5,1.5,0,0,0-.09,2.07c.36.41.72.86,1.07,1.31a10.3,10.3,0,0,0-1.1,2.11l-.91-.29-.53-.17a1.51,1.51,0,0,0-1.91,1.07,14,14,0,0,0,.85,9.16,1.49,1.49,0,0,0,2.13.66l1.2-.7A11.17,11.17,0,0,0,243,86.23l-.82,1.16a1.44,1.44,0,0,0-.25,1.15,1.51,1.51,0,0,0,.66,1,16.05,16.05,0,0,0,6.25,2.37,1.5,1.5,0,0,0,1.69-1.13c.06-.26.13-.52.2-.78s.11-.43.16-.65a13.76,13.76,0,0,0,3.14-.22l.24.67.26.68a1.5,1.5,0,0,0,1.84.91,16.12,16.12,0,0,0,2.22-.85,13.07,13.07,0,0,0,5.13-4.29,1.52,1.52,0,0,0-.34-2.09l-.61-.44-.62-.44a11.92,11.92,0,0,0,1-2.67h1.71a1.49,1.49,0,0,0,1.47-1.34,14.8,14.8,0,0,0-1.27-7.89c-.21-.45-.45-.9-.7-1.32a1.55,1.55,0,0,0-.93-.69,1.52,1.52,0,0,0-1.14.18l-1.35.8a10.38,10.38,0,0,0-.76-.86l1-1.2a1.51,1.51,0,0,0-.25-2.15,13.18,13.18,0,0,0-8-2.68A1.5,1.5,0,0,0,251.42,64.9ZM257,68.72a1.5,1.5,0,0,0,.28,2.11,8.31,8.31,0,0,1,2,2.24,1.48,1.48,0,0,0,2,.52l.4-.22.83-.48a11.6,11.6,0,0,1,.95,4.69c-.47,0-1,0-1.44,0a1.5,1.5,0,0,0-1.56,1.31,8.82,8.82,0,0,1-1.49,4,1.52,1.52,0,0,0,.33,2l1.06.78a10,10,0,0,1-3,2.16l-.48.22c-.16-.42-.32-.84-.5-1.26a1.49,1.49,0,0,0-1.81-.86,10.53,10.53,0,0,1-4.6.33,1.51,1.51,0,0,0-1.71,1.25q-.09.57-.24,1.17a13.49,13.49,0,0,1-2.38-.87c.22-.31.45-.62.68-.92a1.55,1.55,0,0,0,.28-1.16,1.49,1.49,0,0,0-.65-1,8.1,8.1,0,0,1-2.86-3.3,3.73,3.73,0,0,1-.16-.35,1.5,1.5,0,0,0-2.05-.77c-.4.19-.78.4-1.16.61a10.94,10.94,0,0,1-.36-4c.46.13.92.26,1.4.36a1.5,1.5,0,0,0,1.78-1.13,7.27,7.27,0,0,1,1.65-3.26,1.51,1.51,0,0,0,.06-1.92l-.3-.38c-.2-.26-.4-.53-.61-.79l.18-.12A24.37,24.37,0,0,1,246.36,68c.3-.14.6-.28.9-.4.14.39.27.78.39,1.18a1.5,1.5,0,0,0,1.87,1,10.09,10.09,0,0,1,3.41-.47,1.49,1.49,0,0,0,1.56-1.6l-.06-1.16a10,10,0,0,1,3.37,1.11Z" fill="#525d7d"/><path d="M83,173.23a1.49,1.49,0,0,1,1.37,1.62c-.06.81-.12,1.59-.17,2.35a24.82,24.82,0,0,0,8.94,2.51c0-.49,0-1,0-1.46a1.5,1.5,0,0,1,3,.1c0,.49,0,1,0,1.45,12.21-.22,21.4-7.1,23.77-17.76,5.26-1.17,6.4-3.75,6.4-5.77,0-2.67-1.67-5.87-6.26-7.24a34.17,34.17,0,0,0-2.09-7.78,10.45,10.45,0,0,0-1.1.61,1.5,1.5,0,0,1-1.6-2.54,15,15,0,0,1,1.43-.78,20.74,20.74,0,0,0-9.19-9.13,25.17,25.17,0,0,0-2.44,1.54,1.5,1.5,0,1,1-1.77-2.41c.19-.14.4-.26.59-.4a16.09,16.09,0,0,0-3.56-.42q-.63,0-1.26.06C82.5,129.16,73,140.15,73,157.93c0,7.09,2.57,12.91,7.43,16.84.29.24.61.45.92.68l.06-.85A1.49,1.49,0,0,1,83,173.23Zm-7-15.3c0-16.26,8.28-25.91,23.33-27.16.34,0,.68-.05,1-.05a14.33,14.33,0,0,1,9.39,3.71c0-.39,0-.77,0-1.15a1,1,0,0,1,1-1,1,1,0,0,1,1,1c0,1.09,0,2.18.07,3.28,2.65,3.21,4.69,7.78,5.45,13.88a1.5,1.5,0,0,0,1.17,1.28c3.08.67,4.93,2.38,4.93,4.57,0,1.8-2.68,2.63-4.92,3a1.51,1.51,0,0,0-1.23,1.22,19.06,19.06,0,0,1-9.91,13.67c.22.36.45.72.72,1.08a1,1,0,0,1-.8,1.59,1,1,0,0,1-.81-.4,16.41,16.41,0,0,1-.93-1.42,26,26,0,0,1-9.89,1.8C85.82,176.82,76,171,76,157.93Z" fill="#525d7d"/><path d="M109.9,143.1c0,10.12-1.91,14.08-3.59,17.58a18.4,18.4,0,0,0-2.36,9,10.68,10.68,0,0,0,1.5,5.32,16.41,16.41,0,0,0,.93,1.42,1,1,0,0,0,1.4.21,1,1,0,0,0,.21-1.4c-.27-.36-.5-.72-.72-1.08A8.62,8.62,0,0,1,106,169.7a16.38,16.38,0,0,1,2.16-8.15c1.69-3.51,3.79-7.88,3.79-18.45,0-1.83-.05-3.7-.1-5.5,0-.36,0-.71,0-1.06,0-1.1-.06-2.19-.07-3.28a1,1,0,0,0-1-1,1,1,0,0,0-1,1c0,.38,0,.76,0,1.15,0,1.07,0,2.15.07,3.22C109.85,139.44,109.9,141.3,109.9,143.1Z" fill="#525d7d"/><path d="M104.6,180.05a1.5,1.5,0,0,0-1.21,1.74,98.47,98.47,0,0,0,4.39,16,1.5,1.5,0,0,0,1.41,1,1.58,1.58,0,0,0,.52-.09,1.51,1.51,0,0,0,.89-1.93,95.67,95.67,0,0,1-4.26-15.53A1.49,1.49,0,0,0,104.6,180.05Z" fill="#525d7d"/><path d="M200.26,259.32a95.14,95.14,0,0,1-80.61-44.27,1.5,1.5,0,0,0-2.53,1.61,98.14,98.14,0,0,0,83.14,45.66,99.81,99.81,0,0,0,13.18-.89,28.39,28.39,0,0,1-3.09-2.64A97.28,97.28,0,0,1,200.26,259.32Z" fill="#525d7d"/><path d="M295.76,163.82A94.84,94.84,0,0,1,288.67,200a28.25,28.25,0,0,1,1.94,3.1A98.53,98.53,0,0,0,268.68,93c-.45,1-.93,1.87-1.45,2.77A94.59,94.59,0,0,1,295.76,163.82Z" fill="#525d7d"/><path d="M103,130.63a1.49,1.49,0,0,0,2.1.32,25.17,25.17,0,0,1,2.44-1.54,34.41,34.41,0,0,1,17-4c9.45,0,15.41,1.81,19.89,4.21.1-.41.18-.83.28-1.25a1,1,0,1,1,1.94.45c-.14.62-.26,1.23-.4,1.85q1.36.85,2.58,1.74a1.51,1.51,0,0,0,1.05.28c1.66-.19,3.3-.49,4.89-.78a40.46,40.46,0,0,1,7.39-.92,14.8,14.8,0,0,1,1.95.07,15.14,15.14,0,0,1,.1,2.22c0,.56,0,1.12,0,1.68h1.44a1,1,0,0,1,1,1,1,1,0,0,1-1,1h-1.54c0,5.65,3.17,7.39,5.26,8.54,1.52.83,1.81,1.1,1.81,1.68a1.19,1.19,0,0,1-.83,1.16A71.08,71.08,0,0,0,144.69,138c-.09.49-.2,1-.29,1.47a1,1,0,0,1-1,.82l-.19,0a1,1,0,0,1-.79-1.17c.09-.49.19-1,.29-1.48a79.75,79.75,0,0,0-13.91-1.22c-5.1,0-9.08.72-12.11,2.18a15,15,0,0,0-1.43.78,1.5,1.5,0,0,0,1.6,2.54,10.45,10.45,0,0,1,1.1-.61c2.61-1.25,6.24-1.89,10.84-1.89,24.19,0,40,11.63,40.19,11.75a1.52,1.52,0,0,0,.9.3,4.14,4.14,0,0,0,4.24-4.21c0-2.47-1.87-3.49-3.36-4.31-1.91-1-3.71-2-3.71-5.93,0-.57,0-1.15,0-1.74s0-1.28,0-1.92c0-4.5-.75-5.29-5-5.29a42.89,42.89,0,0,0-7.94,1c-1.35.25-2.74.5-4.11.68-5.34-3.8-12.24-7.23-25.57-7.23-8.12,0-15.21,2-20.6,5.71-.19.14-.4.26-.59.4A1.49,1.49,0,0,0,103,130.63Z" fill="#525d7d"/><path d="M142.44,139.06a1,1,0,0,0,.79,1.17l.19,0a1,1,0,0,0,1-.82c.09-.49.2-1,.29-1.47.47-2.4,1-4.83,1.52-7.27.14-.62.26-1.23.4-1.85a1,1,0,1,0-1.94-.45c-.1.42-.18.84-.28,1.25-.6,2.66-1.15,5.32-1.66,7.94C142.63,138.07,142.53,138.57,142.44,139.06Z" fill="#525d7d"/><path d="M103.69,211.82l1.65,0,1.6,0c2.18,0,5.86.38,10.12.83,6.36.66,14.27,1.48,21.39,1.48h.23c4.37,0,6.38,0,7.7-.64,1.88-.91,1.87-2.72,1.87-4.82v-.24c0-8.48-6.33-8.7-10.11-8.83s-4.17-.45-4.17-1.66a5.13,5.13,0,0,1,1.15-2.09,7.1,7.1,0,0,0,1.81-4.09,4.47,4.47,0,0,0-4.63-4.27c-3.9,0-5.12,3.31-6.18,6.23-1.47,4-3,8.12-10.52,8.12-11.67,0-19.44-3.65-19.44-21.45v-.55c0-.48,0-1,0-1.45a1.5,1.5,0,0,0-3-.1c0,.49,0,1,0,1.46,0,.21,0,.42,0,.64,0,9.56,2.22,16.1,6.79,20,4.25,3.62,9.82,4.34,14.47,4.43l0-1.51a1,1,0,0,1,1-1,1,1,0,0,1,1,1l0,1.45c8.92-.34,11-5.93,12.51-10.06,1.13-3.09,1.72-4.26,3.37-4.26.77,0,1.63.52,1.63,1.27A5.11,5.11,0,0,1,132.7,194,6.81,6.81,0,0,0,131,197.9c0,4.41,4.09,4.55,7.07,4.66,3.67.12,6.17.4,7,3.42l1.72.05a1,1,0,0,1,0,2l-1.45,0c0,.13,0,.25,0,.4v.24a8.94,8.94,0,0,1-.12,2.09c-.46.37-3.26.37-6.57.37h-.11a210.94,210.94,0,0,1-21.08-1.47l-1-.1c0,.47,0,.95,0,1.42a1,1,0,1,1-2-.05c0-.52,0-1,0-1.58-3-.3-5.63-.53-7.4-.53l-1.65,0-1.6,0c-13,0-19.65-8.75-19.65-26,0-1.74.07-3.61.19-5.63,0-.76.11-1.54.17-2.35a1.5,1.5,0,0,0-3-.25l-.06.85c-.2,2.7-.31,5.13-.31,7.38C81,201.79,88.87,211.82,103.69,211.82Z" fill="#525d7d"/><path d="M114.34,209.31c0,.53,0,1.06,0,1.58a1,1,0,0,0,1,1,1,1,0,0,0,1-1c0-.47,0-.95,0-1.42l.06-3.26c0-.5,0-1,0-1.49l0-1.45a1,1,0,0,0-1-1,1,1,0,0,0-1,1l0,1.51c0,.48,0,1,0,1.44Z" fill="#525d7d"/><path d="M220.23,134.84l-33.49-10.92a1.47,1.47,0,0,0-1.16.1,1.51,1.51,0,0,0-.74.9l-15,50.57a1.49,1.49,0,0,0,1,1.86l8.54,2.67-.23-.77a1.49,1.49,0,0,1,1-1.86,1.52,1.52,0,0,1,.87,0l-7.9-2.46,14.18-47.68,30.64,10-13.49,47.48L181,177.4a1.51,1.51,0,0,1,1,1l.79,2.69L205,188a1.62,1.62,0,0,0,.44.07,1.54,1.54,0,0,0,.72-.18,1.58,1.58,0,0,0,.73-.91l4.1-14.45-1.43-5.14a1.5,1.5,0,0,1,2.89-.81l.12.41,8.62-30.36A1.5,1.5,0,0,0,220.23,134.84Z" fill="#525d7d"/><path d="M210.62,165.58a1.51,1.51,0,0,0-1.05,1.85l1.43,5.14,5.62,20.23-28.37,6.92-5.47-18.63L182,178.4a1.51,1.51,0,0,0-1-1,1.47,1.47,0,0,0-.88,0,1.49,1.49,0,0,0-1,1.86l.23.77,6.43,21.92a1.51,1.51,0,0,0,1.44,1.08,1.49,1.49,0,0,0,.36-.05l31.26-7.63a1.5,1.5,0,0,0,1.09-1.86L212.58,167l-.12-.41A1.49,1.49,0,0,0,210.62,165.58Z" fill="#525d7d"/><path d="M181.8,161.64c1,2.53,2.16,5,3.3,7.39,1.26,2.64,2.45,5.15,3.42,7.73a1.5,1.5,0,0,0,1.4,1,1.6,1.6,0,0,0,.53-.09,1.5,1.5,0,0,0,.88-1.93c-1-2.71-2.29-5.38-3.52-8-.82-1.72-1.65-3.48-2.41-5.25,1.93-.08,3.91-.15,5.87-.15,1.67,0,3.16,0,4.57.15A1.48,1.48,0,0,0,197,162a1.51,1.51,0,0,0,.4-1.23c-.32-2.35-.56-4.35-.73-6.19,3.67-1.17,6.84-2.34,9.67-3.56a1.49,1.49,0,0,0,.89-1.61l-.24-1.51a51,51,0,0,1-.88-8.09c0-.34,0-.69,0-1a1.5,1.5,0,0,0-3-.14c0,.39,0,.78,0,1.17a54,54,0,0,0,.92,8.57l.05.34c-2.76,1.14-5.87,2.24-9.45,3.35a1.51,1.51,0,0,0-1.06,1.56c.15,1.75.35,3.61.62,5.74-.94,0-1.92,0-3,0-2.76,0-5.5.13-8.15.26a1.5,1.5,0,0,0-1.32,2Z" fill="#525d7d"/><path d="M246,167.93c9.57,0,16.79-7.64,16.79-17.77,0-2.16-.34-6.27-2.56-9.47-3.95-5.68-10.35-6.75-16.09-7-9.75-.51-16.35,8.52-16.35,16.91C227.81,160.14,236,167.93,246,167.93Zm-2.62-31.3.61,0c5,.25,10.57,1.14,13.78,5.75a14,14,0,0,1,2,7.76c0,8.56-5.8,14.77-13.79,14.77-8.39,0-15.21-6.45-15.21-14.37C230.81,143.83,235.87,136.63,243.4,136.63Z" fill="#525d7d"/><path d="M245.74,161.81c6.17,0,10.82-4.9,10.82-11.41a11,11,0,0,0-1.67-6.1c-2.56-3.69-6.82-4.37-10.25-4.54-6.26-.33-10.58,5.48-10.58,10.89A11.44,11.44,0,0,0,245.74,161.81Zm-1.59-19.07h.33c3.06.16,6.14.66,8,3.26a7.9,7.9,0,0,1,1.13,4.39c0,4.88-3.29,8.41-7.82,8.41-4.17,0-8.68-3.12-8.68-8.16C237.06,146.83,239.91,142.74,244.15,142.74Z" fill="#525d7d"/><path d="M276.69,246.41a1.5,1.5,0,0,1-.86-2.73c.92-.64,1.86-1.31,2.8-2,0-.46,0-.93,0-1.41a23.63,23.63,0,0,0-1.29-7.74c-.19.23-.39.46-.6.68a1.5,1.5,0,0,1-1.1.48,1.5,1.5,0,0,1-1.1-2.52c.53-.57,1-1.15,1.49-1.74a24,24,0,0,0-21.4-13.16,24.34,24.34,0,0,0-3.07.2c-1.57-1.9-4.23-4.41-7.29-4.41a6.06,6.06,0,0,0-5.9,5.89,9.74,9.74,0,0,0,1,3.84,24,24,0,0,0-7.5,25.94c.44-.16.87-.31,1.32-.5a1.5,1.5,0,1,1,1.18,2.76c-.47.2-.92.37-1.38.54a24.16,24.16,0,0,0,7.45,9q1-.54,2.16-1.17a1.5,1.5,0,0,1,1.48,2.61l-.74.41A24,24,0,0,0,278,245.81l-.47.34A1.49,1.49,0,0,1,276.69,246.41Zm-22,14.82a21,21,0,0,1-21-21,21.82,21.82,0,0,1,.36-3.89c-.47-.07-.94-.15-1.42-.21a1,1,0,0,1,.28-2l1.6.23a20.86,20.86,0,0,1,7.62-11,1.5,1.5,0,0,0,.45-1.85,9.43,9.43,0,0,1-1.15-3.64,3.09,3.09,0,0,1,2.9-2.89c1.56,0,3.6,1.47,5.46,3.92a1.49,1.49,0,0,0,1.44.58,20.83,20.83,0,0,1,7.77.16c.34-.22.67-.42,1-.59a20.25,20.25,0,0,1,2.08-.92,1,1,0,1,1,.72,1.86c-.37.14-.72.29-1,.44a21,21,0,0,1-7.05,40.76Z" fill="#525d7d"/><path d="M245,237.87h.12a1,1,0,0,0,.8-.41c2.58-3.52,10.42-14.24,15-16.59l.84-.4c.33-.15.68-.3,1-.44a1,1,0,1,0-.72-1.86,20.25,20.25,0,0,0-2.08.92c-.32.17-.65.37-1,.59-4.32,2.85-10.13,10.35-14.38,16.13-2.62-.31-5.26-.71-7.82-1.09l-2.29-.34-1.6-.23a1,1,0,0,0-.28,2c.48.06.95.14,1.42.21.82.12,1.64.23,2.45.36C239.25,237.11,242.11,237.54,245,237.87Z" fill="#525d7d"/><path d="M207,252.33a1.51,1.51,0,0,1,2.09.38c.46.67,1,1.3,1.47,1.92a21.44,21.44,0,0,0,9.44-4.42,12.55,12.55,0,0,1-1.08-.71,1.51,1.51,0,0,1-.3-2.1,1.49,1.49,0,0,1,2.1-.3,7.73,7.73,0,0,0,1.44.84,10.51,10.51,0,0,0,2.43-6.37c0-.07-.05-7.21-3.94-7.21-1.49,0-2.28,1.26-2.85,2.18-.47.74-.85,1.3-1.19,1.3-1,0-2.33-2.09-2.54-12a1.5,1.5,0,0,0-.58-1.16,1.52,1.52,0,0,0-1.27-.27,62.35,62.35,0,0,0-11.46,3.91,1.49,1.49,0,0,0-.88,1.37c0,9.34,2.14,17.88,6.09,24.71a1.47,1.47,0,0,0,1.16.73c-.17-.23-.35-.45-.51-.68A1.51,1.51,0,0,1,207,252.33Zm-4.11-21.71c1-.41,1.92-.79,2.9-1.15,0-.59-.06-1.18-.06-1.77a1.08,1.08,0,0,1,1-1.09.93.93,0,0,1,1,.92v.17c0,.35,0,.71,0,1.07,1.1-.36,2.21-.71,3.35-1,.17,5.59.82,13.08,5.49,13.08,2,0,3.05-1.63,3.73-2.71.11-.17.25-.4.38-.58a9.52,9.52,0,0,1,.87,4c0,3.6-4.3,9.27-13.5,10.45A46.91,46.91,0,0,1,202.91,230.62Z" fill="#525d7d"/><path d="M206.93,239.37a1,1,0,0,0,1,.86h.14a1,1,0,0,0,.85-1.12l-.25-1.84a75.37,75.37,0,0,1-.87-8.49c0-.36,0-.72,0-1.07v-.17a.93.93,0,0,0-1-.92,1.08,1.08,0,0,0-1,1.09c0,.59,0,1.18.06,1.77.12,2.71.49,5.43.87,8.07Z" fill="#525d7d"/><path d="M133.21,205.48a1,1,0,1,0-.08,2c1.63.06,3.25.14,4.87.22,2.37.11,4.81.22,7.24.29l1.43,0a1,1,0,1,0,0-2L145,206c-2.31-.07-4.63-.17-6.89-.28Z" fill="#525d7d"/><path d="M159.24,134.74a1,1,0,0,0-.14,2c1.45.1,3.22.23,5,.25h1.54a1,1,0,0,0,1-1,1,1,0,0,0-1-1h-1.44C162.4,135,160.67,134.84,159.24,134.74Z" fill="#525d7d"/><path d="M244.63,258.93a1.5,1.5,0,0,0-2-.57q-1.11.63-2.16,1.17c-5,2.61-9.26,4-12.41,4-6.35,0-12.85-3.36-17.44-8.88-.51-.62-1-1.25-1.47-1.92a1.5,1.5,0,0,0-2.47,1.71c.16.23.34.45.51.68a29,29,0,0,0,3.2,3.69,28.39,28.39,0,0,0,3.09,2.64A24.9,24.9,0,0,0,228,266.51c4.91,0,10.91-2.7,15.31-5.13l.74-.41A1.49,1.49,0,0,0,244.63,258.93Z" fill="#525d7d"/><path d="M218.64,247.4a1.51,1.51,0,0,0,.3,2.1,12.55,12.55,0,0,0,1.08.71,12.12,12.12,0,0,0,6.2,1.59,19.71,19.71,0,0,0,6.76-1.31c.46-.17.91-.34,1.38-.54a1.5,1.5,0,1,0-1.18-2.76c-.45.19-.88.34-1.32.5-3.75,1.35-7.09,1.45-9.68.25a7.73,7.73,0,0,1-1.44-.84A1.49,1.49,0,0,0,218.64,247.4Z" fill="#525d7d"/><path d="M274.66,233.25a1.48,1.48,0,0,0,1,.4,1.5,1.5,0,0,0,1.1-.48c.21-.22.41-.45.6-.68,4.16-4.73,5.87-9.53,5.87-16.31,0-10.64-9.29-18.07-18.29-19.89a6.88,6.88,0,0,1-.68-2.76l-2.68,2.25a10.63,10.63,0,0,0,1.06,2.59,1.46,1.46,0,0,0,1,.74c8,1.35,16.54,7.79,16.54,17.07,0,6.19-1.62,10-4.18,13.21-.47.59-1,1.17-1.49,1.74A1.49,1.49,0,0,0,274.66,233.25Z" fill="#525d7d"/><path d="M277.27,190.09l.48,1.08a1,1,0,0,1-.51,1.32,1,1,0,0,1-.41.08,1,1,0,0,1-.91-.59l-1.48-3.33c-.92-.42-1.88-.84-2.89-1.23l-2.64,2.22c20.24,7.16,22.46,22.06,22.46,28.2,0,11.67-6.32,18.84-12.74,23.8-.94.73-1.88,1.4-2.8,2a1.5,1.5,0,0,0,.86,2.73,1.49,1.49,0,0,0,.85-.26l.47-.34c7.17-5,16.36-13.35,16.36-28a31,31,0,0,0-3.76-14.76,28.25,28.25,0,0,0-1.94-3.1A34.1,34.1,0,0,0,277.27,190.09Z" fill="#525d7d"/><path d="M268.91,189.64l2.64-2.22,1.7-1.43-.75-1.68a1,1,0,1,1,1.82-.82c.18.39.35.78.52,1.17l10.71-9a5.61,5.61,0,0,0,.61-8l-.1-.12a5.72,5.72,0,0,0-4-1.84,5.61,5.61,0,0,0-4.13,1.63l-7.18,7.06c.29.64.59,1.29.89,1.93a1.5,1.5,0,1,1-2.72,1.26l-.45-1L256.83,188a1.46,1.46,0,0,0-.34.52c-.94,2.38-2,4.74-3.06,7a1.51,1.51,0,0,0,.15,1.56,1.54,1.54,0,0,0,1.2.59l.26,0c1-.18,2.12-.31,3.17-.43l1.45-.18a1.54,1.54,0,0,0,.77-.34l1.17-1,2.68-2.25Zm-10.07,4.54-1,.12-.55.06q1-2.19,1.86-4.41l18.65-18.34a5.47,5.47,0,0,1,2.26-5.48,1,1,0,1,1,1,1.7,3,3,0,0,0-1.22,1.73l.1-.09a2.69,2.69,0,0,1,1.95-.77,2.76,2.76,0,0,1,2,.93,2.63,2.63,0,0,1-.29,3.74l-.57.48h.58a.53.53,0,0,0,.47-.2,1,1,0,0,1,1.42,0,1,1,0,0,1,0,1.41,2.52,2.52,0,0,1-1.89.79h-.45l-.53,0a4.62,4.62,0,0,1-1.61-.32Z" fill="#525d7d"/><path d="M281,175.54a4.62,4.62,0,0,0,1.61.32l.53,0h.45a2.52,2.52,0,0,0,1.89-.79,1,1,0,0,0,0-1.41,1,1,0,0,0-1.42,0,.53.53,0,0,1-.47.2h-1a3.12,3.12,0,0,1-2.93-3.22,3.93,3.93,0,0,1,.17-1.08,3,3,0,0,1,1.22-1.73,1,1,0,1,0-1-1.7,5.37,5.37,0,0,0,1,9.41Z" fill="#525d7d"/><path d="M270.87,178.31a1.5,1.5,0,0,0,.73-2c-.3-.64-.6-1.29-.89-1.93-1.13-2.43-2.25-4.86-3.38-7.27a1.51,1.51,0,0,0-1.92-.76c-7.09,2.86-14,6.27-20.66,9.56l-5.83,2.87a1.5,1.5,0,0,0-.74,1.88l1.19,3.1c3.8,9.94,7.73,20.22,12.46,29.87a1.5,1.5,0,0,0,1.34.84,1.52,1.52,0,0,0,.66-.15,1.5,1.5,0,0,0,.69-2c-4.67-9.53-8.57-19.74-12.35-29.62l-.7-1.82,4.61-2.27c6.21-3.06,12.61-6.23,19.14-8.93,1.07,2.31,2.15,4.62,3.21,6.94l.45,1A1.49,1.49,0,0,0,270.87,178.31Z" fill="#525d7d"/><path d="M273,183a1,1,0,0,0-.5,1.32l.75,1.68c.4.89.79,1.78,1.19,2.66l1.48,3.33a1,1,0,0,0,.91.59,1,1,0,0,0,.41-.08,1,1,0,0,0,.51-1.32l-.48-1.08q-1.2-2.72-2.43-5.43c-.17-.39-.34-.78-.52-1.17A1,1,0,0,0,273,183Z" fill="#525d7d"/><path d="M253.05,32.06a1.51,1.51,0,0,0,2.1-.29c.77-1,1.6-2,2.45-3a1.5,1.5,0,1,0-2.23-2c-.91,1-1.79,2.09-2.62,3.19A1.49,1.49,0,0,0,253.05,32.06Z" fill="#525d7d"/><path d="M299.75,12.42c1.31,0,2.62.11,3.88.24h.15a1.5,1.5,0,0,0,.14-3c-1.33-.13-2.71-.21-4.09-.25a1.5,1.5,0,1,0-.08,3Z" fill="#525d7d"/><path d="M274.35,16.77a1.44,1.44,0,0,0,.57-.11c1.18-.48,2.41-.93,3.65-1.33a1.5,1.5,0,0,0-.93-2.86c-1.31.43-2.61.9-3.86,1.42a1.5,1.5,0,0,0,.57,2.88Z" fill="#525d7d"/><path d="M312.19,14.25c1.23.35,2.47.76,3.67,1.21a1.42,1.42,0,0,0,.53.1,1.49,1.49,0,0,0,1.4-1,1.51,1.51,0,0,0-.87-1.94c-1.28-.48-2.6-.91-3.91-1.29a1.5,1.5,0,1,0-.82,2.89Z" fill="#525d7d"/><path d="M286.84,13.29a1,1,0,0,0,.24,0c1.27-.2,2.57-.38,3.88-.51a1.5,1.5,0,1,0-.31-3c-1.36.14-2.72.32-4,.53a1.5,1.5,0,0,0,.24,3Z" fill="#525d7d"/><path d="M263.09,23.18a1.47,1.47,0,0,0,.9-.31c1-.77,2.09-1.52,3.18-2.21a1.5,1.5,0,0,0-1.61-2.53c-1.16.74-2.3,1.53-3.38,2.36a1.5,1.5,0,0,0,.91,2.69Z" fill="#525d7d"/><path d="M247,43.55a1.55,1.55,0,0,0,.56.11,1.51,1.51,0,0,0,1.39-.94c.19-.48.4-1,.61-1.43.31-.72.63-1.42,1-2.11a1.5,1.5,0,0,0-2.69-1.34c-.4.82-.78,1.66-1.15,2.51-.18.41-.36.83-.53,1.25A1.5,1.5,0,0,0,247,43.55Z" fill="#525d7d"/><path d="M331.81,78.39c5.51-1.09,11.06-1.93,16.56-3,3.58-.73,7.17-1.45,10.79-2,3.42-.52,7.19-.34,10.4-1.66a5.06,5.06,0,0,0,1.25-.75,10.5,10.5,0,0,0,5.68-6.83c1.2-4.42,0-9.15-.92-13.5-2.45-11.37-2.72-23.52-8.7-33.81a1.16,1.16,0,0,0-2.12.89c1.73,6,2,12.32,2,18.61a31.93,31.93,0,0,0-1.4-5.8,5.87,5.87,0,0,0-.89-1.62,13,13,0,0,0,.75-1.23c2.42-4.4-3.41-9.19-7.06-5.45-5.46,5.59-10.73,11.26-16.46,16.61-2.74,2.56-5.51,5.54-9.19,6.73a11.26,11.26,0,0,1-2.9.51c-.66-1.44-2.65-2.4-4-.91l-.52.56c-1.25-.2-2.5-.43-3.74-.59-.71-.09-.95.88-.55,1.32a20.33,20.33,0,0,0,1.93,1.81c-5,5.3-9.95,10.59-13.26,17.13a1,1,0,0,0,1.76,1c4.33-6,10-10.83,15.54-15.71,5.19,2.17,11.06,1.31,16.29-2.2.3-.2.6-.43.9-.64a33.19,33.19,0,0,1,8.72,9.31c-1.83.51-3.76,1.28-5.17,1.63-6.63,1.68-13.28,3.3-19.88,5.06-3.88,1-11.3,1.61-14.1,4.71a1.18,1.18,0,0,0,.23,1.83c2.25,1.17,5.16.47,7.6.24,3.58-.34,7.17-.67,10.75-1.05-7.93,2.21-16.85,6.24-24.95,4.68a1.17,1.17,0,0,0-1.13,1.94C312.22,82.75,324.16,79.9,331.81,78.39ZM366.36,56.9c.25-1.74.47-3.61.64-5.52.1,1.46.21,2.92.25,4.38,0,1.3.3,3.53-.39,4.74-.25.44-.89.67-1.63,1.06A20,20,0,0,0,366.36,56.9ZM346.53,46c2.89-2.18,5.68-4.57,8.33-6.94l.43-.4c.35,5,1,10.08.55,15.19a.89.89,0,0,1,0,.15A40.09,40.09,0,0,0,346.53,46Z" fill="#e0dfe6"/><path d="M303.59,64.44c-.19,5.32-.3,8.26,1.61,10a6,6,0,0,0,4.3,1.25,82.08,82.08,0,0,0,10.39-1.22,428.54,428.54,0,0,1,45.74-4.68,1.49,1.49,0,0,0,1.42-1.54c-.1-3.08-.22-6.69-.35-10.47C366.36,48.25,366,37.5,366,32c0-3.71.18-6.53.31-8.59.23-3.59.34-5.23-.94-6.24s-2.82-.53-6.23.52c-6.75,2.08-20.8,6.41-51.3,6.41q-1.54,0-3.09,0a1.5,1.5,0,0,0-.05,3c1.05,0,2.09,0,3.14,0,28.47,0,42.88-3.74,50.37-6,1.15-1.14,2.32-2.27,3.5-3.32a1.5,1.5,0,0,1,2,2.24l-.25.23c0,.77-.07,1.87-.14,2.95-.14,2.1-.32,5-.32,8.79,0,5.61.37,16.38.71,25.89.11,3.19.22,6.26.31,9-2.21.12-4.31.25-6.35.39h0a1.5,1.5,0,0,1-.68,2,1.56,1.56,0,0,1-.67.15,1.49,1.49,0,0,1-1.34-.82c-.18-.38-.38-.76-.57-1.14-16.54,1.22-27.77,2.92-35,4-6.94,1.06-11.14,1.69-12.25.7,0,0-.05-.07-.08-.11a1.45,1.45,0,0,1-1,.44,1.65,1.65,0,0,1-.43-.06,1.5,1.5,0,0,1-1-1.87,38.05,38.05,0,0,1,1.9-5c0-.33,0-.65,0-1a153.21,153.21,0,0,0-2.1-33.12v0a1.33,1.33,0,0,1-.19-.5,1.5,1.5,0,0,0-2.76,1A149.55,149.55,0,0,1,303.59,64.44Z" fill="#525d7d"/><path d="M304.68,31.71c1,1,2.05,2.12,3.14,3.28,3.81,4.07,8,8.51,13.08,10.72.5-.56,1-1.13,1.48-1.69a1.51,1.51,0,0,1,1.17-.51c-5.14-1.61-9.4-6.15-13.54-10.57-1.1-1.18-2.15-2.29-3.21-3.35a1.48,1.48,0,0,0-2.51,1.32,1.33,1.33,0,0,0,.19.5A1.43,1.43,0,0,0,304.68,31.71Z" fill="#525d7d"/><path d="M324.64,46l-.64.74a15.86,15.86,0,0,0,3.48.4,20.66,20.66,0,0,0,10-2.79,1.5,1.5,0,0,1,2-2.2c.22.18.43.37.64.56,5-3.4,9.55-8.3,14-13.12,3-3.21,6.08-6.52,9.26-9.37l.25-.23a1.5,1.5,0,0,0-2-2.24c-1.18,1.05-2.35,2.18-3.5,3.32-2.12,2.11-4.19,4.31-6.21,6.48-8,8.53-15.47,16.59-24.51,16.59a13.22,13.22,0,0,1-3.22-.42l.24.16A1.5,1.5,0,0,1,324.64,46Z" fill="#525d7d"/><path d="M322.38,44c-.49.56-1,1.13-1.48,1.69l-.47.54c-5.19,5.92-10.53,12-13.88,19.29a38.05,38.05,0,0,0-1.9,5,1.5,1.5,0,0,0,1,1.87,1.65,1.65,0,0,0,.43.06,1.61,1.61,0,0,0,1.44-1.07c2.69-9,9-16.2,15.17-23.18l1.31-1.5.64-.74a1.5,1.5,0,0,0-.14-2.12l-.24-.16a1.49,1.49,0,0,0-.71-.2A1.51,1.51,0,0,0,322.38,44Z" fill="#525d7d"/><path d="M340.15,42.7c-.21-.19-.42-.38-.64-.56a1.5,1.5,0,0,0-2,2.2.63.63,0,0,0,.12.11c7.65,6.33,13,15.45,16.81,23,.19.38.39.76.57,1.14a1.49,1.49,0,0,0,1.34.82,1.56,1.56,0,0,0,.67-.15,1.5,1.5,0,0,0,.68-2h0C353.76,59.42,348.26,49.67,340.15,42.7Z" fill="#525d7d"/><path d="M102,16a10.21,10.21,0,0,0,11.29-5.13c2.63-5.25-3.91-10.89-8.37-6.45-1.92,1.91-2.15,3.22-4.78,3.59-2.24.31-4.95.65-6,2.94a.8.8,0,0,0,.12.94C96,13.94,99.45,15.47,102,16Z" fill="#e0dfe6"/><path d="M112,82.59c4.8.36,9-1,13.5-2.3a40.47,40.47,0,0,1,7.16-1.84c2.2-.21,2.55.39,4.4,1.47,3,1.73,6.14-.54,6.4-3.67.42-4.88-4.55-8-8.9-8.33-4.85-.31-9.44,1.46-13.86,3.22-11.2,4.46-21.15,1.54-27.27-9-.84-1.45-3.39-.89-3.28.89C90.87,74.5,101.17,81.78,112,82.59Z" fill="#e0dfe6"/><path d="M143.12,88.12c.34.25.7.48,1,.71a4.16,4.16,0,0,0,.25,1.08,54,54,0,0,0-7.32,2.6c-1.15.46-2.18,1-3.39.42-1.55-.72-3.06-3.5-1.08-4.74.63-.4.23-1.53-.53-1.26-4.79,1.75-4.28,7.23-1,10.41,5.28,5.1,11.08-.33,16.5-1.63a2.9,2.9,0,0,0,2.17-2.43,5.09,5.09,0,0,0,2.13-.45c4.53,2.08,8.93,4.22,12,8.7.83,1.24,3,.51,2.51-1-2-6.51-6.41-9.72-11.33-12.82,1.54-2.1,4.81-2.31,7.17-4.24a14.48,14.48,0,0,0,5.09-10.34c.48-6.86-3.46-17.51-11.23-18.76a1.83,1.83,0,0,0-1.76,3c3.94,4.56,9.86,13.41,4.17,19.19-1.95,2-5.2,2.2-7.7,3.19a11,11,0,0,0-3.91,2.55A3.48,3.48,0,1,0,143.12,88.12Z" fill="#e0dfe6"/><path d="M132,86.12c4.64-1.38,2.38-8.87-2-7.13-2.89,1.15-5.62,2.71-8.53,3.79-3.25,1.21-6,1-9.4.76a1.12,1.12,0,0,0-1,1.67,12.43,12.43,0,0,0,1.06,1.43.69.69,0,0,0,1,.1C118.8,89.93,126.17,87.85,132,86.12Z" fill="#e0dfe6"/><path d="M124,84.49a30.34,30.34,0,0,0,6.36-1.14A18.44,18.44,0,0,0,128,92.11c0,5.15,3,7.07,4.85,7.07a5.94,5.94,0,0,1,1,.17,7.63,7.63,0,0,0,1.78.27,1.62,1.62,0,0,0,.44-.07A40.91,40.91,0,0,1,146.2,98c9.93,0,16,4.34,21.07,9.22l.18.17c.2.19.39.38.58.58a1.51,1.51,0,0,0,2.13,0,1.51,1.51,0,0,0,0-2.12l-.54-.53c-3.37-6.52-9.65-9.52-15.2-12.17-5.78-2.76-9.32-4.64-9.32-8.45,0-3.57,1.54-4,4.89-5C153.9,78.54,159.25,77,163.25,69l.06-.11a10.3,10.3,0,0,0,.67-3.78c0-16.8-24.15-29-40.43-29-17.21,0-41.45,9.26-41.45,29.84C82.1,84.49,113.62,84.49,124,84.49Zm-.43-45.39c14.73,0,37.43,11.15,37.43,26a7.25,7.25,0,0,1-.44,2.61c-3.41,6.78-7.65,8-11.4,9.13-3.46,1-7,2.07-7,7.89s5,8.28,10.47,10.89A33.33,33.33,0,0,0,146.2,95a42.87,42.87,0,0,0-10.75,1.61c-.27,0-.6-.11-.93-.18a7.47,7.47,0,0,0-1.63-.25h0c-.37,0-1.86-.87-1.86-4.07,0-3.5,1.33-7,4.07-10.62a1.5,1.5,0,0,0-1.76-2.29A33.34,33.34,0,0,1,124,81.49c-26.17,0-38.88-5.09-38.88-15.55C85.1,47.43,107.58,39.1,123.55,39.1Z" fill="#525d7d"/><path d="M102.37,64.27q0,.77,0,1.5c0,.51,0,1,0,1.49a1.5,1.5,0,0,0,3,0c0-.46,0-.93,0-1.4s0-1.06,0-1.59a13,13,0,0,0-.86-5.12,1.5,1.5,0,1,0-2.76,1.18A10,10,0,0,1,102.37,64.27Z" fill="#525d7d"/><path d="M119.3,66.05l.13.77a1.49,1.49,0,0,0,1.47,1.26l.25,0a1.51,1.51,0,0,0,1.24-1.73l-.13-.77a38.92,38.92,0,0,0-1.3-6,1.5,1.5,0,1,0-2.84,1A36.66,36.66,0,0,1,119.3,66.05Z" fill="#525d7d"/><path d="M135.26,67.39a1.5,1.5,0,0,0,1.5-1.5V59.74a1.5,1.5,0,0,0-3,0v6.15A1.5,1.5,0,0,0,135.26,67.39Z" fill="#525d7d"/><path d="M104,12.22a6.69,6.69,0,0,0,6.65-6.87,3.18,3.18,0,0,0-.35-1.52C108.82,1.33,105.77,0,101.43,0c-2.21,0-3.81,2.24-3.81,5.32A7.63,7.63,0,0,0,99,9.88,5.89,5.89,0,0,0,104,12.22ZM101.43,3c1.8,0,5,.29,6.16,2.23a.38.38,0,0,1,0,.12A3.68,3.68,0,0,1,104,9.22a2.93,2.93,0,0,1-2.51-1.15,4.69,4.69,0,0,1-.82-2.75C100.62,3.88,101.18,3,101.43,3Z" fill="#525d7d"/><path d="M65.85,45H67.5c2.64,0,4.6-.06,6-.11A36.23,36.23,0,0,0,66,57.45a1.49,1.49,0,0,0,.87,1.93,1.69,1.69,0,0,0,.53.09,1.49,1.49,0,0,0,1.4-1,33.35,33.35,0,0,1,7.92-12.58c1-1,1.81-1.85,1.31-3s-1.54-1.17-4.53-1.06c-1.41,0-3.35.11-6,.11H64.65c1.91-6.26,5-16.35,5.17-16.91a1.5,1.5,0,0,0-2.77-1.14c-.07.14-.07.14-5.65,18.41a1.61,1.61,0,0,0-.06.44,2.05,2.05,0,0,0,.58,1.49C62.65,45,63.59,45,65.85,45Z" fill="#525d7d"/><path d="M310.4,243a15.28,15.28,0,0,0,7.12,2.86c5.11.73,11.15-.4,14.89-4.1a1.79,1.79,0,0,0,.13-.14c.62.55,1.24,1.12,1.85,1.71,1.16,1.11,2.13,2.5,3.66,3.09a1.4,1.4,0,0,0,1.43-.19l.06,0c1.68.53,3.24-1.9,1.79-3.08a17.32,17.32,0,0,0-2.86-1.58,3.52,3.52,0,0,0,.35-.16,12.86,12.86,0,0,0,6.43-9,1.5,1.5,0,0,0-2.89-.8,13.18,13.18,0,0,1-5.59,6.26,1.89,1.89,0,0,0-1,1.57c-.11-.12-.23-.22-.35-.34a.78.78,0,0,0-1.11.06c-.64-.43-1.29-.84-1.94-1.25a1.26,1.26,0,0,0-.6-.18,2.21,2.21,0,0,0-1.13-.24c-4.79.25-8.91,3-13.81,2.69-4.22-.3-6.74-4.09-10.71-4.29a.94.94,0,0,0-.66,1.6C307.39,239.14,308.36,241.5,310.4,243Z" fill="#e0dfe6"/><path d="M356.55,183.69c6.64,3.46,14.3,4.25,20.87.28a2.31,2.31,0,0,0,1.18-2.6c6.39-4.46,11-11.28,8.28-19.52a.79.79,0,0,0-1.54.21c-.09,9.38-8.43,14.25-15.68,18.27a2.3,2.3,0,0,0-.8.74,23.89,23.89,0,0,1-11.28-2.3c-4.73-2.13-10.35-5.12-12.95-9.7-.35-.62-1.56-.4-1.45.4C344,176,351.12,180.85,356.55,183.69Z" fill="#e0dfe6"/><path d="M364.3,187.81c0-.48-.06-.95-.08-1.4a1.5,1.5,0,1,1,3-.16c0,.51.06,1.05.1,1.6l.61,0c.55,0,1.1,0,1.64,0,5.52,0,19.41-6.36,19.41-21.36,0-14.47-12.89-25.28-24.42-25.28q-.62,0-1.23.06c-11.83,1.25-24.56,8.79-24.56,22.41C338.76,177,349.91,187.4,364.3,187.81Zm-.66-43.49c.3,0,.61,0,.91,0,12.06,0,21.42,12,21.42,22.28,0,12.9-11.74,18.36-16.41,18.36-.49,0-1,0-1.51,0s-1.13-.05-1.7-.05h-1.17c-13.13,0-23.42-9.26-23.42-21.08S353.1,145.43,363.64,144.32Z" fill="#525d7d"/><path d="M361.9,159.42l.09,0h.08q.44,0,.69-.63l0-.11v-.12a4,4,0,0,0-.08-.48,1.36,1.36,0,0,1-.06-.45,3.42,3.42,0,0,1,2.12-2.55.84.84,0,0,1,1.12.7A13,13,0,0,1,366,158a10,10,0,0,1-1.49,4.16,10.31,10.31,0,0,0-1.72,6.29,20.52,20.52,0,0,0,.38,2.09,1.23,1.23,0,0,0,1.17.89l.26,0a1,1,0,0,0,.64-1.22c0-.84-.07-1.68-.07-2.49a10.26,10.26,0,0,1,1.7-4.39,11.27,11.27,0,0,0,1.52-5.52,4.57,4.57,0,0,0-1-3.11,3.15,3.15,0,0,0-2.34-1.2,2.81,2.81,0,0,0-.56.06,4.55,4.55,0,0,0-3.45,3.56,2.64,2.64,0,0,0,.54,2.12A1.24,1.24,0,0,0,361.9,159.42Z" fill="#525d7d"/><path d="M364,173.35l-.18,0c-.48,0-.76.3-.83.95a4.32,4.32,0,0,0-.07.77,1.45,1.45,0,0,0,.74,1.46,1,1,0,0,0,.59.2.82.82,0,0,0,.88-.73,10.44,10.44,0,0,0,.1-1.46A1.29,1.29,0,0,0,364,173.35Z" fill="#525d7d"/><path d="M316.85,248v-.11c0-.39,0-.78,0-1.18a1.5,1.5,0,0,1,1.43-1.56,1.48,1.48,0,0,1,1.56,1.43c0,.44,0,.87,0,1.31,0,.1,0,.2,0,.3A45.11,45.11,0,0,0,332,246.09a42.17,42.17,0,0,0,11.1,7.11,1.57,1.57,0,0,0,.6.12A1.49,1.49,0,0,0,345,251.1a36.06,36.06,0,0,1-3.63-9.87,15.2,15.2,0,0,0,5.38-8.18,1.44,1.44,0,0,1,.2-1,16.3,16.3,0,0,0,.25-2.73c0-7.69-5.32-12.1-14.61-12.1a52.59,52.59,0,0,0-5.61.36c-9,.95-25.85,2.72-25.85,16.62C301.17,241.93,308.85,247,316.85,248Zm10.49-27.47a50.24,50.24,0,0,1,5.29-.34c5.3,0,11.61,1.58,11.61,9.1,0,4-1.81,7.43-5.37,10.1a1.48,1.48,0,0,0-.58,1.47,39.58,39.58,0,0,0,2.22,7.63,39.29,39.29,0,0,1-7.1-5.23,1.51,1.51,0,0,0-1-.4,1.4,1.4,0,0,0-.49.08,41.79,41.79,0,0,1-12.16,2.25c-7.52,0-15.57-4.43-15.57-11C304.17,223.86,316.13,221.74,327.34,220.56Z" fill="#525d7d"/><path d="M316.27,236.18a2.05,2.05,0,0,0,2.24-2.08,2.39,2.39,0,0,0-3.39-2.09,1.51,1.51,0,0,1-.34.11c-.49.15-1.62.48-1.62,1.62S314.64,236.18,316.27,236.18Zm-.7-3.28.53.88s.41,0,.43.35a.52.52,0,0,1-.26.05,1.53,1.53,0,0,1-.74-.2,2.79,2.79,0,0,0,.49-.18Z" fill="#525d7d"/><path d="M324.34,234.62a2.9,2.9,0,0,0,2.91-2.47A2.53,2.53,0,0,0,325,230c-.71,0-2.9,0-2.9,1.82V232C322.14,232.7,322.14,234.62,324.34,234.62ZM325,232a1.08,1.08,0,0,1,.2.18,1.15,1.15,0,0,1-.82.4h-.16a5.11,5.11,0,0,1,0-.51A5.23,5.23,0,0,1,325,232Z" fill="#525d7d"/><path d="M333.07,233a3.13,3.13,0,0,0,2.62-2.81,1.62,1.62,0,0,0,0-.22,2,2,0,0,0,.07-.48,1.64,1.64,0,0,0-.8-1.42,3,3,0,0,0-1.64-.38,1,1,0,0,0-.68.26,2.66,2.66,0,0,0-1.85,1.56,2.11,2.11,0,0,0-.37,1.14A3,3,0,0,0,333.07,233Zm-.28-2.74a1.06,1.06,0,0,0,.42-.39.37.37,0,0,1,.18.07A1,1,0,0,1,332.79,230.29Z" fill="#525d7d"/><path d="M365.82,217.6a1.74,1.74,0,0,0,.39.05,1.5,1.5,0,0,0,1.45-1.11,34.17,34.17,0,0,0,.83-4.1,1.49,1.49,0,0,0-1.27-1.69,1.5,1.5,0,0,0-1.7,1.27,30.54,30.54,0,0,1-.76,3.74A1.51,1.51,0,0,0,365.82,217.6Z" fill="#525d7d"/><path d="M367.27,204.76h.09a1.49,1.49,0,0,0,1.41-1.58c-.07-1.22-.17-2.54-.32-4a1.5,1.5,0,1,0-3,.29c.14,1.47.24,2.75.31,3.93A1.49,1.49,0,0,0,367.27,204.76Z" fill="#525d7d"/><path d="M360.83,228.35a24.09,24.09,0,0,0,2.82-3.21,1.5,1.5,0,1,0-2.43-1.76,19.81,19.81,0,0,1-2.45,2.78,1.5,1.5,0,0,0-.06,2.12,1.47,1.47,0,0,0,1.09.48A1.51,1.51,0,0,0,360.83,228.35Z" fill="#525d7d"/><path d="M365.64,184.83a1.49,1.49,0,0,0-1.42,1.58c0,.45,0,.92.08,1.4.06.83.13,1.7.22,2.65a1.5,1.5,0,0,0,1.49,1.36h.14a1.51,1.51,0,0,0,1.36-1.63c-.08-.83-.15-1.6-.2-2.33,0-.55-.07-1.09-.1-1.6A1.49,1.49,0,0,0,365.64,184.83Z" fill="#525d7d"/><path d="M346.79,233.05a1.5,1.5,0,0,0,1.47,1.27l.26,0a26.31,26.31,0,0,0,4.11-1,1.5,1.5,0,0,0-1-2.84,22.7,22.7,0,0,1-3.63.92,1.51,1.51,0,0,0-1,.71A1.44,1.44,0,0,0,346.79,233.05Z" fill="#525d7d"/><path d="M62.81,108.41c4.17.89,8.82-.5,11-4.31,1.47-2.54-1.74-4.49-3.78-2.91-3,2.3-10.57,4.87-11.84-1a1,1,0,0,0-1.81,0C55.41,104.35,59.05,107.61,62.81,108.41Z" fill="#e0dfe6"/><path d="M64.25,101.65c0,.51.06,1,.09,1.55,0,.88.1,1.78.15,2.69a1,1,0,0,0,1,1h0a1,1,0,0,0,1-1c0-.92-.09-1.81-.14-2.71,0-.45,0-.89-.07-1.35Z" fill="#525d7d"/><path d="M66.16,99.73c-.06-1.42-.11-2.83-.11-4.29a1,1,0,0,0-2,0c0,1.43,0,2.82.1,4.2h.23Z" fill="#525d7d"/><path d="M64.25,101.65l2,.08q.66,0,1.32,0a23.05,23.05,0,0,0,3.25-.21,1,1,0,0,0-.28-2,20.7,20.7,0,0,1-3,.19l-1.43,0-1.78-.08h-.23a43.68,43.68,0,0,0-4.45-.08,1,1,0,0,0-1,1,1,1,0,0,0,1,1A43.82,43.82,0,0,1,64.25,101.65Z" fill="#525d7d"/><path d="M64.91,111.8A11.59,11.59,0,0,0,76.68,99.87,11,11,0,0,0,65.37,88.8a20.29,20.29,0,0,0-2.5.19c-5.78.77-8.8,6.43-8.8,11.62A10.9,10.9,0,0,0,64.91,111.8ZM63.27,92a17.56,17.56,0,0,1,2.1-.16c4,0,8.31,2.83,8.31,8.07a8.68,8.68,0,0,1-8.77,8.93,7.93,7.93,0,0,1-7.84-8.19C57.07,96.82,59.24,92.5,63.27,92Z" fill="#525d7d"/><path d="M76.58,244.24c-.6-2.06-1.12-3.76-3.07-4.93a11.92,11.92,0,0,0-6.8-1.29,9.87,9.87,0,0,0-3.88.72,3.74,3.74,0,0,0-1.1.22l-.51-1.19c-1.63-3.82-2.85-10.66-7.94-11a16.11,16.11,0,0,0-4.12.66l-2.47.49c-1.36.85-2,.55-2-.89-1.62-2.3-1.58-8.28-1.77-11a2.1,2.1,0,0,0-1.78-1.81,53.07,53.07,0,0,0-14.68.25,1.26,1.26,0,0,0,0,2.48c4.06.64,8.29,1.05,12.42,1.29.12,4.49.09,11.67,3.14,14.25,1.27,1.08,3,.79,4.45.58s3.42-1.1,4.94-1c2.12.2,2,.68,2.66,2.81,1.2,3.78,1.76,10.85,6.9,11.09,3.69.18,6.68-3.93,9.74.88,1.67,2.62,1.25,7.22,2.6,10.18a3,3,0,0,0,5.79-1.47C79,251.8,77.64,247.88,76.58,244.24Z" fill="#e0dfe6"/><path d="M78.38,252.1a103.15,103.15,0,0,1-1.9-11.45A1.5,1.5,0,0,0,75,239.28c-2-.06-4-.27-5.9-.48-2.2-.24-4.45-.48-6.74-.52a41.44,41.44,0,0,1-2.61-10.88,1.49,1.49,0,0,0-1.3-1.32,123.69,123.69,0,0,0-13-1c-.49-3-.71-6.1-.93-9.11l-.11-1.57A1.5,1.5,0,0,0,43.14,213,61.79,61.79,0,0,0,28,212.7a1.5,1.5,0,0,0,.23,3,62.32,62.32,0,0,1,13.23.11l0,.36a91.16,91.16,0,0,0,1.19,10.67,1.49,1.49,0,0,0,1.46,1.22,112.93,112.93,0,0,1,12.78.86A42.12,42.12,0,0,0,60,240.39a1.49,1.49,0,0,0,1.39.89,62.13,62.13,0,0,1,7.39.5c1.58.17,3.19.34,4.83.44.4,3.55,1.11,7.07,1.81,10.48l.43,2.17a1.54,1.54,0,0,0,.55.88,1.5,1.5,0,0,0,2.4-1.47Z" fill="#525d7d"/><path d="M311.3,268.3a4.37,4.37,0,0,0,.32-4.91,4.52,4.52,0,0,0-6.1-1.6l-.16.09-.07,0a4.28,4.28,0,0,0-5.75.36c-1.48,1.61-1.91,4.67,0,6.23a9.23,9.23,0,0,0,8.5,1.92c.22-.28.42-.58.64-.86A2.79,2.79,0,0,1,311.3,268.3Z" fill="#ffcc80"/><path d="M301,276.41c1,1.12,2,3,3.59,3.37s2.78-.72,3.8-1.78c1.58-1.65,3.06-3.45,4.53-5.2a2.67,2.67,0,0,0-1.65-4.5,2.79,2.79,0,0,0-2.62,1.21c-.22.28-.42.58-.64.86l-2,2.69c-.33.46-.87,1.32-1.33,1.95-1-.66-2-1.79-2.7-2.33a16.56,16.56,0,0,0-3.43-2.38.93.93,0,0,0-1.25,1.26A25.06,25.06,0,0,0,301,276.41Z" fill="#e0dfe6"/><path d="M299.32,269.7c1.8,2,3.66,4.13,5.59,6.11a1.46,1.46,0,0,0,1.07.46h.13a1.51,1.51,0,0,0,1.11-.64,128.18,128.18,0,0,1,9.52-12,1.5,1.5,0,0,0-1.1-2.5c-1.39,0-2.79,0-4.18-.09-2.2-.05-4.48-.1-6.73-.1a84.39,84.39,0,0,0-9.78.49,1.51,1.51,0,0,0-.87,2.57C295.66,265.56,297.44,267.57,299.32,269.7Zm5.41-5.74c2.21,0,4.47.05,6.66.1l1,0c-2.39,2.8-4.73,5.76-6.58,8.32-1.44-1.54-2.85-3.14-4.23-4.7-1.11-1.24-2.17-2.45-3.2-3.56C300.29,264,302.37,264,304.73,264Z" fill="#525d7d"/><path d="M365.9,116.8a3,3,0,0,0,4.28-2.84c3.52-6.64,5.63-16.4-1.27-21.68-4.06-3.11-10.39-1.61-12,3.07a1.1,1.1,0,0,0-.3.42c-1.68,4.15-1.82,7.8.19,12A19.68,19.68,0,0,0,365.9,116.8Zm-7.1-19c2.12-4.56,7.41-1.69,8.12,2.14.59,3.19-.84,6.3-2.23,9.23a20.39,20.39,0,0,1-5.93-11.31S358.79,97.86,358.8,97.84Z" fill="#ffcc80"/><path d="M367.42,122.55h.22a1.52,1.52,0,0,0,1-.63,62.42,62.42,0,0,0,6.86-12.9,24.94,24.94,0,0,0,1.49-7.56c0-7.51-5.59-13.4-12.73-13.4-5,0-12.52,2.29-12.52,8.59,0,12.14,9.24,21.24,14.74,25.59A1.52,1.52,0,0,0,367.42,122.55ZM354.75,96.64c0-4.07,5.84-5.59,9.52-5.59,5.45,0,9.73,4.57,9.73,10.4a21.8,21.8,0,0,1-1.28,6.45,60.74,60.74,0,0,1-5.62,10.95C362,114.54,354.75,106.66,354.75,96.64Z" fill="#525d7d"/><path d="M369.61,102.15c0-2.7-3.45-6-7.16-5.41a1.5,1.5,0,0,0-1.24,1.63,9.24,9.24,0,0,0-1.66,4c0,1.95,2.61,4.46,5.37,4.46A4.53,4.53,0,0,0,369.61,102.15Zm-4.69,1.68a3,3,0,0,1-2.34-1.48,7.13,7.13,0,0,1,1.22-2.42,1.07,1.07,0,0,0,.28-.19,3.52,3.52,0,0,1,2.53,2.41A1.56,1.56,0,0,1,364.92,103.83Z" fill="#525d7d"/><path d="M23.82,182.78c.41-2.24.72-4.48,1-6.73.41-2.78,2.46-3.12,4.88-4.4,4.5-2.37,9.47-4.44,13.58-7.43,2.88-2.1,1.3-7.8-2.65-6.3-6.28,2.38-12.48,6.29-18.24,9.74a8.51,8.51,0,0,0-3,2.91,1.65,1.65,0,0,0-2.83,1.09c.11,3.46.74,6.84,1,10.28C17.94,185.21,23.13,186.49,23.82,182.78Z" fill="#e0dfe6"/><path d="M34.76,181.09a3.53,3.53,0,0,0-4.16-.54c-3.92,2.2-8.19,4-11.9,6.54a1.79,1.79,0,0,0,1.37,3.25,95.9,95.9,0,0,0,11-2.92,15,15,0,0,0,8.46,4.78c1.94,2,5.94,2.21,6.82-1.42,1.42-5.83,3.69-11.5,5.75-17.12s5.15-11.15,6.26-16.9c.22-1.1-1.21-2.26-2.07-1.21-3.65,4.42-5.83,10.2-8.47,15.27-2.21,4.26-4.23,8.65-6.5,12.89C38.77,183.51,36.87,183.08,34.76,181.09Z" fill="#e0dfe6"/><path d="M.78,162.16c1.47.79,2.93,1.6,4.4,2.4,3.32,1.83,6.74,3.71,10.17,5.46.07,5.42.27,10.91.47,16.23l.11,3.11a1.48,1.48,0,0,0,1,1.34,1.45,1.45,0,0,0,.54.11,1.51,1.51,0,0,0,1.07-.45,125.48,125.48,0,0,1,11.29-9.93c1.26.74,2.54,1.45,3.82,2.17,2.1,1.18,4.28,2.4,6.43,3.73a1.52,1.52,0,0,0,2.12-.58c3.81-7.25,7.41-14.73,10.9-22,1.84-3.8,3.66-7.59,5.52-11.35A1.5,1.5,0,0,0,57,150.29c-12.54,2.14-25.33,4.19-37.7,6.17q-9,1.44-18,2.9a1.5,1.5,0,0,0-.48,2.8Zm19-2.74c8.87-1.42,18-2.87,27-4.37,1.21-.48,2.42-1,3.63-1.46.31-.28.62-.57.94-.84a1.49,1.49,0,0,1,1.61-.23l2.68-1.13a1.5,1.5,0,0,1,1.2,2.75c-1,.44-2,.85-3,1.28q-1.73,3.53-3.43,7.07c-3.25,6.74-6.6,13.69-10.12,20.45-1.74-1-3.48-2-5.17-3-1.13-.63-2.27-1.27-3.4-1.93-.31.31-.61.62-.93.92a1.5,1.5,0,0,1-2.12-.08,1.53,1.53,0,0,1-.4-1c-2.76,2.18-6.1,4.91-9.41,8-.2-5.4-.4-11-.46-16.47l-.88.37a1.49,1.49,0,0,1-2-.8,1.48,1.48,0,0,1,.67-1.9c-3.21-1.65-6.42-3.42-9.55-5.14l-.58-.31Z" fill="#525d7d"/><path d="M16.3,167l-.12.06a1.48,1.48,0,0,0-.67,1.9,1.49,1.49,0,0,0,2,.8l.88-.37c6-2.52,12.09-4.85,18-7.11,2.82-1.08,5.69-2.17,8.56-3.29,1.73-1.87,3.55-3.68,5.46-5.41-1.21.5-2.42,1-3.63,1.46-3.83,1.52-7.68,3-11.46,4.44C29.06,161.86,22.61,164.32,16.3,167Z" fill="#525d7d"/><path d="M53.29,155,52,156.17l1.78-.75c1-.43,2-.84,3-1.28a1.5,1.5,0,0,0-1.2-2.75l-2.68,1.13a1.55,1.55,0,0,1,.51.38A1.49,1.49,0,0,1,53.29,155Z" fill="#525d7d"/><path d="M44.93,159c-2,2.2-4,4.45-5.92,6.67a140,140,0,0,1-10.31,11.1,1.48,1.48,0,0,0-.48,1.08,1.53,1.53,0,0,0,.4,1,1.5,1.5,0,0,0,2.12.08c.32-.3.62-.61.93-.92,3.44-3.31,6.58-6.91,9.61-10.41A133.09,133.09,0,0,1,52,156.17L53.29,155a1.49,1.49,0,0,0,.16-2.11,1.55,1.55,0,0,0-.51-.38,1.49,1.49,0,0,0-1.61.23c-.32.27-.63.56-.94.84C48.48,155.32,46.66,157.13,44.93,159Z" fill="#525d7d"/><path d="M331.85,123.14c-2.56.73-3.73,2.66-5.19,4.63a3.09,3.09,0,0,0-4.05,1.13c-2.42,3.74,2,7.12,5.46,7a8.32,8.32,0,0,0,5-2.17c.5-.41,1-.87,1.47-1.28l.25-.14a10.94,10.94,0,0,0,1.68-1.2c1.65-1.27,1.72-4.13.75-5.79A4.87,4.87,0,0,0,331.85,123.14Z" fill="#e0dfe6"/><path d="M328.64,118.91a2.64,2.64,0,0,0-.7.08,7.18,7.18,0,0,0-5.41,7,6.64,6.64,0,0,0,6.2,6.65,6.9,6.9,0,0,0,7-6.75A7.07,7.07,0,0,0,328.64,118.91Zm.09,10.73a3.66,3.66,0,0,1-3.2-3.65,4.18,4.18,0,0,1,3.12-4.08,4.08,4.08,0,0,1,4.1,4A3.86,3.86,0,0,1,328.73,129.64Z" fill="#525d7d"/><path d="M307.05,113.92a1.52,1.52,0,0,0,2.07-.45,37.56,37.56,0,0,1,2.62-3.57l-1.49-1.18-.85-.67a41.62,41.62,0,0,0-2.8,3.79A1.5,1.5,0,0,0,307.05,113.92Z" fill="#525d7d"/><path d="M313.7,107.62c.86-1,1.73-1.9,2.6-2.83l1.59-1.72a1.5,1.5,0,0,0-2.21-2c-.52.57-1.05,1.13-1.58,1.7-.92,1-1.84,2-2.75,3l.77.6C312.65,106.8,313.18,107.22,313.7,107.62Z" fill="#525d7d"/><path d="M311.74,109.9A31.63,31.63,0,0,0,316.3,113a1.53,1.53,0,0,0,.71.18,1.51,1.51,0,0,0,.71-2.83,28,28,0,0,1-4-2.7c-.52-.4-1.05-.82-1.58-1.25l-.77-.6a36.18,36.18,0,0,0-5.29-3.64,1.5,1.5,0,1,0-1.42,2.64,32.06,32.06,0,0,1,4.76,3.28l.85.67Z" fill="#525d7d"/><path d="M103.69,269.36c-.35.56-.73,1.09-1.09,1.64-.06.08-.19.32-.32.49l-.11-.1a2.9,2.9,0,0,0-2.54-.32A2.45,2.45,0,0,0,98,274a3,3,0,0,0,.71,1.22,1.57,1.57,0,0,0,.62.49c.1.11.18.23.28.34a4.64,4.64,0,0,0,1.78,1.07,5.63,5.63,0,0,0,3.3.09c2.59-.75,4-3,4.71-5.45C110.43,268.31,105.54,266.46,103.69,269.36Z" fill="#e0dfe6"/><path d="M127.6,268.84a3.42,3.42,0,0,0-4.13,2.34,4.84,4.84,0,0,1-1.18,1.63,3.43,3.43,0,0,1-2.21.88,2.4,2.4,0,0,0-1.28,4.63A8.55,8.55,0,0,0,130,273,3.4,3.4,0,0,0,127.6,268.84Z" fill="#e0dfe6"/><path d="M144.38,268.17a3.32,3.32,0,0,0-4,2.27c.18-.46-.3.37-.37.53l-.37.4-.24.2c-.2.07-.38.19-.58.28l-.3.1c-.5.11-1,.25-1.5.31-2.15.3-2.62,3.94-.63,4.79,4.26,1.8,8.74-.65,10.24-4.89A3.27,3.27,0,0,0,144.38,268.17Z" fill="#e0dfe6"/><path d="M104.24,265.87a2.6,2.6,0,0,0-1.24-.32c-2.36,0-3.79,3.12-3.79,4.83a4.39,4.39,0,0,0,3.93,4c1.59,0,3.44-1.93,3.44-4.42A4.71,4.71,0,0,0,104.24,265.87ZM103,271.35c-.34-.18-.82-.63-.82-1a3.12,3.12,0,0,1,.77-1.75,1.72,1.72,0,0,1,.6,1.37A1.89,1.89,0,0,1,103,271.35Z" fill="#525d7d"/><path d="M123.13,266.77a1.57,1.57,0,0,0-.49.08,3.34,3.34,0,0,0-.82-.1,3.91,3.91,0,0,0-3.63,3.89,4.05,4.05,0,0,0,4.13,3.95,4.35,4.35,0,0,0,4.41-4.17A3.55,3.55,0,0,0,123.13,266.77Zm-.81,4.82a1,1,0,0,1-1.13-.95,1.09,1.09,0,0,1,.63-.89.6.6,0,0,1,.2,0,1.49,1.49,0,0,0,1,0c.26,0,.69,0,.69.65A1.38,1.38,0,0,1,122.32,271.59Z" fill="#525d7d"/><path d="M140.76,265.09a3.71,3.71,0,0,0-3,3.93c0,4.21,2.83,4.67,4,4.67a4.27,4.27,0,0,0,4-4.29A4.5,4.5,0,0,0,140.76,265.09Zm1.06,5.6c-.56,0-1,0-1-1.67a1.16,1.16,0,0,1,.35-.94,1.5,1.5,0,0,1,1.68,1.32C142.81,269.84,142.39,270.69,141.82,270.69Z" fill="#525d7d"/></svg>