<svg width="163" height="147" viewBox="0 0 163 147" fill="none" xmlns="http://www.w3.org/2000/svg">
<path d="M84.1083 129.13C116.003 129.13 141.86 103.255 141.86 71.337C141.86 39.4189 116.003 13.5441 84.1083 13.5441C52.2131 13.5441 26.3569 39.4189 26.3569 71.337C26.3569 103.255 52.2131 129.13 84.1083 129.13Z" fill="#EAEEF9"/>
<path d="M86.2256 71.337L125.65 23.8483" stroke="#C2C8D6" stroke-width="3" stroke-dasharray="4 4"/>
<path d="M86.2255 71.337L64.7212 16.6802" stroke="#C2C8D6" stroke-width="3" stroke-dasharray="4 4"/>
<path d="M86.2254 71.337L20.8164 68.649" stroke="#C2C8D6" stroke-width="3" stroke-dasharray="4 4"/>
<path d="M86.2256 71.337L61.1372 128.682" stroke="#C2C8D6" stroke-width="3" stroke-dasharray="4 4"/>
<path d="M86.2256 71.337L142.674 103.594" stroke="#C2C8D6" stroke-width="3" stroke-dasharray="4 4"/>
<path d="M80.079 17.0944C80.079 21.4313 78.347 25.2862 75.6529 28.1775C75.4605 28.4666 75.1718 28.6593 74.8832 28.8521C71.9966 31.5506 68.1479 33.1889 63.9142 33.1889C60.5466 33.1889 57.3714 32.1288 54.7735 30.2977C54.0037 29.8158 53.3302 29.1412 52.6566 28.563C49.6739 25.6717 47.8457 21.624 47.8457 17.0944C47.8457 8.22802 55.0621 0.999969 63.9142 0.999969C72.8626 0.999969 80.079 8.22802 80.079 17.0944Z" fill="#D5DDEA"/>
<path d="M80.079 17.0936C80.079 21.8159 78.0584 25.96 74.8832 28.9476C71.9966 31.646 68.1479 33.2844 63.9142 33.2844C60.5466 33.2844 57.3714 32.2243 54.7735 30.3932C50.5398 27.502 47.8457 22.6832 47.8457 17.1899C47.8457 8.32351 55.0621 1.09546 63.9142 1.09546C72.7664 1.09546 80.079 8.22714 80.079 17.0936Z" fill="#D5DDEA"/>
<path fill-rule="evenodd" clip-rule="evenodd" d="M63.914 2.09546C55.6146 2.09546 48.8448 8.87495 48.8448 17.1899C48.8448 22.3457 51.3698 26.8582 55.3365 29.5672L55.3426 29.5714L55.3486 29.5756C57.7821 31.2908 60.7571 32.2844 63.914 32.2844C67.8834 32.2844 71.4906 30.7499 74.1998 28.2178C77.1905 25.4031 79.0795 21.5166 79.0795 17.0936C79.0795 8.79411 72.229 2.09546 63.914 2.09546ZM46.8462 17.1899C46.8462 7.77207 54.5092 0.095459 63.914 0.095459C73.3032 0.095459 81.078 7.66017 81.078 17.0936C81.078 22.1145 78.9264 26.5157 75.5674 29.6761L75.5651 29.6783C72.5012 32.5425 68.4113 34.2844 63.914 34.2844C60.3382 34.2844 56.9651 33.1594 54.2038 31.215C49.7068 28.141 46.8462 23.0182 46.8462 17.1899Z" fill="#D5DDEA"/>
<path d="M75.653 28.1775C75.4606 28.4666 75.1719 28.6594 74.8833 28.8521C71.9967 31.5506 68.1479 33.1889 63.9143 33.1889C60.5467 33.1889 57.3715 32.1288 54.7736 30.2977C54.0038 29.8158 53.3303 29.1412 52.6567 28.563C53.0416 28.0811 53.6189 27.792 54.8698 27.3101L55.3509 27.1174C56.3131 26.7319 57.6601 26.25 59.392 25.479C59.6807 25.3826 59.8731 25.1899 60.0656 24.9971C60.1618 24.9008 60.258 24.8044 60.258 24.6116C60.3542 24.4189 60.4504 24.1298 60.4504 23.937V20.6603C60.3542 20.5639 60.3542 20.5639 60.258 20.4676C59.9694 20.0821 59.7769 19.6002 59.7769 19.0219L59.5845 18.9256C58.7185 19.1183 58.8147 18.251 58.6223 16.5162C58.5261 15.8416 58.6223 15.6489 59.0072 15.5525L59.2958 15.167C58.7185 13.8177 58.4299 12.5649 58.4299 11.6011C58.4299 9.96279 59.1034 8.90267 60.0656 8.4208C59.4883 7.26431 59.4883 6.87881 59.4883 6.87881C59.4883 6.87881 62.8559 7.45706 64.0105 7.26431C65.4538 6.97519 67.7631 7.36069 68.629 9.28817C70.0723 9.86641 70.5534 10.7338 70.7459 11.6975C70.9383 13.2395 70.0723 14.8779 69.8799 15.5525V15.6489C70.0723 15.7452 70.1685 15.938 70.0723 16.6126C69.8799 18.251 69.8799 19.2147 69.1101 19.0219L68.3404 20.3712C68.3404 20.5639 68.3404 20.5639 68.2442 20.6603C68.2442 20.9494 68.2442 21.4313 68.2442 24.0334C68.2442 24.3225 68.3404 24.708 68.5328 24.9008C68.629 24.9971 68.629 25.0935 68.7253 25.0935C68.9177 25.2863 69.1101 25.479 69.3026 25.479C71.2269 26.25 72.574 26.8282 73.6324 27.2137C74.5946 27.5992 75.2681 27.8884 75.653 28.1775Z" fill="white"/>
<path d="M75.653 28.1774C75.4606 28.4665 75.1719 28.6593 74.8833 28.852C71.9967 31.5505 68.1479 33.1889 63.9143 33.1889C60.5467 33.1889 57.3715 32.1288 54.7736 30.2976C54.0038 29.8158 53.3303 29.1412 52.6567 28.5629C53.0416 28.081 53.6189 27.7919 54.8698 27.31L55.3509 27.1173C56.3131 26.7318 57.6601 26.2499 59.392 25.4789C59.6807 25.3826 59.8731 25.1898 60.0656 24.9971C61.0278 26.3463 62.5673 27.2137 64.3954 27.2137C66.1274 27.2137 67.6669 26.3463 68.629 25.0934C68.8215 25.2862 69.0139 25.4789 69.2064 25.4789C71.1307 26.2499 72.4778 26.8282 73.5362 27.2137C74.5946 27.5992 75.2681 27.8883 75.653 28.1774Z" fill="#C2C8D6"/>
<path d="M69.7837 15.4561C69.88 15.0706 69.6875 14.4924 69.4951 14.2032C69.4951 14.1069 69.3989 14.1069 69.3989 14.0105C68.7253 12.6613 67.2821 12.1794 65.935 12.083C62.3749 11.8903 62.0863 12.5649 61.0278 11.6011C61.4127 12.083 61.4127 12.9504 60.8354 13.9141C60.4505 14.5887 59.777 14.9742 59.1035 15.167C57.4678 11.5048 58.3337 9.19179 59.8732 8.4208C59.2959 7.26431 59.2959 6.87881 59.2959 6.87881C59.2959 6.87881 62.6636 7.45706 63.8182 7.26431C65.2615 6.97519 67.5707 7.36069 68.4367 9.28817C69.88 9.86641 70.3611 10.7338 70.5535 11.6975C70.8421 13.1431 69.9762 14.7815 69.7837 15.4561Z" fill="#989FB0"/>
<path d="M60.546 23.9369V20.6602C60.4497 20.5638 60.4497 20.5638 60.3535 20.4674V20.2747C60.546 20.5638 60.7384 20.8529 61.0271 21.0457L63.625 22.8768C64.2023 23.3587 65.0682 23.3587 65.6455 22.8768L68.051 20.7566C68.1472 20.6602 68.2435 20.6602 68.3397 20.5638C68.3397 20.8529 68.3397 21.3348 68.3397 23.9369C68.3397 24.1296 68.3397 24.226 68.4359 24.4188H60.546C60.4497 24.226 60.546 24.1296 60.546 23.9369Z" fill="url(#paint0_linear_32_534)"/>
<path d="M110.476 71.7082C110.476 78.6893 107.688 84.8946 103.352 89.5487C103.042 90.0141 102.577 90.3244 102.112 90.6346C97.4659 94.9784 91.2705 97.6157 84.4556 97.6157C79.0346 97.6157 73.9234 95.9092 69.7416 92.9617C68.5025 92.186 67.4183 91.1 66.3341 90.1692C61.5327 85.5152 58.5898 78.9995 58.5898 71.7082C58.5898 57.4358 70.2062 45.8007 84.4556 45.8007C98.8599 45.8007 110.476 57.4358 110.476 71.7082Z" fill="#D5DDEA"/>
<path d="M110.477 71.7068C110.477 79.3084 107.224 85.9792 102.113 90.7884C97.4664 95.1321 91.271 97.7694 84.4561 97.7694C79.0351 97.7694 73.9239 96.0629 69.742 93.1154C62.9271 88.4613 58.5903 80.7046 58.5903 71.8619C58.5903 57.5895 70.2067 45.9544 84.4561 45.9544C98.7055 45.9544 110.477 57.4344 110.477 71.7068Z" fill="#D5DDEA"/>
<path fill-rule="evenodd" clip-rule="evenodd" d="M84.4559 46.9544C70.7592 46.9544 59.5894 58.1409 59.5894 71.8619C59.5894 80.367 63.7571 87.8176 70.3051 92.2894L70.3112 92.2936L70.3172 92.2978C74.3346 95.1294 79.2457 96.7694 84.4559 96.7694C91.0062 96.7694 96.9596 94.2364 101.429 90.0594C106.356 85.4231 109.477 79.0095 109.477 71.7068C109.477 58.0013 98.1682 46.9544 84.4559 46.9544ZM57.5908 71.8619C57.5908 57.038 69.6537 44.9544 84.4559 44.9544C99.2424 44.9544 111.476 56.8674 111.476 71.7068C111.476 79.607 108.092 86.5349 102.797 91.5169L102.795 91.5191C97.971 96.0286 91.5345 98.7694 84.4559 98.7694C78.8268 98.7694 73.5178 96.9981 69.1725 93.9373C62.0941 89.1005 57.5908 81.0396 57.5908 71.8619Z" fill="#D5DDEA"/>
<path d="M103.353 89.5488C103.044 90.0142 102.579 90.3244 102.114 90.6347C97.4678 94.9785 91.2724 97.6158 84.4575 97.6158C79.0365 97.6158 73.9253 95.9093 69.7434 92.9617C68.5043 92.1861 67.4201 91.1001 66.3359 90.1693C66.9555 89.3936 67.8848 88.9282 69.8983 88.1525L70.6727 87.8423C72.2216 87.2217 74.3899 86.4461 77.1779 85.205C77.6425 85.0499 77.9523 84.7396 78.2621 84.4293C78.417 84.2742 78.5718 84.119 78.5718 83.8088C78.7267 83.4985 78.8816 83.0331 78.8816 82.7228V77.4482C78.7267 77.2931 78.7267 77.2931 78.5718 77.138C78.1072 76.5174 77.7974 75.7418 77.7974 74.8109L77.4876 74.6558C76.0937 74.9661 76.2486 73.5699 75.9388 70.7774C75.7839 69.6915 75.9388 69.3812 76.5583 69.2261L77.023 68.6055C76.0937 66.4337 75.629 64.4169 75.629 62.8656C75.629 60.2283 76.7132 58.5218 78.2621 57.7461C77.3328 55.8845 77.3328 55.2639 77.3328 55.2639C77.3328 55.2639 82.7537 56.1948 84.6123 55.8845C86.9356 55.4191 90.6528 56.0396 92.0468 59.1423C94.3701 60.0731 95.1445 61.4693 95.4543 63.0207C95.764 65.5029 94.3701 68.1401 94.0603 69.2261V69.3812C94.3701 69.5364 94.525 69.8466 94.3701 70.9326C94.0603 73.5699 94.0603 75.1212 92.8212 74.8109L91.5822 76.9828C91.5822 77.2931 91.5822 77.2931 91.4273 77.4482C91.4273 77.9136 91.4273 78.6893 91.4273 82.878C91.4273 83.3434 91.5822 83.9639 91.8919 84.2742C92.0468 84.4293 92.0468 84.5844 92.2017 84.5844C92.5115 84.8947 92.8212 85.205 93.131 85.205C96.2287 86.4461 98.3971 87.3769 100.101 87.9974C101.65 88.6179 102.734 89.0834 103.353 89.5488Z" fill="white"/>
<path d="M103.352 89.5486C103.042 90.014 102.578 90.3243 102.113 90.6346C97.4663 94.9784 91.2709 97.6157 84.456 97.6157C79.035 97.6157 73.9238 95.9092 69.7419 92.9616C68.5029 92.1859 67.4187 91.1 66.3345 90.1692C66.954 89.3935 67.8833 88.9281 69.8968 88.1524L70.6713 87.8422C72.2201 87.2216 74.3885 86.446 77.1764 85.2049C77.6411 85.0497 77.9508 84.7395 78.2606 84.4292C79.8095 86.6011 82.2876 87.9973 85.2304 87.9973C88.0183 87.9973 90.4965 86.6011 92.0453 84.5843C92.3551 84.8946 92.6649 85.2049 92.9747 85.2049C96.0724 86.446 98.2407 87.3768 99.9445 87.9973C101.648 88.6178 102.732 89.0832 103.352 89.5486Z" fill="#C2C8D6"/>
<path d="M94.223 69.071C94.3806 68.4504 94.0655 67.5196 93.7504 67.0542C93.7504 66.8991 93.5929 66.8991 93.5929 66.7439C92.4901 64.572 90.1271 63.7964 87.9215 63.6412C82.0927 63.331 81.6201 64.4169 79.8871 62.8656C80.5173 63.6412 80.5173 65.0374 79.5721 66.5888C78.9419 67.6747 77.8392 68.2953 76.7364 68.6055C74.0583 62.7104 75.4761 58.9872 77.9967 57.7461C77.0515 55.8845 77.0515 55.2639 77.0515 55.2639C77.0515 55.2639 82.5653 56.1948 84.4557 55.8845C86.8188 55.4191 90.5997 56.0396 92.0175 59.1423C94.3806 60.0731 95.1682 61.4693 95.4833 63.0207C95.9559 65.3477 94.5381 67.985 94.223 69.071Z" fill="#989FB0"/>
<path d="M79.0349 82.7226V77.4481C78.88 77.2929 78.88 77.2929 78.7251 77.1378V76.8275C79.0349 77.2929 79.3446 77.7583 79.8093 78.0686L83.9912 81.0162C84.9205 81.7918 86.3145 81.7918 87.2438 81.0162L91.1159 77.6032C91.2708 77.4481 91.4257 77.448 91.5805 77.2929C91.5805 77.7583 91.5805 78.534 91.5805 82.7226C91.5805 83.0329 91.5805 83.188 91.7354 83.4983H79.0349C78.88 83.188 79.0349 83.0329 79.0349 82.7226Z" fill="url(#paint1_linear_32_534)"/>
<path d="M134.697 23.8267C134.697 26.5975 133.59 29.0604 131.869 30.9075C131.746 31.0923 131.561 31.2154 131.377 31.3386C129.533 33.0626 127.074 34.1093 124.369 34.1093C122.217 34.1093 120.189 33.432 118.529 32.2621C118.037 31.9543 117.607 31.5233 117.177 31.1538C115.271 29.3067 114.103 26.7206 114.103 23.8267C114.103 18.1621 118.714 13.5441 124.369 13.5441C130.086 13.5441 134.697 18.1621 134.697 23.8267Z" fill="#D5DDEA"/>
<path d="M134.697 23.8262C134.697 26.8432 133.406 29.4908 131.377 31.3996C129.533 33.1236 127.074 34.1703 124.37 34.1703C122.218 34.1703 120.189 33.493 118.53 32.3232C115.825 30.476 114.104 27.3974 114.104 23.8878C114.104 18.2231 118.714 13.6052 124.37 13.6052C130.025 13.6052 134.697 18.1615 134.697 23.8262Z" fill="#D5DDEA"/>
<path fill-rule="evenodd" clip-rule="evenodd" d="M124.369 14.6052C119.267 14.6052 115.103 18.7745 115.103 23.8878C115.103 27.0598 116.655 29.8323 119.093 31.4972L119.099 31.5014L119.105 31.5056C120.6 32.5595 122.429 33.1703 124.369 33.1703C126.81 33.1703 129.027 32.2276 130.694 30.67C132.538 28.9342 133.698 26.5441 133.698 23.8262C133.698 18.7285 129.488 14.6052 124.369 14.6052ZM113.104 23.8878C113.104 17.6716 118.161 12.6052 124.369 12.6052C130.562 12.6052 135.696 17.5946 135.696 23.8262C135.696 27.1418 134.274 30.0465 132.062 32.1281L132.059 32.1303C130.038 34.0201 127.338 35.1703 124.369 35.1703C122.01 35.1703 119.783 34.4282 117.96 33.145C114.992 31.1151 113.104 27.7323 113.104 23.8878Z" fill="#D5DDEA"/>
<path d="M131.87 30.9076C131.747 31.0923 131.562 31.2155 131.378 31.3386C129.534 33.0626 127.075 34.1094 124.37 34.1094C122.219 34.1094 120.19 33.4321 118.53 32.2622C118.038 31.9543 117.608 31.5233 117.178 31.1539C117.424 30.846 117.792 30.6613 118.592 30.3535L118.899 30.2303C119.514 29.984 120.374 29.6762 121.481 29.1836C121.665 29.122 121.788 28.9989 121.911 28.8757C121.973 28.8142 122.034 28.7526 122.034 28.6294C122.096 28.5063 122.157 28.3216 122.157 28.1984V26.105C122.096 26.0434 122.096 26.0434 122.034 25.9818C121.85 25.7355 121.727 25.4277 121.727 25.0582L121.604 24.9967C121.051 25.1198 121.112 24.5657 120.989 23.4574C120.928 23.0263 120.989 22.9032 121.235 22.8416L121.419 22.5953C121.051 21.7333 120.866 20.9329 120.866 20.3172C120.866 19.2704 121.296 18.5931 121.911 18.2853C121.542 17.5464 121.542 17.3001 121.542 17.3001C121.542 17.3001 123.694 17.6695 124.432 17.5464C125.354 17.3617 126.829 17.608 127.382 18.8394C128.304 19.2089 128.612 19.763 128.735 20.3787C128.858 21.3639 128.304 22.4106 128.181 22.8416V22.9032C128.304 22.9648 128.366 23.0879 128.304 23.5189C128.181 24.5657 128.181 25.1814 127.69 25.0582L127.198 25.9202C127.198 26.0434 127.198 26.0434 127.136 26.105C127.136 26.2897 127.136 26.5975 127.136 28.26C127.136 28.4447 127.198 28.691 127.321 28.8141C127.382 28.8757 127.382 28.9373 127.444 28.9373C127.567 29.0604 127.69 29.1836 127.813 29.1836C129.042 29.6762 129.903 30.0456 130.579 30.2919C131.194 30.5382 131.624 30.7229 131.87 30.9076Z" fill="white"/>
<path d="M131.869 30.9075C131.746 31.0922 131.562 31.2154 131.378 31.3385C129.533 33.0626 127.074 34.1093 124.37 34.1093C122.218 34.1093 120.189 33.432 118.53 32.2621C118.038 31.9543 117.608 31.5233 117.177 31.1538C117.423 30.846 117.792 30.6612 118.591 30.3534L118.898 30.2302C119.513 29.9839 120.374 29.6761 121.48 29.1835C121.665 29.1219 121.788 28.9988 121.911 28.8756C122.525 29.7377 123.509 30.2918 124.677 30.2918C125.783 30.2918 126.767 29.7377 127.382 28.9372C127.505 29.0604 127.628 29.1835 127.751 29.1835C128.98 29.6761 129.841 30.0455 130.517 30.2918C131.193 30.5381 131.623 30.7228 131.869 30.9075Z" fill="#C2C8D6"/>
<path d="M128.119 22.78C128.181 22.5337 128.058 22.1643 127.935 21.9796C127.935 21.918 127.874 21.918 127.874 21.8564C127.443 20.9944 126.521 20.6866 125.661 20.625C123.386 20.5018 123.202 20.9329 122.525 20.3171C122.771 20.625 122.771 21.1791 122.402 21.7949C122.157 22.2259 121.726 22.4722 121.296 22.5953C120.251 20.2556 120.804 18.7778 121.788 18.2852C121.419 17.5464 121.419 17.3001 121.419 17.3001C121.419 17.3001 123.57 17.6695 124.308 17.5464C125.23 17.3617 126.706 17.6079 127.259 18.8394C128.181 19.2088 128.488 19.763 128.611 20.3787C128.796 21.3023 128.242 22.349 128.119 22.78Z" fill="#989FB0"/>
<path d="M122.218 28.1983V26.1049C122.156 26.0433 122.156 26.0433 122.095 25.9817V25.8586C122.218 26.0433 122.341 26.228 122.525 26.3512L124.185 27.521C124.554 27.8289 125.107 27.8289 125.476 27.521L127.013 26.1664C127.074 26.1049 127.136 26.1049 127.197 26.0433C127.197 26.228 127.197 26.5359 127.197 28.1983C127.197 28.3215 127.197 28.383 127.258 28.5062H122.218C122.156 28.383 122.218 28.3215 122.218 28.1983Z" fill="url(#paint2_linear_32_534)"/>
<path d="M38.1892 68.6496C38.1892 73.9785 35.9252 78.7405 32.3029 82.1419C31.2841 83.0489 30.2653 83.8426 29.0201 84.5229C26.3034 86.1102 23.1338 87.0173 19.7379 87.0173C16.342 87.0173 13.1724 86.1102 10.4557 84.5229C10.0029 84.2961 9.66328 84.0693 9.21049 83.7292C4.45617 80.4412 1.28662 74.8855 1.28662 68.6496C1.28662 58.4453 9.55008 50.2819 19.6247 50.2819C29.9257 50.1685 38.1892 58.4453 38.1892 68.6496Z" fill="#D5DDEA"/>
<path fill-rule="evenodd" clip-rule="evenodd" d="M37.1897 68.6496C37.1897 58.9986 29.3771 51.1746 19.6355 51.2818L19.6245 51.2819V51.2819C10.0986 51.2819 2.28567 59.0007 2.28567 68.6496C2.28567 74.5414 5.28089 79.7961 9.77838 82.9065L9.7945 82.9177L9.81017 82.9295C10.2359 83.2493 10.5227 83.4383 10.9026 83.6286L10.9315 83.643L10.9593 83.6593C13.5258 85.1589 16.5219 86.0173 19.7377 86.0173C22.9535 86.0173 25.9495 85.1589 28.5161 83.6593L28.5285 83.652L28.5411 83.6452C29.6924 83.0162 30.6456 82.2779 31.6285 81.4036C35.0563 78.1802 37.1897 73.6809 37.1897 68.6496ZM19.619 49.2819C30.4768 49.1653 39.1882 57.8938 39.1882 68.6496C39.1882 74.2713 36.7976 79.2923 32.9864 82.8711L32.9768 82.8802L32.9669 82.889C31.919 83.822 30.8407 84.6658 29.5114 85.3937C26.6472 87.0643 23.3086 88.0173 19.7377 88.0173C16.173 88.0173 12.8398 87.0676 9.97894 85.4024C9.47363 85.1469 9.08986 84.8885 8.62602 84.5407C3.62382 81.0736 0.287109 75.2226 0.287109 68.6496C0.287109 57.8917 8.99813 49.2848 19.619 49.2819Z" fill="#D5DDEA"/>
<path d="M16.0032 72.7307C16.2296 72.9575 16.456 73.2976 16.7956 73.5244C17.022 73.7512 17.2484 73.8645 17.4748 74.0913C17.588 74.2047 17.8144 74.3181 17.9276 74.4315C17.9276 74.4315 18.0408 74.4315 18.0408 74.5448L18.154 74.6582V76.2455C18.154 76.2455 18.154 76.2456 18.0408 76.1322C17.9276 76.0188 17.7012 75.9054 17.588 75.792C17.3616 75.6786 17.1352 75.4519 16.9088 75.3385C16.7956 75.3385 16.7956 75.2251 16.6824 75.2251C15.89 74.7716 15.2109 74.3181 15.2109 73.7512C15.324 73.5244 15.5504 73.1843 16.0032 72.7307ZM31.7501 81.5006C31.0709 80.0266 30.153 78.6265 28.5682 77.8329C27.7758 77.4927 26.8703 77.1526 25.9647 77.1526C25.7383 77.1526 25.3987 77.1526 25.1723 77.1526C25.0591 77.1526 24.9459 77.1526 24.8327 77.1526C23.5875 77.0392 23.4743 76.8125 23.4743 76.8125V74.2047C24.2667 73.5244 25.0591 72.7307 25.7383 71.9371C26.3043 71.1434 26.7571 70.2364 26.9835 69.1026C28.0022 68.8758 28.6814 67.9687 28.5682 66.8349C28.5682 66.3814 28.2286 65.9279 28.2286 65.4744C28.2286 65.2476 28.2286 65.0208 28.2286 64.7941C28.2286 64.6807 28.2286 64.4539 28.2286 64.3406C28.2286 64.2272 28.2286 64.0004 28.2286 63.887C28.1154 63.0934 27.889 62.2997 27.4362 61.3927C26.0779 58.8983 23.5875 57.3109 20.6444 57.3109C20.0784 57.3109 19.5124 57.4243 18.9464 57.5377C17.9276 57.7645 16.9088 58.218 16.1164 58.8983C16.0032 59.0117 15.7768 59.125 15.6636 59.3518L15.5504 59.4652C14.6449 60.3722 13.8525 61.3927 13.5129 62.6398C13.0601 63.887 13.0601 65.1342 13.1733 66.3814C13.1733 66.3814 13.1733 66.3814 13.1733 66.4948V66.6082C13.1733 66.8349 13.2865 66.8349 13.1733 66.9483C13.1733 67.0617 13.0601 67.0617 13.0601 67.1751C12.8337 67.5152 12.7205 67.9687 12.9469 68.649C13.3997 69.7828 14.0789 69.6695 14.8713 70.2364C14.8713 70.2364 14.7581 70.2364 14.7581 70.3497L13.9657 70.5765C10.3433 71.7103 9.09815 74.7716 10.6829 76.6991C11.2489 77.3794 12.1545 77.9463 13.5129 78.2864C13.1733 78.2864 12.8337 78.5132 12.6073 78.7399C11.0225 79.9871 10.0037 81.9146 9.77734 83.7287C9.77734 83.8421 9.77734 83.9555 9.77734 84.0688C10.2301 84.2956 10.5697 84.6357 11.0225 84.8625L28.7483 84.4478C29.8803 83.7675 30.3811 83.2423 31.3999 82.3353C31.2867 81.7684 31.8633 81.6139 31.7501 81.5006Z" fill="white"/>
<path d="M32.3033 82.1417C31.2846 83.0487 30.2658 83.8424 29.0206 84.5227C26.3038 86.11 23.1343 87.0171 19.7384 87.0171C16.3424 87.0171 13.1729 86.11 10.4561 84.5227C10.0033 84.2959 9.66373 84.0692 9.21094 83.729C9.21094 83.6156 9.21094 83.5023 9.21094 83.3889C9.43733 81.5748 10.4561 79.6473 12.0409 78.4001C12.2673 78.1734 12.6069 78.06 12.9465 77.9466C11.5881 77.7198 10.6825 77.1529 10.1165 76.3593H14.418C15.6632 78.06 17.5876 79.0804 19.8516 79.0804C21.7759 79.0804 23.4739 78.2867 24.7191 77.0395C24.8323 77.0395 24.9455 77.0395 25.0587 77.0395C25.2851 77.0395 25.5115 77.0395 25.8511 77.0395C26.7566 77.0395 27.6622 77.2663 28.4546 77.7198C30.0394 78.5135 31.1714 79.8741 31.9638 81.4614C32.1901 81.6882 32.1902 81.9149 32.3033 82.1417Z" fill="#C2C8D6"/>
<path d="M23.587 74.205V76.586L16.4556 76.8128L16.7952 75.2255C16.9084 75.2255 16.9084 75.3389 17.0216 75.3389C17.248 75.4522 17.4743 75.679 17.7007 75.7924C17.8139 75.9058 17.9271 76.0191 18.1535 76.1325C18.1535 76.1325 18.2667 76.1325 18.2667 76.2459V74.6586L18.1535 74.5452C19.3987 75.2255 21.0967 75.679 23.587 74.205Z" fill="url(#paint3_linear_32_534)"/>
<path d="M28.2279 64.3409C26.8696 64.7945 25.2848 65.0212 23.8132 64.9079C21.436 64.6811 19.1721 63.774 17.3609 62.1867C16.7949 63.8874 15.3234 65.1346 13.6254 65.9283C13.399 66.0417 13.1726 66.155 12.9462 66.155C12.9462 66.155 12.9462 66.155 12.9462 66.0417C12.833 64.7945 12.833 63.5473 13.2858 62.3001C13.6254 61.0529 14.4178 60.0325 15.3234 59.1254L15.4365 59.0121C15.5497 58.8987 15.7761 58.7853 15.8893 58.5585C16.6817 57.8782 17.7005 57.4247 18.7193 57.198C19.2853 57.0846 19.8513 56.9712 20.4173 56.9712C23.3604 56.9712 25.964 58.5585 27.2091 61.0529C27.6619 61.9599 27.8883 62.867 28.0015 63.5473C28.2279 64.0008 28.2279 64.2276 28.2279 64.3409Z" fill="#989FB0"/>
<path d="M19.1721 81.1214C18.4929 81.9151 17.3609 81.9151 16.3422 81.9151C17.3609 80.8947 16.7949 77.6066 13.1726 77.9468C8.19189 77.0397 8.64469 71.8242 13.6254 70.2369L14.4178 70.0101L14.531 70.1235C14.8706 71.1439 15.4366 72.051 16.0026 72.7312C13.965 74.432 16.7949 74.8855 18.1533 76.2461C19.2853 76.9263 20.3041 79.7609 19.1721 81.1214Z" fill="#989FB0"/>
<path d="M73.8113 131.293C73.8113 135.56 71.9986 139.373 69.0983 142.096C68.2826 142.823 67.4669 143.458 66.4699 144.003C64.2946 145.274 61.7568 146 59.0378 146C56.3187 146 53.7809 145.274 51.6056 144.003C51.2431 143.821 50.9712 143.64 50.6086 143.367C46.802 140.735 44.2642 136.286 44.2642 131.293C44.2642 123.123 50.8806 116.587 58.9471 116.587C67.195 116.496 73.8113 123.123 73.8113 131.293Z" fill="#D5DDEA"/>
<path fill-rule="evenodd" clip-rule="evenodd" d="M72.8118 131.293C72.8118 123.676 66.6463 117.502 58.9579 117.587L58.9469 117.587V117.587C51.429 117.587 45.2632 123.678 45.2632 131.293C45.2632 135.942 47.6267 140.09 51.1765 142.545L51.1927 142.556L51.2083 142.568C51.5438 142.82 51.7629 142.963 52.0526 143.108L52.0814 143.123L52.1093 143.139C54.1343 144.322 56.4986 145 59.0375 145C61.5764 145 63.9408 144.322 65.9658 143.139L65.9782 143.132L65.9908 143.125C66.8939 142.632 67.6441 142.052 68.4239 141.358C71.1297 138.813 72.8118 135.262 72.8118 131.293ZM58.9414 115.587C67.7461 115.493 74.8104 122.571 74.8104 131.293C74.8104 135.853 72.8711 139.925 69.7818 142.826L69.7722 142.835L69.7623 142.843C68.9175 143.596 68.0423 144.281 66.9612 144.874C64.6385 146.228 61.9316 147 59.0375 147C56.1496 147 53.4482 146.231 51.1288 144.882C50.7139 144.672 50.3981 144.459 50.0241 144.179C45.9696 141.367 43.2646 136.623 43.2646 131.293C43.2646 122.569 50.3286 115.59 58.9414 115.587Z" fill="#D5DDEA"/>
<path d="M56.047 134.561C56.2282 134.743 56.4095 135.015 56.6814 135.196C56.8627 135.378 57.044 135.469 57.2252 135.65C57.3159 135.741 57.4971 135.832 57.5878 135.923C57.5878 135.923 57.6784 135.923 57.6784 136.014L57.769 136.104V137.375C57.769 137.375 57.769 137.375 57.6784 137.284C57.5878 137.194 57.4065 137.103 57.3159 137.012C57.1346 136.921 56.9533 136.74 56.7721 136.649C56.6814 136.649 56.6814 136.558 56.5908 136.558C55.9563 136.195 55.4125 135.832 55.4125 135.378C55.5032 135.196 55.6844 134.924 56.047 134.561ZM68.6552 141.583C68.1113 140.403 67.3764 139.282 66.1075 138.646C65.4731 138.374 64.748 138.101 64.0229 138.101C63.8416 138.101 63.5697 138.101 63.3884 138.101C63.2978 138.101 63.2072 138.101 63.1165 138.101C62.1195 138.011 62.0289 137.829 62.0289 137.829V135.741C62.6634 135.196 63.2978 134.561 63.8416 133.926C64.2948 133.29 64.6573 132.564 64.8386 131.656C65.6543 131.474 66.1981 130.748 66.1075 129.84C66.1075 129.477 65.8356 129.114 65.8356 128.751C65.8356 128.569 65.8356 128.388 65.8356 128.206C65.8356 128.115 65.8356 127.934 65.8356 127.843C65.8356 127.752 65.8356 127.571 65.8356 127.48C65.745 126.845 65.5637 126.209 65.2012 125.483C64.1135 123.486 62.1195 122.215 59.763 122.215C59.3098 122.215 58.8567 122.305 58.4035 122.396C57.5878 122.578 56.7721 122.941 56.1376 123.486C56.047 123.576 55.8657 123.667 55.7751 123.849L55.6844 123.94C54.9593 124.666 54.3249 125.483 54.053 126.481C53.6904 127.48 53.6904 128.479 53.7811 129.477C53.7811 129.477 53.7811 129.477 53.7811 129.568V129.659C53.7811 129.84 53.8717 129.84 53.7811 129.931C53.7811 130.022 53.6904 130.022 53.6904 130.113C53.5092 130.385 53.4185 130.748 53.5998 131.293C53.9623 132.201 54.5062 132.11 55.1406 132.564C55.1406 132.564 55.05 132.564 55.05 132.655L54.4155 132.836C51.5152 133.744 50.5182 136.195 51.7871 137.738C52.2403 138.283 52.9654 138.737 54.053 139.009C53.7811 139.009 53.5092 139.191 53.3279 139.372C52.059 140.371 51.2433 141.914 51.062 143.367C51.062 143.458 51.062 143.548 51.062 143.639C51.4246 143.821 51.6965 144.093 52.059 144.275L66.2517 143.943C67.1581 143.398 67.5591 142.977 68.3748 142.251C68.2841 141.797 68.7458 141.674 68.6552 141.583Z" fill="white"/>
<path d="M69.0985 142.096C68.2828 142.822 67.4671 143.458 66.4701 144.003C64.2949 145.274 61.7571 146 59.038 146C56.3189 146 53.7811 145.274 51.6059 144.003C51.2433 143.821 50.9714 143.639 50.6089 143.367C50.6089 143.276 50.6089 143.186 50.6089 143.095C50.7902 141.642 51.6059 140.099 52.8748 139.1C53.056 138.919 53.328 138.828 53.5999 138.737C52.5122 138.556 51.7871 138.102 51.334 137.466H54.7781C55.7751 138.828 57.3159 139.645 59.1286 139.645C60.6694 139.645 62.029 139.01 63.026 138.011C63.1166 138.011 63.2072 138.011 63.2979 138.011C63.4791 138.011 63.6604 138.011 63.9323 138.011C64.6574 138.011 65.3825 138.193 66.0169 138.556C67.2858 139.191 68.1922 140.281 68.8266 141.551C69.0079 141.733 69.0079 141.915 69.0985 142.096Z" fill="#C2C8D6"/>
<path d="M62.1202 135.741V137.648L56.4102 137.829L56.6821 136.558C56.7727 136.558 56.7727 136.649 56.8633 136.649C57.0446 136.74 57.2259 136.922 57.4071 137.012C57.4978 137.103 57.5884 137.194 57.7697 137.285C57.7697 137.285 57.8603 137.285 57.8603 137.375V136.105L57.7697 136.014C58.7667 136.558 60.1262 136.922 62.1202 135.741Z" fill="url(#paint4_linear_32_534)"/>
<path d="M65.836 127.843C64.7483 128.207 63.4794 128.388 62.3012 128.297C60.3978 128.116 58.5851 127.39 57.1349 126.119C56.6818 127.48 55.5035 128.479 54.144 129.114C53.9627 129.205 53.7814 129.296 53.6002 129.296C53.6002 129.296 53.6002 129.296 53.6002 129.205C53.5095 128.207 53.5095 127.208 53.8721 126.209C54.144 125.211 54.7784 124.394 55.5035 123.667L55.5941 123.577C55.6848 123.486 55.866 123.395 55.9567 123.214C56.5911 122.669 57.4069 122.306 58.2226 122.124C58.6758 122.033 59.1289 121.943 59.5821 121.943C61.9386 121.943 64.0232 123.214 65.0202 125.211C65.3828 125.937 65.564 126.663 65.6547 127.208C65.836 127.571 65.836 127.753 65.836 127.843Z" fill="#989FB0"/>
<path d="M58.5849 141.279C58.0411 141.915 57.1347 141.915 56.319 141.915C57.1347 141.098 56.6815 138.465 53.7812 138.737C49.7932 138.011 50.1558 133.835 54.1437 132.564L54.7782 132.383L54.8688 132.473C55.1407 133.29 55.5939 134.017 56.0471 134.561C54.4157 135.923 56.6815 136.286 57.7692 137.376C58.6755 137.92 59.4912 140.19 58.5849 141.279Z" fill="#989FB0"/>
<path d="M161.764 104.042C161.764 109.761 159.335 114.871 155.447 118.522C154.354 119.495 153.261 120.347 151.924 121.077C149.009 122.78 145.607 123.754 141.963 123.754C138.319 123.754 134.917 122.78 132.002 121.077C131.516 120.834 131.151 120.59 130.665 120.225C125.563 116.697 122.162 110.734 122.162 104.042C122.162 93.0912 131.03 84.3305 141.842 84.3305C152.896 84.2088 161.764 93.0912 161.764 104.042Z" fill="#D5DDEA"/>
<path fill-rule="evenodd" clip-rule="evenodd" d="M160.765 104.042C160.765 93.6446 152.348 85.2149 141.852 85.3304L141.841 85.3305V85.3305C131.578 85.3305 123.161 93.6467 123.161 104.042C123.161 110.39 126.388 116.052 131.233 119.403L131.249 119.414L131.265 119.425C131.724 119.77 132.035 119.976 132.449 120.183L132.477 120.197L132.505 120.213C135.271 121.829 138.498 122.754 141.963 122.754C145.427 122.754 148.655 121.829 151.42 120.213L151.433 120.206L151.445 120.199C152.688 119.52 153.716 118.724 154.773 117.783C158.466 114.311 160.765 109.463 160.765 104.042ZM141.836 83.3305C153.447 83.2056 162.763 92.5397 162.763 104.042C162.763 110.054 160.207 115.423 156.131 119.251L156.121 119.26L156.111 119.269C154.989 120.268 153.836 121.17 152.416 121.948C149.353 123.735 145.782 124.754 141.963 124.754C138.15 124.754 134.585 123.738 131.525 121.956C130.986 121.684 130.578 121.409 130.081 121.037C124.731 117.329 121.162 111.071 121.162 104.042C121.162 92.5376 130.478 83.3334 141.836 83.3305Z" fill="#D5DDEA"/>
<path d="M137.954 108.422C138.197 108.665 138.44 109.03 138.805 109.274C139.048 109.517 139.291 109.639 139.534 109.882C139.655 110.004 139.898 110.125 140.02 110.247C140.02 110.247 140.141 110.247 140.141 110.369L140.263 110.49V112.194C140.263 112.194 140.263 112.194 140.141 112.072C140.02 111.951 139.777 111.829 139.655 111.707C139.412 111.586 139.169 111.342 138.926 111.22C138.805 111.22 138.805 111.099 138.683 111.099C137.833 110.612 137.104 110.125 137.104 109.517C137.226 109.274 137.468 108.909 137.954 108.422ZM154.853 117.833C154.125 116.252 153.14 114.749 151.439 113.897C150.588 113.532 149.617 113.167 148.645 113.167C148.402 113.167 148.037 113.167 147.794 113.167C147.673 113.167 147.551 113.167 147.43 113.167C146.094 113.046 145.972 112.802 145.972 112.802V110.004C146.822 109.274 147.673 108.422 148.402 107.57C149.009 106.718 149.495 105.745 149.738 104.528C150.831 104.285 151.56 103.311 151.439 102.095C151.439 101.608 151.074 101.121 151.074 100.635C151.074 100.391 151.074 100.148 151.074 99.9045C151.074 99.7828 151.074 99.5395 151.074 99.4178C151.074 99.2961 151.074 99.0528 151.074 98.9311C150.953 98.0794 150.71 97.2276 150.224 96.2542C148.766 93.5773 146.094 91.8738 142.935 91.8738C142.328 91.8738 141.72 91.9955 141.113 92.1172C140.02 92.3605 138.926 92.8473 138.076 93.5773C137.954 93.699 137.711 93.8207 137.59 94.064L137.468 94.1857C136.497 95.1591 135.646 96.2542 135.282 97.5927C134.796 98.9311 134.796 100.27 134.917 101.608C134.917 101.608 134.917 101.608 134.917 101.73V101.851C134.917 102.095 135.039 102.095 134.917 102.216C134.917 102.338 134.796 102.338 134.796 102.46C134.553 102.825 134.431 103.311 134.674 104.042C135.16 105.258 135.889 105.137 136.74 105.745C136.74 105.745 136.618 105.745 136.618 105.867L135.768 106.11C131.88 107.327 130.544 110.612 132.245 112.681C132.852 113.411 133.824 114.019 135.282 114.384C134.917 114.384 134.553 114.627 134.31 114.871C132.609 116.209 131.516 118.278 131.273 120.225C131.273 120.346 131.273 120.468 131.273 120.59C131.759 120.833 132.123 121.198 132.609 121.441L151.632 120.996C152.847 120.266 153.384 119.703 154.478 118.729C154.356 118.121 154.975 117.955 154.853 117.833Z" fill="white"/>
<path d="M155.448 118.521C154.354 119.495 153.261 120.347 151.925 121.077C149.009 122.78 145.608 123.754 141.963 123.754C138.319 123.754 134.917 122.78 132.002 121.077C131.516 120.833 131.151 120.59 130.666 120.225C130.666 120.103 130.666 119.982 130.666 119.86C130.908 117.913 132.002 115.845 133.703 114.506C133.946 114.263 134.31 114.141 134.674 114.019C133.217 113.776 132.245 113.168 131.637 112.316H136.254C137.59 114.141 139.655 115.236 142.085 115.236C144.15 115.236 145.972 114.384 147.308 113.046C147.43 113.046 147.551 113.046 147.673 113.046C147.916 113.046 148.159 113.046 148.523 113.046C149.495 113.046 150.467 113.289 151.317 113.776C153.018 114.628 154.233 116.088 155.083 117.791C155.326 118.035 155.326 118.278 155.448 118.521Z" fill="#C2C8D6"/>
<path d="M146.094 110.004V112.559L138.44 112.803L138.805 111.099C138.926 111.099 138.926 111.221 139.048 111.221C139.291 111.343 139.534 111.586 139.777 111.708C139.898 111.829 140.02 111.951 140.263 112.073C140.263 112.073 140.384 112.073 140.384 112.194V110.491L140.263 110.369C141.599 111.099 143.421 111.586 146.094 110.004Z" fill="url(#paint5_linear_32_534)"/>
<path d="M151.074 99.4182C149.616 99.9049 147.915 100.148 146.336 100.027C143.785 99.7833 141.355 98.8098 139.412 97.1064C138.804 98.9315 137.225 100.27 135.403 101.122C135.16 101.243 134.917 101.365 134.674 101.365C134.674 101.365 134.674 101.365 134.674 101.243C134.552 99.9049 134.552 98.5665 135.038 97.228C135.403 95.8896 136.253 94.7945 137.225 93.8211L137.347 93.6994C137.468 93.5777 137.711 93.4561 137.832 93.2127C138.683 92.4826 139.776 91.9959 140.869 91.7526C141.477 91.6309 142.084 91.5092 142.692 91.5092C145.85 91.5092 148.644 93.2127 149.981 95.8896C150.466 96.863 150.709 97.8364 150.831 98.5665C151.074 99.0532 151.074 99.2965 151.074 99.4182Z" fill="#989FB0"/>
<path d="M141.355 117.427C140.626 118.278 139.412 118.278 138.318 118.278C139.412 117.183 138.804 113.655 134.917 114.02C129.572 113.046 130.058 107.449 135.403 105.746L136.253 105.502L136.375 105.624C136.739 106.719 137.346 107.692 137.954 108.422C135.767 110.248 138.804 110.734 140.262 112.194C141.477 112.924 142.57 115.966 141.355 117.427Z" fill="#989FB0"/>
<defs>
<linearGradient id="paint0_linear_32_534" x1="64.3791" y1="24.2897" x2="64.3791" y2="22.119" gradientUnits="userSpaceOnUse">
<stop stop-color="white"/>
<stop offset="0.9913" stop-color="#D6DEEA"/>
</linearGradient>
<linearGradient id="paint1_linear_32_534" x1="85.2051" y1="83.2906" x2="85.2051" y2="79.7964" gradientUnits="userSpaceOnUse">
<stop stop-color="white"/>
<stop offset="0.9913" stop-color="#D6DEEA"/>
</linearGradient>
<linearGradient id="paint2_linear_32_534" x1="124.667" y1="28.4237" x2="124.667" y2="27.0369" gradientUnits="userSpaceOnUse">
<stop stop-color="white"/>
<stop offset="0.9913" stop-color="#D6DEEA"/>
</linearGradient>
<linearGradient id="paint3_linear_32_534" x1="20.0075" y1="76.7316" x2="20.0075" y2="75.3656" gradientUnits="userSpaceOnUse">
<stop stop-color="white"/>
<stop offset="0.9913" stop-color="#D6DEEA"/>
</linearGradient>
<linearGradient id="paint4_linear_32_534" x1="59.2541" y1="137.764" x2="59.2541" y2="136.671" gradientUnits="userSpaceOnUse">
<stop stop-color="white"/>
<stop offset="0.9913" stop-color="#D6DEEA"/>
</linearGradient>
<linearGradient id="paint5_linear_32_534" x1="142.252" y1="112.716" x2="142.252" y2="111.25" gradientUnits="userSpaceOnUse">
<stop stop-color="white"/>
<stop offset="0.9913" stop-color="#D6DEEA"/>
</linearGradient>
</defs>
</svg>
