<?xml version="1.0" encoding="UTF-8"?><svg version="1.1" viewBox="0 0 24 24" xmlns="http://www.w3.org/2000/svg" xmlns:xlink="http://www.w3.org/1999/xlink"><!--Generated by IJSVG (https://github.com/iconjar/IJSVG)--><g stroke-linecap="round" stroke-width="1" stroke="#000" fill="none" stroke-linejoin="round"><path d="M22.892,17.024l-5.868,5.868l7.08181e-08,-7.07944e-08c-0.810281,0.810009 -2.12372,0.810009 -2.934,1.41589e-07l-10.89,-10.892l1.6629e-08,1.66101e-08c-0.388864,-0.388423 -0.607559,-0.915375 -0.608,-1.465v-5.876l-8.88618e-08,-6.17783e-05c-0.00162856,-1.14404 0.923025,-2.07356 2.06706,-2.07794h5.873l-8.97272e-08,1.19282e-11c0.550787,-7.32338e-05 1.07896,0.219049 1.46794,0.609l10.893,10.9l4.23179e-08,4.23202e-08c0.809926,0.809969 0.809891,2.12315 -7.80827e-05,2.93308c-0.000307187,0.000307171 -0.000614471,0.000614245 -0.000921852,0.000921223Z"></path><path d="M9.23625,6.30075c0.810338,0.810338 0.810338,2.12416 0,2.93449c-0.810338,0.810338 -2.12416,0.810338 -2.93449,0c-0.810338,-0.810338 -0.810338,-2.12416 -8.88178e-16,-2.93449c0.810338,-0.810338 2.12416,-0.810338 2.93449,-8.88178e-16"></path><path d="M0.5,0.5l6.74,6.74"></path><path d="M14.09,9.5l-4.6,4.6"></path><path d="M15.5,10.91l-2.83,2.83"></path><path d="M19.04,14.45l-2.83,2.83"></path><path d="M16.92,12.33l-2.83,2.83"></path><path d="M10.9,15.51l0.36,-0.35"></path><path d="M12.32,16.92l0.35,-0.35"></path><path d="M14.44,19.05l0.35,-0.36"></path></g></svg>