<svg xmlns="http://www.w3.org/2000/svg" viewBox="0 0 24 24"><path d="M23.25 19.5v.635a1.62 1.62 0 0 1-1.615 1.615H2.25a1.5 1.5 0 0 1-1.5-1.5v-.75M.75 8.25V3.865A1.62 1.62 0 0 1 2.365 2.25h19.278a1.612 1.612 0 0 1 1.607 1.607V8.25M23.25 6.75H.75M8.25 11.25a3 3 0 0 0-3 3 3 3 0 0 0 3 3M12.75 11.25a1.5 1.5 0 0 0-1.5 1.5v3a1.5 1.5 0 0 0 3 0v-3a1.5 1.5 0 0 0-1.5-1.5zM21.75 17.25v-6L19.5 15l-2.25-3.75v6M2.625 16.5a.375.375 0 1 1-.375.375.375.375 0 0 1 .375-.375" fill="none" stroke="currentColor" stroke-linecap="round" stroke-linejoin="round" stroke-width="1.5"/></svg>