<?xml version="1.0" encoding="UTF-8"?><svg version="1.1" viewBox="0 0 24 24" xmlns="http://www.w3.org/2000/svg" xmlns:xlink="http://www.w3.org/1999/xlink"><!--Generated by IJSVG (https://github.com/iconjar/IJSVG)--><g stroke-linecap="round" stroke-width="1" stroke="#000" fill="none" stroke-linejoin="round"><path d="M2,6.4l1.06581e-14,1.35896e-07c-7.50534e-08,-0.497056 0.402944,-0.9 0.9,-0.9h9.178l-2.74907e-08,7.84368e-11c0.269674,-0.000769437 0.528228,0.107412 0.717,0.3l2.922,3.006l-3.14524e-09,-3.23511e-09c0.182182,0.187387 0.283764,0.43865 0.283,0.7v13.094h1.77636e-15c0,0.497056 -0.402944,0.9 -0.9,0.9h-12.2h-3.93403e-08c-0.497056,-2.1727e-08 -0.9,-0.402944 -0.9,-0.9Z"></path><path d="M8,5.5v-4.1l8.88178e-15,-1.35896e-07c7.50534e-08,-0.497056 0.402944,-0.9 0.9,-0.9c0,0 0,0 0,0h9.178l-9.58178e-09,7.49978e-11c0.271406,-0.00212436 0.532018,0.106163 0.722,0.3l2.922,3.006l-3.14523e-09,-3.2351e-09c0.182182,0.187387 0.283764,0.43865 0.283,0.7v13.094v0c0,0.497056 -0.402944,0.9 -0.9,0.9h-5.105"></path></g></svg>