<?xml version="1.0" encoding="UTF-8"?><svg version="1.1" viewBox="0 0 24 24" xmlns="http://www.w3.org/2000/svg" xmlns:xlink="http://www.w3.org/1999/xlink"><!--Generated by IJSVG (https://github.com/iconjar/IJSVG)--><g stroke-linecap="round" stroke-width="1" stroke="#000" fill="none" stroke-linejoin="round"><path d="M19.479,8v-5.5v0c0,-1.10457 -0.895431,-2 -2,-2h-12l-8.74228e-08,3.55271e-15c-1.10457,4.82823e-08 -2,0.895431 -2,2c0,0 0,0 0,0v16l2.30926e-14,3.01992e-07c1.66785e-07,1.10457 0.895431,2 2,2h8l3,3v-3h1l-6.32278e-08,1.68541e-11c0.706898,-0.000188394 1.36119,-0.373526 1.721,-0.982"></path><path d="M1.485,3.764l-1.73168e-07,9.91812e-08c-0.622336,0.35644 -1.00618,1.01882 -1.006,1.736v16l2.30926e-14,3.01992e-07c1.66785e-07,1.10457 0.895431,2 2,2h8l7.36403e-08,-2.11529e-11c0.700654,-0.000201263 1.35011,-0.367039 1.712,-0.967"></path><path d="M5.48,3.5h4"></path><path d="M7.48,8v-4.5"></path><path d="M15.7,7.221l-4.2,-1.2l1.2,4.2l7.179,7.179l-8.94366e-09,-8.94366e-09c0.828427,0.828427 2.17157,0.828427 3,1.78873e-08c0.828427,-0.828427 0.828427,-2.17157 1.78873e-08,-3c0,0 -3.55271e-15,-1.77636e-15 -3.55271e-15,-1.77636e-15Z"></path><path d="M18.98,16.5l3,-3"></path><path d="M12.7,10.22l3,-3"></path><path d="M12.48,3.5h4"></path><path d="M6.48,11.5h4"></path><path d="M6.48,14.5h6.5"></path><path d="M6.48,17.5h9"></path></g></svg>