<?xml version="1.0" encoding="UTF-8"?><svg version="1.1" viewBox="0 0 24 24" xmlns="http://www.w3.org/2000/svg" xmlns:xlink="http://www.w3.org/1999/xlink"><!--Generated by IJSVG (https://github.com/iconjar/IJSVG)--><g stroke-linecap="round" stroke-width="1" stroke="#000" fill="none" stroke-linejoin="round"><path d="M19.5,14.5v-13v0c0,-0.552285 -0.447715,-1 -1,-1h-13l-4.37114e-08,9.99201e-16c-0.552285,2.41411e-08 -1,0.447715 -1,1c0,2.22045e-16 0,6.66134e-16 0,6.66134e-16v13"></path><path d="M23.5,22.5v0c0,0.552285 -0.447715,1 -1,1h-21h-4.37114e-08c-0.552285,-2.41411e-08 -1,-0.447715 -1,-1c0,0 0,-3.55271e-15 0,-3.55271e-15v-6h7v1l2.15018e-08,7.19517e-06c0.00329876,1.1032 0.896805,1.9967 2.00001,1.99999h5l1.08868e-07,-3.25144e-10c1.1032,-0.00329486 1.99671,-0.896798 2,-2v-1h7Z"></path><path d="M0.5,16.5l4,-6"></path><path d="M19.5,10.5l4,6"></path><path d="M8.5,3.5h2"></path><path d="M10.5,6.5h5"></path><path d="M8.5,9.5h7"></path><path d="M8.5,12.5h7"></path></g></svg>