<svg xmlns="http://www.w3.org/2000/svg" width="auto" height="auto" viewBox="0 0 80 80"><title>Asset 1</title><circle cx="40" cy="40" r="40" fill="#f0f2ff"/><path d="M29.84,15.44a2.94,2.94,0,0,0-1,.19,4.75,4.75,0,0,0-9.39,0,2.9,2.9,0,0,0-1-.19,2.86,2.86,0,0,0,0,5.72H29.84a2.86,2.86,0,1,0,0-5.72Z" fill="#fff" stroke="#4550e5" stroke-linejoin="round"/><path d="M71.35,22.35a3,3,0,0,0-1,.2,4.75,4.75,0,0,0-9.39,0,3,3,0,0,0-1-.2,2.87,2.87,0,0,0,0,5.73H71.35a2.87,2.87,0,0,0,0-5.73Z" fill="#fff" stroke="#4550e5" stroke-linejoin="round"/><path d="M36.22,47.4,48.86,30.11a1.19,1.19,0,0,1,1.92,0L63.42,47.4Z" fill="#fff"/><path d="M36.22,47.4,48.86,30.11a1.19,1.19,0,0,1,1.92,0L63.42,47.4Z" fill="none" stroke="#4550e5" stroke-linecap="round" stroke-linejoin="round"/><path d="M29.43,47.4,40.68,34.16a1.2,1.2,0,0,1,1.82,0L53.76,47.4Z" fill="#fff"/><path d="M29.43,47.4,40.68,34.16a1.2,1.2,0,0,1,1.82,0L53.76,47.4Z" fill="none" stroke="#4550e5" stroke-linecap="round" stroke-linejoin="round"/><line x1="20.24" y1="47.4" x2="20.24" y2="41.68" fill="none" stroke="#4550e5" stroke-linecap="round" stroke-linejoin="round"/><polygon points="25.97 37.38 21.67 32.37 24.54 32.37 20.24 27.36 15.95 32.37 18.81 32.37 14.52 37.38 18.09 37.38 14.52 41.68 20.24 41.68 25.97 41.68 22.39 37.38 25.97 37.38" fill="#d6daff" stroke="#4550e5" stroke-linecap="round" stroke-linejoin="round"/><path d="M15.71,47.4a1.12,1.12,0,0,0-.81.35,1.16,1.16,0,0,0-.29.83,25,25,0,0,0,49.9,0,1.05,1.05,0,0,0-.29-.83,1.07,1.07,0,0,0-.8-.36Z" fill="#d6daff"/><path d="M15.71,47.4a1.12,1.12,0,0,0-.81.35,1.16,1.16,0,0,0-.29.83,25,25,0,0,0,49.9,0,1.05,1.05,0,0,0-.29-.83,1.07,1.07,0,0,0-.8-.36Z" fill="none" stroke="#4550e5" stroke-linecap="round" stroke-linejoin="round"/><path d="M25.25,47.4a2.87,2.87,0,0,0,0,5.73,2.92,2.92,0,0,1,2.79,2l2.39,7.66a2.48,2.48,0,0,0,4.84-.74v-2a8.19,8.19,0,0,1,2.39-5.78A4,4,0,0,0,34.8,47.4Z" fill="#fff" stroke="#4550e5" stroke-linecap="round" stroke-linejoin="round"/><path d="M58.89,62.58V57.92a4.08,4.08,0,0,0-4.08-4.08,3.08,3.08,0,0,0-3.08,3.08,3.08,3.08,0,0,1-2.61,3l-.76.12A7.87,7.87,0,0,0,41.73,67l-.56,4.69A24.93,24.93,0,0,0,58.89,62.58Z" fill="#fff"/><path d="M58.89,62.58V57.92a4.08,4.08,0,0,0-4.08-4.08,3.08,3.08,0,0,0-3.08,3.08,3.08,3.08,0,0,1-2.61,3l-.76.12A7.87,7.87,0,0,0,41.73,67l-.56,4.69A24.93,24.93,0,0,0,58.89,62.58Z" fill="none" stroke="#4550e5" stroke-linecap="round" stroke-linejoin="round"/><line x1="33.12" y1="47.4" x2="33.12" y2="43.11" fill="none" stroke="#4550e5" stroke-linecap="round" stroke-linejoin="round"/><polygon points="38.85 38.81 34.55 33.8 37.42 33.8 33.12 28.8 28.83 33.8 31.69 33.8 27.4 38.81 30.98 38.81 27.4 43.11 33.12 43.11 38.85 43.11 35.27 38.81 38.85 38.81" fill="#d6daff" stroke="#4550e5" stroke-linecap="round" stroke-linejoin="round"/></svg>
