<?xml version="1.0" encoding="UTF-8"?><svg version="1.1" viewBox="0 0 24 24" xmlns="http://www.w3.org/2000/svg" xmlns:xlink="http://www.w3.org/1999/xlink"><!--Generated by IJSVG (https://github.com/iconjar/IJSVG)--><g stroke-linecap="round" stroke-width="1" stroke="#000" fill="none" stroke-linejoin="round"><path d="M20.1317,3.85327c4.49103,4.49103 4.49103,11.7724 0,16.2635c-4.49103,4.49103 -11.7724,4.49103 -16.2635,0c-4.49103,-4.49103 -4.49103,-11.7724 0,-16.2635c4.49103,-4.49103 11.7724,-4.49103 16.2635,0"></path><path d="M0.673,9.985h6.084l1.05607e-07,-4.78462e-11c0.795787,-0.000360523 1.55911,0.315474 2.122,0.878l1.121,1.121l6.51085e-08,6.50885e-08c1.12358,1.12324 1.17664,2.92768 0.121,4.115l-1.363,1.533l1.42988e-08,-1.60824e-08c-0.488198,0.549096 -0.757915,1.25826 -0.758,1.993v3.145"></path><path d="M20.261,3.985h-5.8l-9.83506e-08,1.77636e-15c-1.24264,5.43176e-08 -2.25,1.00736 -2.25,2.25c5.43176e-08,1.24264 1.00736,2.25 2.25,2.25h0.432l-1.14567e-07,1.69818e-10c1.00425,-0.0014886 1.94264,0.499611 2.5,1.335l2.218,3.329l-7.38376e-09,-1.10766e-08c0.55713,0.83577 1.49556,1.33727 2.5,1.336h1.121"></path></g></svg>