<?xml version="1.0" encoding="UTF-8"?><svg version="1.1" viewBox="0 0 24 24" xmlns="http://www.w3.org/2000/svg" xmlns:xlink="http://www.w3.org/1999/xlink"><!--Generated by IJSVG (https://github.com/iconjar/IJSVG)--><g stroke-linecap="round" stroke-width="1" stroke="#000" fill="none" stroke-linejoin="round"><path d="M18.25,2.251c-1.061,1.061 -3.04,0.96 -4.75,-0.75l-1.5,1.499l8,8l3.5,-3.5Z"></path><path d="M11.939,9.94l-3.793,-3.792l6.64858e-08,-1.4705e-07c0.910118,-2.01295 0.0160937,-4.38257 -1.99686,-5.29269c-1.04732,-0.473526 -2.24773,-0.473639 -3.29514,-0.000311058l2.146,2.145v2h-2l-2.146,-2.145l8.4119e-08,-1.8605e-07c-0.910118,2.01295 -0.0160941,4.38257 1.99686,5.29269c1.04732,0.473526 2.24773,0.47364 3.29514,0.00031136l3.793,3.792"></path><path d="M12.061,14.062l3.793,3.793l8.4119e-08,-1.8605e-07c-0.910118,2.01295 -0.0160941,4.38257 1.99686,5.29269c1.04732,0.473526 2.24773,0.47364 3.29514,0.00031136l-2.146,-2.148v-2h2l2.146,2.147l6.64858e-08,-1.4705e-07c0.910118,-2.01295 0.0160937,-4.38257 -1.99686,-5.29269c-1.04732,-0.473526 -2.24773,-0.473639 -3.29514,-0.000311058l-3.793,-3.793"></path><path d="M15.439,6.44l-14.5,14.5l1.35357e-08,-1.35357e-08c-0.585974,0.585974 -0.585974,1.53603 1.26523e-08,2.122c0.585974,0.585974 1.53603,0.585974 2.122,-1.26523e-08l14.5,-14.5"></path></g></svg>