<?xml version="1.0" encoding="UTF-8"?><svg version="1.1" viewBox="0 0 24 24" xmlns="http://www.w3.org/2000/svg" xmlns:xlink="http://www.w3.org/1999/xlink"><!--Generated by IJSVG (https://github.com/iconjar/IJSVG)--><g stroke-linecap="round" stroke-width="1" stroke="#000" fill="none" stroke-linejoin="round"><path d="M12,5.5v13"></path><path d="M5.5,5.499c-0.55228,0 -1,-0.44772 -1,-1v-2c0,-0.55228 0.44772,-1 1,-1h13c0.55228,0 1,0.44772 1,1v2c0,0.55228 -0.44772,1 -1,1Z"></path><path d="M10.5,23.499c-0.55228,0 -1,-0.44772 -1,-1v-3c0,-0.55228 0.44772,-1 1,-1h3c0.55228,0 1,0.44772 1,1v3c0,0.55228 -0.44772,1 -1,1Z"></path><path d="M1.5,23.499c-0.55228,0 -1,-0.44772 -1,-1v-3c0,-0.55228 0.44772,-1 1,-1h3c0.55228,0 1,0.44772 1,1v3c0,0.55228 -0.44772,1 -1,1Z"></path><path d="M19.5,23.499c-0.55228,0 -1,-0.44772 -1,-1v-3c0,-0.55228 0.44772,-1 1,-1h3c0.55228,0 1,0.44772 1,1v3c0,0.55228 -0.44772,1 -1,1Z"></path><path d="M20.5,18.5v-5v0c0,-0.552285 -0.447715,-1 -1,-1h-15l-4.37114e-08,1.77636e-15c-0.552285,2.41411e-08 -1,0.447715 -1,1c0,0 0,0 0,0v5"></path></g></svg>