<?xml version="1.0" encoding="UTF-8"?><svg version="1.1" viewBox="0 0 24 24" xmlns="http://www.w3.org/2000/svg" xmlns:xlink="http://www.w3.org/1999/xlink"><!--Generated by IJSVG (https://github.com/iconjar/IJSVG)--><g stroke-linecap="round" stroke-width="1" stroke="#000" fill="none" stroke-linejoin="round"><path d="M2.51,9.5v2.5"></path><path d="M2.51,14.5v2.5"></path><path d="M2.505,5.5v1l1.15463e-14,1.50996e-07c8.33927e-08,0.552285 0.447715,1 1,1h1"></path><path d="M2.505,19.5v1l1.15463e-14,1.50996e-07c8.33927e-08,0.552285 0.447715,1 1,1h1"></path><path d="M7,7.5h3"></path><path d="M7,21.5h3"></path><path d="M2.51,0.5v2.5"></path><path d="M20.5,9.5v0c0,0.552285 -0.447715,1 -1,1h-6l-4.37114e-08,-1.77636e-15c-0.552285,-2.41411e-08 -1,-0.447715 -1,-1c0,0 0,0 0,0v-8l1.06581e-14,1.50996e-07c-8.33927e-08,-0.552285 0.447715,-1 1,-1h3l1.68183e-07,9.12007e-09c0.632927,0.0343218 1.23516,0.283752 1.707,0.707l1.586,1.586l1.27787e-07,1.42459e-07c0.423248,0.471843 0.672678,1.07407 0.707,1.707Z"></path><path d="M17,0.569v2.431l1.06581e-14,1.50996e-07c8.33927e-08,0.552285 0.447715,1 1,1h2.429"></path><path d="M20.5,22.5v0c0,0.552285 -0.447715,1 -1,1h-6h-4.37114e-08c-0.552285,-2.41411e-08 -1,-0.447715 -1,-1c0,0 0,-3.55271e-15 0,-3.55271e-15v-8l1.06581e-14,1.50996e-07c-8.33927e-08,-0.552285 0.447715,-1 1,-1h3.114l6.76233e-08,8.52651e-14c0.567543,7.19412e-07 1.11182,0.225554 1.513,0.627l1.666,1.666l-1.48213e-08,-1.65229e-08c0.423248,0.471843 0.672678,1.07407 0.707,1.707Z"></path><path d="M17,13.536v2.464l1.06581e-14,1.50996e-07c8.33927e-08,0.552285 0.447715,1 1,1h2.43"></path></g></svg>