<?xml version="1.0" encoding="UTF-8"?><svg version="1.1" viewBox="0 0 24 24" xmlns="http://www.w3.org/2000/svg" xmlns:xlink="http://www.w3.org/1999/xlink"><!--Generated by IJSVG (https://github.com/iconjar/IJSVG)--><g stroke-linecap="round" stroke-width="1" stroke="#000" fill="none" stroke-linejoin="round"><path d="M12,5.5v13"></path><path d="M3,18.5l6.92779e-14,9.05975e-07c-5.00356e-07,-3.31371 2.68629,-6 6,-6h6l-2.62268e-07,7.10543e-15c3.31371,-1.44847e-07 6,2.68629 6,6c0,0 0,3.55271e-15 0,3.55271e-15"></path><path d="M10.5,5.499c-0.55228,0 -1,-0.44772 -1,-1v-3c0,-0.55228 0.44772,-1 1,-1h3c0.55228,0 1,0.44772 1,1v3c0,0.55228 -0.44772,1 -1,1Z"></path><path d="M10.5,23.499c-0.55228,0 -1,-0.44772 -1,-1v-3c0,-0.55228 0.44772,-1 1,-1h3c0.55228,0 1,0.44772 1,1v3c0,0.55228 -0.44772,1 -1,1Z"></path><path d="M1.5,23.499c-0.55228,0 -1,-0.44772 -1,-1v-3c0,-0.55228 0.44772,-1 1,-1h3c0.55228,0 1,0.44772 1,1v3c0,0.55228 -0.44772,1 -1,1Z"></path><path d="M19.5,23.499c-0.55228,0 -1,-0.44772 -1,-1v-3c0,-0.55228 0.44772,-1 1,-1h3c0.55228,0 1,0.44772 1,1v3c0,0.55228 -0.44772,1 -1,1Z"></path></g></svg>