<?xml version="1.0" encoding="UTF-8"?><svg version="1.1" viewBox="0 0 24 24" xmlns="http://www.w3.org/2000/svg" xmlns:xlink="http://www.w3.org/1999/xlink"><!--Generated by IJSVG (https://github.com/iconjar/IJSVG)--><g stroke-linecap="round" stroke-width="1" stroke="#000" fill="none" stroke-linejoin="round"><path d="M23.5,19.5v0c0,1.10457 -0.895431,2 -2,2h-19l-8.74228e-08,-3.55271e-15c-1.10457,-4.82823e-08 -2,-0.895431 -2,-2c0,0 0,0 0,0v-14l2.13163e-14,3.01992e-07c-1.66785e-07,-1.10457 0.89543,-2 2,-2h19l-8.74228e-08,1.77636e-15c1.10457,-4.82823e-08 2,0.89543 2,2Z"></path><path d="M0.5,8.5h23"></path><path d="M3.5,15l2.84217e-14,3.77489e-07c-2.08482e-07,-1.38071 1.11929,-2.5 2.5,-2.5h12l-1.09278e-07,3.55271e-15c1.38071,-6.03528e-08 2.5,1.11929 2.5,2.5c6.03528e-08,1.38071 -1.11929,2.5 -2.5,2.5h-12h-1.09278e-07c-1.38071,-6.03528e-08 -2.5,-1.11929 -2.5,-2.5c0,0 0,-2.4869e-14 0,-2.4869e-14Z"></path><path d="M5.54,17.45l4.96,-4.95"></path><path d="M10,17.5l5,-5"></path><path d="M4.5,3.5v5"></path><path d="M8.5,3.5v5"></path></g></svg>