<?xml version="1.0" encoding="UTF-8"?><svg version="1.1" viewBox="0 0 24 24" xmlns="http://www.w3.org/2000/svg" xmlns:xlink="http://www.w3.org/1999/xlink"><!--Generated by IJSVG (https://github.com/iconjar/IJSVG)--><g stroke-linecap="round" stroke-width="1" stroke="#000" fill="none" stroke-linejoin="round"><path d="M18,2.781l2.40938e-09,-6.94172e-05c0,-0.441768 -0.289874,-0.831192 -0.713067,-0.957951l-4,-1.2l-4.6692e-08,-1.40157e-08c-0.187533,-0.0562925 -0.387467,-0.0562925 -0.575,2.80313e-08l-4,1.2l4.48497e-08,-1.34916e-08c-0.422768,0.127176 -0.712114,0.516538 -0.711934,0.95802v5.079l-2.14458e-08,-3.48414e-05c0.000244522,0.408827 0.249322,0.776334 0.628968,0.928022l4,1.6l2.36582e-08,9.4665e-09c0.238475,0.0954227 0.504525,0.0954227 0.743,2.75456e-08l4,-1.6l-5.75105e-08,2.30457e-08c0.379266,-0.15198 0.627927,-0.519403 0.628033,-0.927987v-5.079Z"></path><path d="M17.745,2.114l-4.745,1.423l-4.745,-1.423"></path><path d="M13,3.5v7"></path><path d="M23,12.884v0c0,-0.208251 -0.129077,-0.394696 -0.324,-0.468l-3.5,-1.312l5.01394e-10,1.87949e-10c-0.113156,-0.0424164 -0.237844,-0.0424164 -0.351,-3.75897e-10l-3.5,1.312l3.6135e-08,-1.35892e-08c-0.194923,0.0733043 -0.324,0.259749 -0.324,0.468v3.844l-2.81508e-10,-1.67029e-05c2.85717e-08,0.189222 0.106817,0.362232 0.275985,0.447009l3.5,1.75l-2.47195e-08,-1.23524e-08c0.140705,0.0703107 0.306295,0.0703107 0.447,2.47047e-08l3.5,-1.75l5.20822e-08,-2.60962e-08c0.169174,-0.0847659 0.276003,-0.25777 0.276015,-0.446993v-3.844Z"></path><path d="M22.894,12.577l-3.894,1.46l-3.893,-1.46"></path><path d="M19,14v5"></path><path d="M13,14.258l2.89925e-08,-0.000240801c0,-0.430607 -0.275653,-0.812862 -0.684228,-0.948835l-5,-1.667l3.0465e-08,1.01469e-08c-0.205127,-0.0683211 -0.426873,-0.0683211 -0.632,-2.02938e-08l-5,1.667l2.14397e-08,-7.14657e-09c-0.408479,0.13616 -0.683941,0.518501 -0.683772,0.949076v6.559l-2.89925e-08,0.00024065c-6.50199e-08,0.430607 0.275653,0.812862 0.684228,0.948835l5,1.667l-3.0727e-10,-1.02339e-10c0.205127,0.0683211 0.426873,0.0683211 0.632,2.04682e-10l5,-1.667l-1.04393e-07,3.47978e-08c0.408479,-0.13616 0.683941,-0.518501 0.683772,-0.949076Z"></path><path d="M12.766,13.615l-5.766,1.922l-5.766,-1.922"></path><path d="M7,15.5v8"></path></g></svg>