<?xml version="1.0" encoding="UTF-8"?><svg version="1.1" viewBox="0 0 24 24" xmlns="http://www.w3.org/2000/svg" xmlns:xlink="http://www.w3.org/1999/xlink"><!--Generated by IJSVG (https://github.com/iconjar/IJSVG)--><g stroke-linecap="round" stroke-width="1" stroke="#000" fill="none" stroke-linejoin="round"><path d="M13.591,1.15901c0.87868,0.87868 0.87868,2.3033 0,3.18198c-0.87868,0.87868 -2.3033,0.87868 -3.18198,0c-0.87868,-0.87868 -0.87868,-2.3033 0,-3.18198c0.87868,-0.87868 2.3033,-0.87868 3.18198,-4.44089e-16"></path><path d="M16.5,9.5l-6.44701e-08,-2.52826e-07c-0.633742,-2.48528 -3.16221,-3.98625 -5.64749,-3.35251c-1.64674,0.419915 -2.93259,1.70577 -3.35251,3.35251Z"></path><path d="M12,13.5v-2"></path><path d="M6.5,13.5l1.5,-2"></path><path d="M17.5,13.5l-1.5,-2"></path><path d="M13.7477,16.6883c0.917732,0.917732 0.917732,2.40567 0,3.3234c-0.917732,0.917732 -2.40567,0.917732 -3.3234,0c-0.917732,-0.917732 -0.917732,-2.40567 -1.77636e-15,-3.3234c0.917732,-0.917732 2.40567,-0.917732 3.3234,0"></path><path d="M6.3557,16.6883c0.917732,0.917732 0.917732,2.40567 0,3.3234c-0.917732,0.917732 -2.40567,0.917732 -3.3234,0c-0.917732,-0.917732 -0.917732,-2.40567 -4.44089e-16,-3.3234c0.917732,-0.917732 2.40567,-0.917732 3.3234,0"></path><path d="M20.9757,16.6883c0.917732,0.917732 0.917732,2.40567 0,3.3234c-0.917732,0.917732 -2.40567,0.917732 -3.3234,0c-0.917732,-0.917732 -0.917732,-2.40567 0,-3.3234c0.917732,-0.917732 2.40567,-0.917732 3.3234,0"></path><path d="M23,23.5l-1.94212e-08,-2.40939e-08c-1.62311,-2.01363 -4.57128,-2.33021 -6.58491,-0.707093c-0.260259,0.209785 -0.497308,0.446834 -0.707093,0.707093l-1.49368e-07,-1.78363e-07c-0.919381,-1.09784 -2.27605,-1.73447 -3.708,-1.74"></path><path d="M1,23.5l-6.23337e-08,7.7331e-08c1.62311,-2.01363 4.57128,-2.33021 6.58491,-0.707093c0.260259,0.209785 0.497308,0.446834 0.707093,0.707093l3.49118e-07,-4.16886e-07c0.919381,-1.09784 2.27605,-1.73447 3.708,-1.74"></path></g></svg>