<?xml version="1.0" encoding="UTF-8"?><svg version="1.1" viewBox="0 0 24 24" xmlns="http://www.w3.org/2000/svg" xmlns:xlink="http://www.w3.org/1999/xlink"><!--Generated by IJSVG (https://github.com/iconjar/IJSVG)--><g stroke-linecap="round" stroke-width="1" stroke="#000" fill="none" stroke-linejoin="round"><path d="M15.543,15.543l-2.628,-6.571c-0.2,-0.511 -0.558,-0.519 -0.785,-0.018l-2.087,4.589l-1.859,-2.231l-9.60071e-09,-1.41616e-08c-0.206711,-0.30491 -0.621461,-0.384516 -0.926371,-0.177805c-0.0986857,0.066903 -0.177635,0.159035 -0.228629,0.266805l-2.486,4.142"></path><path d="M2.543,18.543c-0.55228,0 -1,-0.44772 -1,-1v-15c0,-0.55228 0.44772,-1 1,-1h15c0.55228,0 1,0.44772 1,1v15c0,0.55228 -0.44772,1 -1,1Z"></path><path d="M20.551,7.424l1,0.091l5.32423e-08,5.08019e-09c0.547656,0.0522553 0.950249,0.537066 0.901,1.085l-1.181,12.948l3.4189e-08,-3.55253e-07c-0.0527488,0.548107 -0.538675,0.950438 -1.087,0.9l-13.941,-1.268"></path><path d="M1.54,15.54h17"></path><path d="M7.10366,4.98234c0.585786,0.585786 0.585786,1.53553 0,2.12132c-0.585786,0.585786 -1.53553,0.585786 -2.12132,0c-0.585786,-0.585786 -0.585786,-1.53553 0,-2.12132c0.585786,-0.585786 1.53553,-0.585786 2.12132,0"></path></g></svg>