<?xml version="1.0" encoding="UTF-8"?><svg version="1.1" viewBox="0 0 24 24" xmlns="http://www.w3.org/2000/svg" xmlns:xlink="http://www.w3.org/1999/xlink"><!--Generated by IJSVG (https://github.com/iconjar/IJSVG)--><g stroke-linecap="round" stroke-width="1" stroke="#000" fill="none" stroke-linejoin="round"><path d="M9.47487,6.02513c1.36684,1.36684 1.36684,3.58291 0,4.94975c-1.36684,1.36684 -3.58291,1.36684 -4.94975,1.77636e-15c-1.36684,-1.36684 -1.36684,-3.58291 -8.88178e-16,-4.94975c1.36684,-1.36684 3.58291,-1.36684 4.94975,-8.88178e-16"></path><path d="M7,5v3.5h3.5"></path><path d="M9,22.5l-9.38611e-08,1.18516e-07c0.905822,-1.14376 1.43041,-2.54265 1.5,-4"></path><path d="M15,22.5l-2.6672e-08,-3.36781e-08c-0.905822,-1.14376 -1.43041,-2.54265 -1.5,-4"></path><path d="M7.5,22.5h9"></path><path d="M0.5,15.5h23"></path><path d="M1.5,18.5c-0.55228,0 -1,-0.44772 -1,-1v-15c0,-0.55228 0.44772,-1 1,-1h21c0.55228,0 1,0.44772 1,1v15c0,0.55228 -0.44772,1 -1,1Z"></path><path d="M13.5,7l1.5,-2l3,2.5l2.5,-3"></path><path d="M19.5,12.5v-1.5"></path><path d="M17.5,12.5v-2"></path><path d="M15.5,12.5v-3"></path><path d="M13.5,12.5v-1.5"></path></g></svg>