<?xml version="1.0" encoding="UTF-8"?><svg version="1.1" viewBox="0 0 24 24" xmlns="http://www.w3.org/2000/svg" xmlns:xlink="http://www.w3.org/1999/xlink"><!--Generated by IJSVG (https://github.com/iconjar/IJSVG)--><g stroke-linecap="round" stroke-width="1" stroke="#000" fill="none" stroke-linejoin="round"><path d="M1.012,11.942l-1.82792e-07,-4.99411e-07c-1.61354,-4.40841 0.65215,-9.29016 5.06056,-10.9037c3.66565,-1.34168 7.77393,-0.0142241 9.96144,3.21871"></path><path d="M15.01,15.04l2.33,2.33"></path><path d="M23,20.909l1.54055e-08,1.48792e-08c0.595878,0.575518 0.612383,1.52512 0.0368646,2.121c-0.575518,0.595878 -1.52512,0.612383 -2.121,0.0368646c-0.0125008,-0.0120737 -0.0247909,-0.0243638 -0.0368646,-0.0368646l-3.889,-3.889l5.30811e-08,5.30971e-08c-0.390382,-0.3905 -0.390382,-1.0235 -1.06162e-07,-1.414l0.707,-0.707l-6.15305e-08,6.15119e-08c0.3905,-0.390382 1.0235,-0.390382 1.414,-1.23024e-07Z"></path><path d="M0.5,15.53l8.793,-8.793l-6.15305e-08,6.15119e-08c0.3905,-0.390382 1.0235,-0.390382 1.414,-1.23024e-07l2.586,2.586l-6.15305e-08,-6.15119e-08c0.3905,0.390382 1.0235,0.390382 1.414,1.23024e-07l8.793,-8.793"></path><path d="M20.5,0.53h3v3"></path><path d="M17.485,9.546l2.91472e-08,-4.79884e-07c-0.284605,4.68579 -4.3139,8.25365 -8.99969,7.96904c-1.80711,-0.10976 -3.53197,-0.793649 -4.92331,-1.95204"></path></g></svg>