<?xml version="1.0" encoding="UTF-8"?><svg version="1.1" viewBox="0 0 24 24" xmlns="http://www.w3.org/2000/svg" xmlns:xlink="http://www.w3.org/1999/xlink"><!--Generated by IJSVG (https://github.com/iconjar/IJSVG)--><g stroke-linecap="round" stroke-width="1" stroke="#000" fill="none" stroke-linejoin="round"><path d="M10.475,16h-2.5l-6.55671e-08,-1.77636e-15c-0.828427,-3.62117e-08 -1.5,-0.671573 -1.5,-1.5c0,0 0,-1.77636e-15 0,-1.77636e-15v-5l1.5099e-14,-1.60927e-07c1.25089e-07,-0.828427 0.671573,-1.5 1.5,-1.5h2.5"></path><path d="M6.47,12h2.51"></path><path d="M4.5,8h-2.146l3.97192e-08,-1.43441e-11c-1.02394,0.000369773 -1.8537,0.830734 -1.85333,1.85467c0.000253435,0.701786 0.396735,1.34328 1.02433,1.65733l1.95,0.976l6.06756e-08,3.03623e-08c0.915688,0.458214 1.28654,1.57198 0.828331,2.48767c-0.314051,0.627596 -0.955544,1.02408 -1.65733,1.02433h-2.146"></path><path d="M21.8891,8.11091c2.14788,2.14788 2.14788,5.63029 0,7.77817c-2.14788,2.14788 -5.63029,2.14788 -7.77817,0c-2.14788,-2.14788 -2.14788,-5.63029 -1.77636e-15,-7.77817c2.14788,-2.14788 5.63029,-2.14788 7.77817,-1.77636e-15"></path><path d="M22.611,9h-2.549l1.16818e-08,-2.57241e-10c-1.13909,0.0250834 -2.04217,0.96883 -2.01708,2.10792c0.0243059,1.10378 0.913303,1.99278 2.01708,2.01708h0.688l-1.85751e-08,3.07689e-05c-0.000606368,1.01382 0.556639,1.94574 1.45003,2.42498"></path><path d="M12.591,13h2.909l-4.37114e-08,1.77636e-15c0.552285,-2.41411e-08 1,0.447715 1,1v3.293"></path></g></svg>