<?xml version="1.0" encoding="UTF-8"?><svg version="1.1" viewBox="0 0 24 24" xmlns="http://www.w3.org/2000/svg" xmlns:xlink="http://www.w3.org/1999/xlink"><!--Generated by IJSVG (https://github.com/iconjar/IJSVG)--><g stroke-linecap="round" stroke-width="1" stroke="#000" fill="none" stroke-linejoin="round"><path d="M1.5,23.501c-0.55228,0 -1,-0.44772 -1,-1v-21c0,-0.55228 0.44772,-1 1,-1h21c0.55228,0 1,0.44772 1,1v21c0,0.55228 -0.44772,1 -1,1Z"></path><path d="M11.1213,4.37968c1.17157,1.17157 1.17157,3.07107 0,4.24264c-1.17157,1.17157 -3.07107,1.17157 -4.24264,0c-1.17157,-1.17157 -1.17157,-3.07107 -8.88178e-16,-4.24264c1.17157,-1.17157 3.07107,-1.17157 4.24264,-8.88178e-16"></path><path d="M17.6213,15.3797c1.17157,1.17157 1.17157,3.07107 0,4.24264c-1.17157,1.17157 -3.07107,1.17157 -4.24264,0c-1.17157,-1.17157 -1.17157,-3.07107 0,-4.24264c1.17157,-1.17157 3.07107,-1.17157 4.24264,0"></path><path d="M12.5,17.5h-9"></path><path d="M20.5,17.5h-2"></path><path d="M12,6.5h8.5"></path><path d="M3.5,6.5h2.5"></path><path d="M9,6.251h-1.09278e-08c0.138071,-6.03528e-09 0.25,0.111929 0.25,0.25c6.03528e-09,0.138071 -0.111929,0.25 -0.25,0.25c-0.138071,6.03528e-09 -0.25,-0.111929 -0.25,-0.25l3.55271e-15,2.68211e-08c-2.08482e-08,-0.138071 0.111929,-0.25 0.25,-0.25c3.38653e-09,0 7.54132e-09,-8.88178e-16 1.09278e-08,-8.88178e-16"></path><path d="M15.5,17.251h-1.09278e-08c0.138071,-6.03528e-09 0.25,0.111929 0.25,0.25c6.03528e-09,0.138071 -0.111929,0.25 -0.25,0.25c-0.138071,6.03528e-09 -0.25,-0.111929 -0.25,-0.25l3.55271e-15,3.7749e-08c-2.08482e-08,-0.138071 0.111929,-0.25 0.25,-0.25"></path></g></svg>