<?xml version="1.0" encoding="UTF-8"?><svg version="1.1" viewBox="0 0 24 24" xmlns="http://www.w3.org/2000/svg" xmlns:xlink="http://www.w3.org/1999/xlink"><!--Generated by IJSVG (https://github.com/iconjar/IJSVG)--><g stroke-linecap="round" stroke-width="1" stroke="#000" fill="none" stroke-linejoin="round"><path d="M1.5,23.501c-0.55228,0 -1,-0.44772 -1,-1v-21c0,-0.55228 0.44772,-1 1,-1h21c0.55228,0 1,0.44772 1,1v21c0,0.55228 -0.44772,1 -1,1Z"></path><path d="M13.4142,4.08679c0.781049,0.781049 0.781049,2.04738 0,2.82843c-0.781049,0.781049 -2.04738,0.781049 -2.82843,0c-0.781049,-0.781049 -0.781049,-2.04738 0,-2.82843c0.781049,-0.781049 2.04738,-0.781049 2.82843,-8.88178e-16"></path><path d="M14,5.5h6.52"></path><path d="M3.52,5.5h6.48"></path><path d="M9.41421,10.5868c0.781049,0.781049 0.781049,2.04738 0,2.82843c-0.781049,0.781049 -2.04738,0.781049 -2.82843,0c-0.781049,-0.781049 -0.781049,-2.04738 -8.88178e-16,-2.82843c0.781049,-0.781049 2.04738,-0.781049 2.82843,0"></path><path d="M10,12h10.52"></path><path d="M3.52,12h2.48"></path><path d="M11.4142,17.0868c0.781049,0.781049 0.781049,2.04738 0,2.82843c-0.781049,0.781049 -2.04738,0.781049 -2.82843,0c-0.781049,-0.781049 -0.781049,-2.04738 0,-2.82843c0.781049,-0.781049 2.04738,-0.781049 2.82843,0"></path><path d="M12,18.5h8.52"></path><path d="M3.52,18.5h4.48"></path></g></svg>