<?xml version="1.0" encoding="UTF-8"?><svg version="1.1" viewBox="0 0 24 24" xmlns="http://www.w3.org/2000/svg" xmlns:xlink="http://www.w3.org/1999/xlink"><!--Generated by IJSVG (https://github.com/iconjar/IJSVG)--><g stroke-linecap="round" stroke-width="1" stroke="#000" fill="none" stroke-linejoin="round"><path d="M1.5,3.775v7.637l-9.76211e-08,-8.38436e-06c0.0601838,5.16914 3.3433,9.75009 8.21899,11.468l1.121,0.414l3.18354e-08,1.16911e-08c0.748883,0.275016 1.57112,0.275016 2.32,1.39502e-07l1.121,-0.414l-1.09515e-06,3.85866e-07c4.8757,-1.71791 8.15882,-6.29885 8.21901,-11.468v-7.637l6.69927e-09,2.00088e-06c-0.00205304,-0.613305 -0.369445,-1.16636 -0.933998,-1.406l-2.34685e-06,-9.79539e-07c-3.02921,-1.26435 -6.28367,-1.9002 -9.566,-1.869l-9.05982e-07,-8.61205e-09c-3.28233,-0.031201 -6.53679,0.604655 -9.566,1.869l2.51414e-08,-1.06719e-08c-0.564553,0.239639 -0.931945,0.792695 -0.933999,1.406Z"></path><path d="M18.5,5.5h-2l-4.354,4.354l2.01311e-07,9.08751e-08c-2.01349,-0.908923 -4.38258,-0.0134931 -5.2915,2c-0.908923,2.01349 -0.0134931,4.38258 2,5.2915c2.01349,0.908923 4.38258,0.0134931 5.2915,-2c0.472332,-1.04633 0.472332,-2.24517 1.8175e-07,-3.2915l4.354,-4.354Z"></path><path d="M11.3839,12.6161c0.488155,0.488155 0.488155,1.27961 0,1.76777c-0.488155,0.488155 -1.27961,0.488155 -1.76777,0c-0.488155,-0.488155 -0.488155,-1.27961 0,-1.76777c0.488155,-0.488155 1.27961,-0.488155 1.76777,0"></path></g></svg>