<?xml version="1.0" encoding="UTF-8"?><svg version="1.1" viewBox="0 0 24 24" xmlns="http://www.w3.org/2000/svg" xmlns:xlink="http://www.w3.org/1999/xlink"><!--Generated by IJSVG (https://github.com/iconjar/IJSVG)--><g stroke-linecap="round" stroke-width="1" stroke="#000" fill="none" stroke-linejoin="round"><path d="M20.5,13.5v-8h-9.442l8.08245e-08,-2.69011e-09c-0.659425,0.0219479 -1.26995,-0.346407 -1.558,-0.94l-9.25179e-09,-2.18372e-08c-0.272199,-0.642477 -0.90224,-1.05988 -1.6,-1.06h-3.9l-2.18557e-08,4.44089e-16c-0.276142,1.20706e-08 -0.5,0.223858 -0.5,0.5c0,0 0,0 0,0v9.5"></path><path d="M18.5,3.5h-6.456l-9.20613e-08,-8.81428e-12c-0.674146,-6.45621e-05 -1.28752,-0.389754 -1.574,-1l-2.90301e-08,-6.17217e-08c-0.28625,-0.608603 -0.897444,-0.997898 -1.57,-1h-3.4"></path><path d="M0.5,15.5l0.839,-4.2l-2.84555e-08,1.39404e-07c0.0951285,-0.466035 0.505356,-0.800573 0.981,-0.8h1.18"></path><path d="M23.5,15.5l-0.839,-4.2l7.99083e-09,3.91471e-08c-0.0951285,-0.466035 -0.505356,-0.800573 -0.981,-0.8h-1.18"></path><path d="M13.2374,8.01256c0.683418,0.683418 0.683418,1.79146 0,2.47487c-0.683418,0.683418 -1.79146,0.683418 -2.47487,0c-0.683418,-0.683418 -0.683418,-1.79146 0,-2.47487c0.683418,-0.683418 1.79146,-0.683418 2.47487,0"></path><path d="M15.5,14.5l-5.01434e-08,-1.96642e-07c-0.49291,-1.933 -2.4595,-3.10042 -4.39249,-2.60751c-1.2808,0.3266 -2.28091,1.32671 -2.60751,2.60751Z"></path><path d="M18.5,15.5l8.44896e-08,3.00489e-11c-0.828427,-0.000294652 -1.50024,0.671039 -1.50053,1.49947c-4.80625e-06,0.013513 0.000172988,0.0270254 0.000533334,0.0405335l4.51726e-08,-1.33216e-06c-0.0282548,0.833258 -0.72568,1.4864 -1.559,1.46h-6.883l6.23956e-08,-1.9351e-09c-0.832934,0.0258321 -1.52974,-0.627145 -1.558,-1.46l3.04253e-08,-1.14056e-06c0.0220908,-0.828133 -0.631335,-1.51737 -1.45947,-1.53947c-0.0135082,-0.000360337 -0.0270206,-0.000538123 -0.0405336,-0.000533307h-5v6l1.06581e-14,1.50996e-07c8.33927e-08,0.552285 0.447715,1 1,1h21h-4.37114e-08c0.552285,2.41411e-08 1,-0.447715 1,-1v-6Z"></path></g></svg>