<?xml version="1.0" encoding="UTF-8"?><svg version="1.1" viewBox="0 0 24 24" xmlns="http://www.w3.org/2000/svg" xmlns:xlink="http://www.w3.org/1999/xlink"><!--Generated by IJSVG (https://github.com/iconjar/IJSVG)--><g stroke-linecap="round" stroke-width="1" stroke="#000" fill="none" stroke-linejoin="round"><path d="M23.03,14.545l1.60056e-08,1.12082e-08c0.24972,0.174871 0.310398,0.519071 0.135526,0.768792c-0.0896593,0.128036 -0.229397,0.212057 -0.384526,0.231208l-5.544,1.692l-1.693,5.543l5.79697e-09,-4.88655e-08c-0.0358491,0.30219 -0.309884,0.518102 -0.612074,0.482253c-0.15675,-0.0185954 -0.297998,-0.103525 -0.387926,-0.233253l-13.092,-13.091l-8.8212e-08,-9.84013e-08c-0.423131,-0.472007 -0.672846,-1.07407 -0.708,-1.707l-0.00599999,-6.494l1.15463e-14,1.50996e-07c-8.33927e-08,-0.552285 0.447715,-1 1,-1h6.491l1.68183e-07,9.12007e-09c0.632927,0.0343218 1.23516,0.283752 1.707,0.707Z"></path><path d="M7.15121,4.32279c0.781049,0.781049 0.781049,2.04738 0,2.82843c-0.781049,0.781049 -2.04738,0.781049 -2.82843,0c-0.781049,-0.781049 -0.781049,-2.04738 -8.88178e-16,-2.82843c0.781049,-0.781049 2.04738,-0.781049 2.82843,-8.88178e-16"></path></g></svg>